G04 #@! TF.FileFunction,Other,Fab,Top*
%FSLAX46Y46*%
G04 Gerber Fmt 4.6, Leading zero omitted, Abs format (unit mm)*
G04 Created by KiCad (PCBNEW 4.0.4+dfsg1-stable) date Wed Feb 15 14:40:24 2017*
%MOMM*%
%LPD*%
G01*
G04 APERTURE LIST*
%ADD10C,0.100000*%
%ADD11C,0.150000*%
%ADD12C,0.300000*%
%ADD13C,0.400000*%
G04 APERTURE END LIST*
D10*
D11*
X177002200Y-166007200D02*
X177002200Y-198007200D01*
X285002200Y-198007200D01*
X285002200Y-166007200D01*
X177002200Y-166007200D01*
D10*
D11*
X10000000Y-10000000D02*
X10000000Y-200007200D01*
X287002200Y-200007200D01*
X287002200Y-10000000D01*
X10000000Y-10000000D01*
D10*
D11*
X12000000Y-12000000D02*
X12000000Y-198007200D01*
X285002200Y-198007200D01*
X285002200Y-12000000D01*
X12000000Y-12000000D01*
D10*
D11*
X60000000Y-12000000D02*
X60000000Y-10000000D01*
D10*
D11*
X110000000Y-12000000D02*
X110000000Y-10000000D01*
D10*
D11*
X160000000Y-12000000D02*
X160000000Y-10000000D01*
D10*
D11*
X210000000Y-12000000D02*
X210000000Y-10000000D01*
D10*
D11*
X260000000Y-12000000D02*
X260000000Y-10000000D01*
D10*
D11*
X35990476Y-11588095D02*
X35247619Y-11588095D01*
X35619048Y-11588095D02*
X35619048Y-10288095D01*
X35495238Y-10473810D01*
X35371429Y-10597619D01*
X35247619Y-10659524D01*
D10*
D11*
X85247619Y-10411905D02*
X85309524Y-10350000D01*
X85433333Y-10288095D01*
X85742857Y-10288095D01*
X85866667Y-10350000D01*
X85928571Y-10411905D01*
X85990476Y-10535714D01*
X85990476Y-10659524D01*
X85928571Y-10845238D01*
X85185714Y-11588095D01*
X85990476Y-11588095D01*
D10*
D11*
X135185714Y-10288095D02*
X135990476Y-10288095D01*
X135557143Y-10783333D01*
X135742857Y-10783333D01*
X135866667Y-10845238D01*
X135928571Y-10907143D01*
X135990476Y-11030952D01*
X135990476Y-11340476D01*
X135928571Y-11464286D01*
X135866667Y-11526190D01*
X135742857Y-11588095D01*
X135371429Y-11588095D01*
X135247619Y-11526190D01*
X135185714Y-11464286D01*
D10*
D11*
X185866667Y-10721429D02*
X185866667Y-11588095D01*
X185557143Y-10226190D02*
X185247619Y-11154762D01*
X186052381Y-11154762D01*
D10*
D11*
X235928571Y-10288095D02*
X235309524Y-10288095D01*
X235247619Y-10907143D01*
X235309524Y-10845238D01*
X235433333Y-10783333D01*
X235742857Y-10783333D01*
X235866667Y-10845238D01*
X235928571Y-10907143D01*
X235990476Y-11030952D01*
X235990476Y-11340476D01*
X235928571Y-11464286D01*
X235866667Y-11526190D01*
X235742857Y-11588095D01*
X235433333Y-11588095D01*
X235309524Y-11526190D01*
X235247619Y-11464286D01*
D10*
D11*
X285866667Y-10288095D02*
X285619048Y-10288095D01*
X285495238Y-10350000D01*
X285433333Y-10411905D01*
X285309524Y-10597619D01*
X285247619Y-10845238D01*
X285247619Y-11340476D01*
X285309524Y-11464286D01*
X285371429Y-11526190D01*
X285495238Y-11588095D01*
X285742857Y-11588095D01*
X285866667Y-11526190D01*
X285928571Y-11464286D01*
X285990476Y-11340476D01*
X285990476Y-11030952D01*
X285928571Y-10907143D01*
X285866667Y-10845238D01*
X285742857Y-10783333D01*
X285495238Y-10783333D01*
X285371429Y-10845238D01*
X285309524Y-10907143D01*
X285247619Y-11030952D01*
D10*
D11*
X60000000Y-198007200D02*
X60000000Y-200007200D01*
D10*
D11*
X110000000Y-198007200D02*
X110000000Y-200007200D01*
D10*
D11*
X160000000Y-198007200D02*
X160000000Y-200007200D01*
D10*
D11*
X210000000Y-198007200D02*
X210000000Y-200007200D01*
D10*
D11*
X260000000Y-198007200D02*
X260000000Y-200007200D01*
D10*
D11*
X35990476Y-199595295D02*
X35247619Y-199595295D01*
X35619048Y-199595295D02*
X35619048Y-198295295D01*
X35495238Y-198481010D01*
X35371429Y-198604819D01*
X35247619Y-198666724D01*
D10*
D11*
X85247619Y-198419105D02*
X85309524Y-198357200D01*
X85433333Y-198295295D01*
X85742857Y-198295295D01*
X85866667Y-198357200D01*
X85928571Y-198419105D01*
X85990476Y-198542914D01*
X85990476Y-198666724D01*
X85928571Y-198852438D01*
X85185714Y-199595295D01*
X85990476Y-199595295D01*
D10*
D11*
X135185714Y-198295295D02*
X135990476Y-198295295D01*
X135557143Y-198790533D01*
X135742857Y-198790533D01*
X135866667Y-198852438D01*
X135928571Y-198914343D01*
X135990476Y-199038152D01*
X135990476Y-199347676D01*
X135928571Y-199471486D01*
X135866667Y-199533390D01*
X135742857Y-199595295D01*
X135371429Y-199595295D01*
X135247619Y-199533390D01*
X135185714Y-199471486D01*
D10*
D11*
X185866667Y-198728629D02*
X185866667Y-199595295D01*
X185557143Y-198233390D02*
X185247619Y-199161962D01*
X186052381Y-199161962D01*
D10*
D11*
X235928571Y-198295295D02*
X235309524Y-198295295D01*
X235247619Y-198914343D01*
X235309524Y-198852438D01*
X235433333Y-198790533D01*
X235742857Y-198790533D01*
X235866667Y-198852438D01*
X235928571Y-198914343D01*
X235990476Y-199038152D01*
X235990476Y-199347676D01*
X235928571Y-199471486D01*
X235866667Y-199533390D01*
X235742857Y-199595295D01*
X235433333Y-199595295D01*
X235309524Y-199533390D01*
X235247619Y-199471486D01*
D10*
D11*
X285866667Y-198295295D02*
X285619048Y-198295295D01*
X285495238Y-198357200D01*
X285433333Y-198419105D01*
X285309524Y-198604819D01*
X285247619Y-198852438D01*
X285247619Y-199347676D01*
X285309524Y-199471486D01*
X285371429Y-199533390D01*
X285495238Y-199595295D01*
X285742857Y-199595295D01*
X285866667Y-199533390D01*
X285928571Y-199471486D01*
X285990476Y-199347676D01*
X285990476Y-199038152D01*
X285928571Y-198914343D01*
X285866667Y-198852438D01*
X285742857Y-198790533D01*
X285495238Y-198790533D01*
X285371429Y-198852438D01*
X285309524Y-198914343D01*
X285247619Y-199038152D01*
D10*
D11*
X10000000Y-60000000D02*
X12000000Y-60000000D01*
D10*
D11*
X10000000Y-110000000D02*
X12000000Y-110000000D01*
D10*
D11*
X10000000Y-160000000D02*
X12000000Y-160000000D01*
D10*
D11*
X10690476Y-35216667D02*
X11309524Y-35216667D01*
X10566667Y-35588095D02*
X11000000Y-34288095D01*
X11433333Y-35588095D01*
D10*
D11*
X11092857Y-84907143D02*
X11278571Y-84969048D01*
X11340476Y-85030952D01*
X11402381Y-85154762D01*
X11402381Y-85340476D01*
X11340476Y-85464286D01*
X11278571Y-85526190D01*
X11154762Y-85588095D01*
X10659524Y-85588095D01*
X10659524Y-84288095D01*
X11092857Y-84288095D01*
X11216667Y-84350000D01*
X11278571Y-84411905D01*
X11340476Y-84535714D01*
X11340476Y-84659524D01*
X11278571Y-84783333D01*
X11216667Y-84845238D01*
X11092857Y-84907143D01*
X10659524Y-84907143D01*
D10*
D11*
X11402381Y-135464286D02*
X11340476Y-135526190D01*
X11154762Y-135588095D01*
X11030952Y-135588095D01*
X10845238Y-135526190D01*
X10721429Y-135402381D01*
X10659524Y-135278571D01*
X10597619Y-135030952D01*
X10597619Y-134845238D01*
X10659524Y-134597619D01*
X10721429Y-134473810D01*
X10845238Y-134350000D01*
X11030952Y-134288095D01*
X11154762Y-134288095D01*
X11340476Y-134350000D01*
X11402381Y-134411905D01*
D10*
D11*
X10659524Y-185588095D02*
X10659524Y-184288095D01*
X10969048Y-184288095D01*
X11154762Y-184350000D01*
X11278571Y-184473810D01*
X11340476Y-184597619D01*
X11402381Y-184845238D01*
X11402381Y-185030952D01*
X11340476Y-185278571D01*
X11278571Y-185402381D01*
X11154762Y-185526190D01*
X10969048Y-185588095D01*
X10659524Y-185588095D01*
D10*
D11*
X287002200Y-60000000D02*
X285002200Y-60000000D01*
D10*
D11*
X287002200Y-110000000D02*
X285002200Y-110000000D01*
D10*
D11*
X287002200Y-160000000D02*
X285002200Y-160000000D01*
D10*
D11*
X285692676Y-35216667D02*
X286311724Y-35216667D01*
X285568867Y-35588095D02*
X286002200Y-34288095D01*
X286435533Y-35588095D01*
D10*
D11*
X286095057Y-84907143D02*
X286280771Y-84969048D01*
X286342676Y-85030952D01*
X286404581Y-85154762D01*
X286404581Y-85340476D01*
X286342676Y-85464286D01*
X286280771Y-85526190D01*
X286156962Y-85588095D01*
X285661724Y-85588095D01*
X285661724Y-84288095D01*
X286095057Y-84288095D01*
X286218867Y-84350000D01*
X286280771Y-84411905D01*
X286342676Y-84535714D01*
X286342676Y-84659524D01*
X286280771Y-84783333D01*
X286218867Y-84845238D01*
X286095057Y-84907143D01*
X285661724Y-84907143D01*
D10*
D11*
X286404581Y-135464286D02*
X286342676Y-135526190D01*
X286156962Y-135588095D01*
X286033152Y-135588095D01*
X285847438Y-135526190D01*
X285723629Y-135402381D01*
X285661724Y-135278571D01*
X285599819Y-135030952D01*
X285599819Y-134845238D01*
X285661724Y-134597619D01*
X285723629Y-134473810D01*
X285847438Y-134350000D01*
X286033152Y-134288095D01*
X286156962Y-134288095D01*
X286342676Y-134350000D01*
X286404581Y-134411905D01*
D10*
D11*
X285661724Y-185588095D02*
X285661724Y-184288095D01*
X285971248Y-184288095D01*
X286156962Y-184350000D01*
X286280771Y-184473810D01*
X286342676Y-184597619D01*
X286404581Y-184845238D01*
X286404581Y-185030952D01*
X286342676Y-185278571D01*
X286280771Y-185402381D01*
X286156962Y-185526190D01*
X285971248Y-185588095D01*
X285661724Y-185588095D01*
D10*
D11*
X200359343Y-193785771D02*
X200359343Y-192285771D01*
X200716486Y-192285771D01*
X200930771Y-192357200D01*
X201073629Y-192500057D01*
X201145057Y-192642914D01*
X201216486Y-192928629D01*
X201216486Y-193142914D01*
X201145057Y-193428629D01*
X201073629Y-193571486D01*
X200930771Y-193714343D01*
X200716486Y-193785771D01*
X200359343Y-193785771D01*
X202502200Y-193785771D02*
X202502200Y-193000057D01*
X202430771Y-192857200D01*
X202287914Y-192785771D01*
X202002200Y-192785771D01*
X201859343Y-192857200D01*
X202502200Y-193714343D02*
X202359343Y-193785771D01*
X202002200Y-193785771D01*
X201859343Y-193714343D01*
X201787914Y-193571486D01*
X201787914Y-193428629D01*
X201859343Y-193285771D01*
X202002200Y-193214343D01*
X202359343Y-193214343D01*
X202502200Y-193142914D01*
X203002200Y-192785771D02*
X203573629Y-192785771D01*
X203216486Y-192285771D02*
X203216486Y-193571486D01*
X203287914Y-193714343D01*
X203430772Y-193785771D01*
X203573629Y-193785771D01*
X204645057Y-193714343D02*
X204502200Y-193785771D01*
X204216486Y-193785771D01*
X204073629Y-193714343D01*
X204002200Y-193571486D01*
X204002200Y-193000057D01*
X204073629Y-192857200D01*
X204216486Y-192785771D01*
X204502200Y-192785771D01*
X204645057Y-192857200D01*
X204716486Y-193000057D01*
X204716486Y-193142914D01*
X204002200Y-193285771D01*
X205359343Y-193642914D02*
X205430771Y-193714343D01*
X205359343Y-193785771D01*
X205287914Y-193714343D01*
X205359343Y-193642914D01*
X205359343Y-193785771D01*
X205359343Y-192857200D02*
X205430771Y-192928629D01*
X205359343Y-193000057D01*
X205287914Y-192928629D01*
X205359343Y-192857200D01*
X205359343Y-193000057D01*
D10*
D11*
X177002200Y-194507200D02*
X285002200Y-194507200D01*
D10*
D11*
X178359343Y-196585771D02*
X178359343Y-195085771D01*
X179216486Y-196585771D02*
X178573629Y-195728629D01*
X179216486Y-195085771D02*
X178359343Y-195942914D01*
X179859343Y-196585771D02*
X179859343Y-195585771D01*
X179859343Y-195085771D02*
X179787914Y-195157200D01*
X179859343Y-195228629D01*
X179930771Y-195157200D01*
X179859343Y-195085771D01*
X179859343Y-195228629D01*
X181430772Y-196442914D02*
X181359343Y-196514343D01*
X181145057Y-196585771D01*
X181002200Y-196585771D01*
X180787915Y-196514343D01*
X180645057Y-196371486D01*
X180573629Y-196228629D01*
X180502200Y-195942914D01*
X180502200Y-195728629D01*
X180573629Y-195442914D01*
X180645057Y-195300057D01*
X180787915Y-195157200D01*
X181002200Y-195085771D01*
X181145057Y-195085771D01*
X181359343Y-195157200D01*
X181430772Y-195228629D01*
X182716486Y-196585771D02*
X182716486Y-195800057D01*
X182645057Y-195657200D01*
X182502200Y-195585771D01*
X182216486Y-195585771D01*
X182073629Y-195657200D01*
X182716486Y-196514343D02*
X182573629Y-196585771D01*
X182216486Y-196585771D01*
X182073629Y-196514343D01*
X182002200Y-196371486D01*
X182002200Y-196228629D01*
X182073629Y-196085771D01*
X182216486Y-196014343D01*
X182573629Y-196014343D01*
X182716486Y-195942914D01*
X184073629Y-196585771D02*
X184073629Y-195085771D01*
X184073629Y-196514343D02*
X183930772Y-196585771D01*
X183645058Y-196585771D01*
X183502200Y-196514343D01*
X183430772Y-196442914D01*
X183359343Y-196300057D01*
X183359343Y-195871486D01*
X183430772Y-195728629D01*
X183502200Y-195657200D01*
X183645058Y-195585771D01*
X183930772Y-195585771D01*
X184073629Y-195657200D01*
X185930772Y-195800057D02*
X186430772Y-195800057D01*
X186645058Y-196585771D02*
X185930772Y-196585771D01*
X185930772Y-195085771D01*
X186645058Y-195085771D01*
X187287915Y-196442914D02*
X187359343Y-196514343D01*
X187287915Y-196585771D01*
X187216486Y-196514343D01*
X187287915Y-196442914D01*
X187287915Y-196585771D01*
X188002201Y-196585771D02*
X188002201Y-195085771D01*
X188359344Y-195085771D01*
X188573629Y-195157200D01*
X188716487Y-195300057D01*
X188787915Y-195442914D01*
X188859344Y-195728629D01*
X188859344Y-195942914D01*
X188787915Y-196228629D01*
X188716487Y-196371486D01*
X188573629Y-196514343D01*
X188359344Y-196585771D01*
X188002201Y-196585771D01*
X189502201Y-196442914D02*
X189573629Y-196514343D01*
X189502201Y-196585771D01*
X189430772Y-196514343D01*
X189502201Y-196442914D01*
X189502201Y-196585771D01*
X190145058Y-196157200D02*
X190859344Y-196157200D01*
X190002201Y-196585771D02*
X190502201Y-195085771D01*
X191002201Y-196585771D01*
X191502201Y-196442914D02*
X191573629Y-196514343D01*
X191502201Y-196585771D01*
X191430772Y-196514343D01*
X191502201Y-196442914D01*
X191502201Y-196585771D01*
X194502201Y-196585771D02*
X194502201Y-195085771D01*
X194645058Y-196014343D02*
X195073629Y-196585771D01*
X195073629Y-195585771D02*
X194502201Y-196157200D01*
X195716487Y-196585771D02*
X195716487Y-195585771D01*
X195716487Y-195085771D02*
X195645058Y-195157200D01*
X195716487Y-195228629D01*
X195787915Y-195157200D01*
X195716487Y-195085771D01*
X195716487Y-195228629D01*
X197073630Y-196514343D02*
X196930773Y-196585771D01*
X196645059Y-196585771D01*
X196502201Y-196514343D01*
X196430773Y-196442914D01*
X196359344Y-196300057D01*
X196359344Y-195871486D01*
X196430773Y-195728629D01*
X196502201Y-195657200D01*
X196645059Y-195585771D01*
X196930773Y-195585771D01*
X197073630Y-195657200D01*
X198359344Y-196585771D02*
X198359344Y-195800057D01*
X198287915Y-195657200D01*
X198145058Y-195585771D01*
X197859344Y-195585771D01*
X197716487Y-195657200D01*
X198359344Y-196514343D02*
X198216487Y-196585771D01*
X197859344Y-196585771D01*
X197716487Y-196514343D01*
X197645058Y-196371486D01*
X197645058Y-196228629D01*
X197716487Y-196085771D01*
X197859344Y-196014343D01*
X198216487Y-196014343D01*
X198359344Y-195942914D01*
X199716487Y-196585771D02*
X199716487Y-195085771D01*
X199716487Y-196514343D02*
X199573630Y-196585771D01*
X199287916Y-196585771D01*
X199145058Y-196514343D01*
X199073630Y-196442914D01*
X199002201Y-196300057D01*
X199002201Y-195871486D01*
X199073630Y-195728629D01*
X199145058Y-195657200D01*
X199287916Y-195585771D01*
X199573630Y-195585771D01*
X199716487Y-195657200D01*
X202216487Y-195585771D02*
X202216487Y-196585771D01*
X201859344Y-195014343D02*
X201502201Y-196085771D01*
X202430773Y-196085771D01*
X203002201Y-196442914D02*
X203073629Y-196514343D01*
X203002201Y-196585771D01*
X202930772Y-196514343D01*
X203002201Y-196442914D01*
X203002201Y-196585771D01*
X204002201Y-195085771D02*
X204145058Y-195085771D01*
X204287915Y-195157200D01*
X204359344Y-195228629D01*
X204430773Y-195371486D01*
X204502201Y-195657200D01*
X204502201Y-196014343D01*
X204430773Y-196300057D01*
X204359344Y-196442914D01*
X204287915Y-196514343D01*
X204145058Y-196585771D01*
X204002201Y-196585771D01*
X203859344Y-196514343D01*
X203787915Y-196442914D01*
X203716487Y-196300057D01*
X203645058Y-196014343D01*
X203645058Y-195657200D01*
X203716487Y-195371486D01*
X203787915Y-195228629D01*
X203859344Y-195157200D01*
X204002201Y-195085771D01*
X205145058Y-196442914D02*
X205216486Y-196514343D01*
X205145058Y-196585771D01*
X205073629Y-196514343D01*
X205145058Y-196442914D01*
X205145058Y-196585771D01*
X206502201Y-195585771D02*
X206502201Y-196585771D01*
X206145058Y-195014343D02*
X205787915Y-196085771D01*
X206716487Y-196085771D01*
X207287915Y-196014343D02*
X208430772Y-196014343D01*
X207859343Y-196585771D02*
X207859343Y-195442914D01*
X209787915Y-196585771D02*
X209787915Y-195085771D01*
X209787915Y-196514343D02*
X209645058Y-196585771D01*
X209359344Y-196585771D01*
X209216486Y-196514343D01*
X209145058Y-196442914D01*
X209073629Y-196300057D01*
X209073629Y-195871486D01*
X209145058Y-195728629D01*
X209216486Y-195657200D01*
X209359344Y-195585771D01*
X209645058Y-195585771D01*
X209787915Y-195657200D01*
X210287915Y-195585771D02*
X210859344Y-195585771D01*
X210502201Y-196585771D02*
X210502201Y-195300057D01*
X210573629Y-195157200D01*
X210716487Y-195085771D01*
X210859344Y-195085771D01*
X211287915Y-196514343D02*
X211430772Y-196585771D01*
X211716487Y-196585771D01*
X211859344Y-196514343D01*
X211930772Y-196371486D01*
X211930772Y-196300057D01*
X211859344Y-196157200D01*
X211716487Y-196085771D01*
X211502201Y-196085771D01*
X211359344Y-196014343D01*
X211287915Y-195871486D01*
X211287915Y-195800057D01*
X211359344Y-195657200D01*
X211502201Y-195585771D01*
X211716487Y-195585771D01*
X211859344Y-195657200D01*
X213216487Y-195585771D02*
X213216487Y-196800057D01*
X213145058Y-196942914D01*
X213073630Y-197014343D01*
X212930773Y-197085771D01*
X212716487Y-197085771D01*
X212573630Y-197014343D01*
X213216487Y-196514343D02*
X213073630Y-196585771D01*
X212787916Y-196585771D01*
X212645058Y-196514343D01*
X212573630Y-196442914D01*
X212502201Y-196300057D01*
X212502201Y-195871486D01*
X212573630Y-195728629D01*
X212645058Y-195657200D01*
X212787916Y-195585771D01*
X213073630Y-195585771D01*
X213216487Y-195657200D01*
X214716487Y-196585771D02*
X213859344Y-196585771D01*
X214287916Y-196585771D02*
X214287916Y-195085771D01*
X214145059Y-195300057D01*
X214002201Y-195442914D01*
X213859344Y-195514343D01*
X215359344Y-196014343D02*
X216502201Y-196014343D01*
X217145058Y-196514343D02*
X217287915Y-196585771D01*
X217573630Y-196585771D01*
X217716487Y-196514343D01*
X217787915Y-196371486D01*
X217787915Y-196300057D01*
X217716487Y-196157200D01*
X217573630Y-196085771D01*
X217359344Y-196085771D01*
X217216487Y-196014343D01*
X217145058Y-195871486D01*
X217145058Y-195800057D01*
X217216487Y-195657200D01*
X217359344Y-195585771D01*
X217573630Y-195585771D01*
X217716487Y-195657200D01*
X218216487Y-195585771D02*
X218787916Y-195585771D01*
X218430773Y-195085771D02*
X218430773Y-196371486D01*
X218502201Y-196514343D01*
X218645059Y-196585771D01*
X218787916Y-196585771D01*
X219930773Y-196585771D02*
X219930773Y-195800057D01*
X219859344Y-195657200D01*
X219716487Y-195585771D01*
X219430773Y-195585771D01*
X219287916Y-195657200D01*
X219930773Y-196514343D02*
X219787916Y-196585771D01*
X219430773Y-196585771D01*
X219287916Y-196514343D01*
X219216487Y-196371486D01*
X219216487Y-196228629D01*
X219287916Y-196085771D01*
X219430773Y-196014343D01*
X219787916Y-196014343D01*
X219930773Y-195942914D01*
X220645059Y-196585771D02*
X220645059Y-195085771D01*
X220645059Y-195657200D02*
X220787916Y-195585771D01*
X221073630Y-195585771D01*
X221216487Y-195657200D01*
X221287916Y-195728629D01*
X221359345Y-195871486D01*
X221359345Y-196300057D01*
X221287916Y-196442914D01*
X221216487Y-196514343D01*
X221073630Y-196585771D01*
X220787916Y-196585771D01*
X220645059Y-196514343D01*
X222216488Y-196585771D02*
X222073630Y-196514343D01*
X222002202Y-196371486D01*
X222002202Y-195085771D01*
X223359344Y-196514343D02*
X223216487Y-196585771D01*
X222930773Y-196585771D01*
X222787916Y-196514343D01*
X222716487Y-196371486D01*
X222716487Y-195800057D01*
X222787916Y-195657200D01*
X222930773Y-195585771D01*
X223216487Y-195585771D01*
X223359344Y-195657200D01*
X223430773Y-195800057D01*
X223430773Y-195942914D01*
X222716487Y-196085771D01*
D10*
D11*
X177002200Y-191507200D02*
X285002200Y-191507200D01*
D10*
D12*
X264216486Y-193785771D02*
X263716486Y-193071486D01*
X263359343Y-193785771D02*
X263359343Y-192285771D01*
X263930771Y-192285771D01*
X264073629Y-192357200D01*
X264145057Y-192428629D01*
X264216486Y-192571486D01*
X264216486Y-192785771D01*
X264145057Y-192928629D01*
X264073629Y-193000057D01*
X263930771Y-193071486D01*
X263359343Y-193071486D01*
X265430771Y-193714343D02*
X265287914Y-193785771D01*
X265002200Y-193785771D01*
X264859343Y-193714343D01*
X264787914Y-193571486D01*
X264787914Y-193000057D01*
X264859343Y-192857200D01*
X265002200Y-192785771D01*
X265287914Y-192785771D01*
X265430771Y-192857200D01*
X265502200Y-193000057D01*
X265502200Y-193142914D01*
X264787914Y-193285771D01*
X266002200Y-192785771D02*
X266359343Y-193785771D01*
X266716485Y-192785771D01*
X267287914Y-193642914D02*
X267359342Y-193714343D01*
X267287914Y-193785771D01*
X267216485Y-193714343D01*
X267287914Y-193642914D01*
X267287914Y-193785771D01*
X267287914Y-192857200D02*
X267359342Y-192928629D01*
X267287914Y-193000057D01*
X267216485Y-192928629D01*
X267287914Y-192857200D01*
X267287914Y-193000057D01*
D10*
D11*
X178287914Y-193714343D02*
X178502200Y-193785771D01*
X178859343Y-193785771D01*
X179002200Y-193714343D01*
X179073629Y-193642914D01*
X179145057Y-193500057D01*
X179145057Y-193357200D01*
X179073629Y-193214343D01*
X179002200Y-193142914D01*
X178859343Y-193071486D01*
X178573629Y-193000057D01*
X178430771Y-192928629D01*
X178359343Y-192857200D01*
X178287914Y-192714343D01*
X178287914Y-192571486D01*
X178359343Y-192428629D01*
X178430771Y-192357200D01*
X178573629Y-192285771D01*
X178930771Y-192285771D01*
X179145057Y-192357200D01*
X179787914Y-193785771D02*
X179787914Y-192785771D01*
X179787914Y-192285771D02*
X179716485Y-192357200D01*
X179787914Y-192428629D01*
X179859342Y-192357200D01*
X179787914Y-192285771D01*
X179787914Y-192428629D01*
X180359343Y-192785771D02*
X181145057Y-192785771D01*
X180359343Y-193785771D01*
X181145057Y-193785771D01*
X182287914Y-193714343D02*
X182145057Y-193785771D01*
X181859343Y-193785771D01*
X181716486Y-193714343D01*
X181645057Y-193571486D01*
X181645057Y-193000057D01*
X181716486Y-192857200D01*
X181859343Y-192785771D01*
X182145057Y-192785771D01*
X182287914Y-192857200D01*
X182359343Y-193000057D01*
X182359343Y-193142914D01*
X181645057Y-193285771D01*
X183002200Y-193642914D02*
X183073628Y-193714343D01*
X183002200Y-193785771D01*
X182930771Y-193714343D01*
X183002200Y-193642914D01*
X183002200Y-193785771D01*
X183002200Y-192857200D02*
X183073628Y-192928629D01*
X183002200Y-193000057D01*
X182930771Y-192928629D01*
X183002200Y-192857200D01*
X183002200Y-193000057D01*
X184787914Y-193357200D02*
X185502200Y-193357200D01*
X184645057Y-193785771D02*
X185145057Y-192285771D01*
X185645057Y-193785771D01*
X186787914Y-192785771D02*
X186787914Y-193785771D01*
X186430771Y-192214343D02*
X186073628Y-193285771D01*
X187002200Y-193285771D01*
D10*
D11*
X263359343Y-196585771D02*
X263359343Y-195085771D01*
X264716486Y-196585771D02*
X264716486Y-195085771D01*
X264716486Y-196514343D02*
X264573629Y-196585771D01*
X264287915Y-196585771D01*
X264145057Y-196514343D01*
X264073629Y-196442914D01*
X264002200Y-196300057D01*
X264002200Y-195871486D01*
X264073629Y-195728629D01*
X264145057Y-195657200D01*
X264287915Y-195585771D01*
X264573629Y-195585771D01*
X264716486Y-195657200D01*
X265430772Y-196442914D02*
X265502200Y-196514343D01*
X265430772Y-196585771D01*
X265359343Y-196514343D01*
X265430772Y-196442914D01*
X265430772Y-196585771D01*
X265430772Y-195657200D02*
X265502200Y-195728629D01*
X265430772Y-195800057D01*
X265359343Y-195728629D01*
X265430772Y-195657200D01*
X265430772Y-195800057D01*
X268073629Y-196585771D02*
X267216486Y-196585771D01*
X267645058Y-196585771D02*
X267645058Y-195085771D01*
X267502201Y-195300057D01*
X267359343Y-195442914D01*
X267216486Y-195514343D01*
X269787914Y-195014343D02*
X268502200Y-196942914D01*
X271073629Y-196585771D02*
X270216486Y-196585771D01*
X270645058Y-196585771D02*
X270645058Y-195085771D01*
X270502201Y-195300057D01*
X270359343Y-195442914D01*
X270216486Y-195514343D01*
D10*
D11*
X177002200Y-187507200D02*
X285002200Y-187507200D01*
D10*
D13*
X178454581Y-188211962D02*
X179597438Y-188211962D01*
X178776010Y-190211962D02*
X179026010Y-188211962D01*
X180014105Y-190211962D02*
X180180771Y-188878629D01*
X180264105Y-188211962D02*
X180156962Y-188307200D01*
X180240295Y-188402438D01*
X180347439Y-188307200D01*
X180264105Y-188211962D01*
X180240295Y-188402438D01*
X180847438Y-188878629D02*
X181609343Y-188878629D01*
X181216486Y-188211962D02*
X181002200Y-189926248D01*
X181073630Y-190116724D01*
X181252201Y-190211962D01*
X181442677Y-190211962D01*
X182395058Y-190211962D02*
X182216487Y-190116724D01*
X182145057Y-189926248D01*
X182359343Y-188211962D01*
X183930772Y-190116724D02*
X183728391Y-190211962D01*
X183347439Y-190211962D01*
X183168867Y-190116724D01*
X183097438Y-189926248D01*
X183192676Y-189164343D01*
X183311724Y-188973867D01*
X183514105Y-188878629D01*
X183895057Y-188878629D01*
X184073629Y-188973867D01*
X184145057Y-189164343D01*
X184121248Y-189354819D01*
X183145057Y-189545295D01*
X184895057Y-190021486D02*
X184978392Y-190116724D01*
X184871248Y-190211962D01*
X184787915Y-190116724D01*
X184895057Y-190021486D01*
X184871248Y-190211962D01*
X185026010Y-188973867D02*
X185109344Y-189069105D01*
X185002200Y-189164343D01*
X184918867Y-189069105D01*
X185026010Y-188973867D01*
X185002200Y-189164343D01*
D10*
D11*
X178859343Y-185600057D02*
X178359343Y-185600057D01*
X178359343Y-186385771D02*
X178359343Y-184885771D01*
X179073629Y-184885771D01*
X179645057Y-186385771D02*
X179645057Y-185385771D01*
X179645057Y-184885771D02*
X179573628Y-184957200D01*
X179645057Y-185028629D01*
X179716485Y-184957200D01*
X179645057Y-184885771D01*
X179645057Y-185028629D01*
X180573629Y-186385771D02*
X180430771Y-186314343D01*
X180359343Y-186171486D01*
X180359343Y-184885771D01*
X181716485Y-186314343D02*
X181573628Y-186385771D01*
X181287914Y-186385771D01*
X181145057Y-186314343D01*
X181073628Y-186171486D01*
X181073628Y-185600057D01*
X181145057Y-185457200D01*
X181287914Y-185385771D01*
X181573628Y-185385771D01*
X181716485Y-185457200D01*
X181787914Y-185600057D01*
X181787914Y-185742914D01*
X181073628Y-185885771D01*
X182430771Y-186242914D02*
X182502199Y-186314343D01*
X182430771Y-186385771D01*
X182359342Y-186314343D01*
X182430771Y-186242914D01*
X182430771Y-186385771D01*
X182430771Y-185457200D02*
X182502199Y-185528629D01*
X182430771Y-185600057D01*
X182359342Y-185528629D01*
X182430771Y-185457200D01*
X182430771Y-185600057D01*
X184287914Y-186385771D02*
X184287914Y-185385771D01*
X184287914Y-185528629D02*
X184359342Y-185457200D01*
X184502200Y-185385771D01*
X184716485Y-185385771D01*
X184859342Y-185457200D01*
X184930771Y-185600057D01*
X184930771Y-186385771D01*
X184930771Y-185600057D02*
X185002200Y-185457200D01*
X185145057Y-185385771D01*
X185359342Y-185385771D01*
X185502200Y-185457200D01*
X185573628Y-185600057D01*
X185573628Y-186385771D01*
X186930771Y-186385771D02*
X186930771Y-185600057D01*
X186859342Y-185457200D01*
X186716485Y-185385771D01*
X186430771Y-185385771D01*
X186287914Y-185457200D01*
X186930771Y-186314343D02*
X186787914Y-186385771D01*
X186430771Y-186385771D01*
X186287914Y-186314343D01*
X186216485Y-186171486D01*
X186216485Y-186028629D01*
X186287914Y-185885771D01*
X186430771Y-185814343D01*
X186787914Y-185814343D01*
X186930771Y-185742914D01*
X187645057Y-186385771D02*
X187645057Y-185385771D01*
X187645057Y-184885771D02*
X187573628Y-184957200D01*
X187645057Y-185028629D01*
X187716485Y-184957200D01*
X187645057Y-184885771D01*
X187645057Y-185028629D01*
X188359343Y-185385771D02*
X188359343Y-186385771D01*
X188359343Y-185528629D02*
X188430771Y-185457200D01*
X188573629Y-185385771D01*
X188787914Y-185385771D01*
X188930771Y-185457200D01*
X189002200Y-185600057D01*
X189002200Y-186385771D01*
X189716486Y-186242914D02*
X189787914Y-186314343D01*
X189716486Y-186385771D01*
X189645057Y-186314343D01*
X189716486Y-186242914D01*
X189716486Y-186385771D01*
X190430772Y-186385771D02*
X190430772Y-184885771D01*
X190573629Y-185814343D02*
X191002200Y-186385771D01*
X191002200Y-185385771D02*
X190430772Y-185957200D01*
X191645058Y-186385771D02*
X191645058Y-185385771D01*
X191645058Y-184885771D02*
X191573629Y-184957200D01*
X191645058Y-185028629D01*
X191716486Y-184957200D01*
X191645058Y-184885771D01*
X191645058Y-185028629D01*
X193002201Y-186314343D02*
X192859344Y-186385771D01*
X192573630Y-186385771D01*
X192430772Y-186314343D01*
X192359344Y-186242914D01*
X192287915Y-186100057D01*
X192287915Y-185671486D01*
X192359344Y-185528629D01*
X192430772Y-185457200D01*
X192573630Y-185385771D01*
X192859344Y-185385771D01*
X193002201Y-185457200D01*
X194287915Y-186385771D02*
X194287915Y-185600057D01*
X194216486Y-185457200D01*
X194073629Y-185385771D01*
X193787915Y-185385771D01*
X193645058Y-185457200D01*
X194287915Y-186314343D02*
X194145058Y-186385771D01*
X193787915Y-186385771D01*
X193645058Y-186314343D01*
X193573629Y-186171486D01*
X193573629Y-186028629D01*
X193645058Y-185885771D01*
X193787915Y-185814343D01*
X194145058Y-185814343D01*
X194287915Y-185742914D01*
X195645058Y-186385771D02*
X195645058Y-184885771D01*
X195645058Y-186314343D02*
X195502201Y-186385771D01*
X195216487Y-186385771D01*
X195073629Y-186314343D01*
X195002201Y-186242914D01*
X194930772Y-186100057D01*
X194930772Y-185671486D01*
X195002201Y-185528629D01*
X195073629Y-185457200D01*
X195216487Y-185385771D01*
X195502201Y-185385771D01*
X195645058Y-185457200D01*
X196002201Y-186528629D02*
X197145058Y-186528629D01*
X197502201Y-185385771D02*
X197502201Y-186885771D01*
X197502201Y-185457200D02*
X197645058Y-185385771D01*
X197930772Y-185385771D01*
X198073629Y-185457200D01*
X198145058Y-185528629D01*
X198216487Y-185671486D01*
X198216487Y-186100057D01*
X198145058Y-186242914D01*
X198073629Y-186314343D01*
X197930772Y-186385771D01*
X197645058Y-186385771D01*
X197502201Y-186314343D01*
X199502201Y-186314343D02*
X199359344Y-186385771D01*
X199073630Y-186385771D01*
X198930772Y-186314343D01*
X198859344Y-186242914D01*
X198787915Y-186100057D01*
X198787915Y-185671486D01*
X198859344Y-185528629D01*
X198930772Y-185457200D01*
X199073630Y-185385771D01*
X199359344Y-185385771D01*
X199502201Y-185457200D01*
X200145058Y-186385771D02*
X200145058Y-184885771D01*
X200145058Y-185457200D02*
X200287915Y-185385771D01*
X200573629Y-185385771D01*
X200716486Y-185457200D01*
X200787915Y-185528629D01*
X200859344Y-185671486D01*
X200859344Y-186100057D01*
X200787915Y-186242914D01*
X200716486Y-186314343D01*
X200573629Y-186385771D01*
X200287915Y-186385771D01*
X200145058Y-186314343D01*
D10*
D11*
X177002200Y-181507200D02*
X285002200Y-181507200D01*
D10*
D11*
X178287914Y-183614343D02*
X178502200Y-183685771D01*
X178859343Y-183685771D01*
X179002200Y-183614343D01*
X179073629Y-183542914D01*
X179145057Y-183400057D01*
X179145057Y-183257200D01*
X179073629Y-183114343D01*
X179002200Y-183042914D01*
X178859343Y-182971486D01*
X178573629Y-182900057D01*
X178430771Y-182828629D01*
X178359343Y-182757200D01*
X178287914Y-182614343D01*
X178287914Y-182471486D01*
X178359343Y-182328629D01*
X178430771Y-182257200D01*
X178573629Y-182185771D01*
X178930771Y-182185771D01*
X179145057Y-182257200D01*
X179787914Y-183685771D02*
X179787914Y-182185771D01*
X180430771Y-183685771D02*
X180430771Y-182900057D01*
X180359342Y-182757200D01*
X180216485Y-182685771D01*
X180002200Y-182685771D01*
X179859342Y-182757200D01*
X179787914Y-182828629D01*
X181716485Y-183614343D02*
X181573628Y-183685771D01*
X181287914Y-183685771D01*
X181145057Y-183614343D01*
X181073628Y-183471486D01*
X181073628Y-182900057D01*
X181145057Y-182757200D01*
X181287914Y-182685771D01*
X181573628Y-182685771D01*
X181716485Y-182757200D01*
X181787914Y-182900057D01*
X181787914Y-183042914D01*
X181073628Y-183185771D01*
X183002199Y-183614343D02*
X182859342Y-183685771D01*
X182573628Y-183685771D01*
X182430771Y-183614343D01*
X182359342Y-183471486D01*
X182359342Y-182900057D01*
X182430771Y-182757200D01*
X182573628Y-182685771D01*
X182859342Y-182685771D01*
X183002199Y-182757200D01*
X183073628Y-182900057D01*
X183073628Y-183042914D01*
X182359342Y-183185771D01*
X183502199Y-182685771D02*
X184073628Y-182685771D01*
X183716485Y-182185771D02*
X183716485Y-183471486D01*
X183787913Y-183614343D01*
X183930771Y-183685771D01*
X184073628Y-183685771D01*
X184573628Y-183542914D02*
X184645056Y-183614343D01*
X184573628Y-183685771D01*
X184502199Y-183614343D01*
X184573628Y-183542914D01*
X184573628Y-183685771D01*
X184573628Y-182757200D02*
X184645056Y-182828629D01*
X184573628Y-182900057D01*
X184502199Y-182828629D01*
X184573628Y-182757200D01*
X184573628Y-182900057D01*
D10*
D11*
X197002200Y-191507200D02*
X197002200Y-194507200D01*
D10*
D11*
X261002200Y-191507200D02*
X261002200Y-198007200D01*
X57250000Y-49500000D02*
G75*
G03X57250000Y-49500000I-250000J0D01*
G01*
X56550000Y-49950000D02*
X61450000Y-49950000D01*
X56550000Y-46050000D02*
X56550000Y-49950000D01*
X61450000Y-46050000D02*
X56550000Y-46050000D01*
X61450000Y-49950000D02*
X61450000Y-46050000D01*
X67250000Y-44500000D02*
G75*
G03X67250000Y-44500000I-250000J0D01*
G01*
X66550000Y-44950000D02*
X71450000Y-44950000D01*
X66550000Y-41050000D02*
X66550000Y-44950000D01*
X71450000Y-41050000D02*
X66550000Y-41050000D01*
X71450000Y-44950000D02*
X71450000Y-41050000D01*
X61752381Y-37690476D02*
X60752381Y-37690476D01*
X61466667Y-37357142D01*
X60752381Y-37023809D01*
X61752381Y-37023809D01*
X61752381Y-36547619D02*
X60752381Y-36547619D01*
X61466667Y-36214285D01*
X60752381Y-35880952D01*
X61752381Y-35880952D01*
X61228571Y-35071428D02*
X61276190Y-34928571D01*
X61323810Y-34880952D01*
X61419048Y-34833333D01*
X61561905Y-34833333D01*
X61657143Y-34880952D01*
X61704762Y-34928571D01*
X61752381Y-35023809D01*
X61752381Y-35404762D01*
X60752381Y-35404762D01*
X60752381Y-35071428D01*
X60800000Y-34976190D01*
X60847619Y-34928571D01*
X60942857Y-34880952D01*
X61038095Y-34880952D01*
X61133333Y-34928571D01*
X61180952Y-34976190D01*
X61228571Y-35071428D01*
X61228571Y-35404762D01*
X60752381Y-34547619D02*
X60752381Y-33976190D01*
X61752381Y-34261905D02*
X60752381Y-34261905D01*
X60752381Y-33738095D02*
X60752381Y-33119047D01*
X61133333Y-33452381D01*
X61133333Y-33309523D01*
X61180952Y-33214285D01*
X61228571Y-33166666D01*
X61323810Y-33119047D01*
X61561905Y-33119047D01*
X61657143Y-33166666D01*
X61704762Y-33214285D01*
X61752381Y-33309523D01*
X61752381Y-33595238D01*
X61704762Y-33690476D01*
X61657143Y-33738095D01*
X61752381Y-32642857D02*
X61752381Y-32452381D01*
X61704762Y-32357142D01*
X61657143Y-32309523D01*
X61514286Y-32214285D01*
X61323810Y-32166666D01*
X60942857Y-32166666D01*
X60847619Y-32214285D01*
X60800000Y-32261904D01*
X60752381Y-32357142D01*
X60752381Y-32547619D01*
X60800000Y-32642857D01*
X60847619Y-32690476D01*
X60942857Y-32738095D01*
X61180952Y-32738095D01*
X61276190Y-32690476D01*
X61323810Y-32642857D01*
X61371429Y-32547619D01*
X61371429Y-32357142D01*
X61323810Y-32261904D01*
X61276190Y-32214285D01*
X61180952Y-32166666D01*
X60752381Y-31547619D02*
X60752381Y-31452380D01*
X60800000Y-31357142D01*
X60847619Y-31309523D01*
X60942857Y-31261904D01*
X61133333Y-31214285D01*
X61371429Y-31214285D01*
X61561905Y-31261904D01*
X61657143Y-31309523D01*
X61704762Y-31357142D01*
X61752381Y-31452380D01*
X61752381Y-31547619D01*
X61704762Y-31642857D01*
X61657143Y-31690476D01*
X61561905Y-31738095D01*
X61371429Y-31785714D01*
X61133333Y-31785714D01*
X60942857Y-31738095D01*
X60847619Y-31690476D01*
X60800000Y-31642857D01*
X60752381Y-31547619D01*
X61085714Y-30357142D02*
X61752381Y-30357142D01*
X60704762Y-30595238D02*
X61419048Y-30833333D01*
X61419048Y-30214285D01*
X53152381Y-42071428D02*
X53152381Y-42642857D01*
X53152381Y-42357143D02*
X52152381Y-42357143D01*
X52295238Y-42452381D01*
X52390476Y-42547619D01*
X52438095Y-42642857D01*
X52152381Y-41452381D02*
X52152381Y-41357142D01*
X52200000Y-41261904D01*
X52247619Y-41214285D01*
X52342857Y-41166666D01*
X52533333Y-41119047D01*
X52771429Y-41119047D01*
X52961905Y-41166666D01*
X53057143Y-41214285D01*
X53104762Y-41261904D01*
X53152381Y-41357142D01*
X53152381Y-41452381D01*
X53104762Y-41547619D01*
X53057143Y-41595238D01*
X52961905Y-41642857D01*
X52771429Y-41690476D01*
X52533333Y-41690476D01*
X52342857Y-41642857D01*
X52247619Y-41595238D01*
X52200000Y-41547619D01*
X52152381Y-41452381D01*
X52485714Y-40261904D02*
X53152381Y-40261904D01*
X52485714Y-40690476D02*
X53009524Y-40690476D01*
X53104762Y-40642857D01*
X53152381Y-40547619D01*
X53152381Y-40404761D01*
X53104762Y-40309523D01*
X53057143Y-40261904D01*
X52628571Y-39452380D02*
X52628571Y-39785714D01*
X53152381Y-39785714D02*
X52152381Y-39785714D01*
X52152381Y-39309523D01*
X68357143Y-47152381D02*
X67785714Y-47152381D01*
X68071428Y-47152381D02*
X68071428Y-46152381D01*
X67976190Y-46295238D01*
X67880952Y-46390476D01*
X67785714Y-46438095D01*
X68976190Y-46152381D02*
X69071429Y-46152381D01*
X69166667Y-46200000D01*
X69214286Y-46247619D01*
X69261905Y-46342857D01*
X69309524Y-46533333D01*
X69309524Y-46771429D01*
X69261905Y-46961905D01*
X69214286Y-47057143D01*
X69166667Y-47104762D01*
X69071429Y-47152381D01*
X68976190Y-47152381D01*
X68880952Y-47104762D01*
X68833333Y-47057143D01*
X68785714Y-46961905D01*
X68738095Y-46771429D01*
X68738095Y-46533333D01*
X68785714Y-46342857D01*
X68833333Y-46247619D01*
X68880952Y-46200000D01*
X68976190Y-46152381D01*
X69738095Y-46485714D02*
X69738095Y-47485714D01*
X69738095Y-46533333D02*
X69833333Y-46485714D01*
X70023810Y-46485714D01*
X70119048Y-46533333D01*
X70166667Y-46580952D01*
X70214286Y-46676190D01*
X70214286Y-46961905D01*
X70166667Y-47057143D01*
X70119048Y-47104762D01*
X70023810Y-47152381D01*
X69833333Y-47152381D01*
X69738095Y-47104762D01*
X50152381Y-36071428D02*
X50152381Y-36642857D01*
X50152381Y-36357143D02*
X49152381Y-36357143D01*
X49295238Y-36452381D01*
X49390476Y-36547619D01*
X49438095Y-36642857D01*
X49152381Y-35452381D02*
X49152381Y-35357142D01*
X49200000Y-35261904D01*
X49247619Y-35214285D01*
X49342857Y-35166666D01*
X49533333Y-35119047D01*
X49771429Y-35119047D01*
X49961905Y-35166666D01*
X50057143Y-35214285D01*
X50104762Y-35261904D01*
X50152381Y-35357142D01*
X50152381Y-35452381D01*
X50104762Y-35547619D01*
X50057143Y-35595238D01*
X49961905Y-35642857D01*
X49771429Y-35690476D01*
X49533333Y-35690476D01*
X49342857Y-35642857D01*
X49247619Y-35595238D01*
X49200000Y-35547619D01*
X49152381Y-35452381D01*
X49485714Y-34261904D02*
X50152381Y-34261904D01*
X49485714Y-34690476D02*
X50009524Y-34690476D01*
X50104762Y-34642857D01*
X50152381Y-34547619D01*
X50152381Y-34404761D01*
X50104762Y-34309523D01*
X50057143Y-34261904D01*
X49628571Y-33452380D02*
X49628571Y-33785714D01*
X50152381Y-33785714D02*
X49152381Y-33785714D01*
X49152381Y-33309523D01*
X65752381Y-49642857D02*
X65752381Y-49547618D01*
X65800000Y-49452380D01*
X65847619Y-49404761D01*
X65942857Y-49357142D01*
X66133333Y-49309523D01*
X66371429Y-49309523D01*
X66561905Y-49357142D01*
X66657143Y-49404761D01*
X66704762Y-49452380D01*
X66752381Y-49547618D01*
X66752381Y-49642857D01*
X66704762Y-49738095D01*
X66657143Y-49785714D01*
X66561905Y-49833333D01*
X66371429Y-49880952D01*
X66133333Y-49880952D01*
X65942857Y-49833333D01*
X65847619Y-49785714D01*
X65800000Y-49738095D01*
X65752381Y-49642857D01*
X66657143Y-48880952D02*
X66704762Y-48833333D01*
X66752381Y-48880952D01*
X66704762Y-48928571D01*
X66657143Y-48880952D01*
X66752381Y-48880952D01*
X66752381Y-47880952D02*
X66752381Y-48452381D01*
X66752381Y-48166667D02*
X65752381Y-48166667D01*
X65895238Y-48261905D01*
X65990476Y-48357143D01*
X66038095Y-48452381D01*
X66085714Y-47023809D02*
X66752381Y-47023809D01*
X66085714Y-47452381D02*
X66609524Y-47452381D01*
X66704762Y-47404762D01*
X66752381Y-47309524D01*
X66752381Y-47166666D01*
X66704762Y-47071428D01*
X66657143Y-47023809D01*
X66228571Y-46214285D02*
X66228571Y-46547619D01*
X66752381Y-46547619D02*
X65752381Y-46547619D01*
X65752381Y-46071428D01*
X75752381Y-44642857D02*
X75752381Y-44547618D01*
X75800000Y-44452380D01*
X75847619Y-44404761D01*
X75942857Y-44357142D01*
X76133333Y-44309523D01*
X76371429Y-44309523D01*
X76561905Y-44357142D01*
X76657143Y-44404761D01*
X76704762Y-44452380D01*
X76752381Y-44547618D01*
X76752381Y-44642857D01*
X76704762Y-44738095D01*
X76657143Y-44785714D01*
X76561905Y-44833333D01*
X76371429Y-44880952D01*
X76133333Y-44880952D01*
X75942857Y-44833333D01*
X75847619Y-44785714D01*
X75800000Y-44738095D01*
X75752381Y-44642857D01*
X76657143Y-43880952D02*
X76704762Y-43833333D01*
X76752381Y-43880952D01*
X76704762Y-43928571D01*
X76657143Y-43880952D01*
X76752381Y-43880952D01*
X76752381Y-42880952D02*
X76752381Y-43452381D01*
X76752381Y-43166667D02*
X75752381Y-43166667D01*
X75895238Y-43261905D01*
X75990476Y-43357143D01*
X76038095Y-43452381D01*
X76085714Y-42023809D02*
X76752381Y-42023809D01*
X76085714Y-42452381D02*
X76609524Y-42452381D01*
X76704762Y-42404762D01*
X76752381Y-42309524D01*
X76752381Y-42166666D01*
X76704762Y-42071428D01*
X76657143Y-42023809D01*
X76228571Y-41214285D02*
X76228571Y-41547619D01*
X76752381Y-41547619D02*
X75752381Y-41547619D01*
X75752381Y-41071428D01*
X58714286Y-38152381D02*
X58142857Y-38152381D01*
X58428571Y-38152381D02*
X58428571Y-37152381D01*
X58333333Y-37295238D01*
X58238095Y-37390476D01*
X58142857Y-37438095D01*
X59142857Y-38152381D02*
X59142857Y-37152381D01*
X59476191Y-37866667D01*
X59809524Y-37152381D01*
X59809524Y-38152381D01*
X66752381Y-37595238D02*
X66752381Y-38166667D01*
X66752381Y-37880953D02*
X65752381Y-37880953D01*
X65895238Y-37976191D01*
X65990476Y-38071429D01*
X66038095Y-38166667D01*
X65752381Y-36976191D02*
X65752381Y-36880952D01*
X65800000Y-36785714D01*
X65847619Y-36738095D01*
X65942857Y-36690476D01*
X66133333Y-36642857D01*
X66371429Y-36642857D01*
X66561905Y-36690476D01*
X66657143Y-36738095D01*
X66704762Y-36785714D01*
X66752381Y-36880952D01*
X66752381Y-36976191D01*
X66704762Y-37071429D01*
X66657143Y-37119048D01*
X66561905Y-37166667D01*
X66371429Y-37214286D01*
X66133333Y-37214286D01*
X65942857Y-37166667D01*
X65847619Y-37119048D01*
X65800000Y-37071429D01*
X65752381Y-36976191D01*
X66752381Y-36214286D02*
X65752381Y-36214286D01*
X66371429Y-36119048D02*
X66752381Y-35833333D01*
X66085714Y-35833333D02*
X66466667Y-36214286D01*
X62952381Y-49690476D02*
X62952381Y-50166667D01*
X61952381Y-50166667D01*
X62952381Y-49357143D02*
X61952381Y-49357143D01*
X62666667Y-49023809D01*
X61952381Y-48690476D01*
X62952381Y-48690476D01*
X61952381Y-48309524D02*
X61952381Y-47642857D01*
X62952381Y-48071429D01*
X62285714Y-46833333D02*
X62952381Y-46833333D01*
X61904762Y-47071429D02*
X62619048Y-47309524D01*
X62619048Y-46690476D01*
X62952381Y-45785714D02*
X62952381Y-46357143D01*
X62952381Y-46071429D02*
X61952381Y-46071429D01*
X62095238Y-46166667D01*
X62190476Y-46261905D01*
X62238095Y-46357143D01*
X72952381Y-44690476D02*
X72952381Y-45166667D01*
X71952381Y-45166667D01*
X72952381Y-44357143D02*
X71952381Y-44357143D01*
X72666667Y-44023809D01*
X71952381Y-43690476D01*
X72952381Y-43690476D01*
X71952381Y-43309524D02*
X71952381Y-42642857D01*
X72952381Y-43071429D01*
X72285714Y-41833333D02*
X72952381Y-41833333D01*
X71904762Y-42071429D02*
X72619048Y-42309524D01*
X72619048Y-41690476D01*
X72952381Y-40785714D02*
X72952381Y-41357143D01*
X72952381Y-41071429D02*
X71952381Y-41071429D01*
X72095238Y-41166667D01*
X72190476Y-41261905D01*
X72238095Y-41357143D01*
X71752381Y-37690476D02*
X70752381Y-37690476D01*
X71466667Y-37357142D01*
X70752381Y-37023809D01*
X71752381Y-37023809D01*
X71752381Y-36547619D02*
X70752381Y-36547619D01*
X71466667Y-36214285D01*
X70752381Y-35880952D01*
X71752381Y-35880952D01*
X71228571Y-35071428D02*
X71276190Y-34928571D01*
X71323810Y-34880952D01*
X71419048Y-34833333D01*
X71561905Y-34833333D01*
X71657143Y-34880952D01*
X71704762Y-34928571D01*
X71752381Y-35023809D01*
X71752381Y-35404762D01*
X70752381Y-35404762D01*
X70752381Y-35071428D01*
X70800000Y-34976190D01*
X70847619Y-34928571D01*
X70942857Y-34880952D01*
X71038095Y-34880952D01*
X71133333Y-34928571D01*
X71180952Y-34976190D01*
X71228571Y-35071428D01*
X71228571Y-35404762D01*
X70752381Y-34547619D02*
X70752381Y-33976190D01*
X71752381Y-34261905D02*
X70752381Y-34261905D01*
X70752381Y-33738095D02*
X70752381Y-33119047D01*
X71133333Y-33452381D01*
X71133333Y-33309523D01*
X71180952Y-33214285D01*
X71228571Y-33166666D01*
X71323810Y-33119047D01*
X71561905Y-33119047D01*
X71657143Y-33166666D01*
X71704762Y-33214285D01*
X71752381Y-33309523D01*
X71752381Y-33595238D01*
X71704762Y-33690476D01*
X71657143Y-33738095D01*
X71752381Y-32642857D02*
X71752381Y-32452381D01*
X71704762Y-32357142D01*
X71657143Y-32309523D01*
X71514286Y-32214285D01*
X71323810Y-32166666D01*
X70942857Y-32166666D01*
X70847619Y-32214285D01*
X70800000Y-32261904D01*
X70752381Y-32357142D01*
X70752381Y-32547619D01*
X70800000Y-32642857D01*
X70847619Y-32690476D01*
X70942857Y-32738095D01*
X71180952Y-32738095D01*
X71276190Y-32690476D01*
X71323810Y-32642857D01*
X71371429Y-32547619D01*
X71371429Y-32357142D01*
X71323810Y-32261904D01*
X71276190Y-32214285D01*
X71180952Y-32166666D01*
X70752381Y-31547619D02*
X70752381Y-31452380D01*
X70800000Y-31357142D01*
X70847619Y-31309523D01*
X70942857Y-31261904D01*
X71133333Y-31214285D01*
X71371429Y-31214285D01*
X71561905Y-31261904D01*
X71657143Y-31309523D01*
X71704762Y-31357142D01*
X71752381Y-31452380D01*
X71752381Y-31547619D01*
X71704762Y-31642857D01*
X71657143Y-31690476D01*
X71561905Y-31738095D01*
X71371429Y-31785714D01*
X71133333Y-31785714D01*
X70942857Y-31738095D01*
X70847619Y-31690476D01*
X70800000Y-31642857D01*
X70752381Y-31547619D01*
X71085714Y-30357142D02*
X71752381Y-30357142D01*
X70704762Y-30595238D02*
X71419048Y-30833333D01*
X71419048Y-30214285D01*
X81880953Y-36468381D02*
X81309524Y-36468381D01*
X81595238Y-36468381D02*
X81595238Y-35468381D01*
X81500000Y-35611238D01*
X81404762Y-35706476D01*
X81309524Y-35754095D01*
X82309524Y-36468381D02*
X82309524Y-35468381D01*
X82404762Y-36087429D02*
X82690477Y-36468381D01*
X82690477Y-35801714D02*
X82309524Y-36182667D01*
X81404762Y-50452381D02*
X80833333Y-50452381D01*
X81119047Y-50452381D02*
X81119047Y-49452381D01*
X81023809Y-49595238D01*
X80928571Y-49690476D01*
X80833333Y-49738095D01*
X82023809Y-49452381D02*
X82119048Y-49452381D01*
X82214286Y-49500000D01*
X82261905Y-49547619D01*
X82309524Y-49642857D01*
X82357143Y-49833333D01*
X82357143Y-50071429D01*
X82309524Y-50261905D01*
X82261905Y-50357143D01*
X82214286Y-50404762D01*
X82119048Y-50452381D01*
X82023809Y-50452381D01*
X81928571Y-50404762D01*
X81880952Y-50357143D01*
X81833333Y-50261905D01*
X81785714Y-50071429D01*
X81785714Y-49833333D01*
X81833333Y-49642857D01*
X81880952Y-49547619D01*
X81928571Y-49500000D01*
X82023809Y-49452381D01*
X82785714Y-50452381D02*
X82785714Y-49452381D01*
X82880952Y-50071429D02*
X83166667Y-50452381D01*
X83166667Y-49785714D02*
X82785714Y-50166667D01*
X101944381Y-37666666D02*
X101944381Y-38238095D01*
X101944381Y-37952381D02*
X100944381Y-37952381D01*
X101087238Y-38047619D01*
X101182476Y-38142857D01*
X101230095Y-38238095D01*
X100944381Y-37047619D02*
X100944381Y-36952380D01*
X100992000Y-36857142D01*
X101039619Y-36809523D01*
X101134857Y-36761904D01*
X101325333Y-36714285D01*
X101563429Y-36714285D01*
X101753905Y-36761904D01*
X101849143Y-36809523D01*
X101896762Y-36857142D01*
X101944381Y-36952380D01*
X101944381Y-37047619D01*
X101896762Y-37142857D01*
X101849143Y-37190476D01*
X101753905Y-37238095D01*
X101563429Y-37285714D01*
X101325333Y-37285714D01*
X101134857Y-37238095D01*
X101039619Y-37190476D01*
X100992000Y-37142857D01*
X100944381Y-37047619D01*
X100944381Y-36095238D02*
X100944381Y-35999999D01*
X100992000Y-35904761D01*
X101039619Y-35857142D01*
X101134857Y-35809523D01*
X101325333Y-35761904D01*
X101563429Y-35761904D01*
X101753905Y-35809523D01*
X101849143Y-35857142D01*
X101896762Y-35904761D01*
X101944381Y-35999999D01*
X101944381Y-36095238D01*
X101896762Y-36190476D01*
X101849143Y-36238095D01*
X101753905Y-36285714D01*
X101563429Y-36333333D01*
X101325333Y-36333333D01*
X101134857Y-36285714D01*
X101039619Y-36238095D01*
X100992000Y-36190476D01*
X100944381Y-36095238D01*
X93119048Y-34452381D02*
X92642857Y-34452381D01*
X92595238Y-34928571D01*
X92642857Y-34880952D01*
X92738095Y-34833333D01*
X92976191Y-34833333D01*
X93071429Y-34880952D01*
X93119048Y-34928571D01*
X93166667Y-35023810D01*
X93166667Y-35261905D01*
X93119048Y-35357143D01*
X93071429Y-35404762D01*
X92976191Y-35452381D01*
X92738095Y-35452381D01*
X92642857Y-35404762D01*
X92595238Y-35357143D01*
X93595238Y-35357143D02*
X93642857Y-35404762D01*
X93595238Y-35452381D01*
X93547619Y-35404762D01*
X93595238Y-35357143D01*
X93595238Y-35452381D01*
X94595238Y-35452381D02*
X94023809Y-35452381D01*
X94309523Y-35452381D02*
X94309523Y-34452381D01*
X94214285Y-34595238D01*
X94119047Y-34690476D01*
X94023809Y-34738095D01*
X95023809Y-35452381D02*
X95023809Y-34452381D01*
X95119047Y-35071429D02*
X95404762Y-35452381D01*
X95404762Y-34785714D02*
X95023809Y-35166667D01*
X93404762Y-50452381D02*
X92833333Y-50452381D01*
X93119047Y-50452381D02*
X93119047Y-49452381D01*
X93023809Y-49595238D01*
X92928571Y-49690476D01*
X92833333Y-49738095D01*
X94023809Y-49452381D02*
X94119048Y-49452381D01*
X94214286Y-49500000D01*
X94261905Y-49547619D01*
X94309524Y-49642857D01*
X94357143Y-49833333D01*
X94357143Y-50071429D01*
X94309524Y-50261905D01*
X94261905Y-50357143D01*
X94214286Y-50404762D01*
X94119048Y-50452381D01*
X94023809Y-50452381D01*
X93928571Y-50404762D01*
X93880952Y-50357143D01*
X93833333Y-50261905D01*
X93785714Y-50071429D01*
X93785714Y-49833333D01*
X93833333Y-49642857D01*
X93880952Y-49547619D01*
X93928571Y-49500000D01*
X94023809Y-49452381D01*
X94785714Y-50452381D02*
X94785714Y-49452381D01*
X94880952Y-50071429D02*
X95166667Y-50452381D01*
X95166667Y-49785714D02*
X94785714Y-50166667D01*
X121214286Y-49547619D02*
X121261905Y-49500000D01*
X121357143Y-49452381D01*
X121595239Y-49452381D01*
X121690477Y-49500000D01*
X121738096Y-49547619D01*
X121785715Y-49642857D01*
X121785715Y-49738095D01*
X121738096Y-49880952D01*
X121166667Y-50452381D01*
X121785715Y-50452381D01*
X122214286Y-50452381D02*
X122214286Y-49452381D01*
X122452381Y-49452381D01*
X122595239Y-49500000D01*
X122690477Y-49595238D01*
X122738096Y-49690476D01*
X122785715Y-49880952D01*
X122785715Y-50023810D01*
X122738096Y-50214286D01*
X122690477Y-50309524D01*
X122595239Y-50404762D01*
X122452381Y-50452381D01*
X122214286Y-50452381D01*
X123119048Y-49452381D02*
X123357143Y-50452381D01*
X123547620Y-49738095D01*
X123738096Y-50452381D01*
X123976191Y-49452381D01*
X124309524Y-49547619D02*
X124357143Y-49500000D01*
X124452381Y-49452381D01*
X124690477Y-49452381D01*
X124785715Y-49500000D01*
X124833334Y-49547619D01*
X124880953Y-49642857D01*
X124880953Y-49738095D01*
X124833334Y-49880952D01*
X124261905Y-50452381D01*
X124880953Y-50452381D01*
X125214286Y-49452381D02*
X125833334Y-49452381D01*
X125500000Y-49833333D01*
X125642858Y-49833333D01*
X125738096Y-49880952D01*
X125785715Y-49928571D01*
X125833334Y-50023810D01*
X125833334Y-50261905D01*
X125785715Y-50357143D01*
X125738096Y-50404762D01*
X125642858Y-50452381D01*
X125357143Y-50452381D01*
X125261905Y-50404762D01*
X125214286Y-50357143D01*
X126214286Y-49547619D02*
X126261905Y-49500000D01*
X126357143Y-49452381D01*
X126595239Y-49452381D01*
X126690477Y-49500000D01*
X126738096Y-49547619D01*
X126785715Y-49642857D01*
X126785715Y-49738095D01*
X126738096Y-49880952D01*
X126166667Y-50452381D01*
X126785715Y-50452381D01*
X53152381Y-36071428D02*
X53152381Y-36642857D01*
X53152381Y-36357143D02*
X52152381Y-36357143D01*
X52295238Y-36452381D01*
X52390476Y-36547619D01*
X52438095Y-36642857D01*
X52152381Y-35452381D02*
X52152381Y-35357142D01*
X52200000Y-35261904D01*
X52247619Y-35214285D01*
X52342857Y-35166666D01*
X52533333Y-35119047D01*
X52771429Y-35119047D01*
X52961905Y-35166666D01*
X53057143Y-35214285D01*
X53104762Y-35261904D01*
X53152381Y-35357142D01*
X53152381Y-35452381D01*
X53104762Y-35547619D01*
X53057143Y-35595238D01*
X52961905Y-35642857D01*
X52771429Y-35690476D01*
X52533333Y-35690476D01*
X52342857Y-35642857D01*
X52247619Y-35595238D01*
X52200000Y-35547619D01*
X52152381Y-35452381D01*
X52485714Y-34261904D02*
X53152381Y-34261904D01*
X52485714Y-34690476D02*
X53009524Y-34690476D01*
X53104762Y-34642857D01*
X53152381Y-34547619D01*
X53152381Y-34404761D01*
X53104762Y-34309523D01*
X53057143Y-34261904D01*
X52628571Y-33452380D02*
X52628571Y-33785714D01*
X53152381Y-33785714D02*
X52152381Y-33785714D01*
X52152381Y-33309523D01*
X51152381Y-49642857D02*
X51152381Y-49547618D01*
X51200000Y-49452380D01*
X51247619Y-49404761D01*
X51342857Y-49357142D01*
X51533333Y-49309523D01*
X51771429Y-49309523D01*
X51961905Y-49357142D01*
X52057143Y-49404761D01*
X52104762Y-49452380D01*
X52152381Y-49547618D01*
X52152381Y-49642857D01*
X52104762Y-49738095D01*
X52057143Y-49785714D01*
X51961905Y-49833333D01*
X51771429Y-49880952D01*
X51533333Y-49880952D01*
X51342857Y-49833333D01*
X51247619Y-49785714D01*
X51200000Y-49738095D01*
X51152381Y-49642857D01*
X52057143Y-48880952D02*
X52104762Y-48833333D01*
X52152381Y-48880952D01*
X52104762Y-48928571D01*
X52057143Y-48880952D01*
X52152381Y-48880952D01*
X52152381Y-47880952D02*
X52152381Y-48452381D01*
X52152381Y-48166667D02*
X51152381Y-48166667D01*
X51295238Y-48261905D01*
X51390476Y-48357143D01*
X51438095Y-48452381D01*
X51485714Y-47023809D02*
X52152381Y-47023809D01*
X51485714Y-47452381D02*
X52009524Y-47452381D01*
X52104762Y-47404762D01*
X52152381Y-47309524D01*
X52152381Y-47166666D01*
X52104762Y-47071428D01*
X52057143Y-47023809D01*
X51628571Y-46214285D02*
X51628571Y-46547619D01*
X52152381Y-46547619D02*
X51152381Y-46547619D01*
X51152381Y-46071428D01*
X61152381Y-44642857D02*
X61152381Y-44547618D01*
X61200000Y-44452380D01*
X61247619Y-44404761D01*
X61342857Y-44357142D01*
X61533333Y-44309523D01*
X61771429Y-44309523D01*
X61961905Y-44357142D01*
X62057143Y-44404761D01*
X62104762Y-44452380D01*
X62152381Y-44547618D01*
X62152381Y-44642857D01*
X62104762Y-44738095D01*
X62057143Y-44785714D01*
X61961905Y-44833333D01*
X61771429Y-44880952D01*
X61533333Y-44880952D01*
X61342857Y-44833333D01*
X61247619Y-44785714D01*
X61200000Y-44738095D01*
X61152381Y-44642857D01*
X62057143Y-43880952D02*
X62104762Y-43833333D01*
X62152381Y-43880952D01*
X62104762Y-43928571D01*
X62057143Y-43880952D01*
X62152381Y-43880952D01*
X62152381Y-42880952D02*
X62152381Y-43452381D01*
X62152381Y-43166667D02*
X61152381Y-43166667D01*
X61295238Y-43261905D01*
X61390476Y-43357143D01*
X61438095Y-43452381D01*
X61485714Y-42023809D02*
X62152381Y-42023809D01*
X61485714Y-42452381D02*
X62009524Y-42452381D01*
X62104762Y-42404762D01*
X62152381Y-42309524D01*
X62152381Y-42166666D01*
X62104762Y-42071428D01*
X62057143Y-42023809D01*
X61628571Y-41214285D02*
X61628571Y-41547619D01*
X62152381Y-41547619D02*
X61152381Y-41547619D01*
X61152381Y-41071428D01*
X42976191Y-31357143D02*
X42928572Y-31404762D01*
X42785715Y-31452381D01*
X42690477Y-31452381D01*
X42547619Y-31404762D01*
X42452381Y-31309524D01*
X42404762Y-31214286D01*
X42357143Y-31023810D01*
X42357143Y-30880952D01*
X42404762Y-30690476D01*
X42452381Y-30595238D01*
X42547619Y-30500000D01*
X42690477Y-30452381D01*
X42785715Y-30452381D01*
X42928572Y-30500000D01*
X42976191Y-30547619D01*
X43595238Y-30452381D02*
X43785715Y-30452381D01*
X43880953Y-30500000D01*
X43976191Y-30595238D01*
X44023810Y-30785714D01*
X44023810Y-31119048D01*
X43976191Y-31309524D01*
X43880953Y-31404762D01*
X43785715Y-31452381D01*
X43595238Y-31452381D01*
X43500000Y-31404762D01*
X43404762Y-31309524D01*
X43357143Y-31119048D01*
X43357143Y-30785714D01*
X43404762Y-30595238D01*
X43500000Y-30500000D01*
X43595238Y-30452381D01*
X44452381Y-31452381D02*
X44452381Y-30452381D01*
X45023810Y-31452381D01*
X45023810Y-30452381D01*
X45500000Y-31452381D02*
X45500000Y-30452381D01*
X46071429Y-31452381D01*
X46071429Y-30452381D01*
X46309524Y-31547619D02*
X47071429Y-31547619D01*
X47500000Y-30452381D02*
X47595239Y-30452381D01*
X47690477Y-30500000D01*
X47738096Y-30547619D01*
X47785715Y-30642857D01*
X47833334Y-30833333D01*
X47833334Y-31071429D01*
X47785715Y-31261905D01*
X47738096Y-31357143D01*
X47690477Y-31404762D01*
X47595239Y-31452381D01*
X47500000Y-31452381D01*
X47404762Y-31404762D01*
X47357143Y-31357143D01*
X47309524Y-31261905D01*
X47261905Y-31071429D01*
X47261905Y-30833333D01*
X47309524Y-30642857D01*
X47357143Y-30547619D01*
X47404762Y-30500000D01*
X47500000Y-30452381D01*
X48785715Y-31452381D02*
X48214286Y-31452381D01*
X48500000Y-31452381D02*
X48500000Y-30452381D01*
X48404762Y-30595238D01*
X48309524Y-30690476D01*
X48214286Y-30738095D01*
X49119048Y-30452381D02*
X49785715Y-31452381D01*
X49785715Y-30452381D02*
X49119048Y-31452381D01*
X50357143Y-30452381D02*
X50452382Y-30452381D01*
X50547620Y-30500000D01*
X50595239Y-30547619D01*
X50642858Y-30642857D01*
X50690477Y-30833333D01*
X50690477Y-31071429D01*
X50642858Y-31261905D01*
X50595239Y-31357143D01*
X50547620Y-31404762D01*
X50452382Y-31452381D01*
X50357143Y-31452381D01*
X50261905Y-31404762D01*
X50214286Y-31357143D01*
X50166667Y-31261905D01*
X50119048Y-31071429D01*
X50119048Y-30833333D01*
X50166667Y-30642857D01*
X50214286Y-30547619D01*
X50261905Y-30500000D01*
X50357143Y-30452381D01*
X51023810Y-30452381D02*
X51690477Y-30452381D01*
X51261905Y-31452381D01*
X51752381Y-40690476D02*
X51276190Y-41023810D01*
X51752381Y-41261905D02*
X50752381Y-41261905D01*
X50752381Y-40880952D01*
X50800000Y-40785714D01*
X50847619Y-40738095D01*
X50942857Y-40690476D01*
X51085714Y-40690476D01*
X51180952Y-40738095D01*
X51228571Y-40785714D01*
X51276190Y-40880952D01*
X51276190Y-41261905D01*
X50152381Y-42071428D02*
X50152381Y-42642857D01*
X50152381Y-42357143D02*
X49152381Y-42357143D01*
X49295238Y-42452381D01*
X49390476Y-42547619D01*
X49438095Y-42642857D01*
X49152381Y-41452381D02*
X49152381Y-41357142D01*
X49200000Y-41261904D01*
X49247619Y-41214285D01*
X49342857Y-41166666D01*
X49533333Y-41119047D01*
X49771429Y-41119047D01*
X49961905Y-41166666D01*
X50057143Y-41214285D01*
X50104762Y-41261904D01*
X50152381Y-41357142D01*
X50152381Y-41452381D01*
X50104762Y-41547619D01*
X50057143Y-41595238D01*
X49961905Y-41642857D01*
X49771429Y-41690476D01*
X49533333Y-41690476D01*
X49342857Y-41642857D01*
X49247619Y-41595238D01*
X49200000Y-41547619D01*
X49152381Y-41452381D01*
X49485714Y-40261904D02*
X50152381Y-40261904D01*
X49485714Y-40690476D02*
X50009524Y-40690476D01*
X50104762Y-40642857D01*
X50152381Y-40547619D01*
X50152381Y-40404761D01*
X50104762Y-40309523D01*
X50057143Y-40261904D01*
X49628571Y-39452380D02*
X49628571Y-39785714D01*
X50152381Y-39785714D02*
X49152381Y-39785714D01*
X49152381Y-39309523D01*
X81952381Y-38452381D02*
X82047620Y-38452381D01*
X82142858Y-38500000D01*
X82190477Y-38547619D01*
X82238096Y-38642857D01*
X82285715Y-38833333D01*
X82285715Y-39071429D01*
X82238096Y-39261905D01*
X82190477Y-39357143D01*
X82142858Y-39404762D01*
X82047620Y-39452381D01*
X81952381Y-39452381D01*
X81857143Y-39404762D01*
X81809524Y-39357143D01*
X81761905Y-39261905D01*
X81714286Y-39071429D01*
X81714286Y-38833333D01*
X81761905Y-38642857D01*
X81809524Y-38547619D01*
X81857143Y-38500000D01*
X81952381Y-38452381D01*
X81952381Y-45452381D02*
X82047620Y-45452381D01*
X82142858Y-45500000D01*
X82190477Y-45547619D01*
X82238096Y-45642857D01*
X82285715Y-45833333D01*
X82285715Y-46071429D01*
X82238096Y-46261905D01*
X82190477Y-46357143D01*
X82142858Y-46404762D01*
X82047620Y-46452381D01*
X81952381Y-46452381D01*
X81857143Y-46404762D01*
X81809524Y-46357143D01*
X81761905Y-46261905D01*
X81714286Y-46071429D01*
X81714286Y-45833333D01*
X81761905Y-45642857D01*
X81809524Y-45547619D01*
X81857143Y-45500000D01*
X81952381Y-45452381D01*
X93952381Y-38452381D02*
X94047620Y-38452381D01*
X94142858Y-38500000D01*
X94190477Y-38547619D01*
X94238096Y-38642857D01*
X94285715Y-38833333D01*
X94285715Y-39071429D01*
X94238096Y-39261905D01*
X94190477Y-39357143D01*
X94142858Y-39404762D01*
X94047620Y-39452381D01*
X93952381Y-39452381D01*
X93857143Y-39404762D01*
X93809524Y-39357143D01*
X93761905Y-39261905D01*
X93714286Y-39071429D01*
X93714286Y-38833333D01*
X93761905Y-38642857D01*
X93809524Y-38547619D01*
X93857143Y-38500000D01*
X93952381Y-38452381D01*
X93952381Y-45452381D02*
X94047620Y-45452381D01*
X94142858Y-45500000D01*
X94190477Y-45547619D01*
X94238096Y-45642857D01*
X94285715Y-45833333D01*
X94285715Y-46071429D01*
X94238096Y-46261905D01*
X94190477Y-46357143D01*
X94142858Y-46404762D01*
X94047620Y-46452381D01*
X93952381Y-46452381D01*
X93857143Y-46404762D01*
X93809524Y-46357143D01*
X93761905Y-46261905D01*
X93714286Y-46071429D01*
X93714286Y-45833333D01*
X93761905Y-45642857D01*
X93809524Y-45547619D01*
X93857143Y-45500000D01*
X93952381Y-45452381D01*
M02*
