G04 #@! TF.FileFunction,Copper,L3,Inr,Signal*
%FSLAX46Y46*%
G04 Gerber Fmt 4.6, Leading zero omitted, Abs format (unit mm)*
G04 Created by KiCad (PCBNEW 4.0.4+dfsg1-stable) date Mon Feb 27 17:07:35 2017*
%MOMM*%
%LPD*%
G01*
G04 APERTURE LIST*
%ADD10C,0.100000*%
%ADD11C,0.150000*%
%ADD12C,0.300000*%
%ADD13C,0.400000*%
%ADD14O,1.501140X2.499360*%
%ADD15O,2.499360X1.501140*%
%ADD16C,1.524000*%
%ADD17R,2.032000X1.727200*%
%ADD18O,2.032000X1.727200*%
%ADD19C,1.000000*%
%ADD20C,0.254000*%
G04 APERTURE END LIST*
D10*
D11*
X177002200Y-166007200D02*
X177002200Y-198007200D01*
X285002200Y-198007200D01*
X285002200Y-166007200D01*
X177002200Y-166007200D01*
D10*
D11*
X10000000Y-10000000D02*
X10000000Y-200007200D01*
X287002200Y-200007200D01*
X287002200Y-10000000D01*
X10000000Y-10000000D01*
D10*
D11*
X12000000Y-12000000D02*
X12000000Y-198007200D01*
X285002200Y-198007200D01*
X285002200Y-12000000D01*
X12000000Y-12000000D01*
D10*
D11*
X60000000Y-12000000D02*
X60000000Y-10000000D01*
D10*
D11*
X110000000Y-12000000D02*
X110000000Y-10000000D01*
D10*
D11*
X160000000Y-12000000D02*
X160000000Y-10000000D01*
D10*
D11*
X210000000Y-12000000D02*
X210000000Y-10000000D01*
D10*
D11*
X260000000Y-12000000D02*
X260000000Y-10000000D01*
D10*
D11*
X35990476Y-11588095D02*
X35247619Y-11588095D01*
X35619048Y-11588095D02*
X35619048Y-10288095D01*
X35495238Y-10473810D01*
X35371429Y-10597619D01*
X35247619Y-10659524D01*
D10*
D11*
X85247619Y-10411905D02*
X85309524Y-10350000D01*
X85433333Y-10288095D01*
X85742857Y-10288095D01*
X85866667Y-10350000D01*
X85928571Y-10411905D01*
X85990476Y-10535714D01*
X85990476Y-10659524D01*
X85928571Y-10845238D01*
X85185714Y-11588095D01*
X85990476Y-11588095D01*
D10*
D11*
X135185714Y-10288095D02*
X135990476Y-10288095D01*
X135557143Y-10783333D01*
X135742857Y-10783333D01*
X135866667Y-10845238D01*
X135928571Y-10907143D01*
X135990476Y-11030952D01*
X135990476Y-11340476D01*
X135928571Y-11464286D01*
X135866667Y-11526190D01*
X135742857Y-11588095D01*
X135371429Y-11588095D01*
X135247619Y-11526190D01*
X135185714Y-11464286D01*
D10*
D11*
X185866667Y-10721429D02*
X185866667Y-11588095D01*
X185557143Y-10226190D02*
X185247619Y-11154762D01*
X186052381Y-11154762D01*
D10*
D11*
X235928571Y-10288095D02*
X235309524Y-10288095D01*
X235247619Y-10907143D01*
X235309524Y-10845238D01*
X235433333Y-10783333D01*
X235742857Y-10783333D01*
X235866667Y-10845238D01*
X235928571Y-10907143D01*
X235990476Y-11030952D01*
X235990476Y-11340476D01*
X235928571Y-11464286D01*
X235866667Y-11526190D01*
X235742857Y-11588095D01*
X235433333Y-11588095D01*
X235309524Y-11526190D01*
X235247619Y-11464286D01*
D10*
D11*
X285866667Y-10288095D02*
X285619048Y-10288095D01*
X285495238Y-10350000D01*
X285433333Y-10411905D01*
X285309524Y-10597619D01*
X285247619Y-10845238D01*
X285247619Y-11340476D01*
X285309524Y-11464286D01*
X285371429Y-11526190D01*
X285495238Y-11588095D01*
X285742857Y-11588095D01*
X285866667Y-11526190D01*
X285928571Y-11464286D01*
X285990476Y-11340476D01*
X285990476Y-11030952D01*
X285928571Y-10907143D01*
X285866667Y-10845238D01*
X285742857Y-10783333D01*
X285495238Y-10783333D01*
X285371429Y-10845238D01*
X285309524Y-10907143D01*
X285247619Y-11030952D01*
D10*
D11*
X60000000Y-198007200D02*
X60000000Y-200007200D01*
D10*
D11*
X110000000Y-198007200D02*
X110000000Y-200007200D01*
D10*
D11*
X160000000Y-198007200D02*
X160000000Y-200007200D01*
D10*
D11*
X210000000Y-198007200D02*
X210000000Y-200007200D01*
D10*
D11*
X260000000Y-198007200D02*
X260000000Y-200007200D01*
D10*
D11*
X35990476Y-199595295D02*
X35247619Y-199595295D01*
X35619048Y-199595295D02*
X35619048Y-198295295D01*
X35495238Y-198481010D01*
X35371429Y-198604819D01*
X35247619Y-198666724D01*
D10*
D11*
X85247619Y-198419105D02*
X85309524Y-198357200D01*
X85433333Y-198295295D01*
X85742857Y-198295295D01*
X85866667Y-198357200D01*
X85928571Y-198419105D01*
X85990476Y-198542914D01*
X85990476Y-198666724D01*
X85928571Y-198852438D01*
X85185714Y-199595295D01*
X85990476Y-199595295D01*
D10*
D11*
X135185714Y-198295295D02*
X135990476Y-198295295D01*
X135557143Y-198790533D01*
X135742857Y-198790533D01*
X135866667Y-198852438D01*
X135928571Y-198914343D01*
X135990476Y-199038152D01*
X135990476Y-199347676D01*
X135928571Y-199471486D01*
X135866667Y-199533390D01*
X135742857Y-199595295D01*
X135371429Y-199595295D01*
X135247619Y-199533390D01*
X135185714Y-199471486D01*
D10*
D11*
X185866667Y-198728629D02*
X185866667Y-199595295D01*
X185557143Y-198233390D02*
X185247619Y-199161962D01*
X186052381Y-199161962D01*
D10*
D11*
X235928571Y-198295295D02*
X235309524Y-198295295D01*
X235247619Y-198914343D01*
X235309524Y-198852438D01*
X235433333Y-198790533D01*
X235742857Y-198790533D01*
X235866667Y-198852438D01*
X235928571Y-198914343D01*
X235990476Y-199038152D01*
X235990476Y-199347676D01*
X235928571Y-199471486D01*
X235866667Y-199533390D01*
X235742857Y-199595295D01*
X235433333Y-199595295D01*
X235309524Y-199533390D01*
X235247619Y-199471486D01*
D10*
D11*
X285866667Y-198295295D02*
X285619048Y-198295295D01*
X285495238Y-198357200D01*
X285433333Y-198419105D01*
X285309524Y-198604819D01*
X285247619Y-198852438D01*
X285247619Y-199347676D01*
X285309524Y-199471486D01*
X285371429Y-199533390D01*
X285495238Y-199595295D01*
X285742857Y-199595295D01*
X285866667Y-199533390D01*
X285928571Y-199471486D01*
X285990476Y-199347676D01*
X285990476Y-199038152D01*
X285928571Y-198914343D01*
X285866667Y-198852438D01*
X285742857Y-198790533D01*
X285495238Y-198790533D01*
X285371429Y-198852438D01*
X285309524Y-198914343D01*
X285247619Y-199038152D01*
D10*
D11*
X10000000Y-60000000D02*
X12000000Y-60000000D01*
D10*
D11*
X10000000Y-110000000D02*
X12000000Y-110000000D01*
D10*
D11*
X10000000Y-160000000D02*
X12000000Y-160000000D01*
D10*
D11*
X10690476Y-35216667D02*
X11309524Y-35216667D01*
X10566667Y-35588095D02*
X11000000Y-34288095D01*
X11433333Y-35588095D01*
D10*
D11*
X11092857Y-84907143D02*
X11278571Y-84969048D01*
X11340476Y-85030952D01*
X11402381Y-85154762D01*
X11402381Y-85340476D01*
X11340476Y-85464286D01*
X11278571Y-85526190D01*
X11154762Y-85588095D01*
X10659524Y-85588095D01*
X10659524Y-84288095D01*
X11092857Y-84288095D01*
X11216667Y-84350000D01*
X11278571Y-84411905D01*
X11340476Y-84535714D01*
X11340476Y-84659524D01*
X11278571Y-84783333D01*
X11216667Y-84845238D01*
X11092857Y-84907143D01*
X10659524Y-84907143D01*
D10*
D11*
X11402381Y-135464286D02*
X11340476Y-135526190D01*
X11154762Y-135588095D01*
X11030952Y-135588095D01*
X10845238Y-135526190D01*
X10721429Y-135402381D01*
X10659524Y-135278571D01*
X10597619Y-135030952D01*
X10597619Y-134845238D01*
X10659524Y-134597619D01*
X10721429Y-134473810D01*
X10845238Y-134350000D01*
X11030952Y-134288095D01*
X11154762Y-134288095D01*
X11340476Y-134350000D01*
X11402381Y-134411905D01*
D10*
D11*
X10659524Y-185588095D02*
X10659524Y-184288095D01*
X10969048Y-184288095D01*
X11154762Y-184350000D01*
X11278571Y-184473810D01*
X11340476Y-184597619D01*
X11402381Y-184845238D01*
X11402381Y-185030952D01*
X11340476Y-185278571D01*
X11278571Y-185402381D01*
X11154762Y-185526190D01*
X10969048Y-185588095D01*
X10659524Y-185588095D01*
D10*
D11*
X287002200Y-60000000D02*
X285002200Y-60000000D01*
D10*
D11*
X287002200Y-110000000D02*
X285002200Y-110000000D01*
D10*
D11*
X287002200Y-160000000D02*
X285002200Y-160000000D01*
D10*
D11*
X285692676Y-35216667D02*
X286311724Y-35216667D01*
X285568867Y-35588095D02*
X286002200Y-34288095D01*
X286435533Y-35588095D01*
D10*
D11*
X286095057Y-84907143D02*
X286280771Y-84969048D01*
X286342676Y-85030952D01*
X286404581Y-85154762D01*
X286404581Y-85340476D01*
X286342676Y-85464286D01*
X286280771Y-85526190D01*
X286156962Y-85588095D01*
X285661724Y-85588095D01*
X285661724Y-84288095D01*
X286095057Y-84288095D01*
X286218867Y-84350000D01*
X286280771Y-84411905D01*
X286342676Y-84535714D01*
X286342676Y-84659524D01*
X286280771Y-84783333D01*
X286218867Y-84845238D01*
X286095057Y-84907143D01*
X285661724Y-84907143D01*
D10*
D11*
X286404581Y-135464286D02*
X286342676Y-135526190D01*
X286156962Y-135588095D01*
X286033152Y-135588095D01*
X285847438Y-135526190D01*
X285723629Y-135402381D01*
X285661724Y-135278571D01*
X285599819Y-135030952D01*
X285599819Y-134845238D01*
X285661724Y-134597619D01*
X285723629Y-134473810D01*
X285847438Y-134350000D01*
X286033152Y-134288095D01*
X286156962Y-134288095D01*
X286342676Y-134350000D01*
X286404581Y-134411905D01*
D10*
D11*
X285661724Y-185588095D02*
X285661724Y-184288095D01*
X285971248Y-184288095D01*
X286156962Y-184350000D01*
X286280771Y-184473810D01*
X286342676Y-184597619D01*
X286404581Y-184845238D01*
X286404581Y-185030952D01*
X286342676Y-185278571D01*
X286280771Y-185402381D01*
X286156962Y-185526190D01*
X285971248Y-185588095D01*
X285661724Y-185588095D01*
D10*
D11*
X200359343Y-193785771D02*
X200359343Y-192285771D01*
X200716486Y-192285771D01*
X200930771Y-192357200D01*
X201073629Y-192500057D01*
X201145057Y-192642914D01*
X201216486Y-192928629D01*
X201216486Y-193142914D01*
X201145057Y-193428629D01*
X201073629Y-193571486D01*
X200930771Y-193714343D01*
X200716486Y-193785771D01*
X200359343Y-193785771D01*
X202502200Y-193785771D02*
X202502200Y-193000057D01*
X202430771Y-192857200D01*
X202287914Y-192785771D01*
X202002200Y-192785771D01*
X201859343Y-192857200D01*
X202502200Y-193714343D02*
X202359343Y-193785771D01*
X202002200Y-193785771D01*
X201859343Y-193714343D01*
X201787914Y-193571486D01*
X201787914Y-193428629D01*
X201859343Y-193285771D01*
X202002200Y-193214343D01*
X202359343Y-193214343D01*
X202502200Y-193142914D01*
X203002200Y-192785771D02*
X203573629Y-192785771D01*
X203216486Y-192285771D02*
X203216486Y-193571486D01*
X203287914Y-193714343D01*
X203430772Y-193785771D01*
X203573629Y-193785771D01*
X204645057Y-193714343D02*
X204502200Y-193785771D01*
X204216486Y-193785771D01*
X204073629Y-193714343D01*
X204002200Y-193571486D01*
X204002200Y-193000057D01*
X204073629Y-192857200D01*
X204216486Y-192785771D01*
X204502200Y-192785771D01*
X204645057Y-192857200D01*
X204716486Y-193000057D01*
X204716486Y-193142914D01*
X204002200Y-193285771D01*
X205359343Y-193642914D02*
X205430771Y-193714343D01*
X205359343Y-193785771D01*
X205287914Y-193714343D01*
X205359343Y-193642914D01*
X205359343Y-193785771D01*
X205359343Y-192857200D02*
X205430771Y-192928629D01*
X205359343Y-193000057D01*
X205287914Y-192928629D01*
X205359343Y-192857200D01*
X205359343Y-193000057D01*
D10*
D11*
X177002200Y-194507200D02*
X285002200Y-194507200D01*
D10*
D11*
X178359343Y-196585771D02*
X178359343Y-195085771D01*
X179216486Y-196585771D02*
X178573629Y-195728629D01*
X179216486Y-195085771D02*
X178359343Y-195942914D01*
X179859343Y-196585771D02*
X179859343Y-195585771D01*
X179859343Y-195085771D02*
X179787914Y-195157200D01*
X179859343Y-195228629D01*
X179930771Y-195157200D01*
X179859343Y-195085771D01*
X179859343Y-195228629D01*
X181430772Y-196442914D02*
X181359343Y-196514343D01*
X181145057Y-196585771D01*
X181002200Y-196585771D01*
X180787915Y-196514343D01*
X180645057Y-196371486D01*
X180573629Y-196228629D01*
X180502200Y-195942914D01*
X180502200Y-195728629D01*
X180573629Y-195442914D01*
X180645057Y-195300057D01*
X180787915Y-195157200D01*
X181002200Y-195085771D01*
X181145057Y-195085771D01*
X181359343Y-195157200D01*
X181430772Y-195228629D01*
X182716486Y-196585771D02*
X182716486Y-195800057D01*
X182645057Y-195657200D01*
X182502200Y-195585771D01*
X182216486Y-195585771D01*
X182073629Y-195657200D01*
X182716486Y-196514343D02*
X182573629Y-196585771D01*
X182216486Y-196585771D01*
X182073629Y-196514343D01*
X182002200Y-196371486D01*
X182002200Y-196228629D01*
X182073629Y-196085771D01*
X182216486Y-196014343D01*
X182573629Y-196014343D01*
X182716486Y-195942914D01*
X184073629Y-196585771D02*
X184073629Y-195085771D01*
X184073629Y-196514343D02*
X183930772Y-196585771D01*
X183645058Y-196585771D01*
X183502200Y-196514343D01*
X183430772Y-196442914D01*
X183359343Y-196300057D01*
X183359343Y-195871486D01*
X183430772Y-195728629D01*
X183502200Y-195657200D01*
X183645058Y-195585771D01*
X183930772Y-195585771D01*
X184073629Y-195657200D01*
X185930772Y-195800057D02*
X186430772Y-195800057D01*
X186645058Y-196585771D02*
X185930772Y-196585771D01*
X185930772Y-195085771D01*
X186645058Y-195085771D01*
X187287915Y-196442914D02*
X187359343Y-196514343D01*
X187287915Y-196585771D01*
X187216486Y-196514343D01*
X187287915Y-196442914D01*
X187287915Y-196585771D01*
X188002201Y-196585771D02*
X188002201Y-195085771D01*
X188359344Y-195085771D01*
X188573629Y-195157200D01*
X188716487Y-195300057D01*
X188787915Y-195442914D01*
X188859344Y-195728629D01*
X188859344Y-195942914D01*
X188787915Y-196228629D01*
X188716487Y-196371486D01*
X188573629Y-196514343D01*
X188359344Y-196585771D01*
X188002201Y-196585771D01*
X189502201Y-196442914D02*
X189573629Y-196514343D01*
X189502201Y-196585771D01*
X189430772Y-196514343D01*
X189502201Y-196442914D01*
X189502201Y-196585771D01*
X190145058Y-196157200D02*
X190859344Y-196157200D01*
X190002201Y-196585771D02*
X190502201Y-195085771D01*
X191002201Y-196585771D01*
X191502201Y-196442914D02*
X191573629Y-196514343D01*
X191502201Y-196585771D01*
X191430772Y-196514343D01*
X191502201Y-196442914D01*
X191502201Y-196585771D01*
X194502201Y-196585771D02*
X194502201Y-195085771D01*
X194645058Y-196014343D02*
X195073629Y-196585771D01*
X195073629Y-195585771D02*
X194502201Y-196157200D01*
X195716487Y-196585771D02*
X195716487Y-195585771D01*
X195716487Y-195085771D02*
X195645058Y-195157200D01*
X195716487Y-195228629D01*
X195787915Y-195157200D01*
X195716487Y-195085771D01*
X195716487Y-195228629D01*
X197073630Y-196514343D02*
X196930773Y-196585771D01*
X196645059Y-196585771D01*
X196502201Y-196514343D01*
X196430773Y-196442914D01*
X196359344Y-196300057D01*
X196359344Y-195871486D01*
X196430773Y-195728629D01*
X196502201Y-195657200D01*
X196645059Y-195585771D01*
X196930773Y-195585771D01*
X197073630Y-195657200D01*
X198359344Y-196585771D02*
X198359344Y-195800057D01*
X198287915Y-195657200D01*
X198145058Y-195585771D01*
X197859344Y-195585771D01*
X197716487Y-195657200D01*
X198359344Y-196514343D02*
X198216487Y-196585771D01*
X197859344Y-196585771D01*
X197716487Y-196514343D01*
X197645058Y-196371486D01*
X197645058Y-196228629D01*
X197716487Y-196085771D01*
X197859344Y-196014343D01*
X198216487Y-196014343D01*
X198359344Y-195942914D01*
X199716487Y-196585771D02*
X199716487Y-195085771D01*
X199716487Y-196514343D02*
X199573630Y-196585771D01*
X199287916Y-196585771D01*
X199145058Y-196514343D01*
X199073630Y-196442914D01*
X199002201Y-196300057D01*
X199002201Y-195871486D01*
X199073630Y-195728629D01*
X199145058Y-195657200D01*
X199287916Y-195585771D01*
X199573630Y-195585771D01*
X199716487Y-195657200D01*
X202216487Y-195585771D02*
X202216487Y-196585771D01*
X201859344Y-195014343D02*
X201502201Y-196085771D01*
X202430773Y-196085771D01*
X203002201Y-196442914D02*
X203073629Y-196514343D01*
X203002201Y-196585771D01*
X202930772Y-196514343D01*
X203002201Y-196442914D01*
X203002201Y-196585771D01*
X204002201Y-195085771D02*
X204145058Y-195085771D01*
X204287915Y-195157200D01*
X204359344Y-195228629D01*
X204430773Y-195371486D01*
X204502201Y-195657200D01*
X204502201Y-196014343D01*
X204430773Y-196300057D01*
X204359344Y-196442914D01*
X204287915Y-196514343D01*
X204145058Y-196585771D01*
X204002201Y-196585771D01*
X203859344Y-196514343D01*
X203787915Y-196442914D01*
X203716487Y-196300057D01*
X203645058Y-196014343D01*
X203645058Y-195657200D01*
X203716487Y-195371486D01*
X203787915Y-195228629D01*
X203859344Y-195157200D01*
X204002201Y-195085771D01*
X205145058Y-196442914D02*
X205216486Y-196514343D01*
X205145058Y-196585771D01*
X205073629Y-196514343D01*
X205145058Y-196442914D01*
X205145058Y-196585771D01*
X206502201Y-195585771D02*
X206502201Y-196585771D01*
X206145058Y-195014343D02*
X205787915Y-196085771D01*
X206716487Y-196085771D01*
X207287915Y-196014343D02*
X208430772Y-196014343D01*
X207859343Y-196585771D02*
X207859343Y-195442914D01*
X209787915Y-196585771D02*
X209787915Y-195085771D01*
X209787915Y-196514343D02*
X209645058Y-196585771D01*
X209359344Y-196585771D01*
X209216486Y-196514343D01*
X209145058Y-196442914D01*
X209073629Y-196300057D01*
X209073629Y-195871486D01*
X209145058Y-195728629D01*
X209216486Y-195657200D01*
X209359344Y-195585771D01*
X209645058Y-195585771D01*
X209787915Y-195657200D01*
X210287915Y-195585771D02*
X210859344Y-195585771D01*
X210502201Y-196585771D02*
X210502201Y-195300057D01*
X210573629Y-195157200D01*
X210716487Y-195085771D01*
X210859344Y-195085771D01*
X211287915Y-196514343D02*
X211430772Y-196585771D01*
X211716487Y-196585771D01*
X211859344Y-196514343D01*
X211930772Y-196371486D01*
X211930772Y-196300057D01*
X211859344Y-196157200D01*
X211716487Y-196085771D01*
X211502201Y-196085771D01*
X211359344Y-196014343D01*
X211287915Y-195871486D01*
X211287915Y-195800057D01*
X211359344Y-195657200D01*
X211502201Y-195585771D01*
X211716487Y-195585771D01*
X211859344Y-195657200D01*
X213216487Y-195585771D02*
X213216487Y-196800057D01*
X213145058Y-196942914D01*
X213073630Y-197014343D01*
X212930773Y-197085771D01*
X212716487Y-197085771D01*
X212573630Y-197014343D01*
X213216487Y-196514343D02*
X213073630Y-196585771D01*
X212787916Y-196585771D01*
X212645058Y-196514343D01*
X212573630Y-196442914D01*
X212502201Y-196300057D01*
X212502201Y-195871486D01*
X212573630Y-195728629D01*
X212645058Y-195657200D01*
X212787916Y-195585771D01*
X213073630Y-195585771D01*
X213216487Y-195657200D01*
X214716487Y-196585771D02*
X213859344Y-196585771D01*
X214287916Y-196585771D02*
X214287916Y-195085771D01*
X214145059Y-195300057D01*
X214002201Y-195442914D01*
X213859344Y-195514343D01*
X215359344Y-196014343D02*
X216502201Y-196014343D01*
X217145058Y-196514343D02*
X217287915Y-196585771D01*
X217573630Y-196585771D01*
X217716487Y-196514343D01*
X217787915Y-196371486D01*
X217787915Y-196300057D01*
X217716487Y-196157200D01*
X217573630Y-196085771D01*
X217359344Y-196085771D01*
X217216487Y-196014343D01*
X217145058Y-195871486D01*
X217145058Y-195800057D01*
X217216487Y-195657200D01*
X217359344Y-195585771D01*
X217573630Y-195585771D01*
X217716487Y-195657200D01*
X218216487Y-195585771D02*
X218787916Y-195585771D01*
X218430773Y-195085771D02*
X218430773Y-196371486D01*
X218502201Y-196514343D01*
X218645059Y-196585771D01*
X218787916Y-196585771D01*
X219930773Y-196585771D02*
X219930773Y-195800057D01*
X219859344Y-195657200D01*
X219716487Y-195585771D01*
X219430773Y-195585771D01*
X219287916Y-195657200D01*
X219930773Y-196514343D02*
X219787916Y-196585771D01*
X219430773Y-196585771D01*
X219287916Y-196514343D01*
X219216487Y-196371486D01*
X219216487Y-196228629D01*
X219287916Y-196085771D01*
X219430773Y-196014343D01*
X219787916Y-196014343D01*
X219930773Y-195942914D01*
X220645059Y-196585771D02*
X220645059Y-195085771D01*
X220645059Y-195657200D02*
X220787916Y-195585771D01*
X221073630Y-195585771D01*
X221216487Y-195657200D01*
X221287916Y-195728629D01*
X221359345Y-195871486D01*
X221359345Y-196300057D01*
X221287916Y-196442914D01*
X221216487Y-196514343D01*
X221073630Y-196585771D01*
X220787916Y-196585771D01*
X220645059Y-196514343D01*
X222216488Y-196585771D02*
X222073630Y-196514343D01*
X222002202Y-196371486D01*
X222002202Y-195085771D01*
X223359344Y-196514343D02*
X223216487Y-196585771D01*
X222930773Y-196585771D01*
X222787916Y-196514343D01*
X222716487Y-196371486D01*
X222716487Y-195800057D01*
X222787916Y-195657200D01*
X222930773Y-195585771D01*
X223216487Y-195585771D01*
X223359344Y-195657200D01*
X223430773Y-195800057D01*
X223430773Y-195942914D01*
X222716487Y-196085771D01*
D10*
D11*
X177002200Y-191507200D02*
X285002200Y-191507200D01*
D10*
D12*
X264216486Y-193785771D02*
X263716486Y-193071486D01*
X263359343Y-193785771D02*
X263359343Y-192285771D01*
X263930771Y-192285771D01*
X264073629Y-192357200D01*
X264145057Y-192428629D01*
X264216486Y-192571486D01*
X264216486Y-192785771D01*
X264145057Y-192928629D01*
X264073629Y-193000057D01*
X263930771Y-193071486D01*
X263359343Y-193071486D01*
X265430771Y-193714343D02*
X265287914Y-193785771D01*
X265002200Y-193785771D01*
X264859343Y-193714343D01*
X264787914Y-193571486D01*
X264787914Y-193000057D01*
X264859343Y-192857200D01*
X265002200Y-192785771D01*
X265287914Y-192785771D01*
X265430771Y-192857200D01*
X265502200Y-193000057D01*
X265502200Y-193142914D01*
X264787914Y-193285771D01*
X266002200Y-192785771D02*
X266359343Y-193785771D01*
X266716485Y-192785771D01*
X267287914Y-193642914D02*
X267359342Y-193714343D01*
X267287914Y-193785771D01*
X267216485Y-193714343D01*
X267287914Y-193642914D01*
X267287914Y-193785771D01*
X267287914Y-192857200D02*
X267359342Y-192928629D01*
X267287914Y-193000057D01*
X267216485Y-192928629D01*
X267287914Y-192857200D01*
X267287914Y-193000057D01*
D10*
D11*
X178287914Y-193714343D02*
X178502200Y-193785771D01*
X178859343Y-193785771D01*
X179002200Y-193714343D01*
X179073629Y-193642914D01*
X179145057Y-193500057D01*
X179145057Y-193357200D01*
X179073629Y-193214343D01*
X179002200Y-193142914D01*
X178859343Y-193071486D01*
X178573629Y-193000057D01*
X178430771Y-192928629D01*
X178359343Y-192857200D01*
X178287914Y-192714343D01*
X178287914Y-192571486D01*
X178359343Y-192428629D01*
X178430771Y-192357200D01*
X178573629Y-192285771D01*
X178930771Y-192285771D01*
X179145057Y-192357200D01*
X179787914Y-193785771D02*
X179787914Y-192785771D01*
X179787914Y-192285771D02*
X179716485Y-192357200D01*
X179787914Y-192428629D01*
X179859342Y-192357200D01*
X179787914Y-192285771D01*
X179787914Y-192428629D01*
X180359343Y-192785771D02*
X181145057Y-192785771D01*
X180359343Y-193785771D01*
X181145057Y-193785771D01*
X182287914Y-193714343D02*
X182145057Y-193785771D01*
X181859343Y-193785771D01*
X181716486Y-193714343D01*
X181645057Y-193571486D01*
X181645057Y-193000057D01*
X181716486Y-192857200D01*
X181859343Y-192785771D01*
X182145057Y-192785771D01*
X182287914Y-192857200D01*
X182359343Y-193000057D01*
X182359343Y-193142914D01*
X181645057Y-193285771D01*
X183002200Y-193642914D02*
X183073628Y-193714343D01*
X183002200Y-193785771D01*
X182930771Y-193714343D01*
X183002200Y-193642914D01*
X183002200Y-193785771D01*
X183002200Y-192857200D02*
X183073628Y-192928629D01*
X183002200Y-193000057D01*
X182930771Y-192928629D01*
X183002200Y-192857200D01*
X183002200Y-193000057D01*
X184787914Y-193357200D02*
X185502200Y-193357200D01*
X184645057Y-193785771D02*
X185145057Y-192285771D01*
X185645057Y-193785771D01*
X186787914Y-192785771D02*
X186787914Y-193785771D01*
X186430771Y-192214343D02*
X186073628Y-193285771D01*
X187002200Y-193285771D01*
D10*
D11*
X263359343Y-196585771D02*
X263359343Y-195085771D01*
X264716486Y-196585771D02*
X264716486Y-195085771D01*
X264716486Y-196514343D02*
X264573629Y-196585771D01*
X264287915Y-196585771D01*
X264145057Y-196514343D01*
X264073629Y-196442914D01*
X264002200Y-196300057D01*
X264002200Y-195871486D01*
X264073629Y-195728629D01*
X264145057Y-195657200D01*
X264287915Y-195585771D01*
X264573629Y-195585771D01*
X264716486Y-195657200D01*
X265430772Y-196442914D02*
X265502200Y-196514343D01*
X265430772Y-196585771D01*
X265359343Y-196514343D01*
X265430772Y-196442914D01*
X265430772Y-196585771D01*
X265430772Y-195657200D02*
X265502200Y-195728629D01*
X265430772Y-195800057D01*
X265359343Y-195728629D01*
X265430772Y-195657200D01*
X265430772Y-195800057D01*
X268073629Y-196585771D02*
X267216486Y-196585771D01*
X267645058Y-196585771D02*
X267645058Y-195085771D01*
X267502201Y-195300057D01*
X267359343Y-195442914D01*
X267216486Y-195514343D01*
X269787914Y-195014343D02*
X268502200Y-196942914D01*
X271073629Y-196585771D02*
X270216486Y-196585771D01*
X270645058Y-196585771D02*
X270645058Y-195085771D01*
X270502201Y-195300057D01*
X270359343Y-195442914D01*
X270216486Y-195514343D01*
D10*
D11*
X177002200Y-187507200D02*
X285002200Y-187507200D01*
D10*
D13*
X178454581Y-188211962D02*
X179597438Y-188211962D01*
X178776010Y-190211962D02*
X179026010Y-188211962D01*
X180014105Y-190211962D02*
X180180771Y-188878629D01*
X180264105Y-188211962D02*
X180156962Y-188307200D01*
X180240295Y-188402438D01*
X180347439Y-188307200D01*
X180264105Y-188211962D01*
X180240295Y-188402438D01*
X180847438Y-188878629D02*
X181609343Y-188878629D01*
X181216486Y-188211962D02*
X181002200Y-189926248D01*
X181073630Y-190116724D01*
X181252201Y-190211962D01*
X181442677Y-190211962D01*
X182395058Y-190211962D02*
X182216487Y-190116724D01*
X182145057Y-189926248D01*
X182359343Y-188211962D01*
X183930772Y-190116724D02*
X183728391Y-190211962D01*
X183347439Y-190211962D01*
X183168867Y-190116724D01*
X183097438Y-189926248D01*
X183192676Y-189164343D01*
X183311724Y-188973867D01*
X183514105Y-188878629D01*
X183895057Y-188878629D01*
X184073629Y-188973867D01*
X184145057Y-189164343D01*
X184121248Y-189354819D01*
X183145057Y-189545295D01*
X184895057Y-190021486D02*
X184978392Y-190116724D01*
X184871248Y-190211962D01*
X184787915Y-190116724D01*
X184895057Y-190021486D01*
X184871248Y-190211962D01*
X185026010Y-188973867D02*
X185109344Y-189069105D01*
X185002200Y-189164343D01*
X184918867Y-189069105D01*
X185026010Y-188973867D01*
X185002200Y-189164343D01*
D10*
D11*
X178859343Y-185600057D02*
X178359343Y-185600057D01*
X178359343Y-186385771D02*
X178359343Y-184885771D01*
X179073629Y-184885771D01*
X179645057Y-186385771D02*
X179645057Y-185385771D01*
X179645057Y-184885771D02*
X179573628Y-184957200D01*
X179645057Y-185028629D01*
X179716485Y-184957200D01*
X179645057Y-184885771D01*
X179645057Y-185028629D01*
X180573629Y-186385771D02*
X180430771Y-186314343D01*
X180359343Y-186171486D01*
X180359343Y-184885771D01*
X181716485Y-186314343D02*
X181573628Y-186385771D01*
X181287914Y-186385771D01*
X181145057Y-186314343D01*
X181073628Y-186171486D01*
X181073628Y-185600057D01*
X181145057Y-185457200D01*
X181287914Y-185385771D01*
X181573628Y-185385771D01*
X181716485Y-185457200D01*
X181787914Y-185600057D01*
X181787914Y-185742914D01*
X181073628Y-185885771D01*
X182430771Y-186242914D02*
X182502199Y-186314343D01*
X182430771Y-186385771D01*
X182359342Y-186314343D01*
X182430771Y-186242914D01*
X182430771Y-186385771D01*
X182430771Y-185457200D02*
X182502199Y-185528629D01*
X182430771Y-185600057D01*
X182359342Y-185528629D01*
X182430771Y-185457200D01*
X182430771Y-185600057D01*
X184287914Y-186385771D02*
X184287914Y-185385771D01*
X184287914Y-185528629D02*
X184359342Y-185457200D01*
X184502200Y-185385771D01*
X184716485Y-185385771D01*
X184859342Y-185457200D01*
X184930771Y-185600057D01*
X184930771Y-186385771D01*
X184930771Y-185600057D02*
X185002200Y-185457200D01*
X185145057Y-185385771D01*
X185359342Y-185385771D01*
X185502200Y-185457200D01*
X185573628Y-185600057D01*
X185573628Y-186385771D01*
X186930771Y-186385771D02*
X186930771Y-185600057D01*
X186859342Y-185457200D01*
X186716485Y-185385771D01*
X186430771Y-185385771D01*
X186287914Y-185457200D01*
X186930771Y-186314343D02*
X186787914Y-186385771D01*
X186430771Y-186385771D01*
X186287914Y-186314343D01*
X186216485Y-186171486D01*
X186216485Y-186028629D01*
X186287914Y-185885771D01*
X186430771Y-185814343D01*
X186787914Y-185814343D01*
X186930771Y-185742914D01*
X187645057Y-186385771D02*
X187645057Y-185385771D01*
X187645057Y-184885771D02*
X187573628Y-184957200D01*
X187645057Y-185028629D01*
X187716485Y-184957200D01*
X187645057Y-184885771D01*
X187645057Y-185028629D01*
X188359343Y-185385771D02*
X188359343Y-186385771D01*
X188359343Y-185528629D02*
X188430771Y-185457200D01*
X188573629Y-185385771D01*
X188787914Y-185385771D01*
X188930771Y-185457200D01*
X189002200Y-185600057D01*
X189002200Y-186385771D01*
X189716486Y-186242914D02*
X189787914Y-186314343D01*
X189716486Y-186385771D01*
X189645057Y-186314343D01*
X189716486Y-186242914D01*
X189716486Y-186385771D01*
X190430772Y-186385771D02*
X190430772Y-184885771D01*
X190573629Y-185814343D02*
X191002200Y-186385771D01*
X191002200Y-185385771D02*
X190430772Y-185957200D01*
X191645058Y-186385771D02*
X191645058Y-185385771D01*
X191645058Y-184885771D02*
X191573629Y-184957200D01*
X191645058Y-185028629D01*
X191716486Y-184957200D01*
X191645058Y-184885771D01*
X191645058Y-185028629D01*
X193002201Y-186314343D02*
X192859344Y-186385771D01*
X192573630Y-186385771D01*
X192430772Y-186314343D01*
X192359344Y-186242914D01*
X192287915Y-186100057D01*
X192287915Y-185671486D01*
X192359344Y-185528629D01*
X192430772Y-185457200D01*
X192573630Y-185385771D01*
X192859344Y-185385771D01*
X193002201Y-185457200D01*
X194287915Y-186385771D02*
X194287915Y-185600057D01*
X194216486Y-185457200D01*
X194073629Y-185385771D01*
X193787915Y-185385771D01*
X193645058Y-185457200D01*
X194287915Y-186314343D02*
X194145058Y-186385771D01*
X193787915Y-186385771D01*
X193645058Y-186314343D01*
X193573629Y-186171486D01*
X193573629Y-186028629D01*
X193645058Y-185885771D01*
X193787915Y-185814343D01*
X194145058Y-185814343D01*
X194287915Y-185742914D01*
X195645058Y-186385771D02*
X195645058Y-184885771D01*
X195645058Y-186314343D02*
X195502201Y-186385771D01*
X195216487Y-186385771D01*
X195073629Y-186314343D01*
X195002201Y-186242914D01*
X194930772Y-186100057D01*
X194930772Y-185671486D01*
X195002201Y-185528629D01*
X195073629Y-185457200D01*
X195216487Y-185385771D01*
X195502201Y-185385771D01*
X195645058Y-185457200D01*
X196002201Y-186528629D02*
X197145058Y-186528629D01*
X197502201Y-185385771D02*
X197502201Y-186885771D01*
X197502201Y-185457200D02*
X197645058Y-185385771D01*
X197930772Y-185385771D01*
X198073629Y-185457200D01*
X198145058Y-185528629D01*
X198216487Y-185671486D01*
X198216487Y-186100057D01*
X198145058Y-186242914D01*
X198073629Y-186314343D01*
X197930772Y-186385771D01*
X197645058Y-186385771D01*
X197502201Y-186314343D01*
X199502201Y-186314343D02*
X199359344Y-186385771D01*
X199073630Y-186385771D01*
X198930772Y-186314343D01*
X198859344Y-186242914D01*
X198787915Y-186100057D01*
X198787915Y-185671486D01*
X198859344Y-185528629D01*
X198930772Y-185457200D01*
X199073630Y-185385771D01*
X199359344Y-185385771D01*
X199502201Y-185457200D01*
X200145058Y-186385771D02*
X200145058Y-184885771D01*
X200145058Y-185457200D02*
X200287915Y-185385771D01*
X200573629Y-185385771D01*
X200716486Y-185457200D01*
X200787915Y-185528629D01*
X200859344Y-185671486D01*
X200859344Y-186100057D01*
X200787915Y-186242914D01*
X200716486Y-186314343D01*
X200573629Y-186385771D01*
X200287915Y-186385771D01*
X200145058Y-186314343D01*
D10*
D11*
X177002200Y-181507200D02*
X285002200Y-181507200D01*
D10*
D11*
X178287914Y-183614343D02*
X178502200Y-183685771D01*
X178859343Y-183685771D01*
X179002200Y-183614343D01*
X179073629Y-183542914D01*
X179145057Y-183400057D01*
X179145057Y-183257200D01*
X179073629Y-183114343D01*
X179002200Y-183042914D01*
X178859343Y-182971486D01*
X178573629Y-182900057D01*
X178430771Y-182828629D01*
X178359343Y-182757200D01*
X178287914Y-182614343D01*
X178287914Y-182471486D01*
X178359343Y-182328629D01*
X178430771Y-182257200D01*
X178573629Y-182185771D01*
X178930771Y-182185771D01*
X179145057Y-182257200D01*
X179787914Y-183685771D02*
X179787914Y-182185771D01*
X180430771Y-183685771D02*
X180430771Y-182900057D01*
X180359342Y-182757200D01*
X180216485Y-182685771D01*
X180002200Y-182685771D01*
X179859342Y-182757200D01*
X179787914Y-182828629D01*
X181716485Y-183614343D02*
X181573628Y-183685771D01*
X181287914Y-183685771D01*
X181145057Y-183614343D01*
X181073628Y-183471486D01*
X181073628Y-182900057D01*
X181145057Y-182757200D01*
X181287914Y-182685771D01*
X181573628Y-182685771D01*
X181716485Y-182757200D01*
X181787914Y-182900057D01*
X181787914Y-183042914D01*
X181073628Y-183185771D01*
X183002199Y-183614343D02*
X182859342Y-183685771D01*
X182573628Y-183685771D01*
X182430771Y-183614343D01*
X182359342Y-183471486D01*
X182359342Y-182900057D01*
X182430771Y-182757200D01*
X182573628Y-182685771D01*
X182859342Y-182685771D01*
X183002199Y-182757200D01*
X183073628Y-182900057D01*
X183073628Y-183042914D01*
X182359342Y-183185771D01*
X183502199Y-182685771D02*
X184073628Y-182685771D01*
X183716485Y-182185771D02*
X183716485Y-183471486D01*
X183787913Y-183614343D01*
X183930771Y-183685771D01*
X184073628Y-183685771D01*
X184573628Y-183542914D02*
X184645056Y-183614343D01*
X184573628Y-183685771D01*
X184502199Y-183614343D01*
X184573628Y-183542914D01*
X184573628Y-183685771D01*
X184573628Y-182757200D02*
X184645056Y-182828629D01*
X184573628Y-182900057D01*
X184502199Y-182828629D01*
X184573628Y-182757200D01*
X184573628Y-182900057D01*
D10*
D11*
X197002200Y-191507200D02*
X197002200Y-194507200D01*
D10*
D11*
X261002200Y-191507200D02*
X261002200Y-198007200D01*
D14*
X80460000Y-34000000D03*
X85540000Y-34000000D03*
X85540000Y-54000000D03*
X80460000Y-54000000D03*
D15*
X73500000Y-33460000D03*
X73500000Y-38540000D03*
D14*
X92460000Y-34000000D03*
X97540000Y-34000000D03*
X97540000Y-54000000D03*
X92460000Y-54000000D03*
D16*
X121333000Y-44000000D03*
X124000000Y-46794000D03*
X126540000Y-44000000D03*
X124000000Y-41333000D03*
X125778000Y-42095000D03*
D14*
X85540000Y-38000000D03*
X80460000Y-38000000D03*
X80460000Y-50000000D03*
X85540000Y-50000000D03*
X97540000Y-38000000D03*
X92460000Y-38000000D03*
X92460000Y-50000000D03*
X97540000Y-50000000D03*
D17*
X41500000Y-31500000D03*
D18*
X41500000Y-34040000D03*
X41500000Y-36580000D03*
X41500000Y-39120000D03*
X41500000Y-41660000D03*
X41500000Y-44200000D03*
X41500000Y-46740000D03*
X41500000Y-49280000D03*
X41500000Y-51820000D03*
X41500000Y-54360000D03*
X41500000Y-56900000D03*
D16*
X95540000Y-44000000D03*
X98080000Y-44000000D03*
X93000000Y-44000000D03*
X82540000Y-44000000D03*
X85080000Y-44000000D03*
X80000000Y-44000000D03*
D19*
X60001800Y-31962300D03*
X64765700Y-48000000D03*
X55754900Y-47165800D03*
X56893000Y-31183400D03*
X65810900Y-34995100D03*
X59450000Y-57360700D03*
X49166400Y-31341700D03*
X76221800Y-48000000D03*
X62500000Y-51052200D03*
X60839100Y-41445700D03*
X59723500Y-35443900D03*
X55000000Y-55996400D03*
X56550000Y-57412200D03*
X52886500Y-38734800D03*
X62223100Y-44877400D03*
X51585000Y-48947300D03*
X65433400Y-53808700D03*
X66000000Y-51091600D03*
X75000000Y-44951100D03*
X49189200Y-34635500D03*
X56893000Y-34947900D03*
X45750000Y-39250000D03*
X48000000Y-41500000D03*
X83625200Y-38592500D03*
X71250000Y-47250000D03*
X46789600Y-48381800D03*
X59718500Y-48687200D03*
D20*
G36*
X138315000Y-59315000D02*
X39685000Y-59315000D01*
X39685000Y-34040000D01*
X39816655Y-34040000D01*
X39930729Y-34613489D01*
X40255585Y-35099670D01*
X40570366Y-35310000D01*
X40255585Y-35520330D01*
X39930729Y-36006511D01*
X39816655Y-36580000D01*
X39930729Y-37153489D01*
X40255585Y-37639670D01*
X40570366Y-37850000D01*
X40255585Y-38060330D01*
X39930729Y-38546511D01*
X39816655Y-39120000D01*
X39930729Y-39693489D01*
X40255585Y-40179670D01*
X40570366Y-40390000D01*
X40255585Y-40600330D01*
X39930729Y-41086511D01*
X39816655Y-41660000D01*
X39930729Y-42233489D01*
X40255585Y-42719670D01*
X40570366Y-42930000D01*
X40255585Y-43140330D01*
X39930729Y-43626511D01*
X39816655Y-44200000D01*
X39930729Y-44773489D01*
X40255585Y-45259670D01*
X40570366Y-45470000D01*
X40255585Y-45680330D01*
X39930729Y-46166511D01*
X39816655Y-46740000D01*
X39930729Y-47313489D01*
X40255585Y-47799670D01*
X40570366Y-48010000D01*
X40255585Y-48220330D01*
X39930729Y-48706511D01*
X39816655Y-49280000D01*
X39930729Y-49853489D01*
X40255585Y-50339670D01*
X40570366Y-50550000D01*
X40255585Y-50760330D01*
X39930729Y-51246511D01*
X39816655Y-51820000D01*
X39930729Y-52393489D01*
X40255585Y-52879670D01*
X40570366Y-53090000D01*
X40255585Y-53300330D01*
X39930729Y-53786511D01*
X39816655Y-54360000D01*
X39930729Y-54933489D01*
X40255585Y-55419670D01*
X40570366Y-55630000D01*
X40255585Y-55840330D01*
X39930729Y-56326511D01*
X39816655Y-56900000D01*
X39930729Y-57473489D01*
X40255585Y-57959670D01*
X40741766Y-58284526D01*
X41315255Y-58398600D01*
X41684745Y-58398600D01*
X42258234Y-58284526D01*
X42744415Y-57959670D01*
X43069271Y-57473489D01*
X43183345Y-56900000D01*
X43069271Y-56326511D01*
X42998888Y-56221175D01*
X53864803Y-56221175D01*
X54037233Y-56638486D01*
X54356235Y-56958045D01*
X54773244Y-57131203D01*
X55224775Y-57131597D01*
X55481625Y-57025468D01*
X55415197Y-57185444D01*
X55414803Y-57636975D01*
X55587233Y-58054286D01*
X55906235Y-58373845D01*
X56323244Y-58547003D01*
X56774775Y-58547397D01*
X57192086Y-58374967D01*
X57511645Y-58055965D01*
X57684803Y-57638956D01*
X57684849Y-57585475D01*
X58314803Y-57585475D01*
X58487233Y-58002786D01*
X58806235Y-58322345D01*
X59223244Y-58495503D01*
X59674775Y-58495897D01*
X60092086Y-58323467D01*
X60411645Y-58004465D01*
X60584803Y-57587456D01*
X60585197Y-57135925D01*
X60412767Y-56718614D01*
X60093765Y-56399055D01*
X59676756Y-56225897D01*
X59225225Y-56225503D01*
X58807914Y-56397933D01*
X58488355Y-56716935D01*
X58315197Y-57133944D01*
X58314803Y-57585475D01*
X57684849Y-57585475D01*
X57685197Y-57187425D01*
X57512767Y-56770114D01*
X57193765Y-56450555D01*
X56776756Y-56277397D01*
X56325225Y-56277003D01*
X56068375Y-56383132D01*
X56134803Y-56223156D01*
X56135197Y-55771625D01*
X55962767Y-55354314D01*
X55643765Y-55034755D01*
X55226756Y-54861597D01*
X54775225Y-54861203D01*
X54357914Y-55033633D01*
X54038355Y-55352635D01*
X53865197Y-55769644D01*
X53864803Y-56221175D01*
X42998888Y-56221175D01*
X42744415Y-55840330D01*
X42429634Y-55630000D01*
X42744415Y-55419670D01*
X43069271Y-54933489D01*
X43183345Y-54360000D01*
X43118396Y-54033475D01*
X64298203Y-54033475D01*
X64470633Y-54450786D01*
X64789635Y-54770345D01*
X65206644Y-54943503D01*
X65658175Y-54943897D01*
X66075486Y-54771467D01*
X66395045Y-54452465D01*
X66568203Y-54035456D01*
X66568597Y-53583925D01*
X66519032Y-53463967D01*
X79074430Y-53463967D01*
X79074430Y-54536033D01*
X79179900Y-55066268D01*
X79480254Y-55515779D01*
X79929765Y-55816133D01*
X80460000Y-55921603D01*
X80990235Y-55816133D01*
X81439746Y-55515779D01*
X81740100Y-55066268D01*
X81845570Y-54536033D01*
X81845570Y-53463967D01*
X84154430Y-53463967D01*
X84154430Y-54536033D01*
X84259900Y-55066268D01*
X84560254Y-55515779D01*
X85009765Y-55816133D01*
X85540000Y-55921603D01*
X86070235Y-55816133D01*
X86519746Y-55515779D01*
X86820100Y-55066268D01*
X86925570Y-54536033D01*
X86925570Y-53463967D01*
X91074430Y-53463967D01*
X91074430Y-54536033D01*
X91179900Y-55066268D01*
X91480254Y-55515779D01*
X91929765Y-55816133D01*
X92460000Y-55921603D01*
X92990235Y-55816133D01*
X93439746Y-55515779D01*
X93740100Y-55066268D01*
X93845570Y-54536033D01*
X93845570Y-53463967D01*
X96154430Y-53463967D01*
X96154430Y-54536033D01*
X96259900Y-55066268D01*
X96560254Y-55515779D01*
X97009765Y-55816133D01*
X97540000Y-55921603D01*
X98070235Y-55816133D01*
X98519746Y-55515779D01*
X98820100Y-55066268D01*
X98925570Y-54536033D01*
X98925570Y-53463967D01*
X98820100Y-52933732D01*
X98519746Y-52484221D01*
X98070235Y-52183867D01*
X97540000Y-52078397D01*
X97009765Y-52183867D01*
X96560254Y-52484221D01*
X96259900Y-52933732D01*
X96154430Y-53463967D01*
X93845570Y-53463967D01*
X93740100Y-52933732D01*
X93439746Y-52484221D01*
X92990235Y-52183867D01*
X92460000Y-52078397D01*
X91929765Y-52183867D01*
X91480254Y-52484221D01*
X91179900Y-52933732D01*
X91074430Y-53463967D01*
X86925570Y-53463967D01*
X86820100Y-52933732D01*
X86519746Y-52484221D01*
X86070235Y-52183867D01*
X85540000Y-52078397D01*
X85009765Y-52183867D01*
X84560254Y-52484221D01*
X84259900Y-52933732D01*
X84154430Y-53463967D01*
X81845570Y-53463967D01*
X81740100Y-52933732D01*
X81439746Y-52484221D01*
X80990235Y-52183867D01*
X80460000Y-52078397D01*
X79929765Y-52183867D01*
X79480254Y-52484221D01*
X79179900Y-52933732D01*
X79074430Y-53463967D01*
X66519032Y-53463967D01*
X66396167Y-53166614D01*
X66077165Y-52847055D01*
X65660156Y-52673897D01*
X65208625Y-52673503D01*
X64791314Y-52845933D01*
X64471755Y-53164935D01*
X64298597Y-53581944D01*
X64298203Y-54033475D01*
X43118396Y-54033475D01*
X43069271Y-53786511D01*
X42744415Y-53300330D01*
X42429634Y-53090000D01*
X42744415Y-52879670D01*
X43069271Y-52393489D01*
X43183345Y-51820000D01*
X43075331Y-51276975D01*
X61364803Y-51276975D01*
X61537233Y-51694286D01*
X61856235Y-52013845D01*
X62273244Y-52187003D01*
X62724775Y-52187397D01*
X63142086Y-52014967D01*
X63461645Y-51695965D01*
X63619265Y-51316375D01*
X64864803Y-51316375D01*
X65037233Y-51733686D01*
X65356235Y-52053245D01*
X65773244Y-52226403D01*
X66224775Y-52226797D01*
X66642086Y-52054367D01*
X66961645Y-51735365D01*
X67134803Y-51318356D01*
X67135197Y-50866825D01*
X66962767Y-50449514D01*
X66643765Y-50129955D01*
X66226756Y-49956797D01*
X65775225Y-49956403D01*
X65357914Y-50128833D01*
X65038355Y-50447835D01*
X64865197Y-50864844D01*
X64864803Y-51316375D01*
X63619265Y-51316375D01*
X63634803Y-51278956D01*
X63635197Y-50827425D01*
X63462767Y-50410114D01*
X63143765Y-50090555D01*
X62726756Y-49917397D01*
X62275225Y-49917003D01*
X61857914Y-50089433D01*
X61538355Y-50408435D01*
X61365197Y-50825444D01*
X61364803Y-51276975D01*
X43075331Y-51276975D01*
X43069271Y-51246511D01*
X42744415Y-50760330D01*
X42429634Y-50550000D01*
X42744415Y-50339670D01*
X43069271Y-49853489D01*
X43183345Y-49280000D01*
X43069271Y-48706511D01*
X43002496Y-48606575D01*
X45654403Y-48606575D01*
X45826833Y-49023886D01*
X46145835Y-49343445D01*
X46562844Y-49516603D01*
X47014375Y-49516997D01*
X47431686Y-49344567D01*
X47604479Y-49172075D01*
X50449803Y-49172075D01*
X50622233Y-49589386D01*
X50941235Y-49908945D01*
X51358244Y-50082103D01*
X51809775Y-50082497D01*
X52227086Y-49910067D01*
X52546645Y-49591065D01*
X52719803Y-49174056D01*
X52720031Y-48911975D01*
X58583303Y-48911975D01*
X58755733Y-49329286D01*
X59074735Y-49648845D01*
X59491744Y-49822003D01*
X59943275Y-49822397D01*
X60360586Y-49649967D01*
X60546910Y-49463967D01*
X79074430Y-49463967D01*
X79074430Y-50536033D01*
X79179900Y-51066268D01*
X79480254Y-51515779D01*
X79929765Y-51816133D01*
X80460000Y-51921603D01*
X80990235Y-51816133D01*
X81439746Y-51515779D01*
X81740100Y-51066268D01*
X81845570Y-50536033D01*
X81845570Y-49463967D01*
X84154430Y-49463967D01*
X84154430Y-50536033D01*
X84259900Y-51066268D01*
X84560254Y-51515779D01*
X85009765Y-51816133D01*
X85540000Y-51921603D01*
X86070235Y-51816133D01*
X86519746Y-51515779D01*
X86820100Y-51066268D01*
X86925570Y-50536033D01*
X86925570Y-49463967D01*
X91074430Y-49463967D01*
X91074430Y-50536033D01*
X91179900Y-51066268D01*
X91480254Y-51515779D01*
X91929765Y-51816133D01*
X92460000Y-51921603D01*
X92990235Y-51816133D01*
X93439746Y-51515779D01*
X93740100Y-51066268D01*
X93845570Y-50536033D01*
X93845570Y-49463967D01*
X96154430Y-49463967D01*
X96154430Y-50536033D01*
X96259900Y-51066268D01*
X96560254Y-51515779D01*
X97009765Y-51816133D01*
X97540000Y-51921603D01*
X98070235Y-51816133D01*
X98519746Y-51515779D01*
X98820100Y-51066268D01*
X98925570Y-50536033D01*
X98925570Y-49463967D01*
X98820100Y-48933732D01*
X98519746Y-48484221D01*
X98070235Y-48183867D01*
X97540000Y-48078397D01*
X97009765Y-48183867D01*
X96560254Y-48484221D01*
X96259900Y-48933732D01*
X96154430Y-49463967D01*
X93845570Y-49463967D01*
X93740100Y-48933732D01*
X93439746Y-48484221D01*
X92990235Y-48183867D01*
X92460000Y-48078397D01*
X91929765Y-48183867D01*
X91480254Y-48484221D01*
X91179900Y-48933732D01*
X91074430Y-49463967D01*
X86925570Y-49463967D01*
X86820100Y-48933732D01*
X86519746Y-48484221D01*
X86070235Y-48183867D01*
X85540000Y-48078397D01*
X85009765Y-48183867D01*
X84560254Y-48484221D01*
X84259900Y-48933732D01*
X84154430Y-49463967D01*
X81845570Y-49463967D01*
X81740100Y-48933732D01*
X81439746Y-48484221D01*
X80990235Y-48183867D01*
X80460000Y-48078397D01*
X79929765Y-48183867D01*
X79480254Y-48484221D01*
X79179900Y-48933732D01*
X79074430Y-49463967D01*
X60546910Y-49463967D01*
X60680145Y-49330965D01*
X60853303Y-48913956D01*
X60853697Y-48462425D01*
X60681267Y-48045114D01*
X60362265Y-47725555D01*
X59945256Y-47552397D01*
X59493725Y-47552003D01*
X59076414Y-47724433D01*
X58756855Y-48043435D01*
X58583697Y-48460444D01*
X58583303Y-48911975D01*
X52720031Y-48911975D01*
X52720197Y-48722525D01*
X52547767Y-48305214D01*
X52228765Y-47985655D01*
X51811756Y-47812497D01*
X51360225Y-47812103D01*
X50942914Y-47984533D01*
X50623355Y-48303535D01*
X50450197Y-48720544D01*
X50449803Y-49172075D01*
X47604479Y-49172075D01*
X47751245Y-49025565D01*
X47924403Y-48608556D01*
X47924797Y-48157025D01*
X47752367Y-47739714D01*
X47487890Y-47474775D01*
X70114803Y-47474775D01*
X70287233Y-47892086D01*
X70606235Y-48211645D01*
X71023244Y-48384803D01*
X71474775Y-48385197D01*
X71863024Y-48224775D01*
X75086603Y-48224775D01*
X75259033Y-48642086D01*
X75578035Y-48961645D01*
X75995044Y-49134803D01*
X76446575Y-49135197D01*
X76863886Y-48962767D01*
X77183445Y-48643765D01*
X77356603Y-48226756D01*
X77356997Y-47775225D01*
X77184567Y-47357914D01*
X76897815Y-47070661D01*
X122602758Y-47070661D01*
X122814990Y-47584303D01*
X123207630Y-47977629D01*
X123720900Y-48190757D01*
X124276661Y-48191242D01*
X124790303Y-47979010D01*
X125183629Y-47586370D01*
X125396757Y-47073100D01*
X125397242Y-46517339D01*
X125185010Y-46003697D01*
X124792370Y-45610371D01*
X124279100Y-45397243D01*
X123723339Y-45396758D01*
X123209697Y-45608990D01*
X122816371Y-46001630D01*
X122603243Y-46514900D01*
X122602758Y-47070661D01*
X76897815Y-47070661D01*
X76865565Y-47038355D01*
X76448556Y-46865197D01*
X75997025Y-46864803D01*
X75579714Y-47037233D01*
X75260155Y-47356235D01*
X75086997Y-47773244D01*
X75086603Y-48224775D01*
X71863024Y-48224775D01*
X71892086Y-48212767D01*
X72211645Y-47893765D01*
X72384803Y-47476756D01*
X72385197Y-47025225D01*
X72212767Y-46607914D01*
X71893765Y-46288355D01*
X71476756Y-46115197D01*
X71025225Y-46114803D01*
X70607914Y-46287233D01*
X70288355Y-46606235D01*
X70115197Y-47023244D01*
X70114803Y-47474775D01*
X47487890Y-47474775D01*
X47433365Y-47420155D01*
X47016356Y-47246997D01*
X46564825Y-47246603D01*
X46147514Y-47419033D01*
X45827955Y-47738035D01*
X45654797Y-48155044D01*
X45654403Y-48606575D01*
X43002496Y-48606575D01*
X42744415Y-48220330D01*
X42429634Y-48010000D01*
X42744415Y-47799670D01*
X43069271Y-47313489D01*
X43183345Y-46740000D01*
X43069271Y-46166511D01*
X42744415Y-45680330D01*
X42429634Y-45470000D01*
X42744415Y-45259670D01*
X42849649Y-45102175D01*
X61087903Y-45102175D01*
X61260333Y-45519486D01*
X61579335Y-45839045D01*
X61996344Y-46012203D01*
X62447875Y-46012597D01*
X62865186Y-45840167D01*
X63184745Y-45521165D01*
X63328122Y-45175875D01*
X73864803Y-45175875D01*
X74037233Y-45593186D01*
X74356235Y-45912745D01*
X74773244Y-46085903D01*
X75224775Y-46086297D01*
X75642086Y-45913867D01*
X75961645Y-45594865D01*
X76134803Y-45177856D01*
X76135197Y-44726325D01*
X75962767Y-44309014D01*
X75930471Y-44276661D01*
X78602758Y-44276661D01*
X78814990Y-44790303D01*
X79207630Y-45183629D01*
X79720900Y-45396757D01*
X80276661Y-45397242D01*
X80790303Y-45185010D01*
X81183629Y-44792370D01*
X81269949Y-44584488D01*
X81354990Y-44790303D01*
X81747630Y-45183629D01*
X82260900Y-45396757D01*
X82816661Y-45397242D01*
X83330303Y-45185010D01*
X83723629Y-44792370D01*
X83809949Y-44584488D01*
X83894990Y-44790303D01*
X84287630Y-45183629D01*
X84800900Y-45396757D01*
X85356661Y-45397242D01*
X85870303Y-45185010D01*
X86263629Y-44792370D01*
X86476757Y-44279100D01*
X86476759Y-44276661D01*
X91602758Y-44276661D01*
X91814990Y-44790303D01*
X92207630Y-45183629D01*
X92720900Y-45396757D01*
X93276661Y-45397242D01*
X93790303Y-45185010D01*
X94183629Y-44792370D01*
X94269949Y-44584488D01*
X94354990Y-44790303D01*
X94747630Y-45183629D01*
X95260900Y-45396757D01*
X95816661Y-45397242D01*
X96330303Y-45185010D01*
X96723629Y-44792370D01*
X96809949Y-44584488D01*
X96894990Y-44790303D01*
X97287630Y-45183629D01*
X97800900Y-45396757D01*
X98356661Y-45397242D01*
X98870303Y-45185010D01*
X99263629Y-44792370D01*
X99476757Y-44279100D01*
X99476759Y-44276661D01*
X119935758Y-44276661D01*
X120147990Y-44790303D01*
X120540630Y-45183629D01*
X121053900Y-45396757D01*
X121609661Y-45397242D01*
X122123303Y-45185010D01*
X122516629Y-44792370D01*
X122729757Y-44279100D01*
X122730242Y-43723339D01*
X122518010Y-43209697D01*
X122125370Y-42816371D01*
X121612100Y-42603243D01*
X121056339Y-42602758D01*
X120542697Y-42814990D01*
X120149371Y-43207630D01*
X119936243Y-43720900D01*
X119935758Y-44276661D01*
X99476759Y-44276661D01*
X99477242Y-43723339D01*
X99265010Y-43209697D01*
X98872370Y-42816371D01*
X98359100Y-42603243D01*
X97803339Y-42602758D01*
X97289697Y-42814990D01*
X96896371Y-43207630D01*
X96810051Y-43415512D01*
X96725010Y-43209697D01*
X96332370Y-42816371D01*
X95819100Y-42603243D01*
X95263339Y-42602758D01*
X94749697Y-42814990D01*
X94356371Y-43207630D01*
X94270051Y-43415512D01*
X94185010Y-43209697D01*
X93792370Y-42816371D01*
X93279100Y-42603243D01*
X92723339Y-42602758D01*
X92209697Y-42814990D01*
X91816371Y-43207630D01*
X91603243Y-43720900D01*
X91602758Y-44276661D01*
X86476759Y-44276661D01*
X86477242Y-43723339D01*
X86265010Y-43209697D01*
X85872370Y-42816371D01*
X85359100Y-42603243D01*
X84803339Y-42602758D01*
X84289697Y-42814990D01*
X83896371Y-43207630D01*
X83810051Y-43415512D01*
X83725010Y-43209697D01*
X83332370Y-42816371D01*
X82819100Y-42603243D01*
X82263339Y-42602758D01*
X81749697Y-42814990D01*
X81356371Y-43207630D01*
X81270051Y-43415512D01*
X81185010Y-43209697D01*
X80792370Y-42816371D01*
X80279100Y-42603243D01*
X79723339Y-42602758D01*
X79209697Y-42814990D01*
X78816371Y-43207630D01*
X78603243Y-43720900D01*
X78602758Y-44276661D01*
X75930471Y-44276661D01*
X75643765Y-43989455D01*
X75226756Y-43816297D01*
X74775225Y-43815903D01*
X74357914Y-43988333D01*
X74038355Y-44307335D01*
X73865197Y-44724344D01*
X73864803Y-45175875D01*
X63328122Y-45175875D01*
X63357903Y-45104156D01*
X63358297Y-44652625D01*
X63185867Y-44235314D01*
X62866865Y-43915755D01*
X62449856Y-43742597D01*
X61998325Y-43742203D01*
X61581014Y-43914633D01*
X61261455Y-44233635D01*
X61088297Y-44650644D01*
X61087903Y-45102175D01*
X42849649Y-45102175D01*
X43069271Y-44773489D01*
X43183345Y-44200000D01*
X43069271Y-43626511D01*
X42744415Y-43140330D01*
X42429634Y-42930000D01*
X42744415Y-42719670D01*
X43069271Y-42233489D01*
X43170460Y-41724775D01*
X46864803Y-41724775D01*
X47037233Y-42142086D01*
X47356235Y-42461645D01*
X47773244Y-42634803D01*
X48224775Y-42635197D01*
X48642086Y-42462767D01*
X48961645Y-42143765D01*
X49134803Y-41726756D01*
X49134852Y-41670475D01*
X59703903Y-41670475D01*
X59876333Y-42087786D01*
X60195335Y-42407345D01*
X60612344Y-42580503D01*
X61063875Y-42580897D01*
X61481186Y-42408467D01*
X61800745Y-42089465D01*
X61973903Y-41672456D01*
X61973957Y-41609661D01*
X122602758Y-41609661D01*
X122814990Y-42123303D01*
X123207630Y-42516629D01*
X123720900Y-42729757D01*
X124276661Y-42730242D01*
X124492133Y-42641211D01*
X124592990Y-42885303D01*
X124985630Y-43278629D01*
X125276703Y-43399493D01*
X125143243Y-43720900D01*
X125142758Y-44276661D01*
X125354990Y-44790303D01*
X125747630Y-45183629D01*
X126260900Y-45396757D01*
X126816661Y-45397242D01*
X127330303Y-45185010D01*
X127723629Y-44792370D01*
X127936757Y-44279100D01*
X127937242Y-43723339D01*
X127725010Y-43209697D01*
X127332370Y-42816371D01*
X127041297Y-42695507D01*
X127174757Y-42374100D01*
X127175242Y-41818339D01*
X126963010Y-41304697D01*
X126570370Y-40911371D01*
X126057100Y-40698243D01*
X125501339Y-40697758D01*
X125285867Y-40786789D01*
X125185010Y-40542697D01*
X124792370Y-40149371D01*
X124279100Y-39936243D01*
X123723339Y-39935758D01*
X123209697Y-40147990D01*
X122816371Y-40540630D01*
X122603243Y-41053900D01*
X122602758Y-41609661D01*
X61973957Y-41609661D01*
X61974297Y-41220925D01*
X61801867Y-40803614D01*
X61482865Y-40484055D01*
X61065856Y-40310897D01*
X60614325Y-40310503D01*
X60197014Y-40482933D01*
X59877455Y-40801935D01*
X59704297Y-41218944D01*
X59703903Y-41670475D01*
X49134852Y-41670475D01*
X49135197Y-41275225D01*
X48962767Y-40857914D01*
X48643765Y-40538355D01*
X48226756Y-40365197D01*
X47775225Y-40364803D01*
X47357914Y-40537233D01*
X47038355Y-40856235D01*
X46865197Y-41273244D01*
X46864803Y-41724775D01*
X43170460Y-41724775D01*
X43183345Y-41660000D01*
X43069271Y-41086511D01*
X42744415Y-40600330D01*
X42429634Y-40390000D01*
X42744415Y-40179670D01*
X43069271Y-39693489D01*
X43112775Y-39474775D01*
X44614803Y-39474775D01*
X44787233Y-39892086D01*
X45106235Y-40211645D01*
X45523244Y-40384803D01*
X45974775Y-40385197D01*
X46392086Y-40212767D01*
X46711645Y-39893765D01*
X46884803Y-39476756D01*
X46885197Y-39025225D01*
X46858071Y-38959575D01*
X51751303Y-38959575D01*
X51923733Y-39376886D01*
X52242735Y-39696445D01*
X52659744Y-39869603D01*
X53111275Y-39869997D01*
X53528586Y-39697567D01*
X53848145Y-39378565D01*
X54021303Y-38961556D01*
X54021670Y-38540000D01*
X71578397Y-38540000D01*
X71683867Y-39070235D01*
X71984221Y-39519746D01*
X72433732Y-39820100D01*
X72963967Y-39925570D01*
X74036033Y-39925570D01*
X74566268Y-39820100D01*
X75015779Y-39519746D01*
X75316133Y-39070235D01*
X75421603Y-38540000D01*
X75316133Y-38009765D01*
X75015779Y-37560254D01*
X74871676Y-37463967D01*
X79074430Y-37463967D01*
X79074430Y-38536033D01*
X79179900Y-39066268D01*
X79480254Y-39515779D01*
X79929765Y-39816133D01*
X80460000Y-39921603D01*
X80990235Y-39816133D01*
X81439746Y-39515779D01*
X81740100Y-39066268D01*
X81789627Y-38817275D01*
X82490003Y-38817275D01*
X82662433Y-39234586D01*
X82981435Y-39554145D01*
X83398444Y-39727303D01*
X83849975Y-39727697D01*
X84267286Y-39555267D01*
X84458858Y-39364029D01*
X84560254Y-39515779D01*
X85009765Y-39816133D01*
X85540000Y-39921603D01*
X86070235Y-39816133D01*
X86519746Y-39515779D01*
X86820100Y-39066268D01*
X86925570Y-38536033D01*
X86925570Y-37463967D01*
X91074430Y-37463967D01*
X91074430Y-38536033D01*
X91179900Y-39066268D01*
X91480254Y-39515779D01*
X91929765Y-39816133D01*
X92460000Y-39921603D01*
X92990235Y-39816133D01*
X93439746Y-39515779D01*
X93740100Y-39066268D01*
X93845570Y-38536033D01*
X93845570Y-37463967D01*
X96154430Y-37463967D01*
X96154430Y-38536033D01*
X96259900Y-39066268D01*
X96560254Y-39515779D01*
X97009765Y-39816133D01*
X97540000Y-39921603D01*
X98070235Y-39816133D01*
X98519746Y-39515779D01*
X98820100Y-39066268D01*
X98925570Y-38536033D01*
X98925570Y-37463967D01*
X98820100Y-36933732D01*
X98519746Y-36484221D01*
X98070235Y-36183867D01*
X97540000Y-36078397D01*
X97009765Y-36183867D01*
X96560254Y-36484221D01*
X96259900Y-36933732D01*
X96154430Y-37463967D01*
X93845570Y-37463967D01*
X93740100Y-36933732D01*
X93439746Y-36484221D01*
X92990235Y-36183867D01*
X92460000Y-36078397D01*
X91929765Y-36183867D01*
X91480254Y-36484221D01*
X91179900Y-36933732D01*
X91074430Y-37463967D01*
X86925570Y-37463967D01*
X86820100Y-36933732D01*
X86519746Y-36484221D01*
X86070235Y-36183867D01*
X85540000Y-36078397D01*
X85009765Y-36183867D01*
X84560254Y-36484221D01*
X84259900Y-36933732D01*
X84154430Y-37463967D01*
X84154430Y-37583296D01*
X83851956Y-37457697D01*
X83400425Y-37457303D01*
X82983114Y-37629733D01*
X82663555Y-37948735D01*
X82490397Y-38365744D01*
X82490003Y-38817275D01*
X81789627Y-38817275D01*
X81845570Y-38536033D01*
X81845570Y-37463967D01*
X81740100Y-36933732D01*
X81439746Y-36484221D01*
X80990235Y-36183867D01*
X80460000Y-36078397D01*
X79929765Y-36183867D01*
X79480254Y-36484221D01*
X79179900Y-36933732D01*
X79074430Y-37463967D01*
X74871676Y-37463967D01*
X74566268Y-37259900D01*
X74036033Y-37154430D01*
X72963967Y-37154430D01*
X72433732Y-37259900D01*
X71984221Y-37560254D01*
X71683867Y-38009765D01*
X71578397Y-38540000D01*
X54021670Y-38540000D01*
X54021697Y-38510025D01*
X53849267Y-38092714D01*
X53530265Y-37773155D01*
X53113256Y-37599997D01*
X52661725Y-37599603D01*
X52244414Y-37772033D01*
X51924855Y-38091035D01*
X51751697Y-38508044D01*
X51751303Y-38959575D01*
X46858071Y-38959575D01*
X46712767Y-38607914D01*
X46393765Y-38288355D01*
X45976756Y-38115197D01*
X45525225Y-38114803D01*
X45107914Y-38287233D01*
X44788355Y-38606235D01*
X44615197Y-39023244D01*
X44614803Y-39474775D01*
X43112775Y-39474775D01*
X43183345Y-39120000D01*
X43069271Y-38546511D01*
X42744415Y-38060330D01*
X42429634Y-37850000D01*
X42744415Y-37639670D01*
X43069271Y-37153489D01*
X43183345Y-36580000D01*
X43069271Y-36006511D01*
X42744415Y-35520330D01*
X42429634Y-35310000D01*
X42744415Y-35099670D01*
X42904373Y-34860275D01*
X48054003Y-34860275D01*
X48226433Y-35277586D01*
X48545435Y-35597145D01*
X48962444Y-35770303D01*
X49413975Y-35770697D01*
X49831286Y-35598267D01*
X50150845Y-35279265D01*
X50195105Y-35172675D01*
X55757803Y-35172675D01*
X55930233Y-35589986D01*
X56249235Y-35909545D01*
X56666244Y-36082703D01*
X57117775Y-36083097D01*
X57535086Y-35910667D01*
X57777500Y-35668675D01*
X58588303Y-35668675D01*
X58760733Y-36085986D01*
X59079735Y-36405545D01*
X59496744Y-36578703D01*
X59948275Y-36579097D01*
X60365586Y-36406667D01*
X60685145Y-36087665D01*
X60858303Y-35670656D01*
X60858697Y-35219125D01*
X60686267Y-34801814D01*
X60367265Y-34482255D01*
X59950256Y-34309097D01*
X59498725Y-34308703D01*
X59081414Y-34481133D01*
X58761855Y-34800135D01*
X58588697Y-35217144D01*
X58588303Y-35668675D01*
X57777500Y-35668675D01*
X57854645Y-35591665D01*
X58027803Y-35174656D01*
X58028197Y-34723125D01*
X57855767Y-34305814D01*
X57536765Y-33986255D01*
X57119756Y-33813097D01*
X56668225Y-33812703D01*
X56250914Y-33985133D01*
X55931355Y-34304135D01*
X55758197Y-34721144D01*
X55757803Y-35172675D01*
X50195105Y-35172675D01*
X50324003Y-34862256D01*
X50324397Y-34410725D01*
X50151967Y-33993414D01*
X49832965Y-33673855D01*
X49415956Y-33500697D01*
X48964425Y-33500303D01*
X48547114Y-33672733D01*
X48227555Y-33991735D01*
X48054397Y-34408744D01*
X48054003Y-34860275D01*
X42904373Y-34860275D01*
X43069271Y-34613489D01*
X43183345Y-34040000D01*
X43069271Y-33466511D01*
X43064921Y-33460000D01*
X71578397Y-33460000D01*
X71683867Y-33990235D01*
X71984221Y-34439746D01*
X72433732Y-34740100D01*
X72963967Y-34845570D01*
X74036033Y-34845570D01*
X74566268Y-34740100D01*
X75015779Y-34439746D01*
X75316133Y-33990235D01*
X75420813Y-33463967D01*
X79074430Y-33463967D01*
X79074430Y-34536033D01*
X79179900Y-35066268D01*
X79480254Y-35515779D01*
X79929765Y-35816133D01*
X80460000Y-35921603D01*
X80990235Y-35816133D01*
X81439746Y-35515779D01*
X81740100Y-35066268D01*
X81845570Y-34536033D01*
X81845570Y-33463967D01*
X84154430Y-33463967D01*
X84154430Y-34536033D01*
X84259900Y-35066268D01*
X84560254Y-35515779D01*
X85009765Y-35816133D01*
X85540000Y-35921603D01*
X86070235Y-35816133D01*
X86519746Y-35515779D01*
X86820100Y-35066268D01*
X86925570Y-34536033D01*
X86925570Y-33463967D01*
X91074430Y-33463967D01*
X91074430Y-34536033D01*
X91179900Y-35066268D01*
X91480254Y-35515779D01*
X91929765Y-35816133D01*
X92460000Y-35921603D01*
X92990235Y-35816133D01*
X93439746Y-35515779D01*
X93740100Y-35066268D01*
X93845570Y-34536033D01*
X93845570Y-33463967D01*
X96154430Y-33463967D01*
X96154430Y-34536033D01*
X96259900Y-35066268D01*
X96560254Y-35515779D01*
X97009765Y-35816133D01*
X97540000Y-35921603D01*
X98070235Y-35816133D01*
X98519746Y-35515779D01*
X98820100Y-35066268D01*
X98925570Y-34536033D01*
X98925570Y-33463967D01*
X98820100Y-32933732D01*
X98519746Y-32484221D01*
X98070235Y-32183867D01*
X97540000Y-32078397D01*
X97009765Y-32183867D01*
X96560254Y-32484221D01*
X96259900Y-32933732D01*
X96154430Y-33463967D01*
X93845570Y-33463967D01*
X93740100Y-32933732D01*
X93439746Y-32484221D01*
X92990235Y-32183867D01*
X92460000Y-32078397D01*
X91929765Y-32183867D01*
X91480254Y-32484221D01*
X91179900Y-32933732D01*
X91074430Y-33463967D01*
X86925570Y-33463967D01*
X86820100Y-32933732D01*
X86519746Y-32484221D01*
X86070235Y-32183867D01*
X85540000Y-32078397D01*
X85009765Y-32183867D01*
X84560254Y-32484221D01*
X84259900Y-32933732D01*
X84154430Y-33463967D01*
X81845570Y-33463967D01*
X81740100Y-32933732D01*
X81439746Y-32484221D01*
X80990235Y-32183867D01*
X80460000Y-32078397D01*
X79929765Y-32183867D01*
X79480254Y-32484221D01*
X79179900Y-32933732D01*
X79074430Y-33463967D01*
X75420813Y-33463967D01*
X75421603Y-33460000D01*
X75316133Y-32929765D01*
X75015779Y-32480254D01*
X74566268Y-32179900D01*
X74036033Y-32074430D01*
X72963967Y-32074430D01*
X72433732Y-32179900D01*
X71984221Y-32480254D01*
X71683867Y-32929765D01*
X71578397Y-33460000D01*
X43064921Y-33460000D01*
X42744415Y-32980330D01*
X42722220Y-32965500D01*
X42875698Y-32901927D01*
X43054327Y-32723299D01*
X43151000Y-32489910D01*
X43151000Y-31785750D01*
X42992250Y-31627000D01*
X41627000Y-31627000D01*
X41627000Y-31647000D01*
X41373000Y-31647000D01*
X41373000Y-31627000D01*
X40007750Y-31627000D01*
X39849000Y-31785750D01*
X39849000Y-32489910D01*
X39945673Y-32723299D01*
X40124302Y-32901927D01*
X40277780Y-32965500D01*
X40255585Y-32980330D01*
X39930729Y-33466511D01*
X39816655Y-34040000D01*
X39685000Y-34040000D01*
X39685000Y-31566475D01*
X48031203Y-31566475D01*
X48203633Y-31983786D01*
X48522635Y-32303345D01*
X48939644Y-32476503D01*
X49391175Y-32476897D01*
X49808486Y-32304467D01*
X50128045Y-31985465D01*
X50301203Y-31568456D01*
X50301597Y-31116925D01*
X50129167Y-30699614D01*
X49810165Y-30380055D01*
X49393156Y-30206897D01*
X48941625Y-30206503D01*
X48524314Y-30378933D01*
X48204755Y-30697935D01*
X48031597Y-31114944D01*
X48031203Y-31566475D01*
X39685000Y-31566475D01*
X39685000Y-30510090D01*
X39849000Y-30510090D01*
X39849000Y-31214250D01*
X40007750Y-31373000D01*
X41373000Y-31373000D01*
X41373000Y-30160150D01*
X41627000Y-30160150D01*
X41627000Y-31373000D01*
X42992250Y-31373000D01*
X43151000Y-31214250D01*
X43151000Y-30510090D01*
X43054327Y-30276701D01*
X42875698Y-30098073D01*
X42642309Y-30001400D01*
X41785750Y-30001400D01*
X41627000Y-30160150D01*
X41373000Y-30160150D01*
X41214250Y-30001400D01*
X40357691Y-30001400D01*
X40124302Y-30098073D01*
X39945673Y-30276701D01*
X39849000Y-30510090D01*
X39685000Y-30510090D01*
X39685000Y-29685000D01*
X138315000Y-29685000D01*
X138315000Y-59315000D01*
X138315000Y-59315000D01*
G37*
X138315000Y-59315000D02*
X39685000Y-59315000D01*
X39685000Y-34040000D01*
X39816655Y-34040000D01*
X39930729Y-34613489D01*
X40255585Y-35099670D01*
X40570366Y-35310000D01*
X40255585Y-35520330D01*
X39930729Y-36006511D01*
X39816655Y-36580000D01*
X39930729Y-37153489D01*
X40255585Y-37639670D01*
X40570366Y-37850000D01*
X40255585Y-38060330D01*
X39930729Y-38546511D01*
X39816655Y-39120000D01*
X39930729Y-39693489D01*
X40255585Y-40179670D01*
X40570366Y-40390000D01*
X40255585Y-40600330D01*
X39930729Y-41086511D01*
X39816655Y-41660000D01*
X39930729Y-42233489D01*
X40255585Y-42719670D01*
X40570366Y-42930000D01*
X40255585Y-43140330D01*
X39930729Y-43626511D01*
X39816655Y-44200000D01*
X39930729Y-44773489D01*
X40255585Y-45259670D01*
X40570366Y-45470000D01*
X40255585Y-45680330D01*
X39930729Y-46166511D01*
X39816655Y-46740000D01*
X39930729Y-47313489D01*
X40255585Y-47799670D01*
X40570366Y-48010000D01*
X40255585Y-48220330D01*
X39930729Y-48706511D01*
X39816655Y-49280000D01*
X39930729Y-49853489D01*
X40255585Y-50339670D01*
X40570366Y-50550000D01*
X40255585Y-50760330D01*
X39930729Y-51246511D01*
X39816655Y-51820000D01*
X39930729Y-52393489D01*
X40255585Y-52879670D01*
X40570366Y-53090000D01*
X40255585Y-53300330D01*
X39930729Y-53786511D01*
X39816655Y-54360000D01*
X39930729Y-54933489D01*
X40255585Y-55419670D01*
X40570366Y-55630000D01*
X40255585Y-55840330D01*
X39930729Y-56326511D01*
X39816655Y-56900000D01*
X39930729Y-57473489D01*
X40255585Y-57959670D01*
X40741766Y-58284526D01*
X41315255Y-58398600D01*
X41684745Y-58398600D01*
X42258234Y-58284526D01*
X42744415Y-57959670D01*
X43069271Y-57473489D01*
X43183345Y-56900000D01*
X43069271Y-56326511D01*
X42998888Y-56221175D01*
X53864803Y-56221175D01*
X54037233Y-56638486D01*
X54356235Y-56958045D01*
X54773244Y-57131203D01*
X55224775Y-57131597D01*
X55481625Y-57025468D01*
X55415197Y-57185444D01*
X55414803Y-57636975D01*
X55587233Y-58054286D01*
X55906235Y-58373845D01*
X56323244Y-58547003D01*
X56774775Y-58547397D01*
X57192086Y-58374967D01*
X57511645Y-58055965D01*
X57684803Y-57638956D01*
X57684849Y-57585475D01*
X58314803Y-57585475D01*
X58487233Y-58002786D01*
X58806235Y-58322345D01*
X59223244Y-58495503D01*
X59674775Y-58495897D01*
X60092086Y-58323467D01*
X60411645Y-58004465D01*
X60584803Y-57587456D01*
X60585197Y-57135925D01*
X60412767Y-56718614D01*
X60093765Y-56399055D01*
X59676756Y-56225897D01*
X59225225Y-56225503D01*
X58807914Y-56397933D01*
X58488355Y-56716935D01*
X58315197Y-57133944D01*
X58314803Y-57585475D01*
X57684849Y-57585475D01*
X57685197Y-57187425D01*
X57512767Y-56770114D01*
X57193765Y-56450555D01*
X56776756Y-56277397D01*
X56325225Y-56277003D01*
X56068375Y-56383132D01*
X56134803Y-56223156D01*
X56135197Y-55771625D01*
X55962767Y-55354314D01*
X55643765Y-55034755D01*
X55226756Y-54861597D01*
X54775225Y-54861203D01*
X54357914Y-55033633D01*
X54038355Y-55352635D01*
X53865197Y-55769644D01*
X53864803Y-56221175D01*
X42998888Y-56221175D01*
X42744415Y-55840330D01*
X42429634Y-55630000D01*
X42744415Y-55419670D01*
X43069271Y-54933489D01*
X43183345Y-54360000D01*
X43118396Y-54033475D01*
X64298203Y-54033475D01*
X64470633Y-54450786D01*
X64789635Y-54770345D01*
X65206644Y-54943503D01*
X65658175Y-54943897D01*
X66075486Y-54771467D01*
X66395045Y-54452465D01*
X66568203Y-54035456D01*
X66568597Y-53583925D01*
X66519032Y-53463967D01*
X79074430Y-53463967D01*
X79074430Y-54536033D01*
X79179900Y-55066268D01*
X79480254Y-55515779D01*
X79929765Y-55816133D01*
X80460000Y-55921603D01*
X80990235Y-55816133D01*
X81439746Y-55515779D01*
X81740100Y-55066268D01*
X81845570Y-54536033D01*
X81845570Y-53463967D01*
X84154430Y-53463967D01*
X84154430Y-54536033D01*
X84259900Y-55066268D01*
X84560254Y-55515779D01*
X85009765Y-55816133D01*
X85540000Y-55921603D01*
X86070235Y-55816133D01*
X86519746Y-55515779D01*
X86820100Y-55066268D01*
X86925570Y-54536033D01*
X86925570Y-53463967D01*
X91074430Y-53463967D01*
X91074430Y-54536033D01*
X91179900Y-55066268D01*
X91480254Y-55515779D01*
X91929765Y-55816133D01*
X92460000Y-55921603D01*
X92990235Y-55816133D01*
X93439746Y-55515779D01*
X93740100Y-55066268D01*
X93845570Y-54536033D01*
X93845570Y-53463967D01*
X96154430Y-53463967D01*
X96154430Y-54536033D01*
X96259900Y-55066268D01*
X96560254Y-55515779D01*
X97009765Y-55816133D01*
X97540000Y-55921603D01*
X98070235Y-55816133D01*
X98519746Y-55515779D01*
X98820100Y-55066268D01*
X98925570Y-54536033D01*
X98925570Y-53463967D01*
X98820100Y-52933732D01*
X98519746Y-52484221D01*
X98070235Y-52183867D01*
X97540000Y-52078397D01*
X97009765Y-52183867D01*
X96560254Y-52484221D01*
X96259900Y-52933732D01*
X96154430Y-53463967D01*
X93845570Y-53463967D01*
X93740100Y-52933732D01*
X93439746Y-52484221D01*
X92990235Y-52183867D01*
X92460000Y-52078397D01*
X91929765Y-52183867D01*
X91480254Y-52484221D01*
X91179900Y-52933732D01*
X91074430Y-53463967D01*
X86925570Y-53463967D01*
X86820100Y-52933732D01*
X86519746Y-52484221D01*
X86070235Y-52183867D01*
X85540000Y-52078397D01*
X85009765Y-52183867D01*
X84560254Y-52484221D01*
X84259900Y-52933732D01*
X84154430Y-53463967D01*
X81845570Y-53463967D01*
X81740100Y-52933732D01*
X81439746Y-52484221D01*
X80990235Y-52183867D01*
X80460000Y-52078397D01*
X79929765Y-52183867D01*
X79480254Y-52484221D01*
X79179900Y-52933732D01*
X79074430Y-53463967D01*
X66519032Y-53463967D01*
X66396167Y-53166614D01*
X66077165Y-52847055D01*
X65660156Y-52673897D01*
X65208625Y-52673503D01*
X64791314Y-52845933D01*
X64471755Y-53164935D01*
X64298597Y-53581944D01*
X64298203Y-54033475D01*
X43118396Y-54033475D01*
X43069271Y-53786511D01*
X42744415Y-53300330D01*
X42429634Y-53090000D01*
X42744415Y-52879670D01*
X43069271Y-52393489D01*
X43183345Y-51820000D01*
X43075331Y-51276975D01*
X61364803Y-51276975D01*
X61537233Y-51694286D01*
X61856235Y-52013845D01*
X62273244Y-52187003D01*
X62724775Y-52187397D01*
X63142086Y-52014967D01*
X63461645Y-51695965D01*
X63619265Y-51316375D01*
X64864803Y-51316375D01*
X65037233Y-51733686D01*
X65356235Y-52053245D01*
X65773244Y-52226403D01*
X66224775Y-52226797D01*
X66642086Y-52054367D01*
X66961645Y-51735365D01*
X67134803Y-51318356D01*
X67135197Y-50866825D01*
X66962767Y-50449514D01*
X66643765Y-50129955D01*
X66226756Y-49956797D01*
X65775225Y-49956403D01*
X65357914Y-50128833D01*
X65038355Y-50447835D01*
X64865197Y-50864844D01*
X64864803Y-51316375D01*
X63619265Y-51316375D01*
X63634803Y-51278956D01*
X63635197Y-50827425D01*
X63462767Y-50410114D01*
X63143765Y-50090555D01*
X62726756Y-49917397D01*
X62275225Y-49917003D01*
X61857914Y-50089433D01*
X61538355Y-50408435D01*
X61365197Y-50825444D01*
X61364803Y-51276975D01*
X43075331Y-51276975D01*
X43069271Y-51246511D01*
X42744415Y-50760330D01*
X42429634Y-50550000D01*
X42744415Y-50339670D01*
X43069271Y-49853489D01*
X43183345Y-49280000D01*
X43069271Y-48706511D01*
X43002496Y-48606575D01*
X45654403Y-48606575D01*
X45826833Y-49023886D01*
X46145835Y-49343445D01*
X46562844Y-49516603D01*
X47014375Y-49516997D01*
X47431686Y-49344567D01*
X47604479Y-49172075D01*
X50449803Y-49172075D01*
X50622233Y-49589386D01*
X50941235Y-49908945D01*
X51358244Y-50082103D01*
X51809775Y-50082497D01*
X52227086Y-49910067D01*
X52546645Y-49591065D01*
X52719803Y-49174056D01*
X52720031Y-48911975D01*
X58583303Y-48911975D01*
X58755733Y-49329286D01*
X59074735Y-49648845D01*
X59491744Y-49822003D01*
X59943275Y-49822397D01*
X60360586Y-49649967D01*
X60546910Y-49463967D01*
X79074430Y-49463967D01*
X79074430Y-50536033D01*
X79179900Y-51066268D01*
X79480254Y-51515779D01*
X79929765Y-51816133D01*
X80460000Y-51921603D01*
X80990235Y-51816133D01*
X81439746Y-51515779D01*
X81740100Y-51066268D01*
X81845570Y-50536033D01*
X81845570Y-49463967D01*
X84154430Y-49463967D01*
X84154430Y-50536033D01*
X84259900Y-51066268D01*
X84560254Y-51515779D01*
X85009765Y-51816133D01*
X85540000Y-51921603D01*
X86070235Y-51816133D01*
X86519746Y-51515779D01*
X86820100Y-51066268D01*
X86925570Y-50536033D01*
X86925570Y-49463967D01*
X91074430Y-49463967D01*
X91074430Y-50536033D01*
X91179900Y-51066268D01*
X91480254Y-51515779D01*
X91929765Y-51816133D01*
X92460000Y-51921603D01*
X92990235Y-51816133D01*
X93439746Y-51515779D01*
X93740100Y-51066268D01*
X93845570Y-50536033D01*
X93845570Y-49463967D01*
X96154430Y-49463967D01*
X96154430Y-50536033D01*
X96259900Y-51066268D01*
X96560254Y-51515779D01*
X97009765Y-51816133D01*
X97540000Y-51921603D01*
X98070235Y-51816133D01*
X98519746Y-51515779D01*
X98820100Y-51066268D01*
X98925570Y-50536033D01*
X98925570Y-49463967D01*
X98820100Y-48933732D01*
X98519746Y-48484221D01*
X98070235Y-48183867D01*
X97540000Y-48078397D01*
X97009765Y-48183867D01*
X96560254Y-48484221D01*
X96259900Y-48933732D01*
X96154430Y-49463967D01*
X93845570Y-49463967D01*
X93740100Y-48933732D01*
X93439746Y-48484221D01*
X92990235Y-48183867D01*
X92460000Y-48078397D01*
X91929765Y-48183867D01*
X91480254Y-48484221D01*
X91179900Y-48933732D01*
X91074430Y-49463967D01*
X86925570Y-49463967D01*
X86820100Y-48933732D01*
X86519746Y-48484221D01*
X86070235Y-48183867D01*
X85540000Y-48078397D01*
X85009765Y-48183867D01*
X84560254Y-48484221D01*
X84259900Y-48933732D01*
X84154430Y-49463967D01*
X81845570Y-49463967D01*
X81740100Y-48933732D01*
X81439746Y-48484221D01*
X80990235Y-48183867D01*
X80460000Y-48078397D01*
X79929765Y-48183867D01*
X79480254Y-48484221D01*
X79179900Y-48933732D01*
X79074430Y-49463967D01*
X60546910Y-49463967D01*
X60680145Y-49330965D01*
X60853303Y-48913956D01*
X60853697Y-48462425D01*
X60681267Y-48045114D01*
X60362265Y-47725555D01*
X59945256Y-47552397D01*
X59493725Y-47552003D01*
X59076414Y-47724433D01*
X58756855Y-48043435D01*
X58583697Y-48460444D01*
X58583303Y-48911975D01*
X52720031Y-48911975D01*
X52720197Y-48722525D01*
X52547767Y-48305214D01*
X52228765Y-47985655D01*
X51811756Y-47812497D01*
X51360225Y-47812103D01*
X50942914Y-47984533D01*
X50623355Y-48303535D01*
X50450197Y-48720544D01*
X50449803Y-49172075D01*
X47604479Y-49172075D01*
X47751245Y-49025565D01*
X47924403Y-48608556D01*
X47924797Y-48157025D01*
X47752367Y-47739714D01*
X47487890Y-47474775D01*
X70114803Y-47474775D01*
X70287233Y-47892086D01*
X70606235Y-48211645D01*
X71023244Y-48384803D01*
X71474775Y-48385197D01*
X71863024Y-48224775D01*
X75086603Y-48224775D01*
X75259033Y-48642086D01*
X75578035Y-48961645D01*
X75995044Y-49134803D01*
X76446575Y-49135197D01*
X76863886Y-48962767D01*
X77183445Y-48643765D01*
X77356603Y-48226756D01*
X77356997Y-47775225D01*
X77184567Y-47357914D01*
X76897815Y-47070661D01*
X122602758Y-47070661D01*
X122814990Y-47584303D01*
X123207630Y-47977629D01*
X123720900Y-48190757D01*
X124276661Y-48191242D01*
X124790303Y-47979010D01*
X125183629Y-47586370D01*
X125396757Y-47073100D01*
X125397242Y-46517339D01*
X125185010Y-46003697D01*
X124792370Y-45610371D01*
X124279100Y-45397243D01*
X123723339Y-45396758D01*
X123209697Y-45608990D01*
X122816371Y-46001630D01*
X122603243Y-46514900D01*
X122602758Y-47070661D01*
X76897815Y-47070661D01*
X76865565Y-47038355D01*
X76448556Y-46865197D01*
X75997025Y-46864803D01*
X75579714Y-47037233D01*
X75260155Y-47356235D01*
X75086997Y-47773244D01*
X75086603Y-48224775D01*
X71863024Y-48224775D01*
X71892086Y-48212767D01*
X72211645Y-47893765D01*
X72384803Y-47476756D01*
X72385197Y-47025225D01*
X72212767Y-46607914D01*
X71893765Y-46288355D01*
X71476756Y-46115197D01*
X71025225Y-46114803D01*
X70607914Y-46287233D01*
X70288355Y-46606235D01*
X70115197Y-47023244D01*
X70114803Y-47474775D01*
X47487890Y-47474775D01*
X47433365Y-47420155D01*
X47016356Y-47246997D01*
X46564825Y-47246603D01*
X46147514Y-47419033D01*
X45827955Y-47738035D01*
X45654797Y-48155044D01*
X45654403Y-48606575D01*
X43002496Y-48606575D01*
X42744415Y-48220330D01*
X42429634Y-48010000D01*
X42744415Y-47799670D01*
X43069271Y-47313489D01*
X43183345Y-46740000D01*
X43069271Y-46166511D01*
X42744415Y-45680330D01*
X42429634Y-45470000D01*
X42744415Y-45259670D01*
X42849649Y-45102175D01*
X61087903Y-45102175D01*
X61260333Y-45519486D01*
X61579335Y-45839045D01*
X61996344Y-46012203D01*
X62447875Y-46012597D01*
X62865186Y-45840167D01*
X63184745Y-45521165D01*
X63328122Y-45175875D01*
X73864803Y-45175875D01*
X74037233Y-45593186D01*
X74356235Y-45912745D01*
X74773244Y-46085903D01*
X75224775Y-46086297D01*
X75642086Y-45913867D01*
X75961645Y-45594865D01*
X76134803Y-45177856D01*
X76135197Y-44726325D01*
X75962767Y-44309014D01*
X75930471Y-44276661D01*
X78602758Y-44276661D01*
X78814990Y-44790303D01*
X79207630Y-45183629D01*
X79720900Y-45396757D01*
X80276661Y-45397242D01*
X80790303Y-45185010D01*
X81183629Y-44792370D01*
X81269949Y-44584488D01*
X81354990Y-44790303D01*
X81747630Y-45183629D01*
X82260900Y-45396757D01*
X82816661Y-45397242D01*
X83330303Y-45185010D01*
X83723629Y-44792370D01*
X83809949Y-44584488D01*
X83894990Y-44790303D01*
X84287630Y-45183629D01*
X84800900Y-45396757D01*
X85356661Y-45397242D01*
X85870303Y-45185010D01*
X86263629Y-44792370D01*
X86476757Y-44279100D01*
X86476759Y-44276661D01*
X91602758Y-44276661D01*
X91814990Y-44790303D01*
X92207630Y-45183629D01*
X92720900Y-45396757D01*
X93276661Y-45397242D01*
X93790303Y-45185010D01*
X94183629Y-44792370D01*
X94269949Y-44584488D01*
X94354990Y-44790303D01*
X94747630Y-45183629D01*
X95260900Y-45396757D01*
X95816661Y-45397242D01*
X96330303Y-45185010D01*
X96723629Y-44792370D01*
X96809949Y-44584488D01*
X96894990Y-44790303D01*
X97287630Y-45183629D01*
X97800900Y-45396757D01*
X98356661Y-45397242D01*
X98870303Y-45185010D01*
X99263629Y-44792370D01*
X99476757Y-44279100D01*
X99476759Y-44276661D01*
X119935758Y-44276661D01*
X120147990Y-44790303D01*
X120540630Y-45183629D01*
X121053900Y-45396757D01*
X121609661Y-45397242D01*
X122123303Y-45185010D01*
X122516629Y-44792370D01*
X122729757Y-44279100D01*
X122730242Y-43723339D01*
X122518010Y-43209697D01*
X122125370Y-42816371D01*
X121612100Y-42603243D01*
X121056339Y-42602758D01*
X120542697Y-42814990D01*
X120149371Y-43207630D01*
X119936243Y-43720900D01*
X119935758Y-44276661D01*
X99476759Y-44276661D01*
X99477242Y-43723339D01*
X99265010Y-43209697D01*
X98872370Y-42816371D01*
X98359100Y-42603243D01*
X97803339Y-42602758D01*
X97289697Y-42814990D01*
X96896371Y-43207630D01*
X96810051Y-43415512D01*
X96725010Y-43209697D01*
X96332370Y-42816371D01*
X95819100Y-42603243D01*
X95263339Y-42602758D01*
X94749697Y-42814990D01*
X94356371Y-43207630D01*
X94270051Y-43415512D01*
X94185010Y-43209697D01*
X93792370Y-42816371D01*
X93279100Y-42603243D01*
X92723339Y-42602758D01*
X92209697Y-42814990D01*
X91816371Y-43207630D01*
X91603243Y-43720900D01*
X91602758Y-44276661D01*
X86476759Y-44276661D01*
X86477242Y-43723339D01*
X86265010Y-43209697D01*
X85872370Y-42816371D01*
X85359100Y-42603243D01*
X84803339Y-42602758D01*
X84289697Y-42814990D01*
X83896371Y-43207630D01*
X83810051Y-43415512D01*
X83725010Y-43209697D01*
X83332370Y-42816371D01*
X82819100Y-42603243D01*
X82263339Y-42602758D01*
X81749697Y-42814990D01*
X81356371Y-43207630D01*
X81270051Y-43415512D01*
X81185010Y-43209697D01*
X80792370Y-42816371D01*
X80279100Y-42603243D01*
X79723339Y-42602758D01*
X79209697Y-42814990D01*
X78816371Y-43207630D01*
X78603243Y-43720900D01*
X78602758Y-44276661D01*
X75930471Y-44276661D01*
X75643765Y-43989455D01*
X75226756Y-43816297D01*
X74775225Y-43815903D01*
X74357914Y-43988333D01*
X74038355Y-44307335D01*
X73865197Y-44724344D01*
X73864803Y-45175875D01*
X63328122Y-45175875D01*
X63357903Y-45104156D01*
X63358297Y-44652625D01*
X63185867Y-44235314D01*
X62866865Y-43915755D01*
X62449856Y-43742597D01*
X61998325Y-43742203D01*
X61581014Y-43914633D01*
X61261455Y-44233635D01*
X61088297Y-44650644D01*
X61087903Y-45102175D01*
X42849649Y-45102175D01*
X43069271Y-44773489D01*
X43183345Y-44200000D01*
X43069271Y-43626511D01*
X42744415Y-43140330D01*
X42429634Y-42930000D01*
X42744415Y-42719670D01*
X43069271Y-42233489D01*
X43170460Y-41724775D01*
X46864803Y-41724775D01*
X47037233Y-42142086D01*
X47356235Y-42461645D01*
X47773244Y-42634803D01*
X48224775Y-42635197D01*
X48642086Y-42462767D01*
X48961645Y-42143765D01*
X49134803Y-41726756D01*
X49134852Y-41670475D01*
X59703903Y-41670475D01*
X59876333Y-42087786D01*
X60195335Y-42407345D01*
X60612344Y-42580503D01*
X61063875Y-42580897D01*
X61481186Y-42408467D01*
X61800745Y-42089465D01*
X61973903Y-41672456D01*
X61973957Y-41609661D01*
X122602758Y-41609661D01*
X122814990Y-42123303D01*
X123207630Y-42516629D01*
X123720900Y-42729757D01*
X124276661Y-42730242D01*
X124492133Y-42641211D01*
X124592990Y-42885303D01*
X124985630Y-43278629D01*
X125276703Y-43399493D01*
X125143243Y-43720900D01*
X125142758Y-44276661D01*
X125354990Y-44790303D01*
X125747630Y-45183629D01*
X126260900Y-45396757D01*
X126816661Y-45397242D01*
X127330303Y-45185010D01*
X127723629Y-44792370D01*
X127936757Y-44279100D01*
X127937242Y-43723339D01*
X127725010Y-43209697D01*
X127332370Y-42816371D01*
X127041297Y-42695507D01*
X127174757Y-42374100D01*
X127175242Y-41818339D01*
X126963010Y-41304697D01*
X126570370Y-40911371D01*
X126057100Y-40698243D01*
X125501339Y-40697758D01*
X125285867Y-40786789D01*
X125185010Y-40542697D01*
X124792370Y-40149371D01*
X124279100Y-39936243D01*
X123723339Y-39935758D01*
X123209697Y-40147990D01*
X122816371Y-40540630D01*
X122603243Y-41053900D01*
X122602758Y-41609661D01*
X61973957Y-41609661D01*
X61974297Y-41220925D01*
X61801867Y-40803614D01*
X61482865Y-40484055D01*
X61065856Y-40310897D01*
X60614325Y-40310503D01*
X60197014Y-40482933D01*
X59877455Y-40801935D01*
X59704297Y-41218944D01*
X59703903Y-41670475D01*
X49134852Y-41670475D01*
X49135197Y-41275225D01*
X48962767Y-40857914D01*
X48643765Y-40538355D01*
X48226756Y-40365197D01*
X47775225Y-40364803D01*
X47357914Y-40537233D01*
X47038355Y-40856235D01*
X46865197Y-41273244D01*
X46864803Y-41724775D01*
X43170460Y-41724775D01*
X43183345Y-41660000D01*
X43069271Y-41086511D01*
X42744415Y-40600330D01*
X42429634Y-40390000D01*
X42744415Y-40179670D01*
X43069271Y-39693489D01*
X43112775Y-39474775D01*
X44614803Y-39474775D01*
X44787233Y-39892086D01*
X45106235Y-40211645D01*
X45523244Y-40384803D01*
X45974775Y-40385197D01*
X46392086Y-40212767D01*
X46711645Y-39893765D01*
X46884803Y-39476756D01*
X46885197Y-39025225D01*
X46858071Y-38959575D01*
X51751303Y-38959575D01*
X51923733Y-39376886D01*
X52242735Y-39696445D01*
X52659744Y-39869603D01*
X53111275Y-39869997D01*
X53528586Y-39697567D01*
X53848145Y-39378565D01*
X54021303Y-38961556D01*
X54021670Y-38540000D01*
X71578397Y-38540000D01*
X71683867Y-39070235D01*
X71984221Y-39519746D01*
X72433732Y-39820100D01*
X72963967Y-39925570D01*
X74036033Y-39925570D01*
X74566268Y-39820100D01*
X75015779Y-39519746D01*
X75316133Y-39070235D01*
X75421603Y-38540000D01*
X75316133Y-38009765D01*
X75015779Y-37560254D01*
X74871676Y-37463967D01*
X79074430Y-37463967D01*
X79074430Y-38536033D01*
X79179900Y-39066268D01*
X79480254Y-39515779D01*
X79929765Y-39816133D01*
X80460000Y-39921603D01*
X80990235Y-39816133D01*
X81439746Y-39515779D01*
X81740100Y-39066268D01*
X81789627Y-38817275D01*
X82490003Y-38817275D01*
X82662433Y-39234586D01*
X82981435Y-39554145D01*
X83398444Y-39727303D01*
X83849975Y-39727697D01*
X84267286Y-39555267D01*
X84458858Y-39364029D01*
X84560254Y-39515779D01*
X85009765Y-39816133D01*
X85540000Y-39921603D01*
X86070235Y-39816133D01*
X86519746Y-39515779D01*
X86820100Y-39066268D01*
X86925570Y-38536033D01*
X86925570Y-37463967D01*
X91074430Y-37463967D01*
X91074430Y-38536033D01*
X91179900Y-39066268D01*
X91480254Y-39515779D01*
X91929765Y-39816133D01*
X92460000Y-39921603D01*
X92990235Y-39816133D01*
X93439746Y-39515779D01*
X93740100Y-39066268D01*
X93845570Y-38536033D01*
X93845570Y-37463967D01*
X96154430Y-37463967D01*
X96154430Y-38536033D01*
X96259900Y-39066268D01*
X96560254Y-39515779D01*
X97009765Y-39816133D01*
X97540000Y-39921603D01*
X98070235Y-39816133D01*
X98519746Y-39515779D01*
X98820100Y-39066268D01*
X98925570Y-38536033D01*
X98925570Y-37463967D01*
X98820100Y-36933732D01*
X98519746Y-36484221D01*
X98070235Y-36183867D01*
X97540000Y-36078397D01*
X97009765Y-36183867D01*
X96560254Y-36484221D01*
X96259900Y-36933732D01*
X96154430Y-37463967D01*
X93845570Y-37463967D01*
X93740100Y-36933732D01*
X93439746Y-36484221D01*
X92990235Y-36183867D01*
X92460000Y-36078397D01*
X91929765Y-36183867D01*
X91480254Y-36484221D01*
X91179900Y-36933732D01*
X91074430Y-37463967D01*
X86925570Y-37463967D01*
X86820100Y-36933732D01*
X86519746Y-36484221D01*
X86070235Y-36183867D01*
X85540000Y-36078397D01*
X85009765Y-36183867D01*
X84560254Y-36484221D01*
X84259900Y-36933732D01*
X84154430Y-37463967D01*
X84154430Y-37583296D01*
X83851956Y-37457697D01*
X83400425Y-37457303D01*
X82983114Y-37629733D01*
X82663555Y-37948735D01*
X82490397Y-38365744D01*
X82490003Y-38817275D01*
X81789627Y-38817275D01*
X81845570Y-38536033D01*
X81845570Y-37463967D01*
X81740100Y-36933732D01*
X81439746Y-36484221D01*
X80990235Y-36183867D01*
X80460000Y-36078397D01*
X79929765Y-36183867D01*
X79480254Y-36484221D01*
X79179900Y-36933732D01*
X79074430Y-37463967D01*
X74871676Y-37463967D01*
X74566268Y-37259900D01*
X74036033Y-37154430D01*
X72963967Y-37154430D01*
X72433732Y-37259900D01*
X71984221Y-37560254D01*
X71683867Y-38009765D01*
X71578397Y-38540000D01*
X54021670Y-38540000D01*
X54021697Y-38510025D01*
X53849267Y-38092714D01*
X53530265Y-37773155D01*
X53113256Y-37599997D01*
X52661725Y-37599603D01*
X52244414Y-37772033D01*
X51924855Y-38091035D01*
X51751697Y-38508044D01*
X51751303Y-38959575D01*
X46858071Y-38959575D01*
X46712767Y-38607914D01*
X46393765Y-38288355D01*
X45976756Y-38115197D01*
X45525225Y-38114803D01*
X45107914Y-38287233D01*
X44788355Y-38606235D01*
X44615197Y-39023244D01*
X44614803Y-39474775D01*
X43112775Y-39474775D01*
X43183345Y-39120000D01*
X43069271Y-38546511D01*
X42744415Y-38060330D01*
X42429634Y-37850000D01*
X42744415Y-37639670D01*
X43069271Y-37153489D01*
X43183345Y-36580000D01*
X43069271Y-36006511D01*
X42744415Y-35520330D01*
X42429634Y-35310000D01*
X42744415Y-35099670D01*
X42904373Y-34860275D01*
X48054003Y-34860275D01*
X48226433Y-35277586D01*
X48545435Y-35597145D01*
X48962444Y-35770303D01*
X49413975Y-35770697D01*
X49831286Y-35598267D01*
X50150845Y-35279265D01*
X50195105Y-35172675D01*
X55757803Y-35172675D01*
X55930233Y-35589986D01*
X56249235Y-35909545D01*
X56666244Y-36082703D01*
X57117775Y-36083097D01*
X57535086Y-35910667D01*
X57777500Y-35668675D01*
X58588303Y-35668675D01*
X58760733Y-36085986D01*
X59079735Y-36405545D01*
X59496744Y-36578703D01*
X59948275Y-36579097D01*
X60365586Y-36406667D01*
X60685145Y-36087665D01*
X60858303Y-35670656D01*
X60858697Y-35219125D01*
X60686267Y-34801814D01*
X60367265Y-34482255D01*
X59950256Y-34309097D01*
X59498725Y-34308703D01*
X59081414Y-34481133D01*
X58761855Y-34800135D01*
X58588697Y-35217144D01*
X58588303Y-35668675D01*
X57777500Y-35668675D01*
X57854645Y-35591665D01*
X58027803Y-35174656D01*
X58028197Y-34723125D01*
X57855767Y-34305814D01*
X57536765Y-33986255D01*
X57119756Y-33813097D01*
X56668225Y-33812703D01*
X56250914Y-33985133D01*
X55931355Y-34304135D01*
X55758197Y-34721144D01*
X55757803Y-35172675D01*
X50195105Y-35172675D01*
X50324003Y-34862256D01*
X50324397Y-34410725D01*
X50151967Y-33993414D01*
X49832965Y-33673855D01*
X49415956Y-33500697D01*
X48964425Y-33500303D01*
X48547114Y-33672733D01*
X48227555Y-33991735D01*
X48054397Y-34408744D01*
X48054003Y-34860275D01*
X42904373Y-34860275D01*
X43069271Y-34613489D01*
X43183345Y-34040000D01*
X43069271Y-33466511D01*
X43064921Y-33460000D01*
X71578397Y-33460000D01*
X71683867Y-33990235D01*
X71984221Y-34439746D01*
X72433732Y-34740100D01*
X72963967Y-34845570D01*
X74036033Y-34845570D01*
X74566268Y-34740100D01*
X75015779Y-34439746D01*
X75316133Y-33990235D01*
X75420813Y-33463967D01*
X79074430Y-33463967D01*
X79074430Y-34536033D01*
X79179900Y-35066268D01*
X79480254Y-35515779D01*
X79929765Y-35816133D01*
X80460000Y-35921603D01*
X80990235Y-35816133D01*
X81439746Y-35515779D01*
X81740100Y-35066268D01*
X81845570Y-34536033D01*
X81845570Y-33463967D01*
X84154430Y-33463967D01*
X84154430Y-34536033D01*
X84259900Y-35066268D01*
X84560254Y-35515779D01*
X85009765Y-35816133D01*
X85540000Y-35921603D01*
X86070235Y-35816133D01*
X86519746Y-35515779D01*
X86820100Y-35066268D01*
X86925570Y-34536033D01*
X86925570Y-33463967D01*
X91074430Y-33463967D01*
X91074430Y-34536033D01*
X91179900Y-35066268D01*
X91480254Y-35515779D01*
X91929765Y-35816133D01*
X92460000Y-35921603D01*
X92990235Y-35816133D01*
X93439746Y-35515779D01*
X93740100Y-35066268D01*
X93845570Y-34536033D01*
X93845570Y-33463967D01*
X96154430Y-33463967D01*
X96154430Y-34536033D01*
X96259900Y-35066268D01*
X96560254Y-35515779D01*
X97009765Y-35816133D01*
X97540000Y-35921603D01*
X98070235Y-35816133D01*
X98519746Y-35515779D01*
X98820100Y-35066268D01*
X98925570Y-34536033D01*
X98925570Y-33463967D01*
X98820100Y-32933732D01*
X98519746Y-32484221D01*
X98070235Y-32183867D01*
X97540000Y-32078397D01*
X97009765Y-32183867D01*
X96560254Y-32484221D01*
X96259900Y-32933732D01*
X96154430Y-33463967D01*
X93845570Y-33463967D01*
X93740100Y-32933732D01*
X93439746Y-32484221D01*
X92990235Y-32183867D01*
X92460000Y-32078397D01*
X91929765Y-32183867D01*
X91480254Y-32484221D01*
X91179900Y-32933732D01*
X91074430Y-33463967D01*
X86925570Y-33463967D01*
X86820100Y-32933732D01*
X86519746Y-32484221D01*
X86070235Y-32183867D01*
X85540000Y-32078397D01*
X85009765Y-32183867D01*
X84560254Y-32484221D01*
X84259900Y-32933732D01*
X84154430Y-33463967D01*
X81845570Y-33463967D01*
X81740100Y-32933732D01*
X81439746Y-32484221D01*
X80990235Y-32183867D01*
X80460000Y-32078397D01*
X79929765Y-32183867D01*
X79480254Y-32484221D01*
X79179900Y-32933732D01*
X79074430Y-33463967D01*
X75420813Y-33463967D01*
X75421603Y-33460000D01*
X75316133Y-32929765D01*
X75015779Y-32480254D01*
X74566268Y-32179900D01*
X74036033Y-32074430D01*
X72963967Y-32074430D01*
X72433732Y-32179900D01*
X71984221Y-32480254D01*
X71683867Y-32929765D01*
X71578397Y-33460000D01*
X43064921Y-33460000D01*
X42744415Y-32980330D01*
X42722220Y-32965500D01*
X42875698Y-32901927D01*
X43054327Y-32723299D01*
X43151000Y-32489910D01*
X43151000Y-31785750D01*
X42992250Y-31627000D01*
X41627000Y-31627000D01*
X41627000Y-31647000D01*
X41373000Y-31647000D01*
X41373000Y-31627000D01*
X40007750Y-31627000D01*
X39849000Y-31785750D01*
X39849000Y-32489910D01*
X39945673Y-32723299D01*
X40124302Y-32901927D01*
X40277780Y-32965500D01*
X40255585Y-32980330D01*
X39930729Y-33466511D01*
X39816655Y-34040000D01*
X39685000Y-34040000D01*
X39685000Y-31566475D01*
X48031203Y-31566475D01*
X48203633Y-31983786D01*
X48522635Y-32303345D01*
X48939644Y-32476503D01*
X49391175Y-32476897D01*
X49808486Y-32304467D01*
X50128045Y-31985465D01*
X50301203Y-31568456D01*
X50301597Y-31116925D01*
X50129167Y-30699614D01*
X49810165Y-30380055D01*
X49393156Y-30206897D01*
X48941625Y-30206503D01*
X48524314Y-30378933D01*
X48204755Y-30697935D01*
X48031597Y-31114944D01*
X48031203Y-31566475D01*
X39685000Y-31566475D01*
X39685000Y-30510090D01*
X39849000Y-30510090D01*
X39849000Y-31214250D01*
X40007750Y-31373000D01*
X41373000Y-31373000D01*
X41373000Y-30160150D01*
X41627000Y-30160150D01*
X41627000Y-31373000D01*
X42992250Y-31373000D01*
X43151000Y-31214250D01*
X43151000Y-30510090D01*
X43054327Y-30276701D01*
X42875698Y-30098073D01*
X42642309Y-30001400D01*
X41785750Y-30001400D01*
X41627000Y-30160150D01*
X41373000Y-30160150D01*
X41214250Y-30001400D01*
X40357691Y-30001400D01*
X40124302Y-30098073D01*
X39945673Y-30276701D01*
X39849000Y-30510090D01*
X39685000Y-30510090D01*
X39685000Y-29685000D01*
X138315000Y-29685000D01*
X138315000Y-59315000D01*
M02*
