M48
;DRILL file {KiCad 4.0.4+dfsg1-stable} date Mon Feb 27 16:58:58 2017
;FORMAT={-:-/ absolute / metric / decimal}
FMAT,2
METRIC,TZ
T1C0.500
T2C0.813
T3C0.850
T4C1.001
T5C1.016
%
G90
G05
M71
T1
X45.75Y-39.25
X46.79Y-48.382
X48.Y-41.5
X49.166Y-31.342
X49.189Y-34.636
X51.585Y-48.947
X52.886Y-38.735
X55.Y-55.996
X55.755Y-47.166
X56.55Y-57.412
X56.893Y-31.183
X56.893Y-34.948
X59.45Y-57.361
X59.718Y-48.687
X59.723Y-35.444
X60.002Y-31.962
X60.839Y-41.446
X62.223Y-44.877
X62.5Y-51.052
X64.766Y-48.
X65.433Y-53.809
X65.811Y-34.995
X66.Y-51.092
X71.25Y-47.25
X75.Y-44.951
X76.222Y-48.
X83.625Y-38.593
T2
X80.Y-44.
X82.54Y-44.
X85.08Y-44.
X93.Y-44.
X95.54Y-44.
X98.08Y-44.
T3
X121.333Y-44.
X124.Y-41.333
X124.Y-46.794
X125.778Y-42.095
X126.54Y-44.
T4
X73.5Y-33.46
X73.5Y-38.54
X80.46Y-34.
X80.46Y-38.
X80.46Y-50.
X80.46Y-54.
X85.54Y-34.
X85.54Y-38.
X85.54Y-50.
X85.54Y-54.
X92.46Y-34.
X92.46Y-38.
X92.46Y-50.
X92.46Y-54.
X97.54Y-34.
X97.54Y-38.
X97.54Y-50.
X97.54Y-54.
T5
X41.5Y-31.5
X41.5Y-34.04
X41.5Y-36.58
X41.5Y-39.12
X41.5Y-41.66
X41.5Y-44.2
X41.5Y-46.74
X41.5Y-49.28
X41.5Y-51.82
X41.5Y-54.36
X41.5Y-56.9
T0
M30
