G04 #@! TF.FileFunction,Soldermask,Top*
%FSLAX46Y46*%
G04 Gerber Fmt 4.6, Leading zero omitted, Abs format (unit mm)*
G04 Created by KiCad (PCBNEW 4.0.4+dfsg1-stable) date Wed Feb 15 11:15:26 2017*
%MOMM*%
%LPD*%
G01*
G04 APERTURE LIST*
%ADD10C,0.100000*%
%ADD11R,0.800100X0.800100*%
%ADD12R,1.600000X1.000000*%
%ADD13R,1.000000X1.600000*%
%ADD14R,0.900000X1.700000*%
%ADD15R,1.700000X0.900000*%
%ADD16R,0.600000X1.550000*%
%ADD17O,1.501140X2.499360*%
%ADD18O,2.499360X1.501140*%
%ADD19C,1.524000*%
%ADD20R,2.032000X1.727200*%
%ADD21O,2.032000X1.727200*%
G04 APERTURE END LIST*
D10*
D11*
X60000760Y-34950000D03*
X60000760Y-33050000D03*
X58001780Y-34000000D03*
D12*
X55000000Y-39500000D03*
X55000000Y-42500000D03*
D13*
X70500000Y-49000000D03*
X67500000Y-49000000D03*
D12*
X52000000Y-33500000D03*
X52000000Y-36500000D03*
X64000000Y-49500000D03*
X64000000Y-46500000D03*
X74000000Y-44500000D03*
X74000000Y-41500000D03*
D14*
X60450000Y-40000000D03*
X57550000Y-40000000D03*
D15*
X64000000Y-38450000D03*
X64000000Y-35550000D03*
D16*
X57095000Y-50700000D03*
X58365000Y-50700000D03*
X59635000Y-50700000D03*
X60905000Y-50700000D03*
X60905000Y-45300000D03*
X59635000Y-45300000D03*
X58365000Y-45300000D03*
X57095000Y-45300000D03*
X67095000Y-45700000D03*
X68365000Y-45700000D03*
X69635000Y-45700000D03*
X70905000Y-45700000D03*
X70905000Y-40300000D03*
X69635000Y-40300000D03*
X68365000Y-40300000D03*
X67095000Y-40300000D03*
D11*
X70000760Y-34950000D03*
X70000760Y-33050000D03*
X68001780Y-34000000D03*
D17*
X79460000Y-35000000D03*
X84540000Y-35000000D03*
X84540000Y-50000000D03*
X79460000Y-50000000D03*
D18*
X102000000Y-34460000D03*
X102000000Y-39540000D03*
D17*
X91460000Y-35000000D03*
X96540000Y-35000000D03*
X96540000Y-50000000D03*
X91460000Y-50000000D03*
D19*
X121333000Y-42000000D03*
X124000000Y-44794000D03*
X126540000Y-42000000D03*
X124000000Y-39333000D03*
X125778000Y-40095000D03*
D12*
X55000000Y-33500000D03*
X55000000Y-36500000D03*
X54000000Y-46500000D03*
X54000000Y-49500000D03*
X64000000Y-41500000D03*
X64000000Y-44500000D03*
D20*
X45000000Y-34000000D03*
D21*
X45000000Y-36540000D03*
X45000000Y-39080000D03*
X45000000Y-41620000D03*
X45000000Y-44160000D03*
X45000000Y-46700000D03*
X45000000Y-49240000D03*
D15*
X49000000Y-42450000D03*
X49000000Y-39550000D03*
D12*
X52000000Y-39500000D03*
X52000000Y-42500000D03*
D17*
X84540000Y-39000000D03*
X79460000Y-39000000D03*
X79460000Y-46000000D03*
X84540000Y-46000000D03*
X96540000Y-39000000D03*
X91460000Y-39000000D03*
X91460000Y-46000000D03*
X96540000Y-46000000D03*
M02*
