M48
;DRILL file {KiCad 4.0.4+dfsg1-stable} date Wed Feb 15 13:47:53 2017
;FORMAT={-:-/ absolute / metric / decimal}
FMAT,2
METRIC,TZ
T1C0.500
T2C0.850
T3C1.001
T4C1.016
%
G90
G05
M71
T1
X52.Y-34.766
X52.Y-46.
X55.Y-31.
X57.515Y-48.929
X59.557Y-42.514
X60.27Y-48.973
X61.034Y-52.354
X62.197Y-41.265
X62.433Y-49.148
X64.Y-52.
X68.Y-37.
X68.Y-52.
X70.062Y-47.337
X71.558Y-44.175
X74.Y-39.
T2
X121.333Y-42.
X124.Y-39.333
X124.Y-44.794
X125.778Y-40.095
X126.54Y-42.
T3
X79.46Y-35.
X79.46Y-39.
X79.46Y-46.
X79.46Y-50.
X84.54Y-35.
X84.54Y-39.
X84.54Y-46.
X84.54Y-50.
X91.46Y-35.
X91.46Y-39.
X91.46Y-46.
X91.46Y-50.
X96.54Y-35.
X96.54Y-39.
X96.54Y-46.
X96.54Y-50.
X102.Y-34.46
X102.Y-39.54
T4
X43.Y-34.
X43.Y-36.54
X43.Y-39.08
X43.Y-41.62
X43.Y-44.16
X43.Y-46.7
X43.Y-49.24
T0
M30
