G04 #@! TF.FileFunction,Copper,L4,Bot,Signal*
%FSLAX46Y46*%
G04 Gerber Fmt 4.6, Leading zero omitted, Abs format (unit mm)*
G04 Created by KiCad (PCBNEW 4.0.4+dfsg1-stable) date Mon Feb 27 17:01:07 2017*
%MOMM*%
%LPD*%
G01*
G04 APERTURE LIST*
%ADD10C,0.100000*%
%ADD11C,0.150000*%
%ADD12C,0.300000*%
%ADD13C,0.400000*%
%ADD14O,1.501140X2.499360*%
%ADD15O,2.499360X1.501140*%
%ADD16C,1.524000*%
%ADD17R,2.032000X1.727200*%
%ADD18O,2.032000X1.727200*%
%ADD19C,1.000000*%
%ADD20C,0.750000*%
%ADD21C,0.254000*%
G04 APERTURE END LIST*
D10*
D11*
X177002200Y-166007200D02*
X177002200Y-198007200D01*
X285002200Y-198007200D01*
X285002200Y-166007200D01*
X177002200Y-166007200D01*
D10*
D11*
X10000000Y-10000000D02*
X10000000Y-200007200D01*
X287002200Y-200007200D01*
X287002200Y-10000000D01*
X10000000Y-10000000D01*
D10*
D11*
X12000000Y-12000000D02*
X12000000Y-198007200D01*
X285002200Y-198007200D01*
X285002200Y-12000000D01*
X12000000Y-12000000D01*
D10*
D11*
X60000000Y-12000000D02*
X60000000Y-10000000D01*
D10*
D11*
X110000000Y-12000000D02*
X110000000Y-10000000D01*
D10*
D11*
X160000000Y-12000000D02*
X160000000Y-10000000D01*
D10*
D11*
X210000000Y-12000000D02*
X210000000Y-10000000D01*
D10*
D11*
X260000000Y-12000000D02*
X260000000Y-10000000D01*
D10*
D11*
X35990476Y-11588095D02*
X35247619Y-11588095D01*
X35619048Y-11588095D02*
X35619048Y-10288095D01*
X35495238Y-10473810D01*
X35371429Y-10597619D01*
X35247619Y-10659524D01*
D10*
D11*
X85247619Y-10411905D02*
X85309524Y-10350000D01*
X85433333Y-10288095D01*
X85742857Y-10288095D01*
X85866667Y-10350000D01*
X85928571Y-10411905D01*
X85990476Y-10535714D01*
X85990476Y-10659524D01*
X85928571Y-10845238D01*
X85185714Y-11588095D01*
X85990476Y-11588095D01*
D10*
D11*
X135185714Y-10288095D02*
X135990476Y-10288095D01*
X135557143Y-10783333D01*
X135742857Y-10783333D01*
X135866667Y-10845238D01*
X135928571Y-10907143D01*
X135990476Y-11030952D01*
X135990476Y-11340476D01*
X135928571Y-11464286D01*
X135866667Y-11526190D01*
X135742857Y-11588095D01*
X135371429Y-11588095D01*
X135247619Y-11526190D01*
X135185714Y-11464286D01*
D10*
D11*
X185866667Y-10721429D02*
X185866667Y-11588095D01*
X185557143Y-10226190D02*
X185247619Y-11154762D01*
X186052381Y-11154762D01*
D10*
D11*
X235928571Y-10288095D02*
X235309524Y-10288095D01*
X235247619Y-10907143D01*
X235309524Y-10845238D01*
X235433333Y-10783333D01*
X235742857Y-10783333D01*
X235866667Y-10845238D01*
X235928571Y-10907143D01*
X235990476Y-11030952D01*
X235990476Y-11340476D01*
X235928571Y-11464286D01*
X235866667Y-11526190D01*
X235742857Y-11588095D01*
X235433333Y-11588095D01*
X235309524Y-11526190D01*
X235247619Y-11464286D01*
D10*
D11*
X285866667Y-10288095D02*
X285619048Y-10288095D01*
X285495238Y-10350000D01*
X285433333Y-10411905D01*
X285309524Y-10597619D01*
X285247619Y-10845238D01*
X285247619Y-11340476D01*
X285309524Y-11464286D01*
X285371429Y-11526190D01*
X285495238Y-11588095D01*
X285742857Y-11588095D01*
X285866667Y-11526190D01*
X285928571Y-11464286D01*
X285990476Y-11340476D01*
X285990476Y-11030952D01*
X285928571Y-10907143D01*
X285866667Y-10845238D01*
X285742857Y-10783333D01*
X285495238Y-10783333D01*
X285371429Y-10845238D01*
X285309524Y-10907143D01*
X285247619Y-11030952D01*
D10*
D11*
X60000000Y-198007200D02*
X60000000Y-200007200D01*
D10*
D11*
X110000000Y-198007200D02*
X110000000Y-200007200D01*
D10*
D11*
X160000000Y-198007200D02*
X160000000Y-200007200D01*
D10*
D11*
X210000000Y-198007200D02*
X210000000Y-200007200D01*
D10*
D11*
X260000000Y-198007200D02*
X260000000Y-200007200D01*
D10*
D11*
X35990476Y-199595295D02*
X35247619Y-199595295D01*
X35619048Y-199595295D02*
X35619048Y-198295295D01*
X35495238Y-198481010D01*
X35371429Y-198604819D01*
X35247619Y-198666724D01*
D10*
D11*
X85247619Y-198419105D02*
X85309524Y-198357200D01*
X85433333Y-198295295D01*
X85742857Y-198295295D01*
X85866667Y-198357200D01*
X85928571Y-198419105D01*
X85990476Y-198542914D01*
X85990476Y-198666724D01*
X85928571Y-198852438D01*
X85185714Y-199595295D01*
X85990476Y-199595295D01*
D10*
D11*
X135185714Y-198295295D02*
X135990476Y-198295295D01*
X135557143Y-198790533D01*
X135742857Y-198790533D01*
X135866667Y-198852438D01*
X135928571Y-198914343D01*
X135990476Y-199038152D01*
X135990476Y-199347676D01*
X135928571Y-199471486D01*
X135866667Y-199533390D01*
X135742857Y-199595295D01*
X135371429Y-199595295D01*
X135247619Y-199533390D01*
X135185714Y-199471486D01*
D10*
D11*
X185866667Y-198728629D02*
X185866667Y-199595295D01*
X185557143Y-198233390D02*
X185247619Y-199161962D01*
X186052381Y-199161962D01*
D10*
D11*
X235928571Y-198295295D02*
X235309524Y-198295295D01*
X235247619Y-198914343D01*
X235309524Y-198852438D01*
X235433333Y-198790533D01*
X235742857Y-198790533D01*
X235866667Y-198852438D01*
X235928571Y-198914343D01*
X235990476Y-199038152D01*
X235990476Y-199347676D01*
X235928571Y-199471486D01*
X235866667Y-199533390D01*
X235742857Y-199595295D01*
X235433333Y-199595295D01*
X235309524Y-199533390D01*
X235247619Y-199471486D01*
D10*
D11*
X285866667Y-198295295D02*
X285619048Y-198295295D01*
X285495238Y-198357200D01*
X285433333Y-198419105D01*
X285309524Y-198604819D01*
X285247619Y-198852438D01*
X285247619Y-199347676D01*
X285309524Y-199471486D01*
X285371429Y-199533390D01*
X285495238Y-199595295D01*
X285742857Y-199595295D01*
X285866667Y-199533390D01*
X285928571Y-199471486D01*
X285990476Y-199347676D01*
X285990476Y-199038152D01*
X285928571Y-198914343D01*
X285866667Y-198852438D01*
X285742857Y-198790533D01*
X285495238Y-198790533D01*
X285371429Y-198852438D01*
X285309524Y-198914343D01*
X285247619Y-199038152D01*
D10*
D11*
X10000000Y-60000000D02*
X12000000Y-60000000D01*
D10*
D11*
X10000000Y-110000000D02*
X12000000Y-110000000D01*
D10*
D11*
X10000000Y-160000000D02*
X12000000Y-160000000D01*
D10*
D11*
X10690476Y-35216667D02*
X11309524Y-35216667D01*
X10566667Y-35588095D02*
X11000000Y-34288095D01*
X11433333Y-35588095D01*
D10*
D11*
X11092857Y-84907143D02*
X11278571Y-84969048D01*
X11340476Y-85030952D01*
X11402381Y-85154762D01*
X11402381Y-85340476D01*
X11340476Y-85464286D01*
X11278571Y-85526190D01*
X11154762Y-85588095D01*
X10659524Y-85588095D01*
X10659524Y-84288095D01*
X11092857Y-84288095D01*
X11216667Y-84350000D01*
X11278571Y-84411905D01*
X11340476Y-84535714D01*
X11340476Y-84659524D01*
X11278571Y-84783333D01*
X11216667Y-84845238D01*
X11092857Y-84907143D01*
X10659524Y-84907143D01*
D10*
D11*
X11402381Y-135464286D02*
X11340476Y-135526190D01*
X11154762Y-135588095D01*
X11030952Y-135588095D01*
X10845238Y-135526190D01*
X10721429Y-135402381D01*
X10659524Y-135278571D01*
X10597619Y-135030952D01*
X10597619Y-134845238D01*
X10659524Y-134597619D01*
X10721429Y-134473810D01*
X10845238Y-134350000D01*
X11030952Y-134288095D01*
X11154762Y-134288095D01*
X11340476Y-134350000D01*
X11402381Y-134411905D01*
D10*
D11*
X10659524Y-185588095D02*
X10659524Y-184288095D01*
X10969048Y-184288095D01*
X11154762Y-184350000D01*
X11278571Y-184473810D01*
X11340476Y-184597619D01*
X11402381Y-184845238D01*
X11402381Y-185030952D01*
X11340476Y-185278571D01*
X11278571Y-185402381D01*
X11154762Y-185526190D01*
X10969048Y-185588095D01*
X10659524Y-185588095D01*
D10*
D11*
X287002200Y-60000000D02*
X285002200Y-60000000D01*
D10*
D11*
X287002200Y-110000000D02*
X285002200Y-110000000D01*
D10*
D11*
X287002200Y-160000000D02*
X285002200Y-160000000D01*
D10*
D11*
X285692676Y-35216667D02*
X286311724Y-35216667D01*
X285568867Y-35588095D02*
X286002200Y-34288095D01*
X286435533Y-35588095D01*
D10*
D11*
X286095057Y-84907143D02*
X286280771Y-84969048D01*
X286342676Y-85030952D01*
X286404581Y-85154762D01*
X286404581Y-85340476D01*
X286342676Y-85464286D01*
X286280771Y-85526190D01*
X286156962Y-85588095D01*
X285661724Y-85588095D01*
X285661724Y-84288095D01*
X286095057Y-84288095D01*
X286218867Y-84350000D01*
X286280771Y-84411905D01*
X286342676Y-84535714D01*
X286342676Y-84659524D01*
X286280771Y-84783333D01*
X286218867Y-84845238D01*
X286095057Y-84907143D01*
X285661724Y-84907143D01*
D10*
D11*
X286404581Y-135464286D02*
X286342676Y-135526190D01*
X286156962Y-135588095D01*
X286033152Y-135588095D01*
X285847438Y-135526190D01*
X285723629Y-135402381D01*
X285661724Y-135278571D01*
X285599819Y-135030952D01*
X285599819Y-134845238D01*
X285661724Y-134597619D01*
X285723629Y-134473810D01*
X285847438Y-134350000D01*
X286033152Y-134288095D01*
X286156962Y-134288095D01*
X286342676Y-134350000D01*
X286404581Y-134411905D01*
D10*
D11*
X285661724Y-185588095D02*
X285661724Y-184288095D01*
X285971248Y-184288095D01*
X286156962Y-184350000D01*
X286280771Y-184473810D01*
X286342676Y-184597619D01*
X286404581Y-184845238D01*
X286404581Y-185030952D01*
X286342676Y-185278571D01*
X286280771Y-185402381D01*
X286156962Y-185526190D01*
X285971248Y-185588095D01*
X285661724Y-185588095D01*
D10*
D11*
X200359343Y-193785771D02*
X200359343Y-192285771D01*
X200716486Y-192285771D01*
X200930771Y-192357200D01*
X201073629Y-192500057D01*
X201145057Y-192642914D01*
X201216486Y-192928629D01*
X201216486Y-193142914D01*
X201145057Y-193428629D01*
X201073629Y-193571486D01*
X200930771Y-193714343D01*
X200716486Y-193785771D01*
X200359343Y-193785771D01*
X202502200Y-193785771D02*
X202502200Y-193000057D01*
X202430771Y-192857200D01*
X202287914Y-192785771D01*
X202002200Y-192785771D01*
X201859343Y-192857200D01*
X202502200Y-193714343D02*
X202359343Y-193785771D01*
X202002200Y-193785771D01*
X201859343Y-193714343D01*
X201787914Y-193571486D01*
X201787914Y-193428629D01*
X201859343Y-193285771D01*
X202002200Y-193214343D01*
X202359343Y-193214343D01*
X202502200Y-193142914D01*
X203002200Y-192785771D02*
X203573629Y-192785771D01*
X203216486Y-192285771D02*
X203216486Y-193571486D01*
X203287914Y-193714343D01*
X203430772Y-193785771D01*
X203573629Y-193785771D01*
X204645057Y-193714343D02*
X204502200Y-193785771D01*
X204216486Y-193785771D01*
X204073629Y-193714343D01*
X204002200Y-193571486D01*
X204002200Y-193000057D01*
X204073629Y-192857200D01*
X204216486Y-192785771D01*
X204502200Y-192785771D01*
X204645057Y-192857200D01*
X204716486Y-193000057D01*
X204716486Y-193142914D01*
X204002200Y-193285771D01*
X205359343Y-193642914D02*
X205430771Y-193714343D01*
X205359343Y-193785771D01*
X205287914Y-193714343D01*
X205359343Y-193642914D01*
X205359343Y-193785771D01*
X205359343Y-192857200D02*
X205430771Y-192928629D01*
X205359343Y-193000057D01*
X205287914Y-192928629D01*
X205359343Y-192857200D01*
X205359343Y-193000057D01*
D10*
D11*
X177002200Y-194507200D02*
X285002200Y-194507200D01*
D10*
D11*
X178359343Y-196585771D02*
X178359343Y-195085771D01*
X179216486Y-196585771D02*
X178573629Y-195728629D01*
X179216486Y-195085771D02*
X178359343Y-195942914D01*
X179859343Y-196585771D02*
X179859343Y-195585771D01*
X179859343Y-195085771D02*
X179787914Y-195157200D01*
X179859343Y-195228629D01*
X179930771Y-195157200D01*
X179859343Y-195085771D01*
X179859343Y-195228629D01*
X181430772Y-196442914D02*
X181359343Y-196514343D01*
X181145057Y-196585771D01*
X181002200Y-196585771D01*
X180787915Y-196514343D01*
X180645057Y-196371486D01*
X180573629Y-196228629D01*
X180502200Y-195942914D01*
X180502200Y-195728629D01*
X180573629Y-195442914D01*
X180645057Y-195300057D01*
X180787915Y-195157200D01*
X181002200Y-195085771D01*
X181145057Y-195085771D01*
X181359343Y-195157200D01*
X181430772Y-195228629D01*
X182716486Y-196585771D02*
X182716486Y-195800057D01*
X182645057Y-195657200D01*
X182502200Y-195585771D01*
X182216486Y-195585771D01*
X182073629Y-195657200D01*
X182716486Y-196514343D02*
X182573629Y-196585771D01*
X182216486Y-196585771D01*
X182073629Y-196514343D01*
X182002200Y-196371486D01*
X182002200Y-196228629D01*
X182073629Y-196085771D01*
X182216486Y-196014343D01*
X182573629Y-196014343D01*
X182716486Y-195942914D01*
X184073629Y-196585771D02*
X184073629Y-195085771D01*
X184073629Y-196514343D02*
X183930772Y-196585771D01*
X183645058Y-196585771D01*
X183502200Y-196514343D01*
X183430772Y-196442914D01*
X183359343Y-196300057D01*
X183359343Y-195871486D01*
X183430772Y-195728629D01*
X183502200Y-195657200D01*
X183645058Y-195585771D01*
X183930772Y-195585771D01*
X184073629Y-195657200D01*
X185930772Y-195800057D02*
X186430772Y-195800057D01*
X186645058Y-196585771D02*
X185930772Y-196585771D01*
X185930772Y-195085771D01*
X186645058Y-195085771D01*
X187287915Y-196442914D02*
X187359343Y-196514343D01*
X187287915Y-196585771D01*
X187216486Y-196514343D01*
X187287915Y-196442914D01*
X187287915Y-196585771D01*
X188002201Y-196585771D02*
X188002201Y-195085771D01*
X188359344Y-195085771D01*
X188573629Y-195157200D01*
X188716487Y-195300057D01*
X188787915Y-195442914D01*
X188859344Y-195728629D01*
X188859344Y-195942914D01*
X188787915Y-196228629D01*
X188716487Y-196371486D01*
X188573629Y-196514343D01*
X188359344Y-196585771D01*
X188002201Y-196585771D01*
X189502201Y-196442914D02*
X189573629Y-196514343D01*
X189502201Y-196585771D01*
X189430772Y-196514343D01*
X189502201Y-196442914D01*
X189502201Y-196585771D01*
X190145058Y-196157200D02*
X190859344Y-196157200D01*
X190002201Y-196585771D02*
X190502201Y-195085771D01*
X191002201Y-196585771D01*
X191502201Y-196442914D02*
X191573629Y-196514343D01*
X191502201Y-196585771D01*
X191430772Y-196514343D01*
X191502201Y-196442914D01*
X191502201Y-196585771D01*
X194502201Y-196585771D02*
X194502201Y-195085771D01*
X194645058Y-196014343D02*
X195073629Y-196585771D01*
X195073629Y-195585771D02*
X194502201Y-196157200D01*
X195716487Y-196585771D02*
X195716487Y-195585771D01*
X195716487Y-195085771D02*
X195645058Y-195157200D01*
X195716487Y-195228629D01*
X195787915Y-195157200D01*
X195716487Y-195085771D01*
X195716487Y-195228629D01*
X197073630Y-196514343D02*
X196930773Y-196585771D01*
X196645059Y-196585771D01*
X196502201Y-196514343D01*
X196430773Y-196442914D01*
X196359344Y-196300057D01*
X196359344Y-195871486D01*
X196430773Y-195728629D01*
X196502201Y-195657200D01*
X196645059Y-195585771D01*
X196930773Y-195585771D01*
X197073630Y-195657200D01*
X198359344Y-196585771D02*
X198359344Y-195800057D01*
X198287915Y-195657200D01*
X198145058Y-195585771D01*
X197859344Y-195585771D01*
X197716487Y-195657200D01*
X198359344Y-196514343D02*
X198216487Y-196585771D01*
X197859344Y-196585771D01*
X197716487Y-196514343D01*
X197645058Y-196371486D01*
X197645058Y-196228629D01*
X197716487Y-196085771D01*
X197859344Y-196014343D01*
X198216487Y-196014343D01*
X198359344Y-195942914D01*
X199716487Y-196585771D02*
X199716487Y-195085771D01*
X199716487Y-196514343D02*
X199573630Y-196585771D01*
X199287916Y-196585771D01*
X199145058Y-196514343D01*
X199073630Y-196442914D01*
X199002201Y-196300057D01*
X199002201Y-195871486D01*
X199073630Y-195728629D01*
X199145058Y-195657200D01*
X199287916Y-195585771D01*
X199573630Y-195585771D01*
X199716487Y-195657200D01*
X202216487Y-195585771D02*
X202216487Y-196585771D01*
X201859344Y-195014343D02*
X201502201Y-196085771D01*
X202430773Y-196085771D01*
X203002201Y-196442914D02*
X203073629Y-196514343D01*
X203002201Y-196585771D01*
X202930772Y-196514343D01*
X203002201Y-196442914D01*
X203002201Y-196585771D01*
X204002201Y-195085771D02*
X204145058Y-195085771D01*
X204287915Y-195157200D01*
X204359344Y-195228629D01*
X204430773Y-195371486D01*
X204502201Y-195657200D01*
X204502201Y-196014343D01*
X204430773Y-196300057D01*
X204359344Y-196442914D01*
X204287915Y-196514343D01*
X204145058Y-196585771D01*
X204002201Y-196585771D01*
X203859344Y-196514343D01*
X203787915Y-196442914D01*
X203716487Y-196300057D01*
X203645058Y-196014343D01*
X203645058Y-195657200D01*
X203716487Y-195371486D01*
X203787915Y-195228629D01*
X203859344Y-195157200D01*
X204002201Y-195085771D01*
X205145058Y-196442914D02*
X205216486Y-196514343D01*
X205145058Y-196585771D01*
X205073629Y-196514343D01*
X205145058Y-196442914D01*
X205145058Y-196585771D01*
X206502201Y-195585771D02*
X206502201Y-196585771D01*
X206145058Y-195014343D02*
X205787915Y-196085771D01*
X206716487Y-196085771D01*
X207287915Y-196014343D02*
X208430772Y-196014343D01*
X207859343Y-196585771D02*
X207859343Y-195442914D01*
X209787915Y-196585771D02*
X209787915Y-195085771D01*
X209787915Y-196514343D02*
X209645058Y-196585771D01*
X209359344Y-196585771D01*
X209216486Y-196514343D01*
X209145058Y-196442914D01*
X209073629Y-196300057D01*
X209073629Y-195871486D01*
X209145058Y-195728629D01*
X209216486Y-195657200D01*
X209359344Y-195585771D01*
X209645058Y-195585771D01*
X209787915Y-195657200D01*
X210287915Y-195585771D02*
X210859344Y-195585771D01*
X210502201Y-196585771D02*
X210502201Y-195300057D01*
X210573629Y-195157200D01*
X210716487Y-195085771D01*
X210859344Y-195085771D01*
X211287915Y-196514343D02*
X211430772Y-196585771D01*
X211716487Y-196585771D01*
X211859344Y-196514343D01*
X211930772Y-196371486D01*
X211930772Y-196300057D01*
X211859344Y-196157200D01*
X211716487Y-196085771D01*
X211502201Y-196085771D01*
X211359344Y-196014343D01*
X211287915Y-195871486D01*
X211287915Y-195800057D01*
X211359344Y-195657200D01*
X211502201Y-195585771D01*
X211716487Y-195585771D01*
X211859344Y-195657200D01*
X213216487Y-195585771D02*
X213216487Y-196800057D01*
X213145058Y-196942914D01*
X213073630Y-197014343D01*
X212930773Y-197085771D01*
X212716487Y-197085771D01*
X212573630Y-197014343D01*
X213216487Y-196514343D02*
X213073630Y-196585771D01*
X212787916Y-196585771D01*
X212645058Y-196514343D01*
X212573630Y-196442914D01*
X212502201Y-196300057D01*
X212502201Y-195871486D01*
X212573630Y-195728629D01*
X212645058Y-195657200D01*
X212787916Y-195585771D01*
X213073630Y-195585771D01*
X213216487Y-195657200D01*
X214716487Y-196585771D02*
X213859344Y-196585771D01*
X214287916Y-196585771D02*
X214287916Y-195085771D01*
X214145059Y-195300057D01*
X214002201Y-195442914D01*
X213859344Y-195514343D01*
X215359344Y-196014343D02*
X216502201Y-196014343D01*
X217145058Y-196514343D02*
X217287915Y-196585771D01*
X217573630Y-196585771D01*
X217716487Y-196514343D01*
X217787915Y-196371486D01*
X217787915Y-196300057D01*
X217716487Y-196157200D01*
X217573630Y-196085771D01*
X217359344Y-196085771D01*
X217216487Y-196014343D01*
X217145058Y-195871486D01*
X217145058Y-195800057D01*
X217216487Y-195657200D01*
X217359344Y-195585771D01*
X217573630Y-195585771D01*
X217716487Y-195657200D01*
X218216487Y-195585771D02*
X218787916Y-195585771D01*
X218430773Y-195085771D02*
X218430773Y-196371486D01*
X218502201Y-196514343D01*
X218645059Y-196585771D01*
X218787916Y-196585771D01*
X219930773Y-196585771D02*
X219930773Y-195800057D01*
X219859344Y-195657200D01*
X219716487Y-195585771D01*
X219430773Y-195585771D01*
X219287916Y-195657200D01*
X219930773Y-196514343D02*
X219787916Y-196585771D01*
X219430773Y-196585771D01*
X219287916Y-196514343D01*
X219216487Y-196371486D01*
X219216487Y-196228629D01*
X219287916Y-196085771D01*
X219430773Y-196014343D01*
X219787916Y-196014343D01*
X219930773Y-195942914D01*
X220645059Y-196585771D02*
X220645059Y-195085771D01*
X220645059Y-195657200D02*
X220787916Y-195585771D01*
X221073630Y-195585771D01*
X221216487Y-195657200D01*
X221287916Y-195728629D01*
X221359345Y-195871486D01*
X221359345Y-196300057D01*
X221287916Y-196442914D01*
X221216487Y-196514343D01*
X221073630Y-196585771D01*
X220787916Y-196585771D01*
X220645059Y-196514343D01*
X222216488Y-196585771D02*
X222073630Y-196514343D01*
X222002202Y-196371486D01*
X222002202Y-195085771D01*
X223359344Y-196514343D02*
X223216487Y-196585771D01*
X222930773Y-196585771D01*
X222787916Y-196514343D01*
X222716487Y-196371486D01*
X222716487Y-195800057D01*
X222787916Y-195657200D01*
X222930773Y-195585771D01*
X223216487Y-195585771D01*
X223359344Y-195657200D01*
X223430773Y-195800057D01*
X223430773Y-195942914D01*
X222716487Y-196085771D01*
D10*
D11*
X177002200Y-191507200D02*
X285002200Y-191507200D01*
D10*
D12*
X264216486Y-193785771D02*
X263716486Y-193071486D01*
X263359343Y-193785771D02*
X263359343Y-192285771D01*
X263930771Y-192285771D01*
X264073629Y-192357200D01*
X264145057Y-192428629D01*
X264216486Y-192571486D01*
X264216486Y-192785771D01*
X264145057Y-192928629D01*
X264073629Y-193000057D01*
X263930771Y-193071486D01*
X263359343Y-193071486D01*
X265430771Y-193714343D02*
X265287914Y-193785771D01*
X265002200Y-193785771D01*
X264859343Y-193714343D01*
X264787914Y-193571486D01*
X264787914Y-193000057D01*
X264859343Y-192857200D01*
X265002200Y-192785771D01*
X265287914Y-192785771D01*
X265430771Y-192857200D01*
X265502200Y-193000057D01*
X265502200Y-193142914D01*
X264787914Y-193285771D01*
X266002200Y-192785771D02*
X266359343Y-193785771D01*
X266716485Y-192785771D01*
X267287914Y-193642914D02*
X267359342Y-193714343D01*
X267287914Y-193785771D01*
X267216485Y-193714343D01*
X267287914Y-193642914D01*
X267287914Y-193785771D01*
X267287914Y-192857200D02*
X267359342Y-192928629D01*
X267287914Y-193000057D01*
X267216485Y-192928629D01*
X267287914Y-192857200D01*
X267287914Y-193000057D01*
D10*
D11*
X178287914Y-193714343D02*
X178502200Y-193785771D01*
X178859343Y-193785771D01*
X179002200Y-193714343D01*
X179073629Y-193642914D01*
X179145057Y-193500057D01*
X179145057Y-193357200D01*
X179073629Y-193214343D01*
X179002200Y-193142914D01*
X178859343Y-193071486D01*
X178573629Y-193000057D01*
X178430771Y-192928629D01*
X178359343Y-192857200D01*
X178287914Y-192714343D01*
X178287914Y-192571486D01*
X178359343Y-192428629D01*
X178430771Y-192357200D01*
X178573629Y-192285771D01*
X178930771Y-192285771D01*
X179145057Y-192357200D01*
X179787914Y-193785771D02*
X179787914Y-192785771D01*
X179787914Y-192285771D02*
X179716485Y-192357200D01*
X179787914Y-192428629D01*
X179859342Y-192357200D01*
X179787914Y-192285771D01*
X179787914Y-192428629D01*
X180359343Y-192785771D02*
X181145057Y-192785771D01*
X180359343Y-193785771D01*
X181145057Y-193785771D01*
X182287914Y-193714343D02*
X182145057Y-193785771D01*
X181859343Y-193785771D01*
X181716486Y-193714343D01*
X181645057Y-193571486D01*
X181645057Y-193000057D01*
X181716486Y-192857200D01*
X181859343Y-192785771D01*
X182145057Y-192785771D01*
X182287914Y-192857200D01*
X182359343Y-193000057D01*
X182359343Y-193142914D01*
X181645057Y-193285771D01*
X183002200Y-193642914D02*
X183073628Y-193714343D01*
X183002200Y-193785771D01*
X182930771Y-193714343D01*
X183002200Y-193642914D01*
X183002200Y-193785771D01*
X183002200Y-192857200D02*
X183073628Y-192928629D01*
X183002200Y-193000057D01*
X182930771Y-192928629D01*
X183002200Y-192857200D01*
X183002200Y-193000057D01*
X184787914Y-193357200D02*
X185502200Y-193357200D01*
X184645057Y-193785771D02*
X185145057Y-192285771D01*
X185645057Y-193785771D01*
X186787914Y-192785771D02*
X186787914Y-193785771D01*
X186430771Y-192214343D02*
X186073628Y-193285771D01*
X187002200Y-193285771D01*
D10*
D11*
X263359343Y-196585771D02*
X263359343Y-195085771D01*
X264716486Y-196585771D02*
X264716486Y-195085771D01*
X264716486Y-196514343D02*
X264573629Y-196585771D01*
X264287915Y-196585771D01*
X264145057Y-196514343D01*
X264073629Y-196442914D01*
X264002200Y-196300057D01*
X264002200Y-195871486D01*
X264073629Y-195728629D01*
X264145057Y-195657200D01*
X264287915Y-195585771D01*
X264573629Y-195585771D01*
X264716486Y-195657200D01*
X265430772Y-196442914D02*
X265502200Y-196514343D01*
X265430772Y-196585771D01*
X265359343Y-196514343D01*
X265430772Y-196442914D01*
X265430772Y-196585771D01*
X265430772Y-195657200D02*
X265502200Y-195728629D01*
X265430772Y-195800057D01*
X265359343Y-195728629D01*
X265430772Y-195657200D01*
X265430772Y-195800057D01*
X268073629Y-196585771D02*
X267216486Y-196585771D01*
X267645058Y-196585771D02*
X267645058Y-195085771D01*
X267502201Y-195300057D01*
X267359343Y-195442914D01*
X267216486Y-195514343D01*
X269787914Y-195014343D02*
X268502200Y-196942914D01*
X271073629Y-196585771D02*
X270216486Y-196585771D01*
X270645058Y-196585771D02*
X270645058Y-195085771D01*
X270502201Y-195300057D01*
X270359343Y-195442914D01*
X270216486Y-195514343D01*
D10*
D11*
X177002200Y-187507200D02*
X285002200Y-187507200D01*
D10*
D13*
X178454581Y-188211962D02*
X179597438Y-188211962D01*
X178776010Y-190211962D02*
X179026010Y-188211962D01*
X180014105Y-190211962D02*
X180180771Y-188878629D01*
X180264105Y-188211962D02*
X180156962Y-188307200D01*
X180240295Y-188402438D01*
X180347439Y-188307200D01*
X180264105Y-188211962D01*
X180240295Y-188402438D01*
X180847438Y-188878629D02*
X181609343Y-188878629D01*
X181216486Y-188211962D02*
X181002200Y-189926248D01*
X181073630Y-190116724D01*
X181252201Y-190211962D01*
X181442677Y-190211962D01*
X182395058Y-190211962D02*
X182216487Y-190116724D01*
X182145057Y-189926248D01*
X182359343Y-188211962D01*
X183930772Y-190116724D02*
X183728391Y-190211962D01*
X183347439Y-190211962D01*
X183168867Y-190116724D01*
X183097438Y-189926248D01*
X183192676Y-189164343D01*
X183311724Y-188973867D01*
X183514105Y-188878629D01*
X183895057Y-188878629D01*
X184073629Y-188973867D01*
X184145057Y-189164343D01*
X184121248Y-189354819D01*
X183145057Y-189545295D01*
X184895057Y-190021486D02*
X184978392Y-190116724D01*
X184871248Y-190211962D01*
X184787915Y-190116724D01*
X184895057Y-190021486D01*
X184871248Y-190211962D01*
X185026010Y-188973867D02*
X185109344Y-189069105D01*
X185002200Y-189164343D01*
X184918867Y-189069105D01*
X185026010Y-188973867D01*
X185002200Y-189164343D01*
D10*
D11*
X178859343Y-185600057D02*
X178359343Y-185600057D01*
X178359343Y-186385771D02*
X178359343Y-184885771D01*
X179073629Y-184885771D01*
X179645057Y-186385771D02*
X179645057Y-185385771D01*
X179645057Y-184885771D02*
X179573628Y-184957200D01*
X179645057Y-185028629D01*
X179716485Y-184957200D01*
X179645057Y-184885771D01*
X179645057Y-185028629D01*
X180573629Y-186385771D02*
X180430771Y-186314343D01*
X180359343Y-186171486D01*
X180359343Y-184885771D01*
X181716485Y-186314343D02*
X181573628Y-186385771D01*
X181287914Y-186385771D01*
X181145057Y-186314343D01*
X181073628Y-186171486D01*
X181073628Y-185600057D01*
X181145057Y-185457200D01*
X181287914Y-185385771D01*
X181573628Y-185385771D01*
X181716485Y-185457200D01*
X181787914Y-185600057D01*
X181787914Y-185742914D01*
X181073628Y-185885771D01*
X182430771Y-186242914D02*
X182502199Y-186314343D01*
X182430771Y-186385771D01*
X182359342Y-186314343D01*
X182430771Y-186242914D01*
X182430771Y-186385771D01*
X182430771Y-185457200D02*
X182502199Y-185528629D01*
X182430771Y-185600057D01*
X182359342Y-185528629D01*
X182430771Y-185457200D01*
X182430771Y-185600057D01*
X184287914Y-186385771D02*
X184287914Y-185385771D01*
X184287914Y-185528629D02*
X184359342Y-185457200D01*
X184502200Y-185385771D01*
X184716485Y-185385771D01*
X184859342Y-185457200D01*
X184930771Y-185600057D01*
X184930771Y-186385771D01*
X184930771Y-185600057D02*
X185002200Y-185457200D01*
X185145057Y-185385771D01*
X185359342Y-185385771D01*
X185502200Y-185457200D01*
X185573628Y-185600057D01*
X185573628Y-186385771D01*
X186930771Y-186385771D02*
X186930771Y-185600057D01*
X186859342Y-185457200D01*
X186716485Y-185385771D01*
X186430771Y-185385771D01*
X186287914Y-185457200D01*
X186930771Y-186314343D02*
X186787914Y-186385771D01*
X186430771Y-186385771D01*
X186287914Y-186314343D01*
X186216485Y-186171486D01*
X186216485Y-186028629D01*
X186287914Y-185885771D01*
X186430771Y-185814343D01*
X186787914Y-185814343D01*
X186930771Y-185742914D01*
X187645057Y-186385771D02*
X187645057Y-185385771D01*
X187645057Y-184885771D02*
X187573628Y-184957200D01*
X187645057Y-185028629D01*
X187716485Y-184957200D01*
X187645057Y-184885771D01*
X187645057Y-185028629D01*
X188359343Y-185385771D02*
X188359343Y-186385771D01*
X188359343Y-185528629D02*
X188430771Y-185457200D01*
X188573629Y-185385771D01*
X188787914Y-185385771D01*
X188930771Y-185457200D01*
X189002200Y-185600057D01*
X189002200Y-186385771D01*
X189716486Y-186242914D02*
X189787914Y-186314343D01*
X189716486Y-186385771D01*
X189645057Y-186314343D01*
X189716486Y-186242914D01*
X189716486Y-186385771D01*
X190430772Y-186385771D02*
X190430772Y-184885771D01*
X190573629Y-185814343D02*
X191002200Y-186385771D01*
X191002200Y-185385771D02*
X190430772Y-185957200D01*
X191645058Y-186385771D02*
X191645058Y-185385771D01*
X191645058Y-184885771D02*
X191573629Y-184957200D01*
X191645058Y-185028629D01*
X191716486Y-184957200D01*
X191645058Y-184885771D01*
X191645058Y-185028629D01*
X193002201Y-186314343D02*
X192859344Y-186385771D01*
X192573630Y-186385771D01*
X192430772Y-186314343D01*
X192359344Y-186242914D01*
X192287915Y-186100057D01*
X192287915Y-185671486D01*
X192359344Y-185528629D01*
X192430772Y-185457200D01*
X192573630Y-185385771D01*
X192859344Y-185385771D01*
X193002201Y-185457200D01*
X194287915Y-186385771D02*
X194287915Y-185600057D01*
X194216486Y-185457200D01*
X194073629Y-185385771D01*
X193787915Y-185385771D01*
X193645058Y-185457200D01*
X194287915Y-186314343D02*
X194145058Y-186385771D01*
X193787915Y-186385771D01*
X193645058Y-186314343D01*
X193573629Y-186171486D01*
X193573629Y-186028629D01*
X193645058Y-185885771D01*
X193787915Y-185814343D01*
X194145058Y-185814343D01*
X194287915Y-185742914D01*
X195645058Y-186385771D02*
X195645058Y-184885771D01*
X195645058Y-186314343D02*
X195502201Y-186385771D01*
X195216487Y-186385771D01*
X195073629Y-186314343D01*
X195002201Y-186242914D01*
X194930772Y-186100057D01*
X194930772Y-185671486D01*
X195002201Y-185528629D01*
X195073629Y-185457200D01*
X195216487Y-185385771D01*
X195502201Y-185385771D01*
X195645058Y-185457200D01*
X196002201Y-186528629D02*
X197145058Y-186528629D01*
X197502201Y-185385771D02*
X197502201Y-186885771D01*
X197502201Y-185457200D02*
X197645058Y-185385771D01*
X197930772Y-185385771D01*
X198073629Y-185457200D01*
X198145058Y-185528629D01*
X198216487Y-185671486D01*
X198216487Y-186100057D01*
X198145058Y-186242914D01*
X198073629Y-186314343D01*
X197930772Y-186385771D01*
X197645058Y-186385771D01*
X197502201Y-186314343D01*
X199502201Y-186314343D02*
X199359344Y-186385771D01*
X199073630Y-186385771D01*
X198930772Y-186314343D01*
X198859344Y-186242914D01*
X198787915Y-186100057D01*
X198787915Y-185671486D01*
X198859344Y-185528629D01*
X198930772Y-185457200D01*
X199073630Y-185385771D01*
X199359344Y-185385771D01*
X199502201Y-185457200D01*
X200145058Y-186385771D02*
X200145058Y-184885771D01*
X200145058Y-185457200D02*
X200287915Y-185385771D01*
X200573629Y-185385771D01*
X200716486Y-185457200D01*
X200787915Y-185528629D01*
X200859344Y-185671486D01*
X200859344Y-186100057D01*
X200787915Y-186242914D01*
X200716486Y-186314343D01*
X200573629Y-186385771D01*
X200287915Y-186385771D01*
X200145058Y-186314343D01*
D10*
D11*
X177002200Y-181507200D02*
X285002200Y-181507200D01*
D10*
D11*
X178287914Y-183614343D02*
X178502200Y-183685771D01*
X178859343Y-183685771D01*
X179002200Y-183614343D01*
X179073629Y-183542914D01*
X179145057Y-183400057D01*
X179145057Y-183257200D01*
X179073629Y-183114343D01*
X179002200Y-183042914D01*
X178859343Y-182971486D01*
X178573629Y-182900057D01*
X178430771Y-182828629D01*
X178359343Y-182757200D01*
X178287914Y-182614343D01*
X178287914Y-182471486D01*
X178359343Y-182328629D01*
X178430771Y-182257200D01*
X178573629Y-182185771D01*
X178930771Y-182185771D01*
X179145057Y-182257200D01*
X179787914Y-183685771D02*
X179787914Y-182185771D01*
X180430771Y-183685771D02*
X180430771Y-182900057D01*
X180359342Y-182757200D01*
X180216485Y-182685771D01*
X180002200Y-182685771D01*
X179859342Y-182757200D01*
X179787914Y-182828629D01*
X181716485Y-183614343D02*
X181573628Y-183685771D01*
X181287914Y-183685771D01*
X181145057Y-183614343D01*
X181073628Y-183471486D01*
X181073628Y-182900057D01*
X181145057Y-182757200D01*
X181287914Y-182685771D01*
X181573628Y-182685771D01*
X181716485Y-182757200D01*
X181787914Y-182900057D01*
X181787914Y-183042914D01*
X181073628Y-183185771D01*
X183002199Y-183614343D02*
X182859342Y-183685771D01*
X182573628Y-183685771D01*
X182430771Y-183614343D01*
X182359342Y-183471486D01*
X182359342Y-182900057D01*
X182430771Y-182757200D01*
X182573628Y-182685771D01*
X182859342Y-182685771D01*
X183002199Y-182757200D01*
X183073628Y-182900057D01*
X183073628Y-183042914D01*
X182359342Y-183185771D01*
X183502199Y-182685771D02*
X184073628Y-182685771D01*
X183716485Y-182185771D02*
X183716485Y-183471486D01*
X183787913Y-183614343D01*
X183930771Y-183685771D01*
X184073628Y-183685771D01*
X184573628Y-183542914D02*
X184645056Y-183614343D01*
X184573628Y-183685771D01*
X184502199Y-183614343D01*
X184573628Y-183542914D01*
X184573628Y-183685771D01*
X184573628Y-182757200D02*
X184645056Y-182828629D01*
X184573628Y-182900057D01*
X184502199Y-182828629D01*
X184573628Y-182757200D01*
X184573628Y-182900057D01*
D10*
D11*
X197002200Y-191507200D02*
X197002200Y-194507200D01*
D10*
D11*
X261002200Y-191507200D02*
X261002200Y-198007200D01*
D14*
X80460000Y-34000000D03*
X85540000Y-34000000D03*
X85540000Y-54000000D03*
X80460000Y-54000000D03*
D15*
X73500000Y-33460000D03*
X73500000Y-38540000D03*
D14*
X92460000Y-34000000D03*
X97540000Y-34000000D03*
X97540000Y-54000000D03*
X92460000Y-54000000D03*
D16*
X121333000Y-44000000D03*
X124000000Y-46794000D03*
X126540000Y-44000000D03*
X124000000Y-41333000D03*
X125778000Y-42095000D03*
D14*
X85540000Y-38000000D03*
X80460000Y-38000000D03*
X80460000Y-50000000D03*
X85540000Y-50000000D03*
X97540000Y-38000000D03*
X92460000Y-38000000D03*
X92460000Y-50000000D03*
X97540000Y-50000000D03*
D17*
X41500000Y-31500000D03*
D18*
X41500000Y-34040000D03*
X41500000Y-36580000D03*
X41500000Y-39120000D03*
X41500000Y-41660000D03*
X41500000Y-44200000D03*
X41500000Y-46740000D03*
X41500000Y-49280000D03*
X41500000Y-51820000D03*
X41500000Y-54360000D03*
X41500000Y-56900000D03*
D16*
X95540000Y-44000000D03*
X98080000Y-44000000D03*
X93000000Y-44000000D03*
X82540000Y-44000000D03*
X85080000Y-44000000D03*
X80000000Y-44000000D03*
D19*
X60001800Y-31962300D03*
X64765700Y-48000000D03*
X55754900Y-47165800D03*
X56893000Y-31183400D03*
X65810900Y-34995100D03*
X59450000Y-57360700D03*
X49166400Y-31341700D03*
X76221800Y-48000000D03*
X62500000Y-51052200D03*
X60839100Y-41445700D03*
X59723500Y-35443900D03*
X55000000Y-55996400D03*
X56550000Y-57412200D03*
X52886500Y-38734800D03*
X62223100Y-44877400D03*
X51585000Y-48947300D03*
X65433400Y-53808700D03*
X66000000Y-51091600D03*
X75000000Y-44951100D03*
X49189200Y-34635500D03*
X56893000Y-34947900D03*
X45750000Y-39250000D03*
X48000000Y-41500000D03*
X83625200Y-38592500D03*
X71250000Y-47250000D03*
X46789600Y-48381800D03*
X59718500Y-48687200D03*
D20*
X48000000Y-41500000D02*
X45750000Y-39250000D01*
X82050200Y-40167500D02*
X83625200Y-38592500D01*
X79407200Y-40167500D02*
X82050200Y-40167500D01*
X76153700Y-36914000D02*
X79407200Y-40167500D01*
X52447600Y-36914000D02*
X76153700Y-36914000D01*
X48000000Y-41500000D02*
X52447600Y-36914000D01*
X88668200Y-31834100D02*
X73500000Y-31834100D01*
X90834100Y-34000000D02*
X88668200Y-31834100D01*
X92460000Y-34000000D02*
X90834100Y-34000000D01*
X73500000Y-33460000D02*
X73500000Y-31834100D01*
X73500000Y-38540000D02*
X71374900Y-38540000D01*
X71187900Y-43470400D02*
X71250000Y-47250000D01*
X71374900Y-43283400D02*
X71187900Y-43470400D01*
X71374900Y-38540000D02*
X71374900Y-43283400D01*
X54119900Y-44200000D02*
X41500000Y-44200000D01*
X54849500Y-43470400D02*
X54119900Y-44200000D01*
X71187900Y-43470400D02*
X54849500Y-43470400D01*
X45891400Y-49280000D02*
X46789600Y-48381800D01*
X41500000Y-49280000D02*
X45891400Y-49280000D01*
X56585700Y-51820000D02*
X43391300Y-51820000D01*
X59718500Y-48687200D02*
X56585700Y-51820000D01*
X60448500Y-49417200D02*
X59718500Y-48687200D01*
X77122800Y-49417200D02*
X60448500Y-49417200D01*
X82540000Y-44000000D02*
X77122800Y-49417200D01*
X41500000Y-51820000D02*
X43391300Y-51820000D01*
X93000000Y-40665100D02*
X92460000Y-40125100D01*
X93000000Y-44000000D02*
X93000000Y-40665100D01*
X92460000Y-38000000D02*
X92460000Y-40125100D01*
X94085900Y-47994100D02*
X98080000Y-44000000D01*
X94085900Y-50000000D02*
X94085900Y-47994100D01*
X92460000Y-50000000D02*
X94085900Y-50000000D01*
D21*
G36*
X138315000Y-59315000D02*
X39685000Y-59315000D01*
X39685000Y-39120000D01*
X39816655Y-39120000D01*
X39930729Y-39693489D01*
X40255585Y-40179670D01*
X40570366Y-40390000D01*
X40255585Y-40600330D01*
X39930729Y-41086511D01*
X39816655Y-41660000D01*
X39930729Y-42233489D01*
X40255585Y-42719670D01*
X40570366Y-42930000D01*
X40255585Y-43140330D01*
X39930729Y-43626511D01*
X39816655Y-44200000D01*
X39930729Y-44773489D01*
X40255585Y-45259670D01*
X40570366Y-45470000D01*
X40255585Y-45680330D01*
X39930729Y-46166511D01*
X39816655Y-46740000D01*
X39930729Y-47313489D01*
X40255585Y-47799670D01*
X40570366Y-48010000D01*
X40255585Y-48220330D01*
X39930729Y-48706511D01*
X39816655Y-49280000D01*
X39930729Y-49853489D01*
X40255585Y-50339670D01*
X40570366Y-50550000D01*
X40255585Y-50760330D01*
X39930729Y-51246511D01*
X39816655Y-51820000D01*
X39930729Y-52393489D01*
X40255585Y-52879670D01*
X40570366Y-53090000D01*
X40255585Y-53300330D01*
X39930729Y-53786511D01*
X39816655Y-54360000D01*
X39930729Y-54933489D01*
X40255585Y-55419670D01*
X40570366Y-55630000D01*
X40255585Y-55840330D01*
X39930729Y-56326511D01*
X39816655Y-56900000D01*
X39930729Y-57473489D01*
X40255585Y-57959670D01*
X40741766Y-58284526D01*
X41315255Y-58398600D01*
X41684745Y-58398600D01*
X42258234Y-58284526D01*
X42744415Y-57959670D01*
X43069271Y-57473489D01*
X43183345Y-56900000D01*
X43069271Y-56326511D01*
X42998888Y-56221175D01*
X53864803Y-56221175D01*
X54037233Y-56638486D01*
X54356235Y-56958045D01*
X54773244Y-57131203D01*
X55224775Y-57131597D01*
X55481625Y-57025468D01*
X55415197Y-57185444D01*
X55414803Y-57636975D01*
X55587233Y-58054286D01*
X55906235Y-58373845D01*
X56323244Y-58547003D01*
X56774775Y-58547397D01*
X57192086Y-58374967D01*
X57511645Y-58055965D01*
X57684803Y-57638956D01*
X57685197Y-57187425D01*
X57512767Y-56770114D01*
X57193765Y-56450555D01*
X56776756Y-56277397D01*
X56325225Y-56277003D01*
X56068375Y-56383132D01*
X56134803Y-56223156D01*
X56135197Y-55771625D01*
X55962767Y-55354314D01*
X55643765Y-55034755D01*
X55226756Y-54861597D01*
X54775225Y-54861203D01*
X54357914Y-55033633D01*
X54038355Y-55352635D01*
X53865197Y-55769644D01*
X53864803Y-56221175D01*
X42998888Y-56221175D01*
X42744415Y-55840330D01*
X42429634Y-55630000D01*
X42744415Y-55419670D01*
X43069271Y-54933489D01*
X43183345Y-54360000D01*
X43118396Y-54033475D01*
X64298203Y-54033475D01*
X64470633Y-54450786D01*
X64789635Y-54770345D01*
X65206644Y-54943503D01*
X65658175Y-54943897D01*
X66075486Y-54771467D01*
X66395045Y-54452465D01*
X66568203Y-54035456D01*
X66568597Y-53583925D01*
X66519032Y-53463967D01*
X79074430Y-53463967D01*
X79074430Y-54536033D01*
X79179900Y-55066268D01*
X79480254Y-55515779D01*
X79929765Y-55816133D01*
X80460000Y-55921603D01*
X80990235Y-55816133D01*
X81439746Y-55515779D01*
X81740100Y-55066268D01*
X81845570Y-54536033D01*
X81845570Y-53463967D01*
X84154430Y-53463967D01*
X84154430Y-54536033D01*
X84259900Y-55066268D01*
X84560254Y-55515779D01*
X85009765Y-55816133D01*
X85540000Y-55921603D01*
X86070235Y-55816133D01*
X86519746Y-55515779D01*
X86820100Y-55066268D01*
X86925570Y-54536033D01*
X86925570Y-53463967D01*
X91074430Y-53463967D01*
X91074430Y-54536033D01*
X91179900Y-55066268D01*
X91480254Y-55515779D01*
X91929765Y-55816133D01*
X92460000Y-55921603D01*
X92990235Y-55816133D01*
X93439746Y-55515779D01*
X93740100Y-55066268D01*
X93845570Y-54536033D01*
X93845570Y-53463967D01*
X96154430Y-53463967D01*
X96154430Y-54536033D01*
X96259900Y-55066268D01*
X96560254Y-55515779D01*
X97009765Y-55816133D01*
X97540000Y-55921603D01*
X98070235Y-55816133D01*
X98519746Y-55515779D01*
X98820100Y-55066268D01*
X98925570Y-54536033D01*
X98925570Y-53463967D01*
X98820100Y-52933732D01*
X98519746Y-52484221D01*
X98070235Y-52183867D01*
X97540000Y-52078397D01*
X97009765Y-52183867D01*
X96560254Y-52484221D01*
X96259900Y-52933732D01*
X96154430Y-53463967D01*
X93845570Y-53463967D01*
X93740100Y-52933732D01*
X93439746Y-52484221D01*
X92990235Y-52183867D01*
X92460000Y-52078397D01*
X91929765Y-52183867D01*
X91480254Y-52484221D01*
X91179900Y-52933732D01*
X91074430Y-53463967D01*
X86925570Y-53463967D01*
X86820100Y-52933732D01*
X86519746Y-52484221D01*
X86070235Y-52183867D01*
X85540000Y-52078397D01*
X85009765Y-52183867D01*
X84560254Y-52484221D01*
X84259900Y-52933732D01*
X84154430Y-53463967D01*
X81845570Y-53463967D01*
X81740100Y-52933732D01*
X81439746Y-52484221D01*
X80990235Y-52183867D01*
X80460000Y-52078397D01*
X79929765Y-52183867D01*
X79480254Y-52484221D01*
X79179900Y-52933732D01*
X79074430Y-53463967D01*
X66519032Y-53463967D01*
X66396167Y-53166614D01*
X66077165Y-52847055D01*
X65660156Y-52673897D01*
X65208625Y-52673503D01*
X64791314Y-52845933D01*
X64471755Y-53164935D01*
X64298597Y-53581944D01*
X64298203Y-54033475D01*
X43118396Y-54033475D01*
X43069271Y-53786511D01*
X42744415Y-53300330D01*
X42429634Y-53090000D01*
X42744415Y-52879670D01*
X42777603Y-52830000D01*
X56585700Y-52830000D01*
X56972210Y-52753118D01*
X57299878Y-52534178D01*
X59718500Y-50115556D01*
X59734322Y-50131378D01*
X60061990Y-50350318D01*
X60448500Y-50427200D01*
X65059026Y-50427200D01*
X65038355Y-50447835D01*
X64865197Y-50864844D01*
X64864803Y-51316375D01*
X65037233Y-51733686D01*
X65356235Y-52053245D01*
X65773244Y-52226403D01*
X66224775Y-52226797D01*
X66642086Y-52054367D01*
X66961645Y-51735365D01*
X67134803Y-51318356D01*
X67135197Y-50866825D01*
X66962767Y-50449514D01*
X66940492Y-50427200D01*
X77122800Y-50427200D01*
X77509310Y-50350318D01*
X77836978Y-50131378D01*
X79472439Y-48495917D01*
X79179900Y-48933732D01*
X79074430Y-49463967D01*
X79074430Y-50536033D01*
X79179900Y-51066268D01*
X79480254Y-51515779D01*
X79929765Y-51816133D01*
X80460000Y-51921603D01*
X80990235Y-51816133D01*
X81439746Y-51515779D01*
X81740100Y-51066268D01*
X81845570Y-50536033D01*
X81845570Y-49463967D01*
X84154430Y-49463967D01*
X84154430Y-50536033D01*
X84259900Y-51066268D01*
X84560254Y-51515779D01*
X85009765Y-51816133D01*
X85540000Y-51921603D01*
X86070235Y-51816133D01*
X86519746Y-51515779D01*
X86820100Y-51066268D01*
X86925570Y-50536033D01*
X86925570Y-49463967D01*
X86820100Y-48933732D01*
X86519746Y-48484221D01*
X86070235Y-48183867D01*
X85540000Y-48078397D01*
X85009765Y-48183867D01*
X84560254Y-48484221D01*
X84259900Y-48933732D01*
X84154430Y-49463967D01*
X81845570Y-49463967D01*
X81740100Y-48933732D01*
X81439746Y-48484221D01*
X80990235Y-48183867D01*
X80460000Y-48078397D01*
X79929765Y-48183867D01*
X79491950Y-48476406D01*
X82571328Y-45397028D01*
X82816661Y-45397242D01*
X83330303Y-45185010D01*
X83723629Y-44792370D01*
X83809949Y-44584488D01*
X83894990Y-44790303D01*
X84287630Y-45183629D01*
X84800900Y-45396757D01*
X85356661Y-45397242D01*
X85870303Y-45185010D01*
X86263629Y-44792370D01*
X86476757Y-44279100D01*
X86477242Y-43723339D01*
X86265010Y-43209697D01*
X85872370Y-42816371D01*
X85359100Y-42603243D01*
X84803339Y-42602758D01*
X84289697Y-42814990D01*
X83896371Y-43207630D01*
X83810051Y-43415512D01*
X83725010Y-43209697D01*
X83332370Y-42816371D01*
X82819100Y-42603243D01*
X82263339Y-42602758D01*
X81749697Y-42814990D01*
X81356371Y-43207630D01*
X81270051Y-43415512D01*
X81185010Y-43209697D01*
X80792370Y-42816371D01*
X80279100Y-42603243D01*
X79723339Y-42602758D01*
X79209697Y-42814990D01*
X78816371Y-43207630D01*
X78603243Y-43720900D01*
X78602758Y-44276661D01*
X78814990Y-44790303D01*
X79207630Y-45183629D01*
X79716651Y-45394993D01*
X76704444Y-48407200D01*
X65825576Y-48407200D01*
X65900503Y-48226756D01*
X65900897Y-47775225D01*
X65728467Y-47357914D01*
X65409465Y-47038355D01*
X64992456Y-46865197D01*
X64540925Y-46864803D01*
X64123614Y-47037233D01*
X63804055Y-47356235D01*
X63630897Y-47773244D01*
X63630503Y-48224775D01*
X63705880Y-48407200D01*
X60866856Y-48407200D01*
X60805545Y-48345889D01*
X60681267Y-48045114D01*
X60362265Y-47725555D01*
X59945256Y-47552397D01*
X59493725Y-47552003D01*
X59076414Y-47724433D01*
X58756855Y-48043435D01*
X58631129Y-48346215D01*
X56167344Y-50810000D01*
X42777603Y-50810000D01*
X42744415Y-50760330D01*
X42429634Y-50550000D01*
X42744415Y-50339670D01*
X42777603Y-50290000D01*
X45891400Y-50290000D01*
X46277910Y-50213118D01*
X46605578Y-49994178D01*
X47130911Y-49468845D01*
X47431686Y-49344567D01*
X47604479Y-49172075D01*
X50449803Y-49172075D01*
X50622233Y-49589386D01*
X50941235Y-49908945D01*
X51358244Y-50082103D01*
X51809775Y-50082497D01*
X52227086Y-49910067D01*
X52546645Y-49591065D01*
X52719803Y-49174056D01*
X52720197Y-48722525D01*
X52547767Y-48305214D01*
X52228765Y-47985655D01*
X51811756Y-47812497D01*
X51360225Y-47812103D01*
X50942914Y-47984533D01*
X50623355Y-48303535D01*
X50450197Y-48720544D01*
X50449803Y-49172075D01*
X47604479Y-49172075D01*
X47751245Y-49025565D01*
X47924403Y-48608556D01*
X47924797Y-48157025D01*
X47752367Y-47739714D01*
X47433365Y-47420155D01*
X47362129Y-47390575D01*
X54619703Y-47390575D01*
X54792133Y-47807886D01*
X55111135Y-48127445D01*
X55528144Y-48300603D01*
X55979675Y-48300997D01*
X56396986Y-48128567D01*
X56716545Y-47809565D01*
X56889703Y-47392556D01*
X56890097Y-46941025D01*
X56717667Y-46523714D01*
X56398665Y-46204155D01*
X55981656Y-46030997D01*
X55530125Y-46030603D01*
X55112814Y-46203033D01*
X54793255Y-46522035D01*
X54620097Y-46939044D01*
X54619703Y-47390575D01*
X47362129Y-47390575D01*
X47016356Y-47246997D01*
X46564825Y-47246603D01*
X46147514Y-47419033D01*
X45827955Y-47738035D01*
X45702229Y-48040815D01*
X45473044Y-48270000D01*
X42777603Y-48270000D01*
X42744415Y-48220330D01*
X42429634Y-48010000D01*
X42744415Y-47799670D01*
X43069271Y-47313489D01*
X43183345Y-46740000D01*
X43069271Y-46166511D01*
X42744415Y-45680330D01*
X42429634Y-45470000D01*
X42744415Y-45259670D01*
X42777603Y-45210000D01*
X54119900Y-45210000D01*
X54506410Y-45133118D01*
X54834078Y-44914178D01*
X55267856Y-44480400D01*
X61158989Y-44480400D01*
X61088297Y-44650644D01*
X61087903Y-45102175D01*
X61260333Y-45519486D01*
X61579335Y-45839045D01*
X61996344Y-46012203D01*
X62447875Y-46012597D01*
X62865186Y-45840167D01*
X63184745Y-45521165D01*
X63357903Y-45104156D01*
X63358297Y-44652625D01*
X63287135Y-44480400D01*
X70194358Y-44480400D01*
X70231534Y-46743074D01*
X70115197Y-47023244D01*
X70114803Y-47474775D01*
X70287233Y-47892086D01*
X70606235Y-48211645D01*
X71023244Y-48384803D01*
X71474775Y-48385197D01*
X71892086Y-48212767D01*
X72211645Y-47893765D01*
X72384803Y-47476756D01*
X72385197Y-47025225D01*
X72251112Y-46700715D01*
X72226058Y-45175875D01*
X73864803Y-45175875D01*
X74037233Y-45593186D01*
X74356235Y-45912745D01*
X74773244Y-46085903D01*
X75224775Y-46086297D01*
X75642086Y-45913867D01*
X75961645Y-45594865D01*
X76134803Y-45177856D01*
X76135197Y-44726325D01*
X75962767Y-44309014D01*
X75643765Y-43989455D01*
X75226756Y-43816297D01*
X74775225Y-43815903D01*
X74357914Y-43988333D01*
X74038355Y-44307335D01*
X73865197Y-44724344D01*
X73864803Y-45175875D01*
X72226058Y-45175875D01*
X72203875Y-43825771D01*
X72308018Y-43669910D01*
X72384900Y-43283400D01*
X72384900Y-39787471D01*
X72433732Y-39820100D01*
X72963967Y-39925570D01*
X74036033Y-39925570D01*
X74566268Y-39820100D01*
X75015779Y-39519746D01*
X75316133Y-39070235D01*
X75421603Y-38540000D01*
X75316133Y-38009765D01*
X75258827Y-37924000D01*
X75735344Y-37924000D01*
X78693022Y-40881678D01*
X79020690Y-41100618D01*
X79407200Y-41177500D01*
X82050200Y-41177500D01*
X82436710Y-41100618D01*
X82764378Y-40881678D01*
X83966511Y-39679545D01*
X84267286Y-39555267D01*
X84458858Y-39364029D01*
X84560254Y-39515779D01*
X85009765Y-39816133D01*
X85540000Y-39921603D01*
X86070235Y-39816133D01*
X86519746Y-39515779D01*
X86820100Y-39066268D01*
X86925570Y-38536033D01*
X86925570Y-37463967D01*
X91074430Y-37463967D01*
X91074430Y-38536033D01*
X91179900Y-39066268D01*
X91450000Y-39470501D01*
X91450000Y-40125100D01*
X91526882Y-40511610D01*
X91745822Y-40839278D01*
X91990000Y-41083456D01*
X91990000Y-43034304D01*
X91816371Y-43207630D01*
X91603243Y-43720900D01*
X91602758Y-44276661D01*
X91814990Y-44790303D01*
X92207630Y-45183629D01*
X92720900Y-45396757D01*
X93276661Y-45397242D01*
X93790303Y-45185010D01*
X94183629Y-44792370D01*
X94269949Y-44584488D01*
X94354990Y-44790303D01*
X94747630Y-45183629D01*
X95256651Y-45394993D01*
X93371722Y-47279922D01*
X93152782Y-47607590D01*
X93075900Y-47994100D01*
X93075900Y-48241107D01*
X92990235Y-48183867D01*
X92460000Y-48078397D01*
X91929765Y-48183867D01*
X91480254Y-48484221D01*
X91179900Y-48933732D01*
X91074430Y-49463967D01*
X91074430Y-50536033D01*
X91179900Y-51066268D01*
X91480254Y-51515779D01*
X91929765Y-51816133D01*
X92460000Y-51921603D01*
X92990235Y-51816133D01*
X93439746Y-51515779D01*
X93740100Y-51066268D01*
X93751292Y-51010000D01*
X94085900Y-51010000D01*
X94472410Y-50933118D01*
X94800078Y-50714178D01*
X95019018Y-50386510D01*
X95095900Y-50000000D01*
X95095900Y-49463967D01*
X96154430Y-49463967D01*
X96154430Y-50536033D01*
X96259900Y-51066268D01*
X96560254Y-51515779D01*
X97009765Y-51816133D01*
X97540000Y-51921603D01*
X98070235Y-51816133D01*
X98519746Y-51515779D01*
X98820100Y-51066268D01*
X98925570Y-50536033D01*
X98925570Y-49463967D01*
X98820100Y-48933732D01*
X98519746Y-48484221D01*
X98070235Y-48183867D01*
X97540000Y-48078397D01*
X97009765Y-48183867D01*
X96560254Y-48484221D01*
X96259900Y-48933732D01*
X96154430Y-49463967D01*
X95095900Y-49463967D01*
X95095900Y-48412456D01*
X96437695Y-47070661D01*
X122602758Y-47070661D01*
X122814990Y-47584303D01*
X123207630Y-47977629D01*
X123720900Y-48190757D01*
X124276661Y-48191242D01*
X124790303Y-47979010D01*
X125183629Y-47586370D01*
X125396757Y-47073100D01*
X125397242Y-46517339D01*
X125185010Y-46003697D01*
X124792370Y-45610371D01*
X124279100Y-45397243D01*
X123723339Y-45396758D01*
X123209697Y-45608990D01*
X122816371Y-46001630D01*
X122603243Y-46514900D01*
X122602758Y-47070661D01*
X96437695Y-47070661D01*
X98111328Y-45397028D01*
X98356661Y-45397242D01*
X98870303Y-45185010D01*
X99263629Y-44792370D01*
X99476757Y-44279100D01*
X99476759Y-44276661D01*
X119935758Y-44276661D01*
X120147990Y-44790303D01*
X120540630Y-45183629D01*
X121053900Y-45396757D01*
X121609661Y-45397242D01*
X122123303Y-45185010D01*
X122516629Y-44792370D01*
X122729757Y-44279100D01*
X122730242Y-43723339D01*
X122518010Y-43209697D01*
X122125370Y-42816371D01*
X121612100Y-42603243D01*
X121056339Y-42602758D01*
X120542697Y-42814990D01*
X120149371Y-43207630D01*
X119936243Y-43720900D01*
X119935758Y-44276661D01*
X99476759Y-44276661D01*
X99477242Y-43723339D01*
X99265010Y-43209697D01*
X98872370Y-42816371D01*
X98359100Y-42603243D01*
X97803339Y-42602758D01*
X97289697Y-42814990D01*
X96896371Y-43207630D01*
X96810051Y-43415512D01*
X96725010Y-43209697D01*
X96332370Y-42816371D01*
X95819100Y-42603243D01*
X95263339Y-42602758D01*
X94749697Y-42814990D01*
X94356371Y-43207630D01*
X94270051Y-43415512D01*
X94185010Y-43209697D01*
X94010000Y-43034381D01*
X94010000Y-41609661D01*
X122602758Y-41609661D01*
X122814990Y-42123303D01*
X123207630Y-42516629D01*
X123720900Y-42729757D01*
X124276661Y-42730242D01*
X124492133Y-42641211D01*
X124592990Y-42885303D01*
X124985630Y-43278629D01*
X125276703Y-43399493D01*
X125143243Y-43720900D01*
X125142758Y-44276661D01*
X125354990Y-44790303D01*
X125747630Y-45183629D01*
X126260900Y-45396757D01*
X126816661Y-45397242D01*
X127330303Y-45185010D01*
X127723629Y-44792370D01*
X127936757Y-44279100D01*
X127937242Y-43723339D01*
X127725010Y-43209697D01*
X127332370Y-42816371D01*
X127041297Y-42695507D01*
X127174757Y-42374100D01*
X127175242Y-41818339D01*
X126963010Y-41304697D01*
X126570370Y-40911371D01*
X126057100Y-40698243D01*
X125501339Y-40697758D01*
X125285867Y-40786789D01*
X125185010Y-40542697D01*
X124792370Y-40149371D01*
X124279100Y-39936243D01*
X123723339Y-39935758D01*
X123209697Y-40147990D01*
X122816371Y-40540630D01*
X122603243Y-41053900D01*
X122602758Y-41609661D01*
X94010000Y-41609661D01*
X94010000Y-40665100D01*
X93933118Y-40278590D01*
X93714178Y-39950922D01*
X93470000Y-39706744D01*
X93470000Y-39470501D01*
X93740100Y-39066268D01*
X93845570Y-38536033D01*
X93845570Y-37463967D01*
X96154430Y-37463967D01*
X96154430Y-38536033D01*
X96259900Y-39066268D01*
X96560254Y-39515779D01*
X97009765Y-39816133D01*
X97540000Y-39921603D01*
X98070235Y-39816133D01*
X98519746Y-39515779D01*
X98820100Y-39066268D01*
X98925570Y-38536033D01*
X98925570Y-37463967D01*
X98820100Y-36933732D01*
X98519746Y-36484221D01*
X98070235Y-36183867D01*
X97540000Y-36078397D01*
X97009765Y-36183867D01*
X96560254Y-36484221D01*
X96259900Y-36933732D01*
X96154430Y-37463967D01*
X93845570Y-37463967D01*
X93740100Y-36933732D01*
X93439746Y-36484221D01*
X92990235Y-36183867D01*
X92460000Y-36078397D01*
X91929765Y-36183867D01*
X91480254Y-36484221D01*
X91179900Y-36933732D01*
X91074430Y-37463967D01*
X86925570Y-37463967D01*
X86820100Y-36933732D01*
X86519746Y-36484221D01*
X86070235Y-36183867D01*
X85540000Y-36078397D01*
X85009765Y-36183867D01*
X84560254Y-36484221D01*
X84259900Y-36933732D01*
X84154430Y-37463967D01*
X84154430Y-37583296D01*
X83851956Y-37457697D01*
X83400425Y-37457303D01*
X82983114Y-37629733D01*
X82663555Y-37948735D01*
X82537829Y-38251515D01*
X81744327Y-39045017D01*
X81845570Y-38536033D01*
X81845570Y-37463967D01*
X81740100Y-36933732D01*
X81439746Y-36484221D01*
X80990235Y-36183867D01*
X80460000Y-36078397D01*
X79929765Y-36183867D01*
X79480254Y-36484221D01*
X79179900Y-36933732D01*
X79074430Y-37463967D01*
X79074430Y-38406374D01*
X76867878Y-36199822D01*
X76540210Y-35980882D01*
X76153700Y-35904000D01*
X66506947Y-35904000D01*
X66772545Y-35638865D01*
X66945703Y-35221856D01*
X66946097Y-34770325D01*
X66773667Y-34353014D01*
X66454665Y-34033455D01*
X66037656Y-33860297D01*
X65586125Y-33859903D01*
X65168814Y-34032333D01*
X64849255Y-34351335D01*
X64676097Y-34768344D01*
X64675703Y-35219875D01*
X64848133Y-35637186D01*
X65114482Y-35904000D01*
X60761410Y-35904000D01*
X60858303Y-35670656D01*
X60858697Y-35219125D01*
X60686267Y-34801814D01*
X60367265Y-34482255D01*
X59950256Y-34309097D01*
X59498725Y-34308703D01*
X59081414Y-34481133D01*
X58761855Y-34800135D01*
X58588697Y-35217144D01*
X58588303Y-35668675D01*
X58685538Y-35904000D01*
X57541765Y-35904000D01*
X57854645Y-35591665D01*
X58027803Y-35174656D01*
X58028197Y-34723125D01*
X57855767Y-34305814D01*
X57536765Y-33986255D01*
X57119756Y-33813097D01*
X56668225Y-33812703D01*
X56250914Y-33985133D01*
X55931355Y-34304135D01*
X55758197Y-34721144D01*
X55757803Y-35172675D01*
X55930233Y-35589986D01*
X56243700Y-35904000D01*
X52447600Y-35904000D01*
X52439874Y-35905537D01*
X52432128Y-35904119D01*
X52246936Y-35943915D01*
X52061090Y-35980882D01*
X52054540Y-35985259D01*
X52046841Y-35986913D01*
X51890973Y-36094550D01*
X51733422Y-36199822D01*
X51729046Y-36206372D01*
X51722565Y-36210847D01*
X47988975Y-40060619D01*
X46837045Y-38908689D01*
X46712767Y-38607914D01*
X46393765Y-38288355D01*
X45976756Y-38115197D01*
X45525225Y-38114803D01*
X45107914Y-38287233D01*
X44788355Y-38606235D01*
X44615197Y-39023244D01*
X44614803Y-39474775D01*
X44787233Y-39892086D01*
X45106235Y-40211645D01*
X45409015Y-40337371D01*
X46912955Y-41841311D01*
X47037233Y-42142086D01*
X47356235Y-42461645D01*
X47773244Y-42634803D01*
X48224775Y-42635197D01*
X48642086Y-42462767D01*
X48961645Y-42143765D01*
X49095680Y-41820974D01*
X51786982Y-39045925D01*
X51923733Y-39376886D01*
X52242735Y-39696445D01*
X52659744Y-39869603D01*
X53111275Y-39869997D01*
X53528586Y-39697567D01*
X53848145Y-39378565D01*
X54021303Y-38961556D01*
X54021697Y-38510025D01*
X53849267Y-38092714D01*
X53680847Y-37924000D01*
X70595122Y-37924000D01*
X70441782Y-38153490D01*
X70364900Y-38540000D01*
X70364900Y-42460400D01*
X61355499Y-42460400D01*
X61481186Y-42408467D01*
X61800745Y-42089465D01*
X61973903Y-41672456D01*
X61974297Y-41220925D01*
X61801867Y-40803614D01*
X61482865Y-40484055D01*
X61065856Y-40310897D01*
X60614325Y-40310503D01*
X60197014Y-40482933D01*
X59877455Y-40801935D01*
X59704297Y-41218944D01*
X59703903Y-41670475D01*
X59876333Y-42087786D01*
X60195335Y-42407345D01*
X60323105Y-42460400D01*
X54849500Y-42460400D01*
X54462990Y-42537282D01*
X54135322Y-42756222D01*
X53701544Y-43190000D01*
X42777603Y-43190000D01*
X42744415Y-43140330D01*
X42429634Y-42930000D01*
X42744415Y-42719670D01*
X43069271Y-42233489D01*
X43183345Y-41660000D01*
X43069271Y-41086511D01*
X42744415Y-40600330D01*
X42429634Y-40390000D01*
X42744415Y-40179670D01*
X43069271Y-39693489D01*
X43183345Y-39120000D01*
X43069271Y-38546511D01*
X42744415Y-38060330D01*
X42434931Y-37853539D01*
X42850732Y-37482036D01*
X43104709Y-36954791D01*
X43107358Y-36939026D01*
X42986217Y-36707000D01*
X41627000Y-36707000D01*
X41627000Y-36727000D01*
X41373000Y-36727000D01*
X41373000Y-36707000D01*
X40013783Y-36707000D01*
X39892642Y-36939026D01*
X39895291Y-36954791D01*
X40149268Y-37482036D01*
X40565069Y-37853539D01*
X40255585Y-38060330D01*
X39930729Y-38546511D01*
X39816655Y-39120000D01*
X39685000Y-39120000D01*
X39685000Y-34040000D01*
X39816655Y-34040000D01*
X39930729Y-34613489D01*
X40255585Y-35099670D01*
X40565069Y-35306461D01*
X40149268Y-35677964D01*
X39895291Y-36205209D01*
X39892642Y-36220974D01*
X40013783Y-36453000D01*
X41373000Y-36453000D01*
X41373000Y-36433000D01*
X41627000Y-36433000D01*
X41627000Y-36453000D01*
X42986217Y-36453000D01*
X43107358Y-36220974D01*
X43104709Y-36205209D01*
X42850732Y-35677964D01*
X42434931Y-35306461D01*
X42744415Y-35099670D01*
X42904373Y-34860275D01*
X48054003Y-34860275D01*
X48226433Y-35277586D01*
X48545435Y-35597145D01*
X48962444Y-35770303D01*
X49413975Y-35770697D01*
X49831286Y-35598267D01*
X50150845Y-35279265D01*
X50324003Y-34862256D01*
X50324397Y-34410725D01*
X50151967Y-33993414D01*
X49832965Y-33673855D01*
X49415956Y-33500697D01*
X48964425Y-33500303D01*
X48547114Y-33672733D01*
X48227555Y-33991735D01*
X48054397Y-34408744D01*
X48054003Y-34860275D01*
X42904373Y-34860275D01*
X43069271Y-34613489D01*
X43183345Y-34040000D01*
X43069271Y-33466511D01*
X43064921Y-33460000D01*
X71578397Y-33460000D01*
X71683867Y-33990235D01*
X71984221Y-34439746D01*
X72433732Y-34740100D01*
X72963967Y-34845570D01*
X74036033Y-34845570D01*
X74566268Y-34740100D01*
X75015779Y-34439746D01*
X75316133Y-33990235D01*
X75421603Y-33460000D01*
X75316133Y-32929765D01*
X75258893Y-32844100D01*
X79239790Y-32844100D01*
X79179900Y-32933732D01*
X79074430Y-33463967D01*
X79074430Y-34536033D01*
X79179900Y-35066268D01*
X79480254Y-35515779D01*
X79929765Y-35816133D01*
X80460000Y-35921603D01*
X80990235Y-35816133D01*
X81439746Y-35515779D01*
X81740100Y-35066268D01*
X81845570Y-34536033D01*
X81845570Y-33463967D01*
X81740100Y-32933732D01*
X81680210Y-32844100D01*
X84319790Y-32844100D01*
X84259900Y-32933732D01*
X84154430Y-33463967D01*
X84154430Y-34536033D01*
X84259900Y-35066268D01*
X84560254Y-35515779D01*
X85009765Y-35816133D01*
X85540000Y-35921603D01*
X86070235Y-35816133D01*
X86519746Y-35515779D01*
X86820100Y-35066268D01*
X86925570Y-34536033D01*
X86925570Y-33463967D01*
X86820100Y-32933732D01*
X86760210Y-32844100D01*
X88249844Y-32844100D01*
X90119922Y-34714178D01*
X90447590Y-34933118D01*
X90834100Y-35010000D01*
X91168708Y-35010000D01*
X91179900Y-35066268D01*
X91480254Y-35515779D01*
X91929765Y-35816133D01*
X92460000Y-35921603D01*
X92990235Y-35816133D01*
X93439746Y-35515779D01*
X93740100Y-35066268D01*
X93845570Y-34536033D01*
X93845570Y-33463967D01*
X96154430Y-33463967D01*
X96154430Y-34536033D01*
X96259900Y-35066268D01*
X96560254Y-35515779D01*
X97009765Y-35816133D01*
X97540000Y-35921603D01*
X98070235Y-35816133D01*
X98519746Y-35515779D01*
X98820100Y-35066268D01*
X98925570Y-34536033D01*
X98925570Y-33463967D01*
X98820100Y-32933732D01*
X98519746Y-32484221D01*
X98070235Y-32183867D01*
X97540000Y-32078397D01*
X97009765Y-32183867D01*
X96560254Y-32484221D01*
X96259900Y-32933732D01*
X96154430Y-33463967D01*
X93845570Y-33463967D01*
X93740100Y-32933732D01*
X93439746Y-32484221D01*
X92990235Y-32183867D01*
X92460000Y-32078397D01*
X91929765Y-32183867D01*
X91480254Y-32484221D01*
X91186424Y-32923968D01*
X89382378Y-31119922D01*
X89054710Y-30900982D01*
X88668200Y-30824100D01*
X73500000Y-30824100D01*
X73113490Y-30900982D01*
X72785822Y-31119922D01*
X72566882Y-31447590D01*
X72490000Y-31834100D01*
X72490000Y-32168708D01*
X72433732Y-32179900D01*
X71984221Y-32480254D01*
X71683867Y-32929765D01*
X71578397Y-33460000D01*
X43064921Y-33460000D01*
X42744415Y-32980330D01*
X42730087Y-32970757D01*
X42751317Y-32966762D01*
X42967441Y-32827690D01*
X43112431Y-32615490D01*
X43163440Y-32363600D01*
X43163440Y-31408175D01*
X55757803Y-31408175D01*
X55930233Y-31825486D01*
X56249235Y-32145045D01*
X56666244Y-32318203D01*
X57117775Y-32318597D01*
X57436081Y-32187075D01*
X58866603Y-32187075D01*
X59039033Y-32604386D01*
X59358035Y-32923945D01*
X59775044Y-33097103D01*
X60226575Y-33097497D01*
X60643886Y-32925067D01*
X60963445Y-32606065D01*
X61136603Y-32189056D01*
X61136997Y-31737525D01*
X60964567Y-31320214D01*
X60645565Y-31000655D01*
X60228556Y-30827497D01*
X59777025Y-30827103D01*
X59359714Y-30999533D01*
X59040155Y-31318535D01*
X58866997Y-31735544D01*
X58866603Y-32187075D01*
X57436081Y-32187075D01*
X57535086Y-32146167D01*
X57854645Y-31827165D01*
X58027803Y-31410156D01*
X58028197Y-30958625D01*
X57855767Y-30541314D01*
X57536765Y-30221755D01*
X57119756Y-30048597D01*
X56668225Y-30048203D01*
X56250914Y-30220633D01*
X55931355Y-30539635D01*
X55758197Y-30956644D01*
X55757803Y-31408175D01*
X43163440Y-31408175D01*
X43163440Y-30636400D01*
X43119162Y-30401083D01*
X42980090Y-30184959D01*
X42767890Y-30039969D01*
X42516000Y-29988960D01*
X40484000Y-29988960D01*
X40248683Y-30033238D01*
X40032559Y-30172310D01*
X39887569Y-30384510D01*
X39836560Y-30636400D01*
X39836560Y-32363600D01*
X39880838Y-32598917D01*
X40019910Y-32815041D01*
X40232110Y-32960031D01*
X40273439Y-32968400D01*
X40255585Y-32980330D01*
X39930729Y-33466511D01*
X39816655Y-34040000D01*
X39685000Y-34040000D01*
X39685000Y-29685000D01*
X138315000Y-29685000D01*
X138315000Y-59315000D01*
X138315000Y-59315000D01*
G37*
X138315000Y-59315000D02*
X39685000Y-59315000D01*
X39685000Y-39120000D01*
X39816655Y-39120000D01*
X39930729Y-39693489D01*
X40255585Y-40179670D01*
X40570366Y-40390000D01*
X40255585Y-40600330D01*
X39930729Y-41086511D01*
X39816655Y-41660000D01*
X39930729Y-42233489D01*
X40255585Y-42719670D01*
X40570366Y-42930000D01*
X40255585Y-43140330D01*
X39930729Y-43626511D01*
X39816655Y-44200000D01*
X39930729Y-44773489D01*
X40255585Y-45259670D01*
X40570366Y-45470000D01*
X40255585Y-45680330D01*
X39930729Y-46166511D01*
X39816655Y-46740000D01*
X39930729Y-47313489D01*
X40255585Y-47799670D01*
X40570366Y-48010000D01*
X40255585Y-48220330D01*
X39930729Y-48706511D01*
X39816655Y-49280000D01*
X39930729Y-49853489D01*
X40255585Y-50339670D01*
X40570366Y-50550000D01*
X40255585Y-50760330D01*
X39930729Y-51246511D01*
X39816655Y-51820000D01*
X39930729Y-52393489D01*
X40255585Y-52879670D01*
X40570366Y-53090000D01*
X40255585Y-53300330D01*
X39930729Y-53786511D01*
X39816655Y-54360000D01*
X39930729Y-54933489D01*
X40255585Y-55419670D01*
X40570366Y-55630000D01*
X40255585Y-55840330D01*
X39930729Y-56326511D01*
X39816655Y-56900000D01*
X39930729Y-57473489D01*
X40255585Y-57959670D01*
X40741766Y-58284526D01*
X41315255Y-58398600D01*
X41684745Y-58398600D01*
X42258234Y-58284526D01*
X42744415Y-57959670D01*
X43069271Y-57473489D01*
X43183345Y-56900000D01*
X43069271Y-56326511D01*
X42998888Y-56221175D01*
X53864803Y-56221175D01*
X54037233Y-56638486D01*
X54356235Y-56958045D01*
X54773244Y-57131203D01*
X55224775Y-57131597D01*
X55481625Y-57025468D01*
X55415197Y-57185444D01*
X55414803Y-57636975D01*
X55587233Y-58054286D01*
X55906235Y-58373845D01*
X56323244Y-58547003D01*
X56774775Y-58547397D01*
X57192086Y-58374967D01*
X57511645Y-58055965D01*
X57684803Y-57638956D01*
X57685197Y-57187425D01*
X57512767Y-56770114D01*
X57193765Y-56450555D01*
X56776756Y-56277397D01*
X56325225Y-56277003D01*
X56068375Y-56383132D01*
X56134803Y-56223156D01*
X56135197Y-55771625D01*
X55962767Y-55354314D01*
X55643765Y-55034755D01*
X55226756Y-54861597D01*
X54775225Y-54861203D01*
X54357914Y-55033633D01*
X54038355Y-55352635D01*
X53865197Y-55769644D01*
X53864803Y-56221175D01*
X42998888Y-56221175D01*
X42744415Y-55840330D01*
X42429634Y-55630000D01*
X42744415Y-55419670D01*
X43069271Y-54933489D01*
X43183345Y-54360000D01*
X43118396Y-54033475D01*
X64298203Y-54033475D01*
X64470633Y-54450786D01*
X64789635Y-54770345D01*
X65206644Y-54943503D01*
X65658175Y-54943897D01*
X66075486Y-54771467D01*
X66395045Y-54452465D01*
X66568203Y-54035456D01*
X66568597Y-53583925D01*
X66519032Y-53463967D01*
X79074430Y-53463967D01*
X79074430Y-54536033D01*
X79179900Y-55066268D01*
X79480254Y-55515779D01*
X79929765Y-55816133D01*
X80460000Y-55921603D01*
X80990235Y-55816133D01*
X81439746Y-55515779D01*
X81740100Y-55066268D01*
X81845570Y-54536033D01*
X81845570Y-53463967D01*
X84154430Y-53463967D01*
X84154430Y-54536033D01*
X84259900Y-55066268D01*
X84560254Y-55515779D01*
X85009765Y-55816133D01*
X85540000Y-55921603D01*
X86070235Y-55816133D01*
X86519746Y-55515779D01*
X86820100Y-55066268D01*
X86925570Y-54536033D01*
X86925570Y-53463967D01*
X91074430Y-53463967D01*
X91074430Y-54536033D01*
X91179900Y-55066268D01*
X91480254Y-55515779D01*
X91929765Y-55816133D01*
X92460000Y-55921603D01*
X92990235Y-55816133D01*
X93439746Y-55515779D01*
X93740100Y-55066268D01*
X93845570Y-54536033D01*
X93845570Y-53463967D01*
X96154430Y-53463967D01*
X96154430Y-54536033D01*
X96259900Y-55066268D01*
X96560254Y-55515779D01*
X97009765Y-55816133D01*
X97540000Y-55921603D01*
X98070235Y-55816133D01*
X98519746Y-55515779D01*
X98820100Y-55066268D01*
X98925570Y-54536033D01*
X98925570Y-53463967D01*
X98820100Y-52933732D01*
X98519746Y-52484221D01*
X98070235Y-52183867D01*
X97540000Y-52078397D01*
X97009765Y-52183867D01*
X96560254Y-52484221D01*
X96259900Y-52933732D01*
X96154430Y-53463967D01*
X93845570Y-53463967D01*
X93740100Y-52933732D01*
X93439746Y-52484221D01*
X92990235Y-52183867D01*
X92460000Y-52078397D01*
X91929765Y-52183867D01*
X91480254Y-52484221D01*
X91179900Y-52933732D01*
X91074430Y-53463967D01*
X86925570Y-53463967D01*
X86820100Y-52933732D01*
X86519746Y-52484221D01*
X86070235Y-52183867D01*
X85540000Y-52078397D01*
X85009765Y-52183867D01*
X84560254Y-52484221D01*
X84259900Y-52933732D01*
X84154430Y-53463967D01*
X81845570Y-53463967D01*
X81740100Y-52933732D01*
X81439746Y-52484221D01*
X80990235Y-52183867D01*
X80460000Y-52078397D01*
X79929765Y-52183867D01*
X79480254Y-52484221D01*
X79179900Y-52933732D01*
X79074430Y-53463967D01*
X66519032Y-53463967D01*
X66396167Y-53166614D01*
X66077165Y-52847055D01*
X65660156Y-52673897D01*
X65208625Y-52673503D01*
X64791314Y-52845933D01*
X64471755Y-53164935D01*
X64298597Y-53581944D01*
X64298203Y-54033475D01*
X43118396Y-54033475D01*
X43069271Y-53786511D01*
X42744415Y-53300330D01*
X42429634Y-53090000D01*
X42744415Y-52879670D01*
X42777603Y-52830000D01*
X56585700Y-52830000D01*
X56972210Y-52753118D01*
X57299878Y-52534178D01*
X59718500Y-50115556D01*
X59734322Y-50131378D01*
X60061990Y-50350318D01*
X60448500Y-50427200D01*
X65059026Y-50427200D01*
X65038355Y-50447835D01*
X64865197Y-50864844D01*
X64864803Y-51316375D01*
X65037233Y-51733686D01*
X65356235Y-52053245D01*
X65773244Y-52226403D01*
X66224775Y-52226797D01*
X66642086Y-52054367D01*
X66961645Y-51735365D01*
X67134803Y-51318356D01*
X67135197Y-50866825D01*
X66962767Y-50449514D01*
X66940492Y-50427200D01*
X77122800Y-50427200D01*
X77509310Y-50350318D01*
X77836978Y-50131378D01*
X79472439Y-48495917D01*
X79179900Y-48933732D01*
X79074430Y-49463967D01*
X79074430Y-50536033D01*
X79179900Y-51066268D01*
X79480254Y-51515779D01*
X79929765Y-51816133D01*
X80460000Y-51921603D01*
X80990235Y-51816133D01*
X81439746Y-51515779D01*
X81740100Y-51066268D01*
X81845570Y-50536033D01*
X81845570Y-49463967D01*
X84154430Y-49463967D01*
X84154430Y-50536033D01*
X84259900Y-51066268D01*
X84560254Y-51515779D01*
X85009765Y-51816133D01*
X85540000Y-51921603D01*
X86070235Y-51816133D01*
X86519746Y-51515779D01*
X86820100Y-51066268D01*
X86925570Y-50536033D01*
X86925570Y-49463967D01*
X86820100Y-48933732D01*
X86519746Y-48484221D01*
X86070235Y-48183867D01*
X85540000Y-48078397D01*
X85009765Y-48183867D01*
X84560254Y-48484221D01*
X84259900Y-48933732D01*
X84154430Y-49463967D01*
X81845570Y-49463967D01*
X81740100Y-48933732D01*
X81439746Y-48484221D01*
X80990235Y-48183867D01*
X80460000Y-48078397D01*
X79929765Y-48183867D01*
X79491950Y-48476406D01*
X82571328Y-45397028D01*
X82816661Y-45397242D01*
X83330303Y-45185010D01*
X83723629Y-44792370D01*
X83809949Y-44584488D01*
X83894990Y-44790303D01*
X84287630Y-45183629D01*
X84800900Y-45396757D01*
X85356661Y-45397242D01*
X85870303Y-45185010D01*
X86263629Y-44792370D01*
X86476757Y-44279100D01*
X86477242Y-43723339D01*
X86265010Y-43209697D01*
X85872370Y-42816371D01*
X85359100Y-42603243D01*
X84803339Y-42602758D01*
X84289697Y-42814990D01*
X83896371Y-43207630D01*
X83810051Y-43415512D01*
X83725010Y-43209697D01*
X83332370Y-42816371D01*
X82819100Y-42603243D01*
X82263339Y-42602758D01*
X81749697Y-42814990D01*
X81356371Y-43207630D01*
X81270051Y-43415512D01*
X81185010Y-43209697D01*
X80792370Y-42816371D01*
X80279100Y-42603243D01*
X79723339Y-42602758D01*
X79209697Y-42814990D01*
X78816371Y-43207630D01*
X78603243Y-43720900D01*
X78602758Y-44276661D01*
X78814990Y-44790303D01*
X79207630Y-45183629D01*
X79716651Y-45394993D01*
X76704444Y-48407200D01*
X65825576Y-48407200D01*
X65900503Y-48226756D01*
X65900897Y-47775225D01*
X65728467Y-47357914D01*
X65409465Y-47038355D01*
X64992456Y-46865197D01*
X64540925Y-46864803D01*
X64123614Y-47037233D01*
X63804055Y-47356235D01*
X63630897Y-47773244D01*
X63630503Y-48224775D01*
X63705880Y-48407200D01*
X60866856Y-48407200D01*
X60805545Y-48345889D01*
X60681267Y-48045114D01*
X60362265Y-47725555D01*
X59945256Y-47552397D01*
X59493725Y-47552003D01*
X59076414Y-47724433D01*
X58756855Y-48043435D01*
X58631129Y-48346215D01*
X56167344Y-50810000D01*
X42777603Y-50810000D01*
X42744415Y-50760330D01*
X42429634Y-50550000D01*
X42744415Y-50339670D01*
X42777603Y-50290000D01*
X45891400Y-50290000D01*
X46277910Y-50213118D01*
X46605578Y-49994178D01*
X47130911Y-49468845D01*
X47431686Y-49344567D01*
X47604479Y-49172075D01*
X50449803Y-49172075D01*
X50622233Y-49589386D01*
X50941235Y-49908945D01*
X51358244Y-50082103D01*
X51809775Y-50082497D01*
X52227086Y-49910067D01*
X52546645Y-49591065D01*
X52719803Y-49174056D01*
X52720197Y-48722525D01*
X52547767Y-48305214D01*
X52228765Y-47985655D01*
X51811756Y-47812497D01*
X51360225Y-47812103D01*
X50942914Y-47984533D01*
X50623355Y-48303535D01*
X50450197Y-48720544D01*
X50449803Y-49172075D01*
X47604479Y-49172075D01*
X47751245Y-49025565D01*
X47924403Y-48608556D01*
X47924797Y-48157025D01*
X47752367Y-47739714D01*
X47433365Y-47420155D01*
X47362129Y-47390575D01*
X54619703Y-47390575D01*
X54792133Y-47807886D01*
X55111135Y-48127445D01*
X55528144Y-48300603D01*
X55979675Y-48300997D01*
X56396986Y-48128567D01*
X56716545Y-47809565D01*
X56889703Y-47392556D01*
X56890097Y-46941025D01*
X56717667Y-46523714D01*
X56398665Y-46204155D01*
X55981656Y-46030997D01*
X55530125Y-46030603D01*
X55112814Y-46203033D01*
X54793255Y-46522035D01*
X54620097Y-46939044D01*
X54619703Y-47390575D01*
X47362129Y-47390575D01*
X47016356Y-47246997D01*
X46564825Y-47246603D01*
X46147514Y-47419033D01*
X45827955Y-47738035D01*
X45702229Y-48040815D01*
X45473044Y-48270000D01*
X42777603Y-48270000D01*
X42744415Y-48220330D01*
X42429634Y-48010000D01*
X42744415Y-47799670D01*
X43069271Y-47313489D01*
X43183345Y-46740000D01*
X43069271Y-46166511D01*
X42744415Y-45680330D01*
X42429634Y-45470000D01*
X42744415Y-45259670D01*
X42777603Y-45210000D01*
X54119900Y-45210000D01*
X54506410Y-45133118D01*
X54834078Y-44914178D01*
X55267856Y-44480400D01*
X61158989Y-44480400D01*
X61088297Y-44650644D01*
X61087903Y-45102175D01*
X61260333Y-45519486D01*
X61579335Y-45839045D01*
X61996344Y-46012203D01*
X62447875Y-46012597D01*
X62865186Y-45840167D01*
X63184745Y-45521165D01*
X63357903Y-45104156D01*
X63358297Y-44652625D01*
X63287135Y-44480400D01*
X70194358Y-44480400D01*
X70231534Y-46743074D01*
X70115197Y-47023244D01*
X70114803Y-47474775D01*
X70287233Y-47892086D01*
X70606235Y-48211645D01*
X71023244Y-48384803D01*
X71474775Y-48385197D01*
X71892086Y-48212767D01*
X72211645Y-47893765D01*
X72384803Y-47476756D01*
X72385197Y-47025225D01*
X72251112Y-46700715D01*
X72226058Y-45175875D01*
X73864803Y-45175875D01*
X74037233Y-45593186D01*
X74356235Y-45912745D01*
X74773244Y-46085903D01*
X75224775Y-46086297D01*
X75642086Y-45913867D01*
X75961645Y-45594865D01*
X76134803Y-45177856D01*
X76135197Y-44726325D01*
X75962767Y-44309014D01*
X75643765Y-43989455D01*
X75226756Y-43816297D01*
X74775225Y-43815903D01*
X74357914Y-43988333D01*
X74038355Y-44307335D01*
X73865197Y-44724344D01*
X73864803Y-45175875D01*
X72226058Y-45175875D01*
X72203875Y-43825771D01*
X72308018Y-43669910D01*
X72384900Y-43283400D01*
X72384900Y-39787471D01*
X72433732Y-39820100D01*
X72963967Y-39925570D01*
X74036033Y-39925570D01*
X74566268Y-39820100D01*
X75015779Y-39519746D01*
X75316133Y-39070235D01*
X75421603Y-38540000D01*
X75316133Y-38009765D01*
X75258827Y-37924000D01*
X75735344Y-37924000D01*
X78693022Y-40881678D01*
X79020690Y-41100618D01*
X79407200Y-41177500D01*
X82050200Y-41177500D01*
X82436710Y-41100618D01*
X82764378Y-40881678D01*
X83966511Y-39679545D01*
X84267286Y-39555267D01*
X84458858Y-39364029D01*
X84560254Y-39515779D01*
X85009765Y-39816133D01*
X85540000Y-39921603D01*
X86070235Y-39816133D01*
X86519746Y-39515779D01*
X86820100Y-39066268D01*
X86925570Y-38536033D01*
X86925570Y-37463967D01*
X91074430Y-37463967D01*
X91074430Y-38536033D01*
X91179900Y-39066268D01*
X91450000Y-39470501D01*
X91450000Y-40125100D01*
X91526882Y-40511610D01*
X91745822Y-40839278D01*
X91990000Y-41083456D01*
X91990000Y-43034304D01*
X91816371Y-43207630D01*
X91603243Y-43720900D01*
X91602758Y-44276661D01*
X91814990Y-44790303D01*
X92207630Y-45183629D01*
X92720900Y-45396757D01*
X93276661Y-45397242D01*
X93790303Y-45185010D01*
X94183629Y-44792370D01*
X94269949Y-44584488D01*
X94354990Y-44790303D01*
X94747630Y-45183629D01*
X95256651Y-45394993D01*
X93371722Y-47279922D01*
X93152782Y-47607590D01*
X93075900Y-47994100D01*
X93075900Y-48241107D01*
X92990235Y-48183867D01*
X92460000Y-48078397D01*
X91929765Y-48183867D01*
X91480254Y-48484221D01*
X91179900Y-48933732D01*
X91074430Y-49463967D01*
X91074430Y-50536033D01*
X91179900Y-51066268D01*
X91480254Y-51515779D01*
X91929765Y-51816133D01*
X92460000Y-51921603D01*
X92990235Y-51816133D01*
X93439746Y-51515779D01*
X93740100Y-51066268D01*
X93751292Y-51010000D01*
X94085900Y-51010000D01*
X94472410Y-50933118D01*
X94800078Y-50714178D01*
X95019018Y-50386510D01*
X95095900Y-50000000D01*
X95095900Y-49463967D01*
X96154430Y-49463967D01*
X96154430Y-50536033D01*
X96259900Y-51066268D01*
X96560254Y-51515779D01*
X97009765Y-51816133D01*
X97540000Y-51921603D01*
X98070235Y-51816133D01*
X98519746Y-51515779D01*
X98820100Y-51066268D01*
X98925570Y-50536033D01*
X98925570Y-49463967D01*
X98820100Y-48933732D01*
X98519746Y-48484221D01*
X98070235Y-48183867D01*
X97540000Y-48078397D01*
X97009765Y-48183867D01*
X96560254Y-48484221D01*
X96259900Y-48933732D01*
X96154430Y-49463967D01*
X95095900Y-49463967D01*
X95095900Y-48412456D01*
X96437695Y-47070661D01*
X122602758Y-47070661D01*
X122814990Y-47584303D01*
X123207630Y-47977629D01*
X123720900Y-48190757D01*
X124276661Y-48191242D01*
X124790303Y-47979010D01*
X125183629Y-47586370D01*
X125396757Y-47073100D01*
X125397242Y-46517339D01*
X125185010Y-46003697D01*
X124792370Y-45610371D01*
X124279100Y-45397243D01*
X123723339Y-45396758D01*
X123209697Y-45608990D01*
X122816371Y-46001630D01*
X122603243Y-46514900D01*
X122602758Y-47070661D01*
X96437695Y-47070661D01*
X98111328Y-45397028D01*
X98356661Y-45397242D01*
X98870303Y-45185010D01*
X99263629Y-44792370D01*
X99476757Y-44279100D01*
X99476759Y-44276661D01*
X119935758Y-44276661D01*
X120147990Y-44790303D01*
X120540630Y-45183629D01*
X121053900Y-45396757D01*
X121609661Y-45397242D01*
X122123303Y-45185010D01*
X122516629Y-44792370D01*
X122729757Y-44279100D01*
X122730242Y-43723339D01*
X122518010Y-43209697D01*
X122125370Y-42816371D01*
X121612100Y-42603243D01*
X121056339Y-42602758D01*
X120542697Y-42814990D01*
X120149371Y-43207630D01*
X119936243Y-43720900D01*
X119935758Y-44276661D01*
X99476759Y-44276661D01*
X99477242Y-43723339D01*
X99265010Y-43209697D01*
X98872370Y-42816371D01*
X98359100Y-42603243D01*
X97803339Y-42602758D01*
X97289697Y-42814990D01*
X96896371Y-43207630D01*
X96810051Y-43415512D01*
X96725010Y-43209697D01*
X96332370Y-42816371D01*
X95819100Y-42603243D01*
X95263339Y-42602758D01*
X94749697Y-42814990D01*
X94356371Y-43207630D01*
X94270051Y-43415512D01*
X94185010Y-43209697D01*
X94010000Y-43034381D01*
X94010000Y-41609661D01*
X122602758Y-41609661D01*
X122814990Y-42123303D01*
X123207630Y-42516629D01*
X123720900Y-42729757D01*
X124276661Y-42730242D01*
X124492133Y-42641211D01*
X124592990Y-42885303D01*
X124985630Y-43278629D01*
X125276703Y-43399493D01*
X125143243Y-43720900D01*
X125142758Y-44276661D01*
X125354990Y-44790303D01*
X125747630Y-45183629D01*
X126260900Y-45396757D01*
X126816661Y-45397242D01*
X127330303Y-45185010D01*
X127723629Y-44792370D01*
X127936757Y-44279100D01*
X127937242Y-43723339D01*
X127725010Y-43209697D01*
X127332370Y-42816371D01*
X127041297Y-42695507D01*
X127174757Y-42374100D01*
X127175242Y-41818339D01*
X126963010Y-41304697D01*
X126570370Y-40911371D01*
X126057100Y-40698243D01*
X125501339Y-40697758D01*
X125285867Y-40786789D01*
X125185010Y-40542697D01*
X124792370Y-40149371D01*
X124279100Y-39936243D01*
X123723339Y-39935758D01*
X123209697Y-40147990D01*
X122816371Y-40540630D01*
X122603243Y-41053900D01*
X122602758Y-41609661D01*
X94010000Y-41609661D01*
X94010000Y-40665100D01*
X93933118Y-40278590D01*
X93714178Y-39950922D01*
X93470000Y-39706744D01*
X93470000Y-39470501D01*
X93740100Y-39066268D01*
X93845570Y-38536033D01*
X93845570Y-37463967D01*
X96154430Y-37463967D01*
X96154430Y-38536033D01*
X96259900Y-39066268D01*
X96560254Y-39515779D01*
X97009765Y-39816133D01*
X97540000Y-39921603D01*
X98070235Y-39816133D01*
X98519746Y-39515779D01*
X98820100Y-39066268D01*
X98925570Y-38536033D01*
X98925570Y-37463967D01*
X98820100Y-36933732D01*
X98519746Y-36484221D01*
X98070235Y-36183867D01*
X97540000Y-36078397D01*
X97009765Y-36183867D01*
X96560254Y-36484221D01*
X96259900Y-36933732D01*
X96154430Y-37463967D01*
X93845570Y-37463967D01*
X93740100Y-36933732D01*
X93439746Y-36484221D01*
X92990235Y-36183867D01*
X92460000Y-36078397D01*
X91929765Y-36183867D01*
X91480254Y-36484221D01*
X91179900Y-36933732D01*
X91074430Y-37463967D01*
X86925570Y-37463967D01*
X86820100Y-36933732D01*
X86519746Y-36484221D01*
X86070235Y-36183867D01*
X85540000Y-36078397D01*
X85009765Y-36183867D01*
X84560254Y-36484221D01*
X84259900Y-36933732D01*
X84154430Y-37463967D01*
X84154430Y-37583296D01*
X83851956Y-37457697D01*
X83400425Y-37457303D01*
X82983114Y-37629733D01*
X82663555Y-37948735D01*
X82537829Y-38251515D01*
X81744327Y-39045017D01*
X81845570Y-38536033D01*
X81845570Y-37463967D01*
X81740100Y-36933732D01*
X81439746Y-36484221D01*
X80990235Y-36183867D01*
X80460000Y-36078397D01*
X79929765Y-36183867D01*
X79480254Y-36484221D01*
X79179900Y-36933732D01*
X79074430Y-37463967D01*
X79074430Y-38406374D01*
X76867878Y-36199822D01*
X76540210Y-35980882D01*
X76153700Y-35904000D01*
X66506947Y-35904000D01*
X66772545Y-35638865D01*
X66945703Y-35221856D01*
X66946097Y-34770325D01*
X66773667Y-34353014D01*
X66454665Y-34033455D01*
X66037656Y-33860297D01*
X65586125Y-33859903D01*
X65168814Y-34032333D01*
X64849255Y-34351335D01*
X64676097Y-34768344D01*
X64675703Y-35219875D01*
X64848133Y-35637186D01*
X65114482Y-35904000D01*
X60761410Y-35904000D01*
X60858303Y-35670656D01*
X60858697Y-35219125D01*
X60686267Y-34801814D01*
X60367265Y-34482255D01*
X59950256Y-34309097D01*
X59498725Y-34308703D01*
X59081414Y-34481133D01*
X58761855Y-34800135D01*
X58588697Y-35217144D01*
X58588303Y-35668675D01*
X58685538Y-35904000D01*
X57541765Y-35904000D01*
X57854645Y-35591665D01*
X58027803Y-35174656D01*
X58028197Y-34723125D01*
X57855767Y-34305814D01*
X57536765Y-33986255D01*
X57119756Y-33813097D01*
X56668225Y-33812703D01*
X56250914Y-33985133D01*
X55931355Y-34304135D01*
X55758197Y-34721144D01*
X55757803Y-35172675D01*
X55930233Y-35589986D01*
X56243700Y-35904000D01*
X52447600Y-35904000D01*
X52439874Y-35905537D01*
X52432128Y-35904119D01*
X52246936Y-35943915D01*
X52061090Y-35980882D01*
X52054540Y-35985259D01*
X52046841Y-35986913D01*
X51890973Y-36094550D01*
X51733422Y-36199822D01*
X51729046Y-36206372D01*
X51722565Y-36210847D01*
X47988975Y-40060619D01*
X46837045Y-38908689D01*
X46712767Y-38607914D01*
X46393765Y-38288355D01*
X45976756Y-38115197D01*
X45525225Y-38114803D01*
X45107914Y-38287233D01*
X44788355Y-38606235D01*
X44615197Y-39023244D01*
X44614803Y-39474775D01*
X44787233Y-39892086D01*
X45106235Y-40211645D01*
X45409015Y-40337371D01*
X46912955Y-41841311D01*
X47037233Y-42142086D01*
X47356235Y-42461645D01*
X47773244Y-42634803D01*
X48224775Y-42635197D01*
X48642086Y-42462767D01*
X48961645Y-42143765D01*
X49095680Y-41820974D01*
X51786982Y-39045925D01*
X51923733Y-39376886D01*
X52242735Y-39696445D01*
X52659744Y-39869603D01*
X53111275Y-39869997D01*
X53528586Y-39697567D01*
X53848145Y-39378565D01*
X54021303Y-38961556D01*
X54021697Y-38510025D01*
X53849267Y-38092714D01*
X53680847Y-37924000D01*
X70595122Y-37924000D01*
X70441782Y-38153490D01*
X70364900Y-38540000D01*
X70364900Y-42460400D01*
X61355499Y-42460400D01*
X61481186Y-42408467D01*
X61800745Y-42089465D01*
X61973903Y-41672456D01*
X61974297Y-41220925D01*
X61801867Y-40803614D01*
X61482865Y-40484055D01*
X61065856Y-40310897D01*
X60614325Y-40310503D01*
X60197014Y-40482933D01*
X59877455Y-40801935D01*
X59704297Y-41218944D01*
X59703903Y-41670475D01*
X59876333Y-42087786D01*
X60195335Y-42407345D01*
X60323105Y-42460400D01*
X54849500Y-42460400D01*
X54462990Y-42537282D01*
X54135322Y-42756222D01*
X53701544Y-43190000D01*
X42777603Y-43190000D01*
X42744415Y-43140330D01*
X42429634Y-42930000D01*
X42744415Y-42719670D01*
X43069271Y-42233489D01*
X43183345Y-41660000D01*
X43069271Y-41086511D01*
X42744415Y-40600330D01*
X42429634Y-40390000D01*
X42744415Y-40179670D01*
X43069271Y-39693489D01*
X43183345Y-39120000D01*
X43069271Y-38546511D01*
X42744415Y-38060330D01*
X42434931Y-37853539D01*
X42850732Y-37482036D01*
X43104709Y-36954791D01*
X43107358Y-36939026D01*
X42986217Y-36707000D01*
X41627000Y-36707000D01*
X41627000Y-36727000D01*
X41373000Y-36727000D01*
X41373000Y-36707000D01*
X40013783Y-36707000D01*
X39892642Y-36939026D01*
X39895291Y-36954791D01*
X40149268Y-37482036D01*
X40565069Y-37853539D01*
X40255585Y-38060330D01*
X39930729Y-38546511D01*
X39816655Y-39120000D01*
X39685000Y-39120000D01*
X39685000Y-34040000D01*
X39816655Y-34040000D01*
X39930729Y-34613489D01*
X40255585Y-35099670D01*
X40565069Y-35306461D01*
X40149268Y-35677964D01*
X39895291Y-36205209D01*
X39892642Y-36220974D01*
X40013783Y-36453000D01*
X41373000Y-36453000D01*
X41373000Y-36433000D01*
X41627000Y-36433000D01*
X41627000Y-36453000D01*
X42986217Y-36453000D01*
X43107358Y-36220974D01*
X43104709Y-36205209D01*
X42850732Y-35677964D01*
X42434931Y-35306461D01*
X42744415Y-35099670D01*
X42904373Y-34860275D01*
X48054003Y-34860275D01*
X48226433Y-35277586D01*
X48545435Y-35597145D01*
X48962444Y-35770303D01*
X49413975Y-35770697D01*
X49831286Y-35598267D01*
X50150845Y-35279265D01*
X50324003Y-34862256D01*
X50324397Y-34410725D01*
X50151967Y-33993414D01*
X49832965Y-33673855D01*
X49415956Y-33500697D01*
X48964425Y-33500303D01*
X48547114Y-33672733D01*
X48227555Y-33991735D01*
X48054397Y-34408744D01*
X48054003Y-34860275D01*
X42904373Y-34860275D01*
X43069271Y-34613489D01*
X43183345Y-34040000D01*
X43069271Y-33466511D01*
X43064921Y-33460000D01*
X71578397Y-33460000D01*
X71683867Y-33990235D01*
X71984221Y-34439746D01*
X72433732Y-34740100D01*
X72963967Y-34845570D01*
X74036033Y-34845570D01*
X74566268Y-34740100D01*
X75015779Y-34439746D01*
X75316133Y-33990235D01*
X75421603Y-33460000D01*
X75316133Y-32929765D01*
X75258893Y-32844100D01*
X79239790Y-32844100D01*
X79179900Y-32933732D01*
X79074430Y-33463967D01*
X79074430Y-34536033D01*
X79179900Y-35066268D01*
X79480254Y-35515779D01*
X79929765Y-35816133D01*
X80460000Y-35921603D01*
X80990235Y-35816133D01*
X81439746Y-35515779D01*
X81740100Y-35066268D01*
X81845570Y-34536033D01*
X81845570Y-33463967D01*
X81740100Y-32933732D01*
X81680210Y-32844100D01*
X84319790Y-32844100D01*
X84259900Y-32933732D01*
X84154430Y-33463967D01*
X84154430Y-34536033D01*
X84259900Y-35066268D01*
X84560254Y-35515779D01*
X85009765Y-35816133D01*
X85540000Y-35921603D01*
X86070235Y-35816133D01*
X86519746Y-35515779D01*
X86820100Y-35066268D01*
X86925570Y-34536033D01*
X86925570Y-33463967D01*
X86820100Y-32933732D01*
X86760210Y-32844100D01*
X88249844Y-32844100D01*
X90119922Y-34714178D01*
X90447590Y-34933118D01*
X90834100Y-35010000D01*
X91168708Y-35010000D01*
X91179900Y-35066268D01*
X91480254Y-35515779D01*
X91929765Y-35816133D01*
X92460000Y-35921603D01*
X92990235Y-35816133D01*
X93439746Y-35515779D01*
X93740100Y-35066268D01*
X93845570Y-34536033D01*
X93845570Y-33463967D01*
X96154430Y-33463967D01*
X96154430Y-34536033D01*
X96259900Y-35066268D01*
X96560254Y-35515779D01*
X97009765Y-35816133D01*
X97540000Y-35921603D01*
X98070235Y-35816133D01*
X98519746Y-35515779D01*
X98820100Y-35066268D01*
X98925570Y-34536033D01*
X98925570Y-33463967D01*
X98820100Y-32933732D01*
X98519746Y-32484221D01*
X98070235Y-32183867D01*
X97540000Y-32078397D01*
X97009765Y-32183867D01*
X96560254Y-32484221D01*
X96259900Y-32933732D01*
X96154430Y-33463967D01*
X93845570Y-33463967D01*
X93740100Y-32933732D01*
X93439746Y-32484221D01*
X92990235Y-32183867D01*
X92460000Y-32078397D01*
X91929765Y-32183867D01*
X91480254Y-32484221D01*
X91186424Y-32923968D01*
X89382378Y-31119922D01*
X89054710Y-30900982D01*
X88668200Y-30824100D01*
X73500000Y-30824100D01*
X73113490Y-30900982D01*
X72785822Y-31119922D01*
X72566882Y-31447590D01*
X72490000Y-31834100D01*
X72490000Y-32168708D01*
X72433732Y-32179900D01*
X71984221Y-32480254D01*
X71683867Y-32929765D01*
X71578397Y-33460000D01*
X43064921Y-33460000D01*
X42744415Y-32980330D01*
X42730087Y-32970757D01*
X42751317Y-32966762D01*
X42967441Y-32827690D01*
X43112431Y-32615490D01*
X43163440Y-32363600D01*
X43163440Y-31408175D01*
X55757803Y-31408175D01*
X55930233Y-31825486D01*
X56249235Y-32145045D01*
X56666244Y-32318203D01*
X57117775Y-32318597D01*
X57436081Y-32187075D01*
X58866603Y-32187075D01*
X59039033Y-32604386D01*
X59358035Y-32923945D01*
X59775044Y-33097103D01*
X60226575Y-33097497D01*
X60643886Y-32925067D01*
X60963445Y-32606065D01*
X61136603Y-32189056D01*
X61136997Y-31737525D01*
X60964567Y-31320214D01*
X60645565Y-31000655D01*
X60228556Y-30827497D01*
X59777025Y-30827103D01*
X59359714Y-30999533D01*
X59040155Y-31318535D01*
X58866997Y-31735544D01*
X58866603Y-32187075D01*
X57436081Y-32187075D01*
X57535086Y-32146167D01*
X57854645Y-31827165D01*
X58027803Y-31410156D01*
X58028197Y-30958625D01*
X57855767Y-30541314D01*
X57536765Y-30221755D01*
X57119756Y-30048597D01*
X56668225Y-30048203D01*
X56250914Y-30220633D01*
X55931355Y-30539635D01*
X55758197Y-30956644D01*
X55757803Y-31408175D01*
X43163440Y-31408175D01*
X43163440Y-30636400D01*
X43119162Y-30401083D01*
X42980090Y-30184959D01*
X42767890Y-30039969D01*
X42516000Y-29988960D01*
X40484000Y-29988960D01*
X40248683Y-30033238D01*
X40032559Y-30172310D01*
X39887569Y-30384510D01*
X39836560Y-30636400D01*
X39836560Y-32363600D01*
X39880838Y-32598917D01*
X40019910Y-32815041D01*
X40232110Y-32960031D01*
X40273439Y-32968400D01*
X40255585Y-32980330D01*
X39930729Y-33466511D01*
X39816655Y-34040000D01*
X39685000Y-34040000D01*
X39685000Y-29685000D01*
X138315000Y-29685000D01*
X138315000Y-59315000D01*
M02*
