G04 #@! TF.FileFunction,Legend,Top*
%FSLAX46Y46*%
G04 Gerber Fmt 4.6, Leading zero omitted, Abs format (unit mm)*
G04 Created by KiCad (PCBNEW 4.0.4+dfsg1-stable) date Wed Feb 15 13:47:44 2017*
%MOMM*%
%LPD*%
G01*
G04 APERTURE LIST*
%ADD10C,0.100000*%
%ADD11C,0.150000*%
%ADD12C,0.300000*%
%ADD13C,0.400000*%
%ADD14C,0.250000*%
G04 APERTURE END LIST*
D10*
D11*
X177002200Y-166007200D02*
X177002200Y-198007200D01*
X285002200Y-198007200D01*
X285002200Y-166007200D01*
X177002200Y-166007200D01*
D10*
D11*
X10000000Y-10000000D02*
X10000000Y-200007200D01*
X287002200Y-200007200D01*
X287002200Y-10000000D01*
X10000000Y-10000000D01*
D10*
D11*
X12000000Y-12000000D02*
X12000000Y-198007200D01*
X285002200Y-198007200D01*
X285002200Y-12000000D01*
X12000000Y-12000000D01*
D10*
D11*
X60000000Y-12000000D02*
X60000000Y-10000000D01*
D10*
D11*
X110000000Y-12000000D02*
X110000000Y-10000000D01*
D10*
D11*
X160000000Y-12000000D02*
X160000000Y-10000000D01*
D10*
D11*
X210000000Y-12000000D02*
X210000000Y-10000000D01*
D10*
D11*
X260000000Y-12000000D02*
X260000000Y-10000000D01*
D10*
D11*
X35990476Y-11588095D02*
X35247619Y-11588095D01*
X35619048Y-11588095D02*
X35619048Y-10288095D01*
X35495238Y-10473810D01*
X35371429Y-10597619D01*
X35247619Y-10659524D01*
D10*
D11*
X85247619Y-10411905D02*
X85309524Y-10350000D01*
X85433333Y-10288095D01*
X85742857Y-10288095D01*
X85866667Y-10350000D01*
X85928571Y-10411905D01*
X85990476Y-10535714D01*
X85990476Y-10659524D01*
X85928571Y-10845238D01*
X85185714Y-11588095D01*
X85990476Y-11588095D01*
D10*
D11*
X135185714Y-10288095D02*
X135990476Y-10288095D01*
X135557143Y-10783333D01*
X135742857Y-10783333D01*
X135866667Y-10845238D01*
X135928571Y-10907143D01*
X135990476Y-11030952D01*
X135990476Y-11340476D01*
X135928571Y-11464286D01*
X135866667Y-11526190D01*
X135742857Y-11588095D01*
X135371429Y-11588095D01*
X135247619Y-11526190D01*
X135185714Y-11464286D01*
D10*
D11*
X185866667Y-10721429D02*
X185866667Y-11588095D01*
X185557143Y-10226190D02*
X185247619Y-11154762D01*
X186052381Y-11154762D01*
D10*
D11*
X235928571Y-10288095D02*
X235309524Y-10288095D01*
X235247619Y-10907143D01*
X235309524Y-10845238D01*
X235433333Y-10783333D01*
X235742857Y-10783333D01*
X235866667Y-10845238D01*
X235928571Y-10907143D01*
X235990476Y-11030952D01*
X235990476Y-11340476D01*
X235928571Y-11464286D01*
X235866667Y-11526190D01*
X235742857Y-11588095D01*
X235433333Y-11588095D01*
X235309524Y-11526190D01*
X235247619Y-11464286D01*
D10*
D11*
X285866667Y-10288095D02*
X285619048Y-10288095D01*
X285495238Y-10350000D01*
X285433333Y-10411905D01*
X285309524Y-10597619D01*
X285247619Y-10845238D01*
X285247619Y-11340476D01*
X285309524Y-11464286D01*
X285371429Y-11526190D01*
X285495238Y-11588095D01*
X285742857Y-11588095D01*
X285866667Y-11526190D01*
X285928571Y-11464286D01*
X285990476Y-11340476D01*
X285990476Y-11030952D01*
X285928571Y-10907143D01*
X285866667Y-10845238D01*
X285742857Y-10783333D01*
X285495238Y-10783333D01*
X285371429Y-10845238D01*
X285309524Y-10907143D01*
X285247619Y-11030952D01*
D10*
D11*
X60000000Y-198007200D02*
X60000000Y-200007200D01*
D10*
D11*
X110000000Y-198007200D02*
X110000000Y-200007200D01*
D10*
D11*
X160000000Y-198007200D02*
X160000000Y-200007200D01*
D10*
D11*
X210000000Y-198007200D02*
X210000000Y-200007200D01*
D10*
D11*
X260000000Y-198007200D02*
X260000000Y-200007200D01*
D10*
D11*
X35990476Y-199595295D02*
X35247619Y-199595295D01*
X35619048Y-199595295D02*
X35619048Y-198295295D01*
X35495238Y-198481010D01*
X35371429Y-198604819D01*
X35247619Y-198666724D01*
D10*
D11*
X85247619Y-198419105D02*
X85309524Y-198357200D01*
X85433333Y-198295295D01*
X85742857Y-198295295D01*
X85866667Y-198357200D01*
X85928571Y-198419105D01*
X85990476Y-198542914D01*
X85990476Y-198666724D01*
X85928571Y-198852438D01*
X85185714Y-199595295D01*
X85990476Y-199595295D01*
D10*
D11*
X135185714Y-198295295D02*
X135990476Y-198295295D01*
X135557143Y-198790533D01*
X135742857Y-198790533D01*
X135866667Y-198852438D01*
X135928571Y-198914343D01*
X135990476Y-199038152D01*
X135990476Y-199347676D01*
X135928571Y-199471486D01*
X135866667Y-199533390D01*
X135742857Y-199595295D01*
X135371429Y-199595295D01*
X135247619Y-199533390D01*
X135185714Y-199471486D01*
D10*
D11*
X185866667Y-198728629D02*
X185866667Y-199595295D01*
X185557143Y-198233390D02*
X185247619Y-199161962D01*
X186052381Y-199161962D01*
D10*
D11*
X235928571Y-198295295D02*
X235309524Y-198295295D01*
X235247619Y-198914343D01*
X235309524Y-198852438D01*
X235433333Y-198790533D01*
X235742857Y-198790533D01*
X235866667Y-198852438D01*
X235928571Y-198914343D01*
X235990476Y-199038152D01*
X235990476Y-199347676D01*
X235928571Y-199471486D01*
X235866667Y-199533390D01*
X235742857Y-199595295D01*
X235433333Y-199595295D01*
X235309524Y-199533390D01*
X235247619Y-199471486D01*
D10*
D11*
X285866667Y-198295295D02*
X285619048Y-198295295D01*
X285495238Y-198357200D01*
X285433333Y-198419105D01*
X285309524Y-198604819D01*
X285247619Y-198852438D01*
X285247619Y-199347676D01*
X285309524Y-199471486D01*
X285371429Y-199533390D01*
X285495238Y-199595295D01*
X285742857Y-199595295D01*
X285866667Y-199533390D01*
X285928571Y-199471486D01*
X285990476Y-199347676D01*
X285990476Y-199038152D01*
X285928571Y-198914343D01*
X285866667Y-198852438D01*
X285742857Y-198790533D01*
X285495238Y-198790533D01*
X285371429Y-198852438D01*
X285309524Y-198914343D01*
X285247619Y-199038152D01*
D10*
D11*
X10000000Y-60000000D02*
X12000000Y-60000000D01*
D10*
D11*
X10000000Y-110000000D02*
X12000000Y-110000000D01*
D10*
D11*
X10000000Y-160000000D02*
X12000000Y-160000000D01*
D10*
D11*
X10690476Y-35216667D02*
X11309524Y-35216667D01*
X10566667Y-35588095D02*
X11000000Y-34288095D01*
X11433333Y-35588095D01*
D10*
D11*
X11092857Y-84907143D02*
X11278571Y-84969048D01*
X11340476Y-85030952D01*
X11402381Y-85154762D01*
X11402381Y-85340476D01*
X11340476Y-85464286D01*
X11278571Y-85526190D01*
X11154762Y-85588095D01*
X10659524Y-85588095D01*
X10659524Y-84288095D01*
X11092857Y-84288095D01*
X11216667Y-84350000D01*
X11278571Y-84411905D01*
X11340476Y-84535714D01*
X11340476Y-84659524D01*
X11278571Y-84783333D01*
X11216667Y-84845238D01*
X11092857Y-84907143D01*
X10659524Y-84907143D01*
D10*
D11*
X11402381Y-135464286D02*
X11340476Y-135526190D01*
X11154762Y-135588095D01*
X11030952Y-135588095D01*
X10845238Y-135526190D01*
X10721429Y-135402381D01*
X10659524Y-135278571D01*
X10597619Y-135030952D01*
X10597619Y-134845238D01*
X10659524Y-134597619D01*
X10721429Y-134473810D01*
X10845238Y-134350000D01*
X11030952Y-134288095D01*
X11154762Y-134288095D01*
X11340476Y-134350000D01*
X11402381Y-134411905D01*
D10*
D11*
X10659524Y-185588095D02*
X10659524Y-184288095D01*
X10969048Y-184288095D01*
X11154762Y-184350000D01*
X11278571Y-184473810D01*
X11340476Y-184597619D01*
X11402381Y-184845238D01*
X11402381Y-185030952D01*
X11340476Y-185278571D01*
X11278571Y-185402381D01*
X11154762Y-185526190D01*
X10969048Y-185588095D01*
X10659524Y-185588095D01*
D10*
D11*
X287002200Y-60000000D02*
X285002200Y-60000000D01*
D10*
D11*
X287002200Y-110000000D02*
X285002200Y-110000000D01*
D10*
D11*
X287002200Y-160000000D02*
X285002200Y-160000000D01*
D10*
D11*
X285692676Y-35216667D02*
X286311724Y-35216667D01*
X285568867Y-35588095D02*
X286002200Y-34288095D01*
X286435533Y-35588095D01*
D10*
D11*
X286095057Y-84907143D02*
X286280771Y-84969048D01*
X286342676Y-85030952D01*
X286404581Y-85154762D01*
X286404581Y-85340476D01*
X286342676Y-85464286D01*
X286280771Y-85526190D01*
X286156962Y-85588095D01*
X285661724Y-85588095D01*
X285661724Y-84288095D01*
X286095057Y-84288095D01*
X286218867Y-84350000D01*
X286280771Y-84411905D01*
X286342676Y-84535714D01*
X286342676Y-84659524D01*
X286280771Y-84783333D01*
X286218867Y-84845238D01*
X286095057Y-84907143D01*
X285661724Y-84907143D01*
D10*
D11*
X286404581Y-135464286D02*
X286342676Y-135526190D01*
X286156962Y-135588095D01*
X286033152Y-135588095D01*
X285847438Y-135526190D01*
X285723629Y-135402381D01*
X285661724Y-135278571D01*
X285599819Y-135030952D01*
X285599819Y-134845238D01*
X285661724Y-134597619D01*
X285723629Y-134473810D01*
X285847438Y-134350000D01*
X286033152Y-134288095D01*
X286156962Y-134288095D01*
X286342676Y-134350000D01*
X286404581Y-134411905D01*
D10*
D11*
X285661724Y-185588095D02*
X285661724Y-184288095D01*
X285971248Y-184288095D01*
X286156962Y-184350000D01*
X286280771Y-184473810D01*
X286342676Y-184597619D01*
X286404581Y-184845238D01*
X286404581Y-185030952D01*
X286342676Y-185278571D01*
X286280771Y-185402381D01*
X286156962Y-185526190D01*
X285971248Y-185588095D01*
X285661724Y-185588095D01*
D10*
D11*
X200359343Y-193785771D02*
X200359343Y-192285771D01*
X200716486Y-192285771D01*
X200930771Y-192357200D01*
X201073629Y-192500057D01*
X201145057Y-192642914D01*
X201216486Y-192928629D01*
X201216486Y-193142914D01*
X201145057Y-193428629D01*
X201073629Y-193571486D01*
X200930771Y-193714343D01*
X200716486Y-193785771D01*
X200359343Y-193785771D01*
X202502200Y-193785771D02*
X202502200Y-193000057D01*
X202430771Y-192857200D01*
X202287914Y-192785771D01*
X202002200Y-192785771D01*
X201859343Y-192857200D01*
X202502200Y-193714343D02*
X202359343Y-193785771D01*
X202002200Y-193785771D01*
X201859343Y-193714343D01*
X201787914Y-193571486D01*
X201787914Y-193428629D01*
X201859343Y-193285771D01*
X202002200Y-193214343D01*
X202359343Y-193214343D01*
X202502200Y-193142914D01*
X203002200Y-192785771D02*
X203573629Y-192785771D01*
X203216486Y-192285771D02*
X203216486Y-193571486D01*
X203287914Y-193714343D01*
X203430772Y-193785771D01*
X203573629Y-193785771D01*
X204645057Y-193714343D02*
X204502200Y-193785771D01*
X204216486Y-193785771D01*
X204073629Y-193714343D01*
X204002200Y-193571486D01*
X204002200Y-193000057D01*
X204073629Y-192857200D01*
X204216486Y-192785771D01*
X204502200Y-192785771D01*
X204645057Y-192857200D01*
X204716486Y-193000057D01*
X204716486Y-193142914D01*
X204002200Y-193285771D01*
X205359343Y-193642914D02*
X205430771Y-193714343D01*
X205359343Y-193785771D01*
X205287914Y-193714343D01*
X205359343Y-193642914D01*
X205359343Y-193785771D01*
X205359343Y-192857200D02*
X205430771Y-192928629D01*
X205359343Y-193000057D01*
X205287914Y-192928629D01*
X205359343Y-192857200D01*
X205359343Y-193000057D01*
D10*
D11*
X177002200Y-194507200D02*
X285002200Y-194507200D01*
D10*
D11*
X178359343Y-196585771D02*
X178359343Y-195085771D01*
X179216486Y-196585771D02*
X178573629Y-195728629D01*
X179216486Y-195085771D02*
X178359343Y-195942914D01*
X179859343Y-196585771D02*
X179859343Y-195585771D01*
X179859343Y-195085771D02*
X179787914Y-195157200D01*
X179859343Y-195228629D01*
X179930771Y-195157200D01*
X179859343Y-195085771D01*
X179859343Y-195228629D01*
X181430772Y-196442914D02*
X181359343Y-196514343D01*
X181145057Y-196585771D01*
X181002200Y-196585771D01*
X180787915Y-196514343D01*
X180645057Y-196371486D01*
X180573629Y-196228629D01*
X180502200Y-195942914D01*
X180502200Y-195728629D01*
X180573629Y-195442914D01*
X180645057Y-195300057D01*
X180787915Y-195157200D01*
X181002200Y-195085771D01*
X181145057Y-195085771D01*
X181359343Y-195157200D01*
X181430772Y-195228629D01*
X182716486Y-196585771D02*
X182716486Y-195800057D01*
X182645057Y-195657200D01*
X182502200Y-195585771D01*
X182216486Y-195585771D01*
X182073629Y-195657200D01*
X182716486Y-196514343D02*
X182573629Y-196585771D01*
X182216486Y-196585771D01*
X182073629Y-196514343D01*
X182002200Y-196371486D01*
X182002200Y-196228629D01*
X182073629Y-196085771D01*
X182216486Y-196014343D01*
X182573629Y-196014343D01*
X182716486Y-195942914D01*
X184073629Y-196585771D02*
X184073629Y-195085771D01*
X184073629Y-196514343D02*
X183930772Y-196585771D01*
X183645058Y-196585771D01*
X183502200Y-196514343D01*
X183430772Y-196442914D01*
X183359343Y-196300057D01*
X183359343Y-195871486D01*
X183430772Y-195728629D01*
X183502200Y-195657200D01*
X183645058Y-195585771D01*
X183930772Y-195585771D01*
X184073629Y-195657200D01*
X185930772Y-195800057D02*
X186430772Y-195800057D01*
X186645058Y-196585771D02*
X185930772Y-196585771D01*
X185930772Y-195085771D01*
X186645058Y-195085771D01*
X187287915Y-196442914D02*
X187359343Y-196514343D01*
X187287915Y-196585771D01*
X187216486Y-196514343D01*
X187287915Y-196442914D01*
X187287915Y-196585771D01*
X188002201Y-196585771D02*
X188002201Y-195085771D01*
X188359344Y-195085771D01*
X188573629Y-195157200D01*
X188716487Y-195300057D01*
X188787915Y-195442914D01*
X188859344Y-195728629D01*
X188859344Y-195942914D01*
X188787915Y-196228629D01*
X188716487Y-196371486D01*
X188573629Y-196514343D01*
X188359344Y-196585771D01*
X188002201Y-196585771D01*
X189502201Y-196442914D02*
X189573629Y-196514343D01*
X189502201Y-196585771D01*
X189430772Y-196514343D01*
X189502201Y-196442914D01*
X189502201Y-196585771D01*
X190145058Y-196157200D02*
X190859344Y-196157200D01*
X190002201Y-196585771D02*
X190502201Y-195085771D01*
X191002201Y-196585771D01*
X191502201Y-196442914D02*
X191573629Y-196514343D01*
X191502201Y-196585771D01*
X191430772Y-196514343D01*
X191502201Y-196442914D01*
X191502201Y-196585771D01*
X194502201Y-196585771D02*
X194502201Y-195085771D01*
X194645058Y-196014343D02*
X195073629Y-196585771D01*
X195073629Y-195585771D02*
X194502201Y-196157200D01*
X195716487Y-196585771D02*
X195716487Y-195585771D01*
X195716487Y-195085771D02*
X195645058Y-195157200D01*
X195716487Y-195228629D01*
X195787915Y-195157200D01*
X195716487Y-195085771D01*
X195716487Y-195228629D01*
X197073630Y-196514343D02*
X196930773Y-196585771D01*
X196645059Y-196585771D01*
X196502201Y-196514343D01*
X196430773Y-196442914D01*
X196359344Y-196300057D01*
X196359344Y-195871486D01*
X196430773Y-195728629D01*
X196502201Y-195657200D01*
X196645059Y-195585771D01*
X196930773Y-195585771D01*
X197073630Y-195657200D01*
X198359344Y-196585771D02*
X198359344Y-195800057D01*
X198287915Y-195657200D01*
X198145058Y-195585771D01*
X197859344Y-195585771D01*
X197716487Y-195657200D01*
X198359344Y-196514343D02*
X198216487Y-196585771D01*
X197859344Y-196585771D01*
X197716487Y-196514343D01*
X197645058Y-196371486D01*
X197645058Y-196228629D01*
X197716487Y-196085771D01*
X197859344Y-196014343D01*
X198216487Y-196014343D01*
X198359344Y-195942914D01*
X199716487Y-196585771D02*
X199716487Y-195085771D01*
X199716487Y-196514343D02*
X199573630Y-196585771D01*
X199287916Y-196585771D01*
X199145058Y-196514343D01*
X199073630Y-196442914D01*
X199002201Y-196300057D01*
X199002201Y-195871486D01*
X199073630Y-195728629D01*
X199145058Y-195657200D01*
X199287916Y-195585771D01*
X199573630Y-195585771D01*
X199716487Y-195657200D01*
X202216487Y-195585771D02*
X202216487Y-196585771D01*
X201859344Y-195014343D02*
X201502201Y-196085771D01*
X202430773Y-196085771D01*
X203002201Y-196442914D02*
X203073629Y-196514343D01*
X203002201Y-196585771D01*
X202930772Y-196514343D01*
X203002201Y-196442914D01*
X203002201Y-196585771D01*
X204002201Y-195085771D02*
X204145058Y-195085771D01*
X204287915Y-195157200D01*
X204359344Y-195228629D01*
X204430773Y-195371486D01*
X204502201Y-195657200D01*
X204502201Y-196014343D01*
X204430773Y-196300057D01*
X204359344Y-196442914D01*
X204287915Y-196514343D01*
X204145058Y-196585771D01*
X204002201Y-196585771D01*
X203859344Y-196514343D01*
X203787915Y-196442914D01*
X203716487Y-196300057D01*
X203645058Y-196014343D01*
X203645058Y-195657200D01*
X203716487Y-195371486D01*
X203787915Y-195228629D01*
X203859344Y-195157200D01*
X204002201Y-195085771D01*
X205145058Y-196442914D02*
X205216486Y-196514343D01*
X205145058Y-196585771D01*
X205073629Y-196514343D01*
X205145058Y-196442914D01*
X205145058Y-196585771D01*
X206502201Y-195585771D02*
X206502201Y-196585771D01*
X206145058Y-195014343D02*
X205787915Y-196085771D01*
X206716487Y-196085771D01*
X207287915Y-196014343D02*
X208430772Y-196014343D01*
X207859343Y-196585771D02*
X207859343Y-195442914D01*
X209787915Y-196585771D02*
X209787915Y-195085771D01*
X209787915Y-196514343D02*
X209645058Y-196585771D01*
X209359344Y-196585771D01*
X209216486Y-196514343D01*
X209145058Y-196442914D01*
X209073629Y-196300057D01*
X209073629Y-195871486D01*
X209145058Y-195728629D01*
X209216486Y-195657200D01*
X209359344Y-195585771D01*
X209645058Y-195585771D01*
X209787915Y-195657200D01*
X210287915Y-195585771D02*
X210859344Y-195585771D01*
X210502201Y-196585771D02*
X210502201Y-195300057D01*
X210573629Y-195157200D01*
X210716487Y-195085771D01*
X210859344Y-195085771D01*
X211287915Y-196514343D02*
X211430772Y-196585771D01*
X211716487Y-196585771D01*
X211859344Y-196514343D01*
X211930772Y-196371486D01*
X211930772Y-196300057D01*
X211859344Y-196157200D01*
X211716487Y-196085771D01*
X211502201Y-196085771D01*
X211359344Y-196014343D01*
X211287915Y-195871486D01*
X211287915Y-195800057D01*
X211359344Y-195657200D01*
X211502201Y-195585771D01*
X211716487Y-195585771D01*
X211859344Y-195657200D01*
X213216487Y-195585771D02*
X213216487Y-196800057D01*
X213145058Y-196942914D01*
X213073630Y-197014343D01*
X212930773Y-197085771D01*
X212716487Y-197085771D01*
X212573630Y-197014343D01*
X213216487Y-196514343D02*
X213073630Y-196585771D01*
X212787916Y-196585771D01*
X212645058Y-196514343D01*
X212573630Y-196442914D01*
X212502201Y-196300057D01*
X212502201Y-195871486D01*
X212573630Y-195728629D01*
X212645058Y-195657200D01*
X212787916Y-195585771D01*
X213073630Y-195585771D01*
X213216487Y-195657200D01*
X214716487Y-196585771D02*
X213859344Y-196585771D01*
X214287916Y-196585771D02*
X214287916Y-195085771D01*
X214145059Y-195300057D01*
X214002201Y-195442914D01*
X213859344Y-195514343D01*
X215359344Y-196014343D02*
X216502201Y-196014343D01*
X217145058Y-196514343D02*
X217287915Y-196585771D01*
X217573630Y-196585771D01*
X217716487Y-196514343D01*
X217787915Y-196371486D01*
X217787915Y-196300057D01*
X217716487Y-196157200D01*
X217573630Y-196085771D01*
X217359344Y-196085771D01*
X217216487Y-196014343D01*
X217145058Y-195871486D01*
X217145058Y-195800057D01*
X217216487Y-195657200D01*
X217359344Y-195585771D01*
X217573630Y-195585771D01*
X217716487Y-195657200D01*
X218216487Y-195585771D02*
X218787916Y-195585771D01*
X218430773Y-195085771D02*
X218430773Y-196371486D01*
X218502201Y-196514343D01*
X218645059Y-196585771D01*
X218787916Y-196585771D01*
X219930773Y-196585771D02*
X219930773Y-195800057D01*
X219859344Y-195657200D01*
X219716487Y-195585771D01*
X219430773Y-195585771D01*
X219287916Y-195657200D01*
X219930773Y-196514343D02*
X219787916Y-196585771D01*
X219430773Y-196585771D01*
X219287916Y-196514343D01*
X219216487Y-196371486D01*
X219216487Y-196228629D01*
X219287916Y-196085771D01*
X219430773Y-196014343D01*
X219787916Y-196014343D01*
X219930773Y-195942914D01*
X220645059Y-196585771D02*
X220645059Y-195085771D01*
X220645059Y-195657200D02*
X220787916Y-195585771D01*
X221073630Y-195585771D01*
X221216487Y-195657200D01*
X221287916Y-195728629D01*
X221359345Y-195871486D01*
X221359345Y-196300057D01*
X221287916Y-196442914D01*
X221216487Y-196514343D01*
X221073630Y-196585771D01*
X220787916Y-196585771D01*
X220645059Y-196514343D01*
X222216488Y-196585771D02*
X222073630Y-196514343D01*
X222002202Y-196371486D01*
X222002202Y-195085771D01*
X223359344Y-196514343D02*
X223216487Y-196585771D01*
X222930773Y-196585771D01*
X222787916Y-196514343D01*
X222716487Y-196371486D01*
X222716487Y-195800057D01*
X222787916Y-195657200D01*
X222930773Y-195585771D01*
X223216487Y-195585771D01*
X223359344Y-195657200D01*
X223430773Y-195800057D01*
X223430773Y-195942914D01*
X222716487Y-196085771D01*
D10*
D11*
X177002200Y-191507200D02*
X285002200Y-191507200D01*
D10*
D12*
X264216486Y-193785771D02*
X263716486Y-193071486D01*
X263359343Y-193785771D02*
X263359343Y-192285771D01*
X263930771Y-192285771D01*
X264073629Y-192357200D01*
X264145057Y-192428629D01*
X264216486Y-192571486D01*
X264216486Y-192785771D01*
X264145057Y-192928629D01*
X264073629Y-193000057D01*
X263930771Y-193071486D01*
X263359343Y-193071486D01*
X265430771Y-193714343D02*
X265287914Y-193785771D01*
X265002200Y-193785771D01*
X264859343Y-193714343D01*
X264787914Y-193571486D01*
X264787914Y-193000057D01*
X264859343Y-192857200D01*
X265002200Y-192785771D01*
X265287914Y-192785771D01*
X265430771Y-192857200D01*
X265502200Y-193000057D01*
X265502200Y-193142914D01*
X264787914Y-193285771D01*
X266002200Y-192785771D02*
X266359343Y-193785771D01*
X266716485Y-192785771D01*
X267287914Y-193642914D02*
X267359342Y-193714343D01*
X267287914Y-193785771D01*
X267216485Y-193714343D01*
X267287914Y-193642914D01*
X267287914Y-193785771D01*
X267287914Y-192857200D02*
X267359342Y-192928629D01*
X267287914Y-193000057D01*
X267216485Y-192928629D01*
X267287914Y-192857200D01*
X267287914Y-193000057D01*
D10*
D11*
X178287914Y-193714343D02*
X178502200Y-193785771D01*
X178859343Y-193785771D01*
X179002200Y-193714343D01*
X179073629Y-193642914D01*
X179145057Y-193500057D01*
X179145057Y-193357200D01*
X179073629Y-193214343D01*
X179002200Y-193142914D01*
X178859343Y-193071486D01*
X178573629Y-193000057D01*
X178430771Y-192928629D01*
X178359343Y-192857200D01*
X178287914Y-192714343D01*
X178287914Y-192571486D01*
X178359343Y-192428629D01*
X178430771Y-192357200D01*
X178573629Y-192285771D01*
X178930771Y-192285771D01*
X179145057Y-192357200D01*
X179787914Y-193785771D02*
X179787914Y-192785771D01*
X179787914Y-192285771D02*
X179716485Y-192357200D01*
X179787914Y-192428629D01*
X179859342Y-192357200D01*
X179787914Y-192285771D01*
X179787914Y-192428629D01*
X180359343Y-192785771D02*
X181145057Y-192785771D01*
X180359343Y-193785771D01*
X181145057Y-193785771D01*
X182287914Y-193714343D02*
X182145057Y-193785771D01*
X181859343Y-193785771D01*
X181716486Y-193714343D01*
X181645057Y-193571486D01*
X181645057Y-193000057D01*
X181716486Y-192857200D01*
X181859343Y-192785771D01*
X182145057Y-192785771D01*
X182287914Y-192857200D01*
X182359343Y-193000057D01*
X182359343Y-193142914D01*
X181645057Y-193285771D01*
X183002200Y-193642914D02*
X183073628Y-193714343D01*
X183002200Y-193785771D01*
X182930771Y-193714343D01*
X183002200Y-193642914D01*
X183002200Y-193785771D01*
X183002200Y-192857200D02*
X183073628Y-192928629D01*
X183002200Y-193000057D01*
X182930771Y-192928629D01*
X183002200Y-192857200D01*
X183002200Y-193000057D01*
X184787914Y-193357200D02*
X185502200Y-193357200D01*
X184645057Y-193785771D02*
X185145057Y-192285771D01*
X185645057Y-193785771D01*
X186787914Y-192785771D02*
X186787914Y-193785771D01*
X186430771Y-192214343D02*
X186073628Y-193285771D01*
X187002200Y-193285771D01*
D10*
D11*
X263359343Y-196585771D02*
X263359343Y-195085771D01*
X264716486Y-196585771D02*
X264716486Y-195085771D01*
X264716486Y-196514343D02*
X264573629Y-196585771D01*
X264287915Y-196585771D01*
X264145057Y-196514343D01*
X264073629Y-196442914D01*
X264002200Y-196300057D01*
X264002200Y-195871486D01*
X264073629Y-195728629D01*
X264145057Y-195657200D01*
X264287915Y-195585771D01*
X264573629Y-195585771D01*
X264716486Y-195657200D01*
X265430772Y-196442914D02*
X265502200Y-196514343D01*
X265430772Y-196585771D01*
X265359343Y-196514343D01*
X265430772Y-196442914D01*
X265430772Y-196585771D01*
X265430772Y-195657200D02*
X265502200Y-195728629D01*
X265430772Y-195800057D01*
X265359343Y-195728629D01*
X265430772Y-195657200D01*
X265430772Y-195800057D01*
X268073629Y-196585771D02*
X267216486Y-196585771D01*
X267645058Y-196585771D02*
X267645058Y-195085771D01*
X267502201Y-195300057D01*
X267359343Y-195442914D01*
X267216486Y-195514343D01*
X269787914Y-195014343D02*
X268502200Y-196942914D01*
X271073629Y-196585771D02*
X270216486Y-196585771D01*
X270645058Y-196585771D02*
X270645058Y-195085771D01*
X270502201Y-195300057D01*
X270359343Y-195442914D01*
X270216486Y-195514343D01*
D10*
D11*
X177002200Y-187507200D02*
X285002200Y-187507200D01*
D10*
D13*
X178454581Y-188211962D02*
X179597438Y-188211962D01*
X178776010Y-190211962D02*
X179026010Y-188211962D01*
X180014105Y-190211962D02*
X180180771Y-188878629D01*
X180264105Y-188211962D02*
X180156962Y-188307200D01*
X180240295Y-188402438D01*
X180347439Y-188307200D01*
X180264105Y-188211962D01*
X180240295Y-188402438D01*
X180847438Y-188878629D02*
X181609343Y-188878629D01*
X181216486Y-188211962D02*
X181002200Y-189926248D01*
X181073630Y-190116724D01*
X181252201Y-190211962D01*
X181442677Y-190211962D01*
X182395058Y-190211962D02*
X182216487Y-190116724D01*
X182145057Y-189926248D01*
X182359343Y-188211962D01*
X183930772Y-190116724D02*
X183728391Y-190211962D01*
X183347439Y-190211962D01*
X183168867Y-190116724D01*
X183097438Y-189926248D01*
X183192676Y-189164343D01*
X183311724Y-188973867D01*
X183514105Y-188878629D01*
X183895057Y-188878629D01*
X184073629Y-188973867D01*
X184145057Y-189164343D01*
X184121248Y-189354819D01*
X183145057Y-189545295D01*
X184895057Y-190021486D02*
X184978392Y-190116724D01*
X184871248Y-190211962D01*
X184787915Y-190116724D01*
X184895057Y-190021486D01*
X184871248Y-190211962D01*
X185026010Y-188973867D02*
X185109344Y-189069105D01*
X185002200Y-189164343D01*
X184918867Y-189069105D01*
X185026010Y-188973867D01*
X185002200Y-189164343D01*
D10*
D11*
X178859343Y-185600057D02*
X178359343Y-185600057D01*
X178359343Y-186385771D02*
X178359343Y-184885771D01*
X179073629Y-184885771D01*
X179645057Y-186385771D02*
X179645057Y-185385771D01*
X179645057Y-184885771D02*
X179573628Y-184957200D01*
X179645057Y-185028629D01*
X179716485Y-184957200D01*
X179645057Y-184885771D01*
X179645057Y-185028629D01*
X180573629Y-186385771D02*
X180430771Y-186314343D01*
X180359343Y-186171486D01*
X180359343Y-184885771D01*
X181716485Y-186314343D02*
X181573628Y-186385771D01*
X181287914Y-186385771D01*
X181145057Y-186314343D01*
X181073628Y-186171486D01*
X181073628Y-185600057D01*
X181145057Y-185457200D01*
X181287914Y-185385771D01*
X181573628Y-185385771D01*
X181716485Y-185457200D01*
X181787914Y-185600057D01*
X181787914Y-185742914D01*
X181073628Y-185885771D01*
X182430771Y-186242914D02*
X182502199Y-186314343D01*
X182430771Y-186385771D01*
X182359342Y-186314343D01*
X182430771Y-186242914D01*
X182430771Y-186385771D01*
X182430771Y-185457200D02*
X182502199Y-185528629D01*
X182430771Y-185600057D01*
X182359342Y-185528629D01*
X182430771Y-185457200D01*
X182430771Y-185600057D01*
X184287914Y-186385771D02*
X184287914Y-185385771D01*
X184287914Y-185528629D02*
X184359342Y-185457200D01*
X184502200Y-185385771D01*
X184716485Y-185385771D01*
X184859342Y-185457200D01*
X184930771Y-185600057D01*
X184930771Y-186385771D01*
X184930771Y-185600057D02*
X185002200Y-185457200D01*
X185145057Y-185385771D01*
X185359342Y-185385771D01*
X185502200Y-185457200D01*
X185573628Y-185600057D01*
X185573628Y-186385771D01*
X186930771Y-186385771D02*
X186930771Y-185600057D01*
X186859342Y-185457200D01*
X186716485Y-185385771D01*
X186430771Y-185385771D01*
X186287914Y-185457200D01*
X186930771Y-186314343D02*
X186787914Y-186385771D01*
X186430771Y-186385771D01*
X186287914Y-186314343D01*
X186216485Y-186171486D01*
X186216485Y-186028629D01*
X186287914Y-185885771D01*
X186430771Y-185814343D01*
X186787914Y-185814343D01*
X186930771Y-185742914D01*
X187645057Y-186385771D02*
X187645057Y-185385771D01*
X187645057Y-184885771D02*
X187573628Y-184957200D01*
X187645057Y-185028629D01*
X187716485Y-184957200D01*
X187645057Y-184885771D01*
X187645057Y-185028629D01*
X188359343Y-185385771D02*
X188359343Y-186385771D01*
X188359343Y-185528629D02*
X188430771Y-185457200D01*
X188573629Y-185385771D01*
X188787914Y-185385771D01*
X188930771Y-185457200D01*
X189002200Y-185600057D01*
X189002200Y-186385771D01*
X189716486Y-186242914D02*
X189787914Y-186314343D01*
X189716486Y-186385771D01*
X189645057Y-186314343D01*
X189716486Y-186242914D01*
X189716486Y-186385771D01*
X190430772Y-186385771D02*
X190430772Y-184885771D01*
X190573629Y-185814343D02*
X191002200Y-186385771D01*
X191002200Y-185385771D02*
X190430772Y-185957200D01*
X191645058Y-186385771D02*
X191645058Y-185385771D01*
X191645058Y-184885771D02*
X191573629Y-184957200D01*
X191645058Y-185028629D01*
X191716486Y-184957200D01*
X191645058Y-184885771D01*
X191645058Y-185028629D01*
X193002201Y-186314343D02*
X192859344Y-186385771D01*
X192573630Y-186385771D01*
X192430772Y-186314343D01*
X192359344Y-186242914D01*
X192287915Y-186100057D01*
X192287915Y-185671486D01*
X192359344Y-185528629D01*
X192430772Y-185457200D01*
X192573630Y-185385771D01*
X192859344Y-185385771D01*
X193002201Y-185457200D01*
X194287915Y-186385771D02*
X194287915Y-185600057D01*
X194216486Y-185457200D01*
X194073629Y-185385771D01*
X193787915Y-185385771D01*
X193645058Y-185457200D01*
X194287915Y-186314343D02*
X194145058Y-186385771D01*
X193787915Y-186385771D01*
X193645058Y-186314343D01*
X193573629Y-186171486D01*
X193573629Y-186028629D01*
X193645058Y-185885771D01*
X193787915Y-185814343D01*
X194145058Y-185814343D01*
X194287915Y-185742914D01*
X195645058Y-186385771D02*
X195645058Y-184885771D01*
X195645058Y-186314343D02*
X195502201Y-186385771D01*
X195216487Y-186385771D01*
X195073629Y-186314343D01*
X195002201Y-186242914D01*
X194930772Y-186100057D01*
X194930772Y-185671486D01*
X195002201Y-185528629D01*
X195073629Y-185457200D01*
X195216487Y-185385771D01*
X195502201Y-185385771D01*
X195645058Y-185457200D01*
X196002201Y-186528629D02*
X197145058Y-186528629D01*
X197502201Y-185385771D02*
X197502201Y-186885771D01*
X197502201Y-185457200D02*
X197645058Y-185385771D01*
X197930772Y-185385771D01*
X198073629Y-185457200D01*
X198145058Y-185528629D01*
X198216487Y-185671486D01*
X198216487Y-186100057D01*
X198145058Y-186242914D01*
X198073629Y-186314343D01*
X197930772Y-186385771D01*
X197645058Y-186385771D01*
X197502201Y-186314343D01*
X199502201Y-186314343D02*
X199359344Y-186385771D01*
X199073630Y-186385771D01*
X198930772Y-186314343D01*
X198859344Y-186242914D01*
X198787915Y-186100057D01*
X198787915Y-185671486D01*
X198859344Y-185528629D01*
X198930772Y-185457200D01*
X199073630Y-185385771D01*
X199359344Y-185385771D01*
X199502201Y-185457200D01*
X200145058Y-186385771D02*
X200145058Y-184885771D01*
X200145058Y-185457200D02*
X200287915Y-185385771D01*
X200573629Y-185385771D01*
X200716486Y-185457200D01*
X200787915Y-185528629D01*
X200859344Y-185671486D01*
X200859344Y-186100057D01*
X200787915Y-186242914D01*
X200716486Y-186314343D01*
X200573629Y-186385771D01*
X200287915Y-186385771D01*
X200145058Y-186314343D01*
D10*
D11*
X177002200Y-181507200D02*
X285002200Y-181507200D01*
D10*
D11*
X178287914Y-183614343D02*
X178502200Y-183685771D01*
X178859343Y-183685771D01*
X179002200Y-183614343D01*
X179073629Y-183542914D01*
X179145057Y-183400057D01*
X179145057Y-183257200D01*
X179073629Y-183114343D01*
X179002200Y-183042914D01*
X178859343Y-182971486D01*
X178573629Y-182900057D01*
X178430771Y-182828629D01*
X178359343Y-182757200D01*
X178287914Y-182614343D01*
X178287914Y-182471486D01*
X178359343Y-182328629D01*
X178430771Y-182257200D01*
X178573629Y-182185771D01*
X178930771Y-182185771D01*
X179145057Y-182257200D01*
X179787914Y-183685771D02*
X179787914Y-182185771D01*
X180430771Y-183685771D02*
X180430771Y-182900057D01*
X180359342Y-182757200D01*
X180216485Y-182685771D01*
X180002200Y-182685771D01*
X179859342Y-182757200D01*
X179787914Y-182828629D01*
X181716485Y-183614343D02*
X181573628Y-183685771D01*
X181287914Y-183685771D01*
X181145057Y-183614343D01*
X181073628Y-183471486D01*
X181073628Y-182900057D01*
X181145057Y-182757200D01*
X181287914Y-182685771D01*
X181573628Y-182685771D01*
X181716485Y-182757200D01*
X181787914Y-182900057D01*
X181787914Y-183042914D01*
X181073628Y-183185771D01*
X183002199Y-183614343D02*
X182859342Y-183685771D01*
X182573628Y-183685771D01*
X182430771Y-183614343D01*
X182359342Y-183471486D01*
X182359342Y-182900057D01*
X182430771Y-182757200D01*
X182573628Y-182685771D01*
X182859342Y-182685771D01*
X183002199Y-182757200D01*
X183073628Y-182900057D01*
X183073628Y-183042914D01*
X182359342Y-183185771D01*
X183502199Y-182685771D02*
X184073628Y-182685771D01*
X183716485Y-182185771D02*
X183716485Y-183471486D01*
X183787913Y-183614343D01*
X183930771Y-183685771D01*
X184073628Y-183685771D01*
X184573628Y-183542914D02*
X184645056Y-183614343D01*
X184573628Y-183685771D01*
X184502199Y-183614343D01*
X184573628Y-183542914D01*
X184573628Y-183685771D01*
X184573628Y-182757200D02*
X184645056Y-182828629D01*
X184573628Y-182900057D01*
X184502199Y-182828629D01*
X184573628Y-182757200D01*
X184573628Y-182900057D01*
D10*
D11*
X197002200Y-191507200D02*
X197002200Y-194507200D01*
D10*
D11*
X261002200Y-191507200D02*
X261002200Y-198007200D01*
D14*
X100857142Y-48928571D02*
X101190475Y-50428571D01*
X101523809Y-48928571D01*
X102238095Y-50357143D02*
X102142857Y-50428571D01*
X101952380Y-50428571D01*
X101857142Y-50357143D01*
X101809523Y-50214286D01*
X101809523Y-49642857D01*
X101857142Y-49500000D01*
X101952380Y-49428571D01*
X102142857Y-49428571D01*
X102238095Y-49500000D01*
X102285714Y-49642857D01*
X102285714Y-49785714D01*
X101809523Y-49928571D01*
X102714285Y-50428571D02*
X102714285Y-49428571D01*
X102714285Y-49714286D02*
X102761904Y-49571429D01*
X102809523Y-49500000D01*
X102904761Y-49428571D01*
X103000000Y-49428571D01*
X103333333Y-50285714D02*
X103380952Y-50357143D01*
X103333333Y-50428571D01*
X103285714Y-50357143D01*
X103333333Y-50285714D01*
X103333333Y-50428571D01*
X104761904Y-48928571D02*
X104857143Y-48928571D01*
X104952381Y-49000000D01*
X105000000Y-49071429D01*
X105047619Y-49214286D01*
X105095238Y-49500000D01*
X105095238Y-49857143D01*
X105047619Y-50142857D01*
X105000000Y-50285714D01*
X104952381Y-50357143D01*
X104857143Y-50428571D01*
X104761904Y-50428571D01*
X104666666Y-50357143D01*
X104619047Y-50285714D01*
X104571428Y-50142857D01*
X104523809Y-49857143D01*
X104523809Y-49500000D01*
X104571428Y-49214286D01*
X104619047Y-49071429D01*
X104666666Y-49000000D01*
X104761904Y-48928571D01*
X105523809Y-50285714D02*
X105571428Y-50357143D01*
X105523809Y-50428571D01*
X105476190Y-50357143D01*
X105523809Y-50285714D01*
X105523809Y-50428571D01*
X106523809Y-50428571D02*
X105952380Y-50428571D01*
X106238094Y-50428571D02*
X106238094Y-48928571D01*
X106142856Y-49142857D01*
X106047618Y-49285714D01*
X105952380Y-49357143D01*
X108000000Y-51000000D02*
X107952380Y-50928571D01*
X107857142Y-50714286D01*
X107809523Y-50571429D01*
X107761904Y-50357143D01*
X107714285Y-50000000D01*
X107714285Y-49714286D01*
X107761904Y-49357143D01*
X107809523Y-49142857D01*
X107857142Y-49000000D01*
X107952380Y-48785714D01*
X108000000Y-48714286D01*
X108952381Y-50285714D02*
X108904762Y-50357143D01*
X108761905Y-50428571D01*
X108666667Y-50428571D01*
X108523809Y-50357143D01*
X108428571Y-50214286D01*
X108380952Y-50071429D01*
X108333333Y-49785714D01*
X108333333Y-49571429D01*
X108380952Y-49285714D01*
X108428571Y-49142857D01*
X108523809Y-49000000D01*
X108666667Y-48928571D01*
X108761905Y-48928571D01*
X108904762Y-49000000D01*
X108952381Y-49071429D01*
X109285714Y-51000000D02*
X109333333Y-50928571D01*
X109428571Y-50714286D01*
X109476190Y-50571429D01*
X109523809Y-50357143D01*
X109571428Y-50000000D01*
X109571428Y-49714286D01*
X109523809Y-49357143D01*
X109476190Y-49142857D01*
X109428571Y-49000000D01*
X109333333Y-48785714D01*
X109285714Y-48714286D01*
X111095239Y-48928571D02*
X111095239Y-50000000D01*
X111047619Y-50214286D01*
X110952381Y-50357143D01*
X110809524Y-50428571D01*
X110714286Y-50428571D01*
X111523810Y-50000000D02*
X112000001Y-50000000D01*
X111428572Y-50428571D02*
X111761905Y-48928571D01*
X112095239Y-50428571D01*
X112476191Y-50357143D02*
X112476191Y-50428571D01*
X112428572Y-50571429D01*
X112380953Y-50642857D01*
X113619048Y-49071429D02*
X113666667Y-49000000D01*
X113761905Y-48928571D01*
X114000001Y-48928571D01*
X114095239Y-49000000D01*
X114142858Y-49071429D01*
X114190477Y-49214286D01*
X114190477Y-49357143D01*
X114142858Y-49571429D01*
X113571429Y-50428571D01*
X114190477Y-50428571D01*
X114809524Y-48928571D02*
X114904763Y-48928571D01*
X115000001Y-49000000D01*
X115047620Y-49071429D01*
X115095239Y-49214286D01*
X115142858Y-49500000D01*
X115142858Y-49857143D01*
X115095239Y-50142857D01*
X115047620Y-50285714D01*
X115000001Y-50357143D01*
X114904763Y-50428571D01*
X114809524Y-50428571D01*
X114714286Y-50357143D01*
X114666667Y-50285714D01*
X114619048Y-50142857D01*
X114571429Y-49857143D01*
X114571429Y-49500000D01*
X114619048Y-49214286D01*
X114666667Y-49071429D01*
X114714286Y-49000000D01*
X114809524Y-48928571D01*
X116095239Y-50428571D02*
X115523810Y-50428571D01*
X115809524Y-50428571D02*
X115809524Y-48928571D01*
X115714286Y-49142857D01*
X115619048Y-49285714D01*
X115523810Y-49357143D01*
X116428572Y-48928571D02*
X117095239Y-48928571D01*
X116666667Y-50428571D01*
X108214286Y-51500000D02*
X108119048Y-51428571D01*
X107976191Y-51428571D01*
X107833333Y-51500000D01*
X107738095Y-51642857D01*
X107690476Y-51785714D01*
X107642857Y-52071429D01*
X107642857Y-52285714D01*
X107690476Y-52571429D01*
X107738095Y-52714286D01*
X107833333Y-52857143D01*
X107976191Y-52928571D01*
X108071429Y-52928571D01*
X108214286Y-52857143D01*
X108261905Y-52785714D01*
X108261905Y-52285714D01*
X108071429Y-52285714D01*
X108690476Y-52928571D02*
X108690476Y-51428571D01*
X109261905Y-52928571D01*
X109261905Y-51428571D01*
X109738095Y-51428571D02*
X109738095Y-52642857D01*
X109785714Y-52785714D01*
X109833333Y-52857143D01*
X109928571Y-52928571D01*
X110119048Y-52928571D01*
X110214286Y-52857143D01*
X110261905Y-52785714D01*
X110309524Y-52642857D01*
X110309524Y-51428571D01*
X44990476Y-49450000D02*
X45466667Y-49450000D01*
X44895238Y-49878571D02*
X45228571Y-48378571D01*
X45561905Y-49878571D01*
X46419048Y-48450000D02*
X46323810Y-48378571D01*
X46180953Y-48378571D01*
X46038095Y-48450000D01*
X45942857Y-48592857D01*
X45895238Y-48735714D01*
X45847619Y-49021429D01*
X45847619Y-49235714D01*
X45895238Y-49521429D01*
X45942857Y-49664286D01*
X46038095Y-49807143D01*
X46180953Y-49878571D01*
X46276191Y-49878571D01*
X46419048Y-49807143D01*
X46466667Y-49735714D01*
X46466667Y-49235714D01*
X46276191Y-49235714D01*
X46895238Y-49878571D02*
X46895238Y-48378571D01*
X47466667Y-49878571D01*
X47466667Y-48378571D01*
X47942857Y-49878571D02*
X47942857Y-48378571D01*
X48180952Y-48378571D01*
X48323810Y-48450000D01*
X48419048Y-48592857D01*
X48466667Y-48735714D01*
X48514286Y-49021429D01*
X48514286Y-49235714D01*
X48466667Y-49521429D01*
X48419048Y-49664286D01*
X48323810Y-49807143D01*
X48180952Y-49878571D01*
X47942857Y-49878571D01*
X44990476Y-47050000D02*
X45466667Y-47050000D01*
X44895238Y-47478571D02*
X45228571Y-45978571D01*
X45561905Y-47478571D01*
X46419048Y-46050000D02*
X46323810Y-45978571D01*
X46180953Y-45978571D01*
X46038095Y-46050000D01*
X45942857Y-46192857D01*
X45895238Y-46335714D01*
X45847619Y-46621429D01*
X45847619Y-46835714D01*
X45895238Y-47121429D01*
X45942857Y-47264286D01*
X46038095Y-47407143D01*
X46180953Y-47478571D01*
X46276191Y-47478571D01*
X46419048Y-47407143D01*
X46466667Y-47335714D01*
X46466667Y-46835714D01*
X46276191Y-46835714D01*
X46895238Y-47478571D02*
X46895238Y-45978571D01*
X47466667Y-47478571D01*
X47466667Y-45978571D01*
X47942857Y-47478571D02*
X47942857Y-45978571D01*
X48180952Y-45978571D01*
X48323810Y-46050000D01*
X48419048Y-46192857D01*
X48466667Y-46335714D01*
X48514286Y-46621429D01*
X48514286Y-46835714D01*
X48466667Y-47121429D01*
X48419048Y-47264286D01*
X48323810Y-47407143D01*
X48180952Y-47478571D01*
X47942857Y-47478571D01*
X45609524Y-45078571D02*
X45276190Y-44364286D01*
X45038095Y-45078571D02*
X45038095Y-43578571D01*
X45419048Y-43578571D01*
X45514286Y-43650000D01*
X45561905Y-43721429D01*
X45609524Y-43864286D01*
X45609524Y-44078571D01*
X45561905Y-44221429D01*
X45514286Y-44292857D01*
X45419048Y-44364286D01*
X45038095Y-44364286D01*
X46038095Y-44292857D02*
X46371429Y-44292857D01*
X46514286Y-45078571D02*
X46038095Y-45078571D01*
X46038095Y-43578571D01*
X46514286Y-43578571D01*
X47276191Y-44292857D02*
X46942857Y-44292857D01*
X46942857Y-45078571D02*
X46942857Y-43578571D01*
X47419048Y-43578571D01*
X45038095Y-42278571D02*
X45038095Y-40778571D01*
X45038095Y-41492857D02*
X45609524Y-41492857D01*
X45609524Y-42278571D02*
X45609524Y-40778571D01*
X46609524Y-40850000D02*
X46514286Y-40778571D01*
X46371429Y-40778571D01*
X46228571Y-40850000D01*
X46133333Y-40992857D01*
X46085714Y-41135714D01*
X46038095Y-41421429D01*
X46038095Y-41635714D01*
X46085714Y-41921429D01*
X46133333Y-42064286D01*
X46228571Y-42207143D01*
X46371429Y-42278571D01*
X46466667Y-42278571D01*
X46609524Y-42207143D01*
X46657143Y-42135714D01*
X46657143Y-41635714D01*
X46466667Y-41635714D01*
X47085714Y-42278571D02*
X47085714Y-40778571D01*
X47657143Y-42278571D01*
X47657143Y-40778571D01*
X48133333Y-42278571D02*
X48133333Y-40778571D01*
X48371428Y-40778571D01*
X48514286Y-40850000D01*
X48609524Y-40992857D01*
X48657143Y-41135714D01*
X48704762Y-41421429D01*
X48704762Y-41635714D01*
X48657143Y-41921429D01*
X48609524Y-42064286D01*
X48514286Y-42207143D01*
X48371428Y-42278571D01*
X48133333Y-42278571D01*
X45038095Y-39307143D02*
X45800000Y-39307143D01*
X46133333Y-38378571D02*
X46466666Y-39878571D01*
X46800000Y-38378571D01*
X47133333Y-39092857D02*
X47466667Y-39092857D01*
X47609524Y-39878571D02*
X47133333Y-39878571D01*
X47133333Y-38378571D01*
X47609524Y-38378571D01*
X45190476Y-36850000D02*
X45666667Y-36850000D01*
X45095238Y-37278571D02*
X45428571Y-35778571D01*
X45761905Y-37278571D01*
X46619048Y-35850000D02*
X46523810Y-35778571D01*
X46380953Y-35778571D01*
X46238095Y-35850000D01*
X46142857Y-35992857D01*
X46095238Y-36135714D01*
X46047619Y-36421429D01*
X46047619Y-36635714D01*
X46095238Y-36921429D01*
X46142857Y-37064286D01*
X46238095Y-37207143D01*
X46380953Y-37278571D01*
X46476191Y-37278571D01*
X46619048Y-37207143D01*
X46666667Y-37135714D01*
X46666667Y-36635714D01*
X46476191Y-36635714D01*
X47095238Y-37278571D02*
X47095238Y-35778571D01*
X47666667Y-37278571D01*
X47666667Y-35778571D01*
X48142857Y-37278571D02*
X48142857Y-35778571D01*
X48380952Y-35778571D01*
X48523810Y-35850000D01*
X48619048Y-35992857D01*
X48666667Y-36135714D01*
X48714286Y-36421429D01*
X48714286Y-36635714D01*
X48666667Y-36921429D01*
X48619048Y-37064286D01*
X48523810Y-37207143D01*
X48380952Y-37278571D01*
X48142857Y-37278571D01*
X45038095Y-33907143D02*
X45800000Y-33907143D01*
X45419048Y-34478571D02*
X45419048Y-33335714D01*
X46133333Y-32978571D02*
X46466666Y-34478571D01*
X46800000Y-32978571D01*
X47133333Y-33692857D02*
X47466667Y-33692857D01*
X47609524Y-34478571D02*
X47133333Y-34478571D01*
X47133333Y-32978571D01*
X47609524Y-32978571D01*
D11*
X58349760Y-32700840D02*
X58349760Y-32749100D01*
X59050800Y-35499820D02*
X58349760Y-35499820D01*
X58349760Y-35499820D02*
X58349760Y-35250900D01*
X58349760Y-32700840D02*
X58349760Y-32500180D01*
X58349760Y-32500180D02*
X59050800Y-32500180D01*
X56025000Y-42000000D02*
X56025000Y-40000000D01*
X53975000Y-40000000D02*
X53975000Y-42000000D01*
X68000000Y-50025000D02*
X70000000Y-50025000D01*
X70000000Y-47975000D02*
X68000000Y-47975000D01*
X53025000Y-36000000D02*
X53025000Y-34000000D01*
X50975000Y-34000000D02*
X50975000Y-36000000D01*
X62975000Y-47000000D02*
X62975000Y-49000000D01*
X65025000Y-49000000D02*
X65025000Y-47000000D01*
X72975000Y-42000000D02*
X72975000Y-44000000D01*
X75025000Y-44000000D02*
X75025000Y-42000000D01*
X58000000Y-38925000D02*
X60000000Y-38925000D01*
X60000000Y-41075000D02*
X58000000Y-41075000D01*
X65075000Y-36000000D02*
X65075000Y-38000000D01*
X62925000Y-38000000D02*
X62925000Y-36000000D01*
X56425000Y-50075000D02*
X56475000Y-50075000D01*
X56425000Y-45925000D02*
X56570000Y-45925000D01*
X61575000Y-45925000D02*
X61430000Y-45925000D01*
X61575000Y-50075000D02*
X61430000Y-50075000D01*
X56425000Y-50075000D02*
X56425000Y-45925000D01*
X61575000Y-50075000D02*
X61575000Y-45925000D01*
X56475000Y-50075000D02*
X56475000Y-51475000D01*
X66425000Y-45075000D02*
X66475000Y-45075000D01*
X66425000Y-40925000D02*
X66570000Y-40925000D01*
X71575000Y-40925000D02*
X71430000Y-40925000D01*
X71575000Y-45075000D02*
X71430000Y-45075000D01*
X66425000Y-45075000D02*
X66425000Y-40925000D01*
X71575000Y-45075000D02*
X71575000Y-40925000D01*
X66475000Y-45075000D02*
X66475000Y-46475000D01*
X68349760Y-32700840D02*
X68349760Y-32749100D01*
X69050800Y-35499820D02*
X68349760Y-35499820D01*
X68349760Y-35499820D02*
X68349760Y-35250900D01*
X68349760Y-32700840D02*
X68349760Y-32500180D01*
X68349760Y-32500180D02*
X69050800Y-32500180D01*
X80476000Y-31952000D02*
X80476000Y-33095000D01*
X83524000Y-31952000D02*
X83524000Y-33095000D01*
X87334000Y-33095000D02*
X87334000Y-36778000D01*
X87334000Y-36778000D02*
X76666000Y-36778000D01*
X76666000Y-36778000D02*
X76666000Y-33095000D01*
X87334000Y-31952000D02*
X87334000Y-33095000D01*
X87334000Y-33095000D02*
X76666000Y-33095000D01*
X76666000Y-33095000D02*
X76666000Y-31952000D01*
X82000000Y-31952000D02*
X76666000Y-31952000D01*
X82000000Y-31952000D02*
X87334000Y-31952000D01*
X83524000Y-53048000D02*
X83524000Y-51905000D01*
X80476000Y-53048000D02*
X80476000Y-51905000D01*
X76666000Y-51905000D02*
X76666000Y-48222000D01*
X76666000Y-48222000D02*
X87334000Y-48222000D01*
X87334000Y-48222000D02*
X87334000Y-51905000D01*
X76666000Y-53048000D02*
X76666000Y-51905000D01*
X76666000Y-51905000D02*
X87334000Y-51905000D01*
X87334000Y-51905000D02*
X87334000Y-53048000D01*
X82000000Y-53048000D02*
X87334000Y-53048000D01*
X82000000Y-53048000D02*
X76666000Y-53048000D01*
X105048000Y-35476000D02*
X103905000Y-35476000D01*
X105048000Y-38524000D02*
X103905000Y-38524000D01*
X103905000Y-42334000D02*
X100222000Y-42334000D01*
X100222000Y-42334000D02*
X100222000Y-31666000D01*
X100222000Y-31666000D02*
X103905000Y-31666000D01*
X105048000Y-42334000D02*
X103905000Y-42334000D01*
X103905000Y-42334000D02*
X103905000Y-31666000D01*
X103905000Y-31666000D02*
X105048000Y-31666000D01*
X105048000Y-37000000D02*
X105048000Y-31666000D01*
X105048000Y-37000000D02*
X105048000Y-42334000D01*
X92476000Y-31952000D02*
X92476000Y-33095000D01*
X95524000Y-31952000D02*
X95524000Y-33095000D01*
X99334000Y-33095000D02*
X99334000Y-36778000D01*
X99334000Y-36778000D02*
X88666000Y-36778000D01*
X88666000Y-36778000D02*
X88666000Y-33095000D01*
X99334000Y-31952000D02*
X99334000Y-33095000D01*
X99334000Y-33095000D02*
X88666000Y-33095000D01*
X88666000Y-33095000D02*
X88666000Y-31952000D01*
X94000000Y-31952000D02*
X88666000Y-31952000D01*
X94000000Y-31952000D02*
X99334000Y-31952000D01*
X95524000Y-53048000D02*
X95524000Y-51905000D01*
X92476000Y-53048000D02*
X92476000Y-51905000D01*
X88666000Y-51905000D02*
X88666000Y-48222000D01*
X88666000Y-48222000D02*
X99334000Y-48222000D01*
X99334000Y-48222000D02*
X99334000Y-51905000D01*
X88666000Y-53048000D02*
X88666000Y-51905000D01*
X88666000Y-51905000D02*
X99334000Y-51905000D01*
X99334000Y-51905000D02*
X99334000Y-53048000D01*
X94000000Y-53048000D02*
X99334000Y-53048000D01*
X94000000Y-53048000D02*
X88666000Y-53048000D01*
X127762500Y-45912500D02*
X127412500Y-46262500D01*
X127412500Y-46262500D02*
X126912500Y-45687500D01*
X127762500Y-45912500D02*
X128137500Y-45537500D01*
X128137500Y-45537500D02*
X127587500Y-45012500D01*
X128137500Y-42037500D02*
G75*
G03X128137500Y-42037500I-4250000J0D01*
G01*
X128587500Y-42037500D02*
G75*
G03X128587500Y-42037500I-4700000J0D01*
G01*
X56025000Y-36000000D02*
X56025000Y-34000000D01*
X53975000Y-34000000D02*
X53975000Y-36000000D01*
X55025000Y-49000000D02*
X55025000Y-47000000D01*
X52975000Y-47000000D02*
X52975000Y-49000000D01*
X65025000Y-44000000D02*
X65025000Y-42000000D01*
X62975000Y-42000000D02*
X62975000Y-44000000D01*
X44270000Y-35270000D02*
X44270000Y-50510000D01*
X44270000Y-50510000D02*
X41730000Y-50510000D01*
X41730000Y-50510000D02*
X41730000Y-35270000D01*
X44550000Y-32450000D02*
X44550000Y-34000000D01*
X44270000Y-35270000D02*
X41730000Y-35270000D01*
X41450000Y-34000000D02*
X41450000Y-32450000D01*
X41450000Y-32450000D02*
X44550000Y-32450000D01*
X50075000Y-40000000D02*
X50075000Y-42000000D01*
X47925000Y-42000000D02*
X47925000Y-40000000D01*
X53025000Y-42000000D02*
X53025000Y-40000000D01*
X50975000Y-40000000D02*
X50975000Y-42000000D01*
X83524000Y-42048000D02*
X83524000Y-40905000D01*
X80476000Y-42048000D02*
X80476000Y-40905000D01*
X76666000Y-40905000D02*
X76666000Y-37222000D01*
X76666000Y-37222000D02*
X87334000Y-37222000D01*
X87334000Y-37222000D02*
X87334000Y-40905000D01*
X76666000Y-42048000D02*
X76666000Y-40905000D01*
X76666000Y-40905000D02*
X87334000Y-40905000D01*
X87334000Y-40905000D02*
X87334000Y-42048000D01*
X82000000Y-42048000D02*
X87334000Y-42048000D01*
X82000000Y-42048000D02*
X76666000Y-42048000D01*
X80476000Y-42952000D02*
X80476000Y-44095000D01*
X83524000Y-42952000D02*
X83524000Y-44095000D01*
X87334000Y-44095000D02*
X87334000Y-47778000D01*
X87334000Y-47778000D02*
X76666000Y-47778000D01*
X76666000Y-47778000D02*
X76666000Y-44095000D01*
X87334000Y-42952000D02*
X87334000Y-44095000D01*
X87334000Y-44095000D02*
X76666000Y-44095000D01*
X76666000Y-44095000D02*
X76666000Y-42952000D01*
X82000000Y-42952000D02*
X76666000Y-42952000D01*
X82000000Y-42952000D02*
X87334000Y-42952000D01*
X95524000Y-42048000D02*
X95524000Y-40905000D01*
X92476000Y-42048000D02*
X92476000Y-40905000D01*
X88666000Y-40905000D02*
X88666000Y-37222000D01*
X88666000Y-37222000D02*
X99334000Y-37222000D01*
X99334000Y-37222000D02*
X99334000Y-40905000D01*
X88666000Y-42048000D02*
X88666000Y-40905000D01*
X88666000Y-40905000D02*
X99334000Y-40905000D01*
X99334000Y-40905000D02*
X99334000Y-42048000D01*
X94000000Y-42048000D02*
X99334000Y-42048000D01*
X94000000Y-42048000D02*
X88666000Y-42048000D01*
X92476000Y-42952000D02*
X92476000Y-44095000D01*
X95524000Y-42952000D02*
X95524000Y-44095000D01*
X99334000Y-44095000D02*
X99334000Y-47778000D01*
X99334000Y-47778000D02*
X88666000Y-47778000D01*
X88666000Y-47778000D02*
X88666000Y-44095000D01*
X99334000Y-42952000D02*
X99334000Y-44095000D01*
X99334000Y-44095000D02*
X88666000Y-44095000D01*
X88666000Y-44095000D02*
X88666000Y-42952000D01*
X94000000Y-42952000D02*
X88666000Y-42952000D01*
X94000000Y-42952000D02*
X99334000Y-42952000D01*
X57952381Y-31547619D02*
X57857143Y-31500000D01*
X57761905Y-31404762D01*
X57619048Y-31261905D01*
X57523809Y-31214286D01*
X57428571Y-31214286D01*
X57476190Y-31452381D02*
X57380952Y-31404762D01*
X57285714Y-31309524D01*
X57238095Y-31119048D01*
X57238095Y-30785714D01*
X57285714Y-30595238D01*
X57380952Y-30500000D01*
X57476190Y-30452381D01*
X57666667Y-30452381D01*
X57761905Y-30500000D01*
X57857143Y-30595238D01*
X57904762Y-30785714D01*
X57904762Y-31119048D01*
X57857143Y-31309524D01*
X57761905Y-31404762D01*
X57666667Y-31452381D01*
X57476190Y-31452381D01*
X58809524Y-30452381D02*
X58333333Y-30452381D01*
X58285714Y-30928571D01*
X58333333Y-30880952D01*
X58428571Y-30833333D01*
X58666667Y-30833333D01*
X58761905Y-30880952D01*
X58809524Y-30928571D01*
X58857143Y-31023810D01*
X58857143Y-31261905D01*
X58809524Y-31357143D01*
X58761905Y-31404762D01*
X58666667Y-31452381D01*
X58428571Y-31452381D01*
X58333333Y-31404762D01*
X58285714Y-31357143D01*
X59476190Y-30452381D02*
X59571429Y-30452381D01*
X59666667Y-30500000D01*
X59714286Y-30547619D01*
X59761905Y-30642857D01*
X59809524Y-30833333D01*
X59809524Y-31071429D01*
X59761905Y-31261905D01*
X59714286Y-31357143D01*
X59666667Y-31404762D01*
X59571429Y-31452381D01*
X59476190Y-31452381D01*
X59380952Y-31404762D01*
X59333333Y-31357143D01*
X59285714Y-31261905D01*
X59238095Y-31071429D01*
X59238095Y-30833333D01*
X59285714Y-30642857D01*
X59333333Y-30547619D01*
X59380952Y-30500000D01*
X59476190Y-30452381D01*
X60761905Y-31452381D02*
X60190476Y-31452381D01*
X60476190Y-31452381D02*
X60476190Y-30452381D01*
X60380952Y-30595238D01*
X60285714Y-30690476D01*
X60190476Y-30738095D01*
X53880953Y-44357143D02*
X53833334Y-44404762D01*
X53690477Y-44452381D01*
X53595239Y-44452381D01*
X53452381Y-44404762D01*
X53357143Y-44309524D01*
X53309524Y-44214286D01*
X53261905Y-44023810D01*
X53261905Y-43880952D01*
X53309524Y-43690476D01*
X53357143Y-43595238D01*
X53452381Y-43500000D01*
X53595239Y-43452381D01*
X53690477Y-43452381D01*
X53833334Y-43500000D01*
X53880953Y-43547619D01*
X54785715Y-43452381D02*
X54309524Y-43452381D01*
X54261905Y-43928571D01*
X54309524Y-43880952D01*
X54404762Y-43833333D01*
X54642858Y-43833333D01*
X54738096Y-43880952D01*
X54785715Y-43928571D01*
X54833334Y-44023810D01*
X54833334Y-44261905D01*
X54785715Y-44357143D01*
X54738096Y-44404762D01*
X54642858Y-44452381D01*
X54404762Y-44452381D01*
X54309524Y-44404762D01*
X54261905Y-44357143D01*
X55452381Y-43452381D02*
X55547620Y-43452381D01*
X55642858Y-43500000D01*
X55690477Y-43547619D01*
X55738096Y-43642857D01*
X55785715Y-43833333D01*
X55785715Y-44071429D01*
X55738096Y-44261905D01*
X55690477Y-44357143D01*
X55642858Y-44404762D01*
X55547620Y-44452381D01*
X55452381Y-44452381D01*
X55357143Y-44404762D01*
X55309524Y-44357143D01*
X55261905Y-44261905D01*
X55214286Y-44071429D01*
X55214286Y-43833333D01*
X55261905Y-43642857D01*
X55309524Y-43547619D01*
X55357143Y-43500000D01*
X55452381Y-43452381D01*
X56738096Y-44452381D02*
X56166667Y-44452381D01*
X56452381Y-44452381D02*
X56452381Y-43452381D01*
X56357143Y-43595238D01*
X56261905Y-43690476D01*
X56166667Y-43738095D01*
X67880953Y-51657143D02*
X67833334Y-51704762D01*
X67690477Y-51752381D01*
X67595239Y-51752381D01*
X67452381Y-51704762D01*
X67357143Y-51609524D01*
X67309524Y-51514286D01*
X67261905Y-51323810D01*
X67261905Y-51180952D01*
X67309524Y-50990476D01*
X67357143Y-50895238D01*
X67452381Y-50800000D01*
X67595239Y-50752381D01*
X67690477Y-50752381D01*
X67833334Y-50800000D01*
X67880953Y-50847619D01*
X68785715Y-50752381D02*
X68309524Y-50752381D01*
X68261905Y-51228571D01*
X68309524Y-51180952D01*
X68404762Y-51133333D01*
X68642858Y-51133333D01*
X68738096Y-51180952D01*
X68785715Y-51228571D01*
X68833334Y-51323810D01*
X68833334Y-51561905D01*
X68785715Y-51657143D01*
X68738096Y-51704762D01*
X68642858Y-51752381D01*
X68404762Y-51752381D01*
X68309524Y-51704762D01*
X68261905Y-51657143D01*
X69452381Y-50752381D02*
X69547620Y-50752381D01*
X69642858Y-50800000D01*
X69690477Y-50847619D01*
X69738096Y-50942857D01*
X69785715Y-51133333D01*
X69785715Y-51371429D01*
X69738096Y-51561905D01*
X69690477Y-51657143D01*
X69642858Y-51704762D01*
X69547620Y-51752381D01*
X69452381Y-51752381D01*
X69357143Y-51704762D01*
X69309524Y-51657143D01*
X69261905Y-51561905D01*
X69214286Y-51371429D01*
X69214286Y-51133333D01*
X69261905Y-50942857D01*
X69309524Y-50847619D01*
X69357143Y-50800000D01*
X69452381Y-50752381D01*
X70166667Y-50847619D02*
X70214286Y-50800000D01*
X70309524Y-50752381D01*
X70547620Y-50752381D01*
X70642858Y-50800000D01*
X70690477Y-50847619D01*
X70738096Y-50942857D01*
X70738096Y-51038095D01*
X70690477Y-51180952D01*
X70119048Y-51752381D01*
X70738096Y-51752381D01*
X50357143Y-36119047D02*
X50404762Y-36166666D01*
X50452381Y-36309523D01*
X50452381Y-36404761D01*
X50404762Y-36547619D01*
X50309524Y-36642857D01*
X50214286Y-36690476D01*
X50023810Y-36738095D01*
X49880952Y-36738095D01*
X49690476Y-36690476D01*
X49595238Y-36642857D01*
X49500000Y-36547619D01*
X49452381Y-36404761D01*
X49452381Y-36309523D01*
X49500000Y-36166666D01*
X49547619Y-36119047D01*
X49452381Y-35214285D02*
X49452381Y-35690476D01*
X49928571Y-35738095D01*
X49880952Y-35690476D01*
X49833333Y-35595238D01*
X49833333Y-35357142D01*
X49880952Y-35261904D01*
X49928571Y-35214285D01*
X50023810Y-35166666D01*
X50261905Y-35166666D01*
X50357143Y-35214285D01*
X50404762Y-35261904D01*
X50452381Y-35357142D01*
X50452381Y-35595238D01*
X50404762Y-35690476D01*
X50357143Y-35738095D01*
X49452381Y-34547619D02*
X49452381Y-34452380D01*
X49500000Y-34357142D01*
X49547619Y-34309523D01*
X49642857Y-34261904D01*
X49833333Y-34214285D01*
X50071429Y-34214285D01*
X50261905Y-34261904D01*
X50357143Y-34309523D01*
X50404762Y-34357142D01*
X50452381Y-34452380D01*
X50452381Y-34547619D01*
X50404762Y-34642857D01*
X50357143Y-34690476D01*
X50261905Y-34738095D01*
X50071429Y-34785714D01*
X49833333Y-34785714D01*
X49642857Y-34738095D01*
X49547619Y-34690476D01*
X49500000Y-34642857D01*
X49452381Y-34547619D01*
X49452381Y-33880952D02*
X49452381Y-33261904D01*
X49833333Y-33595238D01*
X49833333Y-33452380D01*
X49880952Y-33357142D01*
X49928571Y-33309523D01*
X50023810Y-33261904D01*
X50261905Y-33261904D01*
X50357143Y-33309523D01*
X50404762Y-33357142D01*
X50452381Y-33452380D01*
X50452381Y-33738095D01*
X50404762Y-33833333D01*
X50357143Y-33880952D01*
X66357143Y-49119047D02*
X66404762Y-49166666D01*
X66452381Y-49309523D01*
X66452381Y-49404761D01*
X66404762Y-49547619D01*
X66309524Y-49642857D01*
X66214286Y-49690476D01*
X66023810Y-49738095D01*
X65880952Y-49738095D01*
X65690476Y-49690476D01*
X65595238Y-49642857D01*
X65500000Y-49547619D01*
X65452381Y-49404761D01*
X65452381Y-49309523D01*
X65500000Y-49166666D01*
X65547619Y-49119047D01*
X65452381Y-48214285D02*
X65452381Y-48690476D01*
X65928571Y-48738095D01*
X65880952Y-48690476D01*
X65833333Y-48595238D01*
X65833333Y-48357142D01*
X65880952Y-48261904D01*
X65928571Y-48214285D01*
X66023810Y-48166666D01*
X66261905Y-48166666D01*
X66357143Y-48214285D01*
X66404762Y-48261904D01*
X66452381Y-48357142D01*
X66452381Y-48595238D01*
X66404762Y-48690476D01*
X66357143Y-48738095D01*
X65452381Y-47547619D02*
X65452381Y-47452380D01*
X65500000Y-47357142D01*
X65547619Y-47309523D01*
X65642857Y-47261904D01*
X65833333Y-47214285D01*
X66071429Y-47214285D01*
X66261905Y-47261904D01*
X66357143Y-47309523D01*
X66404762Y-47357142D01*
X66452381Y-47452380D01*
X66452381Y-47547619D01*
X66404762Y-47642857D01*
X66357143Y-47690476D01*
X66261905Y-47738095D01*
X66071429Y-47785714D01*
X65833333Y-47785714D01*
X65642857Y-47738095D01*
X65547619Y-47690476D01*
X65500000Y-47642857D01*
X65452381Y-47547619D01*
X65785714Y-46357142D02*
X66452381Y-46357142D01*
X65404762Y-46595238D02*
X66119048Y-46833333D01*
X66119048Y-46214285D01*
X76357143Y-44119047D02*
X76404762Y-44166666D01*
X76452381Y-44309523D01*
X76452381Y-44404761D01*
X76404762Y-44547619D01*
X76309524Y-44642857D01*
X76214286Y-44690476D01*
X76023810Y-44738095D01*
X75880952Y-44738095D01*
X75690476Y-44690476D01*
X75595238Y-44642857D01*
X75500000Y-44547619D01*
X75452381Y-44404761D01*
X75452381Y-44309523D01*
X75500000Y-44166666D01*
X75547619Y-44119047D01*
X75452381Y-43214285D02*
X75452381Y-43690476D01*
X75928571Y-43738095D01*
X75880952Y-43690476D01*
X75833333Y-43595238D01*
X75833333Y-43357142D01*
X75880952Y-43261904D01*
X75928571Y-43214285D01*
X76023810Y-43166666D01*
X76261905Y-43166666D01*
X76357143Y-43214285D01*
X76404762Y-43261904D01*
X76452381Y-43357142D01*
X76452381Y-43595238D01*
X76404762Y-43690476D01*
X76357143Y-43738095D01*
X75452381Y-42547619D02*
X75452381Y-42452380D01*
X75500000Y-42357142D01*
X75547619Y-42309523D01*
X75642857Y-42261904D01*
X75833333Y-42214285D01*
X76071429Y-42214285D01*
X76261905Y-42261904D01*
X76357143Y-42309523D01*
X76404762Y-42357142D01*
X76452381Y-42452380D01*
X76452381Y-42547619D01*
X76404762Y-42642857D01*
X76357143Y-42690476D01*
X76261905Y-42738095D01*
X76071429Y-42785714D01*
X75833333Y-42785714D01*
X75642857Y-42738095D01*
X75547619Y-42690476D01*
X75500000Y-42642857D01*
X75452381Y-42547619D01*
X75452381Y-41309523D02*
X75452381Y-41785714D01*
X75928571Y-41833333D01*
X75880952Y-41785714D01*
X75833333Y-41690476D01*
X75833333Y-41452380D01*
X75880952Y-41357142D01*
X75928571Y-41309523D01*
X76023810Y-41261904D01*
X76261905Y-41261904D01*
X76357143Y-41309523D01*
X76404762Y-41357142D01*
X76452381Y-41452380D01*
X76452381Y-41690476D01*
X76404762Y-41785714D01*
X76357143Y-41833333D01*
X57880953Y-38452381D02*
X57547619Y-37976190D01*
X57309524Y-38452381D02*
X57309524Y-37452381D01*
X57690477Y-37452381D01*
X57785715Y-37500000D01*
X57833334Y-37547619D01*
X57880953Y-37642857D01*
X57880953Y-37785714D01*
X57833334Y-37880952D01*
X57785715Y-37928571D01*
X57690477Y-37976190D01*
X57309524Y-37976190D01*
X58785715Y-37452381D02*
X58309524Y-37452381D01*
X58261905Y-37928571D01*
X58309524Y-37880952D01*
X58404762Y-37833333D01*
X58642858Y-37833333D01*
X58738096Y-37880952D01*
X58785715Y-37928571D01*
X58833334Y-38023810D01*
X58833334Y-38261905D01*
X58785715Y-38357143D01*
X58738096Y-38404762D01*
X58642858Y-38452381D01*
X58404762Y-38452381D01*
X58309524Y-38404762D01*
X58261905Y-38357143D01*
X59452381Y-37452381D02*
X59547620Y-37452381D01*
X59642858Y-37500000D01*
X59690477Y-37547619D01*
X59738096Y-37642857D01*
X59785715Y-37833333D01*
X59785715Y-38071429D01*
X59738096Y-38261905D01*
X59690477Y-38357143D01*
X59642858Y-38404762D01*
X59547620Y-38452381D01*
X59452381Y-38452381D01*
X59357143Y-38404762D01*
X59309524Y-38357143D01*
X59261905Y-38261905D01*
X59214286Y-38071429D01*
X59214286Y-37833333D01*
X59261905Y-37642857D01*
X59309524Y-37547619D01*
X59357143Y-37500000D01*
X59452381Y-37452381D01*
X60166667Y-37547619D02*
X60214286Y-37500000D01*
X60309524Y-37452381D01*
X60547620Y-37452381D01*
X60642858Y-37500000D01*
X60690477Y-37547619D01*
X60738096Y-37642857D01*
X60738096Y-37738095D01*
X60690477Y-37880952D01*
X60119048Y-38452381D01*
X60738096Y-38452381D01*
X62152381Y-38119047D02*
X61676190Y-38452381D01*
X62152381Y-38690476D02*
X61152381Y-38690476D01*
X61152381Y-38309523D01*
X61200000Y-38214285D01*
X61247619Y-38166666D01*
X61342857Y-38119047D01*
X61485714Y-38119047D01*
X61580952Y-38166666D01*
X61628571Y-38214285D01*
X61676190Y-38309523D01*
X61676190Y-38690476D01*
X61152381Y-37214285D02*
X61152381Y-37690476D01*
X61628571Y-37738095D01*
X61580952Y-37690476D01*
X61533333Y-37595238D01*
X61533333Y-37357142D01*
X61580952Y-37261904D01*
X61628571Y-37214285D01*
X61723810Y-37166666D01*
X61961905Y-37166666D01*
X62057143Y-37214285D01*
X62104762Y-37261904D01*
X62152381Y-37357142D01*
X62152381Y-37595238D01*
X62104762Y-37690476D01*
X62057143Y-37738095D01*
X61152381Y-36547619D02*
X61152381Y-36452380D01*
X61200000Y-36357142D01*
X61247619Y-36309523D01*
X61342857Y-36261904D01*
X61533333Y-36214285D01*
X61771429Y-36214285D01*
X61961905Y-36261904D01*
X62057143Y-36309523D01*
X62104762Y-36357142D01*
X62152381Y-36452380D01*
X62152381Y-36547619D01*
X62104762Y-36642857D01*
X62057143Y-36690476D01*
X61961905Y-36738095D01*
X61771429Y-36785714D01*
X61533333Y-36785714D01*
X61342857Y-36738095D01*
X61247619Y-36690476D01*
X61200000Y-36642857D01*
X61152381Y-36547619D01*
X61152381Y-35880952D02*
X61152381Y-35261904D01*
X61533333Y-35595238D01*
X61533333Y-35452380D01*
X61580952Y-35357142D01*
X61628571Y-35309523D01*
X61723810Y-35261904D01*
X61961905Y-35261904D01*
X62057143Y-35309523D01*
X62104762Y-35357142D01*
X62152381Y-35452380D01*
X62152381Y-35738095D01*
X62104762Y-35833333D01*
X62057143Y-35880952D01*
X61452381Y-49714286D02*
X62261905Y-49714286D01*
X62357143Y-49666667D01*
X62404762Y-49619048D01*
X62452381Y-49523810D01*
X62452381Y-49333333D01*
X62404762Y-49238095D01*
X62357143Y-49190476D01*
X62261905Y-49142857D01*
X61452381Y-49142857D01*
X61452381Y-48190476D02*
X61452381Y-48666667D01*
X61928571Y-48714286D01*
X61880952Y-48666667D01*
X61833333Y-48571429D01*
X61833333Y-48333333D01*
X61880952Y-48238095D01*
X61928571Y-48190476D01*
X62023810Y-48142857D01*
X62261905Y-48142857D01*
X62357143Y-48190476D01*
X62404762Y-48238095D01*
X62452381Y-48333333D01*
X62452381Y-48571429D01*
X62404762Y-48666667D01*
X62357143Y-48714286D01*
X61452381Y-47523810D02*
X61452381Y-47428571D01*
X61500000Y-47333333D01*
X61547619Y-47285714D01*
X61642857Y-47238095D01*
X61833333Y-47190476D01*
X62071429Y-47190476D01*
X62261905Y-47238095D01*
X62357143Y-47285714D01*
X62404762Y-47333333D01*
X62452381Y-47428571D01*
X62452381Y-47523810D01*
X62404762Y-47619048D01*
X62357143Y-47666667D01*
X62261905Y-47714286D01*
X62071429Y-47761905D01*
X61833333Y-47761905D01*
X61642857Y-47714286D01*
X61547619Y-47666667D01*
X61500000Y-47619048D01*
X61452381Y-47523810D01*
X62452381Y-46238095D02*
X62452381Y-46809524D01*
X62452381Y-46523810D02*
X61452381Y-46523810D01*
X61595238Y-46619048D01*
X61690476Y-46714286D01*
X61738095Y-46809524D01*
X66285714Y-37452381D02*
X66285714Y-38261905D01*
X66333333Y-38357143D01*
X66380952Y-38404762D01*
X66476190Y-38452381D01*
X66666667Y-38452381D01*
X66761905Y-38404762D01*
X66809524Y-38357143D01*
X66857143Y-38261905D01*
X66857143Y-37452381D01*
X67809524Y-37452381D02*
X67333333Y-37452381D01*
X67285714Y-37928571D01*
X67333333Y-37880952D01*
X67428571Y-37833333D01*
X67666667Y-37833333D01*
X67761905Y-37880952D01*
X67809524Y-37928571D01*
X67857143Y-38023810D01*
X67857143Y-38261905D01*
X67809524Y-38357143D01*
X67761905Y-38404762D01*
X67666667Y-38452381D01*
X67428571Y-38452381D01*
X67333333Y-38404762D01*
X67285714Y-38357143D01*
X68476190Y-37452381D02*
X68571429Y-37452381D01*
X68666667Y-37500000D01*
X68714286Y-37547619D01*
X68761905Y-37642857D01*
X68809524Y-37833333D01*
X68809524Y-38071429D01*
X68761905Y-38261905D01*
X68714286Y-38357143D01*
X68666667Y-38404762D01*
X68571429Y-38452381D01*
X68476190Y-38452381D01*
X68380952Y-38404762D01*
X68333333Y-38357143D01*
X68285714Y-38261905D01*
X68238095Y-38071429D01*
X68238095Y-37833333D01*
X68285714Y-37642857D01*
X68333333Y-37547619D01*
X68380952Y-37500000D01*
X68476190Y-37452381D01*
X69190476Y-37547619D02*
X69238095Y-37500000D01*
X69333333Y-37452381D01*
X69571429Y-37452381D01*
X69666667Y-37500000D01*
X69714286Y-37547619D01*
X69761905Y-37642857D01*
X69761905Y-37738095D01*
X69714286Y-37880952D01*
X69142857Y-38452381D01*
X69761905Y-38452381D01*
X67952381Y-31547619D02*
X67857143Y-31500000D01*
X67761905Y-31404762D01*
X67619048Y-31261905D01*
X67523809Y-31214286D01*
X67428571Y-31214286D01*
X67476190Y-31452381D02*
X67380952Y-31404762D01*
X67285714Y-31309524D01*
X67238095Y-31119048D01*
X67238095Y-30785714D01*
X67285714Y-30595238D01*
X67380952Y-30500000D01*
X67476190Y-30452381D01*
X67666667Y-30452381D01*
X67761905Y-30500000D01*
X67857143Y-30595238D01*
X67904762Y-30785714D01*
X67904762Y-31119048D01*
X67857143Y-31309524D01*
X67761905Y-31404762D01*
X67666667Y-31452381D01*
X67476190Y-31452381D01*
X68809524Y-30452381D02*
X68333333Y-30452381D01*
X68285714Y-30928571D01*
X68333333Y-30880952D01*
X68428571Y-30833333D01*
X68666667Y-30833333D01*
X68761905Y-30880952D01*
X68809524Y-30928571D01*
X68857143Y-31023810D01*
X68857143Y-31261905D01*
X68809524Y-31357143D01*
X68761905Y-31404762D01*
X68666667Y-31452381D01*
X68428571Y-31452381D01*
X68333333Y-31404762D01*
X68285714Y-31357143D01*
X69476190Y-30452381D02*
X69571429Y-30452381D01*
X69666667Y-30500000D01*
X69714286Y-30547619D01*
X69761905Y-30642857D01*
X69809524Y-30833333D01*
X69809524Y-31071429D01*
X69761905Y-31261905D01*
X69714286Y-31357143D01*
X69666667Y-31404762D01*
X69571429Y-31452381D01*
X69476190Y-31452381D01*
X69380952Y-31404762D01*
X69333333Y-31357143D01*
X69285714Y-31261905D01*
X69238095Y-31071429D01*
X69238095Y-30833333D01*
X69285714Y-30642857D01*
X69333333Y-30547619D01*
X69380952Y-30500000D01*
X69476190Y-30452381D01*
X70190476Y-30547619D02*
X70238095Y-30500000D01*
X70333333Y-30452381D01*
X70571429Y-30452381D01*
X70666667Y-30500000D01*
X70714286Y-30547619D01*
X70761905Y-30642857D01*
X70761905Y-30738095D01*
X70714286Y-30880952D01*
X70142857Y-31452381D01*
X70761905Y-31452381D01*
X80880953Y-33452381D02*
X80547619Y-32976190D01*
X80309524Y-33452381D02*
X80309524Y-32452381D01*
X80690477Y-32452381D01*
X80785715Y-32500000D01*
X80833334Y-32547619D01*
X80880953Y-32642857D01*
X80880953Y-32785714D01*
X80833334Y-32880952D01*
X80785715Y-32928571D01*
X80690477Y-32976190D01*
X80309524Y-32976190D01*
X81785715Y-32452381D02*
X81309524Y-32452381D01*
X81261905Y-32928571D01*
X81309524Y-32880952D01*
X81404762Y-32833333D01*
X81642858Y-32833333D01*
X81738096Y-32880952D01*
X81785715Y-32928571D01*
X81833334Y-33023810D01*
X81833334Y-33261905D01*
X81785715Y-33357143D01*
X81738096Y-33404762D01*
X81642858Y-33452381D01*
X81404762Y-33452381D01*
X81309524Y-33404762D01*
X81261905Y-33357143D01*
X82452381Y-32452381D02*
X82547620Y-32452381D01*
X82642858Y-32500000D01*
X82690477Y-32547619D01*
X82738096Y-32642857D01*
X82785715Y-32833333D01*
X82785715Y-33071429D01*
X82738096Y-33261905D01*
X82690477Y-33357143D01*
X82642858Y-33404762D01*
X82547620Y-33452381D01*
X82452381Y-33452381D01*
X82357143Y-33404762D01*
X82309524Y-33357143D01*
X82261905Y-33261905D01*
X82214286Y-33071429D01*
X82214286Y-32833333D01*
X82261905Y-32642857D01*
X82309524Y-32547619D01*
X82357143Y-32500000D01*
X82452381Y-32452381D01*
X83642858Y-32785714D02*
X83642858Y-33452381D01*
X83404762Y-32404762D02*
X83166667Y-33119048D01*
X83785715Y-33119048D01*
X80880953Y-52452381D02*
X80547619Y-51976190D01*
X80309524Y-52452381D02*
X80309524Y-51452381D01*
X80690477Y-51452381D01*
X80785715Y-51500000D01*
X80833334Y-51547619D01*
X80880953Y-51642857D01*
X80880953Y-51785714D01*
X80833334Y-51880952D01*
X80785715Y-51928571D01*
X80690477Y-51976190D01*
X80309524Y-51976190D01*
X81785715Y-51452381D02*
X81309524Y-51452381D01*
X81261905Y-51928571D01*
X81309524Y-51880952D01*
X81404762Y-51833333D01*
X81642858Y-51833333D01*
X81738096Y-51880952D01*
X81785715Y-51928571D01*
X81833334Y-52023810D01*
X81833334Y-52261905D01*
X81785715Y-52357143D01*
X81738096Y-52404762D01*
X81642858Y-52452381D01*
X81404762Y-52452381D01*
X81309524Y-52404762D01*
X81261905Y-52357143D01*
X82452381Y-51452381D02*
X82547620Y-51452381D01*
X82642858Y-51500000D01*
X82690477Y-51547619D01*
X82738096Y-51642857D01*
X82785715Y-51833333D01*
X82785715Y-52071429D01*
X82738096Y-52261905D01*
X82690477Y-52357143D01*
X82642858Y-52404762D01*
X82547620Y-52452381D01*
X82452381Y-52452381D01*
X82357143Y-52404762D01*
X82309524Y-52357143D01*
X82261905Y-52261905D01*
X82214286Y-52071429D01*
X82214286Y-51833333D01*
X82261905Y-51642857D01*
X82309524Y-51547619D01*
X82357143Y-51500000D01*
X82452381Y-51452381D01*
X83690477Y-51452381D02*
X83214286Y-51452381D01*
X83166667Y-51928571D01*
X83214286Y-51880952D01*
X83309524Y-51833333D01*
X83547620Y-51833333D01*
X83642858Y-51880952D01*
X83690477Y-51928571D01*
X83738096Y-52023810D01*
X83738096Y-52261905D01*
X83690477Y-52357143D01*
X83642858Y-52404762D01*
X83547620Y-52452381D01*
X83309524Y-52452381D01*
X83214286Y-52404762D01*
X83166667Y-52357143D01*
X107532381Y-38119047D02*
X107056190Y-38452381D01*
X107532381Y-38690476D02*
X106532381Y-38690476D01*
X106532381Y-38309523D01*
X106580000Y-38214285D01*
X106627619Y-38166666D01*
X106722857Y-38119047D01*
X106865714Y-38119047D01*
X106960952Y-38166666D01*
X107008571Y-38214285D01*
X107056190Y-38309523D01*
X107056190Y-38690476D01*
X106532381Y-37214285D02*
X106532381Y-37690476D01*
X107008571Y-37738095D01*
X106960952Y-37690476D01*
X106913333Y-37595238D01*
X106913333Y-37357142D01*
X106960952Y-37261904D01*
X107008571Y-37214285D01*
X107103810Y-37166666D01*
X107341905Y-37166666D01*
X107437143Y-37214285D01*
X107484762Y-37261904D01*
X107532381Y-37357142D01*
X107532381Y-37595238D01*
X107484762Y-37690476D01*
X107437143Y-37738095D01*
X106532381Y-36547619D02*
X106532381Y-36452380D01*
X106580000Y-36357142D01*
X106627619Y-36309523D01*
X106722857Y-36261904D01*
X106913333Y-36214285D01*
X107151429Y-36214285D01*
X107341905Y-36261904D01*
X107437143Y-36309523D01*
X107484762Y-36357142D01*
X107532381Y-36452380D01*
X107532381Y-36547619D01*
X107484762Y-36642857D01*
X107437143Y-36690476D01*
X107341905Y-36738095D01*
X107151429Y-36785714D01*
X106913333Y-36785714D01*
X106722857Y-36738095D01*
X106627619Y-36690476D01*
X106580000Y-36642857D01*
X106532381Y-36547619D01*
X106532381Y-35357142D02*
X106532381Y-35547619D01*
X106580000Y-35642857D01*
X106627619Y-35690476D01*
X106770476Y-35785714D01*
X106960952Y-35833333D01*
X107341905Y-35833333D01*
X107437143Y-35785714D01*
X107484762Y-35738095D01*
X107532381Y-35642857D01*
X107532381Y-35452380D01*
X107484762Y-35357142D01*
X107437143Y-35309523D01*
X107341905Y-35261904D01*
X107103810Y-35261904D01*
X107008571Y-35309523D01*
X106960952Y-35357142D01*
X106913333Y-35452380D01*
X106913333Y-35642857D01*
X106960952Y-35738095D01*
X107008571Y-35785714D01*
X107103810Y-35833333D01*
X92880953Y-33452381D02*
X92547619Y-32976190D01*
X92309524Y-33452381D02*
X92309524Y-32452381D01*
X92690477Y-32452381D01*
X92785715Y-32500000D01*
X92833334Y-32547619D01*
X92880953Y-32642857D01*
X92880953Y-32785714D01*
X92833334Y-32880952D01*
X92785715Y-32928571D01*
X92690477Y-32976190D01*
X92309524Y-32976190D01*
X93785715Y-32452381D02*
X93309524Y-32452381D01*
X93261905Y-32928571D01*
X93309524Y-32880952D01*
X93404762Y-32833333D01*
X93642858Y-32833333D01*
X93738096Y-32880952D01*
X93785715Y-32928571D01*
X93833334Y-33023810D01*
X93833334Y-33261905D01*
X93785715Y-33357143D01*
X93738096Y-33404762D01*
X93642858Y-33452381D01*
X93404762Y-33452381D01*
X93309524Y-33404762D01*
X93261905Y-33357143D01*
X94452381Y-32452381D02*
X94547620Y-32452381D01*
X94642858Y-32500000D01*
X94690477Y-32547619D01*
X94738096Y-32642857D01*
X94785715Y-32833333D01*
X94785715Y-33071429D01*
X94738096Y-33261905D01*
X94690477Y-33357143D01*
X94642858Y-33404762D01*
X94547620Y-33452381D01*
X94452381Y-33452381D01*
X94357143Y-33404762D01*
X94309524Y-33357143D01*
X94261905Y-33261905D01*
X94214286Y-33071429D01*
X94214286Y-32833333D01*
X94261905Y-32642857D01*
X94309524Y-32547619D01*
X94357143Y-32500000D01*
X94452381Y-32452381D01*
X95119048Y-32452381D02*
X95785715Y-32452381D01*
X95357143Y-33452381D01*
X92880953Y-52452381D02*
X92547619Y-51976190D01*
X92309524Y-52452381D02*
X92309524Y-51452381D01*
X92690477Y-51452381D01*
X92785715Y-51500000D01*
X92833334Y-51547619D01*
X92880953Y-51642857D01*
X92880953Y-51785714D01*
X92833334Y-51880952D01*
X92785715Y-51928571D01*
X92690477Y-51976190D01*
X92309524Y-51976190D01*
X93785715Y-51452381D02*
X93309524Y-51452381D01*
X93261905Y-51928571D01*
X93309524Y-51880952D01*
X93404762Y-51833333D01*
X93642858Y-51833333D01*
X93738096Y-51880952D01*
X93785715Y-51928571D01*
X93833334Y-52023810D01*
X93833334Y-52261905D01*
X93785715Y-52357143D01*
X93738096Y-52404762D01*
X93642858Y-52452381D01*
X93404762Y-52452381D01*
X93309524Y-52404762D01*
X93261905Y-52357143D01*
X94452381Y-51452381D02*
X94547620Y-51452381D01*
X94642858Y-51500000D01*
X94690477Y-51547619D01*
X94738096Y-51642857D01*
X94785715Y-51833333D01*
X94785715Y-52071429D01*
X94738096Y-52261905D01*
X94690477Y-52357143D01*
X94642858Y-52404762D01*
X94547620Y-52452381D01*
X94452381Y-52452381D01*
X94357143Y-52404762D01*
X94309524Y-52357143D01*
X94261905Y-52261905D01*
X94214286Y-52071429D01*
X94214286Y-51833333D01*
X94261905Y-51642857D01*
X94309524Y-51547619D01*
X94357143Y-51500000D01*
X94452381Y-51452381D01*
X95357143Y-51880952D02*
X95261905Y-51833333D01*
X95214286Y-51785714D01*
X95166667Y-51690476D01*
X95166667Y-51642857D01*
X95214286Y-51547619D01*
X95261905Y-51500000D01*
X95357143Y-51452381D01*
X95547620Y-51452381D01*
X95642858Y-51500000D01*
X95690477Y-51547619D01*
X95738096Y-51642857D01*
X95738096Y-51690476D01*
X95690477Y-51785714D01*
X95642858Y-51833333D01*
X95547620Y-51880952D01*
X95357143Y-51880952D01*
X95261905Y-51928571D01*
X95214286Y-51976190D01*
X95166667Y-52071429D01*
X95166667Y-52261905D01*
X95214286Y-52357143D01*
X95261905Y-52404762D01*
X95357143Y-52452381D01*
X95547620Y-52452381D01*
X95642858Y-52404762D01*
X95690477Y-52357143D01*
X95738096Y-52261905D01*
X95738096Y-52071429D01*
X95690477Y-51976190D01*
X95642858Y-51928571D01*
X95547620Y-51880952D01*
X122435714Y-34977381D02*
X122435714Y-35786905D01*
X122483333Y-35882143D01*
X122530952Y-35929762D01*
X122626190Y-35977381D01*
X122816667Y-35977381D01*
X122911905Y-35929762D01*
X122959524Y-35882143D01*
X123007143Y-35786905D01*
X123007143Y-34977381D01*
X123959524Y-34977381D02*
X123483333Y-34977381D01*
X123435714Y-35453571D01*
X123483333Y-35405952D01*
X123578571Y-35358333D01*
X123816667Y-35358333D01*
X123911905Y-35405952D01*
X123959524Y-35453571D01*
X124007143Y-35548810D01*
X124007143Y-35786905D01*
X123959524Y-35882143D01*
X123911905Y-35929762D01*
X123816667Y-35977381D01*
X123578571Y-35977381D01*
X123483333Y-35929762D01*
X123435714Y-35882143D01*
X124626190Y-34977381D02*
X124721429Y-34977381D01*
X124816667Y-35025000D01*
X124864286Y-35072619D01*
X124911905Y-35167857D01*
X124959524Y-35358333D01*
X124959524Y-35596429D01*
X124911905Y-35786905D01*
X124864286Y-35882143D01*
X124816667Y-35929762D01*
X124721429Y-35977381D01*
X124626190Y-35977381D01*
X124530952Y-35929762D01*
X124483333Y-35882143D01*
X124435714Y-35786905D01*
X124388095Y-35596429D01*
X124388095Y-35358333D01*
X124435714Y-35167857D01*
X124483333Y-35072619D01*
X124530952Y-35025000D01*
X124626190Y-34977381D01*
X125292857Y-34977381D02*
X125911905Y-34977381D01*
X125578571Y-35358333D01*
X125721429Y-35358333D01*
X125816667Y-35405952D01*
X125864286Y-35453571D01*
X125911905Y-35548810D01*
X125911905Y-35786905D01*
X125864286Y-35882143D01*
X125816667Y-35929762D01*
X125721429Y-35977381D01*
X125435714Y-35977381D01*
X125340476Y-35929762D01*
X125292857Y-35882143D01*
X57357143Y-36119047D02*
X57404762Y-36166666D01*
X57452381Y-36309523D01*
X57452381Y-36404761D01*
X57404762Y-36547619D01*
X57309524Y-36642857D01*
X57214286Y-36690476D01*
X57023810Y-36738095D01*
X56880952Y-36738095D01*
X56690476Y-36690476D01*
X56595238Y-36642857D01*
X56500000Y-36547619D01*
X56452381Y-36404761D01*
X56452381Y-36309523D01*
X56500000Y-36166666D01*
X56547619Y-36119047D01*
X56452381Y-35214285D02*
X56452381Y-35690476D01*
X56928571Y-35738095D01*
X56880952Y-35690476D01*
X56833333Y-35595238D01*
X56833333Y-35357142D01*
X56880952Y-35261904D01*
X56928571Y-35214285D01*
X57023810Y-35166666D01*
X57261905Y-35166666D01*
X57357143Y-35214285D01*
X57404762Y-35261904D01*
X57452381Y-35357142D01*
X57452381Y-35595238D01*
X57404762Y-35690476D01*
X57357143Y-35738095D01*
X56452381Y-34547619D02*
X56452381Y-34452380D01*
X56500000Y-34357142D01*
X56547619Y-34309523D01*
X56642857Y-34261904D01*
X56833333Y-34214285D01*
X57071429Y-34214285D01*
X57261905Y-34261904D01*
X57357143Y-34309523D01*
X57404762Y-34357142D01*
X57452381Y-34452380D01*
X57452381Y-34547619D01*
X57404762Y-34642857D01*
X57357143Y-34690476D01*
X57261905Y-34738095D01*
X57071429Y-34785714D01*
X56833333Y-34785714D01*
X56642857Y-34738095D01*
X56547619Y-34690476D01*
X56500000Y-34642857D01*
X56452381Y-34547619D01*
X56452381Y-33357142D02*
X56452381Y-33547619D01*
X56500000Y-33642857D01*
X56547619Y-33690476D01*
X56690476Y-33785714D01*
X56880952Y-33833333D01*
X57261905Y-33833333D01*
X57357143Y-33785714D01*
X57404762Y-33738095D01*
X57452381Y-33642857D01*
X57452381Y-33452380D01*
X57404762Y-33357142D01*
X57357143Y-33309523D01*
X57261905Y-33261904D01*
X57023810Y-33261904D01*
X56928571Y-33309523D01*
X56880952Y-33357142D01*
X56833333Y-33452380D01*
X56833333Y-33642857D01*
X56880952Y-33738095D01*
X56928571Y-33785714D01*
X57023810Y-33833333D01*
X52880953Y-51357143D02*
X52833334Y-51404762D01*
X52690477Y-51452381D01*
X52595239Y-51452381D01*
X52452381Y-51404762D01*
X52357143Y-51309524D01*
X52309524Y-51214286D01*
X52261905Y-51023810D01*
X52261905Y-50880952D01*
X52309524Y-50690476D01*
X52357143Y-50595238D01*
X52452381Y-50500000D01*
X52595239Y-50452381D01*
X52690477Y-50452381D01*
X52833334Y-50500000D01*
X52880953Y-50547619D01*
X53785715Y-50452381D02*
X53309524Y-50452381D01*
X53261905Y-50928571D01*
X53309524Y-50880952D01*
X53404762Y-50833333D01*
X53642858Y-50833333D01*
X53738096Y-50880952D01*
X53785715Y-50928571D01*
X53833334Y-51023810D01*
X53833334Y-51261905D01*
X53785715Y-51357143D01*
X53738096Y-51404762D01*
X53642858Y-51452381D01*
X53404762Y-51452381D01*
X53309524Y-51404762D01*
X53261905Y-51357143D01*
X54452381Y-50452381D02*
X54547620Y-50452381D01*
X54642858Y-50500000D01*
X54690477Y-50547619D01*
X54738096Y-50642857D01*
X54785715Y-50833333D01*
X54785715Y-51071429D01*
X54738096Y-51261905D01*
X54690477Y-51357143D01*
X54642858Y-51404762D01*
X54547620Y-51452381D01*
X54452381Y-51452381D01*
X54357143Y-51404762D01*
X54309524Y-51357143D01*
X54261905Y-51261905D01*
X54214286Y-51071429D01*
X54214286Y-50833333D01*
X54261905Y-50642857D01*
X54309524Y-50547619D01*
X54357143Y-50500000D01*
X54452381Y-50452381D01*
X55119048Y-50452381D02*
X55785715Y-50452381D01*
X55357143Y-51452381D01*
X66357143Y-44119047D02*
X66404762Y-44166666D01*
X66452381Y-44309523D01*
X66452381Y-44404761D01*
X66404762Y-44547619D01*
X66309524Y-44642857D01*
X66214286Y-44690476D01*
X66023810Y-44738095D01*
X65880952Y-44738095D01*
X65690476Y-44690476D01*
X65595238Y-44642857D01*
X65500000Y-44547619D01*
X65452381Y-44404761D01*
X65452381Y-44309523D01*
X65500000Y-44166666D01*
X65547619Y-44119047D01*
X65452381Y-43214285D02*
X65452381Y-43690476D01*
X65928571Y-43738095D01*
X65880952Y-43690476D01*
X65833333Y-43595238D01*
X65833333Y-43357142D01*
X65880952Y-43261904D01*
X65928571Y-43214285D01*
X66023810Y-43166666D01*
X66261905Y-43166666D01*
X66357143Y-43214285D01*
X66404762Y-43261904D01*
X66452381Y-43357142D01*
X66452381Y-43595238D01*
X66404762Y-43690476D01*
X66357143Y-43738095D01*
X65452381Y-42547619D02*
X65452381Y-42452380D01*
X65500000Y-42357142D01*
X65547619Y-42309523D01*
X65642857Y-42261904D01*
X65833333Y-42214285D01*
X66071429Y-42214285D01*
X66261905Y-42261904D01*
X66357143Y-42309523D01*
X66404762Y-42357142D01*
X66452381Y-42452380D01*
X66452381Y-42547619D01*
X66404762Y-42642857D01*
X66357143Y-42690476D01*
X66261905Y-42738095D01*
X66071429Y-42785714D01*
X65833333Y-42785714D01*
X65642857Y-42738095D01*
X65547619Y-42690476D01*
X65500000Y-42642857D01*
X65452381Y-42547619D01*
X65880952Y-41642857D02*
X65833333Y-41738095D01*
X65785714Y-41785714D01*
X65690476Y-41833333D01*
X65642857Y-41833333D01*
X65547619Y-41785714D01*
X65500000Y-41738095D01*
X65452381Y-41642857D01*
X65452381Y-41452380D01*
X65500000Y-41357142D01*
X65547619Y-41309523D01*
X65642857Y-41261904D01*
X65690476Y-41261904D01*
X65785714Y-41309523D01*
X65833333Y-41357142D01*
X65880952Y-41452380D01*
X65880952Y-41642857D01*
X65928571Y-41738095D01*
X65976190Y-41785714D01*
X66071429Y-41833333D01*
X66261905Y-41833333D01*
X66357143Y-41785714D01*
X66404762Y-41738095D01*
X66452381Y-41642857D01*
X66452381Y-41452380D01*
X66404762Y-41357142D01*
X66357143Y-41309523D01*
X66261905Y-41261904D01*
X66071429Y-41261904D01*
X65976190Y-41309523D01*
X65928571Y-41357142D01*
X65880952Y-41452380D01*
X42309524Y-31452381D02*
X42309524Y-30452381D01*
X42690477Y-30452381D01*
X42785715Y-30500000D01*
X42833334Y-30547619D01*
X42880953Y-30642857D01*
X42880953Y-30785714D01*
X42833334Y-30880952D01*
X42785715Y-30928571D01*
X42690477Y-30976190D01*
X42309524Y-30976190D01*
X43833334Y-31452381D02*
X43261905Y-31452381D01*
X43547619Y-31452381D02*
X43547619Y-30452381D01*
X43452381Y-30595238D01*
X43357143Y-30690476D01*
X43261905Y-30738095D01*
X44452381Y-30452381D02*
X44547620Y-30452381D01*
X44642858Y-30500000D01*
X44690477Y-30547619D01*
X44738096Y-30642857D01*
X44785715Y-30833333D01*
X44785715Y-31071429D01*
X44738096Y-31261905D01*
X44690477Y-31357143D01*
X44642858Y-31404762D01*
X44547620Y-31452381D01*
X44452381Y-31452381D01*
X44357143Y-31404762D01*
X44309524Y-31357143D01*
X44261905Y-31261905D01*
X44214286Y-31071429D01*
X44214286Y-30833333D01*
X44261905Y-30642857D01*
X44309524Y-30547619D01*
X44357143Y-30500000D01*
X44452381Y-30452381D01*
X45738096Y-31452381D02*
X45166667Y-31452381D01*
X45452381Y-31452381D02*
X45452381Y-30452381D01*
X45357143Y-30595238D01*
X45261905Y-30690476D01*
X45166667Y-30738095D01*
X47880953Y-44452381D02*
X47547619Y-43976190D01*
X47309524Y-44452381D02*
X47309524Y-43452381D01*
X47690477Y-43452381D01*
X47785715Y-43500000D01*
X47833334Y-43547619D01*
X47880953Y-43642857D01*
X47880953Y-43785714D01*
X47833334Y-43880952D01*
X47785715Y-43928571D01*
X47690477Y-43976190D01*
X47309524Y-43976190D01*
X48833334Y-44452381D02*
X48261905Y-44452381D01*
X48547619Y-44452381D02*
X48547619Y-43452381D01*
X48452381Y-43595238D01*
X48357143Y-43690476D01*
X48261905Y-43738095D01*
X49452381Y-43452381D02*
X49547620Y-43452381D01*
X49642858Y-43500000D01*
X49690477Y-43547619D01*
X49738096Y-43642857D01*
X49785715Y-43833333D01*
X49785715Y-44071429D01*
X49738096Y-44261905D01*
X49690477Y-44357143D01*
X49642858Y-44404762D01*
X49547620Y-44452381D01*
X49452381Y-44452381D01*
X49357143Y-44404762D01*
X49309524Y-44357143D01*
X49261905Y-44261905D01*
X49214286Y-44071429D01*
X49214286Y-43833333D01*
X49261905Y-43642857D01*
X49309524Y-43547619D01*
X49357143Y-43500000D01*
X49452381Y-43452381D01*
X50738096Y-44452381D02*
X50166667Y-44452381D01*
X50452381Y-44452381D02*
X50452381Y-43452381D01*
X50357143Y-43595238D01*
X50261905Y-43690476D01*
X50166667Y-43738095D01*
X51880953Y-38357143D02*
X51833334Y-38404762D01*
X51690477Y-38452381D01*
X51595239Y-38452381D01*
X51452381Y-38404762D01*
X51357143Y-38309524D01*
X51309524Y-38214286D01*
X51261905Y-38023810D01*
X51261905Y-37880952D01*
X51309524Y-37690476D01*
X51357143Y-37595238D01*
X51452381Y-37500000D01*
X51595239Y-37452381D01*
X51690477Y-37452381D01*
X51833334Y-37500000D01*
X51880953Y-37547619D01*
X52785715Y-37452381D02*
X52309524Y-37452381D01*
X52261905Y-37928571D01*
X52309524Y-37880952D01*
X52404762Y-37833333D01*
X52642858Y-37833333D01*
X52738096Y-37880952D01*
X52785715Y-37928571D01*
X52833334Y-38023810D01*
X52833334Y-38261905D01*
X52785715Y-38357143D01*
X52738096Y-38404762D01*
X52642858Y-38452381D01*
X52404762Y-38452381D01*
X52309524Y-38404762D01*
X52261905Y-38357143D01*
X53452381Y-37452381D02*
X53547620Y-37452381D01*
X53642858Y-37500000D01*
X53690477Y-37547619D01*
X53738096Y-37642857D01*
X53785715Y-37833333D01*
X53785715Y-38071429D01*
X53738096Y-38261905D01*
X53690477Y-38357143D01*
X53642858Y-38404762D01*
X53547620Y-38452381D01*
X53452381Y-38452381D01*
X53357143Y-38404762D01*
X53309524Y-38357143D01*
X53261905Y-38261905D01*
X53214286Y-38071429D01*
X53214286Y-37833333D01*
X53261905Y-37642857D01*
X53309524Y-37547619D01*
X53357143Y-37500000D01*
X53452381Y-37452381D01*
X54261905Y-38452381D02*
X54452381Y-38452381D01*
X54547620Y-38404762D01*
X54595239Y-38357143D01*
X54690477Y-38214286D01*
X54738096Y-38023810D01*
X54738096Y-37642857D01*
X54690477Y-37547619D01*
X54642858Y-37500000D01*
X54547620Y-37452381D01*
X54357143Y-37452381D01*
X54261905Y-37500000D01*
X54214286Y-37547619D01*
X54166667Y-37642857D01*
X54166667Y-37880952D01*
X54214286Y-37976190D01*
X54261905Y-38023810D01*
X54357143Y-38071429D01*
X54547620Y-38071429D01*
X54642858Y-38023810D01*
X54690477Y-37976190D01*
X54738096Y-37880952D01*
X80880953Y-41452381D02*
X80547619Y-40976190D01*
X80309524Y-41452381D02*
X80309524Y-40452381D01*
X80690477Y-40452381D01*
X80785715Y-40500000D01*
X80833334Y-40547619D01*
X80880953Y-40642857D01*
X80880953Y-40785714D01*
X80833334Y-40880952D01*
X80785715Y-40928571D01*
X80690477Y-40976190D01*
X80309524Y-40976190D01*
X81785715Y-40452381D02*
X81309524Y-40452381D01*
X81261905Y-40928571D01*
X81309524Y-40880952D01*
X81404762Y-40833333D01*
X81642858Y-40833333D01*
X81738096Y-40880952D01*
X81785715Y-40928571D01*
X81833334Y-41023810D01*
X81833334Y-41261905D01*
X81785715Y-41357143D01*
X81738096Y-41404762D01*
X81642858Y-41452381D01*
X81404762Y-41452381D01*
X81309524Y-41404762D01*
X81261905Y-41357143D01*
X82452381Y-40452381D02*
X82547620Y-40452381D01*
X82642858Y-40500000D01*
X82690477Y-40547619D01*
X82738096Y-40642857D01*
X82785715Y-40833333D01*
X82785715Y-41071429D01*
X82738096Y-41261905D01*
X82690477Y-41357143D01*
X82642858Y-41404762D01*
X82547620Y-41452381D01*
X82452381Y-41452381D01*
X82357143Y-41404762D01*
X82309524Y-41357143D01*
X82261905Y-41261905D01*
X82214286Y-41071429D01*
X82214286Y-40833333D01*
X82261905Y-40642857D01*
X82309524Y-40547619D01*
X82357143Y-40500000D01*
X82452381Y-40452381D01*
X83261905Y-41452381D02*
X83452381Y-41452381D01*
X83547620Y-41404762D01*
X83595239Y-41357143D01*
X83690477Y-41214286D01*
X83738096Y-41023810D01*
X83738096Y-40642857D01*
X83690477Y-40547619D01*
X83642858Y-40500000D01*
X83547620Y-40452381D01*
X83357143Y-40452381D01*
X83261905Y-40500000D01*
X83214286Y-40547619D01*
X83166667Y-40642857D01*
X83166667Y-40880952D01*
X83214286Y-40976190D01*
X83261905Y-41023810D01*
X83357143Y-41071429D01*
X83547620Y-41071429D01*
X83642858Y-41023810D01*
X83690477Y-40976190D01*
X83738096Y-40880952D01*
X80880953Y-44452381D02*
X80547619Y-43976190D01*
X80309524Y-44452381D02*
X80309524Y-43452381D01*
X80690477Y-43452381D01*
X80785715Y-43500000D01*
X80833334Y-43547619D01*
X80880953Y-43642857D01*
X80880953Y-43785714D01*
X80833334Y-43880952D01*
X80785715Y-43928571D01*
X80690477Y-43976190D01*
X80309524Y-43976190D01*
X81785715Y-43452381D02*
X81309524Y-43452381D01*
X81261905Y-43928571D01*
X81309524Y-43880952D01*
X81404762Y-43833333D01*
X81642858Y-43833333D01*
X81738096Y-43880952D01*
X81785715Y-43928571D01*
X81833334Y-44023810D01*
X81833334Y-44261905D01*
X81785715Y-44357143D01*
X81738096Y-44404762D01*
X81642858Y-44452381D01*
X81404762Y-44452381D01*
X81309524Y-44404762D01*
X81261905Y-44357143D01*
X82785715Y-44452381D02*
X82214286Y-44452381D01*
X82500000Y-44452381D02*
X82500000Y-43452381D01*
X82404762Y-43595238D01*
X82309524Y-43690476D01*
X82214286Y-43738095D01*
X83404762Y-43452381D02*
X83500001Y-43452381D01*
X83595239Y-43500000D01*
X83642858Y-43547619D01*
X83690477Y-43642857D01*
X83738096Y-43833333D01*
X83738096Y-44071429D01*
X83690477Y-44261905D01*
X83642858Y-44357143D01*
X83595239Y-44404762D01*
X83500001Y-44452381D01*
X83404762Y-44452381D01*
X83309524Y-44404762D01*
X83261905Y-44357143D01*
X83214286Y-44261905D01*
X83166667Y-44071429D01*
X83166667Y-43833333D01*
X83214286Y-43642857D01*
X83261905Y-43547619D01*
X83309524Y-43500000D01*
X83404762Y-43452381D01*
X92880953Y-41452381D02*
X92547619Y-40976190D01*
X92309524Y-41452381D02*
X92309524Y-40452381D01*
X92690477Y-40452381D01*
X92785715Y-40500000D01*
X92833334Y-40547619D01*
X92880953Y-40642857D01*
X92880953Y-40785714D01*
X92833334Y-40880952D01*
X92785715Y-40928571D01*
X92690477Y-40976190D01*
X92309524Y-40976190D01*
X93785715Y-40452381D02*
X93309524Y-40452381D01*
X93261905Y-40928571D01*
X93309524Y-40880952D01*
X93404762Y-40833333D01*
X93642858Y-40833333D01*
X93738096Y-40880952D01*
X93785715Y-40928571D01*
X93833334Y-41023810D01*
X93833334Y-41261905D01*
X93785715Y-41357143D01*
X93738096Y-41404762D01*
X93642858Y-41452381D01*
X93404762Y-41452381D01*
X93309524Y-41404762D01*
X93261905Y-41357143D01*
X94785715Y-41452381D02*
X94214286Y-41452381D01*
X94500000Y-41452381D02*
X94500000Y-40452381D01*
X94404762Y-40595238D01*
X94309524Y-40690476D01*
X94214286Y-40738095D01*
X95738096Y-41452381D02*
X95166667Y-41452381D01*
X95452381Y-41452381D02*
X95452381Y-40452381D01*
X95357143Y-40595238D01*
X95261905Y-40690476D01*
X95166667Y-40738095D01*
X92880953Y-44452381D02*
X92547619Y-43976190D01*
X92309524Y-44452381D02*
X92309524Y-43452381D01*
X92690477Y-43452381D01*
X92785715Y-43500000D01*
X92833334Y-43547619D01*
X92880953Y-43642857D01*
X92880953Y-43785714D01*
X92833334Y-43880952D01*
X92785715Y-43928571D01*
X92690477Y-43976190D01*
X92309524Y-43976190D01*
X93785715Y-43452381D02*
X93309524Y-43452381D01*
X93261905Y-43928571D01*
X93309524Y-43880952D01*
X93404762Y-43833333D01*
X93642858Y-43833333D01*
X93738096Y-43880952D01*
X93785715Y-43928571D01*
X93833334Y-44023810D01*
X93833334Y-44261905D01*
X93785715Y-44357143D01*
X93738096Y-44404762D01*
X93642858Y-44452381D01*
X93404762Y-44452381D01*
X93309524Y-44404762D01*
X93261905Y-44357143D01*
X94785715Y-44452381D02*
X94214286Y-44452381D01*
X94500000Y-44452381D02*
X94500000Y-43452381D01*
X94404762Y-43595238D01*
X94309524Y-43690476D01*
X94214286Y-43738095D01*
X95166667Y-43547619D02*
X95214286Y-43500000D01*
X95309524Y-43452381D01*
X95547620Y-43452381D01*
X95642858Y-43500000D01*
X95690477Y-43547619D01*
X95738096Y-43642857D01*
X95738096Y-43738095D01*
X95690477Y-43880952D01*
X95119048Y-44452381D01*
X95738096Y-44452381D01*
M02*
