G04 #@! TF.FileFunction,Copper,L4,Bot,Signal*
%FSLAX46Y46*%
G04 Gerber Fmt 4.6, Leading zero omitted, Abs format (unit mm)*
G04 Created by KiCad (PCBNEW 4.0.4+dfsg1-stable) date Wed Feb 15 11:15:26 2017*
%MOMM*%
%LPD*%
G01*
G04 APERTURE LIST*
%ADD10C,0.100000*%
%ADD11O,1.501140X2.499360*%
%ADD12O,2.499360X1.501140*%
%ADD13C,1.524000*%
%ADD14R,2.032000X1.727200*%
%ADD15O,2.032000X1.727200*%
%ADD16C,1.000000*%
%ADD17C,0.750000*%
%ADD18C,0.254000*%
G04 APERTURE END LIST*
D10*
D11*
X79460000Y-35000000D03*
X84540000Y-35000000D03*
X84540000Y-50000000D03*
X79460000Y-50000000D03*
D12*
X102000000Y-34460000D03*
X102000000Y-39540000D03*
D11*
X91460000Y-35000000D03*
X96540000Y-35000000D03*
X96540000Y-50000000D03*
X91460000Y-50000000D03*
D13*
X121333000Y-42000000D03*
X124000000Y-44794000D03*
X126540000Y-42000000D03*
X124000000Y-39333000D03*
X125778000Y-40095000D03*
D14*
X45000000Y-34000000D03*
D15*
X45000000Y-36540000D03*
X45000000Y-39080000D03*
X45000000Y-41620000D03*
X45000000Y-44160000D03*
X45000000Y-46700000D03*
X45000000Y-49240000D03*
D11*
X84540000Y-39000000D03*
X79460000Y-39000000D03*
X79460000Y-46000000D03*
X84540000Y-46000000D03*
X96540000Y-39000000D03*
X91460000Y-39000000D03*
X91460000Y-46000000D03*
X96540000Y-46000000D03*
D16*
X52000000Y-46000000D03*
X68000000Y-37000000D03*
X55000000Y-31000000D03*
X64000000Y-52000000D03*
X71558000Y-44175000D03*
X61033700Y-52353700D03*
X62432900Y-49148100D03*
X52000000Y-34766300D03*
X70062500Y-47337500D03*
X62196500Y-41265200D03*
X57514600Y-48929400D03*
X74000000Y-39000000D03*
X68000000Y-52000000D03*
X59557400Y-42514100D03*
X60270000Y-48973300D03*
D17*
X121540200Y-39540000D02*
X102000000Y-39540000D01*
X124000200Y-42000000D02*
X121540200Y-39540000D01*
X126540000Y-42000000D02*
X124000200Y-42000000D01*
X74617300Y-51892300D02*
X70062500Y-47337500D01*
X85398600Y-51892300D02*
X74617300Y-51892300D01*
X89290900Y-48000000D02*
X85398600Y-51892300D01*
X91905400Y-48000000D02*
X89290900Y-48000000D01*
X100000200Y-39905200D02*
X91905400Y-48000000D01*
X100000200Y-39540000D02*
X100000200Y-39905200D01*
X102000000Y-39540000D02*
X100000200Y-39540000D01*
X67114700Y-50285300D02*
X70062500Y-47337500D01*
X51125300Y-50285300D02*
X67114700Y-50285300D01*
X45000000Y-44160000D02*
X51125300Y-50285300D01*
X91460000Y-46000000D02*
X91460000Y-39000000D01*
X62196500Y-44247500D02*
X62196500Y-41265200D01*
X57514600Y-48929400D02*
X62196500Y-44247500D01*
X84540000Y-39000000D02*
X84540000Y-35000000D01*
X84540000Y-46000000D02*
X84540000Y-50000000D01*
X96540000Y-46000000D02*
X96540000Y-50000000D01*
X95001200Y-32959400D02*
X102000000Y-32959400D01*
X92960600Y-35000000D02*
X95001200Y-32959400D01*
X102000000Y-34460000D02*
X102000000Y-32959400D01*
X92210300Y-35000000D02*
X92960600Y-35000000D01*
X92210300Y-35000000D02*
X91460000Y-35000000D01*
X82845100Y-33115500D02*
X80960600Y-35000000D01*
X88074900Y-33115500D02*
X82845100Y-33115500D01*
X89959400Y-35000000D02*
X88074900Y-33115500D01*
X91460000Y-35000000D02*
X89959400Y-35000000D01*
X79460000Y-35000000D02*
X80960600Y-35000000D01*
X58663300Y-41620000D02*
X59557400Y-42514100D01*
X45000000Y-41620000D02*
X58663300Y-41620000D01*
X96540000Y-39000000D02*
X96540000Y-35000000D01*
X79460000Y-39000000D02*
X79460000Y-46000000D01*
X63243300Y-46000000D02*
X60270000Y-48973300D01*
X79460000Y-46000000D02*
X63243300Y-46000000D01*
D18*
G36*
X138557000Y-54267000D02*
X42529000Y-54267000D01*
X42529000Y-41620000D01*
X43316655Y-41620000D01*
X43430729Y-42193489D01*
X43755585Y-42679670D01*
X44070366Y-42890000D01*
X43755585Y-43100330D01*
X43430729Y-43586511D01*
X43316655Y-44160000D01*
X43430729Y-44733489D01*
X43755585Y-45219670D01*
X44070366Y-45430000D01*
X43755585Y-45640330D01*
X43430729Y-46126511D01*
X43316655Y-46700000D01*
X43430729Y-47273489D01*
X43755585Y-47759670D01*
X44070366Y-47970000D01*
X43755585Y-48180330D01*
X43430729Y-48666511D01*
X43316655Y-49240000D01*
X43430729Y-49813489D01*
X43755585Y-50299670D01*
X44241766Y-50624526D01*
X44815255Y-50738600D01*
X45184745Y-50738600D01*
X45758234Y-50624526D01*
X46244415Y-50299670D01*
X46569271Y-49813489D01*
X46683345Y-49240000D01*
X46569271Y-48666511D01*
X46244415Y-48180330D01*
X45929634Y-47970000D01*
X46244415Y-47759670D01*
X46569271Y-47273489D01*
X46588494Y-47176850D01*
X50411122Y-50999478D01*
X50738790Y-51218418D01*
X51125300Y-51295300D01*
X67099396Y-51295300D01*
X67038355Y-51356235D01*
X66865197Y-51773244D01*
X66864803Y-52224775D01*
X67037233Y-52642086D01*
X67356235Y-52961645D01*
X67773244Y-53134803D01*
X68224775Y-53135197D01*
X68642086Y-52962767D01*
X68961645Y-52643765D01*
X69134803Y-52226756D01*
X69135197Y-51775225D01*
X68962767Y-51357914D01*
X68643765Y-51038355D01*
X68226756Y-50865197D01*
X67963389Y-50864967D01*
X70062500Y-48765856D01*
X73903122Y-52606478D01*
X74230790Y-52825418D01*
X74617300Y-52902300D01*
X85398600Y-52902300D01*
X85785110Y-52825418D01*
X86112778Y-52606478D01*
X89709256Y-49010000D01*
X90164729Y-49010000D01*
X90074430Y-49463967D01*
X90074430Y-50536033D01*
X90179900Y-51066268D01*
X90480254Y-51515779D01*
X90929765Y-51816133D01*
X91460000Y-51921603D01*
X91990235Y-51816133D01*
X92439746Y-51515779D01*
X92740100Y-51066268D01*
X92845570Y-50536033D01*
X92845570Y-49463967D01*
X92740100Y-48933732D01*
X92601479Y-48726271D01*
X92619578Y-48714178D01*
X95154430Y-46179326D01*
X95154430Y-46536033D01*
X95259900Y-47066268D01*
X95530000Y-47470501D01*
X95530000Y-48529499D01*
X95259900Y-48933732D01*
X95154430Y-49463967D01*
X95154430Y-50536033D01*
X95259900Y-51066268D01*
X95560254Y-51515779D01*
X96009765Y-51816133D01*
X96540000Y-51921603D01*
X97070235Y-51816133D01*
X97519746Y-51515779D01*
X97820100Y-51066268D01*
X97925570Y-50536033D01*
X97925570Y-49463967D01*
X97820100Y-48933732D01*
X97550000Y-48529499D01*
X97550000Y-47470501D01*
X97820100Y-47066268D01*
X97925570Y-46536033D01*
X97925570Y-45463967D01*
X97847337Y-45070661D01*
X122602758Y-45070661D01*
X122814990Y-45584303D01*
X123207630Y-45977629D01*
X123720900Y-46190757D01*
X124276661Y-46191242D01*
X124790303Y-45979010D01*
X125183629Y-45586370D01*
X125396757Y-45073100D01*
X125397242Y-44517339D01*
X125185010Y-44003697D01*
X124792370Y-43610371D01*
X124279100Y-43397243D01*
X123723339Y-43396758D01*
X123209697Y-43608990D01*
X122816371Y-44001630D01*
X122603243Y-44514900D01*
X122602758Y-45070661D01*
X97847337Y-45070661D01*
X97820100Y-44933732D01*
X97519746Y-44484221D01*
X97117984Y-44215772D01*
X100681915Y-40651841D01*
X100933732Y-40820100D01*
X101463967Y-40925570D01*
X102536033Y-40925570D01*
X103066268Y-40820100D01*
X103470501Y-40550000D01*
X121121844Y-40550000D01*
X121174705Y-40602861D01*
X121056339Y-40602758D01*
X120542697Y-40814990D01*
X120149371Y-41207630D01*
X119936243Y-41720900D01*
X119935758Y-42276661D01*
X120147990Y-42790303D01*
X120540630Y-43183629D01*
X121053900Y-43396757D01*
X121609661Y-43397242D01*
X122123303Y-43185010D01*
X122516629Y-42792370D01*
X122729757Y-42279100D01*
X122729863Y-42158019D01*
X123286022Y-42714178D01*
X123613690Y-42933118D01*
X124000200Y-43010000D01*
X125574304Y-43010000D01*
X125747630Y-43183629D01*
X126260900Y-43396757D01*
X126816661Y-43397242D01*
X127330303Y-43185010D01*
X127723629Y-42792370D01*
X127936757Y-42279100D01*
X127937242Y-41723339D01*
X127725010Y-41209697D01*
X127332370Y-40816371D01*
X127041297Y-40695507D01*
X127174757Y-40374100D01*
X127175242Y-39818339D01*
X126963010Y-39304697D01*
X126570370Y-38911371D01*
X126057100Y-38698243D01*
X125501339Y-38697758D01*
X125285867Y-38786789D01*
X125185010Y-38542697D01*
X124792370Y-38149371D01*
X124279100Y-37936243D01*
X123723339Y-37935758D01*
X123209697Y-38147990D01*
X122816371Y-38540630D01*
X122603243Y-39053900D01*
X122603138Y-39174582D01*
X122254378Y-38825822D01*
X121926710Y-38606882D01*
X121540200Y-38530000D01*
X103470501Y-38530000D01*
X103066268Y-38259900D01*
X102536033Y-38154430D01*
X101463967Y-38154430D01*
X100933732Y-38259900D01*
X100529499Y-38530000D01*
X100000200Y-38530000D01*
X99613690Y-38606882D01*
X99286022Y-38825822D01*
X99067082Y-39153490D01*
X99003399Y-39473645D01*
X92845570Y-45631474D01*
X92845570Y-45463967D01*
X92740100Y-44933732D01*
X92470000Y-44529499D01*
X92470000Y-40470501D01*
X92740100Y-40066268D01*
X92845570Y-39536033D01*
X92845570Y-38463967D01*
X92740100Y-37933732D01*
X92439746Y-37484221D01*
X91990235Y-37183867D01*
X91460000Y-37078397D01*
X90929765Y-37183867D01*
X90480254Y-37484221D01*
X90179900Y-37933732D01*
X90074430Y-38463967D01*
X90074430Y-39536033D01*
X90179900Y-40066268D01*
X90450000Y-40470501D01*
X90450000Y-44529499D01*
X90179900Y-44933732D01*
X90074430Y-45463967D01*
X90074430Y-46536033D01*
X90164729Y-46990000D01*
X89290900Y-46990000D01*
X88904389Y-47066882D01*
X88576722Y-47285822D01*
X85925570Y-49936974D01*
X85925570Y-49463967D01*
X85820100Y-48933732D01*
X85550000Y-48529499D01*
X85550000Y-47470501D01*
X85820100Y-47066268D01*
X85925570Y-46536033D01*
X85925570Y-45463967D01*
X85820100Y-44933732D01*
X85519746Y-44484221D01*
X85070235Y-44183867D01*
X84540000Y-44078397D01*
X84009765Y-44183867D01*
X83560254Y-44484221D01*
X83259900Y-44933732D01*
X83154430Y-45463967D01*
X83154430Y-46536033D01*
X83259900Y-47066268D01*
X83530000Y-47470501D01*
X83530000Y-48529499D01*
X83259900Y-48933732D01*
X83154430Y-49463967D01*
X83154430Y-50536033D01*
X83223307Y-50882300D01*
X80776693Y-50882300D01*
X80845570Y-50536033D01*
X80845570Y-49463967D01*
X80740100Y-48933732D01*
X80439746Y-48484221D01*
X79990235Y-48183867D01*
X79460000Y-48078397D01*
X78929765Y-48183867D01*
X78480254Y-48484221D01*
X78179900Y-48933732D01*
X78074430Y-49463967D01*
X78074430Y-50536033D01*
X78143307Y-50882300D01*
X75035656Y-50882300D01*
X71163356Y-47010000D01*
X78168708Y-47010000D01*
X78179900Y-47066268D01*
X78480254Y-47515779D01*
X78929765Y-47816133D01*
X79460000Y-47921603D01*
X79990235Y-47816133D01*
X80439746Y-47515779D01*
X80740100Y-47066268D01*
X80845570Y-46536033D01*
X80845570Y-45463967D01*
X80740100Y-44933732D01*
X80470000Y-44529499D01*
X80470000Y-40470501D01*
X80740100Y-40066268D01*
X80845570Y-39536033D01*
X80845570Y-38463967D01*
X80740100Y-37933732D01*
X80439746Y-37484221D01*
X79990235Y-37183867D01*
X79460000Y-37078397D01*
X78929765Y-37183867D01*
X78480254Y-37484221D01*
X78179900Y-37933732D01*
X78074430Y-38463967D01*
X78074430Y-39536033D01*
X78179900Y-40066268D01*
X78450000Y-40470501D01*
X78450000Y-44529499D01*
X78179900Y-44933732D01*
X78168708Y-44990000D01*
X63243300Y-44990000D01*
X62856790Y-45066882D01*
X62702142Y-45170214D01*
X62910678Y-44961678D01*
X63129618Y-44634011D01*
X63206500Y-44247500D01*
X63206500Y-41792514D01*
X63331303Y-41491956D01*
X63331697Y-41040425D01*
X63159267Y-40623114D01*
X62840265Y-40303555D01*
X62423256Y-40130397D01*
X61971725Y-40130003D01*
X61554414Y-40302433D01*
X61234855Y-40621435D01*
X61061697Y-41038444D01*
X61061303Y-41489975D01*
X61186500Y-41792974D01*
X61186500Y-43829144D01*
X57173289Y-47842355D01*
X56872514Y-47966633D01*
X56552955Y-48285635D01*
X56379797Y-48702644D01*
X56379403Y-49154175D01*
X56429451Y-49275300D01*
X51543656Y-49275300D01*
X48493131Y-46224775D01*
X50864803Y-46224775D01*
X51037233Y-46642086D01*
X51356235Y-46961645D01*
X51773244Y-47134803D01*
X52224775Y-47135197D01*
X52642086Y-46962767D01*
X52961645Y-46643765D01*
X53134803Y-46226756D01*
X53135197Y-45775225D01*
X52962767Y-45357914D01*
X52643765Y-45038355D01*
X52226756Y-44865197D01*
X51775225Y-44864803D01*
X51357914Y-45037233D01*
X51038355Y-45356235D01*
X50865197Y-45773244D01*
X50864803Y-46224775D01*
X48493131Y-46224775D01*
X46641040Y-44372684D01*
X46683345Y-44160000D01*
X46569271Y-43586511D01*
X46244415Y-43100330D01*
X45929634Y-42890000D01*
X46244415Y-42679670D01*
X46277603Y-42630000D01*
X58244944Y-42630000D01*
X58470355Y-42855411D01*
X58594633Y-43156186D01*
X58913635Y-43475745D01*
X59330644Y-43648903D01*
X59782175Y-43649297D01*
X60199486Y-43476867D01*
X60519045Y-43157865D01*
X60692203Y-42740856D01*
X60692597Y-42289325D01*
X60520167Y-41872014D01*
X60201165Y-41552455D01*
X59898385Y-41426729D01*
X59377478Y-40905822D01*
X59049810Y-40686882D01*
X58663300Y-40610000D01*
X46277603Y-40610000D01*
X46244415Y-40560330D01*
X45934931Y-40353539D01*
X46350732Y-39982036D01*
X46604709Y-39454791D01*
X46607358Y-39439026D01*
X46495498Y-39224775D01*
X72864803Y-39224775D01*
X73037233Y-39642086D01*
X73356235Y-39961645D01*
X73773244Y-40134803D01*
X74224775Y-40135197D01*
X74642086Y-39962767D01*
X74961645Y-39643765D01*
X75134803Y-39226756D01*
X75135197Y-38775225D01*
X74962767Y-38357914D01*
X74643765Y-38038355D01*
X74226756Y-37865197D01*
X73775225Y-37864803D01*
X73357914Y-38037233D01*
X73038355Y-38356235D01*
X72865197Y-38773244D01*
X72864803Y-39224775D01*
X46495498Y-39224775D01*
X46486217Y-39207000D01*
X45127000Y-39207000D01*
X45127000Y-39227000D01*
X44873000Y-39227000D01*
X44873000Y-39207000D01*
X43513783Y-39207000D01*
X43392642Y-39439026D01*
X43395291Y-39454791D01*
X43649268Y-39982036D01*
X44065069Y-40353539D01*
X43755585Y-40560330D01*
X43430729Y-41046511D01*
X43316655Y-41620000D01*
X42529000Y-41620000D01*
X42529000Y-36540000D01*
X43316655Y-36540000D01*
X43430729Y-37113489D01*
X43755585Y-37599670D01*
X44065069Y-37806461D01*
X43649268Y-38177964D01*
X43395291Y-38705209D01*
X43392642Y-38720974D01*
X43513783Y-38953000D01*
X44873000Y-38953000D01*
X44873000Y-38933000D01*
X45127000Y-38933000D01*
X45127000Y-38953000D01*
X46486217Y-38953000D01*
X46607358Y-38720974D01*
X46604709Y-38705209D01*
X46350732Y-38177964D01*
X45934931Y-37806461D01*
X46244415Y-37599670D01*
X46494912Y-37224775D01*
X66864803Y-37224775D01*
X67037233Y-37642086D01*
X67356235Y-37961645D01*
X67773244Y-38134803D01*
X68224775Y-38135197D01*
X68642086Y-37962767D01*
X68961645Y-37643765D01*
X69134803Y-37226756D01*
X69135197Y-36775225D01*
X68962767Y-36357914D01*
X68643765Y-36038355D01*
X68226756Y-35865197D01*
X67775225Y-35864803D01*
X67357914Y-36037233D01*
X67038355Y-36356235D01*
X66865197Y-36773244D01*
X66864803Y-37224775D01*
X46494912Y-37224775D01*
X46569271Y-37113489D01*
X46683345Y-36540000D01*
X46569271Y-35966511D01*
X46244415Y-35480330D01*
X46230087Y-35470757D01*
X46251317Y-35466762D01*
X46467441Y-35327690D01*
X46612431Y-35115490D01*
X46663440Y-34863600D01*
X46663440Y-34463967D01*
X78074430Y-34463967D01*
X78074430Y-35536033D01*
X78179900Y-36066268D01*
X78480254Y-36515779D01*
X78929765Y-36816133D01*
X79460000Y-36921603D01*
X79990235Y-36816133D01*
X80439746Y-36515779D01*
X80740100Y-36066268D01*
X80751292Y-36010000D01*
X80960600Y-36010000D01*
X81347110Y-35933118D01*
X81674778Y-35714178D01*
X83211401Y-34177555D01*
X83154430Y-34463967D01*
X83154430Y-35536033D01*
X83259900Y-36066268D01*
X83530000Y-36470501D01*
X83530000Y-37529499D01*
X83259900Y-37933732D01*
X83154430Y-38463967D01*
X83154430Y-39536033D01*
X83259900Y-40066268D01*
X83560254Y-40515779D01*
X84009765Y-40816133D01*
X84540000Y-40921603D01*
X85070235Y-40816133D01*
X85519746Y-40515779D01*
X85820100Y-40066268D01*
X85925570Y-39536033D01*
X85925570Y-38463967D01*
X85820100Y-37933732D01*
X85550000Y-37529499D01*
X85550000Y-36470501D01*
X85820100Y-36066268D01*
X85925570Y-35536033D01*
X85925570Y-34463967D01*
X85858245Y-34125500D01*
X87656544Y-34125500D01*
X89245222Y-35714178D01*
X89572889Y-35933118D01*
X89959400Y-36010000D01*
X90168708Y-36010000D01*
X90179900Y-36066268D01*
X90480254Y-36515779D01*
X90929765Y-36816133D01*
X91460000Y-36921603D01*
X91990235Y-36816133D01*
X92439746Y-36515779D01*
X92740100Y-36066268D01*
X92751292Y-36010000D01*
X92960600Y-36010000D01*
X93347110Y-35933118D01*
X93674778Y-35714178D01*
X95211401Y-34177555D01*
X95154430Y-34463967D01*
X95154430Y-35536033D01*
X95259900Y-36066268D01*
X95530000Y-36470501D01*
X95530000Y-37529499D01*
X95259900Y-37933732D01*
X95154430Y-38463967D01*
X95154430Y-39536033D01*
X95259900Y-40066268D01*
X95560254Y-40515779D01*
X96009765Y-40816133D01*
X96540000Y-40921603D01*
X97070235Y-40816133D01*
X97519746Y-40515779D01*
X97820100Y-40066268D01*
X97925570Y-39536033D01*
X97925570Y-38463967D01*
X97820100Y-37933732D01*
X97550000Y-37529499D01*
X97550000Y-36470501D01*
X97820100Y-36066268D01*
X97925570Y-35536033D01*
X97925570Y-34463967D01*
X97827195Y-33969400D01*
X100175983Y-33969400D01*
X100078397Y-34460000D01*
X100183867Y-34990235D01*
X100484221Y-35439746D01*
X100933732Y-35740100D01*
X101463967Y-35845570D01*
X102536033Y-35845570D01*
X103066268Y-35740100D01*
X103515779Y-35439746D01*
X103816133Y-34990235D01*
X103921603Y-34460000D01*
X103816133Y-33929765D01*
X103515779Y-33480254D01*
X103066268Y-33179900D01*
X103010000Y-33168708D01*
X103010000Y-32959400D01*
X102933118Y-32572890D01*
X102714178Y-32245222D01*
X102386510Y-32026282D01*
X102000000Y-31949400D01*
X95001200Y-31949400D01*
X94614690Y-32026282D01*
X94287022Y-32245222D01*
X92683388Y-33848856D01*
X92439746Y-33484221D01*
X91990235Y-33183867D01*
X91460000Y-33078397D01*
X90929765Y-33183867D01*
X90480254Y-33484221D01*
X90236612Y-33848856D01*
X88789078Y-32401322D01*
X88461410Y-32182382D01*
X88074900Y-32105500D01*
X82845100Y-32105500D01*
X82458589Y-32182382D01*
X82130922Y-32401322D01*
X80683388Y-33848856D01*
X80439746Y-33484221D01*
X79990235Y-33183867D01*
X79460000Y-33078397D01*
X78929765Y-33183867D01*
X78480254Y-33484221D01*
X78179900Y-33933732D01*
X78074430Y-34463967D01*
X46663440Y-34463967D01*
X46663440Y-33136400D01*
X46619162Y-32901083D01*
X46480090Y-32684959D01*
X46267890Y-32539969D01*
X46016000Y-32488960D01*
X43984000Y-32488960D01*
X43748683Y-32533238D01*
X43532559Y-32672310D01*
X43387569Y-32884510D01*
X43336560Y-33136400D01*
X43336560Y-34863600D01*
X43380838Y-35098917D01*
X43519910Y-35315041D01*
X43732110Y-35460031D01*
X43773439Y-35468400D01*
X43755585Y-35480330D01*
X43430729Y-35966511D01*
X43316655Y-36540000D01*
X42529000Y-36540000D01*
X42529000Y-31224775D01*
X53864803Y-31224775D01*
X54037233Y-31642086D01*
X54356235Y-31961645D01*
X54773244Y-32134803D01*
X55224775Y-32135197D01*
X55642086Y-31962767D01*
X55961645Y-31643765D01*
X56134803Y-31226756D01*
X56135197Y-30775225D01*
X55962767Y-30357914D01*
X55643765Y-30038355D01*
X55226756Y-29865197D01*
X54775225Y-29864803D01*
X54357914Y-30037233D01*
X54038355Y-30356235D01*
X53865197Y-30773244D01*
X53864803Y-31224775D01*
X42529000Y-31224775D01*
X42529000Y-29845000D01*
X138557000Y-29845000D01*
X138557000Y-54267000D01*
X138557000Y-54267000D01*
G37*
X138557000Y-54267000D02*
X42529000Y-54267000D01*
X42529000Y-41620000D01*
X43316655Y-41620000D01*
X43430729Y-42193489D01*
X43755585Y-42679670D01*
X44070366Y-42890000D01*
X43755585Y-43100330D01*
X43430729Y-43586511D01*
X43316655Y-44160000D01*
X43430729Y-44733489D01*
X43755585Y-45219670D01*
X44070366Y-45430000D01*
X43755585Y-45640330D01*
X43430729Y-46126511D01*
X43316655Y-46700000D01*
X43430729Y-47273489D01*
X43755585Y-47759670D01*
X44070366Y-47970000D01*
X43755585Y-48180330D01*
X43430729Y-48666511D01*
X43316655Y-49240000D01*
X43430729Y-49813489D01*
X43755585Y-50299670D01*
X44241766Y-50624526D01*
X44815255Y-50738600D01*
X45184745Y-50738600D01*
X45758234Y-50624526D01*
X46244415Y-50299670D01*
X46569271Y-49813489D01*
X46683345Y-49240000D01*
X46569271Y-48666511D01*
X46244415Y-48180330D01*
X45929634Y-47970000D01*
X46244415Y-47759670D01*
X46569271Y-47273489D01*
X46588494Y-47176850D01*
X50411122Y-50999478D01*
X50738790Y-51218418D01*
X51125300Y-51295300D01*
X67099396Y-51295300D01*
X67038355Y-51356235D01*
X66865197Y-51773244D01*
X66864803Y-52224775D01*
X67037233Y-52642086D01*
X67356235Y-52961645D01*
X67773244Y-53134803D01*
X68224775Y-53135197D01*
X68642086Y-52962767D01*
X68961645Y-52643765D01*
X69134803Y-52226756D01*
X69135197Y-51775225D01*
X68962767Y-51357914D01*
X68643765Y-51038355D01*
X68226756Y-50865197D01*
X67963389Y-50864967D01*
X70062500Y-48765856D01*
X73903122Y-52606478D01*
X74230790Y-52825418D01*
X74617300Y-52902300D01*
X85398600Y-52902300D01*
X85785110Y-52825418D01*
X86112778Y-52606478D01*
X89709256Y-49010000D01*
X90164729Y-49010000D01*
X90074430Y-49463967D01*
X90074430Y-50536033D01*
X90179900Y-51066268D01*
X90480254Y-51515779D01*
X90929765Y-51816133D01*
X91460000Y-51921603D01*
X91990235Y-51816133D01*
X92439746Y-51515779D01*
X92740100Y-51066268D01*
X92845570Y-50536033D01*
X92845570Y-49463967D01*
X92740100Y-48933732D01*
X92601479Y-48726271D01*
X92619578Y-48714178D01*
X95154430Y-46179326D01*
X95154430Y-46536033D01*
X95259900Y-47066268D01*
X95530000Y-47470501D01*
X95530000Y-48529499D01*
X95259900Y-48933732D01*
X95154430Y-49463967D01*
X95154430Y-50536033D01*
X95259900Y-51066268D01*
X95560254Y-51515779D01*
X96009765Y-51816133D01*
X96540000Y-51921603D01*
X97070235Y-51816133D01*
X97519746Y-51515779D01*
X97820100Y-51066268D01*
X97925570Y-50536033D01*
X97925570Y-49463967D01*
X97820100Y-48933732D01*
X97550000Y-48529499D01*
X97550000Y-47470501D01*
X97820100Y-47066268D01*
X97925570Y-46536033D01*
X97925570Y-45463967D01*
X97847337Y-45070661D01*
X122602758Y-45070661D01*
X122814990Y-45584303D01*
X123207630Y-45977629D01*
X123720900Y-46190757D01*
X124276661Y-46191242D01*
X124790303Y-45979010D01*
X125183629Y-45586370D01*
X125396757Y-45073100D01*
X125397242Y-44517339D01*
X125185010Y-44003697D01*
X124792370Y-43610371D01*
X124279100Y-43397243D01*
X123723339Y-43396758D01*
X123209697Y-43608990D01*
X122816371Y-44001630D01*
X122603243Y-44514900D01*
X122602758Y-45070661D01*
X97847337Y-45070661D01*
X97820100Y-44933732D01*
X97519746Y-44484221D01*
X97117984Y-44215772D01*
X100681915Y-40651841D01*
X100933732Y-40820100D01*
X101463967Y-40925570D01*
X102536033Y-40925570D01*
X103066268Y-40820100D01*
X103470501Y-40550000D01*
X121121844Y-40550000D01*
X121174705Y-40602861D01*
X121056339Y-40602758D01*
X120542697Y-40814990D01*
X120149371Y-41207630D01*
X119936243Y-41720900D01*
X119935758Y-42276661D01*
X120147990Y-42790303D01*
X120540630Y-43183629D01*
X121053900Y-43396757D01*
X121609661Y-43397242D01*
X122123303Y-43185010D01*
X122516629Y-42792370D01*
X122729757Y-42279100D01*
X122729863Y-42158019D01*
X123286022Y-42714178D01*
X123613690Y-42933118D01*
X124000200Y-43010000D01*
X125574304Y-43010000D01*
X125747630Y-43183629D01*
X126260900Y-43396757D01*
X126816661Y-43397242D01*
X127330303Y-43185010D01*
X127723629Y-42792370D01*
X127936757Y-42279100D01*
X127937242Y-41723339D01*
X127725010Y-41209697D01*
X127332370Y-40816371D01*
X127041297Y-40695507D01*
X127174757Y-40374100D01*
X127175242Y-39818339D01*
X126963010Y-39304697D01*
X126570370Y-38911371D01*
X126057100Y-38698243D01*
X125501339Y-38697758D01*
X125285867Y-38786789D01*
X125185010Y-38542697D01*
X124792370Y-38149371D01*
X124279100Y-37936243D01*
X123723339Y-37935758D01*
X123209697Y-38147990D01*
X122816371Y-38540630D01*
X122603243Y-39053900D01*
X122603138Y-39174582D01*
X122254378Y-38825822D01*
X121926710Y-38606882D01*
X121540200Y-38530000D01*
X103470501Y-38530000D01*
X103066268Y-38259900D01*
X102536033Y-38154430D01*
X101463967Y-38154430D01*
X100933732Y-38259900D01*
X100529499Y-38530000D01*
X100000200Y-38530000D01*
X99613690Y-38606882D01*
X99286022Y-38825822D01*
X99067082Y-39153490D01*
X99003399Y-39473645D01*
X92845570Y-45631474D01*
X92845570Y-45463967D01*
X92740100Y-44933732D01*
X92470000Y-44529499D01*
X92470000Y-40470501D01*
X92740100Y-40066268D01*
X92845570Y-39536033D01*
X92845570Y-38463967D01*
X92740100Y-37933732D01*
X92439746Y-37484221D01*
X91990235Y-37183867D01*
X91460000Y-37078397D01*
X90929765Y-37183867D01*
X90480254Y-37484221D01*
X90179900Y-37933732D01*
X90074430Y-38463967D01*
X90074430Y-39536033D01*
X90179900Y-40066268D01*
X90450000Y-40470501D01*
X90450000Y-44529499D01*
X90179900Y-44933732D01*
X90074430Y-45463967D01*
X90074430Y-46536033D01*
X90164729Y-46990000D01*
X89290900Y-46990000D01*
X88904389Y-47066882D01*
X88576722Y-47285822D01*
X85925570Y-49936974D01*
X85925570Y-49463967D01*
X85820100Y-48933732D01*
X85550000Y-48529499D01*
X85550000Y-47470501D01*
X85820100Y-47066268D01*
X85925570Y-46536033D01*
X85925570Y-45463967D01*
X85820100Y-44933732D01*
X85519746Y-44484221D01*
X85070235Y-44183867D01*
X84540000Y-44078397D01*
X84009765Y-44183867D01*
X83560254Y-44484221D01*
X83259900Y-44933732D01*
X83154430Y-45463967D01*
X83154430Y-46536033D01*
X83259900Y-47066268D01*
X83530000Y-47470501D01*
X83530000Y-48529499D01*
X83259900Y-48933732D01*
X83154430Y-49463967D01*
X83154430Y-50536033D01*
X83223307Y-50882300D01*
X80776693Y-50882300D01*
X80845570Y-50536033D01*
X80845570Y-49463967D01*
X80740100Y-48933732D01*
X80439746Y-48484221D01*
X79990235Y-48183867D01*
X79460000Y-48078397D01*
X78929765Y-48183867D01*
X78480254Y-48484221D01*
X78179900Y-48933732D01*
X78074430Y-49463967D01*
X78074430Y-50536033D01*
X78143307Y-50882300D01*
X75035656Y-50882300D01*
X71163356Y-47010000D01*
X78168708Y-47010000D01*
X78179900Y-47066268D01*
X78480254Y-47515779D01*
X78929765Y-47816133D01*
X79460000Y-47921603D01*
X79990235Y-47816133D01*
X80439746Y-47515779D01*
X80740100Y-47066268D01*
X80845570Y-46536033D01*
X80845570Y-45463967D01*
X80740100Y-44933732D01*
X80470000Y-44529499D01*
X80470000Y-40470501D01*
X80740100Y-40066268D01*
X80845570Y-39536033D01*
X80845570Y-38463967D01*
X80740100Y-37933732D01*
X80439746Y-37484221D01*
X79990235Y-37183867D01*
X79460000Y-37078397D01*
X78929765Y-37183867D01*
X78480254Y-37484221D01*
X78179900Y-37933732D01*
X78074430Y-38463967D01*
X78074430Y-39536033D01*
X78179900Y-40066268D01*
X78450000Y-40470501D01*
X78450000Y-44529499D01*
X78179900Y-44933732D01*
X78168708Y-44990000D01*
X63243300Y-44990000D01*
X62856790Y-45066882D01*
X62702142Y-45170214D01*
X62910678Y-44961678D01*
X63129618Y-44634011D01*
X63206500Y-44247500D01*
X63206500Y-41792514D01*
X63331303Y-41491956D01*
X63331697Y-41040425D01*
X63159267Y-40623114D01*
X62840265Y-40303555D01*
X62423256Y-40130397D01*
X61971725Y-40130003D01*
X61554414Y-40302433D01*
X61234855Y-40621435D01*
X61061697Y-41038444D01*
X61061303Y-41489975D01*
X61186500Y-41792974D01*
X61186500Y-43829144D01*
X57173289Y-47842355D01*
X56872514Y-47966633D01*
X56552955Y-48285635D01*
X56379797Y-48702644D01*
X56379403Y-49154175D01*
X56429451Y-49275300D01*
X51543656Y-49275300D01*
X48493131Y-46224775D01*
X50864803Y-46224775D01*
X51037233Y-46642086D01*
X51356235Y-46961645D01*
X51773244Y-47134803D01*
X52224775Y-47135197D01*
X52642086Y-46962767D01*
X52961645Y-46643765D01*
X53134803Y-46226756D01*
X53135197Y-45775225D01*
X52962767Y-45357914D01*
X52643765Y-45038355D01*
X52226756Y-44865197D01*
X51775225Y-44864803D01*
X51357914Y-45037233D01*
X51038355Y-45356235D01*
X50865197Y-45773244D01*
X50864803Y-46224775D01*
X48493131Y-46224775D01*
X46641040Y-44372684D01*
X46683345Y-44160000D01*
X46569271Y-43586511D01*
X46244415Y-43100330D01*
X45929634Y-42890000D01*
X46244415Y-42679670D01*
X46277603Y-42630000D01*
X58244944Y-42630000D01*
X58470355Y-42855411D01*
X58594633Y-43156186D01*
X58913635Y-43475745D01*
X59330644Y-43648903D01*
X59782175Y-43649297D01*
X60199486Y-43476867D01*
X60519045Y-43157865D01*
X60692203Y-42740856D01*
X60692597Y-42289325D01*
X60520167Y-41872014D01*
X60201165Y-41552455D01*
X59898385Y-41426729D01*
X59377478Y-40905822D01*
X59049810Y-40686882D01*
X58663300Y-40610000D01*
X46277603Y-40610000D01*
X46244415Y-40560330D01*
X45934931Y-40353539D01*
X46350732Y-39982036D01*
X46604709Y-39454791D01*
X46607358Y-39439026D01*
X46495498Y-39224775D01*
X72864803Y-39224775D01*
X73037233Y-39642086D01*
X73356235Y-39961645D01*
X73773244Y-40134803D01*
X74224775Y-40135197D01*
X74642086Y-39962767D01*
X74961645Y-39643765D01*
X75134803Y-39226756D01*
X75135197Y-38775225D01*
X74962767Y-38357914D01*
X74643765Y-38038355D01*
X74226756Y-37865197D01*
X73775225Y-37864803D01*
X73357914Y-38037233D01*
X73038355Y-38356235D01*
X72865197Y-38773244D01*
X72864803Y-39224775D01*
X46495498Y-39224775D01*
X46486217Y-39207000D01*
X45127000Y-39207000D01*
X45127000Y-39227000D01*
X44873000Y-39227000D01*
X44873000Y-39207000D01*
X43513783Y-39207000D01*
X43392642Y-39439026D01*
X43395291Y-39454791D01*
X43649268Y-39982036D01*
X44065069Y-40353539D01*
X43755585Y-40560330D01*
X43430729Y-41046511D01*
X43316655Y-41620000D01*
X42529000Y-41620000D01*
X42529000Y-36540000D01*
X43316655Y-36540000D01*
X43430729Y-37113489D01*
X43755585Y-37599670D01*
X44065069Y-37806461D01*
X43649268Y-38177964D01*
X43395291Y-38705209D01*
X43392642Y-38720974D01*
X43513783Y-38953000D01*
X44873000Y-38953000D01*
X44873000Y-38933000D01*
X45127000Y-38933000D01*
X45127000Y-38953000D01*
X46486217Y-38953000D01*
X46607358Y-38720974D01*
X46604709Y-38705209D01*
X46350732Y-38177964D01*
X45934931Y-37806461D01*
X46244415Y-37599670D01*
X46494912Y-37224775D01*
X66864803Y-37224775D01*
X67037233Y-37642086D01*
X67356235Y-37961645D01*
X67773244Y-38134803D01*
X68224775Y-38135197D01*
X68642086Y-37962767D01*
X68961645Y-37643765D01*
X69134803Y-37226756D01*
X69135197Y-36775225D01*
X68962767Y-36357914D01*
X68643765Y-36038355D01*
X68226756Y-35865197D01*
X67775225Y-35864803D01*
X67357914Y-36037233D01*
X67038355Y-36356235D01*
X66865197Y-36773244D01*
X66864803Y-37224775D01*
X46494912Y-37224775D01*
X46569271Y-37113489D01*
X46683345Y-36540000D01*
X46569271Y-35966511D01*
X46244415Y-35480330D01*
X46230087Y-35470757D01*
X46251317Y-35466762D01*
X46467441Y-35327690D01*
X46612431Y-35115490D01*
X46663440Y-34863600D01*
X46663440Y-34463967D01*
X78074430Y-34463967D01*
X78074430Y-35536033D01*
X78179900Y-36066268D01*
X78480254Y-36515779D01*
X78929765Y-36816133D01*
X79460000Y-36921603D01*
X79990235Y-36816133D01*
X80439746Y-36515779D01*
X80740100Y-36066268D01*
X80751292Y-36010000D01*
X80960600Y-36010000D01*
X81347110Y-35933118D01*
X81674778Y-35714178D01*
X83211401Y-34177555D01*
X83154430Y-34463967D01*
X83154430Y-35536033D01*
X83259900Y-36066268D01*
X83530000Y-36470501D01*
X83530000Y-37529499D01*
X83259900Y-37933732D01*
X83154430Y-38463967D01*
X83154430Y-39536033D01*
X83259900Y-40066268D01*
X83560254Y-40515779D01*
X84009765Y-40816133D01*
X84540000Y-40921603D01*
X85070235Y-40816133D01*
X85519746Y-40515779D01*
X85820100Y-40066268D01*
X85925570Y-39536033D01*
X85925570Y-38463967D01*
X85820100Y-37933732D01*
X85550000Y-37529499D01*
X85550000Y-36470501D01*
X85820100Y-36066268D01*
X85925570Y-35536033D01*
X85925570Y-34463967D01*
X85858245Y-34125500D01*
X87656544Y-34125500D01*
X89245222Y-35714178D01*
X89572889Y-35933118D01*
X89959400Y-36010000D01*
X90168708Y-36010000D01*
X90179900Y-36066268D01*
X90480254Y-36515779D01*
X90929765Y-36816133D01*
X91460000Y-36921603D01*
X91990235Y-36816133D01*
X92439746Y-36515779D01*
X92740100Y-36066268D01*
X92751292Y-36010000D01*
X92960600Y-36010000D01*
X93347110Y-35933118D01*
X93674778Y-35714178D01*
X95211401Y-34177555D01*
X95154430Y-34463967D01*
X95154430Y-35536033D01*
X95259900Y-36066268D01*
X95530000Y-36470501D01*
X95530000Y-37529499D01*
X95259900Y-37933732D01*
X95154430Y-38463967D01*
X95154430Y-39536033D01*
X95259900Y-40066268D01*
X95560254Y-40515779D01*
X96009765Y-40816133D01*
X96540000Y-40921603D01*
X97070235Y-40816133D01*
X97519746Y-40515779D01*
X97820100Y-40066268D01*
X97925570Y-39536033D01*
X97925570Y-38463967D01*
X97820100Y-37933732D01*
X97550000Y-37529499D01*
X97550000Y-36470501D01*
X97820100Y-36066268D01*
X97925570Y-35536033D01*
X97925570Y-34463967D01*
X97827195Y-33969400D01*
X100175983Y-33969400D01*
X100078397Y-34460000D01*
X100183867Y-34990235D01*
X100484221Y-35439746D01*
X100933732Y-35740100D01*
X101463967Y-35845570D01*
X102536033Y-35845570D01*
X103066268Y-35740100D01*
X103515779Y-35439746D01*
X103816133Y-34990235D01*
X103921603Y-34460000D01*
X103816133Y-33929765D01*
X103515779Y-33480254D01*
X103066268Y-33179900D01*
X103010000Y-33168708D01*
X103010000Y-32959400D01*
X102933118Y-32572890D01*
X102714178Y-32245222D01*
X102386510Y-32026282D01*
X102000000Y-31949400D01*
X95001200Y-31949400D01*
X94614690Y-32026282D01*
X94287022Y-32245222D01*
X92683388Y-33848856D01*
X92439746Y-33484221D01*
X91990235Y-33183867D01*
X91460000Y-33078397D01*
X90929765Y-33183867D01*
X90480254Y-33484221D01*
X90236612Y-33848856D01*
X88789078Y-32401322D01*
X88461410Y-32182382D01*
X88074900Y-32105500D01*
X82845100Y-32105500D01*
X82458589Y-32182382D01*
X82130922Y-32401322D01*
X80683388Y-33848856D01*
X80439746Y-33484221D01*
X79990235Y-33183867D01*
X79460000Y-33078397D01*
X78929765Y-33183867D01*
X78480254Y-33484221D01*
X78179900Y-33933732D01*
X78074430Y-34463967D01*
X46663440Y-34463967D01*
X46663440Y-33136400D01*
X46619162Y-32901083D01*
X46480090Y-32684959D01*
X46267890Y-32539969D01*
X46016000Y-32488960D01*
X43984000Y-32488960D01*
X43748683Y-32533238D01*
X43532559Y-32672310D01*
X43387569Y-32884510D01*
X43336560Y-33136400D01*
X43336560Y-34863600D01*
X43380838Y-35098917D01*
X43519910Y-35315041D01*
X43732110Y-35460031D01*
X43773439Y-35468400D01*
X43755585Y-35480330D01*
X43430729Y-35966511D01*
X43316655Y-36540000D01*
X42529000Y-36540000D01*
X42529000Y-31224775D01*
X53864803Y-31224775D01*
X54037233Y-31642086D01*
X54356235Y-31961645D01*
X54773244Y-32134803D01*
X55224775Y-32135197D01*
X55642086Y-31962767D01*
X55961645Y-31643765D01*
X56134803Y-31226756D01*
X56135197Y-30775225D01*
X55962767Y-30357914D01*
X55643765Y-30038355D01*
X55226756Y-29865197D01*
X54775225Y-29864803D01*
X54357914Y-30037233D01*
X54038355Y-30356235D01*
X53865197Y-30773244D01*
X53864803Y-31224775D01*
X42529000Y-31224775D01*
X42529000Y-29845000D01*
X138557000Y-29845000D01*
X138557000Y-54267000D01*
G36*
X66696344Y-49275300D02*
X61396356Y-49275300D01*
X63661656Y-47010000D01*
X68961644Y-47010000D01*
X66696344Y-49275300D01*
X66696344Y-49275300D01*
G37*
X66696344Y-49275300D02*
X61396356Y-49275300D01*
X63661656Y-47010000D01*
X68961644Y-47010000D01*
X66696344Y-49275300D01*
M02*
