G04 #@! TF.FileFunction,Copper,L1,Top,Signal*
%FSLAX46Y46*%
G04 Gerber Fmt 4.6, Leading zero omitted, Abs format (unit mm)*
G04 Created by KiCad (PCBNEW 4.0.4+dfsg1-stable) date Wed Feb 15 11:08:04 2017*
%MOMM*%
%LPD*%
G01*
G04 APERTURE LIST*
%ADD10C,0.100000*%
%ADD11R,0.800100X0.800100*%
%ADD12R,1.600000X1.000000*%
%ADD13R,1.000000X1.600000*%
%ADD14R,0.900000X1.700000*%
%ADD15R,1.700000X0.900000*%
%ADD16R,0.600000X1.550000*%
%ADD17O,1.501140X2.499360*%
%ADD18O,2.499360X1.501140*%
%ADD19C,1.524000*%
%ADD20R,2.032000X1.727200*%
%ADD21O,2.032000X1.727200*%
%ADD22C,1.000000*%
%ADD23C,0.750000*%
G04 APERTURE END LIST*
D10*
D11*
X60000760Y-34950000D03*
X60000760Y-33050000D03*
X58001780Y-34000000D03*
D12*
X55000000Y-39500000D03*
X55000000Y-42500000D03*
D13*
X70500000Y-49000000D03*
X67500000Y-49000000D03*
D12*
X52000000Y-33500000D03*
X52000000Y-36500000D03*
X64000000Y-49500000D03*
X64000000Y-46500000D03*
X74000000Y-44500000D03*
X74000000Y-41500000D03*
D14*
X60450000Y-40000000D03*
X57550000Y-40000000D03*
D15*
X64000000Y-38450000D03*
X64000000Y-35550000D03*
D16*
X57095000Y-50700000D03*
X58365000Y-50700000D03*
X59635000Y-50700000D03*
X60905000Y-50700000D03*
X60905000Y-45300000D03*
X59635000Y-45300000D03*
X58365000Y-45300000D03*
X57095000Y-45300000D03*
X67095000Y-45700000D03*
X68365000Y-45700000D03*
X69635000Y-45700000D03*
X70905000Y-45700000D03*
X70905000Y-40300000D03*
X69635000Y-40300000D03*
X68365000Y-40300000D03*
X67095000Y-40300000D03*
D11*
X70000760Y-34950000D03*
X70000760Y-33050000D03*
X68001780Y-34000000D03*
D17*
X79460000Y-35000000D03*
X84540000Y-35000000D03*
X84540000Y-50000000D03*
X79460000Y-50000000D03*
D18*
X102000000Y-34460000D03*
X102000000Y-39540000D03*
D17*
X91460000Y-35000000D03*
X96540000Y-35000000D03*
X96540000Y-50000000D03*
X91460000Y-50000000D03*
D19*
X121333000Y-42000000D03*
X124000000Y-44794000D03*
X126540000Y-42000000D03*
X124000000Y-39333000D03*
X125778000Y-40095000D03*
D12*
X55000000Y-33500000D03*
X55000000Y-36500000D03*
X54000000Y-46500000D03*
X54000000Y-49500000D03*
X64000000Y-41500000D03*
X64000000Y-44500000D03*
D20*
X45000000Y-34000000D03*
D21*
X45000000Y-36540000D03*
X45000000Y-39080000D03*
X45000000Y-41620000D03*
X45000000Y-44160000D03*
X45000000Y-46700000D03*
X45000000Y-49240000D03*
D15*
X49000000Y-42450000D03*
X49000000Y-39550000D03*
D12*
X52000000Y-39500000D03*
X52000000Y-42500000D03*
D17*
X84540000Y-39000000D03*
X79460000Y-39000000D03*
X79460000Y-46000000D03*
X84540000Y-46000000D03*
X96540000Y-39000000D03*
X91460000Y-39000000D03*
X91460000Y-46000000D03*
X96540000Y-46000000D03*
D22*
X52000000Y-46000000D03*
X68000000Y-37000000D03*
X55000000Y-31000000D03*
X48000000Y-34000000D03*
X64000000Y-52000000D03*
X71558000Y-44175000D03*
X61033700Y-52353700D03*
X62432900Y-49148100D03*
X52000000Y-34766300D03*
X70062500Y-47337500D03*
X62196500Y-41265200D03*
X57514600Y-48929400D03*
X74000000Y-39000000D03*
X68000000Y-52000000D03*
X59557400Y-42514100D03*
X60270000Y-48973300D03*
D23*
X54000000Y-46500000D02*
X52500000Y-46500000D01*
X52500000Y-46500000D02*
X52000000Y-46000000D01*
X68365000Y-41000000D02*
X68365000Y-37365000D01*
X68001780Y-36998220D02*
X68000000Y-37000000D01*
X68001780Y-36998220D02*
X68001780Y-34000000D01*
X68365000Y-37365000D02*
X68000000Y-37000000D01*
X55000000Y-33500000D02*
X55000000Y-31000000D01*
X45000000Y-34000000D02*
X48000000Y-34000000D01*
X65875000Y-41825000D02*
X68365000Y-41825000D01*
X65550000Y-41500000D02*
X65875000Y-41825000D01*
X64000000Y-41500000D02*
X65550000Y-41500000D01*
X68365000Y-40300000D02*
X68365000Y-41000000D01*
X68365000Y-41000000D02*
X68365000Y-41825000D01*
X54000000Y-46500000D02*
X54000000Y-47750000D01*
X56851700Y-33801700D02*
X56550000Y-33500000D01*
X56851700Y-34000000D02*
X56851700Y-33801700D01*
X58001800Y-34000000D02*
X56851700Y-34000000D01*
X58365000Y-45300000D02*
X58365000Y-46825000D01*
X55000000Y-33500000D02*
X56237600Y-33500000D01*
X56237600Y-33500000D02*
X56425400Y-33500000D01*
X56425400Y-33500000D02*
X56550000Y-33500000D01*
X57440000Y-47750000D02*
X54000000Y-47750000D01*
X58365000Y-46825000D02*
X57440000Y-47750000D01*
X64000000Y-49500000D02*
X64000000Y-52000000D01*
X60905000Y-50700000D02*
X60905000Y-52225000D01*
X61033700Y-52353700D02*
X60905000Y-52225000D01*
X70905000Y-45700000D02*
X70905000Y-44175000D01*
X70905000Y-44175000D02*
X71558000Y-44175000D01*
X72125000Y-44175000D02*
X72450000Y-44500000D01*
X71558000Y-44175000D02*
X72125000Y-44175000D01*
X74000000Y-44500000D02*
X72450000Y-44500000D01*
X62450000Y-49165200D02*
X62450000Y-49500000D01*
X62432900Y-49148100D02*
X62450000Y-49165200D01*
X64000000Y-49500000D02*
X62450000Y-49500000D01*
X52000000Y-34766300D02*
X52000000Y-33500000D01*
X69979600Y-47337500D02*
X69635000Y-46992900D01*
X70062500Y-47337500D02*
X69979600Y-47337500D01*
X69635000Y-45700000D02*
X69635000Y-46992900D01*
X57050000Y-40000000D02*
X56550000Y-39500000D01*
X57550000Y-40000000D02*
X57050000Y-40000000D01*
X55000000Y-39500000D02*
X56550000Y-39500000D01*
X52000000Y-39500000D02*
X55000000Y-39500000D01*
X55025000Y-43775000D02*
X55000000Y-43750000D01*
X59635000Y-43775000D02*
X55025000Y-43775000D01*
X59635000Y-45300000D02*
X59635000Y-43775000D01*
X55000000Y-42500000D02*
X55000000Y-43750000D01*
X52000000Y-42500000D02*
X55000000Y-42500000D01*
X59027200Y-37073600D02*
X60000800Y-36100000D01*
X59027200Y-40753800D02*
X59027200Y-37073600D01*
X57281000Y-42500000D02*
X59027200Y-40753800D01*
X55000000Y-42500000D02*
X57281000Y-42500000D01*
X60000800Y-34950000D02*
X60000800Y-36100000D01*
X72750000Y-48000000D02*
X71750000Y-49000000D01*
X87959400Y-48000000D02*
X72750000Y-48000000D01*
X89959400Y-46000000D02*
X87959400Y-48000000D01*
X91460000Y-46000000D02*
X89959400Y-46000000D01*
X70500000Y-49000000D02*
X71750000Y-49000000D01*
X69250000Y-48163700D02*
X69250000Y-49000000D01*
X68365000Y-47278700D02*
X69250000Y-48163700D01*
X68365000Y-45700000D02*
X68365000Y-47278700D01*
X70500000Y-49000000D02*
X69250000Y-49000000D01*
X62400000Y-39250000D02*
X61650000Y-40000000D01*
X62400000Y-38450000D02*
X62400000Y-39250000D01*
X64000000Y-38450000D02*
X62400000Y-38450000D01*
X60450000Y-40000000D02*
X61050000Y-40000000D01*
X61050000Y-40000000D02*
X61650000Y-40000000D01*
X57760200Y-49175000D02*
X58365000Y-49175000D01*
X57514600Y-48929400D02*
X57760200Y-49175000D01*
X58365000Y-50700000D02*
X58365000Y-49175000D01*
X62196500Y-41146500D02*
X62196500Y-41265200D01*
X61050000Y-40000000D02*
X62196500Y-41146500D01*
X69635000Y-36465800D02*
X70000800Y-36100000D01*
X69635000Y-40300000D02*
X69635000Y-36465800D01*
X70000800Y-34950000D02*
X70000800Y-36100000D01*
X76009400Y-33050000D02*
X70000800Y-33050000D01*
X77959400Y-35000000D02*
X76009400Y-33050000D01*
X79460000Y-35000000D02*
X77959400Y-35000000D01*
X60000800Y-33050000D02*
X61150800Y-33050000D01*
X63176600Y-31024200D02*
X61150800Y-33050000D01*
X113676900Y-31024200D02*
X63176600Y-31024200D01*
X123419300Y-40766600D02*
X113676900Y-31024200D01*
X125106400Y-40766600D02*
X123419300Y-40766600D01*
X125778000Y-40095000D02*
X125106400Y-40766600D01*
X111357500Y-32024500D02*
X121333000Y-42000000D01*
X68245700Y-32024500D02*
X111357500Y-32024500D01*
X65600000Y-34670200D02*
X68245700Y-32024500D01*
X65600000Y-35550000D02*
X65600000Y-34670200D01*
X64000000Y-35550000D02*
X65600000Y-35550000D01*
X74000000Y-41500000D02*
X74000000Y-39000000D01*
X67500000Y-49000000D02*
X67500000Y-50500000D01*
X67500000Y-50500000D02*
X68000000Y-52000000D01*
X52190000Y-49240000D02*
X52450000Y-49500000D01*
X45000000Y-49240000D02*
X52190000Y-49240000D01*
X54000000Y-49500000D02*
X52450000Y-49500000D01*
X52000000Y-36500000D02*
X55000000Y-36500000D01*
X64000000Y-46500000D02*
X64000000Y-44500000D01*
X65000000Y-47750000D02*
X64000000Y-47750000D01*
X66250000Y-49000000D02*
X65000000Y-47750000D01*
X67500000Y-49000000D02*
X66250000Y-49000000D01*
X64000000Y-46500000D02*
X64000000Y-47750000D01*
X52000000Y-36500000D02*
X50450000Y-36500000D01*
X49000000Y-39550000D02*
X49000000Y-38350000D01*
X47590000Y-36540000D02*
X49000000Y-37950000D01*
X45000000Y-36540000D02*
X47590000Y-36540000D01*
X50450000Y-36500000D02*
X49000000Y-37950000D01*
X49000000Y-37950000D02*
X49000000Y-38350000D01*
X46766000Y-41816000D02*
X47400000Y-42450000D01*
X46766000Y-41620000D02*
X46766000Y-41816000D01*
X49000000Y-42450000D02*
X47400000Y-42450000D01*
X45000000Y-41620000D02*
X46766000Y-41620000D01*
X121066800Y-44794000D02*
X124000000Y-44794000D01*
X119121500Y-42848700D02*
X121066800Y-44794000D01*
X60858700Y-42848700D02*
X119121500Y-42848700D01*
X60524100Y-42514100D02*
X60858700Y-42848700D01*
X59557400Y-42514100D02*
X60524100Y-42514100D01*
X60068300Y-49175000D02*
X59635000Y-49175000D01*
X60270000Y-48973300D02*
X60068300Y-49175000D01*
X59635000Y-50700000D02*
X59635000Y-49175000D01*
M02*
