G04 #@! TF.FileFunction,Copper,L1,Top,Signal*
%FSLAX46Y46*%
G04 Gerber Fmt 4.6, Leading zero omitted, Abs format (unit mm)*
G04 Created by KiCad (PCBNEW 4.0.4+dfsg1-stable) date Fri Dec 30 12:22:18 2016*
%MOMM*%
%LPD*%
G01*
G04 APERTURE LIST*
%ADD10C,0.100000*%
%ADD11C,0.300000*%
%ADD12R,1.300480X1.699260*%
%ADD13R,1.550000X0.600000*%
%ADD14R,2.032000X1.727200*%
%ADD15O,2.032000X1.727200*%
%ADD16R,1.600000X1.000000*%
%ADD17R,1.700000X0.900000*%
%ADD18R,0.900000X1.700000*%
%ADD19R,1.000000X1.600000*%
%ADD20C,1.699260*%
%ADD21R,1.699260X1.699260*%
%ADD22R,0.508000X1.143000*%
%ADD23R,1.699260X1.300480*%
%ADD24C,1.524000*%
%ADD25O,2.499360X1.501140*%
%ADD26R,0.800100X0.800100*%
%ADD27C,1.750000*%
%ADD28C,0.750000*%
G04 APERTURE END LIST*
D10*
D11*
X160329715Y-137267143D02*
X161472572Y-137267143D01*
X161972572Y-136338571D02*
X162472572Y-137838571D01*
X162972572Y-136338571D01*
X159821715Y-123043143D02*
X160964572Y-123043143D01*
X160393143Y-123614571D02*
X160393143Y-122471714D01*
X161464572Y-122114571D02*
X161964572Y-123614571D01*
X162464572Y-122114571D01*
X160615429Y-102215143D02*
X161758286Y-102215143D01*
X162472572Y-102786571D02*
X162472572Y-101286571D01*
X160615429Y-87991143D02*
X161758286Y-87991143D01*
X161186857Y-88562571D02*
X161186857Y-87419714D01*
X162472572Y-88562571D02*
X162472572Y-87062571D01*
X110565715Y-105858571D02*
X111065715Y-107358571D01*
X111565715Y-105858571D01*
X111708572Y-107501429D02*
X112851429Y-107501429D01*
X113708572Y-106572857D02*
X113208572Y-106572857D01*
X113208572Y-107358571D02*
X113208572Y-105858571D01*
X113922858Y-105858571D01*
X114994286Y-106572857D02*
X115208572Y-106644286D01*
X115280000Y-106715714D01*
X115351429Y-106858571D01*
X115351429Y-107072857D01*
X115280000Y-107215714D01*
X115208572Y-107287143D01*
X115065714Y-107358571D01*
X114494286Y-107358571D01*
X114494286Y-105858571D01*
X114994286Y-105858571D01*
X115137143Y-105930000D01*
X115208572Y-106001429D01*
X115280000Y-106144286D01*
X115280000Y-106287143D01*
X115208572Y-106430000D01*
X115137143Y-106501429D01*
X114994286Y-106572857D01*
X114494286Y-106572857D01*
X109002143Y-103318571D02*
X109502143Y-104818571D01*
X110002143Y-103318571D01*
X110502143Y-104247143D02*
X111645000Y-104247143D01*
X112287857Y-104747143D02*
X112502143Y-104818571D01*
X112859286Y-104818571D01*
X113002143Y-104747143D01*
X113073572Y-104675714D01*
X113145000Y-104532857D01*
X113145000Y-104390000D01*
X113073572Y-104247143D01*
X113002143Y-104175714D01*
X112859286Y-104104286D01*
X112573572Y-104032857D01*
X112430714Y-103961429D01*
X112359286Y-103890000D01*
X112287857Y-103747143D01*
X112287857Y-103604286D01*
X112359286Y-103461429D01*
X112430714Y-103390000D01*
X112573572Y-103318571D01*
X112930714Y-103318571D01*
X113145000Y-103390000D01*
X113787857Y-104032857D02*
X114287857Y-104032857D01*
X114502143Y-104818571D02*
X113787857Y-104818571D01*
X113787857Y-103318571D01*
X114502143Y-103318571D01*
X114930714Y-103318571D02*
X115787857Y-103318571D01*
X115359286Y-104818571D02*
X115359286Y-103318571D01*
X112292000Y-93158571D02*
X112577714Y-93158571D01*
X112720572Y-93230000D01*
X112863429Y-93372857D01*
X112934857Y-93658571D01*
X112934857Y-94158571D01*
X112863429Y-94444286D01*
X112720572Y-94587143D01*
X112577714Y-94658571D01*
X112292000Y-94658571D01*
X112149143Y-94587143D01*
X112006286Y-94444286D01*
X111934857Y-94158571D01*
X111934857Y-93658571D01*
X112006286Y-93372857D01*
X112149143Y-93230000D01*
X112292000Y-93158571D01*
X113577715Y-93158571D02*
X113577715Y-94372857D01*
X113649143Y-94515714D01*
X113720572Y-94587143D01*
X113863429Y-94658571D01*
X114149143Y-94658571D01*
X114292001Y-94587143D01*
X114363429Y-94515714D01*
X114434858Y-94372857D01*
X114434858Y-93158571D01*
X114934858Y-93158571D02*
X115792001Y-93158571D01*
X115363430Y-94658571D02*
X115363430Y-93158571D01*
X110708572Y-102278571D02*
X110708572Y-100778571D01*
X111422858Y-101707143D02*
X112565715Y-101707143D01*
X113780001Y-101492857D02*
X113280001Y-101492857D01*
X113280001Y-102278571D02*
X113280001Y-100778571D01*
X113994287Y-100778571D01*
X115065715Y-101492857D02*
X115280001Y-101564286D01*
X115351429Y-101635714D01*
X115422858Y-101778571D01*
X115422858Y-101992857D01*
X115351429Y-102135714D01*
X115280001Y-102207143D01*
X115137143Y-102278571D01*
X114565715Y-102278571D01*
X114565715Y-100778571D01*
X115065715Y-100778571D01*
X115208572Y-100850000D01*
X115280001Y-100921429D01*
X115351429Y-101064286D01*
X115351429Y-101207143D01*
X115280001Y-101350000D01*
X115208572Y-101421429D01*
X115065715Y-101492857D01*
X114565715Y-101492857D01*
X109502143Y-99738571D02*
X109502143Y-98238571D01*
X110216429Y-99167143D02*
X111359286Y-99167143D01*
X112002143Y-99667143D02*
X112216429Y-99738571D01*
X112573572Y-99738571D01*
X112716429Y-99667143D01*
X112787858Y-99595714D01*
X112859286Y-99452857D01*
X112859286Y-99310000D01*
X112787858Y-99167143D01*
X112716429Y-99095714D01*
X112573572Y-99024286D01*
X112287858Y-98952857D01*
X112145000Y-98881429D01*
X112073572Y-98810000D01*
X112002143Y-98667143D01*
X112002143Y-98524286D01*
X112073572Y-98381429D01*
X112145000Y-98310000D01*
X112287858Y-98238571D01*
X112645000Y-98238571D01*
X112859286Y-98310000D01*
X113502143Y-98952857D02*
X114002143Y-98952857D01*
X114216429Y-99738571D02*
X113502143Y-99738571D01*
X113502143Y-98238571D01*
X114216429Y-98238571D01*
X114645000Y-98238571D02*
X115502143Y-98238571D01*
X115073572Y-99738571D02*
X115073572Y-98238571D01*
X112934858Y-97198571D02*
X112434858Y-96484286D01*
X112077715Y-97198571D02*
X112077715Y-95698571D01*
X112649143Y-95698571D01*
X112792001Y-95770000D01*
X112863429Y-95841429D01*
X112934858Y-95984286D01*
X112934858Y-96198571D01*
X112863429Y-96341429D01*
X112792001Y-96412857D01*
X112649143Y-96484286D01*
X112077715Y-96484286D01*
X113577715Y-96412857D02*
X114077715Y-96412857D01*
X114292001Y-97198571D02*
X113577715Y-97198571D01*
X113577715Y-95698571D01*
X114292001Y-95698571D01*
X115434858Y-96412857D02*
X114934858Y-96412857D01*
X114934858Y-97198571D02*
X114934858Y-95698571D01*
X115649144Y-95698571D01*
X112522143Y-90690000D02*
X112379286Y-90618571D01*
X112165000Y-90618571D01*
X111950715Y-90690000D01*
X111807857Y-90832857D01*
X111736429Y-90975714D01*
X111665000Y-91261429D01*
X111665000Y-91475714D01*
X111736429Y-91761429D01*
X111807857Y-91904286D01*
X111950715Y-92047143D01*
X112165000Y-92118571D01*
X112307857Y-92118571D01*
X112522143Y-92047143D01*
X112593572Y-91975714D01*
X112593572Y-91475714D01*
X112307857Y-91475714D01*
X113236429Y-92118571D02*
X113236429Y-90618571D01*
X114093572Y-92118571D01*
X114093572Y-90618571D01*
X114807858Y-92118571D02*
X114807858Y-90618571D01*
X115165001Y-90618571D01*
X115379286Y-90690000D01*
X115522144Y-90832857D01*
X115593572Y-90975714D01*
X115665001Y-91261429D01*
X115665001Y-91475714D01*
X115593572Y-91761429D01*
X115522144Y-91904286D01*
X115379286Y-92047143D01*
X115165001Y-92118571D01*
X114807858Y-92118571D01*
X111772143Y-89007143D02*
X112915000Y-89007143D01*
X113415000Y-88078571D02*
X113915000Y-89578571D01*
X114415000Y-88078571D01*
X114915000Y-88792857D02*
X115415000Y-88792857D01*
X115629286Y-89578571D02*
X114915000Y-89578571D01*
X114915000Y-88078571D01*
X115629286Y-88078571D01*
X111772143Y-86467143D02*
X112915000Y-86467143D01*
X112343571Y-87038571D02*
X112343571Y-85895714D01*
X113415000Y-85538571D02*
X113915000Y-87038571D01*
X114415000Y-85538571D01*
X114915000Y-86252857D02*
X115415000Y-86252857D01*
X115629286Y-87038571D02*
X114915000Y-87038571D01*
X114915000Y-85538571D01*
X115629286Y-85538571D01*
D12*
X163802060Y-90805000D03*
X160301940Y-90805000D03*
D13*
X151732000Y-88265000D03*
X151732000Y-89535000D03*
X151732000Y-90805000D03*
X151732000Y-92075000D03*
X157132000Y-92075000D03*
X157132000Y-90805000D03*
X157132000Y-89535000D03*
X157132000Y-88265000D03*
D12*
X160301940Y-104648000D03*
X163802060Y-104648000D03*
D14*
X118110000Y-86360000D03*
D15*
X118110000Y-88900000D03*
X118110000Y-91440000D03*
X118110000Y-93980000D03*
X118110000Y-96520000D03*
X118110000Y-99060000D03*
X118110000Y-101600000D03*
X118110000Y-104140000D03*
X118110000Y-106680000D03*
X118110000Y-109220000D03*
X118110000Y-111760000D03*
X118110000Y-114300000D03*
D13*
X133190000Y-104775000D03*
X133190000Y-106045000D03*
X133190000Y-107315000D03*
X133190000Y-108585000D03*
X138590000Y-108585000D03*
X138590000Y-107315000D03*
X138590000Y-106045000D03*
X138590000Y-104775000D03*
X151732000Y-102235000D03*
X151732000Y-103505000D03*
X151732000Y-104775000D03*
X151732000Y-106045000D03*
X157132000Y-106045000D03*
X157132000Y-104775000D03*
X157132000Y-103505000D03*
X157132000Y-102235000D03*
D12*
X163802060Y-125476000D03*
X160301940Y-125476000D03*
X160301940Y-139700000D03*
X163802060Y-139700000D03*
D13*
X133190000Y-130175000D03*
X133190000Y-131445000D03*
X133190000Y-132715000D03*
X133190000Y-133985000D03*
X138590000Y-133985000D03*
X138590000Y-132715000D03*
X138590000Y-131445000D03*
X138590000Y-130175000D03*
X151732000Y-123190000D03*
X151732000Y-124460000D03*
X151732000Y-125730000D03*
X151732000Y-127000000D03*
X157132000Y-127000000D03*
X157132000Y-125730000D03*
X157132000Y-124460000D03*
X157132000Y-123190000D03*
X151732000Y-137287000D03*
X151732000Y-138557000D03*
X151732000Y-139827000D03*
X151732000Y-141097000D03*
X157132000Y-141097000D03*
X157132000Y-139827000D03*
X157132000Y-138557000D03*
X157132000Y-137287000D03*
D16*
X151892000Y-94512000D03*
X151892000Y-97512000D03*
X155448000Y-94512000D03*
X155448000Y-97512000D03*
X137160000Y-111530000D03*
X137160000Y-114530000D03*
X151892000Y-108736000D03*
X151892000Y-111736000D03*
X155448000Y-108736000D03*
X155448000Y-111736000D03*
X133350000Y-111530000D03*
X133350000Y-114530000D03*
X155448000Y-129564000D03*
X155448000Y-132564000D03*
X151892000Y-129564000D03*
X151892000Y-132564000D03*
X155448000Y-143788000D03*
X155448000Y-146788000D03*
X133350000Y-136930000D03*
X133350000Y-139930000D03*
X137160000Y-136930000D03*
X137160000Y-139930000D03*
X151892000Y-143788000D03*
X151892000Y-146788000D03*
D17*
X129032000Y-101526000D03*
X129032000Y-98626000D03*
D18*
X136578000Y-102108000D03*
X133678000Y-102108000D03*
X146230000Y-92075000D03*
X143330000Y-92075000D03*
X146230000Y-88265000D03*
X143330000Y-88265000D03*
X146230000Y-103124000D03*
X143330000Y-103124000D03*
X146230000Y-107188000D03*
X143330000Y-107188000D03*
X125402000Y-96520000D03*
X122502000Y-96520000D03*
D17*
X124079000Y-125910000D03*
X124079000Y-123010000D03*
D18*
X136070000Y-127000000D03*
X133170000Y-127000000D03*
X146230000Y-127508000D03*
X143330000Y-127508000D03*
X146230000Y-122936000D03*
X143330000Y-122936000D03*
X146230000Y-135636000D03*
X143330000Y-135636000D03*
X146230000Y-139700000D03*
X143330000Y-139700000D03*
D17*
X125984000Y-88826000D03*
X125984000Y-85926000D03*
D19*
X114705000Y-55880000D03*
X117705000Y-55880000D03*
D16*
X132715000Y-64540000D03*
X132715000Y-67540000D03*
D19*
X117880000Y-74930000D03*
X120880000Y-74930000D03*
X62000000Y-62230000D03*
X65000000Y-62230000D03*
X75335000Y-72390000D03*
X78335000Y-72390000D03*
X75335000Y-57150000D03*
X78335000Y-57150000D03*
X86765000Y-61595000D03*
X89765000Y-61595000D03*
X89940000Y-66675000D03*
X92940000Y-66675000D03*
X89940000Y-72390000D03*
X92940000Y-72390000D03*
X91845000Y-79375000D03*
X94845000Y-79375000D03*
X92480000Y-84455000D03*
X95480000Y-84455000D03*
X86765000Y-90170000D03*
X89765000Y-90170000D03*
D18*
X120470000Y-60960000D03*
X123370000Y-60960000D03*
D13*
X125890000Y-69215000D03*
X125890000Y-67945000D03*
X125890000Y-66675000D03*
X125890000Y-65405000D03*
X120490000Y-65405000D03*
X120490000Y-66675000D03*
X120490000Y-67945000D03*
X120490000Y-69215000D03*
D16*
X240030000Y-48665000D03*
X240030000Y-51665000D03*
X182880000Y-51205000D03*
X182880000Y-54205000D03*
X193040000Y-54205000D03*
X193040000Y-51205000D03*
X249555000Y-51665000D03*
X249555000Y-48665000D03*
D20*
X132717540Y-48895520D03*
D21*
X132717540Y-38735520D03*
D20*
X138427460Y-38734480D03*
D21*
X138427460Y-48894480D03*
D14*
X56515000Y-73660000D03*
D15*
X56515000Y-76200000D03*
X56515000Y-78740000D03*
X56515000Y-81280000D03*
X56515000Y-83820000D03*
X56515000Y-86360000D03*
X56515000Y-88900000D03*
X56515000Y-91440000D03*
X56515000Y-93980000D03*
X56515000Y-96520000D03*
X56515000Y-99060000D03*
X56515000Y-101600000D03*
X56515000Y-104140000D03*
X56515000Y-106680000D03*
X56515000Y-109220000D03*
D14*
X69215000Y-33020000D03*
D15*
X69215000Y-35560000D03*
X69215000Y-38100000D03*
D14*
X175895000Y-44450000D03*
D15*
X175895000Y-46990000D03*
X175895000Y-49530000D03*
X175895000Y-52070000D03*
X175895000Y-54610000D03*
X175895000Y-57150000D03*
D22*
X243205000Y-46990000D03*
X244475000Y-46990000D03*
X245745000Y-46990000D03*
X247015000Y-46990000D03*
X247015000Y-53340000D03*
X245745000Y-53340000D03*
X244475000Y-53340000D03*
X243205000Y-53340000D03*
D19*
X246610000Y-57150000D03*
X243610000Y-57150000D03*
D23*
X245745000Y-43660060D03*
X245745000Y-40159940D03*
D24*
X224927500Y-45607500D03*
X230927500Y-45607500D03*
X227927500Y-42607500D03*
X227927500Y-48607500D03*
X230052500Y-47732500D03*
X225802500Y-43482500D03*
X230052500Y-43482500D03*
X225802500Y-47732500D03*
D25*
X215265000Y-54610000D03*
X215265000Y-59690000D03*
D18*
X188775000Y-46355000D03*
X185875000Y-46355000D03*
D17*
X187325000Y-58240000D03*
X187325000Y-61140000D03*
X191135000Y-47170000D03*
X191135000Y-44270000D03*
D24*
X194310000Y-44450000D03*
X196850000Y-41910000D03*
X196850000Y-46990000D03*
D22*
X186055000Y-49530000D03*
X187325000Y-49530000D03*
X188595000Y-49530000D03*
X189865000Y-49530000D03*
X189865000Y-55880000D03*
X188595000Y-55880000D03*
X187325000Y-55880000D03*
X186055000Y-55880000D03*
D23*
X211455000Y-56034940D03*
X211455000Y-59535060D03*
D26*
X182610760Y-48575000D03*
X182610760Y-46675000D03*
X180611780Y-47625000D03*
D19*
X183745000Y-60325000D03*
X180745000Y-60325000D03*
D16*
X207645000Y-56285000D03*
X207645000Y-59285000D03*
D25*
X215265000Y-43815000D03*
X215265000Y-48895000D03*
X208280000Y-43815000D03*
X208280000Y-48895000D03*
X202565000Y-43815000D03*
X202565000Y-48895000D03*
X202565000Y-54610000D03*
X202565000Y-59690000D03*
D27*
X187325000Y-43815000D03*
X180975000Y-44450000D03*
X243205000Y-44450000D03*
X160020000Y-149352000D03*
X141732000Y-119380000D03*
X167640000Y-108712000D03*
X139192000Y-149352000D03*
X167640000Y-129540000D03*
X167767000Y-137795000D03*
X121920000Y-86360000D03*
X193675000Y-56515000D03*
X248920000Y-62230000D03*
X211455000Y-62230000D03*
X165608000Y-131572000D03*
X148844000Y-147320000D03*
X130810000Y-117348000D03*
X131572000Y-147320000D03*
X165862000Y-110236000D03*
X165862000Y-117475000D03*
X165862000Y-121920000D03*
X121920000Y-88900000D03*
X199390000Y-46990000D03*
X182880000Y-56515000D03*
X195580000Y-52705000D03*
X249555000Y-46355000D03*
X238125000Y-53340000D03*
X221615000Y-46355000D03*
X219710000Y-59690000D03*
X241300000Y-57150000D03*
X158496000Y-145288000D03*
X121920000Y-91440000D03*
X157988000Y-97536000D03*
X157988000Y-111760000D03*
X139700000Y-114300000D03*
X137160000Y-142240000D03*
X130175000Y-107315000D03*
X157988000Y-132588000D03*
X233045000Y-48260000D03*
X238760000Y-46355000D03*
X129540000Y-133350000D03*
X234950000Y-55245000D03*
X234950000Y-51435000D03*
X227965000Y-52070000D03*
X227965000Y-58420000D03*
X230505000Y-52070000D03*
X230505000Y-57150000D03*
D28*
X187325000Y-43815000D02*
X187325000Y-49530000D01*
X180975000Y-44450000D02*
X180975000Y-47261780D01*
X180975000Y-47261780D02*
X180611780Y-47625000D01*
X187325000Y-49530000D02*
X187325000Y-50800000D01*
X187325000Y-50800000D02*
X186920000Y-51205000D01*
X186920000Y-51205000D02*
X182880000Y-51205000D01*
X180611780Y-44813220D02*
X180975000Y-44450000D01*
X244475000Y-46990000D02*
X244475000Y-47800000D01*
X243610000Y-48665000D02*
X244475000Y-47800000D01*
X241705000Y-48665000D02*
X240665000Y-48665000D01*
X241705000Y-48665000D02*
X243610000Y-48665000D01*
X244475000Y-46990000D02*
X244475000Y-45720000D01*
X244475000Y-45720000D02*
X243205000Y-44450000D01*
X155448000Y-142748000D02*
X155448000Y-143788000D01*
X154940000Y-142240000D02*
X155448000Y-142748000D01*
X155448000Y-142748000D02*
X155956000Y-143256000D01*
X160020000Y-149352000D02*
X160020000Y-143764000D01*
X159512000Y-143256000D02*
X160020000Y-143764000D01*
X154940000Y-139192000D02*
X154940000Y-142240000D01*
X155575000Y-138557000D02*
X157132000Y-138557000D01*
X155575000Y-138557000D02*
X154940000Y-139192000D01*
X155956000Y-143256000D02*
X159512000Y-143256000D01*
X140740000Y-111530000D02*
X141605000Y-112395000D01*
X141605000Y-112395000D02*
X141605000Y-119380000D01*
X137160000Y-111530000D02*
X140740000Y-111530000D01*
X141605000Y-119380000D02*
X141732000Y-119380000D01*
X139065000Y-138049000D02*
X139065000Y-149225000D01*
X139065000Y-149225000D02*
X139192000Y-149352000D01*
X137160000Y-136930000D02*
X137946000Y-136930000D01*
X137946000Y-136930000D02*
X139065000Y-138049000D01*
X138590000Y-131445000D02*
X137287000Y-131445000D01*
X136652000Y-136422000D02*
X137160000Y-136930000D01*
X136652000Y-132080000D02*
X136652000Y-136422000D01*
X137287000Y-131445000D02*
X136652000Y-132080000D01*
X155448000Y-129564000D02*
X167616000Y-129564000D01*
X167616000Y-129564000D02*
X167640000Y-129540000D01*
X155448000Y-108736000D02*
X167640000Y-108712000D01*
X121920000Y-86360000D02*
X118110000Y-86360000D01*
X154940000Y-124968000D02*
X154940000Y-129564000D01*
X154940000Y-129564000D02*
X155448000Y-129564000D01*
X156083000Y-103505000D02*
X155067000Y-104521000D01*
X157132000Y-103505000D02*
X156083000Y-103505000D01*
X155067000Y-104521000D02*
X155067000Y-108990000D01*
X157132000Y-124460000D02*
X155448000Y-124460000D01*
X155448000Y-124460000D02*
X154940000Y-124968000D01*
X155448000Y-129564000D02*
X155853000Y-129564000D01*
X137160000Y-111530000D02*
X137565000Y-111530000D01*
X137160000Y-111530000D02*
X137160000Y-111760000D01*
X137160000Y-111760000D02*
X135890000Y-110490000D01*
X138590000Y-106045000D02*
X136525000Y-106045000D01*
X135890000Y-110490000D02*
X137160000Y-111760000D01*
X135890000Y-106680000D02*
X135890000Y-110490000D01*
X136525000Y-106045000D02*
X135890000Y-106680000D01*
X165862000Y-96012000D02*
X165100000Y-96012000D01*
X165100000Y-96012000D02*
X153162000Y-96012000D01*
X153162000Y-96012000D02*
X151892000Y-94742000D01*
X151892000Y-94512000D02*
X151892000Y-94742000D01*
X193675000Y-56515000D02*
X193675000Y-54205000D01*
X248920000Y-53340000D02*
X248920000Y-62230000D01*
X247015000Y-53340000D02*
X248920000Y-53340000D01*
X249555000Y-52705000D02*
X249555000Y-51665000D01*
X248920000Y-53340000D02*
X249555000Y-52705000D01*
X193675000Y-54205000D02*
X191540000Y-54205000D01*
X191540000Y-54205000D02*
X189865000Y-55880000D01*
X211455000Y-62230000D02*
X211455000Y-59535060D01*
X155086052Y-94150052D02*
X155448000Y-94512000D01*
X165100000Y-131064000D02*
X165608000Y-131572000D01*
X118110000Y-88900000D02*
X121920000Y-88900000D01*
X151892000Y-143788000D02*
X149836000Y-143788000D01*
X148844000Y-144780000D02*
X148844000Y-147320000D01*
X149836000Y-143788000D02*
X148844000Y-144780000D01*
X130810000Y-112395000D02*
X130810000Y-117348000D01*
X131675000Y-111530000D02*
X130810000Y-112395000D01*
X133350000Y-111530000D02*
X131675000Y-111530000D01*
X131572000Y-138684000D02*
X131572000Y-147320000D01*
X133326000Y-136930000D02*
X131572000Y-138684000D01*
X133350000Y-136930000D02*
X133326000Y-136930000D01*
X133190000Y-133985000D02*
X133190000Y-136770000D01*
X133190000Y-136770000D02*
X133350000Y-136930000D01*
X152908000Y-110236000D02*
X165862000Y-110236000D01*
X151892000Y-109220000D02*
X152908000Y-110236000D01*
X151892000Y-108736000D02*
X151892000Y-109220000D01*
X151732000Y-106045000D02*
X151732000Y-108576000D01*
X151732000Y-108576000D02*
X151892000Y-108736000D01*
X151732000Y-127000000D02*
X151732000Y-129404000D01*
X151732000Y-129404000D02*
X151892000Y-129564000D01*
X151892000Y-143788000D02*
X151892000Y-141257000D01*
X151892000Y-141257000D02*
X151732000Y-141097000D01*
X151892000Y-129540000D02*
X153416000Y-131064000D01*
X153416000Y-131064000D02*
X165100000Y-131064000D01*
X165100000Y-131064000D02*
X165862000Y-131064000D01*
X151892000Y-129437000D02*
X151892000Y-129540000D01*
X133350000Y-111530000D02*
X132945000Y-111530000D01*
X165862000Y-121920000D02*
X165862000Y-117475000D01*
X151892000Y-106205000D02*
X151732000Y-106045000D01*
X151732000Y-92075000D02*
X151732000Y-94352000D01*
X151962000Y-143858000D02*
X151892000Y-143788000D01*
X133190000Y-108585000D02*
X133190000Y-111370000D01*
X133190000Y-111370000D02*
X133350000Y-111530000D01*
X133190000Y-136770000D02*
X133350000Y-136930000D01*
X133350000Y-134145000D02*
X133190000Y-133985000D01*
X157132000Y-104775000D02*
X160301940Y-104648000D01*
X202565000Y-59690000D02*
X207240000Y-59690000D01*
X207240000Y-59690000D02*
X207645000Y-59285000D01*
X196850000Y-46990000D02*
X199390000Y-46990000D01*
X182880000Y-54205000D02*
X182880000Y-56515000D01*
X193675000Y-51205000D02*
X195350000Y-51205000D01*
X195350000Y-51205000D02*
X195580000Y-52705000D01*
X249555000Y-48665000D02*
X249555000Y-46355000D01*
X240030000Y-51665000D02*
X238125000Y-53340000D01*
X224927500Y-46242500D02*
X221727500Y-46242500D01*
X221727500Y-46242500D02*
X221615000Y-46355000D01*
X219710000Y-59690000D02*
X215265000Y-59690000D01*
X243610000Y-57150000D02*
X241300000Y-57150000D01*
X151892000Y-132564000D02*
X155448000Y-132564000D01*
X155448000Y-146788000D02*
X156996000Y-146788000D01*
X156996000Y-146788000D02*
X158496000Y-145288000D01*
X121920000Y-91440000D02*
X118872000Y-91440000D01*
X155448000Y-97512000D02*
X157964000Y-97512000D01*
X157964000Y-97512000D02*
X157988000Y-97536000D01*
X155067000Y-111990000D02*
X157758000Y-111990000D01*
X157758000Y-111990000D02*
X157988000Y-111760000D01*
X151892000Y-146788000D02*
X155448000Y-146788000D01*
X137160000Y-114530000D02*
X139470000Y-114530000D01*
X139470000Y-114530000D02*
X139700000Y-114300000D01*
X151892000Y-111990000D02*
X155067000Y-111990000D01*
X151892000Y-97512000D02*
X155448000Y-97512000D01*
X157988000Y-132588000D02*
X155345000Y-132461000D01*
X155345000Y-132461000D02*
X155448000Y-132564000D01*
X133350000Y-139930000D02*
X137160000Y-139930000D01*
X137160000Y-139930000D02*
X137160000Y-142240000D01*
X133350000Y-114530000D02*
X137160000Y-114530000D01*
X133190000Y-107315000D02*
X130175000Y-107315000D01*
X169672000Y-90932000D02*
X169672000Y-86868000D01*
X169672000Y-135128000D02*
X169672000Y-138684000D01*
X168656000Y-139700000D02*
X163802060Y-139700000D01*
X168656000Y-139700000D02*
X169672000Y-138684000D01*
X151732000Y-103505000D02*
X149733000Y-103505000D01*
X149860000Y-100076000D02*
X169672000Y-100076000D01*
X149352000Y-100584000D02*
X149860000Y-100076000D01*
X149352000Y-103124000D02*
X149352000Y-100584000D01*
X149733000Y-103505000D02*
X149352000Y-103124000D01*
X126492000Y-93980000D02*
X138176000Y-93980000D01*
X138176000Y-93980000D02*
X139192000Y-92964000D01*
X118110000Y-93980000D02*
X126492000Y-93980000D01*
X149781846Y-138097846D02*
X150241000Y-138557000D01*
X150241000Y-138557000D02*
X151732000Y-138557000D01*
X149781846Y-135518769D02*
X149781846Y-138097846D01*
X169672000Y-135128000D02*
X150368000Y-135128000D01*
X150368000Y-135128000D02*
X149781846Y-135518769D01*
X163802060Y-90805000D02*
X169672000Y-90805000D01*
X169672000Y-90805000D02*
X169672000Y-90932000D01*
X169672000Y-125476000D02*
X169672000Y-135128000D01*
X169672000Y-90932000D02*
X169672000Y-100076000D01*
X169672000Y-100076000D02*
X169672000Y-104648000D01*
X160047940Y-125730000D02*
X160301940Y-125476000D01*
X151732000Y-139827000D02*
X146357000Y-139827000D01*
X146357000Y-139827000D02*
X146230000Y-139700000D01*
X146230000Y-139700000D02*
X146050000Y-139880000D01*
X146050000Y-139880000D02*
X146230000Y-139880000D01*
X168402000Y-85852000D02*
X168656000Y-85852000D01*
X168656000Y-85852000D02*
X169672000Y-86868000D01*
X168402000Y-85852000D02*
X149352000Y-85852000D01*
X149352000Y-85852000D02*
X148844000Y-85852000D01*
X139192000Y-87376000D02*
X140716000Y-85852000D01*
X139192000Y-92964000D02*
X139192000Y-87376000D01*
X140716000Y-85852000D02*
X148844000Y-85852000D01*
X148844000Y-85852000D02*
X149352000Y-85852000D01*
X169672000Y-104648000D02*
X169672000Y-125476000D01*
X149352000Y-85852000D02*
X149352000Y-88900000D01*
X149479000Y-89027000D02*
X149987000Y-89535000D01*
X202565000Y-43815000D02*
X202565000Y-41910000D01*
X208915000Y-41910000D02*
X209550000Y-41910000D01*
X208915000Y-41910000D02*
X203200000Y-41910000D01*
X203200000Y-41910000D02*
X202565000Y-41910000D01*
X202565000Y-41910000D02*
X196850000Y-41910000D01*
X238760000Y-40159940D02*
X238760000Y-46355000D01*
X233045000Y-46990000D02*
X231662500Y-45607500D01*
X233045000Y-48260000D02*
X233045000Y-46990000D01*
X238760000Y-40159940D02*
X238760000Y-40005000D01*
X238760000Y-40005000D02*
X238760000Y-40159940D01*
X245745000Y-40159940D02*
X238760000Y-40159940D01*
X238760000Y-40159940D02*
X224000060Y-40159940D01*
X222250000Y-41910000D02*
X215265000Y-41910000D01*
X224000060Y-40159940D02*
X222250000Y-41910000D01*
X208280000Y-43815000D02*
X208280000Y-41910000D01*
X208280000Y-41910000D02*
X208915000Y-41910000D01*
X209550000Y-41910000D02*
X215265000Y-41910000D01*
X215265000Y-41910000D02*
X215265000Y-42219880D01*
X215265000Y-42219880D02*
X215265000Y-43815000D01*
X196850000Y-41910000D02*
X180340000Y-41910000D01*
X180340000Y-41910000D02*
X178435000Y-43815000D01*
X178435000Y-43815000D02*
X178435000Y-50800000D01*
X178435000Y-50800000D02*
X177165000Y-52070000D01*
X177165000Y-52070000D02*
X175895000Y-52070000D01*
X231662500Y-45607500D02*
X230927500Y-45607500D01*
X230927500Y-46242500D02*
X230927500Y-45932500D01*
X208915000Y-43815000D02*
X207010000Y-43815000D01*
X196850000Y-42545000D02*
X196850000Y-41910000D01*
X125984000Y-86360000D02*
X125984000Y-85926000D01*
X118290000Y-96340000D02*
X118110000Y-96520000D01*
X129032000Y-98626000D02*
X129466000Y-98626000D01*
X129032000Y-98626000D02*
X118544000Y-98626000D01*
X118544000Y-98626000D02*
X118110000Y-99060000D01*
X118745000Y-99060000D02*
X118745000Y-98425000D01*
X143203000Y-107315000D02*
X143330000Y-107188000D01*
X143330000Y-100076000D02*
X143330000Y-103124000D01*
X143330000Y-127508000D02*
X143330000Y-127074000D01*
X143330000Y-127508000D02*
X143256000Y-127508000D01*
X143330000Y-127508000D02*
X143330000Y-126693000D01*
X143330000Y-135636000D02*
X143330000Y-127508000D01*
X149987000Y-89535000D02*
X151732000Y-89535000D01*
X143330000Y-92075000D02*
X143330000Y-100076000D01*
X157132000Y-90805000D02*
X160301940Y-90805000D01*
X146230000Y-90932000D02*
X146230000Y-92075000D01*
X151732000Y-104775000D02*
X146378000Y-104775000D01*
X146378000Y-104775000D02*
X146304000Y-104849000D01*
X146304000Y-105156000D02*
X146230000Y-105156000D01*
X146304000Y-104849000D02*
X146304000Y-105156000D01*
X146230000Y-103124000D02*
X146230000Y-105156000D01*
X146230000Y-105156000D02*
X146230000Y-107188000D01*
X118110000Y-104140000D02*
X120904000Y-104140000D01*
X123444000Y-122375000D02*
X124079000Y-123010000D01*
X123444000Y-106680000D02*
X123444000Y-122375000D01*
X120904000Y-104140000D02*
X123444000Y-106680000D01*
X124153000Y-122936000D02*
X124079000Y-123010000D01*
X124407000Y-122682000D02*
X124079000Y-123010000D01*
X122502000Y-96520000D02*
X122428000Y-96520000D01*
X133190000Y-132715000D02*
X130175000Y-132715000D01*
X130175000Y-132715000D02*
X129540000Y-133350000D01*
X146230000Y-125984000D02*
X146230000Y-127508000D01*
X163802060Y-104648000D02*
X169672000Y-104648000D01*
X157132000Y-125730000D02*
X160047940Y-125730000D01*
X160301940Y-139700000D02*
X157259000Y-139700000D01*
X157259000Y-139700000D02*
X157132000Y-139827000D01*
X146230000Y-88265000D02*
X146230000Y-90932000D01*
X125402000Y-96520000D02*
X125476000Y-96520000D01*
X151257000Y-125730000D02*
X151732000Y-125730000D01*
X146230000Y-122936000D02*
X146230000Y-125984000D01*
X146230000Y-135636000D02*
X146230000Y-139700000D01*
X125910000Y-88900000D02*
X125984000Y-88826000D01*
X245745000Y-43660060D02*
X245745000Y-46990000D01*
X220345000Y-55245000D02*
X215900000Y-55245000D01*
X215900000Y-55245000D02*
X215265000Y-54610000D01*
X244475000Y-53340000D02*
X244475000Y-55245000D01*
X230052500Y-43482500D02*
X233982500Y-43482500D01*
X234950000Y-55245000D02*
X234950000Y-55245000D01*
X234950000Y-44450000D02*
X234950000Y-51435000D01*
X233982500Y-43482500D02*
X234950000Y-44450000D01*
X220345000Y-55245000D02*
X226060000Y-55245000D01*
X225877500Y-55245000D02*
X226060000Y-55245000D01*
X244475000Y-55245000D02*
X234950000Y-55245000D01*
X234950000Y-55245000D02*
X226695000Y-55245000D01*
X226695000Y-55245000D02*
X226060000Y-55245000D01*
X220980000Y-53975000D02*
X219710000Y-53975000D01*
X219710000Y-53975000D02*
X215265000Y-49530000D01*
X215265000Y-49530000D02*
X215265000Y-48895000D01*
X230505000Y-41910000D02*
X228600000Y-41910000D01*
X228600000Y-41910000D02*
X227927500Y-42582500D01*
X227927500Y-42582500D02*
X227927500Y-42607500D01*
X234950000Y-41910000D02*
X235585000Y-41910000D01*
X235585000Y-41910000D02*
X236855000Y-43180000D01*
X245745000Y-53340000D02*
X245745000Y-56515000D01*
X245745000Y-56515000D02*
X246380000Y-57150000D01*
X246380000Y-57150000D02*
X246610000Y-57150000D01*
X245745000Y-53340000D02*
X245745000Y-51435000D01*
X245745000Y-51435000D02*
X244475000Y-50165000D01*
X236855000Y-50165000D02*
X236855000Y-52070000D01*
X233680000Y-53975000D02*
X231140000Y-53975000D01*
X234315000Y-53340000D02*
X233680000Y-53975000D01*
X235585000Y-53340000D02*
X234315000Y-53340000D01*
X236855000Y-52070000D02*
X235585000Y-53340000D01*
X236855000Y-50165000D02*
X236855000Y-43180000D01*
X234950000Y-41910000D02*
X230505000Y-41910000D01*
X220980000Y-53975000D02*
X231140000Y-53975000D01*
X244475000Y-50165000D02*
X236855000Y-50165000D01*
X246380000Y-56920000D02*
X246610000Y-57150000D01*
X188595000Y-49530000D02*
X188595000Y-46535000D01*
X188595000Y-46535000D02*
X188775000Y-46355000D01*
X185875000Y-46355000D02*
X182930760Y-46355000D01*
X182930760Y-46355000D02*
X182610760Y-46675000D01*
X191135000Y-47170000D02*
X191135000Y-51435000D01*
X187325000Y-53975000D02*
X187325000Y-55880000D01*
X188595000Y-53975000D02*
X187325000Y-53975000D01*
X191135000Y-51435000D02*
X188595000Y-53975000D01*
X187325000Y-58240000D02*
X187780000Y-58240000D01*
X187325000Y-58240000D02*
X187325000Y-55880000D01*
X187325000Y-61140000D02*
X184560000Y-61140000D01*
X184560000Y-61140000D02*
X183745000Y-60325000D01*
X200025000Y-48895000D02*
X202565000Y-48895000D01*
X202565000Y-48895000D02*
X202565000Y-46355000D01*
X202565000Y-48895000D02*
X202565000Y-54610000D01*
X208915000Y-45720000D02*
X203200000Y-45720000D01*
X202565000Y-46355000D02*
X203200000Y-45720000D01*
X208915000Y-45720000D02*
X208280000Y-45720000D01*
X193040000Y-46355000D02*
X191135000Y-44450000D01*
X195580000Y-48895000D02*
X200025000Y-48895000D01*
X193040000Y-46355000D02*
X195580000Y-48895000D01*
X225802500Y-44117500D02*
X219407500Y-44117500D01*
X219407500Y-44117500D02*
X217805000Y-45720000D01*
X217805000Y-45720000D02*
X208915000Y-45720000D01*
X191135000Y-44450000D02*
X191135000Y-44270000D01*
X207645000Y-62230000D02*
X209550000Y-60325000D01*
X227965000Y-58420000D02*
X220980000Y-58420000D01*
X209550000Y-60325000D02*
X209550000Y-58420000D01*
X209550000Y-58420000D02*
X210185000Y-57785000D01*
X210185000Y-57785000D02*
X211455000Y-57785000D01*
X220345000Y-57785000D02*
X211455000Y-57785000D01*
X220980000Y-58420000D02*
X220345000Y-57785000D01*
X182610760Y-48575000D02*
X181975760Y-48575000D01*
X181975760Y-48575000D02*
X180705760Y-49845000D01*
X180705760Y-49845000D02*
X180705760Y-49799240D01*
X180705760Y-49799240D02*
X180975000Y-49530000D01*
X180705760Y-49845000D02*
X180705760Y-53609240D01*
X180745000Y-54205000D02*
X180745000Y-58420000D01*
X180705760Y-53609240D02*
X180745000Y-54205000D01*
X203835000Y-62230000D02*
X207645000Y-62230000D01*
X180745000Y-58420000D02*
X184785000Y-58420000D01*
X198755000Y-62230000D02*
X203835000Y-62230000D01*
X196850000Y-59690000D02*
X198755000Y-62230000D01*
X186055000Y-59690000D02*
X196850000Y-59690000D01*
X184785000Y-58420000D02*
X186055000Y-59690000D01*
X180745000Y-58420000D02*
X180745000Y-60325000D01*
X227927500Y-48607500D02*
X227927500Y-48932500D01*
X227927500Y-48932500D02*
X227965000Y-49530000D01*
X227965000Y-49530000D02*
X227965000Y-52070000D01*
X227927500Y-52032500D02*
X227965000Y-52070000D01*
X211455000Y-56034940D02*
X213514940Y-56034940D01*
X230505000Y-52070000D02*
X230505000Y-48260000D01*
X230505000Y-56515000D02*
X230505000Y-57150000D01*
X222885000Y-56515000D02*
X230505000Y-56515000D01*
X213995000Y-56515000D02*
X222885000Y-56515000D01*
X213514940Y-56034940D02*
X213995000Y-56515000D01*
X230505000Y-48260000D02*
X230052500Y-47807500D01*
X230052500Y-47807500D02*
X230052500Y-47732500D01*
X211455000Y-56034940D02*
X211609940Y-56034940D01*
X207645000Y-56285000D02*
X202565000Y-56285000D01*
X200025000Y-56285000D02*
X202565000Y-56285000D01*
X198350000Y-56285000D02*
X196580002Y-58054998D01*
X200025000Y-56285000D02*
X198350000Y-56285000D01*
X225802500Y-47732500D02*
X225317500Y-47732500D01*
X225317500Y-47732500D02*
X224790000Y-48260000D01*
X224790000Y-48260000D02*
X224682500Y-48367500D01*
X224682500Y-48367500D02*
X219182500Y-48367500D01*
X209550000Y-46990000D02*
X208280000Y-48260000D01*
X215900000Y-46990000D02*
X209550000Y-46990000D01*
X217805000Y-46990000D02*
X215900000Y-46990000D01*
X219182500Y-48367500D02*
X217805000Y-46990000D01*
X208280000Y-48260000D02*
X208280000Y-48895000D01*
X208280000Y-48895000D02*
X207645000Y-48895000D01*
X207645000Y-48895000D02*
X207010000Y-49530000D01*
X207010000Y-49530000D02*
X207010000Y-52705000D01*
X190134998Y-58054998D02*
X196215000Y-58054998D01*
X188595000Y-55880000D02*
X188595000Y-56515000D01*
X190134998Y-58054998D02*
X188595000Y-56515000D01*
X207010000Y-56285000D02*
X207010000Y-52705000D01*
M02*
