G04 #@! TF.FileFunction,Copper,L1,Top,Signal*
%FSLAX46Y46*%
G04 Gerber Fmt 4.6, Leading zero omitted, Abs format (unit mm)*
G04 Created by KiCad (PCBNEW 4.0.4+dfsg1-stable) date Tue Oct 25 18:07:04 2016*
%MOMM*%
%LPD*%
G01*
G04 APERTURE LIST*
%ADD10C,0.100000*%
%ADD11C,0.300000*%
%ADD12R,1.300480X1.699260*%
%ADD13R,1.550000X0.600000*%
%ADD14R,2.032000X1.727200*%
%ADD15O,2.032000X1.727200*%
%ADD16R,1.600000X1.000000*%
%ADD17R,1.700000X0.900000*%
%ADD18R,0.900000X1.700000*%
%ADD19C,1.750000*%
%ADD20C,0.750000*%
G04 APERTURE END LIST*
D10*
D11*
X160329715Y-137267143D02*
X161472572Y-137267143D01*
X161972572Y-136338571D02*
X162472572Y-137838571D01*
X162972572Y-136338571D01*
X159821715Y-123043143D02*
X160964572Y-123043143D01*
X160393143Y-123614571D02*
X160393143Y-122471714D01*
X161464572Y-122114571D02*
X161964572Y-123614571D01*
X162464572Y-122114571D01*
X160615429Y-102215143D02*
X161758286Y-102215143D01*
X162472572Y-102786571D02*
X162472572Y-101286571D01*
X160615429Y-87991143D02*
X161758286Y-87991143D01*
X161186857Y-88562571D02*
X161186857Y-87419714D01*
X162472572Y-88562571D02*
X162472572Y-87062571D01*
X110565715Y-105858571D02*
X111065715Y-107358571D01*
X111565715Y-105858571D01*
X111708572Y-107501429D02*
X112851429Y-107501429D01*
X113708572Y-106572857D02*
X113208572Y-106572857D01*
X113208572Y-107358571D02*
X113208572Y-105858571D01*
X113922858Y-105858571D01*
X114994286Y-106572857D02*
X115208572Y-106644286D01*
X115280000Y-106715714D01*
X115351429Y-106858571D01*
X115351429Y-107072857D01*
X115280000Y-107215714D01*
X115208572Y-107287143D01*
X115065714Y-107358571D01*
X114494286Y-107358571D01*
X114494286Y-105858571D01*
X114994286Y-105858571D01*
X115137143Y-105930000D01*
X115208572Y-106001429D01*
X115280000Y-106144286D01*
X115280000Y-106287143D01*
X115208572Y-106430000D01*
X115137143Y-106501429D01*
X114994286Y-106572857D01*
X114494286Y-106572857D01*
X109002143Y-103318571D02*
X109502143Y-104818571D01*
X110002143Y-103318571D01*
X110502143Y-104247143D02*
X111645000Y-104247143D01*
X112287857Y-104747143D02*
X112502143Y-104818571D01*
X112859286Y-104818571D01*
X113002143Y-104747143D01*
X113073572Y-104675714D01*
X113145000Y-104532857D01*
X113145000Y-104390000D01*
X113073572Y-104247143D01*
X113002143Y-104175714D01*
X112859286Y-104104286D01*
X112573572Y-104032857D01*
X112430714Y-103961429D01*
X112359286Y-103890000D01*
X112287857Y-103747143D01*
X112287857Y-103604286D01*
X112359286Y-103461429D01*
X112430714Y-103390000D01*
X112573572Y-103318571D01*
X112930714Y-103318571D01*
X113145000Y-103390000D01*
X113787857Y-104032857D02*
X114287857Y-104032857D01*
X114502143Y-104818571D02*
X113787857Y-104818571D01*
X113787857Y-103318571D01*
X114502143Y-103318571D01*
X114930714Y-103318571D02*
X115787857Y-103318571D01*
X115359286Y-104818571D02*
X115359286Y-103318571D01*
X112292000Y-93158571D02*
X112577714Y-93158571D01*
X112720572Y-93230000D01*
X112863429Y-93372857D01*
X112934857Y-93658571D01*
X112934857Y-94158571D01*
X112863429Y-94444286D01*
X112720572Y-94587143D01*
X112577714Y-94658571D01*
X112292000Y-94658571D01*
X112149143Y-94587143D01*
X112006286Y-94444286D01*
X111934857Y-94158571D01*
X111934857Y-93658571D01*
X112006286Y-93372857D01*
X112149143Y-93230000D01*
X112292000Y-93158571D01*
X113577715Y-93158571D02*
X113577715Y-94372857D01*
X113649143Y-94515714D01*
X113720572Y-94587143D01*
X113863429Y-94658571D01*
X114149143Y-94658571D01*
X114292001Y-94587143D01*
X114363429Y-94515714D01*
X114434858Y-94372857D01*
X114434858Y-93158571D01*
X114934858Y-93158571D02*
X115792001Y-93158571D01*
X115363430Y-94658571D02*
X115363430Y-93158571D01*
X110708572Y-102278571D02*
X110708572Y-100778571D01*
X111422858Y-101707143D02*
X112565715Y-101707143D01*
X113780001Y-101492857D02*
X113280001Y-101492857D01*
X113280001Y-102278571D02*
X113280001Y-100778571D01*
X113994287Y-100778571D01*
X115065715Y-101492857D02*
X115280001Y-101564286D01*
X115351429Y-101635714D01*
X115422858Y-101778571D01*
X115422858Y-101992857D01*
X115351429Y-102135714D01*
X115280001Y-102207143D01*
X115137143Y-102278571D01*
X114565715Y-102278571D01*
X114565715Y-100778571D01*
X115065715Y-100778571D01*
X115208572Y-100850000D01*
X115280001Y-100921429D01*
X115351429Y-101064286D01*
X115351429Y-101207143D01*
X115280001Y-101350000D01*
X115208572Y-101421429D01*
X115065715Y-101492857D01*
X114565715Y-101492857D01*
X109502143Y-99738571D02*
X109502143Y-98238571D01*
X110216429Y-99167143D02*
X111359286Y-99167143D01*
X112002143Y-99667143D02*
X112216429Y-99738571D01*
X112573572Y-99738571D01*
X112716429Y-99667143D01*
X112787858Y-99595714D01*
X112859286Y-99452857D01*
X112859286Y-99310000D01*
X112787858Y-99167143D01*
X112716429Y-99095714D01*
X112573572Y-99024286D01*
X112287858Y-98952857D01*
X112145000Y-98881429D01*
X112073572Y-98810000D01*
X112002143Y-98667143D01*
X112002143Y-98524286D01*
X112073572Y-98381429D01*
X112145000Y-98310000D01*
X112287858Y-98238571D01*
X112645000Y-98238571D01*
X112859286Y-98310000D01*
X113502143Y-98952857D02*
X114002143Y-98952857D01*
X114216429Y-99738571D02*
X113502143Y-99738571D01*
X113502143Y-98238571D01*
X114216429Y-98238571D01*
X114645000Y-98238571D02*
X115502143Y-98238571D01*
X115073572Y-99738571D02*
X115073572Y-98238571D01*
X112934858Y-97198571D02*
X112434858Y-96484286D01*
X112077715Y-97198571D02*
X112077715Y-95698571D01*
X112649143Y-95698571D01*
X112792001Y-95770000D01*
X112863429Y-95841429D01*
X112934858Y-95984286D01*
X112934858Y-96198571D01*
X112863429Y-96341429D01*
X112792001Y-96412857D01*
X112649143Y-96484286D01*
X112077715Y-96484286D01*
X113577715Y-96412857D02*
X114077715Y-96412857D01*
X114292001Y-97198571D02*
X113577715Y-97198571D01*
X113577715Y-95698571D01*
X114292001Y-95698571D01*
X115434858Y-96412857D02*
X114934858Y-96412857D01*
X114934858Y-97198571D02*
X114934858Y-95698571D01*
X115649144Y-95698571D01*
X112522143Y-90690000D02*
X112379286Y-90618571D01*
X112165000Y-90618571D01*
X111950715Y-90690000D01*
X111807857Y-90832857D01*
X111736429Y-90975714D01*
X111665000Y-91261429D01*
X111665000Y-91475714D01*
X111736429Y-91761429D01*
X111807857Y-91904286D01*
X111950715Y-92047143D01*
X112165000Y-92118571D01*
X112307857Y-92118571D01*
X112522143Y-92047143D01*
X112593572Y-91975714D01*
X112593572Y-91475714D01*
X112307857Y-91475714D01*
X113236429Y-92118571D02*
X113236429Y-90618571D01*
X114093572Y-92118571D01*
X114093572Y-90618571D01*
X114807858Y-92118571D02*
X114807858Y-90618571D01*
X115165001Y-90618571D01*
X115379286Y-90690000D01*
X115522144Y-90832857D01*
X115593572Y-90975714D01*
X115665001Y-91261429D01*
X115665001Y-91475714D01*
X115593572Y-91761429D01*
X115522144Y-91904286D01*
X115379286Y-92047143D01*
X115165001Y-92118571D01*
X114807858Y-92118571D01*
X111772143Y-89007143D02*
X112915000Y-89007143D01*
X113415000Y-88078571D02*
X113915000Y-89578571D01*
X114415000Y-88078571D01*
X114915000Y-88792857D02*
X115415000Y-88792857D01*
X115629286Y-89578571D02*
X114915000Y-89578571D01*
X114915000Y-88078571D01*
X115629286Y-88078571D01*
X111772143Y-86467143D02*
X112915000Y-86467143D01*
X112343571Y-87038571D02*
X112343571Y-85895714D01*
X113415000Y-85538571D02*
X113915000Y-87038571D01*
X114415000Y-85538571D01*
X114915000Y-86252857D02*
X115415000Y-86252857D01*
X115629286Y-87038571D02*
X114915000Y-87038571D01*
X114915000Y-85538571D01*
X115629286Y-85538571D01*
D12*
X163802060Y-90805000D03*
X160301940Y-90805000D03*
D13*
X151732000Y-88265000D03*
X151732000Y-89535000D03*
X151732000Y-90805000D03*
X151732000Y-92075000D03*
X157132000Y-92075000D03*
X157132000Y-90805000D03*
X157132000Y-89535000D03*
X157132000Y-88265000D03*
D12*
X160301940Y-104648000D03*
X163802060Y-104648000D03*
D14*
X118110000Y-86360000D03*
D15*
X118110000Y-88900000D03*
X118110000Y-91440000D03*
X118110000Y-93980000D03*
X118110000Y-96520000D03*
X118110000Y-99060000D03*
X118110000Y-101600000D03*
X118110000Y-104140000D03*
X118110000Y-106680000D03*
X118110000Y-109220000D03*
X118110000Y-111760000D03*
X118110000Y-114300000D03*
D13*
X133190000Y-104775000D03*
X133190000Y-106045000D03*
X133190000Y-107315000D03*
X133190000Y-108585000D03*
X138590000Y-108585000D03*
X138590000Y-107315000D03*
X138590000Y-106045000D03*
X138590000Y-104775000D03*
X151732000Y-102235000D03*
X151732000Y-103505000D03*
X151732000Y-104775000D03*
X151732000Y-106045000D03*
X157132000Y-106045000D03*
X157132000Y-104775000D03*
X157132000Y-103505000D03*
X157132000Y-102235000D03*
D12*
X163802060Y-125476000D03*
X160301940Y-125476000D03*
X160301940Y-139700000D03*
X163802060Y-139700000D03*
D13*
X133190000Y-130175000D03*
X133190000Y-131445000D03*
X133190000Y-132715000D03*
X133190000Y-133985000D03*
X138590000Y-133985000D03*
X138590000Y-132715000D03*
X138590000Y-131445000D03*
X138590000Y-130175000D03*
X151732000Y-123190000D03*
X151732000Y-124460000D03*
X151732000Y-125730000D03*
X151732000Y-127000000D03*
X157132000Y-127000000D03*
X157132000Y-125730000D03*
X157132000Y-124460000D03*
X157132000Y-123190000D03*
X151732000Y-137287000D03*
X151732000Y-138557000D03*
X151732000Y-139827000D03*
X151732000Y-141097000D03*
X157132000Y-141097000D03*
X157132000Y-139827000D03*
X157132000Y-138557000D03*
X157132000Y-137287000D03*
D16*
X151892000Y-94512000D03*
X151892000Y-97512000D03*
X155448000Y-94512000D03*
X155448000Y-97512000D03*
X137160000Y-111530000D03*
X137160000Y-114530000D03*
X151892000Y-108736000D03*
X151892000Y-111736000D03*
X155448000Y-108736000D03*
X155448000Y-111736000D03*
X133350000Y-111530000D03*
X133350000Y-114530000D03*
X155448000Y-129564000D03*
X155448000Y-132564000D03*
X151892000Y-129564000D03*
X151892000Y-132564000D03*
X155448000Y-143788000D03*
X155448000Y-146788000D03*
X133350000Y-136930000D03*
X133350000Y-139930000D03*
X137160000Y-136930000D03*
X137160000Y-139930000D03*
X151892000Y-143788000D03*
X151892000Y-146788000D03*
D17*
X129032000Y-101526000D03*
X129032000Y-98626000D03*
D18*
X136578000Y-102108000D03*
X133678000Y-102108000D03*
X146230000Y-92075000D03*
X143330000Y-92075000D03*
X146230000Y-88265000D03*
X143330000Y-88265000D03*
X146230000Y-103124000D03*
X143330000Y-103124000D03*
X146230000Y-107188000D03*
X143330000Y-107188000D03*
X125402000Y-96520000D03*
X122502000Y-96520000D03*
D17*
X124079000Y-125910000D03*
X124079000Y-123010000D03*
D18*
X136070000Y-127000000D03*
X133170000Y-127000000D03*
X146230000Y-127508000D03*
X143330000Y-127508000D03*
X146230000Y-122936000D03*
X143330000Y-122936000D03*
X146230000Y-135636000D03*
X143330000Y-135636000D03*
X146230000Y-139700000D03*
X143330000Y-139700000D03*
D17*
X125984000Y-88826000D03*
X125984000Y-85926000D03*
D19*
X160020000Y-149352000D03*
X141732000Y-119380000D03*
X167640000Y-108712000D03*
X139192000Y-149352000D03*
X167640000Y-129540000D03*
X167640000Y-94488000D03*
X121920000Y-86360000D03*
X167767000Y-137795000D03*
X165608000Y-131572000D03*
X165608000Y-96520000D03*
X121920000Y-88900000D03*
X148844000Y-147320000D03*
X130810000Y-117348000D03*
X131572000Y-147320000D03*
X165862000Y-110236000D03*
X165862000Y-117475000D03*
X165862000Y-121920000D03*
X158496000Y-145288000D03*
X121920000Y-91440000D03*
X157988000Y-97536000D03*
X157988000Y-111760000D03*
X139700000Y-114300000D03*
X129540000Y-133350000D03*
X137160000Y-142240000D03*
X130175000Y-107315000D03*
X157988000Y-132588000D03*
D20*
X121920000Y-86360000D02*
X125984000Y-86360000D01*
X125984000Y-86360000D02*
X125984000Y-85926000D01*
X155448000Y-142748000D02*
X155448000Y-143788000D01*
X154940000Y-142240000D02*
X155448000Y-142748000D01*
X155448000Y-142748000D02*
X155956000Y-143256000D01*
X160020000Y-149352000D02*
X160020000Y-143764000D01*
X159512000Y-143256000D02*
X160020000Y-143764000D01*
X154940000Y-139192000D02*
X154940000Y-142240000D01*
X155575000Y-138557000D02*
X157132000Y-138557000D01*
X155575000Y-138557000D02*
X154940000Y-139192000D01*
X155956000Y-143256000D02*
X159512000Y-143256000D01*
X140740000Y-111530000D02*
X141605000Y-112395000D01*
X141605000Y-112395000D02*
X141605000Y-119380000D01*
X137160000Y-111530000D02*
X140740000Y-111530000D01*
X141605000Y-119380000D02*
X141732000Y-119380000D01*
X139065000Y-138049000D02*
X139065000Y-149225000D01*
X139065000Y-149225000D02*
X139192000Y-149352000D01*
X137160000Y-136930000D02*
X137946000Y-136930000D01*
X137946000Y-136930000D02*
X139065000Y-138049000D01*
X138590000Y-131445000D02*
X137287000Y-131445000D01*
X136652000Y-136422000D02*
X137160000Y-136930000D01*
X136652000Y-132080000D02*
X136652000Y-136422000D01*
X137287000Y-131445000D02*
X136652000Y-132080000D01*
X155448000Y-129564000D02*
X167616000Y-129564000D01*
X167616000Y-129564000D02*
X167640000Y-129540000D01*
X155448000Y-108736000D02*
X167640000Y-108712000D01*
X155448000Y-94512000D02*
X167616000Y-94512000D01*
X167616000Y-94512000D02*
X167640000Y-94488000D01*
X121920000Y-86360000D02*
X118110000Y-86360000D01*
X154940000Y-124968000D02*
X154940000Y-129564000D01*
X154940000Y-129564000D02*
X155448000Y-129564000D01*
X155086052Y-90412525D02*
X155086052Y-94150052D01*
X155086052Y-94150052D02*
X155448000Y-94512000D01*
X156083000Y-103505000D02*
X155067000Y-104521000D01*
X157132000Y-103505000D02*
X156083000Y-103505000D01*
X155067000Y-104521000D02*
X155067000Y-108990000D01*
X157132000Y-124460000D02*
X155448000Y-124460000D01*
X155448000Y-124460000D02*
X154940000Y-124968000D01*
X155067000Y-90170000D02*
X155086052Y-90412525D01*
X155702000Y-89535000D02*
X155067000Y-90170000D01*
X157132000Y-89535000D02*
X155702000Y-89535000D01*
X155448000Y-129564000D02*
X155853000Y-129564000D01*
X137160000Y-111530000D02*
X137565000Y-111530000D01*
X137160000Y-111530000D02*
X137160000Y-111760000D01*
X137160000Y-111760000D02*
X135890000Y-110490000D01*
X138590000Y-106045000D02*
X136525000Y-106045000D01*
X135890000Y-110490000D02*
X137160000Y-111760000D01*
X135890000Y-106680000D02*
X135890000Y-110490000D01*
X136525000Y-106045000D02*
X135890000Y-106680000D01*
X121920000Y-88900000D02*
X125910000Y-88900000D01*
X125910000Y-88900000D02*
X125984000Y-88826000D01*
X165100000Y-131064000D02*
X165608000Y-131572000D01*
X165100000Y-96012000D02*
X165608000Y-96520000D01*
X118110000Y-88900000D02*
X121920000Y-88900000D01*
X151892000Y-143788000D02*
X149836000Y-143788000D01*
X148844000Y-144780000D02*
X148844000Y-147320000D01*
X149836000Y-143788000D02*
X148844000Y-144780000D01*
X130810000Y-112395000D02*
X130810000Y-117348000D01*
X131675000Y-111530000D02*
X130810000Y-112395000D01*
X133350000Y-111530000D02*
X131675000Y-111530000D01*
X131572000Y-138684000D02*
X131572000Y-147320000D01*
X133326000Y-136930000D02*
X131572000Y-138684000D01*
X133350000Y-136930000D02*
X133326000Y-136930000D01*
X133190000Y-133985000D02*
X133190000Y-136770000D01*
X133190000Y-136770000D02*
X133350000Y-136930000D01*
X152908000Y-110236000D02*
X165862000Y-110236000D01*
X151892000Y-109220000D02*
X152908000Y-110236000D01*
X151892000Y-108736000D02*
X151892000Y-109220000D01*
X151732000Y-106045000D02*
X151732000Y-108576000D01*
X151732000Y-108576000D02*
X151892000Y-108736000D01*
X151732000Y-127000000D02*
X151732000Y-129404000D01*
X151732000Y-129404000D02*
X151892000Y-129564000D01*
X151892000Y-143788000D02*
X151892000Y-141257000D01*
X151892000Y-141257000D02*
X151732000Y-141097000D01*
X151892000Y-129540000D02*
X153416000Y-131064000D01*
X153416000Y-131064000D02*
X165100000Y-131064000D01*
X165100000Y-131064000D02*
X165862000Y-131064000D01*
X151892000Y-129437000D02*
X151892000Y-129540000D01*
X133350000Y-111530000D02*
X132945000Y-111530000D01*
X165862000Y-121920000D02*
X165862000Y-117475000D01*
X151892000Y-106205000D02*
X151732000Y-106045000D01*
X165862000Y-96012000D02*
X165100000Y-96012000D01*
X165100000Y-96012000D02*
X153162000Y-96012000D01*
X153162000Y-96012000D02*
X151892000Y-94742000D01*
X151892000Y-94512000D02*
X151892000Y-94742000D01*
X151732000Y-92075000D02*
X151732000Y-94352000D01*
X151732000Y-94352000D02*
X151892000Y-94512000D01*
X151962000Y-143858000D02*
X151892000Y-143788000D01*
X133190000Y-108585000D02*
X133190000Y-111370000D01*
X133190000Y-111370000D02*
X133350000Y-111530000D01*
X133190000Y-136770000D02*
X133350000Y-136930000D01*
X133350000Y-134145000D02*
X133190000Y-133985000D01*
X157132000Y-90805000D02*
X160301940Y-90805000D01*
X151892000Y-132564000D02*
X155448000Y-132564000D01*
X155448000Y-146788000D02*
X156996000Y-146788000D01*
X156996000Y-146788000D02*
X158496000Y-145288000D01*
X121920000Y-91440000D02*
X118872000Y-91440000D01*
X155448000Y-97512000D02*
X157964000Y-97512000D01*
X157964000Y-97512000D02*
X157988000Y-97536000D01*
X155067000Y-111990000D02*
X157758000Y-111990000D01*
X157758000Y-111990000D02*
X157988000Y-111760000D01*
X151892000Y-146788000D02*
X155448000Y-146788000D01*
X137160000Y-114530000D02*
X139470000Y-114530000D01*
X139470000Y-114530000D02*
X139700000Y-114300000D01*
X151892000Y-111990000D02*
X155067000Y-111990000D01*
X151892000Y-97512000D02*
X155448000Y-97512000D01*
X157988000Y-132588000D02*
X155345000Y-132461000D01*
X155345000Y-132461000D02*
X155448000Y-132564000D01*
X133350000Y-139930000D02*
X137160000Y-139930000D01*
X133190000Y-132715000D02*
X130175000Y-132715000D01*
X130175000Y-132715000D02*
X129540000Y-133350000D01*
X137160000Y-139930000D02*
X137160000Y-142240000D01*
X133350000Y-114530000D02*
X137160000Y-114530000D01*
X133190000Y-107315000D02*
X130175000Y-107315000D01*
X149352000Y-85852000D02*
X149352000Y-88900000D01*
X149987000Y-89535000D02*
X151732000Y-89535000D01*
X149479000Y-89027000D02*
X149987000Y-89535000D01*
X168402000Y-85852000D02*
X168656000Y-85852000D01*
X168656000Y-85852000D02*
X169672000Y-86868000D01*
X168402000Y-85852000D02*
X149352000Y-85852000D01*
X169672000Y-90932000D02*
X169672000Y-86868000D01*
X149352000Y-85852000D02*
X148844000Y-85852000D01*
X169672000Y-135128000D02*
X169672000Y-138684000D01*
X168656000Y-139700000D02*
X163802060Y-139700000D01*
X168656000Y-139700000D02*
X169672000Y-138684000D01*
X126492000Y-93980000D02*
X126492000Y-95430000D01*
X126492000Y-95430000D02*
X125402000Y-96520000D01*
X151732000Y-103505000D02*
X149733000Y-103505000D01*
X149860000Y-100076000D02*
X169672000Y-100076000D01*
X149352000Y-100584000D02*
X149860000Y-100076000D01*
X149352000Y-103124000D02*
X149352000Y-100584000D01*
X149733000Y-103505000D02*
X149352000Y-103124000D01*
X139192000Y-87376000D02*
X140716000Y-85852000D01*
X126492000Y-93980000D02*
X138176000Y-93980000D01*
X138176000Y-93980000D02*
X139192000Y-92964000D01*
X139192000Y-92964000D02*
X139192000Y-87376000D01*
X140716000Y-85852000D02*
X148844000Y-85852000D01*
X148844000Y-85852000D02*
X149352000Y-85852000D01*
X118110000Y-93980000D02*
X126492000Y-93980000D01*
X125402000Y-96520000D02*
X125476000Y-96520000D01*
X150368000Y-124460000D02*
X149860000Y-123952000D01*
X163068000Y-120904000D02*
X150368000Y-120904000D01*
X163802060Y-125476000D02*
X163802060Y-121638060D01*
X150368000Y-124460000D02*
X151732000Y-124460000D01*
X163802060Y-121638060D02*
X163068000Y-120904000D01*
X149860000Y-121412000D02*
X149860000Y-123952000D01*
X150368000Y-120904000D02*
X149860000Y-121412000D01*
X149781846Y-138097846D02*
X150241000Y-138557000D01*
X150241000Y-138557000D02*
X151732000Y-138557000D01*
X149781846Y-135518769D02*
X149781846Y-138097846D01*
X169672000Y-135128000D02*
X150368000Y-135128000D01*
X150368000Y-135128000D02*
X149781846Y-135518769D01*
X163802060Y-104648000D02*
X169672000Y-104648000D01*
X163802060Y-125476000D02*
X169672000Y-125476000D01*
X163802060Y-90805000D02*
X169672000Y-90805000D01*
X169672000Y-90805000D02*
X169672000Y-90932000D01*
X169672000Y-125476000D02*
X169672000Y-135128000D01*
X169672000Y-90932000D02*
X169672000Y-100076000D01*
X169672000Y-100076000D02*
X169672000Y-104648000D01*
X169672000Y-104648000D02*
X169672000Y-125476000D01*
X157132000Y-104775000D02*
X160301940Y-104648000D01*
X122502000Y-96520000D02*
X118110000Y-96520000D01*
X122502000Y-96520000D02*
X122428000Y-96520000D01*
X118290000Y-96340000D02*
X118110000Y-96520000D01*
X140716000Y-97536000D02*
X129540000Y-97536000D01*
X129032000Y-98044000D02*
X129032000Y-98626000D01*
X129540000Y-97536000D02*
X129032000Y-98044000D01*
X141224000Y-89154000D02*
X141224000Y-97028000D01*
X141224000Y-97028000D02*
X140716000Y-97536000D01*
X129032000Y-98626000D02*
X129466000Y-98626000D01*
X143330000Y-88265000D02*
X142113000Y-88265000D01*
X142113000Y-88265000D02*
X141224000Y-89154000D01*
X129032000Y-98626000D02*
X118544000Y-98626000D01*
X118544000Y-98626000D02*
X118110000Y-99060000D01*
X118745000Y-99060000D02*
X118745000Y-98425000D01*
X127508000Y-100076000D02*
X127000000Y-100584000D01*
X125984000Y-101600000D02*
X127000000Y-100584000D01*
X125984000Y-101600000D02*
X118110000Y-101600000D01*
X143330000Y-100076000D02*
X127508000Y-100076000D01*
X143330000Y-92075000D02*
X143330000Y-100076000D01*
X143330000Y-100076000D02*
X143330000Y-103124000D01*
X130810000Y-105410000D02*
X130810000Y-102108000D01*
X130810000Y-102108000D02*
X130556000Y-102108000D01*
X133678000Y-102108000D02*
X130556000Y-102108000D01*
X130556000Y-102108000D02*
X129614000Y-102108000D01*
X129614000Y-102108000D02*
X129032000Y-101526000D01*
X130810000Y-105410000D02*
X131445000Y-106045000D01*
X131445000Y-106045000D02*
X133190000Y-106045000D01*
X139700000Y-102616000D02*
X137086000Y-102616000D01*
X140843000Y-107315000D02*
X140208000Y-107315000D01*
X140843000Y-103759000D02*
X140843000Y-107315000D01*
X139700000Y-102616000D02*
X140843000Y-103759000D01*
X137086000Y-102616000D02*
X136578000Y-102108000D01*
X140208000Y-107315000D02*
X143203000Y-107315000D01*
X143203000Y-107315000D02*
X143330000Y-107188000D01*
X140208000Y-107315000D02*
X138590000Y-107315000D01*
X151732000Y-90805000D02*
X146431000Y-90805000D01*
X146431000Y-90805000D02*
X146304000Y-90932000D01*
X146304000Y-90932000D02*
X146230000Y-90932000D01*
X146230000Y-88265000D02*
X146230000Y-90932000D01*
X146230000Y-90932000D02*
X146230000Y-92075000D01*
X151732000Y-104775000D02*
X146378000Y-104775000D01*
X146378000Y-104775000D02*
X146304000Y-104849000D01*
X146304000Y-105156000D02*
X146230000Y-105156000D01*
X146304000Y-104849000D02*
X146304000Y-105156000D01*
X146230000Y-103124000D02*
X146230000Y-105156000D01*
X146230000Y-105156000D02*
X146230000Y-107188000D01*
X157132000Y-125730000D02*
X160047940Y-125730000D01*
X160047940Y-125730000D02*
X160301940Y-125476000D01*
X160301940Y-139700000D02*
X157259000Y-139700000D01*
X157259000Y-139700000D02*
X157132000Y-139827000D01*
X141732000Y-122428000D02*
X142822000Y-122428000D01*
X141732000Y-122428000D02*
X124661000Y-122428000D01*
X124079000Y-123010000D02*
X124661000Y-122428000D01*
X142822000Y-122428000D02*
X143330000Y-122936000D01*
X118110000Y-104140000D02*
X120904000Y-104140000D01*
X123444000Y-122375000D02*
X124079000Y-123010000D01*
X123444000Y-106680000D02*
X123444000Y-122375000D01*
X120904000Y-104140000D02*
X123444000Y-106680000D01*
X124153000Y-122936000D02*
X124079000Y-123010000D01*
X124407000Y-122682000D02*
X124079000Y-123010000D01*
X121412000Y-108204000D02*
X121412000Y-123952000D01*
X121920000Y-124460000D02*
X140716000Y-124460000D01*
X121412000Y-123952000D02*
X121920000Y-124460000D01*
X143330000Y-127508000D02*
X143330000Y-127074000D01*
X143330000Y-127074000D02*
X140716000Y-124460000D01*
X119888000Y-106680000D02*
X118110000Y-106680000D01*
X121412000Y-108204000D02*
X119888000Y-106680000D01*
X143330000Y-127508000D02*
X143256000Y-127508000D01*
X143330000Y-127508000D02*
X143330000Y-126693000D01*
X143330000Y-135636000D02*
X143330000Y-127508000D01*
X133190000Y-131445000D02*
X131445000Y-131445000D01*
X130810000Y-130810000D02*
X130810000Y-127000000D01*
X131445000Y-131445000D02*
X130810000Y-130810000D01*
X133170000Y-127000000D02*
X130810000Y-127000000D01*
X130810000Y-127000000D02*
X125169000Y-127000000D01*
X125169000Y-127000000D02*
X124079000Y-125910000D01*
X140970000Y-133350000D02*
X140970000Y-127635000D01*
X140335000Y-127000000D02*
X136070000Y-127000000D01*
X140970000Y-127635000D02*
X140335000Y-127000000D01*
X143330000Y-139700000D02*
X142240000Y-139700000D01*
X140335000Y-132715000D02*
X138590000Y-132715000D01*
X140970000Y-133350000D02*
X140335000Y-132715000D01*
X140970000Y-138430000D02*
X140970000Y-133350000D01*
X142240000Y-139700000D02*
X140970000Y-138430000D01*
X151732000Y-125730000D02*
X146378000Y-125730000D01*
X146378000Y-125730000D02*
X146304000Y-125804000D01*
X146304000Y-125984000D02*
X146230000Y-125984000D01*
X146304000Y-125804000D02*
X146304000Y-125984000D01*
X146230000Y-122936000D02*
X146230000Y-125984000D01*
X146230000Y-125984000D02*
X146230000Y-127508000D01*
X151257000Y-125730000D02*
X151732000Y-125730000D01*
X151732000Y-139827000D02*
X146357000Y-139827000D01*
X146357000Y-139827000D02*
X146230000Y-139700000D01*
X146230000Y-135636000D02*
X146230000Y-139700000D01*
X146230000Y-139700000D02*
X146050000Y-139880000D01*
X146050000Y-139880000D02*
X146230000Y-139880000D01*
M02*
