G04 #@! TF.FileFunction,Copper,L2,Bot,Signal*
%FSLAX46Y46*%
G04 Gerber Fmt 4.6, Leading zero omitted, Abs format (unit mm)*
G04 Created by KiCad (PCBNEW 4.0.4+dfsg1-stable) date Thu Dec 29 11:49:50 2016*
%MOMM*%
%LPD*%
G01*
G04 APERTURE LIST*
%ADD10C,0.100000*%
%ADD11R,2.032000X1.727200*%
%ADD12O,2.032000X1.727200*%
%ADD13C,1.699260*%
%ADD14R,1.699260X1.699260*%
%ADD15C,1.524000*%
%ADD16O,2.499360X1.501140*%
%ADD17C,1.750000*%
%ADD18C,0.750000*%
%ADD19C,0.254000*%
G04 APERTURE END LIST*
D10*
D11*
X118110000Y-86360000D03*
D12*
X118110000Y-88900000D03*
X118110000Y-91440000D03*
X118110000Y-93980000D03*
X118110000Y-96520000D03*
X118110000Y-99060000D03*
X118110000Y-101600000D03*
X118110000Y-104140000D03*
X118110000Y-106680000D03*
X118110000Y-109220000D03*
X118110000Y-111760000D03*
X118110000Y-114300000D03*
D13*
X179707540Y-48260520D03*
D14*
X179707540Y-38100520D03*
D13*
X183512460Y-38099480D03*
D14*
X183512460Y-48259480D03*
D11*
X56515000Y-73660000D03*
D12*
X56515000Y-76200000D03*
X56515000Y-78740000D03*
X56515000Y-81280000D03*
X56515000Y-83820000D03*
X56515000Y-86360000D03*
X56515000Y-88900000D03*
X56515000Y-91440000D03*
X56515000Y-93980000D03*
X56515000Y-96520000D03*
X56515000Y-99060000D03*
X56515000Y-101600000D03*
X56515000Y-104140000D03*
X56515000Y-106680000D03*
X56515000Y-109220000D03*
D11*
X69215000Y-33020000D03*
D12*
X69215000Y-35560000D03*
X69215000Y-38100000D03*
D11*
X209550000Y-43815000D03*
D12*
X209550000Y-46355000D03*
X209550000Y-48895000D03*
X209550000Y-51435000D03*
X209550000Y-53975000D03*
X209550000Y-56515000D03*
D15*
X231637500Y-46467500D03*
X225637500Y-46467500D03*
X228637500Y-49467500D03*
X228637500Y-43467500D03*
X226512500Y-44342500D03*
X230762500Y-48592500D03*
X226512500Y-48592500D03*
X230762500Y-44342500D03*
D16*
X219710000Y-54610000D03*
X219710000Y-59690000D03*
X215900000Y-42545000D03*
X215900000Y-47625000D03*
D17*
X238125000Y-45720000D03*
X160020000Y-149352000D03*
X141732000Y-119380000D03*
X167640000Y-108712000D03*
X139192000Y-149352000D03*
X167640000Y-129540000D03*
X167767000Y-137795000D03*
X121920000Y-86360000D03*
X255270000Y-55245000D03*
X165608000Y-131572000D03*
X148844000Y-147320000D03*
X130810000Y-117348000D03*
X131572000Y-147320000D03*
X165862000Y-110236000D03*
X165862000Y-117475000D03*
X165862000Y-121920000D03*
X121920000Y-88900000D03*
X251460000Y-45720000D03*
X234950000Y-46355000D03*
X241300000Y-57150000D03*
X234950000Y-52705000D03*
X158496000Y-145288000D03*
X121920000Y-91440000D03*
X157988000Y-97536000D03*
X157988000Y-111760000D03*
X139700000Y-114300000D03*
X137160000Y-142240000D03*
X130175000Y-107315000D03*
X157988000Y-132588000D03*
X129540000Y-133350000D03*
D18*
X213360000Y-40005000D02*
X237490000Y-40005000D01*
X237490000Y-40005000D02*
X238125000Y-40640000D01*
X238125000Y-40640000D02*
X238125000Y-45720000D01*
X213360000Y-40005000D02*
X209550000Y-43815000D01*
X160020000Y-149352000D02*
X160020000Y-149225000D01*
X160020000Y-149225000D02*
X160020000Y-149352000D01*
X160020000Y-149352000D02*
X160020000Y-149225000D01*
X167640000Y-108712000D02*
X167664000Y-108688000D01*
X167664000Y-108688000D02*
X167791000Y-108688000D01*
X167767000Y-119380000D02*
X167791000Y-108688000D01*
X167791000Y-108688000D02*
X167767000Y-94488000D01*
X139192000Y-149352000D02*
X139192000Y-149225000D01*
X139192000Y-149225000D02*
X139192000Y-149352000D01*
X139192000Y-149352000D02*
X139192000Y-149225000D01*
X139192000Y-149225000D02*
X160020000Y-149225000D01*
X167640000Y-129540000D02*
X167767000Y-129540000D01*
X167640000Y-94488000D02*
X167767000Y-94488000D01*
X167767000Y-94488000D02*
X167640000Y-94488000D01*
X167640000Y-94488000D02*
X167767000Y-94488000D01*
X167767000Y-94488000D02*
X167767000Y-87503000D01*
X167767000Y-87503000D02*
X166624000Y-86360000D01*
X167640000Y-143256000D02*
X167767000Y-143256000D01*
X167767000Y-143256000D02*
X167640000Y-143256000D01*
X167640000Y-143256000D02*
X167767000Y-143256000D01*
X141732000Y-119380000D02*
X167767000Y-119380000D01*
X167767000Y-137795000D02*
X167767000Y-129540000D01*
X167767000Y-143256000D02*
X167767000Y-137795000D01*
X167767000Y-129540000D02*
X167767000Y-119380000D01*
X166497000Y-149225000D02*
X167767000Y-147955000D01*
X167767000Y-147955000D02*
X167767000Y-143256000D01*
X160020000Y-149225000D02*
X166497000Y-149225000D01*
X121920000Y-86360000D02*
X166624000Y-86360000D01*
X215265000Y-60960000D02*
X215265000Y-61595000D01*
X215265000Y-61595000D02*
X215900000Y-62230000D01*
X215900000Y-62230000D02*
X218440000Y-62230000D01*
X255270000Y-59690000D02*
X255270000Y-60325000D01*
X255270000Y-59690000D02*
X255270000Y-55245000D01*
X217805000Y-62230000D02*
X218440000Y-62230000D01*
X218440000Y-62230000D02*
X250825000Y-62230000D01*
X215265000Y-53975000D02*
X215265000Y-60960000D01*
X215265000Y-53975000D02*
X210185000Y-48895000D01*
X253365000Y-62230000D02*
X250825000Y-62230000D01*
X255270000Y-60325000D02*
X253365000Y-62230000D01*
X209550000Y-48895000D02*
X210185000Y-48895000D01*
X165608000Y-131572000D02*
X165862000Y-131572000D01*
X165862000Y-131572000D02*
X165608000Y-131572000D01*
X165608000Y-131572000D02*
X165862000Y-131572000D01*
X130556000Y-117475000D02*
X130556000Y-117348000D01*
X130683000Y-117475000D02*
X130556000Y-117348000D01*
X130683000Y-117475000D02*
X130810000Y-117348000D01*
X165862000Y-117475000D02*
X130556000Y-117475000D01*
X148844000Y-147320000D02*
X131572000Y-147320000D01*
X164592000Y-147320000D02*
X148844000Y-147320000D01*
X165862000Y-146050000D02*
X164592000Y-147320000D01*
X165862000Y-131064000D02*
X165862000Y-131572000D01*
X165862000Y-131572000D02*
X165862000Y-146050000D01*
X165608000Y-131064000D02*
X165862000Y-131064000D01*
X165862000Y-131064000D02*
X165608000Y-131064000D01*
X165608000Y-131064000D02*
X165862000Y-131064000D01*
X165862000Y-121920000D02*
X165862000Y-131064000D01*
X165862000Y-110236000D02*
X165862000Y-117475000D01*
X165862000Y-96520000D02*
X165862000Y-110236000D01*
X165608000Y-96520000D02*
X165862000Y-96520000D01*
X165862000Y-96520000D02*
X165608000Y-96520000D01*
X165608000Y-96520000D02*
X165862000Y-96520000D01*
X122555000Y-88265000D02*
X121920000Y-88900000D01*
X122555000Y-88265000D02*
X123444000Y-88265000D01*
X123190000Y-88265000D02*
X123444000Y-88265000D01*
X123444000Y-88265000D02*
X164465000Y-88265000D01*
X165862000Y-89662000D02*
X165862000Y-96012000D01*
X164465000Y-88265000D02*
X165862000Y-89662000D01*
X165862000Y-96012000D02*
X165862000Y-96520000D01*
X219710000Y-59690000D02*
X219075000Y-59690000D01*
X219075000Y-59690000D02*
X217170000Y-57785000D01*
X217170000Y-57785000D02*
X217170000Y-52705000D01*
X209550000Y-53975000D02*
X209550000Y-56515000D01*
X209550000Y-46355000D02*
X208280000Y-46355000D01*
X208280000Y-53975000D02*
X209550000Y-53975000D01*
X207010000Y-52705000D02*
X208280000Y-53975000D01*
X207010000Y-47625000D02*
X207010000Y-52705000D01*
X208280000Y-46355000D02*
X207010000Y-47625000D01*
X251460000Y-56515000D02*
X251460000Y-57150000D01*
X251460000Y-56515000D02*
X251460000Y-45720000D01*
X251460000Y-57150000D02*
X250825000Y-57150000D01*
X215900000Y-51435000D02*
X217170000Y-52705000D01*
X209550000Y-46355000D02*
X210820000Y-46355000D01*
X211455000Y-46990000D02*
X215900000Y-51435000D01*
X211455000Y-46990000D02*
X210820000Y-46355000D01*
X217170000Y-52705000D02*
X226060000Y-52705000D01*
X234950000Y-52705000D02*
X234950000Y-46355000D01*
X234950000Y-52705000D02*
X235585000Y-52705000D01*
X240030000Y-57150000D02*
X241300000Y-57150000D01*
X241300000Y-57150000D02*
X250825000Y-57150000D01*
X235585000Y-52705000D02*
X240030000Y-57150000D01*
X225425000Y-52705000D02*
X226060000Y-52705000D01*
X226060000Y-52705000D02*
X234950000Y-52705000D01*
X130175000Y-107315000D02*
X130810000Y-106680000D01*
X157988000Y-132588000D02*
X157861000Y-132588000D01*
D19*
G36*
X175641000Y-149987000D02*
X167139607Y-149987000D01*
X167211178Y-149939178D01*
X168481178Y-148669178D01*
X168700118Y-148341510D01*
X168777000Y-147955000D01*
X168777000Y-138920363D01*
X169046370Y-138651463D01*
X169276738Y-138096675D01*
X169277262Y-137495960D01*
X169047862Y-136940771D01*
X168777000Y-136669435D01*
X168777000Y-130538585D01*
X168919370Y-130396463D01*
X169149738Y-129841675D01*
X169150262Y-129240960D01*
X168920862Y-128685771D01*
X168777000Y-128541657D01*
X168777000Y-119380931D01*
X168798755Y-109688867D01*
X168919370Y-109568463D01*
X169149738Y-109013675D01*
X169150262Y-108412960D01*
X168920862Y-107857771D01*
X168799393Y-107736090D01*
X168777000Y-94486885D01*
X168777000Y-87503000D01*
X168700118Y-87116490D01*
X168481178Y-86788822D01*
X167338178Y-85645822D01*
X167010510Y-85426882D01*
X166624000Y-85350000D01*
X123045363Y-85350000D01*
X122776463Y-85080630D01*
X122221675Y-84850262D01*
X121620960Y-84849738D01*
X121065771Y-85079138D01*
X120640630Y-85503537D01*
X120410262Y-86058325D01*
X120409738Y-86659040D01*
X120639138Y-87214229D01*
X121054536Y-87630353D01*
X120640630Y-88043537D01*
X120410262Y-88598325D01*
X120409738Y-89199040D01*
X120639138Y-89754229D01*
X121063537Y-90179370D01*
X121618325Y-90409738D01*
X122219040Y-90410262D01*
X122774229Y-90180862D01*
X123199370Y-89756463D01*
X123399291Y-89275000D01*
X164046644Y-89275000D01*
X164852000Y-90080356D01*
X164852000Y-95868413D01*
X164674882Y-96133490D01*
X164598000Y-96520000D01*
X164674882Y-96906510D01*
X164852000Y-97171587D01*
X164852000Y-109110637D01*
X164582630Y-109379537D01*
X164352262Y-109934325D01*
X164351738Y-110535040D01*
X164581138Y-111090229D01*
X164852000Y-111361565D01*
X164852000Y-116349637D01*
X164736435Y-116465000D01*
X132062141Y-116465000D01*
X131666463Y-116068630D01*
X131111675Y-115838262D01*
X130510960Y-115837738D01*
X129955771Y-116067138D01*
X129530630Y-116491537D01*
X129300262Y-117046325D01*
X129299738Y-117647040D01*
X129529138Y-118202229D01*
X129953537Y-118627370D01*
X130508325Y-118857738D01*
X131109040Y-118858262D01*
X131664229Y-118628862D01*
X131808343Y-118485000D01*
X140491234Y-118485000D01*
X140452630Y-118523537D01*
X140222262Y-119078325D01*
X140221738Y-119679040D01*
X140451138Y-120234229D01*
X140875537Y-120659370D01*
X141430325Y-120889738D01*
X142031040Y-120890262D01*
X142586229Y-120660862D01*
X142857565Y-120390000D01*
X166757000Y-120390000D01*
X166757000Y-120679234D01*
X166718463Y-120640630D01*
X166163675Y-120410262D01*
X165562960Y-120409738D01*
X165007771Y-120639138D01*
X164582630Y-121063537D01*
X164352262Y-121618325D01*
X164351738Y-122219040D01*
X164581138Y-122774229D01*
X164852000Y-123045565D01*
X164852000Y-130250551D01*
X164753771Y-130291138D01*
X164328630Y-130715537D01*
X164098262Y-131270325D01*
X164097738Y-131871040D01*
X164327138Y-132426229D01*
X164751537Y-132851370D01*
X164852000Y-132893086D01*
X164852000Y-145631644D01*
X164173644Y-146310000D01*
X149969363Y-146310000D01*
X149700463Y-146040630D01*
X149145675Y-145810262D01*
X148544960Y-145809738D01*
X147989771Y-146039138D01*
X147718435Y-146310000D01*
X132697363Y-146310000D01*
X132428463Y-146040630D01*
X131873675Y-145810262D01*
X131272960Y-145809738D01*
X130717771Y-146039138D01*
X130292630Y-146463537D01*
X130062262Y-147018325D01*
X130061738Y-147619040D01*
X130291138Y-148174229D01*
X130715537Y-148599370D01*
X131270325Y-148829738D01*
X131871040Y-148830262D01*
X132426229Y-148600862D01*
X132697565Y-148330000D01*
X138078456Y-148330000D01*
X137912630Y-148495537D01*
X137682262Y-149050325D01*
X137681738Y-149651040D01*
X137820554Y-149987000D01*
X107823000Y-149987000D01*
X107823000Y-133649040D01*
X128029738Y-133649040D01*
X128259138Y-134204229D01*
X128683537Y-134629370D01*
X129238325Y-134859738D01*
X129839040Y-134860262D01*
X130394229Y-134630862D01*
X130819370Y-134206463D01*
X131049738Y-133651675D01*
X131050262Y-133050960D01*
X130820862Y-132495771D01*
X130396463Y-132070630D01*
X129841675Y-131840262D01*
X129240960Y-131839738D01*
X128685771Y-132069138D01*
X128260630Y-132493537D01*
X128030262Y-133048325D01*
X128029738Y-133649040D01*
X107823000Y-133649040D01*
X107823000Y-93980000D01*
X116426655Y-93980000D01*
X116540729Y-94553489D01*
X116865585Y-95039670D01*
X117180366Y-95250000D01*
X116865585Y-95460330D01*
X116540729Y-95946511D01*
X116426655Y-96520000D01*
X116540729Y-97093489D01*
X116865585Y-97579670D01*
X117180366Y-97790000D01*
X116865585Y-98000330D01*
X116540729Y-98486511D01*
X116426655Y-99060000D01*
X116540729Y-99633489D01*
X116865585Y-100119670D01*
X117180366Y-100330000D01*
X116865585Y-100540330D01*
X116540729Y-101026511D01*
X116426655Y-101600000D01*
X116540729Y-102173489D01*
X116865585Y-102659670D01*
X117180366Y-102870000D01*
X116865585Y-103080330D01*
X116540729Y-103566511D01*
X116426655Y-104140000D01*
X116540729Y-104713489D01*
X116865585Y-105199670D01*
X117180366Y-105410000D01*
X116865585Y-105620330D01*
X116540729Y-106106511D01*
X116426655Y-106680000D01*
X116540729Y-107253489D01*
X116865585Y-107739670D01*
X117180366Y-107950000D01*
X116865585Y-108160330D01*
X116540729Y-108646511D01*
X116426655Y-109220000D01*
X116540729Y-109793489D01*
X116865585Y-110279670D01*
X117180366Y-110490000D01*
X116865585Y-110700330D01*
X116540729Y-111186511D01*
X116426655Y-111760000D01*
X116540729Y-112333489D01*
X116865585Y-112819670D01*
X117180366Y-113030000D01*
X116865585Y-113240330D01*
X116540729Y-113726511D01*
X116426655Y-114300000D01*
X116540729Y-114873489D01*
X116865585Y-115359670D01*
X117351766Y-115684526D01*
X117925255Y-115798600D01*
X118294745Y-115798600D01*
X118868234Y-115684526D01*
X119354415Y-115359670D01*
X119679271Y-114873489D01*
X119793345Y-114300000D01*
X119679271Y-113726511D01*
X119354415Y-113240330D01*
X119039634Y-113030000D01*
X119354415Y-112819670D01*
X119679271Y-112333489D01*
X119793345Y-111760000D01*
X119679271Y-111186511D01*
X119354415Y-110700330D01*
X119039634Y-110490000D01*
X119354415Y-110279670D01*
X119679271Y-109793489D01*
X119793345Y-109220000D01*
X119679271Y-108646511D01*
X119354415Y-108160330D01*
X119039634Y-107950000D01*
X119354415Y-107739670D01*
X119679271Y-107253489D01*
X119793345Y-106680000D01*
X119679271Y-106106511D01*
X119354415Y-105620330D01*
X119039634Y-105410000D01*
X119354415Y-105199670D01*
X119679271Y-104713489D01*
X119793345Y-104140000D01*
X119679271Y-103566511D01*
X119354415Y-103080330D01*
X119039634Y-102870000D01*
X119354415Y-102659670D01*
X119679271Y-102173489D01*
X119793345Y-101600000D01*
X119679271Y-101026511D01*
X119354415Y-100540330D01*
X119039634Y-100330000D01*
X119354415Y-100119670D01*
X119679271Y-99633489D01*
X119793345Y-99060000D01*
X119679271Y-98486511D01*
X119354415Y-98000330D01*
X119039634Y-97790000D01*
X119354415Y-97579670D01*
X119679271Y-97093489D01*
X119793345Y-96520000D01*
X119679271Y-95946511D01*
X119354415Y-95460330D01*
X119039634Y-95250000D01*
X119354415Y-95039670D01*
X119679271Y-94553489D01*
X119793345Y-93980000D01*
X119679271Y-93406511D01*
X119354415Y-92920330D01*
X119044931Y-92713539D01*
X119460732Y-92342036D01*
X119714709Y-91814791D01*
X119717358Y-91799026D01*
X119596217Y-91567000D01*
X118237000Y-91567000D01*
X118237000Y-91587000D01*
X117983000Y-91587000D01*
X117983000Y-91567000D01*
X116623783Y-91567000D01*
X116502642Y-91799026D01*
X116505291Y-91814791D01*
X116759268Y-92342036D01*
X117175069Y-92713539D01*
X116865585Y-92920330D01*
X116540729Y-93406511D01*
X116426655Y-93980000D01*
X107823000Y-93980000D01*
X107823000Y-88900000D01*
X116426655Y-88900000D01*
X116540729Y-89473489D01*
X116865585Y-89959670D01*
X117175069Y-90166461D01*
X116759268Y-90537964D01*
X116505291Y-91065209D01*
X116502642Y-91080974D01*
X116623783Y-91313000D01*
X117983000Y-91313000D01*
X117983000Y-91293000D01*
X118237000Y-91293000D01*
X118237000Y-91313000D01*
X119596217Y-91313000D01*
X119717358Y-91080974D01*
X119714709Y-91065209D01*
X119460732Y-90537964D01*
X119044931Y-90166461D01*
X119354415Y-89959670D01*
X119679271Y-89473489D01*
X119793345Y-88900000D01*
X119679271Y-88326511D01*
X119354415Y-87840330D01*
X119340087Y-87830757D01*
X119361317Y-87826762D01*
X119577441Y-87687690D01*
X119722431Y-87475490D01*
X119773440Y-87223600D01*
X119773440Y-85496400D01*
X119729162Y-85261083D01*
X119590090Y-85044959D01*
X119377890Y-84899969D01*
X119126000Y-84848960D01*
X117094000Y-84848960D01*
X116858683Y-84893238D01*
X116642559Y-85032310D01*
X116497569Y-85244510D01*
X116446560Y-85496400D01*
X116446560Y-87223600D01*
X116490838Y-87458917D01*
X116629910Y-87675041D01*
X116842110Y-87820031D01*
X116883439Y-87828400D01*
X116865585Y-87840330D01*
X116540729Y-88326511D01*
X116426655Y-88900000D01*
X107823000Y-88900000D01*
X107823000Y-82931000D01*
X175641000Y-82931000D01*
X175641000Y-149987000D01*
X175641000Y-149987000D01*
G37*
X175641000Y-149987000D02*
X167139607Y-149987000D01*
X167211178Y-149939178D01*
X168481178Y-148669178D01*
X168700118Y-148341510D01*
X168777000Y-147955000D01*
X168777000Y-138920363D01*
X169046370Y-138651463D01*
X169276738Y-138096675D01*
X169277262Y-137495960D01*
X169047862Y-136940771D01*
X168777000Y-136669435D01*
X168777000Y-130538585D01*
X168919370Y-130396463D01*
X169149738Y-129841675D01*
X169150262Y-129240960D01*
X168920862Y-128685771D01*
X168777000Y-128541657D01*
X168777000Y-119380931D01*
X168798755Y-109688867D01*
X168919370Y-109568463D01*
X169149738Y-109013675D01*
X169150262Y-108412960D01*
X168920862Y-107857771D01*
X168799393Y-107736090D01*
X168777000Y-94486885D01*
X168777000Y-87503000D01*
X168700118Y-87116490D01*
X168481178Y-86788822D01*
X167338178Y-85645822D01*
X167010510Y-85426882D01*
X166624000Y-85350000D01*
X123045363Y-85350000D01*
X122776463Y-85080630D01*
X122221675Y-84850262D01*
X121620960Y-84849738D01*
X121065771Y-85079138D01*
X120640630Y-85503537D01*
X120410262Y-86058325D01*
X120409738Y-86659040D01*
X120639138Y-87214229D01*
X121054536Y-87630353D01*
X120640630Y-88043537D01*
X120410262Y-88598325D01*
X120409738Y-89199040D01*
X120639138Y-89754229D01*
X121063537Y-90179370D01*
X121618325Y-90409738D01*
X122219040Y-90410262D01*
X122774229Y-90180862D01*
X123199370Y-89756463D01*
X123399291Y-89275000D01*
X164046644Y-89275000D01*
X164852000Y-90080356D01*
X164852000Y-95868413D01*
X164674882Y-96133490D01*
X164598000Y-96520000D01*
X164674882Y-96906510D01*
X164852000Y-97171587D01*
X164852000Y-109110637D01*
X164582630Y-109379537D01*
X164352262Y-109934325D01*
X164351738Y-110535040D01*
X164581138Y-111090229D01*
X164852000Y-111361565D01*
X164852000Y-116349637D01*
X164736435Y-116465000D01*
X132062141Y-116465000D01*
X131666463Y-116068630D01*
X131111675Y-115838262D01*
X130510960Y-115837738D01*
X129955771Y-116067138D01*
X129530630Y-116491537D01*
X129300262Y-117046325D01*
X129299738Y-117647040D01*
X129529138Y-118202229D01*
X129953537Y-118627370D01*
X130508325Y-118857738D01*
X131109040Y-118858262D01*
X131664229Y-118628862D01*
X131808343Y-118485000D01*
X140491234Y-118485000D01*
X140452630Y-118523537D01*
X140222262Y-119078325D01*
X140221738Y-119679040D01*
X140451138Y-120234229D01*
X140875537Y-120659370D01*
X141430325Y-120889738D01*
X142031040Y-120890262D01*
X142586229Y-120660862D01*
X142857565Y-120390000D01*
X166757000Y-120390000D01*
X166757000Y-120679234D01*
X166718463Y-120640630D01*
X166163675Y-120410262D01*
X165562960Y-120409738D01*
X165007771Y-120639138D01*
X164582630Y-121063537D01*
X164352262Y-121618325D01*
X164351738Y-122219040D01*
X164581138Y-122774229D01*
X164852000Y-123045565D01*
X164852000Y-130250551D01*
X164753771Y-130291138D01*
X164328630Y-130715537D01*
X164098262Y-131270325D01*
X164097738Y-131871040D01*
X164327138Y-132426229D01*
X164751537Y-132851370D01*
X164852000Y-132893086D01*
X164852000Y-145631644D01*
X164173644Y-146310000D01*
X149969363Y-146310000D01*
X149700463Y-146040630D01*
X149145675Y-145810262D01*
X148544960Y-145809738D01*
X147989771Y-146039138D01*
X147718435Y-146310000D01*
X132697363Y-146310000D01*
X132428463Y-146040630D01*
X131873675Y-145810262D01*
X131272960Y-145809738D01*
X130717771Y-146039138D01*
X130292630Y-146463537D01*
X130062262Y-147018325D01*
X130061738Y-147619040D01*
X130291138Y-148174229D01*
X130715537Y-148599370D01*
X131270325Y-148829738D01*
X131871040Y-148830262D01*
X132426229Y-148600862D01*
X132697565Y-148330000D01*
X138078456Y-148330000D01*
X137912630Y-148495537D01*
X137682262Y-149050325D01*
X137681738Y-149651040D01*
X137820554Y-149987000D01*
X107823000Y-149987000D01*
X107823000Y-133649040D01*
X128029738Y-133649040D01*
X128259138Y-134204229D01*
X128683537Y-134629370D01*
X129238325Y-134859738D01*
X129839040Y-134860262D01*
X130394229Y-134630862D01*
X130819370Y-134206463D01*
X131049738Y-133651675D01*
X131050262Y-133050960D01*
X130820862Y-132495771D01*
X130396463Y-132070630D01*
X129841675Y-131840262D01*
X129240960Y-131839738D01*
X128685771Y-132069138D01*
X128260630Y-132493537D01*
X128030262Y-133048325D01*
X128029738Y-133649040D01*
X107823000Y-133649040D01*
X107823000Y-93980000D01*
X116426655Y-93980000D01*
X116540729Y-94553489D01*
X116865585Y-95039670D01*
X117180366Y-95250000D01*
X116865585Y-95460330D01*
X116540729Y-95946511D01*
X116426655Y-96520000D01*
X116540729Y-97093489D01*
X116865585Y-97579670D01*
X117180366Y-97790000D01*
X116865585Y-98000330D01*
X116540729Y-98486511D01*
X116426655Y-99060000D01*
X116540729Y-99633489D01*
X116865585Y-100119670D01*
X117180366Y-100330000D01*
X116865585Y-100540330D01*
X116540729Y-101026511D01*
X116426655Y-101600000D01*
X116540729Y-102173489D01*
X116865585Y-102659670D01*
X117180366Y-102870000D01*
X116865585Y-103080330D01*
X116540729Y-103566511D01*
X116426655Y-104140000D01*
X116540729Y-104713489D01*
X116865585Y-105199670D01*
X117180366Y-105410000D01*
X116865585Y-105620330D01*
X116540729Y-106106511D01*
X116426655Y-106680000D01*
X116540729Y-107253489D01*
X116865585Y-107739670D01*
X117180366Y-107950000D01*
X116865585Y-108160330D01*
X116540729Y-108646511D01*
X116426655Y-109220000D01*
X116540729Y-109793489D01*
X116865585Y-110279670D01*
X117180366Y-110490000D01*
X116865585Y-110700330D01*
X116540729Y-111186511D01*
X116426655Y-111760000D01*
X116540729Y-112333489D01*
X116865585Y-112819670D01*
X117180366Y-113030000D01*
X116865585Y-113240330D01*
X116540729Y-113726511D01*
X116426655Y-114300000D01*
X116540729Y-114873489D01*
X116865585Y-115359670D01*
X117351766Y-115684526D01*
X117925255Y-115798600D01*
X118294745Y-115798600D01*
X118868234Y-115684526D01*
X119354415Y-115359670D01*
X119679271Y-114873489D01*
X119793345Y-114300000D01*
X119679271Y-113726511D01*
X119354415Y-113240330D01*
X119039634Y-113030000D01*
X119354415Y-112819670D01*
X119679271Y-112333489D01*
X119793345Y-111760000D01*
X119679271Y-111186511D01*
X119354415Y-110700330D01*
X119039634Y-110490000D01*
X119354415Y-110279670D01*
X119679271Y-109793489D01*
X119793345Y-109220000D01*
X119679271Y-108646511D01*
X119354415Y-108160330D01*
X119039634Y-107950000D01*
X119354415Y-107739670D01*
X119679271Y-107253489D01*
X119793345Y-106680000D01*
X119679271Y-106106511D01*
X119354415Y-105620330D01*
X119039634Y-105410000D01*
X119354415Y-105199670D01*
X119679271Y-104713489D01*
X119793345Y-104140000D01*
X119679271Y-103566511D01*
X119354415Y-103080330D01*
X119039634Y-102870000D01*
X119354415Y-102659670D01*
X119679271Y-102173489D01*
X119793345Y-101600000D01*
X119679271Y-101026511D01*
X119354415Y-100540330D01*
X119039634Y-100330000D01*
X119354415Y-100119670D01*
X119679271Y-99633489D01*
X119793345Y-99060000D01*
X119679271Y-98486511D01*
X119354415Y-98000330D01*
X119039634Y-97790000D01*
X119354415Y-97579670D01*
X119679271Y-97093489D01*
X119793345Y-96520000D01*
X119679271Y-95946511D01*
X119354415Y-95460330D01*
X119039634Y-95250000D01*
X119354415Y-95039670D01*
X119679271Y-94553489D01*
X119793345Y-93980000D01*
X119679271Y-93406511D01*
X119354415Y-92920330D01*
X119044931Y-92713539D01*
X119460732Y-92342036D01*
X119714709Y-91814791D01*
X119717358Y-91799026D01*
X119596217Y-91567000D01*
X118237000Y-91567000D01*
X118237000Y-91587000D01*
X117983000Y-91587000D01*
X117983000Y-91567000D01*
X116623783Y-91567000D01*
X116502642Y-91799026D01*
X116505291Y-91814791D01*
X116759268Y-92342036D01*
X117175069Y-92713539D01*
X116865585Y-92920330D01*
X116540729Y-93406511D01*
X116426655Y-93980000D01*
X107823000Y-93980000D01*
X107823000Y-88900000D01*
X116426655Y-88900000D01*
X116540729Y-89473489D01*
X116865585Y-89959670D01*
X117175069Y-90166461D01*
X116759268Y-90537964D01*
X116505291Y-91065209D01*
X116502642Y-91080974D01*
X116623783Y-91313000D01*
X117983000Y-91313000D01*
X117983000Y-91293000D01*
X118237000Y-91293000D01*
X118237000Y-91313000D01*
X119596217Y-91313000D01*
X119717358Y-91080974D01*
X119714709Y-91065209D01*
X119460732Y-90537964D01*
X119044931Y-90166461D01*
X119354415Y-89959670D01*
X119679271Y-89473489D01*
X119793345Y-88900000D01*
X119679271Y-88326511D01*
X119354415Y-87840330D01*
X119340087Y-87830757D01*
X119361317Y-87826762D01*
X119577441Y-87687690D01*
X119722431Y-87475490D01*
X119773440Y-87223600D01*
X119773440Y-85496400D01*
X119729162Y-85261083D01*
X119590090Y-85044959D01*
X119377890Y-84899969D01*
X119126000Y-84848960D01*
X117094000Y-84848960D01*
X116858683Y-84893238D01*
X116642559Y-85032310D01*
X116497569Y-85244510D01*
X116446560Y-85496400D01*
X116446560Y-87223600D01*
X116490838Y-87458917D01*
X116629910Y-87675041D01*
X116842110Y-87820031D01*
X116883439Y-87828400D01*
X116865585Y-87840330D01*
X116540729Y-88326511D01*
X116426655Y-88900000D01*
X107823000Y-88900000D01*
X107823000Y-82931000D01*
X175641000Y-82931000D01*
X175641000Y-149987000D01*
M02*
