G04 #@! TF.FileFunction,Copper,L2,Bot,Signal*
%FSLAX46Y46*%
G04 Gerber Fmt 4.6, Leading zero omitted, Abs format (unit mm)*
G04 Created by KiCad (PCBNEW 4.0.4+dfsg1-stable) date Thu Oct 20 15:02:09 2016*
%MOMM*%
%LPD*%
G01*
G04 APERTURE LIST*
%ADD10C,0.100000*%
%ADD11R,2.032000X1.727200*%
%ADD12O,2.032000X1.727200*%
%ADD13C,1.500000*%
%ADD14C,0.750000*%
%ADD15C,0.500000*%
%ADD16C,0.254000*%
G04 APERTURE END LIST*
D10*
D11*
X118745000Y-85725000D03*
D12*
X118745000Y-88265000D03*
X118745000Y-90805000D03*
X118745000Y-93345000D03*
X118745000Y-95885000D03*
X118745000Y-98425000D03*
X118745000Y-100965000D03*
X118745000Y-103505000D03*
X118745000Y-106045000D03*
X118745000Y-108585000D03*
X118745000Y-111125000D03*
X118745000Y-113665000D03*
D13*
X173228000Y-106680000D03*
X173355000Y-124079000D03*
X139192000Y-119126000D03*
X138303000Y-149606000D03*
X173228000Y-136271000D03*
X173228000Y-88900000D03*
X121920000Y-85725000D03*
X171831000Y-97536000D03*
X123190000Y-88265000D03*
X157512000Y-117380000D03*
X171577000Y-131191000D03*
X171831000Y-117221000D03*
X157988000Y-148082000D03*
X171831000Y-121920000D03*
X130048000Y-148082000D03*
X128016000Y-117475000D03*
X129413000Y-132588000D03*
X129794000Y-107696000D03*
X135636000Y-143510000D03*
X164846000Y-133096000D03*
X164846000Y-145034000D03*
X169037000Y-141478000D03*
X169418000Y-129413000D03*
X165354000Y-95758000D03*
X165608000Y-113284000D03*
X121920000Y-90805000D03*
X130048000Y-114935000D03*
X126873000Y-145415000D03*
X140970000Y-145415000D03*
X154305000Y-91440000D03*
X150241000Y-91313000D03*
X154940000Y-108585000D03*
X150114000Y-108585000D03*
X149860000Y-129794000D03*
X154686000Y-130048000D03*
X154686000Y-141605000D03*
X150241000Y-141605000D03*
D14*
X173228000Y-136271000D02*
X173228000Y-147828000D01*
X173228000Y-147828000D02*
X171450000Y-149606000D01*
X165989000Y-118999000D02*
X173101000Y-118999000D01*
X173101000Y-118999000D02*
X173228000Y-118872000D01*
X173228000Y-118110000D02*
X173228000Y-118872000D01*
X173228000Y-118872000D02*
X173228000Y-123952000D01*
X173228000Y-123952000D02*
X173355000Y-124079000D01*
X173228000Y-106680000D02*
X173228000Y-118110000D01*
X173228000Y-118110000D02*
X173228000Y-119380000D01*
X163957000Y-80645000D02*
X171958000Y-80645000D01*
X171958000Y-80645000D02*
X172085000Y-80772000D01*
X173228000Y-88900000D02*
X173228000Y-81915000D01*
X173228000Y-81915000D02*
X172085000Y-80772000D01*
X172085000Y-80772000D02*
X172339000Y-81026000D01*
X173355000Y-124079000D02*
X173228000Y-124079000D01*
X173228000Y-124079000D02*
X173355000Y-124079000D01*
X173355000Y-124079000D02*
X173228000Y-124079000D01*
X173228000Y-124079000D02*
X173228000Y-136271000D01*
X139192000Y-119126000D02*
X139192000Y-118999000D01*
X139192000Y-118999000D02*
X139192000Y-119126000D01*
X139192000Y-119126000D02*
X139192000Y-118999000D01*
X166243000Y-118999000D02*
X165989000Y-118999000D01*
X165989000Y-118999000D02*
X165862000Y-118999000D01*
X165862000Y-118999000D02*
X139192000Y-118999000D01*
X138303000Y-149606000D02*
X136398000Y-149606000D01*
X136398000Y-149733000D02*
X136398000Y-149606000D01*
X136398000Y-149606000D02*
X136398000Y-149733000D01*
X136398000Y-149733000D02*
X136398000Y-149606000D01*
X171450000Y-149606000D02*
X138303000Y-149606000D01*
X121920000Y-80645000D02*
X163957000Y-80645000D01*
X163957000Y-80645000D02*
X165100000Y-80645000D01*
X121920000Y-85725000D02*
X121920000Y-80645000D01*
X173228000Y-101600000D02*
X173228000Y-88900000D01*
X173228000Y-101600000D02*
X173228000Y-106680000D01*
X171831000Y-116205000D02*
X171577000Y-116205000D01*
X171577000Y-116205000D02*
X170307000Y-117475000D01*
X171831000Y-100330000D02*
X171831000Y-97536000D01*
X171831000Y-117221000D02*
X171831000Y-116205000D01*
X171831000Y-116205000D02*
X171831000Y-100330000D01*
X171831000Y-97536000D02*
X171831000Y-82819998D01*
X165989000Y-81915000D02*
X170434000Y-81915000D01*
X123190000Y-81915000D02*
X165989000Y-81915000D01*
D15*
X123190000Y-88265000D02*
X123190000Y-81915000D01*
D14*
X170926002Y-81915000D02*
X171831000Y-82819998D01*
X170434000Y-81915000D02*
X170926002Y-81915000D01*
X157480000Y-117475000D02*
X157480000Y-117412000D01*
X157480000Y-117412000D02*
X157512000Y-117380000D01*
X154940000Y-117475000D02*
X157480000Y-117475000D01*
X157480000Y-117475000D02*
X170307000Y-117475000D01*
X170307000Y-117475000D02*
X171577000Y-117475000D01*
X171577000Y-117475000D02*
X171831000Y-117221000D01*
X171831000Y-131191000D02*
X171831000Y-130937000D01*
X171577000Y-131191000D02*
X171831000Y-131191000D01*
X171831000Y-130048000D02*
X171831000Y-147320000D01*
X171069000Y-148082000D02*
X170688000Y-148082000D01*
X171831000Y-147320000D02*
X171069000Y-148082000D01*
X171577000Y-117475000D02*
X171831000Y-117221000D01*
X171831000Y-121920000D02*
X171831000Y-130048000D01*
X171831000Y-130048000D02*
X171831000Y-130937000D01*
X171831000Y-130937000D02*
X171704000Y-131064000D01*
X171831000Y-117221000D02*
X171958000Y-117348000D01*
X171704000Y-122047000D02*
X171831000Y-121920000D01*
X157226000Y-148082000D02*
X130048000Y-148082000D01*
X128016000Y-117475000D02*
X154940000Y-117475000D01*
X154940000Y-117475000D02*
X155067000Y-117475000D01*
X171704000Y-131064000D02*
X171577000Y-131064000D01*
X171577000Y-131064000D02*
X171704000Y-131064000D01*
X171704000Y-131064000D02*
X171577000Y-131064000D01*
X170688000Y-148082000D02*
X157988000Y-148082000D01*
X157988000Y-148082000D02*
X157226000Y-148082000D01*
X157226000Y-148082000D02*
X156210000Y-148082000D01*
X155067000Y-117475000D02*
X154432000Y-117475000D01*
X135636000Y-143510000D02*
X135509000Y-143510000D01*
X164846000Y-133096000D02*
X164846000Y-132969000D01*
X169037000Y-141478000D02*
X168910000Y-141478000D01*
X169418000Y-129413000D02*
X169291000Y-129413000D01*
X140970000Y-145415000D02*
X126873000Y-145415000D01*
X119380000Y-96520000D02*
X118745000Y-95885000D01*
X119380000Y-98425000D02*
X118745000Y-98425000D01*
X154178000Y-91313000D02*
X150241000Y-91313000D01*
X154305000Y-91440000D02*
X154178000Y-91313000D01*
X154940000Y-108585000D02*
X150114000Y-108585000D01*
X154432000Y-129794000D02*
X149860000Y-129794000D01*
X154686000Y-130048000D02*
X154432000Y-129794000D01*
X154686000Y-141605000D02*
X150241000Y-141605000D01*
D16*
G36*
X120910000Y-80645000D02*
X120910000Y-84776260D01*
X120746539Y-84939436D01*
X120535241Y-85448298D01*
X120534760Y-85999285D01*
X120745169Y-86508515D01*
X121134436Y-86898461D01*
X121643298Y-87109759D01*
X122194285Y-87110240D01*
X122305000Y-87064494D01*
X122305000Y-87191477D01*
X122016539Y-87479436D01*
X121805241Y-87988298D01*
X121804760Y-88539285D01*
X122015169Y-89048515D01*
X122404436Y-89438461D01*
X122913298Y-89649759D01*
X123464285Y-89650240D01*
X123973515Y-89439831D01*
X124363461Y-89050564D01*
X124574759Y-88541702D01*
X124575240Y-87990715D01*
X124364831Y-87481485D01*
X124075000Y-87191148D01*
X124075000Y-82925000D01*
X170507646Y-82925000D01*
X170821000Y-83238354D01*
X170821000Y-96587260D01*
X170657539Y-96750436D01*
X170446241Y-97259298D01*
X170445760Y-97810285D01*
X170656169Y-98319515D01*
X170821000Y-98484634D01*
X170821000Y-115532644D01*
X169888644Y-116465000D01*
X158555575Y-116465000D01*
X158297564Y-116206539D01*
X157788702Y-115995241D01*
X157237715Y-115994760D01*
X156728485Y-116205169D01*
X156468201Y-116465000D01*
X128964740Y-116465000D01*
X128801564Y-116301539D01*
X128292702Y-116090241D01*
X127741715Y-116089760D01*
X127232485Y-116300169D01*
X126842539Y-116689436D01*
X126631241Y-117198298D01*
X126630760Y-117749285D01*
X126841169Y-118258515D01*
X127230436Y-118648461D01*
X127739298Y-118859759D01*
X128290285Y-118860240D01*
X128799515Y-118649831D01*
X128964634Y-118485000D01*
X137958511Y-118485000D01*
X137807241Y-118849298D01*
X137806760Y-119400285D01*
X138017169Y-119909515D01*
X138406436Y-120299461D01*
X138915298Y-120510759D01*
X139466285Y-120511240D01*
X139975515Y-120300831D01*
X140267855Y-120009000D01*
X172218000Y-120009000D01*
X172218000Y-120581041D01*
X172107702Y-120535241D01*
X171556715Y-120534760D01*
X171047485Y-120745169D01*
X170657539Y-121134436D01*
X170446241Y-121643298D01*
X170445760Y-122194285D01*
X170656169Y-122703515D01*
X170821000Y-122868634D01*
X170821000Y-130004800D01*
X170793485Y-130016169D01*
X170403539Y-130405436D01*
X170192241Y-130914298D01*
X170191760Y-131465285D01*
X170402169Y-131974515D01*
X170791436Y-132364461D01*
X170821000Y-132376737D01*
X170821000Y-146901644D01*
X170650644Y-147072000D01*
X158936740Y-147072000D01*
X158773564Y-146908539D01*
X158264702Y-146697241D01*
X157713715Y-146696760D01*
X157204485Y-146907169D01*
X157039366Y-147072000D01*
X130996740Y-147072000D01*
X130833564Y-146908539D01*
X130324702Y-146697241D01*
X129773715Y-146696760D01*
X129264485Y-146907169D01*
X128874539Y-147296436D01*
X128663241Y-147805298D01*
X128662760Y-148356285D01*
X128873169Y-148865515D01*
X129262436Y-149255461D01*
X129771298Y-149466759D01*
X130322285Y-149467240D01*
X130831515Y-149256831D01*
X130996634Y-149092000D01*
X135550068Y-149092000D01*
X135464882Y-149219490D01*
X135388000Y-149606000D01*
X135388000Y-149733000D01*
X135438524Y-149987000D01*
X107823000Y-149987000D01*
X107823000Y-145689285D01*
X125487760Y-145689285D01*
X125698169Y-146198515D01*
X126087436Y-146588461D01*
X126596298Y-146799759D01*
X127147285Y-146800240D01*
X127656515Y-146589831D01*
X127821634Y-146425000D01*
X140021260Y-146425000D01*
X140184436Y-146588461D01*
X140693298Y-146799759D01*
X141244285Y-146800240D01*
X141753515Y-146589831D01*
X142143461Y-146200564D01*
X142354759Y-145691702D01*
X142355240Y-145140715D01*
X142144831Y-144631485D01*
X141755564Y-144241539D01*
X141246702Y-144030241D01*
X140695715Y-144029760D01*
X140186485Y-144240169D01*
X140021366Y-144405000D01*
X127821740Y-144405000D01*
X127658564Y-144241539D01*
X127149702Y-144030241D01*
X126598715Y-144029760D01*
X126089485Y-144240169D01*
X125699539Y-144629436D01*
X125488241Y-145138298D01*
X125487760Y-145689285D01*
X107823000Y-145689285D01*
X107823000Y-141879285D01*
X148855760Y-141879285D01*
X149066169Y-142388515D01*
X149455436Y-142778461D01*
X149964298Y-142989759D01*
X150515285Y-142990240D01*
X151024515Y-142779831D01*
X151189634Y-142615000D01*
X153737260Y-142615000D01*
X153900436Y-142778461D01*
X154409298Y-142989759D01*
X154960285Y-142990240D01*
X155469515Y-142779831D01*
X155859461Y-142390564D01*
X156070759Y-141881702D01*
X156071240Y-141330715D01*
X155860831Y-140821485D01*
X155471564Y-140431539D01*
X154962702Y-140220241D01*
X154411715Y-140219760D01*
X153902485Y-140430169D01*
X153737366Y-140595000D01*
X151189740Y-140595000D01*
X151026564Y-140431539D01*
X150517702Y-140220241D01*
X149966715Y-140219760D01*
X149457485Y-140430169D01*
X149067539Y-140819436D01*
X148856241Y-141328298D01*
X148855760Y-141879285D01*
X107823000Y-141879285D01*
X107823000Y-130068285D01*
X148474760Y-130068285D01*
X148685169Y-130577515D01*
X149074436Y-130967461D01*
X149583298Y-131178759D01*
X150134285Y-131179240D01*
X150643515Y-130968831D01*
X150808634Y-130804000D01*
X153499800Y-130804000D01*
X153511169Y-130831515D01*
X153900436Y-131221461D01*
X154409298Y-131432759D01*
X154960285Y-131433240D01*
X155469515Y-131222831D01*
X155859461Y-130833564D01*
X156070759Y-130324702D01*
X156071240Y-129773715D01*
X155860831Y-129264485D01*
X155471564Y-128874539D01*
X154962702Y-128663241D01*
X154411715Y-128662760D01*
X154118291Y-128784000D01*
X150808740Y-128784000D01*
X150645564Y-128620539D01*
X150136702Y-128409241D01*
X149585715Y-128408760D01*
X149076485Y-128619169D01*
X148686539Y-129008436D01*
X148475241Y-129517298D01*
X148474760Y-130068285D01*
X107823000Y-130068285D01*
X107823000Y-93345000D01*
X117061655Y-93345000D01*
X117175729Y-93918489D01*
X117500585Y-94404670D01*
X117815366Y-94615000D01*
X117500585Y-94825330D01*
X117175729Y-95311511D01*
X117061655Y-95885000D01*
X117175729Y-96458489D01*
X117500585Y-96944670D01*
X117815366Y-97155000D01*
X117500585Y-97365330D01*
X117175729Y-97851511D01*
X117061655Y-98425000D01*
X117175729Y-98998489D01*
X117500585Y-99484670D01*
X117815366Y-99695000D01*
X117500585Y-99905330D01*
X117175729Y-100391511D01*
X117061655Y-100965000D01*
X117175729Y-101538489D01*
X117500585Y-102024670D01*
X117815366Y-102235000D01*
X117500585Y-102445330D01*
X117175729Y-102931511D01*
X117061655Y-103505000D01*
X117175729Y-104078489D01*
X117500585Y-104564670D01*
X117815366Y-104775000D01*
X117500585Y-104985330D01*
X117175729Y-105471511D01*
X117061655Y-106045000D01*
X117175729Y-106618489D01*
X117500585Y-107104670D01*
X117815366Y-107315000D01*
X117500585Y-107525330D01*
X117175729Y-108011511D01*
X117061655Y-108585000D01*
X117175729Y-109158489D01*
X117500585Y-109644670D01*
X117815366Y-109855000D01*
X117500585Y-110065330D01*
X117175729Y-110551511D01*
X117061655Y-111125000D01*
X117175729Y-111698489D01*
X117500585Y-112184670D01*
X117815366Y-112395000D01*
X117500585Y-112605330D01*
X117175729Y-113091511D01*
X117061655Y-113665000D01*
X117175729Y-114238489D01*
X117500585Y-114724670D01*
X117986766Y-115049526D01*
X118560255Y-115163600D01*
X118929745Y-115163600D01*
X119503234Y-115049526D01*
X119989415Y-114724670D01*
X120314271Y-114238489D01*
X120428345Y-113665000D01*
X120314271Y-113091511D01*
X119989415Y-112605330D01*
X119674634Y-112395000D01*
X119989415Y-112184670D01*
X120314271Y-111698489D01*
X120428345Y-111125000D01*
X120314271Y-110551511D01*
X119989415Y-110065330D01*
X119674634Y-109855000D01*
X119989415Y-109644670D01*
X120314271Y-109158489D01*
X120373786Y-108859285D01*
X148728760Y-108859285D01*
X148939169Y-109368515D01*
X149328436Y-109758461D01*
X149837298Y-109969759D01*
X150388285Y-109970240D01*
X150897515Y-109759831D01*
X151062634Y-109595000D01*
X153991260Y-109595000D01*
X154154436Y-109758461D01*
X154663298Y-109969759D01*
X155214285Y-109970240D01*
X155723515Y-109759831D01*
X156113461Y-109370564D01*
X156324759Y-108861702D01*
X156325240Y-108310715D01*
X156114831Y-107801485D01*
X155725564Y-107411539D01*
X155216702Y-107200241D01*
X154665715Y-107199760D01*
X154156485Y-107410169D01*
X153991366Y-107575000D01*
X151062740Y-107575000D01*
X150899564Y-107411539D01*
X150390702Y-107200241D01*
X149839715Y-107199760D01*
X149330485Y-107410169D01*
X148940539Y-107799436D01*
X148729241Y-108308298D01*
X148728760Y-108859285D01*
X120373786Y-108859285D01*
X120428345Y-108585000D01*
X120314271Y-108011511D01*
X119989415Y-107525330D01*
X119674634Y-107315000D01*
X119989415Y-107104670D01*
X120314271Y-106618489D01*
X120428345Y-106045000D01*
X120314271Y-105471511D01*
X119989415Y-104985330D01*
X119674634Y-104775000D01*
X119989415Y-104564670D01*
X120314271Y-104078489D01*
X120428345Y-103505000D01*
X120314271Y-102931511D01*
X119989415Y-102445330D01*
X119674634Y-102235000D01*
X119989415Y-102024670D01*
X120314271Y-101538489D01*
X120428345Y-100965000D01*
X120314271Y-100391511D01*
X119989415Y-99905330D01*
X119674634Y-99695000D01*
X119989415Y-99484670D01*
X120314271Y-98998489D01*
X120428345Y-98425000D01*
X120314271Y-97851511D01*
X119989415Y-97365330D01*
X119943655Y-97334754D01*
X120094178Y-97234178D01*
X120313118Y-96906510D01*
X120390000Y-96520000D01*
X120346018Y-96298887D01*
X120428345Y-95885000D01*
X120314271Y-95311511D01*
X119989415Y-94825330D01*
X119674634Y-94615000D01*
X119989415Y-94404670D01*
X120314271Y-93918489D01*
X120428345Y-93345000D01*
X120314271Y-92771511D01*
X119989415Y-92285330D01*
X119679931Y-92078539D01*
X120095732Y-91707036D01*
X120153416Y-91587285D01*
X148855760Y-91587285D01*
X149066169Y-92096515D01*
X149455436Y-92486461D01*
X149964298Y-92697759D01*
X150515285Y-92698240D01*
X151024515Y-92487831D01*
X151189634Y-92323000D01*
X153229481Y-92323000D01*
X153519436Y-92613461D01*
X154028298Y-92824759D01*
X154579285Y-92825240D01*
X155088515Y-92614831D01*
X155478461Y-92225564D01*
X155689759Y-91716702D01*
X155690240Y-91165715D01*
X155479831Y-90656485D01*
X155090564Y-90266539D01*
X154581702Y-90055241D01*
X154030715Y-90054760D01*
X153521485Y-90265169D01*
X153483588Y-90303000D01*
X151189740Y-90303000D01*
X151026564Y-90139539D01*
X150517702Y-89928241D01*
X149966715Y-89927760D01*
X149457485Y-90138169D01*
X149067539Y-90527436D01*
X148856241Y-91036298D01*
X148855760Y-91587285D01*
X120153416Y-91587285D01*
X120349709Y-91179791D01*
X120352358Y-91164026D01*
X120231217Y-90932000D01*
X118872000Y-90932000D01*
X118872000Y-90952000D01*
X118618000Y-90952000D01*
X118618000Y-90932000D01*
X117258783Y-90932000D01*
X117137642Y-91164026D01*
X117140291Y-91179791D01*
X117394268Y-91707036D01*
X117810069Y-92078539D01*
X117500585Y-92285330D01*
X117175729Y-92771511D01*
X117061655Y-93345000D01*
X107823000Y-93345000D01*
X107823000Y-88265000D01*
X117061655Y-88265000D01*
X117175729Y-88838489D01*
X117500585Y-89324670D01*
X117810069Y-89531461D01*
X117394268Y-89902964D01*
X117140291Y-90430209D01*
X117137642Y-90445974D01*
X117258783Y-90678000D01*
X118618000Y-90678000D01*
X118618000Y-90658000D01*
X118872000Y-90658000D01*
X118872000Y-90678000D01*
X120231217Y-90678000D01*
X120352358Y-90445974D01*
X120349709Y-90430209D01*
X120095732Y-89902964D01*
X119679931Y-89531461D01*
X119989415Y-89324670D01*
X120314271Y-88838489D01*
X120428345Y-88265000D01*
X120314271Y-87691511D01*
X119989415Y-87205330D01*
X119975087Y-87195757D01*
X119996317Y-87191762D01*
X120212441Y-87052690D01*
X120357431Y-86840490D01*
X120408440Y-86588600D01*
X120408440Y-84861400D01*
X120364162Y-84626083D01*
X120225090Y-84409959D01*
X120012890Y-84264969D01*
X119761000Y-84213960D01*
X117729000Y-84213960D01*
X117493683Y-84258238D01*
X117277559Y-84397310D01*
X117132569Y-84609510D01*
X117081560Y-84861400D01*
X117081560Y-86588600D01*
X117125838Y-86823917D01*
X117264910Y-87040041D01*
X117477110Y-87185031D01*
X117518439Y-87193400D01*
X117500585Y-87205330D01*
X117175729Y-87691511D01*
X117061655Y-88265000D01*
X107823000Y-88265000D01*
X107823000Y-80391000D01*
X120960524Y-80391000D01*
X120910000Y-80645000D01*
X120910000Y-80645000D01*
G37*
X120910000Y-80645000D02*
X120910000Y-84776260D01*
X120746539Y-84939436D01*
X120535241Y-85448298D01*
X120534760Y-85999285D01*
X120745169Y-86508515D01*
X121134436Y-86898461D01*
X121643298Y-87109759D01*
X122194285Y-87110240D01*
X122305000Y-87064494D01*
X122305000Y-87191477D01*
X122016539Y-87479436D01*
X121805241Y-87988298D01*
X121804760Y-88539285D01*
X122015169Y-89048515D01*
X122404436Y-89438461D01*
X122913298Y-89649759D01*
X123464285Y-89650240D01*
X123973515Y-89439831D01*
X124363461Y-89050564D01*
X124574759Y-88541702D01*
X124575240Y-87990715D01*
X124364831Y-87481485D01*
X124075000Y-87191148D01*
X124075000Y-82925000D01*
X170507646Y-82925000D01*
X170821000Y-83238354D01*
X170821000Y-96587260D01*
X170657539Y-96750436D01*
X170446241Y-97259298D01*
X170445760Y-97810285D01*
X170656169Y-98319515D01*
X170821000Y-98484634D01*
X170821000Y-115532644D01*
X169888644Y-116465000D01*
X158555575Y-116465000D01*
X158297564Y-116206539D01*
X157788702Y-115995241D01*
X157237715Y-115994760D01*
X156728485Y-116205169D01*
X156468201Y-116465000D01*
X128964740Y-116465000D01*
X128801564Y-116301539D01*
X128292702Y-116090241D01*
X127741715Y-116089760D01*
X127232485Y-116300169D01*
X126842539Y-116689436D01*
X126631241Y-117198298D01*
X126630760Y-117749285D01*
X126841169Y-118258515D01*
X127230436Y-118648461D01*
X127739298Y-118859759D01*
X128290285Y-118860240D01*
X128799515Y-118649831D01*
X128964634Y-118485000D01*
X137958511Y-118485000D01*
X137807241Y-118849298D01*
X137806760Y-119400285D01*
X138017169Y-119909515D01*
X138406436Y-120299461D01*
X138915298Y-120510759D01*
X139466285Y-120511240D01*
X139975515Y-120300831D01*
X140267855Y-120009000D01*
X172218000Y-120009000D01*
X172218000Y-120581041D01*
X172107702Y-120535241D01*
X171556715Y-120534760D01*
X171047485Y-120745169D01*
X170657539Y-121134436D01*
X170446241Y-121643298D01*
X170445760Y-122194285D01*
X170656169Y-122703515D01*
X170821000Y-122868634D01*
X170821000Y-130004800D01*
X170793485Y-130016169D01*
X170403539Y-130405436D01*
X170192241Y-130914298D01*
X170191760Y-131465285D01*
X170402169Y-131974515D01*
X170791436Y-132364461D01*
X170821000Y-132376737D01*
X170821000Y-146901644D01*
X170650644Y-147072000D01*
X158936740Y-147072000D01*
X158773564Y-146908539D01*
X158264702Y-146697241D01*
X157713715Y-146696760D01*
X157204485Y-146907169D01*
X157039366Y-147072000D01*
X130996740Y-147072000D01*
X130833564Y-146908539D01*
X130324702Y-146697241D01*
X129773715Y-146696760D01*
X129264485Y-146907169D01*
X128874539Y-147296436D01*
X128663241Y-147805298D01*
X128662760Y-148356285D01*
X128873169Y-148865515D01*
X129262436Y-149255461D01*
X129771298Y-149466759D01*
X130322285Y-149467240D01*
X130831515Y-149256831D01*
X130996634Y-149092000D01*
X135550068Y-149092000D01*
X135464882Y-149219490D01*
X135388000Y-149606000D01*
X135388000Y-149733000D01*
X135438524Y-149987000D01*
X107823000Y-149987000D01*
X107823000Y-145689285D01*
X125487760Y-145689285D01*
X125698169Y-146198515D01*
X126087436Y-146588461D01*
X126596298Y-146799759D01*
X127147285Y-146800240D01*
X127656515Y-146589831D01*
X127821634Y-146425000D01*
X140021260Y-146425000D01*
X140184436Y-146588461D01*
X140693298Y-146799759D01*
X141244285Y-146800240D01*
X141753515Y-146589831D01*
X142143461Y-146200564D01*
X142354759Y-145691702D01*
X142355240Y-145140715D01*
X142144831Y-144631485D01*
X141755564Y-144241539D01*
X141246702Y-144030241D01*
X140695715Y-144029760D01*
X140186485Y-144240169D01*
X140021366Y-144405000D01*
X127821740Y-144405000D01*
X127658564Y-144241539D01*
X127149702Y-144030241D01*
X126598715Y-144029760D01*
X126089485Y-144240169D01*
X125699539Y-144629436D01*
X125488241Y-145138298D01*
X125487760Y-145689285D01*
X107823000Y-145689285D01*
X107823000Y-141879285D01*
X148855760Y-141879285D01*
X149066169Y-142388515D01*
X149455436Y-142778461D01*
X149964298Y-142989759D01*
X150515285Y-142990240D01*
X151024515Y-142779831D01*
X151189634Y-142615000D01*
X153737260Y-142615000D01*
X153900436Y-142778461D01*
X154409298Y-142989759D01*
X154960285Y-142990240D01*
X155469515Y-142779831D01*
X155859461Y-142390564D01*
X156070759Y-141881702D01*
X156071240Y-141330715D01*
X155860831Y-140821485D01*
X155471564Y-140431539D01*
X154962702Y-140220241D01*
X154411715Y-140219760D01*
X153902485Y-140430169D01*
X153737366Y-140595000D01*
X151189740Y-140595000D01*
X151026564Y-140431539D01*
X150517702Y-140220241D01*
X149966715Y-140219760D01*
X149457485Y-140430169D01*
X149067539Y-140819436D01*
X148856241Y-141328298D01*
X148855760Y-141879285D01*
X107823000Y-141879285D01*
X107823000Y-130068285D01*
X148474760Y-130068285D01*
X148685169Y-130577515D01*
X149074436Y-130967461D01*
X149583298Y-131178759D01*
X150134285Y-131179240D01*
X150643515Y-130968831D01*
X150808634Y-130804000D01*
X153499800Y-130804000D01*
X153511169Y-130831515D01*
X153900436Y-131221461D01*
X154409298Y-131432759D01*
X154960285Y-131433240D01*
X155469515Y-131222831D01*
X155859461Y-130833564D01*
X156070759Y-130324702D01*
X156071240Y-129773715D01*
X155860831Y-129264485D01*
X155471564Y-128874539D01*
X154962702Y-128663241D01*
X154411715Y-128662760D01*
X154118291Y-128784000D01*
X150808740Y-128784000D01*
X150645564Y-128620539D01*
X150136702Y-128409241D01*
X149585715Y-128408760D01*
X149076485Y-128619169D01*
X148686539Y-129008436D01*
X148475241Y-129517298D01*
X148474760Y-130068285D01*
X107823000Y-130068285D01*
X107823000Y-93345000D01*
X117061655Y-93345000D01*
X117175729Y-93918489D01*
X117500585Y-94404670D01*
X117815366Y-94615000D01*
X117500585Y-94825330D01*
X117175729Y-95311511D01*
X117061655Y-95885000D01*
X117175729Y-96458489D01*
X117500585Y-96944670D01*
X117815366Y-97155000D01*
X117500585Y-97365330D01*
X117175729Y-97851511D01*
X117061655Y-98425000D01*
X117175729Y-98998489D01*
X117500585Y-99484670D01*
X117815366Y-99695000D01*
X117500585Y-99905330D01*
X117175729Y-100391511D01*
X117061655Y-100965000D01*
X117175729Y-101538489D01*
X117500585Y-102024670D01*
X117815366Y-102235000D01*
X117500585Y-102445330D01*
X117175729Y-102931511D01*
X117061655Y-103505000D01*
X117175729Y-104078489D01*
X117500585Y-104564670D01*
X117815366Y-104775000D01*
X117500585Y-104985330D01*
X117175729Y-105471511D01*
X117061655Y-106045000D01*
X117175729Y-106618489D01*
X117500585Y-107104670D01*
X117815366Y-107315000D01*
X117500585Y-107525330D01*
X117175729Y-108011511D01*
X117061655Y-108585000D01*
X117175729Y-109158489D01*
X117500585Y-109644670D01*
X117815366Y-109855000D01*
X117500585Y-110065330D01*
X117175729Y-110551511D01*
X117061655Y-111125000D01*
X117175729Y-111698489D01*
X117500585Y-112184670D01*
X117815366Y-112395000D01*
X117500585Y-112605330D01*
X117175729Y-113091511D01*
X117061655Y-113665000D01*
X117175729Y-114238489D01*
X117500585Y-114724670D01*
X117986766Y-115049526D01*
X118560255Y-115163600D01*
X118929745Y-115163600D01*
X119503234Y-115049526D01*
X119989415Y-114724670D01*
X120314271Y-114238489D01*
X120428345Y-113665000D01*
X120314271Y-113091511D01*
X119989415Y-112605330D01*
X119674634Y-112395000D01*
X119989415Y-112184670D01*
X120314271Y-111698489D01*
X120428345Y-111125000D01*
X120314271Y-110551511D01*
X119989415Y-110065330D01*
X119674634Y-109855000D01*
X119989415Y-109644670D01*
X120314271Y-109158489D01*
X120373786Y-108859285D01*
X148728760Y-108859285D01*
X148939169Y-109368515D01*
X149328436Y-109758461D01*
X149837298Y-109969759D01*
X150388285Y-109970240D01*
X150897515Y-109759831D01*
X151062634Y-109595000D01*
X153991260Y-109595000D01*
X154154436Y-109758461D01*
X154663298Y-109969759D01*
X155214285Y-109970240D01*
X155723515Y-109759831D01*
X156113461Y-109370564D01*
X156324759Y-108861702D01*
X156325240Y-108310715D01*
X156114831Y-107801485D01*
X155725564Y-107411539D01*
X155216702Y-107200241D01*
X154665715Y-107199760D01*
X154156485Y-107410169D01*
X153991366Y-107575000D01*
X151062740Y-107575000D01*
X150899564Y-107411539D01*
X150390702Y-107200241D01*
X149839715Y-107199760D01*
X149330485Y-107410169D01*
X148940539Y-107799436D01*
X148729241Y-108308298D01*
X148728760Y-108859285D01*
X120373786Y-108859285D01*
X120428345Y-108585000D01*
X120314271Y-108011511D01*
X119989415Y-107525330D01*
X119674634Y-107315000D01*
X119989415Y-107104670D01*
X120314271Y-106618489D01*
X120428345Y-106045000D01*
X120314271Y-105471511D01*
X119989415Y-104985330D01*
X119674634Y-104775000D01*
X119989415Y-104564670D01*
X120314271Y-104078489D01*
X120428345Y-103505000D01*
X120314271Y-102931511D01*
X119989415Y-102445330D01*
X119674634Y-102235000D01*
X119989415Y-102024670D01*
X120314271Y-101538489D01*
X120428345Y-100965000D01*
X120314271Y-100391511D01*
X119989415Y-99905330D01*
X119674634Y-99695000D01*
X119989415Y-99484670D01*
X120314271Y-98998489D01*
X120428345Y-98425000D01*
X120314271Y-97851511D01*
X119989415Y-97365330D01*
X119943655Y-97334754D01*
X120094178Y-97234178D01*
X120313118Y-96906510D01*
X120390000Y-96520000D01*
X120346018Y-96298887D01*
X120428345Y-95885000D01*
X120314271Y-95311511D01*
X119989415Y-94825330D01*
X119674634Y-94615000D01*
X119989415Y-94404670D01*
X120314271Y-93918489D01*
X120428345Y-93345000D01*
X120314271Y-92771511D01*
X119989415Y-92285330D01*
X119679931Y-92078539D01*
X120095732Y-91707036D01*
X120153416Y-91587285D01*
X148855760Y-91587285D01*
X149066169Y-92096515D01*
X149455436Y-92486461D01*
X149964298Y-92697759D01*
X150515285Y-92698240D01*
X151024515Y-92487831D01*
X151189634Y-92323000D01*
X153229481Y-92323000D01*
X153519436Y-92613461D01*
X154028298Y-92824759D01*
X154579285Y-92825240D01*
X155088515Y-92614831D01*
X155478461Y-92225564D01*
X155689759Y-91716702D01*
X155690240Y-91165715D01*
X155479831Y-90656485D01*
X155090564Y-90266539D01*
X154581702Y-90055241D01*
X154030715Y-90054760D01*
X153521485Y-90265169D01*
X153483588Y-90303000D01*
X151189740Y-90303000D01*
X151026564Y-90139539D01*
X150517702Y-89928241D01*
X149966715Y-89927760D01*
X149457485Y-90138169D01*
X149067539Y-90527436D01*
X148856241Y-91036298D01*
X148855760Y-91587285D01*
X120153416Y-91587285D01*
X120349709Y-91179791D01*
X120352358Y-91164026D01*
X120231217Y-90932000D01*
X118872000Y-90932000D01*
X118872000Y-90952000D01*
X118618000Y-90952000D01*
X118618000Y-90932000D01*
X117258783Y-90932000D01*
X117137642Y-91164026D01*
X117140291Y-91179791D01*
X117394268Y-91707036D01*
X117810069Y-92078539D01*
X117500585Y-92285330D01*
X117175729Y-92771511D01*
X117061655Y-93345000D01*
X107823000Y-93345000D01*
X107823000Y-88265000D01*
X117061655Y-88265000D01*
X117175729Y-88838489D01*
X117500585Y-89324670D01*
X117810069Y-89531461D01*
X117394268Y-89902964D01*
X117140291Y-90430209D01*
X117137642Y-90445974D01*
X117258783Y-90678000D01*
X118618000Y-90678000D01*
X118618000Y-90658000D01*
X118872000Y-90658000D01*
X118872000Y-90678000D01*
X120231217Y-90678000D01*
X120352358Y-90445974D01*
X120349709Y-90430209D01*
X120095732Y-89902964D01*
X119679931Y-89531461D01*
X119989415Y-89324670D01*
X120314271Y-88838489D01*
X120428345Y-88265000D01*
X120314271Y-87691511D01*
X119989415Y-87205330D01*
X119975087Y-87195757D01*
X119996317Y-87191762D01*
X120212441Y-87052690D01*
X120357431Y-86840490D01*
X120408440Y-86588600D01*
X120408440Y-84861400D01*
X120364162Y-84626083D01*
X120225090Y-84409959D01*
X120012890Y-84264969D01*
X119761000Y-84213960D01*
X117729000Y-84213960D01*
X117493683Y-84258238D01*
X117277559Y-84397310D01*
X117132569Y-84609510D01*
X117081560Y-84861400D01*
X117081560Y-86588600D01*
X117125838Y-86823917D01*
X117264910Y-87040041D01*
X117477110Y-87185031D01*
X117518439Y-87193400D01*
X117500585Y-87205330D01*
X117175729Y-87691511D01*
X117061655Y-88265000D01*
X107823000Y-88265000D01*
X107823000Y-80391000D01*
X120960524Y-80391000D01*
X120910000Y-80645000D01*
M02*
