G04 #@! TF.FileFunction,Other,User*
%FSLAX46Y46*%
G04 Gerber Fmt 4.6, Leading zero omitted, Abs format (unit mm)*
G04 Created by KiCad (PCBNEW 4.0.4+dfsg1-stable) date Fri Jan 20 23:08:29 2017*
%MOMM*%
%LPD*%
G01*
G04 APERTURE LIST*
%ADD10C,0.100000*%
%ADD11C,0.050000*%
G04 APERTURE END LIST*
D10*
D11*
X53264000Y-36956000D02*
X53264000Y-33656000D01*
X53264000Y-33656000D02*
X56464000Y-33656000D01*
X56464000Y-33656000D02*
X56464000Y-36956000D01*
X56464000Y-36956000D02*
X53264000Y-36956000D01*
X52056000Y-41014000D02*
X56656000Y-41014000D01*
X52056000Y-43314000D02*
X56656000Y-43314000D01*
X52056000Y-41014000D02*
X52056000Y-43314000D01*
X56656000Y-41014000D02*
X56656000Y-43314000D01*
X112282000Y-52204000D02*
X107682000Y-52204000D01*
X112282000Y-49904000D02*
X107682000Y-49904000D01*
X112282000Y-52204000D02*
X112282000Y-49904000D01*
X107682000Y-52204000D02*
X107682000Y-49904000D01*
X50172000Y-33514000D02*
X50172000Y-38114000D01*
X47872000Y-33514000D02*
X47872000Y-38114000D01*
X50172000Y-33514000D02*
X47872000Y-33514000D01*
X50172000Y-38114000D02*
X47872000Y-38114000D01*
X51188000Y-47230000D02*
X51188000Y-51830000D01*
X48888000Y-47230000D02*
X48888000Y-51830000D01*
X51188000Y-47230000D02*
X48888000Y-47230000D01*
X51188000Y-51830000D02*
X48888000Y-51830000D01*
X118498000Y-42404000D02*
X118498000Y-47004000D01*
X116198000Y-42404000D02*
X116198000Y-47004000D01*
X118498000Y-42404000D02*
X116198000Y-42404000D01*
X118498000Y-47004000D02*
X116198000Y-47004000D01*
X80030000Y-40664000D02*
X90130000Y-40664000D01*
X80030000Y-43664000D02*
X80030000Y-40664000D01*
X90130000Y-40664000D02*
X90130000Y-43664000D01*
X80030000Y-43664000D02*
X90130000Y-43664000D01*
X56556000Y-40062000D02*
X52156000Y-40062000D01*
X56556000Y-37662000D02*
X52156000Y-37662000D01*
X56556000Y-40062000D02*
X56556000Y-37662000D01*
X52156000Y-40062000D02*
X52156000Y-37662000D01*
X57474000Y-38014000D02*
X57474000Y-33614000D01*
X59874000Y-38014000D02*
X59874000Y-33614000D01*
X57474000Y-38014000D02*
X59874000Y-38014000D01*
X57474000Y-33614000D02*
X59874000Y-33614000D01*
X52368000Y-52010000D02*
X57868000Y-52010000D01*
X52368000Y-44510000D02*
X57868000Y-44510000D01*
X52368000Y-52010000D02*
X52368000Y-44510000D01*
X57868000Y-52010000D02*
X57868000Y-44510000D01*
X109518000Y-48200000D02*
X115018000Y-48200000D01*
X109518000Y-40700000D02*
X115018000Y-40700000D01*
X109518000Y-48200000D02*
X109518000Y-40700000D01*
X115018000Y-48200000D02*
X115018000Y-40700000D01*
X42192000Y-34064000D02*
X42192000Y-52814000D01*
X45692000Y-34064000D02*
X45692000Y-52814000D01*
X42192000Y-34064000D02*
X45692000Y-34064000D01*
X42192000Y-52814000D02*
X45692000Y-52814000D01*
X109906000Y-38480000D02*
X109906000Y-35180000D01*
X109906000Y-35180000D02*
X113106000Y-35180000D01*
X113106000Y-35180000D02*
X113106000Y-38480000D01*
X113106000Y-38480000D02*
X109906000Y-38480000D01*
X48076000Y-43856000D02*
X48076000Y-39456000D01*
X50476000Y-43856000D02*
X50476000Y-39456000D01*
X48076000Y-43856000D02*
X50476000Y-43856000D01*
X48076000Y-39456000D02*
X50476000Y-39456000D01*
M02*
