G04 #@! TF.FileFunction,Copper,L2,Inr,Signal*
%FSLAX46Y46*%
G04 Gerber Fmt 4.6, Leading zero omitted, Abs format (unit mm)*
G04 Created by KiCad (PCBNEW 4.0.4+dfsg1-stable) date Sun Jan 22 20:41:02 2017*
%MOMM*%
%LPD*%
G01*
G04 APERTURE LIST*
%ADD10C,0.100000*%
%ADD11R,2.032000X1.727200*%
%ADD12O,2.032000X1.727200*%
%ADD13C,1.524000*%
%ADD14O,1.501140X2.499360*%
%ADD15R,1.727200X2.032000*%
%ADD16O,1.727200X2.032000*%
%ADD17R,2.235200X2.235200*%
%ADD18R,1.300000X1.300000*%
%ADD19C,1.300000*%
%ADD20C,1.000000*%
%ADD21C,0.254000*%
G04 APERTURE END LIST*
D10*
D11*
X43942000Y-35814000D03*
D12*
X43942000Y-38354000D03*
X43942000Y-40894000D03*
X43942000Y-43434000D03*
X43942000Y-45974000D03*
X43942000Y-48514000D03*
X43942000Y-51054000D03*
D13*
X70866000Y-41148000D03*
X73406000Y-43688000D03*
X68326000Y-43688000D03*
D14*
X72898000Y-35052000D03*
X67818000Y-35052000D03*
X67818000Y-49022000D03*
X72898000Y-49022000D03*
X122428000Y-34036000D03*
X117348000Y-34036000D03*
X122428000Y-39624000D03*
X117348000Y-39624000D03*
X122428000Y-51308000D03*
X117348000Y-51308000D03*
D13*
X119380000Y-44704000D03*
X121920000Y-47244000D03*
X116840000Y-47244000D03*
X91821000Y-41910000D03*
X94488000Y-44704000D03*
X97028000Y-41910000D03*
X94488000Y-39243000D03*
X96266000Y-40005000D03*
D11*
X43942000Y-62992000D03*
D12*
X43942000Y-65532000D03*
X43942000Y-68072000D03*
X43942000Y-70612000D03*
X43942000Y-73152000D03*
X43942000Y-75692000D03*
X43942000Y-78232000D03*
X43942000Y-80772000D03*
X43942000Y-83312000D03*
X43942000Y-85852000D03*
X43942000Y-88392000D03*
X43942000Y-90932000D03*
X43942000Y-93472000D03*
X43942000Y-96012000D03*
X43942000Y-98552000D03*
D15*
X93980000Y-95250000D03*
D16*
X96520000Y-95250000D03*
X99060000Y-95250000D03*
D14*
X72898000Y-92710000D03*
X67818000Y-92710000D03*
X67818000Y-99822000D03*
X72898000Y-99822000D03*
X76708000Y-72644000D03*
X71628000Y-72644000D03*
D17*
X86360000Y-68326000D03*
D18*
X86614000Y-72898000D03*
D19*
X81614000Y-72898000D03*
D20*
X51562000Y-62484000D03*
X59690000Y-93726000D03*
X115316000Y-73660000D03*
X111252000Y-81280000D03*
X94234000Y-81280000D03*
X80518000Y-81280000D03*
X66040000Y-81280000D03*
X127254000Y-36322000D03*
X126238000Y-40894000D03*
X54102000Y-52578000D03*
X54864000Y-31750000D03*
X57658000Y-31750000D03*
X54864000Y-62484000D03*
X76200000Y-88900000D03*
X120396000Y-88900000D03*
X106172000Y-86614000D03*
X55118000Y-77470000D03*
X90424000Y-88900000D03*
X135636000Y-48768000D03*
X52070000Y-31750000D03*
X60960000Y-53594000D03*
X50800000Y-38608000D03*
X106172000Y-89154000D03*
X54864000Y-70612000D03*
X56642000Y-96774000D03*
X120396000Y-81280000D03*
X111252000Y-88646000D03*
X86360000Y-90170000D03*
X103632000Y-81280000D03*
X94234000Y-88900000D03*
X75946000Y-81280000D03*
X71882000Y-89916000D03*
X90424000Y-81280000D03*
X80518000Y-88900000D03*
X55118000Y-79756000D03*
X57150000Y-74676000D03*
X66040000Y-88900000D03*
X135636000Y-51054000D03*
X126238000Y-49276000D03*
X64516000Y-44450000D03*
X135636000Y-40894000D03*
X54102000Y-44958000D03*
X64516000Y-89408000D03*
X59944000Y-89408000D03*
X96266000Y-85852000D03*
X96520000Y-79502000D03*
X96266000Y-90170000D03*
X81280000Y-78232000D03*
X58928000Y-85598000D03*
X66040000Y-77978000D03*
X85090000Y-85852000D03*
X99568000Y-79502000D03*
X99060000Y-92202000D03*
X50800000Y-85598000D03*
X55626000Y-85598000D03*
X49530000Y-84074000D03*
X61214000Y-84074000D03*
X50546000Y-80518000D03*
X46990000Y-88646000D03*
X52832000Y-90932000D03*
X60452000Y-90932000D03*
X66040000Y-75692000D03*
X61722000Y-79502000D03*
D21*
G36*
X138557000Y-104267000D02*
X41529000Y-104267000D01*
X41529000Y-98911026D01*
X42334642Y-98911026D01*
X42337291Y-98926791D01*
X42591268Y-99454036D01*
X43027680Y-99843954D01*
X43580087Y-100037184D01*
X43815000Y-99892924D01*
X43815000Y-98679000D01*
X44069000Y-98679000D01*
X44069000Y-99892924D01*
X44303913Y-100037184D01*
X44856320Y-99843954D01*
X45292732Y-99454036D01*
X45373691Y-99285967D01*
X66432430Y-99285967D01*
X66432430Y-100358033D01*
X66537900Y-100888268D01*
X66838254Y-101337779D01*
X67287765Y-101638133D01*
X67818000Y-101743603D01*
X68348235Y-101638133D01*
X68797746Y-101337779D01*
X69098100Y-100888268D01*
X69203570Y-100358033D01*
X69203570Y-99285967D01*
X71512430Y-99285967D01*
X71512430Y-100358033D01*
X71617900Y-100888268D01*
X71918254Y-101337779D01*
X72367765Y-101638133D01*
X72898000Y-101743603D01*
X73428235Y-101638133D01*
X73877746Y-101337779D01*
X74178100Y-100888268D01*
X74283570Y-100358033D01*
X74283570Y-99285967D01*
X74178100Y-98755732D01*
X73877746Y-98306221D01*
X73428235Y-98005867D01*
X72898000Y-97900397D01*
X72367765Y-98005867D01*
X71918254Y-98306221D01*
X71617900Y-98755732D01*
X71512430Y-99285967D01*
X69203570Y-99285967D01*
X69098100Y-98755732D01*
X68797746Y-98306221D01*
X68348235Y-98005867D01*
X67818000Y-97900397D01*
X67287765Y-98005867D01*
X66838254Y-98306221D01*
X66537900Y-98755732D01*
X66432430Y-99285967D01*
X45373691Y-99285967D01*
X45546709Y-98926791D01*
X45549358Y-98911026D01*
X45428217Y-98679000D01*
X44069000Y-98679000D01*
X43815000Y-98679000D01*
X42455783Y-98679000D01*
X42334642Y-98911026D01*
X41529000Y-98911026D01*
X41529000Y-96371026D01*
X42334642Y-96371026D01*
X42337291Y-96386791D01*
X42591268Y-96914036D01*
X43003108Y-97282000D01*
X42591268Y-97649964D01*
X42337291Y-98177209D01*
X42334642Y-98192974D01*
X42455783Y-98425000D01*
X43815000Y-98425000D01*
X43815000Y-96139000D01*
X44069000Y-96139000D01*
X44069000Y-98425000D01*
X45428217Y-98425000D01*
X45549358Y-98192974D01*
X45546709Y-98177209D01*
X45292732Y-97649964D01*
X44880892Y-97282000D01*
X45292732Y-96914036D01*
X45546709Y-96386791D01*
X45549358Y-96371026D01*
X45428217Y-96139000D01*
X44069000Y-96139000D01*
X43815000Y-96139000D01*
X42455783Y-96139000D01*
X42334642Y-96371026D01*
X41529000Y-96371026D01*
X41529000Y-80772000D01*
X42258655Y-80772000D01*
X42372729Y-81345489D01*
X42697585Y-81831670D01*
X43012366Y-82042000D01*
X42697585Y-82252330D01*
X42372729Y-82738511D01*
X42258655Y-83312000D01*
X42372729Y-83885489D01*
X42697585Y-84371670D01*
X43012366Y-84582000D01*
X42697585Y-84792330D01*
X42372729Y-85278511D01*
X42258655Y-85852000D01*
X42372729Y-86425489D01*
X42697585Y-86911670D01*
X43012366Y-87122000D01*
X42697585Y-87332330D01*
X42372729Y-87818511D01*
X42258655Y-88392000D01*
X42372729Y-88965489D01*
X42697585Y-89451670D01*
X43012366Y-89662000D01*
X42697585Y-89872330D01*
X42372729Y-90358511D01*
X42258655Y-90932000D01*
X42372729Y-91505489D01*
X42697585Y-91991670D01*
X43012366Y-92202000D01*
X42697585Y-92412330D01*
X42372729Y-92898511D01*
X42258655Y-93472000D01*
X42372729Y-94045489D01*
X42697585Y-94531670D01*
X43007069Y-94738461D01*
X42591268Y-95109964D01*
X42337291Y-95637209D01*
X42334642Y-95652974D01*
X42455783Y-95885000D01*
X43815000Y-95885000D01*
X43815000Y-95865000D01*
X44069000Y-95865000D01*
X44069000Y-95885000D01*
X45428217Y-95885000D01*
X45549358Y-95652974D01*
X45546709Y-95637209D01*
X45292732Y-95109964D01*
X44876931Y-94738461D01*
X45186415Y-94531670D01*
X45511271Y-94045489D01*
X45530110Y-93950775D01*
X58554803Y-93950775D01*
X58727233Y-94368086D01*
X59046235Y-94687645D01*
X59463244Y-94860803D01*
X59914775Y-94861197D01*
X60332086Y-94688767D01*
X60651645Y-94369765D01*
X60824803Y-93952756D01*
X60825197Y-93501225D01*
X60652767Y-93083914D01*
X60333765Y-92764355D01*
X59916756Y-92591197D01*
X59465225Y-92590803D01*
X59047914Y-92763233D01*
X58728355Y-93082235D01*
X58555197Y-93499244D01*
X58554803Y-93950775D01*
X45530110Y-93950775D01*
X45625345Y-93472000D01*
X45511271Y-92898511D01*
X45186415Y-92412330D01*
X44871634Y-92202000D01*
X44913588Y-92173967D01*
X66432430Y-92173967D01*
X66432430Y-93246033D01*
X66537900Y-93776268D01*
X66838254Y-94225779D01*
X67287765Y-94526133D01*
X67818000Y-94631603D01*
X68348235Y-94526133D01*
X68797746Y-94225779D01*
X69098100Y-93776268D01*
X69203570Y-93246033D01*
X69203570Y-92173967D01*
X71512430Y-92173967D01*
X71512430Y-93246033D01*
X71617900Y-93776268D01*
X71918254Y-94225779D01*
X72367765Y-94526133D01*
X72898000Y-94631603D01*
X73428235Y-94526133D01*
X73865442Y-94234000D01*
X92468960Y-94234000D01*
X92468960Y-96266000D01*
X92513238Y-96501317D01*
X92652310Y-96717441D01*
X92864510Y-96862431D01*
X93116400Y-96913440D01*
X94843600Y-96913440D01*
X95078917Y-96869162D01*
X95295041Y-96730090D01*
X95440031Y-96517890D01*
X95448400Y-96476561D01*
X95460330Y-96494415D01*
X95946511Y-96819271D01*
X96520000Y-96933345D01*
X97093489Y-96819271D01*
X97579670Y-96494415D01*
X97790000Y-96179634D01*
X98000330Y-96494415D01*
X98486511Y-96819271D01*
X99060000Y-96933345D01*
X99633489Y-96819271D01*
X100119670Y-96494415D01*
X100444526Y-96008234D01*
X100558600Y-95434745D01*
X100558600Y-95065255D01*
X100444526Y-94491766D01*
X100119670Y-94005585D01*
X99633489Y-93680729D01*
X99060000Y-93566655D01*
X98486511Y-93680729D01*
X98000330Y-94005585D01*
X97790000Y-94320366D01*
X97579670Y-94005585D01*
X97093489Y-93680729D01*
X96520000Y-93566655D01*
X95946511Y-93680729D01*
X95460330Y-94005585D01*
X95450757Y-94019913D01*
X95446762Y-93998683D01*
X95307690Y-93782559D01*
X95095490Y-93637569D01*
X94843600Y-93586560D01*
X93116400Y-93586560D01*
X92881083Y-93630838D01*
X92664959Y-93769910D01*
X92519969Y-93982110D01*
X92468960Y-94234000D01*
X73865442Y-94234000D01*
X73877746Y-94225779D01*
X74178100Y-93776268D01*
X74283570Y-93246033D01*
X74283570Y-92426775D01*
X97924803Y-92426775D01*
X98097233Y-92844086D01*
X98416235Y-93163645D01*
X98833244Y-93336803D01*
X99284775Y-93337197D01*
X99702086Y-93164767D01*
X100021645Y-92845765D01*
X100194803Y-92428756D01*
X100195197Y-91977225D01*
X100022767Y-91559914D01*
X99703765Y-91240355D01*
X99286756Y-91067197D01*
X98835225Y-91066803D01*
X98417914Y-91239233D01*
X98098355Y-91558235D01*
X97925197Y-91975244D01*
X97924803Y-92426775D01*
X74283570Y-92426775D01*
X74283570Y-92173967D01*
X74178100Y-91643732D01*
X73877746Y-91194221D01*
X73428235Y-90893867D01*
X72898000Y-90788397D01*
X72367765Y-90893867D01*
X71918254Y-91194221D01*
X71617900Y-91643732D01*
X71512430Y-92173967D01*
X69203570Y-92173967D01*
X69098100Y-91643732D01*
X68797746Y-91194221D01*
X68348235Y-90893867D01*
X67818000Y-90788397D01*
X67287765Y-90893867D01*
X66838254Y-91194221D01*
X66537900Y-91643732D01*
X66432430Y-92173967D01*
X44913588Y-92173967D01*
X45186415Y-91991670D01*
X45511271Y-91505489D01*
X45580634Y-91156775D01*
X51696803Y-91156775D01*
X51869233Y-91574086D01*
X52188235Y-91893645D01*
X52605244Y-92066803D01*
X53056775Y-92067197D01*
X53474086Y-91894767D01*
X53793645Y-91575765D01*
X53966803Y-91158756D01*
X53967197Y-90707225D01*
X53794767Y-90289914D01*
X53475765Y-89970355D01*
X53058756Y-89797197D01*
X52607225Y-89796803D01*
X52189914Y-89969233D01*
X51870355Y-90288235D01*
X51697197Y-90705244D01*
X51696803Y-91156775D01*
X45580634Y-91156775D01*
X45625345Y-90932000D01*
X45511271Y-90358511D01*
X45186415Y-89872330D01*
X44871634Y-89662000D01*
X45186415Y-89451670D01*
X45511271Y-88965489D01*
X45530110Y-88870775D01*
X45854803Y-88870775D01*
X46027233Y-89288086D01*
X46346235Y-89607645D01*
X46763244Y-89780803D01*
X47214775Y-89781197D01*
X47573982Y-89632775D01*
X58808803Y-89632775D01*
X58981233Y-90050086D01*
X59300235Y-90369645D01*
X59433562Y-90425007D01*
X59317197Y-90705244D01*
X59316803Y-91156775D01*
X59489233Y-91574086D01*
X59808235Y-91893645D01*
X60225244Y-92066803D01*
X60676775Y-92067197D01*
X61094086Y-91894767D01*
X61413645Y-91575765D01*
X61586803Y-91158756D01*
X61587197Y-90707225D01*
X61414767Y-90289914D01*
X61095765Y-89970355D01*
X60962438Y-89914993D01*
X61078803Y-89634756D01*
X61078804Y-89632775D01*
X63380803Y-89632775D01*
X63553233Y-90050086D01*
X63872235Y-90369645D01*
X64289244Y-90542803D01*
X64740775Y-90543197D01*
X65099982Y-90394775D01*
X95130803Y-90394775D01*
X95303233Y-90812086D01*
X95622235Y-91131645D01*
X96039244Y-91304803D01*
X96490775Y-91305197D01*
X96908086Y-91132767D01*
X97227645Y-90813765D01*
X97400803Y-90396756D01*
X97401197Y-89945225D01*
X97228767Y-89527914D01*
X96909765Y-89208355D01*
X96708483Y-89124775D01*
X119260803Y-89124775D01*
X119433233Y-89542086D01*
X119752235Y-89861645D01*
X120169244Y-90034803D01*
X120620775Y-90035197D01*
X121038086Y-89862767D01*
X121357645Y-89543765D01*
X121530803Y-89126756D01*
X121531197Y-88675225D01*
X121358767Y-88257914D01*
X121039765Y-87938355D01*
X120622756Y-87765197D01*
X120171225Y-87764803D01*
X119753914Y-87937233D01*
X119434355Y-88256235D01*
X119261197Y-88673244D01*
X119260803Y-89124775D01*
X96708483Y-89124775D01*
X96492756Y-89035197D01*
X96041225Y-89034803D01*
X95623914Y-89207233D01*
X95304355Y-89526235D01*
X95131197Y-89943244D01*
X95130803Y-90394775D01*
X65099982Y-90394775D01*
X65158086Y-90370767D01*
X65477645Y-90051765D01*
X65650803Y-89634756D01*
X65651197Y-89183225D01*
X65627046Y-89124775D01*
X75064803Y-89124775D01*
X75237233Y-89542086D01*
X75556235Y-89861645D01*
X75973244Y-90034803D01*
X76424775Y-90035197D01*
X76842086Y-89862767D01*
X77161645Y-89543765D01*
X77334803Y-89126756D01*
X77334804Y-89124775D01*
X89288803Y-89124775D01*
X89461233Y-89542086D01*
X89780235Y-89861645D01*
X90197244Y-90034803D01*
X90648775Y-90035197D01*
X91066086Y-89862767D01*
X91385645Y-89543765D01*
X91558803Y-89126756D01*
X91559197Y-88675225D01*
X91386767Y-88257914D01*
X91067765Y-87938355D01*
X90650756Y-87765197D01*
X90199225Y-87764803D01*
X89781914Y-87937233D01*
X89462355Y-88256235D01*
X89289197Y-88673244D01*
X89288803Y-89124775D01*
X77334804Y-89124775D01*
X77335197Y-88675225D01*
X77162767Y-88257914D01*
X76843765Y-87938355D01*
X76426756Y-87765197D01*
X75975225Y-87764803D01*
X75557914Y-87937233D01*
X75238355Y-88256235D01*
X75065197Y-88673244D01*
X75064803Y-89124775D01*
X65627046Y-89124775D01*
X65478767Y-88765914D01*
X65159765Y-88446355D01*
X64742756Y-88273197D01*
X64291225Y-88272803D01*
X63873914Y-88445233D01*
X63554355Y-88764235D01*
X63381197Y-89181244D01*
X63380803Y-89632775D01*
X61078804Y-89632775D01*
X61079197Y-89183225D01*
X60906767Y-88765914D01*
X60587765Y-88446355D01*
X60170756Y-88273197D01*
X59719225Y-88272803D01*
X59301914Y-88445233D01*
X58982355Y-88764235D01*
X58809197Y-89181244D01*
X58808803Y-89632775D01*
X47573982Y-89632775D01*
X47632086Y-89608767D01*
X47951645Y-89289765D01*
X48124803Y-88872756D01*
X48125197Y-88421225D01*
X47952767Y-88003914D01*
X47633765Y-87684355D01*
X47216756Y-87511197D01*
X46765225Y-87510803D01*
X46347914Y-87683233D01*
X46028355Y-88002235D01*
X45855197Y-88419244D01*
X45854803Y-88870775D01*
X45530110Y-88870775D01*
X45625345Y-88392000D01*
X45511271Y-87818511D01*
X45186415Y-87332330D01*
X44871634Y-87122000D01*
X45186415Y-86911670D01*
X45511271Y-86425489D01*
X45625345Y-85852000D01*
X45511271Y-85278511D01*
X45186415Y-84792330D01*
X44871634Y-84582000D01*
X45186415Y-84371670D01*
X45235121Y-84298775D01*
X48394803Y-84298775D01*
X48567233Y-84716086D01*
X48886235Y-85035645D01*
X49303244Y-85208803D01*
X49732493Y-85209178D01*
X49665197Y-85371244D01*
X49664803Y-85822775D01*
X49837233Y-86240086D01*
X50156235Y-86559645D01*
X50573244Y-86732803D01*
X51024775Y-86733197D01*
X51442086Y-86560767D01*
X51761645Y-86241765D01*
X51934803Y-85824756D01*
X51934804Y-85822775D01*
X54490803Y-85822775D01*
X54663233Y-86240086D01*
X54982235Y-86559645D01*
X55399244Y-86732803D01*
X55850775Y-86733197D01*
X56268086Y-86560767D01*
X56587645Y-86241765D01*
X56760803Y-85824756D01*
X56760804Y-85822775D01*
X57792803Y-85822775D01*
X57965233Y-86240086D01*
X58284235Y-86559645D01*
X58701244Y-86732803D01*
X59152775Y-86733197D01*
X59570086Y-86560767D01*
X59889645Y-86241765D01*
X59958155Y-86076775D01*
X83954803Y-86076775D01*
X84127233Y-86494086D01*
X84446235Y-86813645D01*
X84863244Y-86986803D01*
X85314775Y-86987197D01*
X85732086Y-86814767D01*
X86051645Y-86495765D01*
X86224803Y-86078756D01*
X86224804Y-86076775D01*
X95130803Y-86076775D01*
X95303233Y-86494086D01*
X95622235Y-86813645D01*
X96039244Y-86986803D01*
X96490775Y-86987197D01*
X96849982Y-86838775D01*
X105036803Y-86838775D01*
X105209233Y-87256086D01*
X105528235Y-87575645D01*
X105945244Y-87748803D01*
X106396775Y-87749197D01*
X106814086Y-87576767D01*
X107133645Y-87257765D01*
X107306803Y-86840756D01*
X107307197Y-86389225D01*
X107134767Y-85971914D01*
X106815765Y-85652355D01*
X106398756Y-85479197D01*
X105947225Y-85478803D01*
X105529914Y-85651233D01*
X105210355Y-85970235D01*
X105037197Y-86387244D01*
X105036803Y-86838775D01*
X96849982Y-86838775D01*
X96908086Y-86814767D01*
X97227645Y-86495765D01*
X97400803Y-86078756D01*
X97401197Y-85627225D01*
X97228767Y-85209914D01*
X96909765Y-84890355D01*
X96492756Y-84717197D01*
X96041225Y-84716803D01*
X95623914Y-84889233D01*
X95304355Y-85208235D01*
X95131197Y-85625244D01*
X95130803Y-86076775D01*
X86224804Y-86076775D01*
X86225197Y-85627225D01*
X86052767Y-85209914D01*
X85733765Y-84890355D01*
X85316756Y-84717197D01*
X84865225Y-84716803D01*
X84447914Y-84889233D01*
X84128355Y-85208235D01*
X83955197Y-85625244D01*
X83954803Y-86076775D01*
X59958155Y-86076775D01*
X60062803Y-85824756D01*
X60063197Y-85373225D01*
X59890767Y-84955914D01*
X59571765Y-84636355D01*
X59154756Y-84463197D01*
X58703225Y-84462803D01*
X58285914Y-84635233D01*
X57966355Y-84954235D01*
X57793197Y-85371244D01*
X57792803Y-85822775D01*
X56760804Y-85822775D01*
X56761197Y-85373225D01*
X56588767Y-84955914D01*
X56269765Y-84636355D01*
X55852756Y-84463197D01*
X55401225Y-84462803D01*
X54983914Y-84635233D01*
X54664355Y-84954235D01*
X54491197Y-85371244D01*
X54490803Y-85822775D01*
X51934804Y-85822775D01*
X51935197Y-85373225D01*
X51762767Y-84955914D01*
X51443765Y-84636355D01*
X51026756Y-84463197D01*
X50597507Y-84462822D01*
X50664803Y-84300756D01*
X50664804Y-84298775D01*
X60078803Y-84298775D01*
X60251233Y-84716086D01*
X60570235Y-85035645D01*
X60987244Y-85208803D01*
X61438775Y-85209197D01*
X61856086Y-85036767D01*
X62175645Y-84717765D01*
X62348803Y-84300756D01*
X62349197Y-83849225D01*
X62176767Y-83431914D01*
X61857765Y-83112355D01*
X61440756Y-82939197D01*
X60989225Y-82938803D01*
X60571914Y-83111233D01*
X60252355Y-83430235D01*
X60079197Y-83847244D01*
X60078803Y-84298775D01*
X50664804Y-84298775D01*
X50665197Y-83849225D01*
X50492767Y-83431914D01*
X50173765Y-83112355D01*
X49756756Y-82939197D01*
X49305225Y-82938803D01*
X48887914Y-83111233D01*
X48568355Y-83430235D01*
X48395197Y-83847244D01*
X48394803Y-84298775D01*
X45235121Y-84298775D01*
X45511271Y-83885489D01*
X45625345Y-83312000D01*
X45511271Y-82738511D01*
X45186415Y-82252330D01*
X44871634Y-82042000D01*
X45186415Y-81831670D01*
X45511271Y-81345489D01*
X45625345Y-80772000D01*
X45619532Y-80742775D01*
X49410803Y-80742775D01*
X49583233Y-81160086D01*
X49902235Y-81479645D01*
X50319244Y-81652803D01*
X50770775Y-81653197D01*
X51129982Y-81504775D01*
X64904803Y-81504775D01*
X65077233Y-81922086D01*
X65396235Y-82241645D01*
X65813244Y-82414803D01*
X66264775Y-82415197D01*
X66682086Y-82242767D01*
X67001645Y-81923765D01*
X67174803Y-81506756D01*
X67174804Y-81504775D01*
X79382803Y-81504775D01*
X79555233Y-81922086D01*
X79874235Y-82241645D01*
X80291244Y-82414803D01*
X80742775Y-82415197D01*
X81160086Y-82242767D01*
X81479645Y-81923765D01*
X81652803Y-81506756D01*
X81652804Y-81504775D01*
X93098803Y-81504775D01*
X93271233Y-81922086D01*
X93590235Y-82241645D01*
X94007244Y-82414803D01*
X94458775Y-82415197D01*
X94876086Y-82242767D01*
X95195645Y-81923765D01*
X95368803Y-81506756D01*
X95368804Y-81504775D01*
X110116803Y-81504775D01*
X110289233Y-81922086D01*
X110608235Y-82241645D01*
X111025244Y-82414803D01*
X111476775Y-82415197D01*
X111894086Y-82242767D01*
X112213645Y-81923765D01*
X112386803Y-81506756D01*
X112387197Y-81055225D01*
X112214767Y-80637914D01*
X111895765Y-80318355D01*
X111478756Y-80145197D01*
X111027225Y-80144803D01*
X110609914Y-80317233D01*
X110290355Y-80636235D01*
X110117197Y-81053244D01*
X110116803Y-81504775D01*
X95368804Y-81504775D01*
X95369197Y-81055225D01*
X95196767Y-80637914D01*
X94877765Y-80318355D01*
X94460756Y-80145197D01*
X94009225Y-80144803D01*
X93591914Y-80317233D01*
X93272355Y-80636235D01*
X93099197Y-81053244D01*
X93098803Y-81504775D01*
X81652804Y-81504775D01*
X81653197Y-81055225D01*
X81480767Y-80637914D01*
X81161765Y-80318355D01*
X80744756Y-80145197D01*
X80293225Y-80144803D01*
X79875914Y-80317233D01*
X79556355Y-80636235D01*
X79383197Y-81053244D01*
X79382803Y-81504775D01*
X67174804Y-81504775D01*
X67175197Y-81055225D01*
X67002767Y-80637914D01*
X66683765Y-80318355D01*
X66266756Y-80145197D01*
X65815225Y-80144803D01*
X65397914Y-80317233D01*
X65078355Y-80636235D01*
X64905197Y-81053244D01*
X64904803Y-81504775D01*
X51129982Y-81504775D01*
X51188086Y-81480767D01*
X51507645Y-81161765D01*
X51680803Y-80744756D01*
X51681197Y-80293225D01*
X51508767Y-79875914D01*
X51359888Y-79726775D01*
X60586803Y-79726775D01*
X60759233Y-80144086D01*
X61078235Y-80463645D01*
X61495244Y-80636803D01*
X61946775Y-80637197D01*
X62364086Y-80464767D01*
X62683645Y-80145765D01*
X62856803Y-79728756D01*
X62856804Y-79726775D01*
X95384803Y-79726775D01*
X95557233Y-80144086D01*
X95876235Y-80463645D01*
X96293244Y-80636803D01*
X96744775Y-80637197D01*
X97162086Y-80464767D01*
X97481645Y-80145765D01*
X97654803Y-79728756D01*
X97654804Y-79726775D01*
X98432803Y-79726775D01*
X98605233Y-80144086D01*
X98924235Y-80463645D01*
X99341244Y-80636803D01*
X99792775Y-80637197D01*
X100210086Y-80464767D01*
X100529645Y-80145765D01*
X100702803Y-79728756D01*
X100703197Y-79277225D01*
X100530767Y-78859914D01*
X100211765Y-78540355D01*
X99794756Y-78367197D01*
X99343225Y-78366803D01*
X98925914Y-78539233D01*
X98606355Y-78858235D01*
X98433197Y-79275244D01*
X98432803Y-79726775D01*
X97654804Y-79726775D01*
X97655197Y-79277225D01*
X97482767Y-78859914D01*
X97163765Y-78540355D01*
X96746756Y-78367197D01*
X96295225Y-78366803D01*
X95877914Y-78539233D01*
X95558355Y-78858235D01*
X95385197Y-79275244D01*
X95384803Y-79726775D01*
X62856804Y-79726775D01*
X62857197Y-79277225D01*
X62684767Y-78859914D01*
X62365765Y-78540355D01*
X61948756Y-78367197D01*
X61497225Y-78366803D01*
X61079914Y-78539233D01*
X60760355Y-78858235D01*
X60587197Y-79275244D01*
X60586803Y-79726775D01*
X51359888Y-79726775D01*
X51189765Y-79556355D01*
X50772756Y-79383197D01*
X50321225Y-79382803D01*
X49903914Y-79555233D01*
X49584355Y-79874235D01*
X49411197Y-80291244D01*
X49410803Y-80742775D01*
X45619532Y-80742775D01*
X45511271Y-80198511D01*
X45186415Y-79712330D01*
X44876931Y-79505539D01*
X45292732Y-79134036D01*
X45546709Y-78606791D01*
X45549358Y-78591026D01*
X45428217Y-78359000D01*
X44069000Y-78359000D01*
X44069000Y-78379000D01*
X43815000Y-78379000D01*
X43815000Y-78359000D01*
X42455783Y-78359000D01*
X42334642Y-78591026D01*
X42337291Y-78606791D01*
X42591268Y-79134036D01*
X43007069Y-79505539D01*
X42697585Y-79712330D01*
X42372729Y-80198511D01*
X42258655Y-80772000D01*
X41529000Y-80772000D01*
X41529000Y-73152000D01*
X42258655Y-73152000D01*
X42372729Y-73725489D01*
X42697585Y-74211670D01*
X43012366Y-74422000D01*
X42697585Y-74632330D01*
X42372729Y-75118511D01*
X42258655Y-75692000D01*
X42372729Y-76265489D01*
X42697585Y-76751670D01*
X43007069Y-76958461D01*
X42591268Y-77329964D01*
X42337291Y-77857209D01*
X42334642Y-77872974D01*
X42455783Y-78105000D01*
X43815000Y-78105000D01*
X43815000Y-78085000D01*
X44069000Y-78085000D01*
X44069000Y-78105000D01*
X45428217Y-78105000D01*
X45549358Y-77872974D01*
X45546709Y-77857209D01*
X45468464Y-77694775D01*
X53982803Y-77694775D01*
X54155233Y-78112086D01*
X54474235Y-78431645D01*
X54891244Y-78604803D01*
X55342775Y-78605197D01*
X55760086Y-78432767D01*
X55990479Y-78202775D01*
X64904803Y-78202775D01*
X65077233Y-78620086D01*
X65396235Y-78939645D01*
X65813244Y-79112803D01*
X66264775Y-79113197D01*
X66682086Y-78940767D01*
X67001645Y-78621765D01*
X67070155Y-78456775D01*
X80144803Y-78456775D01*
X80317233Y-78874086D01*
X80636235Y-79193645D01*
X81053244Y-79366803D01*
X81504775Y-79367197D01*
X81922086Y-79194767D01*
X82241645Y-78875765D01*
X82414803Y-78458756D01*
X82415197Y-78007225D01*
X82242767Y-77589914D01*
X81923765Y-77270355D01*
X81506756Y-77097197D01*
X81055225Y-77096803D01*
X80637914Y-77269233D01*
X80318355Y-77588235D01*
X80145197Y-78005244D01*
X80144803Y-78456775D01*
X67070155Y-78456775D01*
X67174803Y-78204756D01*
X67175197Y-77753225D01*
X67002767Y-77335914D01*
X66683765Y-77016355D01*
X66266756Y-76843197D01*
X65815225Y-76842803D01*
X65397914Y-77015233D01*
X65078355Y-77334235D01*
X64905197Y-77751244D01*
X64904803Y-78202775D01*
X55990479Y-78202775D01*
X56079645Y-78113765D01*
X56252803Y-77696756D01*
X56253197Y-77245225D01*
X56080767Y-76827914D01*
X55761765Y-76508355D01*
X55344756Y-76335197D01*
X54893225Y-76334803D01*
X54475914Y-76507233D01*
X54156355Y-76826235D01*
X53983197Y-77243244D01*
X53982803Y-77694775D01*
X45468464Y-77694775D01*
X45292732Y-77329964D01*
X44876931Y-76958461D01*
X45186415Y-76751670D01*
X45511271Y-76265489D01*
X45580634Y-75916775D01*
X64904803Y-75916775D01*
X65077233Y-76334086D01*
X65396235Y-76653645D01*
X65813244Y-76826803D01*
X66264775Y-76827197D01*
X66682086Y-76654767D01*
X67001645Y-76335765D01*
X67174803Y-75918756D01*
X67175197Y-75467225D01*
X67002767Y-75049914D01*
X66683765Y-74730355D01*
X66266756Y-74557197D01*
X65815225Y-74556803D01*
X65397914Y-74729233D01*
X65078355Y-75048235D01*
X64905197Y-75465244D01*
X64904803Y-75916775D01*
X45580634Y-75916775D01*
X45625345Y-75692000D01*
X45511271Y-75118511D01*
X45186415Y-74632330D01*
X44871634Y-74422000D01*
X45186415Y-74211670D01*
X45511271Y-73725489D01*
X45625345Y-73152000D01*
X45511271Y-72578511D01*
X45196864Y-72107967D01*
X70242430Y-72107967D01*
X70242430Y-73180033D01*
X70347900Y-73710268D01*
X70648254Y-74159779D01*
X71097765Y-74460133D01*
X71628000Y-74565603D01*
X72158235Y-74460133D01*
X72607746Y-74159779D01*
X72908100Y-73710268D01*
X73013570Y-73180033D01*
X73013570Y-72107967D01*
X75322430Y-72107967D01*
X75322430Y-73180033D01*
X75427900Y-73710268D01*
X75728254Y-74159779D01*
X76177765Y-74460133D01*
X76708000Y-74565603D01*
X77238235Y-74460133D01*
X77687746Y-74159779D01*
X77988100Y-73710268D01*
X78093570Y-73180033D01*
X78093570Y-73152481D01*
X80328777Y-73152481D01*
X80523995Y-73624943D01*
X80885155Y-73986735D01*
X81357276Y-74182777D01*
X81868481Y-74183223D01*
X82340943Y-73988005D01*
X82702735Y-73626845D01*
X82898777Y-73154724D01*
X82899223Y-72643519D01*
X82735798Y-72248000D01*
X85316560Y-72248000D01*
X85316560Y-73548000D01*
X85360838Y-73783317D01*
X85499910Y-73999441D01*
X85712110Y-74144431D01*
X85964000Y-74195440D01*
X87264000Y-74195440D01*
X87499317Y-74151162D01*
X87715441Y-74012090D01*
X87802431Y-73884775D01*
X114180803Y-73884775D01*
X114353233Y-74302086D01*
X114672235Y-74621645D01*
X115089244Y-74794803D01*
X115540775Y-74795197D01*
X115958086Y-74622767D01*
X116277645Y-74303765D01*
X116450803Y-73886756D01*
X116451197Y-73435225D01*
X116278767Y-73017914D01*
X115959765Y-72698355D01*
X115542756Y-72525197D01*
X115091225Y-72524803D01*
X114673914Y-72697233D01*
X114354355Y-73016235D01*
X114181197Y-73433244D01*
X114180803Y-73884775D01*
X87802431Y-73884775D01*
X87860431Y-73799890D01*
X87911440Y-73548000D01*
X87911440Y-72248000D01*
X87867162Y-72012683D01*
X87728090Y-71796559D01*
X87515890Y-71651569D01*
X87264000Y-71600560D01*
X85964000Y-71600560D01*
X85728683Y-71644838D01*
X85512559Y-71783910D01*
X85367569Y-71996110D01*
X85316560Y-72248000D01*
X82735798Y-72248000D01*
X82704005Y-72171057D01*
X82342845Y-71809265D01*
X81870724Y-71613223D01*
X81359519Y-71612777D01*
X80887057Y-71807995D01*
X80525265Y-72169155D01*
X80329223Y-72641276D01*
X80328777Y-73152481D01*
X78093570Y-73152481D01*
X78093570Y-72107967D01*
X77988100Y-71577732D01*
X77687746Y-71128221D01*
X77238235Y-70827867D01*
X76708000Y-70722397D01*
X76177765Y-70827867D01*
X75728254Y-71128221D01*
X75427900Y-71577732D01*
X75322430Y-72107967D01*
X73013570Y-72107967D01*
X72908100Y-71577732D01*
X72607746Y-71128221D01*
X72158235Y-70827867D01*
X71628000Y-70722397D01*
X71097765Y-70827867D01*
X70648254Y-71128221D01*
X70347900Y-71577732D01*
X70242430Y-72107967D01*
X45196864Y-72107967D01*
X45186415Y-72092330D01*
X44876931Y-71885539D01*
X45292732Y-71514036D01*
X45546709Y-70986791D01*
X45549358Y-70971026D01*
X45428217Y-70739000D01*
X44069000Y-70739000D01*
X44069000Y-70759000D01*
X43815000Y-70759000D01*
X43815000Y-70739000D01*
X42455783Y-70739000D01*
X42334642Y-70971026D01*
X42337291Y-70986791D01*
X42591268Y-71514036D01*
X43007069Y-71885539D01*
X42697585Y-72092330D01*
X42372729Y-72578511D01*
X42258655Y-73152000D01*
X41529000Y-73152000D01*
X41529000Y-68072000D01*
X42258655Y-68072000D01*
X42372729Y-68645489D01*
X42697585Y-69131670D01*
X43007069Y-69338461D01*
X42591268Y-69709964D01*
X42337291Y-70237209D01*
X42334642Y-70252974D01*
X42455783Y-70485000D01*
X43815000Y-70485000D01*
X43815000Y-70465000D01*
X44069000Y-70465000D01*
X44069000Y-70485000D01*
X45428217Y-70485000D01*
X45549358Y-70252974D01*
X45546709Y-70237209D01*
X45292732Y-69709964D01*
X44876931Y-69338461D01*
X45186415Y-69131670D01*
X45511271Y-68645489D01*
X45625345Y-68072000D01*
X45511271Y-67498511D01*
X45317425Y-67208400D01*
X84594960Y-67208400D01*
X84594960Y-69443600D01*
X84639238Y-69678917D01*
X84778310Y-69895041D01*
X84990510Y-70040031D01*
X85242400Y-70091040D01*
X87477600Y-70091040D01*
X87712917Y-70046762D01*
X87929041Y-69907690D01*
X88074031Y-69695490D01*
X88125040Y-69443600D01*
X88125040Y-67208400D01*
X88080762Y-66973083D01*
X87941690Y-66756959D01*
X87729490Y-66611969D01*
X87477600Y-66560960D01*
X85242400Y-66560960D01*
X85007083Y-66605238D01*
X84790959Y-66744310D01*
X84645969Y-66956510D01*
X84594960Y-67208400D01*
X45317425Y-67208400D01*
X45186415Y-67012330D01*
X44876931Y-66805539D01*
X45292732Y-66434036D01*
X45546709Y-65906791D01*
X45549358Y-65891026D01*
X45428217Y-65659000D01*
X44069000Y-65659000D01*
X44069000Y-65679000D01*
X43815000Y-65679000D01*
X43815000Y-65659000D01*
X42455783Y-65659000D01*
X42334642Y-65891026D01*
X42337291Y-65906791D01*
X42591268Y-66434036D01*
X43007069Y-66805539D01*
X42697585Y-67012330D01*
X42372729Y-67498511D01*
X42258655Y-68072000D01*
X41529000Y-68072000D01*
X41529000Y-62128400D01*
X42278560Y-62128400D01*
X42278560Y-63855600D01*
X42322838Y-64090917D01*
X42461910Y-64307041D01*
X42674110Y-64452031D01*
X42768927Y-64471232D01*
X42591268Y-64629964D01*
X42337291Y-65157209D01*
X42334642Y-65172974D01*
X42455783Y-65405000D01*
X43815000Y-65405000D01*
X43815000Y-65385000D01*
X44069000Y-65385000D01*
X44069000Y-65405000D01*
X45428217Y-65405000D01*
X45549358Y-65172974D01*
X45546709Y-65157209D01*
X45292732Y-64629964D01*
X45117155Y-64473093D01*
X45193317Y-64458762D01*
X45409441Y-64319690D01*
X45554431Y-64107490D01*
X45605440Y-63855600D01*
X45605440Y-62708775D01*
X50426803Y-62708775D01*
X50599233Y-63126086D01*
X50918235Y-63445645D01*
X51335244Y-63618803D01*
X51786775Y-63619197D01*
X52204086Y-63446767D01*
X52523645Y-63127765D01*
X52696803Y-62710756D01*
X52696804Y-62708775D01*
X53728803Y-62708775D01*
X53901233Y-63126086D01*
X54220235Y-63445645D01*
X54637244Y-63618803D01*
X55088775Y-63619197D01*
X55506086Y-63446767D01*
X55825645Y-63127765D01*
X55998803Y-62710756D01*
X55999197Y-62259225D01*
X55826767Y-61841914D01*
X55507765Y-61522355D01*
X55090756Y-61349197D01*
X54639225Y-61348803D01*
X54221914Y-61521233D01*
X53902355Y-61840235D01*
X53729197Y-62257244D01*
X53728803Y-62708775D01*
X52696804Y-62708775D01*
X52697197Y-62259225D01*
X52524767Y-61841914D01*
X52205765Y-61522355D01*
X51788756Y-61349197D01*
X51337225Y-61348803D01*
X50919914Y-61521233D01*
X50600355Y-61840235D01*
X50427197Y-62257244D01*
X50426803Y-62708775D01*
X45605440Y-62708775D01*
X45605440Y-62128400D01*
X45561162Y-61893083D01*
X45422090Y-61676959D01*
X45209890Y-61531969D01*
X44958000Y-61480960D01*
X42926000Y-61480960D01*
X42690683Y-61525238D01*
X42474559Y-61664310D01*
X42329569Y-61876510D01*
X42278560Y-62128400D01*
X41529000Y-62128400D01*
X41529000Y-53818775D01*
X59824803Y-53818775D01*
X59997233Y-54236086D01*
X60316235Y-54555645D01*
X60733244Y-54728803D01*
X61184775Y-54729197D01*
X61602086Y-54556767D01*
X61921645Y-54237765D01*
X62094803Y-53820756D01*
X62095197Y-53369225D01*
X61922767Y-52951914D01*
X61603765Y-52632355D01*
X61186756Y-52459197D01*
X60735225Y-52458803D01*
X60317914Y-52631233D01*
X59998355Y-52950235D01*
X59825197Y-53367244D01*
X59824803Y-53818775D01*
X41529000Y-53818775D01*
X41529000Y-52802775D01*
X52966803Y-52802775D01*
X53139233Y-53220086D01*
X53458235Y-53539645D01*
X53875244Y-53712803D01*
X54326775Y-53713197D01*
X54744086Y-53540767D01*
X55063645Y-53221765D01*
X55236803Y-52804756D01*
X55237197Y-52353225D01*
X55064767Y-51935914D01*
X54745765Y-51616355D01*
X54328756Y-51443197D01*
X53877225Y-51442803D01*
X53459914Y-51615233D01*
X53140355Y-51934235D01*
X52967197Y-52351244D01*
X52966803Y-52802775D01*
X41529000Y-52802775D01*
X41529000Y-51413026D01*
X42334642Y-51413026D01*
X42337291Y-51428791D01*
X42591268Y-51956036D01*
X43027680Y-52345954D01*
X43580087Y-52539184D01*
X43815000Y-52394924D01*
X43815000Y-51181000D01*
X44069000Y-51181000D01*
X44069000Y-52394924D01*
X44303913Y-52539184D01*
X44856320Y-52345954D01*
X45292732Y-51956036D01*
X45543718Y-51435000D01*
X115962430Y-51435000D01*
X115962430Y-51934110D01*
X116116501Y-52454677D01*
X116458056Y-52876658D01*
X116935097Y-53135810D01*
X117006725Y-53149993D01*
X117221000Y-53027339D01*
X117221000Y-51435000D01*
X117475000Y-51435000D01*
X117475000Y-53027339D01*
X117689275Y-53149993D01*
X117760903Y-53135810D01*
X118237944Y-52876658D01*
X118579499Y-52454677D01*
X118733570Y-51934110D01*
X118733570Y-51435000D01*
X117475000Y-51435000D01*
X117221000Y-51435000D01*
X115962430Y-51435000D01*
X45543718Y-51435000D01*
X45546709Y-51428791D01*
X45549358Y-51413026D01*
X45428217Y-51181000D01*
X44069000Y-51181000D01*
X43815000Y-51181000D01*
X42455783Y-51181000D01*
X42334642Y-51413026D01*
X41529000Y-51413026D01*
X41529000Y-48873026D01*
X42334642Y-48873026D01*
X42337291Y-48888791D01*
X42591268Y-49416036D01*
X43003108Y-49784000D01*
X42591268Y-50151964D01*
X42337291Y-50679209D01*
X42334642Y-50694974D01*
X42455783Y-50927000D01*
X43815000Y-50927000D01*
X43815000Y-48641000D01*
X44069000Y-48641000D01*
X44069000Y-50927000D01*
X45428217Y-50927000D01*
X45549358Y-50694974D01*
X45546709Y-50679209D01*
X45292732Y-50151964D01*
X44880892Y-49784000D01*
X45292732Y-49416036D01*
X45546709Y-48888791D01*
X45549358Y-48873026D01*
X45428217Y-48641000D01*
X44069000Y-48641000D01*
X43815000Y-48641000D01*
X42455783Y-48641000D01*
X42334642Y-48873026D01*
X41529000Y-48873026D01*
X41529000Y-48485967D01*
X66432430Y-48485967D01*
X66432430Y-49558033D01*
X66537900Y-50088268D01*
X66838254Y-50537779D01*
X67287765Y-50838133D01*
X67818000Y-50943603D01*
X68348235Y-50838133D01*
X68797746Y-50537779D01*
X69098100Y-50088268D01*
X69203570Y-49558033D01*
X69203570Y-49149000D01*
X71512430Y-49149000D01*
X71512430Y-49648110D01*
X71666501Y-50168677D01*
X72008056Y-50590658D01*
X72485097Y-50849810D01*
X72556725Y-50863993D01*
X72771000Y-50741339D01*
X72771000Y-49149000D01*
X73025000Y-49149000D01*
X73025000Y-50741339D01*
X73239275Y-50863993D01*
X73310903Y-50849810D01*
X73620006Y-50681890D01*
X115962430Y-50681890D01*
X115962430Y-51181000D01*
X117221000Y-51181000D01*
X117221000Y-49588661D01*
X117475000Y-49588661D01*
X117475000Y-51181000D01*
X118733570Y-51181000D01*
X118733570Y-50771967D01*
X121042430Y-50771967D01*
X121042430Y-51844033D01*
X121147900Y-52374268D01*
X121448254Y-52823779D01*
X121897765Y-53124133D01*
X122428000Y-53229603D01*
X122958235Y-53124133D01*
X123407746Y-52823779D01*
X123708100Y-52374268D01*
X123813570Y-51844033D01*
X123813570Y-50771967D01*
X123708100Y-50241732D01*
X123407746Y-49792221D01*
X122958235Y-49491867D01*
X122428000Y-49386397D01*
X121897765Y-49491867D01*
X121448254Y-49792221D01*
X121147900Y-50241732D01*
X121042430Y-50771967D01*
X118733570Y-50771967D01*
X118733570Y-50681890D01*
X118579499Y-50161323D01*
X118237944Y-49739342D01*
X117760903Y-49480190D01*
X117689275Y-49466007D01*
X117475000Y-49588661D01*
X117221000Y-49588661D01*
X117006725Y-49466007D01*
X116935097Y-49480190D01*
X116458056Y-49739342D01*
X116116501Y-50161323D01*
X115962430Y-50681890D01*
X73620006Y-50681890D01*
X73787944Y-50590658D01*
X74129499Y-50168677D01*
X74283570Y-49648110D01*
X74283570Y-49149000D01*
X73025000Y-49149000D01*
X72771000Y-49149000D01*
X71512430Y-49149000D01*
X69203570Y-49149000D01*
X69203570Y-48992775D01*
X134500803Y-48992775D01*
X134673233Y-49410086D01*
X134992235Y-49729645D01*
X135409244Y-49902803D01*
X135860775Y-49903197D01*
X136278086Y-49730767D01*
X136597645Y-49411765D01*
X136770803Y-48994756D01*
X136771197Y-48543225D01*
X136598767Y-48125914D01*
X136279765Y-47806355D01*
X135862756Y-47633197D01*
X135411225Y-47632803D01*
X134993914Y-47805233D01*
X134674355Y-48124235D01*
X134501197Y-48541244D01*
X134500803Y-48992775D01*
X69203570Y-48992775D01*
X69203570Y-48485967D01*
X69185653Y-48395890D01*
X71512430Y-48395890D01*
X71512430Y-48895000D01*
X72771000Y-48895000D01*
X72771000Y-47302661D01*
X73025000Y-47302661D01*
X73025000Y-48895000D01*
X74283570Y-48895000D01*
X74283570Y-48395890D01*
X74129499Y-47875323D01*
X73842433Y-47520661D01*
X115442758Y-47520661D01*
X115654990Y-48034303D01*
X116047630Y-48427629D01*
X116560900Y-48640757D01*
X117116661Y-48641242D01*
X117630303Y-48429010D01*
X118023629Y-48036370D01*
X118236757Y-47523100D01*
X118236759Y-47520661D01*
X120522758Y-47520661D01*
X120734990Y-48034303D01*
X121127630Y-48427629D01*
X121640900Y-48640757D01*
X122196661Y-48641242D01*
X122710303Y-48429010D01*
X123103629Y-48036370D01*
X123316757Y-47523100D01*
X123317242Y-46967339D01*
X123105010Y-46453697D01*
X122712370Y-46060371D01*
X122199100Y-45847243D01*
X121643339Y-45846758D01*
X121129697Y-46058990D01*
X120736371Y-46451630D01*
X120523243Y-46964900D01*
X120522758Y-47520661D01*
X118236759Y-47520661D01*
X118237242Y-46967339D01*
X118025010Y-46453697D01*
X117632370Y-46060371D01*
X117119100Y-45847243D01*
X116563339Y-45846758D01*
X116049697Y-46058990D01*
X115656371Y-46451630D01*
X115443243Y-46964900D01*
X115442758Y-47520661D01*
X73842433Y-47520661D01*
X73787944Y-47453342D01*
X73310903Y-47194190D01*
X73239275Y-47180007D01*
X73025000Y-47302661D01*
X72771000Y-47302661D01*
X72556725Y-47180007D01*
X72485097Y-47194190D01*
X72008056Y-47453342D01*
X71666501Y-47875323D01*
X71512430Y-48395890D01*
X69185653Y-48395890D01*
X69098100Y-47955732D01*
X68797746Y-47506221D01*
X68348235Y-47205867D01*
X67818000Y-47100397D01*
X67287765Y-47205867D01*
X66838254Y-47506221D01*
X66537900Y-47955732D01*
X66432430Y-48485967D01*
X41529000Y-48485967D01*
X41529000Y-40894000D01*
X42258655Y-40894000D01*
X42372729Y-41467489D01*
X42697585Y-41953670D01*
X43012366Y-42164000D01*
X42697585Y-42374330D01*
X42372729Y-42860511D01*
X42258655Y-43434000D01*
X42372729Y-44007489D01*
X42697585Y-44493670D01*
X43012366Y-44704000D01*
X42697585Y-44914330D01*
X42372729Y-45400511D01*
X42258655Y-45974000D01*
X42372729Y-46547489D01*
X42697585Y-47033670D01*
X43007069Y-47240461D01*
X42591268Y-47611964D01*
X42337291Y-48139209D01*
X42334642Y-48154974D01*
X42455783Y-48387000D01*
X43815000Y-48387000D01*
X43815000Y-48367000D01*
X44069000Y-48367000D01*
X44069000Y-48387000D01*
X45428217Y-48387000D01*
X45549358Y-48154974D01*
X45546709Y-48139209D01*
X45292732Y-47611964D01*
X44876931Y-47240461D01*
X45186415Y-47033670D01*
X45511271Y-46547489D01*
X45625345Y-45974000D01*
X45511271Y-45400511D01*
X45186415Y-44914330D01*
X44871634Y-44704000D01*
X45186415Y-44493670D01*
X45511271Y-44007489D01*
X45519790Y-43964661D01*
X66928758Y-43964661D01*
X67140990Y-44478303D01*
X67533630Y-44871629D01*
X68046900Y-45084757D01*
X68602661Y-45085242D01*
X69116303Y-44873010D01*
X69509629Y-44480370D01*
X69722757Y-43967100D01*
X69722759Y-43964661D01*
X72008758Y-43964661D01*
X72220990Y-44478303D01*
X72613630Y-44871629D01*
X73126900Y-45084757D01*
X73682661Y-45085242D01*
X73935767Y-44980661D01*
X93090758Y-44980661D01*
X93302990Y-45494303D01*
X93695630Y-45887629D01*
X94208900Y-46100757D01*
X94764661Y-46101242D01*
X95278303Y-45889010D01*
X95671629Y-45496370D01*
X95884757Y-44983100D01*
X95884759Y-44980661D01*
X117982758Y-44980661D01*
X118194990Y-45494303D01*
X118587630Y-45887629D01*
X119100900Y-46100757D01*
X119656661Y-46101242D01*
X120170303Y-45889010D01*
X120563629Y-45496370D01*
X120776757Y-44983100D01*
X120777242Y-44427339D01*
X120565010Y-43913697D01*
X120172370Y-43520371D01*
X119659100Y-43307243D01*
X119103339Y-43306758D01*
X118589697Y-43518990D01*
X118196371Y-43911630D01*
X117983243Y-44424900D01*
X117982758Y-44980661D01*
X95884759Y-44980661D01*
X95885242Y-44427339D01*
X95673010Y-43913697D01*
X95280370Y-43520371D01*
X94767100Y-43307243D01*
X94211339Y-43306758D01*
X93697697Y-43518990D01*
X93304371Y-43911630D01*
X93091243Y-44424900D01*
X93090758Y-44980661D01*
X73935767Y-44980661D01*
X74196303Y-44873010D01*
X74589629Y-44480370D01*
X74802757Y-43967100D01*
X74803242Y-43411339D01*
X74591010Y-42897697D01*
X74198370Y-42504371D01*
X73685100Y-42291243D01*
X73129339Y-42290758D01*
X72615697Y-42502990D01*
X72222371Y-42895630D01*
X72009243Y-43408900D01*
X72008758Y-43964661D01*
X69722759Y-43964661D01*
X69723242Y-43411339D01*
X69511010Y-42897697D01*
X69118370Y-42504371D01*
X68605100Y-42291243D01*
X68049339Y-42290758D01*
X67535697Y-42502990D01*
X67142371Y-42895630D01*
X66929243Y-43408900D01*
X66928758Y-43964661D01*
X45519790Y-43964661D01*
X45625345Y-43434000D01*
X45511271Y-42860511D01*
X45186415Y-42374330D01*
X44871634Y-42164000D01*
X45186415Y-41953670D01*
X45511271Y-41467489D01*
X45519790Y-41424661D01*
X69468758Y-41424661D01*
X69680990Y-41938303D01*
X70073630Y-42331629D01*
X70586900Y-42544757D01*
X71142661Y-42545242D01*
X71656303Y-42333010D01*
X71802907Y-42186661D01*
X90423758Y-42186661D01*
X90635990Y-42700303D01*
X91028630Y-43093629D01*
X91541900Y-43306757D01*
X92097661Y-43307242D01*
X92611303Y-43095010D01*
X93004629Y-42702370D01*
X93217757Y-42189100D01*
X93218242Y-41633339D01*
X93006010Y-41119697D01*
X92613370Y-40726371D01*
X92100100Y-40513243D01*
X91544339Y-40512758D01*
X91030697Y-40724990D01*
X90637371Y-41117630D01*
X90424243Y-41630900D01*
X90423758Y-42186661D01*
X71802907Y-42186661D01*
X72049629Y-41940370D01*
X72262757Y-41427100D01*
X72263242Y-40871339D01*
X72051010Y-40357697D01*
X71916761Y-40223213D01*
X93687392Y-40223213D01*
X93756857Y-40465397D01*
X94280302Y-40652144D01*
X94835368Y-40624362D01*
X94984786Y-40562471D01*
X95080990Y-40795303D01*
X95473630Y-41188629D01*
X95764703Y-41309493D01*
X95631243Y-41630900D01*
X95630758Y-42186661D01*
X95842990Y-42700303D01*
X96235630Y-43093629D01*
X96748900Y-43306757D01*
X97304661Y-43307242D01*
X97818303Y-43095010D01*
X98211629Y-42702370D01*
X98424757Y-42189100D01*
X98425242Y-41633339D01*
X98213010Y-41119697D01*
X97820370Y-40726371D01*
X97529297Y-40605507D01*
X97662757Y-40284100D01*
X97663242Y-39728339D01*
X97451010Y-39214697D01*
X97324502Y-39087967D01*
X115962430Y-39087967D01*
X115962430Y-40160033D01*
X116067900Y-40690268D01*
X116368254Y-41139779D01*
X116817765Y-41440133D01*
X117348000Y-41545603D01*
X117878235Y-41440133D01*
X118327746Y-41139779D01*
X118628100Y-40690268D01*
X118733570Y-40160033D01*
X118733570Y-39087967D01*
X121042430Y-39087967D01*
X121042430Y-40160033D01*
X121147900Y-40690268D01*
X121448254Y-41139779D01*
X121897765Y-41440133D01*
X122428000Y-41545603D01*
X122958235Y-41440133D01*
X123407746Y-41139779D01*
X123421780Y-41118775D01*
X125102803Y-41118775D01*
X125275233Y-41536086D01*
X125594235Y-41855645D01*
X126011244Y-42028803D01*
X126462775Y-42029197D01*
X126880086Y-41856767D01*
X127199645Y-41537765D01*
X127372803Y-41120756D01*
X127373197Y-40669225D01*
X127200767Y-40251914D01*
X126881765Y-39932355D01*
X126464756Y-39759197D01*
X126013225Y-39758803D01*
X125595914Y-39931233D01*
X125276355Y-40250235D01*
X125103197Y-40667244D01*
X125102803Y-41118775D01*
X123421780Y-41118775D01*
X123708100Y-40690268D01*
X123813570Y-40160033D01*
X123813570Y-39087967D01*
X123708100Y-38557732D01*
X123407746Y-38108221D01*
X122958235Y-37807867D01*
X122428000Y-37702397D01*
X121897765Y-37807867D01*
X121448254Y-38108221D01*
X121147900Y-38557732D01*
X121042430Y-39087967D01*
X118733570Y-39087967D01*
X118628100Y-38557732D01*
X118327746Y-38108221D01*
X117878235Y-37807867D01*
X117348000Y-37702397D01*
X116817765Y-37807867D01*
X116368254Y-38108221D01*
X116067900Y-38557732D01*
X115962430Y-39087967D01*
X97324502Y-39087967D01*
X97058370Y-38821371D01*
X96545100Y-38608243D01*
X95989339Y-38607758D01*
X95785079Y-38692156D01*
X95710397Y-38511857D01*
X95468213Y-38442392D01*
X94667605Y-39243000D01*
X94681748Y-39257143D01*
X94502143Y-39436748D01*
X94488000Y-39422605D01*
X93687392Y-40223213D01*
X71916761Y-40223213D01*
X71658370Y-39964371D01*
X71145100Y-39751243D01*
X70589339Y-39750758D01*
X70075697Y-39962990D01*
X69682371Y-40355630D01*
X69469243Y-40868900D01*
X69468758Y-41424661D01*
X45519790Y-41424661D01*
X45625345Y-40894000D01*
X45511271Y-40320511D01*
X45186415Y-39834330D01*
X44876931Y-39627539D01*
X45292732Y-39256036D01*
X45399060Y-39035302D01*
X93078856Y-39035302D01*
X93106638Y-39590368D01*
X93265603Y-39974143D01*
X93507787Y-40043608D01*
X94308395Y-39243000D01*
X93507787Y-38442392D01*
X93265603Y-38511857D01*
X93078856Y-39035302D01*
X45399060Y-39035302D01*
X45546709Y-38728791D01*
X45549358Y-38713026D01*
X45428217Y-38481000D01*
X44069000Y-38481000D01*
X44069000Y-38501000D01*
X43815000Y-38501000D01*
X43815000Y-38481000D01*
X42455783Y-38481000D01*
X42334642Y-38713026D01*
X42337291Y-38728791D01*
X42591268Y-39256036D01*
X43007069Y-39627539D01*
X42697585Y-39834330D01*
X42372729Y-40320511D01*
X42258655Y-40894000D01*
X41529000Y-40894000D01*
X41529000Y-38262787D01*
X93687392Y-38262787D01*
X94488000Y-39063395D01*
X95288608Y-38262787D01*
X95219143Y-38020603D01*
X94695698Y-37833856D01*
X94140632Y-37861638D01*
X93756857Y-38020603D01*
X93687392Y-38262787D01*
X41529000Y-38262787D01*
X41529000Y-34950400D01*
X42278560Y-34950400D01*
X42278560Y-36677600D01*
X42322838Y-36912917D01*
X42461910Y-37129041D01*
X42674110Y-37274031D01*
X42768927Y-37293232D01*
X42591268Y-37451964D01*
X42337291Y-37979209D01*
X42334642Y-37994974D01*
X42455783Y-38227000D01*
X43815000Y-38227000D01*
X43815000Y-38207000D01*
X44069000Y-38207000D01*
X44069000Y-38227000D01*
X45428217Y-38227000D01*
X45549358Y-37994974D01*
X45546709Y-37979209D01*
X45292732Y-37451964D01*
X45117155Y-37295093D01*
X45193317Y-37280762D01*
X45409441Y-37141690D01*
X45554431Y-36929490D01*
X45605440Y-36677600D01*
X45605440Y-34950400D01*
X45561162Y-34715083D01*
X45433035Y-34515967D01*
X66432430Y-34515967D01*
X66432430Y-35588033D01*
X66537900Y-36118268D01*
X66838254Y-36567779D01*
X67287765Y-36868133D01*
X67818000Y-36973603D01*
X68348235Y-36868133D01*
X68797746Y-36567779D01*
X69098100Y-36118268D01*
X69203570Y-35588033D01*
X69203570Y-34515967D01*
X71512430Y-34515967D01*
X71512430Y-35588033D01*
X71617900Y-36118268D01*
X71918254Y-36567779D01*
X72367765Y-36868133D01*
X72898000Y-36973603D01*
X73428235Y-36868133D01*
X73877746Y-36567779D01*
X73891780Y-36546775D01*
X126118803Y-36546775D01*
X126291233Y-36964086D01*
X126610235Y-37283645D01*
X127027244Y-37456803D01*
X127478775Y-37457197D01*
X127896086Y-37284767D01*
X128215645Y-36965765D01*
X128388803Y-36548756D01*
X128389197Y-36097225D01*
X128216767Y-35679914D01*
X127897765Y-35360355D01*
X127480756Y-35187197D01*
X127029225Y-35186803D01*
X126611914Y-35359233D01*
X126292355Y-35678235D01*
X126119197Y-36095244D01*
X126118803Y-36546775D01*
X73891780Y-36546775D01*
X74178100Y-36118268D01*
X74283570Y-35588033D01*
X74283570Y-34515967D01*
X74178100Y-33985732D01*
X73877746Y-33536221D01*
X73823489Y-33499967D01*
X115962430Y-33499967D01*
X115962430Y-34572033D01*
X116067900Y-35102268D01*
X116368254Y-35551779D01*
X116817765Y-35852133D01*
X117348000Y-35957603D01*
X117878235Y-35852133D01*
X118327746Y-35551779D01*
X118628100Y-35102268D01*
X118733570Y-34572033D01*
X118733570Y-33499967D01*
X121042430Y-33499967D01*
X121042430Y-34572033D01*
X121147900Y-35102268D01*
X121448254Y-35551779D01*
X121897765Y-35852133D01*
X122428000Y-35957603D01*
X122958235Y-35852133D01*
X123407746Y-35551779D01*
X123708100Y-35102268D01*
X123813570Y-34572033D01*
X123813570Y-33499967D01*
X123708100Y-32969732D01*
X123407746Y-32520221D01*
X122958235Y-32219867D01*
X122428000Y-32114397D01*
X121897765Y-32219867D01*
X121448254Y-32520221D01*
X121147900Y-32969732D01*
X121042430Y-33499967D01*
X118733570Y-33499967D01*
X118628100Y-32969732D01*
X118327746Y-32520221D01*
X117878235Y-32219867D01*
X117348000Y-32114397D01*
X116817765Y-32219867D01*
X116368254Y-32520221D01*
X116067900Y-32969732D01*
X115962430Y-33499967D01*
X73823489Y-33499967D01*
X73428235Y-33235867D01*
X72898000Y-33130397D01*
X72367765Y-33235867D01*
X71918254Y-33536221D01*
X71617900Y-33985732D01*
X71512430Y-34515967D01*
X69203570Y-34515967D01*
X69098100Y-33985732D01*
X68797746Y-33536221D01*
X68348235Y-33235867D01*
X67818000Y-33130397D01*
X67287765Y-33235867D01*
X66838254Y-33536221D01*
X66537900Y-33985732D01*
X66432430Y-34515967D01*
X45433035Y-34515967D01*
X45422090Y-34498959D01*
X45209890Y-34353969D01*
X44958000Y-34302960D01*
X42926000Y-34302960D01*
X42690683Y-34347238D01*
X42474559Y-34486310D01*
X42329569Y-34698510D01*
X42278560Y-34950400D01*
X41529000Y-34950400D01*
X41529000Y-31974775D01*
X50934803Y-31974775D01*
X51107233Y-32392086D01*
X51426235Y-32711645D01*
X51843244Y-32884803D01*
X52294775Y-32885197D01*
X52712086Y-32712767D01*
X53031645Y-32393765D01*
X53204803Y-31976756D01*
X53204804Y-31974775D01*
X53728803Y-31974775D01*
X53901233Y-32392086D01*
X54220235Y-32711645D01*
X54637244Y-32884803D01*
X55088775Y-32885197D01*
X55506086Y-32712767D01*
X55825645Y-32393765D01*
X55998803Y-31976756D01*
X55998804Y-31974775D01*
X56522803Y-31974775D01*
X56695233Y-32392086D01*
X57014235Y-32711645D01*
X57431244Y-32884803D01*
X57882775Y-32885197D01*
X58300086Y-32712767D01*
X58619645Y-32393765D01*
X58792803Y-31976756D01*
X58793197Y-31525225D01*
X58620767Y-31107914D01*
X58301765Y-30788355D01*
X57884756Y-30615197D01*
X57433225Y-30614803D01*
X57015914Y-30787233D01*
X56696355Y-31106235D01*
X56523197Y-31523244D01*
X56522803Y-31974775D01*
X55998804Y-31974775D01*
X55999197Y-31525225D01*
X55826767Y-31107914D01*
X55507765Y-30788355D01*
X55090756Y-30615197D01*
X54639225Y-30614803D01*
X54221914Y-30787233D01*
X53902355Y-31106235D01*
X53729197Y-31523244D01*
X53728803Y-31974775D01*
X53204804Y-31974775D01*
X53205197Y-31525225D01*
X53032767Y-31107914D01*
X52713765Y-30788355D01*
X52296756Y-30615197D01*
X51845225Y-30614803D01*
X51427914Y-30787233D01*
X51108355Y-31106235D01*
X50935197Y-31523244D01*
X50934803Y-31974775D01*
X41529000Y-31974775D01*
X41529000Y-29845000D01*
X138557000Y-29845000D01*
X138557000Y-104267000D01*
X138557000Y-104267000D01*
G37*
X138557000Y-104267000D02*
X41529000Y-104267000D01*
X41529000Y-98911026D01*
X42334642Y-98911026D01*
X42337291Y-98926791D01*
X42591268Y-99454036D01*
X43027680Y-99843954D01*
X43580087Y-100037184D01*
X43815000Y-99892924D01*
X43815000Y-98679000D01*
X44069000Y-98679000D01*
X44069000Y-99892924D01*
X44303913Y-100037184D01*
X44856320Y-99843954D01*
X45292732Y-99454036D01*
X45373691Y-99285967D01*
X66432430Y-99285967D01*
X66432430Y-100358033D01*
X66537900Y-100888268D01*
X66838254Y-101337779D01*
X67287765Y-101638133D01*
X67818000Y-101743603D01*
X68348235Y-101638133D01*
X68797746Y-101337779D01*
X69098100Y-100888268D01*
X69203570Y-100358033D01*
X69203570Y-99285967D01*
X71512430Y-99285967D01*
X71512430Y-100358033D01*
X71617900Y-100888268D01*
X71918254Y-101337779D01*
X72367765Y-101638133D01*
X72898000Y-101743603D01*
X73428235Y-101638133D01*
X73877746Y-101337779D01*
X74178100Y-100888268D01*
X74283570Y-100358033D01*
X74283570Y-99285967D01*
X74178100Y-98755732D01*
X73877746Y-98306221D01*
X73428235Y-98005867D01*
X72898000Y-97900397D01*
X72367765Y-98005867D01*
X71918254Y-98306221D01*
X71617900Y-98755732D01*
X71512430Y-99285967D01*
X69203570Y-99285967D01*
X69098100Y-98755732D01*
X68797746Y-98306221D01*
X68348235Y-98005867D01*
X67818000Y-97900397D01*
X67287765Y-98005867D01*
X66838254Y-98306221D01*
X66537900Y-98755732D01*
X66432430Y-99285967D01*
X45373691Y-99285967D01*
X45546709Y-98926791D01*
X45549358Y-98911026D01*
X45428217Y-98679000D01*
X44069000Y-98679000D01*
X43815000Y-98679000D01*
X42455783Y-98679000D01*
X42334642Y-98911026D01*
X41529000Y-98911026D01*
X41529000Y-96371026D01*
X42334642Y-96371026D01*
X42337291Y-96386791D01*
X42591268Y-96914036D01*
X43003108Y-97282000D01*
X42591268Y-97649964D01*
X42337291Y-98177209D01*
X42334642Y-98192974D01*
X42455783Y-98425000D01*
X43815000Y-98425000D01*
X43815000Y-96139000D01*
X44069000Y-96139000D01*
X44069000Y-98425000D01*
X45428217Y-98425000D01*
X45549358Y-98192974D01*
X45546709Y-98177209D01*
X45292732Y-97649964D01*
X44880892Y-97282000D01*
X45292732Y-96914036D01*
X45546709Y-96386791D01*
X45549358Y-96371026D01*
X45428217Y-96139000D01*
X44069000Y-96139000D01*
X43815000Y-96139000D01*
X42455783Y-96139000D01*
X42334642Y-96371026D01*
X41529000Y-96371026D01*
X41529000Y-80772000D01*
X42258655Y-80772000D01*
X42372729Y-81345489D01*
X42697585Y-81831670D01*
X43012366Y-82042000D01*
X42697585Y-82252330D01*
X42372729Y-82738511D01*
X42258655Y-83312000D01*
X42372729Y-83885489D01*
X42697585Y-84371670D01*
X43012366Y-84582000D01*
X42697585Y-84792330D01*
X42372729Y-85278511D01*
X42258655Y-85852000D01*
X42372729Y-86425489D01*
X42697585Y-86911670D01*
X43012366Y-87122000D01*
X42697585Y-87332330D01*
X42372729Y-87818511D01*
X42258655Y-88392000D01*
X42372729Y-88965489D01*
X42697585Y-89451670D01*
X43012366Y-89662000D01*
X42697585Y-89872330D01*
X42372729Y-90358511D01*
X42258655Y-90932000D01*
X42372729Y-91505489D01*
X42697585Y-91991670D01*
X43012366Y-92202000D01*
X42697585Y-92412330D01*
X42372729Y-92898511D01*
X42258655Y-93472000D01*
X42372729Y-94045489D01*
X42697585Y-94531670D01*
X43007069Y-94738461D01*
X42591268Y-95109964D01*
X42337291Y-95637209D01*
X42334642Y-95652974D01*
X42455783Y-95885000D01*
X43815000Y-95885000D01*
X43815000Y-95865000D01*
X44069000Y-95865000D01*
X44069000Y-95885000D01*
X45428217Y-95885000D01*
X45549358Y-95652974D01*
X45546709Y-95637209D01*
X45292732Y-95109964D01*
X44876931Y-94738461D01*
X45186415Y-94531670D01*
X45511271Y-94045489D01*
X45530110Y-93950775D01*
X58554803Y-93950775D01*
X58727233Y-94368086D01*
X59046235Y-94687645D01*
X59463244Y-94860803D01*
X59914775Y-94861197D01*
X60332086Y-94688767D01*
X60651645Y-94369765D01*
X60824803Y-93952756D01*
X60825197Y-93501225D01*
X60652767Y-93083914D01*
X60333765Y-92764355D01*
X59916756Y-92591197D01*
X59465225Y-92590803D01*
X59047914Y-92763233D01*
X58728355Y-93082235D01*
X58555197Y-93499244D01*
X58554803Y-93950775D01*
X45530110Y-93950775D01*
X45625345Y-93472000D01*
X45511271Y-92898511D01*
X45186415Y-92412330D01*
X44871634Y-92202000D01*
X44913588Y-92173967D01*
X66432430Y-92173967D01*
X66432430Y-93246033D01*
X66537900Y-93776268D01*
X66838254Y-94225779D01*
X67287765Y-94526133D01*
X67818000Y-94631603D01*
X68348235Y-94526133D01*
X68797746Y-94225779D01*
X69098100Y-93776268D01*
X69203570Y-93246033D01*
X69203570Y-92173967D01*
X71512430Y-92173967D01*
X71512430Y-93246033D01*
X71617900Y-93776268D01*
X71918254Y-94225779D01*
X72367765Y-94526133D01*
X72898000Y-94631603D01*
X73428235Y-94526133D01*
X73865442Y-94234000D01*
X92468960Y-94234000D01*
X92468960Y-96266000D01*
X92513238Y-96501317D01*
X92652310Y-96717441D01*
X92864510Y-96862431D01*
X93116400Y-96913440D01*
X94843600Y-96913440D01*
X95078917Y-96869162D01*
X95295041Y-96730090D01*
X95440031Y-96517890D01*
X95448400Y-96476561D01*
X95460330Y-96494415D01*
X95946511Y-96819271D01*
X96520000Y-96933345D01*
X97093489Y-96819271D01*
X97579670Y-96494415D01*
X97790000Y-96179634D01*
X98000330Y-96494415D01*
X98486511Y-96819271D01*
X99060000Y-96933345D01*
X99633489Y-96819271D01*
X100119670Y-96494415D01*
X100444526Y-96008234D01*
X100558600Y-95434745D01*
X100558600Y-95065255D01*
X100444526Y-94491766D01*
X100119670Y-94005585D01*
X99633489Y-93680729D01*
X99060000Y-93566655D01*
X98486511Y-93680729D01*
X98000330Y-94005585D01*
X97790000Y-94320366D01*
X97579670Y-94005585D01*
X97093489Y-93680729D01*
X96520000Y-93566655D01*
X95946511Y-93680729D01*
X95460330Y-94005585D01*
X95450757Y-94019913D01*
X95446762Y-93998683D01*
X95307690Y-93782559D01*
X95095490Y-93637569D01*
X94843600Y-93586560D01*
X93116400Y-93586560D01*
X92881083Y-93630838D01*
X92664959Y-93769910D01*
X92519969Y-93982110D01*
X92468960Y-94234000D01*
X73865442Y-94234000D01*
X73877746Y-94225779D01*
X74178100Y-93776268D01*
X74283570Y-93246033D01*
X74283570Y-92426775D01*
X97924803Y-92426775D01*
X98097233Y-92844086D01*
X98416235Y-93163645D01*
X98833244Y-93336803D01*
X99284775Y-93337197D01*
X99702086Y-93164767D01*
X100021645Y-92845765D01*
X100194803Y-92428756D01*
X100195197Y-91977225D01*
X100022767Y-91559914D01*
X99703765Y-91240355D01*
X99286756Y-91067197D01*
X98835225Y-91066803D01*
X98417914Y-91239233D01*
X98098355Y-91558235D01*
X97925197Y-91975244D01*
X97924803Y-92426775D01*
X74283570Y-92426775D01*
X74283570Y-92173967D01*
X74178100Y-91643732D01*
X73877746Y-91194221D01*
X73428235Y-90893867D01*
X72898000Y-90788397D01*
X72367765Y-90893867D01*
X71918254Y-91194221D01*
X71617900Y-91643732D01*
X71512430Y-92173967D01*
X69203570Y-92173967D01*
X69098100Y-91643732D01*
X68797746Y-91194221D01*
X68348235Y-90893867D01*
X67818000Y-90788397D01*
X67287765Y-90893867D01*
X66838254Y-91194221D01*
X66537900Y-91643732D01*
X66432430Y-92173967D01*
X44913588Y-92173967D01*
X45186415Y-91991670D01*
X45511271Y-91505489D01*
X45580634Y-91156775D01*
X51696803Y-91156775D01*
X51869233Y-91574086D01*
X52188235Y-91893645D01*
X52605244Y-92066803D01*
X53056775Y-92067197D01*
X53474086Y-91894767D01*
X53793645Y-91575765D01*
X53966803Y-91158756D01*
X53967197Y-90707225D01*
X53794767Y-90289914D01*
X53475765Y-89970355D01*
X53058756Y-89797197D01*
X52607225Y-89796803D01*
X52189914Y-89969233D01*
X51870355Y-90288235D01*
X51697197Y-90705244D01*
X51696803Y-91156775D01*
X45580634Y-91156775D01*
X45625345Y-90932000D01*
X45511271Y-90358511D01*
X45186415Y-89872330D01*
X44871634Y-89662000D01*
X45186415Y-89451670D01*
X45511271Y-88965489D01*
X45530110Y-88870775D01*
X45854803Y-88870775D01*
X46027233Y-89288086D01*
X46346235Y-89607645D01*
X46763244Y-89780803D01*
X47214775Y-89781197D01*
X47573982Y-89632775D01*
X58808803Y-89632775D01*
X58981233Y-90050086D01*
X59300235Y-90369645D01*
X59433562Y-90425007D01*
X59317197Y-90705244D01*
X59316803Y-91156775D01*
X59489233Y-91574086D01*
X59808235Y-91893645D01*
X60225244Y-92066803D01*
X60676775Y-92067197D01*
X61094086Y-91894767D01*
X61413645Y-91575765D01*
X61586803Y-91158756D01*
X61587197Y-90707225D01*
X61414767Y-90289914D01*
X61095765Y-89970355D01*
X60962438Y-89914993D01*
X61078803Y-89634756D01*
X61078804Y-89632775D01*
X63380803Y-89632775D01*
X63553233Y-90050086D01*
X63872235Y-90369645D01*
X64289244Y-90542803D01*
X64740775Y-90543197D01*
X65099982Y-90394775D01*
X95130803Y-90394775D01*
X95303233Y-90812086D01*
X95622235Y-91131645D01*
X96039244Y-91304803D01*
X96490775Y-91305197D01*
X96908086Y-91132767D01*
X97227645Y-90813765D01*
X97400803Y-90396756D01*
X97401197Y-89945225D01*
X97228767Y-89527914D01*
X96909765Y-89208355D01*
X96708483Y-89124775D01*
X119260803Y-89124775D01*
X119433233Y-89542086D01*
X119752235Y-89861645D01*
X120169244Y-90034803D01*
X120620775Y-90035197D01*
X121038086Y-89862767D01*
X121357645Y-89543765D01*
X121530803Y-89126756D01*
X121531197Y-88675225D01*
X121358767Y-88257914D01*
X121039765Y-87938355D01*
X120622756Y-87765197D01*
X120171225Y-87764803D01*
X119753914Y-87937233D01*
X119434355Y-88256235D01*
X119261197Y-88673244D01*
X119260803Y-89124775D01*
X96708483Y-89124775D01*
X96492756Y-89035197D01*
X96041225Y-89034803D01*
X95623914Y-89207233D01*
X95304355Y-89526235D01*
X95131197Y-89943244D01*
X95130803Y-90394775D01*
X65099982Y-90394775D01*
X65158086Y-90370767D01*
X65477645Y-90051765D01*
X65650803Y-89634756D01*
X65651197Y-89183225D01*
X65627046Y-89124775D01*
X75064803Y-89124775D01*
X75237233Y-89542086D01*
X75556235Y-89861645D01*
X75973244Y-90034803D01*
X76424775Y-90035197D01*
X76842086Y-89862767D01*
X77161645Y-89543765D01*
X77334803Y-89126756D01*
X77334804Y-89124775D01*
X89288803Y-89124775D01*
X89461233Y-89542086D01*
X89780235Y-89861645D01*
X90197244Y-90034803D01*
X90648775Y-90035197D01*
X91066086Y-89862767D01*
X91385645Y-89543765D01*
X91558803Y-89126756D01*
X91559197Y-88675225D01*
X91386767Y-88257914D01*
X91067765Y-87938355D01*
X90650756Y-87765197D01*
X90199225Y-87764803D01*
X89781914Y-87937233D01*
X89462355Y-88256235D01*
X89289197Y-88673244D01*
X89288803Y-89124775D01*
X77334804Y-89124775D01*
X77335197Y-88675225D01*
X77162767Y-88257914D01*
X76843765Y-87938355D01*
X76426756Y-87765197D01*
X75975225Y-87764803D01*
X75557914Y-87937233D01*
X75238355Y-88256235D01*
X75065197Y-88673244D01*
X75064803Y-89124775D01*
X65627046Y-89124775D01*
X65478767Y-88765914D01*
X65159765Y-88446355D01*
X64742756Y-88273197D01*
X64291225Y-88272803D01*
X63873914Y-88445233D01*
X63554355Y-88764235D01*
X63381197Y-89181244D01*
X63380803Y-89632775D01*
X61078804Y-89632775D01*
X61079197Y-89183225D01*
X60906767Y-88765914D01*
X60587765Y-88446355D01*
X60170756Y-88273197D01*
X59719225Y-88272803D01*
X59301914Y-88445233D01*
X58982355Y-88764235D01*
X58809197Y-89181244D01*
X58808803Y-89632775D01*
X47573982Y-89632775D01*
X47632086Y-89608767D01*
X47951645Y-89289765D01*
X48124803Y-88872756D01*
X48125197Y-88421225D01*
X47952767Y-88003914D01*
X47633765Y-87684355D01*
X47216756Y-87511197D01*
X46765225Y-87510803D01*
X46347914Y-87683233D01*
X46028355Y-88002235D01*
X45855197Y-88419244D01*
X45854803Y-88870775D01*
X45530110Y-88870775D01*
X45625345Y-88392000D01*
X45511271Y-87818511D01*
X45186415Y-87332330D01*
X44871634Y-87122000D01*
X45186415Y-86911670D01*
X45511271Y-86425489D01*
X45625345Y-85852000D01*
X45511271Y-85278511D01*
X45186415Y-84792330D01*
X44871634Y-84582000D01*
X45186415Y-84371670D01*
X45235121Y-84298775D01*
X48394803Y-84298775D01*
X48567233Y-84716086D01*
X48886235Y-85035645D01*
X49303244Y-85208803D01*
X49732493Y-85209178D01*
X49665197Y-85371244D01*
X49664803Y-85822775D01*
X49837233Y-86240086D01*
X50156235Y-86559645D01*
X50573244Y-86732803D01*
X51024775Y-86733197D01*
X51442086Y-86560767D01*
X51761645Y-86241765D01*
X51934803Y-85824756D01*
X51934804Y-85822775D01*
X54490803Y-85822775D01*
X54663233Y-86240086D01*
X54982235Y-86559645D01*
X55399244Y-86732803D01*
X55850775Y-86733197D01*
X56268086Y-86560767D01*
X56587645Y-86241765D01*
X56760803Y-85824756D01*
X56760804Y-85822775D01*
X57792803Y-85822775D01*
X57965233Y-86240086D01*
X58284235Y-86559645D01*
X58701244Y-86732803D01*
X59152775Y-86733197D01*
X59570086Y-86560767D01*
X59889645Y-86241765D01*
X59958155Y-86076775D01*
X83954803Y-86076775D01*
X84127233Y-86494086D01*
X84446235Y-86813645D01*
X84863244Y-86986803D01*
X85314775Y-86987197D01*
X85732086Y-86814767D01*
X86051645Y-86495765D01*
X86224803Y-86078756D01*
X86224804Y-86076775D01*
X95130803Y-86076775D01*
X95303233Y-86494086D01*
X95622235Y-86813645D01*
X96039244Y-86986803D01*
X96490775Y-86987197D01*
X96849982Y-86838775D01*
X105036803Y-86838775D01*
X105209233Y-87256086D01*
X105528235Y-87575645D01*
X105945244Y-87748803D01*
X106396775Y-87749197D01*
X106814086Y-87576767D01*
X107133645Y-87257765D01*
X107306803Y-86840756D01*
X107307197Y-86389225D01*
X107134767Y-85971914D01*
X106815765Y-85652355D01*
X106398756Y-85479197D01*
X105947225Y-85478803D01*
X105529914Y-85651233D01*
X105210355Y-85970235D01*
X105037197Y-86387244D01*
X105036803Y-86838775D01*
X96849982Y-86838775D01*
X96908086Y-86814767D01*
X97227645Y-86495765D01*
X97400803Y-86078756D01*
X97401197Y-85627225D01*
X97228767Y-85209914D01*
X96909765Y-84890355D01*
X96492756Y-84717197D01*
X96041225Y-84716803D01*
X95623914Y-84889233D01*
X95304355Y-85208235D01*
X95131197Y-85625244D01*
X95130803Y-86076775D01*
X86224804Y-86076775D01*
X86225197Y-85627225D01*
X86052767Y-85209914D01*
X85733765Y-84890355D01*
X85316756Y-84717197D01*
X84865225Y-84716803D01*
X84447914Y-84889233D01*
X84128355Y-85208235D01*
X83955197Y-85625244D01*
X83954803Y-86076775D01*
X59958155Y-86076775D01*
X60062803Y-85824756D01*
X60063197Y-85373225D01*
X59890767Y-84955914D01*
X59571765Y-84636355D01*
X59154756Y-84463197D01*
X58703225Y-84462803D01*
X58285914Y-84635233D01*
X57966355Y-84954235D01*
X57793197Y-85371244D01*
X57792803Y-85822775D01*
X56760804Y-85822775D01*
X56761197Y-85373225D01*
X56588767Y-84955914D01*
X56269765Y-84636355D01*
X55852756Y-84463197D01*
X55401225Y-84462803D01*
X54983914Y-84635233D01*
X54664355Y-84954235D01*
X54491197Y-85371244D01*
X54490803Y-85822775D01*
X51934804Y-85822775D01*
X51935197Y-85373225D01*
X51762767Y-84955914D01*
X51443765Y-84636355D01*
X51026756Y-84463197D01*
X50597507Y-84462822D01*
X50664803Y-84300756D01*
X50664804Y-84298775D01*
X60078803Y-84298775D01*
X60251233Y-84716086D01*
X60570235Y-85035645D01*
X60987244Y-85208803D01*
X61438775Y-85209197D01*
X61856086Y-85036767D01*
X62175645Y-84717765D01*
X62348803Y-84300756D01*
X62349197Y-83849225D01*
X62176767Y-83431914D01*
X61857765Y-83112355D01*
X61440756Y-82939197D01*
X60989225Y-82938803D01*
X60571914Y-83111233D01*
X60252355Y-83430235D01*
X60079197Y-83847244D01*
X60078803Y-84298775D01*
X50664804Y-84298775D01*
X50665197Y-83849225D01*
X50492767Y-83431914D01*
X50173765Y-83112355D01*
X49756756Y-82939197D01*
X49305225Y-82938803D01*
X48887914Y-83111233D01*
X48568355Y-83430235D01*
X48395197Y-83847244D01*
X48394803Y-84298775D01*
X45235121Y-84298775D01*
X45511271Y-83885489D01*
X45625345Y-83312000D01*
X45511271Y-82738511D01*
X45186415Y-82252330D01*
X44871634Y-82042000D01*
X45186415Y-81831670D01*
X45511271Y-81345489D01*
X45625345Y-80772000D01*
X45619532Y-80742775D01*
X49410803Y-80742775D01*
X49583233Y-81160086D01*
X49902235Y-81479645D01*
X50319244Y-81652803D01*
X50770775Y-81653197D01*
X51129982Y-81504775D01*
X64904803Y-81504775D01*
X65077233Y-81922086D01*
X65396235Y-82241645D01*
X65813244Y-82414803D01*
X66264775Y-82415197D01*
X66682086Y-82242767D01*
X67001645Y-81923765D01*
X67174803Y-81506756D01*
X67174804Y-81504775D01*
X79382803Y-81504775D01*
X79555233Y-81922086D01*
X79874235Y-82241645D01*
X80291244Y-82414803D01*
X80742775Y-82415197D01*
X81160086Y-82242767D01*
X81479645Y-81923765D01*
X81652803Y-81506756D01*
X81652804Y-81504775D01*
X93098803Y-81504775D01*
X93271233Y-81922086D01*
X93590235Y-82241645D01*
X94007244Y-82414803D01*
X94458775Y-82415197D01*
X94876086Y-82242767D01*
X95195645Y-81923765D01*
X95368803Y-81506756D01*
X95368804Y-81504775D01*
X110116803Y-81504775D01*
X110289233Y-81922086D01*
X110608235Y-82241645D01*
X111025244Y-82414803D01*
X111476775Y-82415197D01*
X111894086Y-82242767D01*
X112213645Y-81923765D01*
X112386803Y-81506756D01*
X112387197Y-81055225D01*
X112214767Y-80637914D01*
X111895765Y-80318355D01*
X111478756Y-80145197D01*
X111027225Y-80144803D01*
X110609914Y-80317233D01*
X110290355Y-80636235D01*
X110117197Y-81053244D01*
X110116803Y-81504775D01*
X95368804Y-81504775D01*
X95369197Y-81055225D01*
X95196767Y-80637914D01*
X94877765Y-80318355D01*
X94460756Y-80145197D01*
X94009225Y-80144803D01*
X93591914Y-80317233D01*
X93272355Y-80636235D01*
X93099197Y-81053244D01*
X93098803Y-81504775D01*
X81652804Y-81504775D01*
X81653197Y-81055225D01*
X81480767Y-80637914D01*
X81161765Y-80318355D01*
X80744756Y-80145197D01*
X80293225Y-80144803D01*
X79875914Y-80317233D01*
X79556355Y-80636235D01*
X79383197Y-81053244D01*
X79382803Y-81504775D01*
X67174804Y-81504775D01*
X67175197Y-81055225D01*
X67002767Y-80637914D01*
X66683765Y-80318355D01*
X66266756Y-80145197D01*
X65815225Y-80144803D01*
X65397914Y-80317233D01*
X65078355Y-80636235D01*
X64905197Y-81053244D01*
X64904803Y-81504775D01*
X51129982Y-81504775D01*
X51188086Y-81480767D01*
X51507645Y-81161765D01*
X51680803Y-80744756D01*
X51681197Y-80293225D01*
X51508767Y-79875914D01*
X51359888Y-79726775D01*
X60586803Y-79726775D01*
X60759233Y-80144086D01*
X61078235Y-80463645D01*
X61495244Y-80636803D01*
X61946775Y-80637197D01*
X62364086Y-80464767D01*
X62683645Y-80145765D01*
X62856803Y-79728756D01*
X62856804Y-79726775D01*
X95384803Y-79726775D01*
X95557233Y-80144086D01*
X95876235Y-80463645D01*
X96293244Y-80636803D01*
X96744775Y-80637197D01*
X97162086Y-80464767D01*
X97481645Y-80145765D01*
X97654803Y-79728756D01*
X97654804Y-79726775D01*
X98432803Y-79726775D01*
X98605233Y-80144086D01*
X98924235Y-80463645D01*
X99341244Y-80636803D01*
X99792775Y-80637197D01*
X100210086Y-80464767D01*
X100529645Y-80145765D01*
X100702803Y-79728756D01*
X100703197Y-79277225D01*
X100530767Y-78859914D01*
X100211765Y-78540355D01*
X99794756Y-78367197D01*
X99343225Y-78366803D01*
X98925914Y-78539233D01*
X98606355Y-78858235D01*
X98433197Y-79275244D01*
X98432803Y-79726775D01*
X97654804Y-79726775D01*
X97655197Y-79277225D01*
X97482767Y-78859914D01*
X97163765Y-78540355D01*
X96746756Y-78367197D01*
X96295225Y-78366803D01*
X95877914Y-78539233D01*
X95558355Y-78858235D01*
X95385197Y-79275244D01*
X95384803Y-79726775D01*
X62856804Y-79726775D01*
X62857197Y-79277225D01*
X62684767Y-78859914D01*
X62365765Y-78540355D01*
X61948756Y-78367197D01*
X61497225Y-78366803D01*
X61079914Y-78539233D01*
X60760355Y-78858235D01*
X60587197Y-79275244D01*
X60586803Y-79726775D01*
X51359888Y-79726775D01*
X51189765Y-79556355D01*
X50772756Y-79383197D01*
X50321225Y-79382803D01*
X49903914Y-79555233D01*
X49584355Y-79874235D01*
X49411197Y-80291244D01*
X49410803Y-80742775D01*
X45619532Y-80742775D01*
X45511271Y-80198511D01*
X45186415Y-79712330D01*
X44876931Y-79505539D01*
X45292732Y-79134036D01*
X45546709Y-78606791D01*
X45549358Y-78591026D01*
X45428217Y-78359000D01*
X44069000Y-78359000D01*
X44069000Y-78379000D01*
X43815000Y-78379000D01*
X43815000Y-78359000D01*
X42455783Y-78359000D01*
X42334642Y-78591026D01*
X42337291Y-78606791D01*
X42591268Y-79134036D01*
X43007069Y-79505539D01*
X42697585Y-79712330D01*
X42372729Y-80198511D01*
X42258655Y-80772000D01*
X41529000Y-80772000D01*
X41529000Y-73152000D01*
X42258655Y-73152000D01*
X42372729Y-73725489D01*
X42697585Y-74211670D01*
X43012366Y-74422000D01*
X42697585Y-74632330D01*
X42372729Y-75118511D01*
X42258655Y-75692000D01*
X42372729Y-76265489D01*
X42697585Y-76751670D01*
X43007069Y-76958461D01*
X42591268Y-77329964D01*
X42337291Y-77857209D01*
X42334642Y-77872974D01*
X42455783Y-78105000D01*
X43815000Y-78105000D01*
X43815000Y-78085000D01*
X44069000Y-78085000D01*
X44069000Y-78105000D01*
X45428217Y-78105000D01*
X45549358Y-77872974D01*
X45546709Y-77857209D01*
X45468464Y-77694775D01*
X53982803Y-77694775D01*
X54155233Y-78112086D01*
X54474235Y-78431645D01*
X54891244Y-78604803D01*
X55342775Y-78605197D01*
X55760086Y-78432767D01*
X55990479Y-78202775D01*
X64904803Y-78202775D01*
X65077233Y-78620086D01*
X65396235Y-78939645D01*
X65813244Y-79112803D01*
X66264775Y-79113197D01*
X66682086Y-78940767D01*
X67001645Y-78621765D01*
X67070155Y-78456775D01*
X80144803Y-78456775D01*
X80317233Y-78874086D01*
X80636235Y-79193645D01*
X81053244Y-79366803D01*
X81504775Y-79367197D01*
X81922086Y-79194767D01*
X82241645Y-78875765D01*
X82414803Y-78458756D01*
X82415197Y-78007225D01*
X82242767Y-77589914D01*
X81923765Y-77270355D01*
X81506756Y-77097197D01*
X81055225Y-77096803D01*
X80637914Y-77269233D01*
X80318355Y-77588235D01*
X80145197Y-78005244D01*
X80144803Y-78456775D01*
X67070155Y-78456775D01*
X67174803Y-78204756D01*
X67175197Y-77753225D01*
X67002767Y-77335914D01*
X66683765Y-77016355D01*
X66266756Y-76843197D01*
X65815225Y-76842803D01*
X65397914Y-77015233D01*
X65078355Y-77334235D01*
X64905197Y-77751244D01*
X64904803Y-78202775D01*
X55990479Y-78202775D01*
X56079645Y-78113765D01*
X56252803Y-77696756D01*
X56253197Y-77245225D01*
X56080767Y-76827914D01*
X55761765Y-76508355D01*
X55344756Y-76335197D01*
X54893225Y-76334803D01*
X54475914Y-76507233D01*
X54156355Y-76826235D01*
X53983197Y-77243244D01*
X53982803Y-77694775D01*
X45468464Y-77694775D01*
X45292732Y-77329964D01*
X44876931Y-76958461D01*
X45186415Y-76751670D01*
X45511271Y-76265489D01*
X45580634Y-75916775D01*
X64904803Y-75916775D01*
X65077233Y-76334086D01*
X65396235Y-76653645D01*
X65813244Y-76826803D01*
X66264775Y-76827197D01*
X66682086Y-76654767D01*
X67001645Y-76335765D01*
X67174803Y-75918756D01*
X67175197Y-75467225D01*
X67002767Y-75049914D01*
X66683765Y-74730355D01*
X66266756Y-74557197D01*
X65815225Y-74556803D01*
X65397914Y-74729233D01*
X65078355Y-75048235D01*
X64905197Y-75465244D01*
X64904803Y-75916775D01*
X45580634Y-75916775D01*
X45625345Y-75692000D01*
X45511271Y-75118511D01*
X45186415Y-74632330D01*
X44871634Y-74422000D01*
X45186415Y-74211670D01*
X45511271Y-73725489D01*
X45625345Y-73152000D01*
X45511271Y-72578511D01*
X45196864Y-72107967D01*
X70242430Y-72107967D01*
X70242430Y-73180033D01*
X70347900Y-73710268D01*
X70648254Y-74159779D01*
X71097765Y-74460133D01*
X71628000Y-74565603D01*
X72158235Y-74460133D01*
X72607746Y-74159779D01*
X72908100Y-73710268D01*
X73013570Y-73180033D01*
X73013570Y-72107967D01*
X75322430Y-72107967D01*
X75322430Y-73180033D01*
X75427900Y-73710268D01*
X75728254Y-74159779D01*
X76177765Y-74460133D01*
X76708000Y-74565603D01*
X77238235Y-74460133D01*
X77687746Y-74159779D01*
X77988100Y-73710268D01*
X78093570Y-73180033D01*
X78093570Y-73152481D01*
X80328777Y-73152481D01*
X80523995Y-73624943D01*
X80885155Y-73986735D01*
X81357276Y-74182777D01*
X81868481Y-74183223D01*
X82340943Y-73988005D01*
X82702735Y-73626845D01*
X82898777Y-73154724D01*
X82899223Y-72643519D01*
X82735798Y-72248000D01*
X85316560Y-72248000D01*
X85316560Y-73548000D01*
X85360838Y-73783317D01*
X85499910Y-73999441D01*
X85712110Y-74144431D01*
X85964000Y-74195440D01*
X87264000Y-74195440D01*
X87499317Y-74151162D01*
X87715441Y-74012090D01*
X87802431Y-73884775D01*
X114180803Y-73884775D01*
X114353233Y-74302086D01*
X114672235Y-74621645D01*
X115089244Y-74794803D01*
X115540775Y-74795197D01*
X115958086Y-74622767D01*
X116277645Y-74303765D01*
X116450803Y-73886756D01*
X116451197Y-73435225D01*
X116278767Y-73017914D01*
X115959765Y-72698355D01*
X115542756Y-72525197D01*
X115091225Y-72524803D01*
X114673914Y-72697233D01*
X114354355Y-73016235D01*
X114181197Y-73433244D01*
X114180803Y-73884775D01*
X87802431Y-73884775D01*
X87860431Y-73799890D01*
X87911440Y-73548000D01*
X87911440Y-72248000D01*
X87867162Y-72012683D01*
X87728090Y-71796559D01*
X87515890Y-71651569D01*
X87264000Y-71600560D01*
X85964000Y-71600560D01*
X85728683Y-71644838D01*
X85512559Y-71783910D01*
X85367569Y-71996110D01*
X85316560Y-72248000D01*
X82735798Y-72248000D01*
X82704005Y-72171057D01*
X82342845Y-71809265D01*
X81870724Y-71613223D01*
X81359519Y-71612777D01*
X80887057Y-71807995D01*
X80525265Y-72169155D01*
X80329223Y-72641276D01*
X80328777Y-73152481D01*
X78093570Y-73152481D01*
X78093570Y-72107967D01*
X77988100Y-71577732D01*
X77687746Y-71128221D01*
X77238235Y-70827867D01*
X76708000Y-70722397D01*
X76177765Y-70827867D01*
X75728254Y-71128221D01*
X75427900Y-71577732D01*
X75322430Y-72107967D01*
X73013570Y-72107967D01*
X72908100Y-71577732D01*
X72607746Y-71128221D01*
X72158235Y-70827867D01*
X71628000Y-70722397D01*
X71097765Y-70827867D01*
X70648254Y-71128221D01*
X70347900Y-71577732D01*
X70242430Y-72107967D01*
X45196864Y-72107967D01*
X45186415Y-72092330D01*
X44876931Y-71885539D01*
X45292732Y-71514036D01*
X45546709Y-70986791D01*
X45549358Y-70971026D01*
X45428217Y-70739000D01*
X44069000Y-70739000D01*
X44069000Y-70759000D01*
X43815000Y-70759000D01*
X43815000Y-70739000D01*
X42455783Y-70739000D01*
X42334642Y-70971026D01*
X42337291Y-70986791D01*
X42591268Y-71514036D01*
X43007069Y-71885539D01*
X42697585Y-72092330D01*
X42372729Y-72578511D01*
X42258655Y-73152000D01*
X41529000Y-73152000D01*
X41529000Y-68072000D01*
X42258655Y-68072000D01*
X42372729Y-68645489D01*
X42697585Y-69131670D01*
X43007069Y-69338461D01*
X42591268Y-69709964D01*
X42337291Y-70237209D01*
X42334642Y-70252974D01*
X42455783Y-70485000D01*
X43815000Y-70485000D01*
X43815000Y-70465000D01*
X44069000Y-70465000D01*
X44069000Y-70485000D01*
X45428217Y-70485000D01*
X45549358Y-70252974D01*
X45546709Y-70237209D01*
X45292732Y-69709964D01*
X44876931Y-69338461D01*
X45186415Y-69131670D01*
X45511271Y-68645489D01*
X45625345Y-68072000D01*
X45511271Y-67498511D01*
X45317425Y-67208400D01*
X84594960Y-67208400D01*
X84594960Y-69443600D01*
X84639238Y-69678917D01*
X84778310Y-69895041D01*
X84990510Y-70040031D01*
X85242400Y-70091040D01*
X87477600Y-70091040D01*
X87712917Y-70046762D01*
X87929041Y-69907690D01*
X88074031Y-69695490D01*
X88125040Y-69443600D01*
X88125040Y-67208400D01*
X88080762Y-66973083D01*
X87941690Y-66756959D01*
X87729490Y-66611969D01*
X87477600Y-66560960D01*
X85242400Y-66560960D01*
X85007083Y-66605238D01*
X84790959Y-66744310D01*
X84645969Y-66956510D01*
X84594960Y-67208400D01*
X45317425Y-67208400D01*
X45186415Y-67012330D01*
X44876931Y-66805539D01*
X45292732Y-66434036D01*
X45546709Y-65906791D01*
X45549358Y-65891026D01*
X45428217Y-65659000D01*
X44069000Y-65659000D01*
X44069000Y-65679000D01*
X43815000Y-65679000D01*
X43815000Y-65659000D01*
X42455783Y-65659000D01*
X42334642Y-65891026D01*
X42337291Y-65906791D01*
X42591268Y-66434036D01*
X43007069Y-66805539D01*
X42697585Y-67012330D01*
X42372729Y-67498511D01*
X42258655Y-68072000D01*
X41529000Y-68072000D01*
X41529000Y-62128400D01*
X42278560Y-62128400D01*
X42278560Y-63855600D01*
X42322838Y-64090917D01*
X42461910Y-64307041D01*
X42674110Y-64452031D01*
X42768927Y-64471232D01*
X42591268Y-64629964D01*
X42337291Y-65157209D01*
X42334642Y-65172974D01*
X42455783Y-65405000D01*
X43815000Y-65405000D01*
X43815000Y-65385000D01*
X44069000Y-65385000D01*
X44069000Y-65405000D01*
X45428217Y-65405000D01*
X45549358Y-65172974D01*
X45546709Y-65157209D01*
X45292732Y-64629964D01*
X45117155Y-64473093D01*
X45193317Y-64458762D01*
X45409441Y-64319690D01*
X45554431Y-64107490D01*
X45605440Y-63855600D01*
X45605440Y-62708775D01*
X50426803Y-62708775D01*
X50599233Y-63126086D01*
X50918235Y-63445645D01*
X51335244Y-63618803D01*
X51786775Y-63619197D01*
X52204086Y-63446767D01*
X52523645Y-63127765D01*
X52696803Y-62710756D01*
X52696804Y-62708775D01*
X53728803Y-62708775D01*
X53901233Y-63126086D01*
X54220235Y-63445645D01*
X54637244Y-63618803D01*
X55088775Y-63619197D01*
X55506086Y-63446767D01*
X55825645Y-63127765D01*
X55998803Y-62710756D01*
X55999197Y-62259225D01*
X55826767Y-61841914D01*
X55507765Y-61522355D01*
X55090756Y-61349197D01*
X54639225Y-61348803D01*
X54221914Y-61521233D01*
X53902355Y-61840235D01*
X53729197Y-62257244D01*
X53728803Y-62708775D01*
X52696804Y-62708775D01*
X52697197Y-62259225D01*
X52524767Y-61841914D01*
X52205765Y-61522355D01*
X51788756Y-61349197D01*
X51337225Y-61348803D01*
X50919914Y-61521233D01*
X50600355Y-61840235D01*
X50427197Y-62257244D01*
X50426803Y-62708775D01*
X45605440Y-62708775D01*
X45605440Y-62128400D01*
X45561162Y-61893083D01*
X45422090Y-61676959D01*
X45209890Y-61531969D01*
X44958000Y-61480960D01*
X42926000Y-61480960D01*
X42690683Y-61525238D01*
X42474559Y-61664310D01*
X42329569Y-61876510D01*
X42278560Y-62128400D01*
X41529000Y-62128400D01*
X41529000Y-53818775D01*
X59824803Y-53818775D01*
X59997233Y-54236086D01*
X60316235Y-54555645D01*
X60733244Y-54728803D01*
X61184775Y-54729197D01*
X61602086Y-54556767D01*
X61921645Y-54237765D01*
X62094803Y-53820756D01*
X62095197Y-53369225D01*
X61922767Y-52951914D01*
X61603765Y-52632355D01*
X61186756Y-52459197D01*
X60735225Y-52458803D01*
X60317914Y-52631233D01*
X59998355Y-52950235D01*
X59825197Y-53367244D01*
X59824803Y-53818775D01*
X41529000Y-53818775D01*
X41529000Y-52802775D01*
X52966803Y-52802775D01*
X53139233Y-53220086D01*
X53458235Y-53539645D01*
X53875244Y-53712803D01*
X54326775Y-53713197D01*
X54744086Y-53540767D01*
X55063645Y-53221765D01*
X55236803Y-52804756D01*
X55237197Y-52353225D01*
X55064767Y-51935914D01*
X54745765Y-51616355D01*
X54328756Y-51443197D01*
X53877225Y-51442803D01*
X53459914Y-51615233D01*
X53140355Y-51934235D01*
X52967197Y-52351244D01*
X52966803Y-52802775D01*
X41529000Y-52802775D01*
X41529000Y-51413026D01*
X42334642Y-51413026D01*
X42337291Y-51428791D01*
X42591268Y-51956036D01*
X43027680Y-52345954D01*
X43580087Y-52539184D01*
X43815000Y-52394924D01*
X43815000Y-51181000D01*
X44069000Y-51181000D01*
X44069000Y-52394924D01*
X44303913Y-52539184D01*
X44856320Y-52345954D01*
X45292732Y-51956036D01*
X45543718Y-51435000D01*
X115962430Y-51435000D01*
X115962430Y-51934110D01*
X116116501Y-52454677D01*
X116458056Y-52876658D01*
X116935097Y-53135810D01*
X117006725Y-53149993D01*
X117221000Y-53027339D01*
X117221000Y-51435000D01*
X117475000Y-51435000D01*
X117475000Y-53027339D01*
X117689275Y-53149993D01*
X117760903Y-53135810D01*
X118237944Y-52876658D01*
X118579499Y-52454677D01*
X118733570Y-51934110D01*
X118733570Y-51435000D01*
X117475000Y-51435000D01*
X117221000Y-51435000D01*
X115962430Y-51435000D01*
X45543718Y-51435000D01*
X45546709Y-51428791D01*
X45549358Y-51413026D01*
X45428217Y-51181000D01*
X44069000Y-51181000D01*
X43815000Y-51181000D01*
X42455783Y-51181000D01*
X42334642Y-51413026D01*
X41529000Y-51413026D01*
X41529000Y-48873026D01*
X42334642Y-48873026D01*
X42337291Y-48888791D01*
X42591268Y-49416036D01*
X43003108Y-49784000D01*
X42591268Y-50151964D01*
X42337291Y-50679209D01*
X42334642Y-50694974D01*
X42455783Y-50927000D01*
X43815000Y-50927000D01*
X43815000Y-48641000D01*
X44069000Y-48641000D01*
X44069000Y-50927000D01*
X45428217Y-50927000D01*
X45549358Y-50694974D01*
X45546709Y-50679209D01*
X45292732Y-50151964D01*
X44880892Y-49784000D01*
X45292732Y-49416036D01*
X45546709Y-48888791D01*
X45549358Y-48873026D01*
X45428217Y-48641000D01*
X44069000Y-48641000D01*
X43815000Y-48641000D01*
X42455783Y-48641000D01*
X42334642Y-48873026D01*
X41529000Y-48873026D01*
X41529000Y-48485967D01*
X66432430Y-48485967D01*
X66432430Y-49558033D01*
X66537900Y-50088268D01*
X66838254Y-50537779D01*
X67287765Y-50838133D01*
X67818000Y-50943603D01*
X68348235Y-50838133D01*
X68797746Y-50537779D01*
X69098100Y-50088268D01*
X69203570Y-49558033D01*
X69203570Y-49149000D01*
X71512430Y-49149000D01*
X71512430Y-49648110D01*
X71666501Y-50168677D01*
X72008056Y-50590658D01*
X72485097Y-50849810D01*
X72556725Y-50863993D01*
X72771000Y-50741339D01*
X72771000Y-49149000D01*
X73025000Y-49149000D01*
X73025000Y-50741339D01*
X73239275Y-50863993D01*
X73310903Y-50849810D01*
X73620006Y-50681890D01*
X115962430Y-50681890D01*
X115962430Y-51181000D01*
X117221000Y-51181000D01*
X117221000Y-49588661D01*
X117475000Y-49588661D01*
X117475000Y-51181000D01*
X118733570Y-51181000D01*
X118733570Y-50771967D01*
X121042430Y-50771967D01*
X121042430Y-51844033D01*
X121147900Y-52374268D01*
X121448254Y-52823779D01*
X121897765Y-53124133D01*
X122428000Y-53229603D01*
X122958235Y-53124133D01*
X123407746Y-52823779D01*
X123708100Y-52374268D01*
X123813570Y-51844033D01*
X123813570Y-50771967D01*
X123708100Y-50241732D01*
X123407746Y-49792221D01*
X122958235Y-49491867D01*
X122428000Y-49386397D01*
X121897765Y-49491867D01*
X121448254Y-49792221D01*
X121147900Y-50241732D01*
X121042430Y-50771967D01*
X118733570Y-50771967D01*
X118733570Y-50681890D01*
X118579499Y-50161323D01*
X118237944Y-49739342D01*
X117760903Y-49480190D01*
X117689275Y-49466007D01*
X117475000Y-49588661D01*
X117221000Y-49588661D01*
X117006725Y-49466007D01*
X116935097Y-49480190D01*
X116458056Y-49739342D01*
X116116501Y-50161323D01*
X115962430Y-50681890D01*
X73620006Y-50681890D01*
X73787944Y-50590658D01*
X74129499Y-50168677D01*
X74283570Y-49648110D01*
X74283570Y-49149000D01*
X73025000Y-49149000D01*
X72771000Y-49149000D01*
X71512430Y-49149000D01*
X69203570Y-49149000D01*
X69203570Y-48992775D01*
X134500803Y-48992775D01*
X134673233Y-49410086D01*
X134992235Y-49729645D01*
X135409244Y-49902803D01*
X135860775Y-49903197D01*
X136278086Y-49730767D01*
X136597645Y-49411765D01*
X136770803Y-48994756D01*
X136771197Y-48543225D01*
X136598767Y-48125914D01*
X136279765Y-47806355D01*
X135862756Y-47633197D01*
X135411225Y-47632803D01*
X134993914Y-47805233D01*
X134674355Y-48124235D01*
X134501197Y-48541244D01*
X134500803Y-48992775D01*
X69203570Y-48992775D01*
X69203570Y-48485967D01*
X69185653Y-48395890D01*
X71512430Y-48395890D01*
X71512430Y-48895000D01*
X72771000Y-48895000D01*
X72771000Y-47302661D01*
X73025000Y-47302661D01*
X73025000Y-48895000D01*
X74283570Y-48895000D01*
X74283570Y-48395890D01*
X74129499Y-47875323D01*
X73842433Y-47520661D01*
X115442758Y-47520661D01*
X115654990Y-48034303D01*
X116047630Y-48427629D01*
X116560900Y-48640757D01*
X117116661Y-48641242D01*
X117630303Y-48429010D01*
X118023629Y-48036370D01*
X118236757Y-47523100D01*
X118236759Y-47520661D01*
X120522758Y-47520661D01*
X120734990Y-48034303D01*
X121127630Y-48427629D01*
X121640900Y-48640757D01*
X122196661Y-48641242D01*
X122710303Y-48429010D01*
X123103629Y-48036370D01*
X123316757Y-47523100D01*
X123317242Y-46967339D01*
X123105010Y-46453697D01*
X122712370Y-46060371D01*
X122199100Y-45847243D01*
X121643339Y-45846758D01*
X121129697Y-46058990D01*
X120736371Y-46451630D01*
X120523243Y-46964900D01*
X120522758Y-47520661D01*
X118236759Y-47520661D01*
X118237242Y-46967339D01*
X118025010Y-46453697D01*
X117632370Y-46060371D01*
X117119100Y-45847243D01*
X116563339Y-45846758D01*
X116049697Y-46058990D01*
X115656371Y-46451630D01*
X115443243Y-46964900D01*
X115442758Y-47520661D01*
X73842433Y-47520661D01*
X73787944Y-47453342D01*
X73310903Y-47194190D01*
X73239275Y-47180007D01*
X73025000Y-47302661D01*
X72771000Y-47302661D01*
X72556725Y-47180007D01*
X72485097Y-47194190D01*
X72008056Y-47453342D01*
X71666501Y-47875323D01*
X71512430Y-48395890D01*
X69185653Y-48395890D01*
X69098100Y-47955732D01*
X68797746Y-47506221D01*
X68348235Y-47205867D01*
X67818000Y-47100397D01*
X67287765Y-47205867D01*
X66838254Y-47506221D01*
X66537900Y-47955732D01*
X66432430Y-48485967D01*
X41529000Y-48485967D01*
X41529000Y-40894000D01*
X42258655Y-40894000D01*
X42372729Y-41467489D01*
X42697585Y-41953670D01*
X43012366Y-42164000D01*
X42697585Y-42374330D01*
X42372729Y-42860511D01*
X42258655Y-43434000D01*
X42372729Y-44007489D01*
X42697585Y-44493670D01*
X43012366Y-44704000D01*
X42697585Y-44914330D01*
X42372729Y-45400511D01*
X42258655Y-45974000D01*
X42372729Y-46547489D01*
X42697585Y-47033670D01*
X43007069Y-47240461D01*
X42591268Y-47611964D01*
X42337291Y-48139209D01*
X42334642Y-48154974D01*
X42455783Y-48387000D01*
X43815000Y-48387000D01*
X43815000Y-48367000D01*
X44069000Y-48367000D01*
X44069000Y-48387000D01*
X45428217Y-48387000D01*
X45549358Y-48154974D01*
X45546709Y-48139209D01*
X45292732Y-47611964D01*
X44876931Y-47240461D01*
X45186415Y-47033670D01*
X45511271Y-46547489D01*
X45625345Y-45974000D01*
X45511271Y-45400511D01*
X45186415Y-44914330D01*
X44871634Y-44704000D01*
X45186415Y-44493670D01*
X45511271Y-44007489D01*
X45519790Y-43964661D01*
X66928758Y-43964661D01*
X67140990Y-44478303D01*
X67533630Y-44871629D01*
X68046900Y-45084757D01*
X68602661Y-45085242D01*
X69116303Y-44873010D01*
X69509629Y-44480370D01*
X69722757Y-43967100D01*
X69722759Y-43964661D01*
X72008758Y-43964661D01*
X72220990Y-44478303D01*
X72613630Y-44871629D01*
X73126900Y-45084757D01*
X73682661Y-45085242D01*
X73935767Y-44980661D01*
X93090758Y-44980661D01*
X93302990Y-45494303D01*
X93695630Y-45887629D01*
X94208900Y-46100757D01*
X94764661Y-46101242D01*
X95278303Y-45889010D01*
X95671629Y-45496370D01*
X95884757Y-44983100D01*
X95884759Y-44980661D01*
X117982758Y-44980661D01*
X118194990Y-45494303D01*
X118587630Y-45887629D01*
X119100900Y-46100757D01*
X119656661Y-46101242D01*
X120170303Y-45889010D01*
X120563629Y-45496370D01*
X120776757Y-44983100D01*
X120777242Y-44427339D01*
X120565010Y-43913697D01*
X120172370Y-43520371D01*
X119659100Y-43307243D01*
X119103339Y-43306758D01*
X118589697Y-43518990D01*
X118196371Y-43911630D01*
X117983243Y-44424900D01*
X117982758Y-44980661D01*
X95884759Y-44980661D01*
X95885242Y-44427339D01*
X95673010Y-43913697D01*
X95280370Y-43520371D01*
X94767100Y-43307243D01*
X94211339Y-43306758D01*
X93697697Y-43518990D01*
X93304371Y-43911630D01*
X93091243Y-44424900D01*
X93090758Y-44980661D01*
X73935767Y-44980661D01*
X74196303Y-44873010D01*
X74589629Y-44480370D01*
X74802757Y-43967100D01*
X74803242Y-43411339D01*
X74591010Y-42897697D01*
X74198370Y-42504371D01*
X73685100Y-42291243D01*
X73129339Y-42290758D01*
X72615697Y-42502990D01*
X72222371Y-42895630D01*
X72009243Y-43408900D01*
X72008758Y-43964661D01*
X69722759Y-43964661D01*
X69723242Y-43411339D01*
X69511010Y-42897697D01*
X69118370Y-42504371D01*
X68605100Y-42291243D01*
X68049339Y-42290758D01*
X67535697Y-42502990D01*
X67142371Y-42895630D01*
X66929243Y-43408900D01*
X66928758Y-43964661D01*
X45519790Y-43964661D01*
X45625345Y-43434000D01*
X45511271Y-42860511D01*
X45186415Y-42374330D01*
X44871634Y-42164000D01*
X45186415Y-41953670D01*
X45511271Y-41467489D01*
X45519790Y-41424661D01*
X69468758Y-41424661D01*
X69680990Y-41938303D01*
X70073630Y-42331629D01*
X70586900Y-42544757D01*
X71142661Y-42545242D01*
X71656303Y-42333010D01*
X71802907Y-42186661D01*
X90423758Y-42186661D01*
X90635990Y-42700303D01*
X91028630Y-43093629D01*
X91541900Y-43306757D01*
X92097661Y-43307242D01*
X92611303Y-43095010D01*
X93004629Y-42702370D01*
X93217757Y-42189100D01*
X93218242Y-41633339D01*
X93006010Y-41119697D01*
X92613370Y-40726371D01*
X92100100Y-40513243D01*
X91544339Y-40512758D01*
X91030697Y-40724990D01*
X90637371Y-41117630D01*
X90424243Y-41630900D01*
X90423758Y-42186661D01*
X71802907Y-42186661D01*
X72049629Y-41940370D01*
X72262757Y-41427100D01*
X72263242Y-40871339D01*
X72051010Y-40357697D01*
X71916761Y-40223213D01*
X93687392Y-40223213D01*
X93756857Y-40465397D01*
X94280302Y-40652144D01*
X94835368Y-40624362D01*
X94984786Y-40562471D01*
X95080990Y-40795303D01*
X95473630Y-41188629D01*
X95764703Y-41309493D01*
X95631243Y-41630900D01*
X95630758Y-42186661D01*
X95842990Y-42700303D01*
X96235630Y-43093629D01*
X96748900Y-43306757D01*
X97304661Y-43307242D01*
X97818303Y-43095010D01*
X98211629Y-42702370D01*
X98424757Y-42189100D01*
X98425242Y-41633339D01*
X98213010Y-41119697D01*
X97820370Y-40726371D01*
X97529297Y-40605507D01*
X97662757Y-40284100D01*
X97663242Y-39728339D01*
X97451010Y-39214697D01*
X97324502Y-39087967D01*
X115962430Y-39087967D01*
X115962430Y-40160033D01*
X116067900Y-40690268D01*
X116368254Y-41139779D01*
X116817765Y-41440133D01*
X117348000Y-41545603D01*
X117878235Y-41440133D01*
X118327746Y-41139779D01*
X118628100Y-40690268D01*
X118733570Y-40160033D01*
X118733570Y-39087967D01*
X121042430Y-39087967D01*
X121042430Y-40160033D01*
X121147900Y-40690268D01*
X121448254Y-41139779D01*
X121897765Y-41440133D01*
X122428000Y-41545603D01*
X122958235Y-41440133D01*
X123407746Y-41139779D01*
X123421780Y-41118775D01*
X125102803Y-41118775D01*
X125275233Y-41536086D01*
X125594235Y-41855645D01*
X126011244Y-42028803D01*
X126462775Y-42029197D01*
X126880086Y-41856767D01*
X127199645Y-41537765D01*
X127372803Y-41120756D01*
X127373197Y-40669225D01*
X127200767Y-40251914D01*
X126881765Y-39932355D01*
X126464756Y-39759197D01*
X126013225Y-39758803D01*
X125595914Y-39931233D01*
X125276355Y-40250235D01*
X125103197Y-40667244D01*
X125102803Y-41118775D01*
X123421780Y-41118775D01*
X123708100Y-40690268D01*
X123813570Y-40160033D01*
X123813570Y-39087967D01*
X123708100Y-38557732D01*
X123407746Y-38108221D01*
X122958235Y-37807867D01*
X122428000Y-37702397D01*
X121897765Y-37807867D01*
X121448254Y-38108221D01*
X121147900Y-38557732D01*
X121042430Y-39087967D01*
X118733570Y-39087967D01*
X118628100Y-38557732D01*
X118327746Y-38108221D01*
X117878235Y-37807867D01*
X117348000Y-37702397D01*
X116817765Y-37807867D01*
X116368254Y-38108221D01*
X116067900Y-38557732D01*
X115962430Y-39087967D01*
X97324502Y-39087967D01*
X97058370Y-38821371D01*
X96545100Y-38608243D01*
X95989339Y-38607758D01*
X95785079Y-38692156D01*
X95710397Y-38511857D01*
X95468213Y-38442392D01*
X94667605Y-39243000D01*
X94681748Y-39257143D01*
X94502143Y-39436748D01*
X94488000Y-39422605D01*
X93687392Y-40223213D01*
X71916761Y-40223213D01*
X71658370Y-39964371D01*
X71145100Y-39751243D01*
X70589339Y-39750758D01*
X70075697Y-39962990D01*
X69682371Y-40355630D01*
X69469243Y-40868900D01*
X69468758Y-41424661D01*
X45519790Y-41424661D01*
X45625345Y-40894000D01*
X45511271Y-40320511D01*
X45186415Y-39834330D01*
X44876931Y-39627539D01*
X45292732Y-39256036D01*
X45399060Y-39035302D01*
X93078856Y-39035302D01*
X93106638Y-39590368D01*
X93265603Y-39974143D01*
X93507787Y-40043608D01*
X94308395Y-39243000D01*
X93507787Y-38442392D01*
X93265603Y-38511857D01*
X93078856Y-39035302D01*
X45399060Y-39035302D01*
X45546709Y-38728791D01*
X45549358Y-38713026D01*
X45428217Y-38481000D01*
X44069000Y-38481000D01*
X44069000Y-38501000D01*
X43815000Y-38501000D01*
X43815000Y-38481000D01*
X42455783Y-38481000D01*
X42334642Y-38713026D01*
X42337291Y-38728791D01*
X42591268Y-39256036D01*
X43007069Y-39627539D01*
X42697585Y-39834330D01*
X42372729Y-40320511D01*
X42258655Y-40894000D01*
X41529000Y-40894000D01*
X41529000Y-38262787D01*
X93687392Y-38262787D01*
X94488000Y-39063395D01*
X95288608Y-38262787D01*
X95219143Y-38020603D01*
X94695698Y-37833856D01*
X94140632Y-37861638D01*
X93756857Y-38020603D01*
X93687392Y-38262787D01*
X41529000Y-38262787D01*
X41529000Y-34950400D01*
X42278560Y-34950400D01*
X42278560Y-36677600D01*
X42322838Y-36912917D01*
X42461910Y-37129041D01*
X42674110Y-37274031D01*
X42768927Y-37293232D01*
X42591268Y-37451964D01*
X42337291Y-37979209D01*
X42334642Y-37994974D01*
X42455783Y-38227000D01*
X43815000Y-38227000D01*
X43815000Y-38207000D01*
X44069000Y-38207000D01*
X44069000Y-38227000D01*
X45428217Y-38227000D01*
X45549358Y-37994974D01*
X45546709Y-37979209D01*
X45292732Y-37451964D01*
X45117155Y-37295093D01*
X45193317Y-37280762D01*
X45409441Y-37141690D01*
X45554431Y-36929490D01*
X45605440Y-36677600D01*
X45605440Y-34950400D01*
X45561162Y-34715083D01*
X45433035Y-34515967D01*
X66432430Y-34515967D01*
X66432430Y-35588033D01*
X66537900Y-36118268D01*
X66838254Y-36567779D01*
X67287765Y-36868133D01*
X67818000Y-36973603D01*
X68348235Y-36868133D01*
X68797746Y-36567779D01*
X69098100Y-36118268D01*
X69203570Y-35588033D01*
X69203570Y-34515967D01*
X71512430Y-34515967D01*
X71512430Y-35588033D01*
X71617900Y-36118268D01*
X71918254Y-36567779D01*
X72367765Y-36868133D01*
X72898000Y-36973603D01*
X73428235Y-36868133D01*
X73877746Y-36567779D01*
X73891780Y-36546775D01*
X126118803Y-36546775D01*
X126291233Y-36964086D01*
X126610235Y-37283645D01*
X127027244Y-37456803D01*
X127478775Y-37457197D01*
X127896086Y-37284767D01*
X128215645Y-36965765D01*
X128388803Y-36548756D01*
X128389197Y-36097225D01*
X128216767Y-35679914D01*
X127897765Y-35360355D01*
X127480756Y-35187197D01*
X127029225Y-35186803D01*
X126611914Y-35359233D01*
X126292355Y-35678235D01*
X126119197Y-36095244D01*
X126118803Y-36546775D01*
X73891780Y-36546775D01*
X74178100Y-36118268D01*
X74283570Y-35588033D01*
X74283570Y-34515967D01*
X74178100Y-33985732D01*
X73877746Y-33536221D01*
X73823489Y-33499967D01*
X115962430Y-33499967D01*
X115962430Y-34572033D01*
X116067900Y-35102268D01*
X116368254Y-35551779D01*
X116817765Y-35852133D01*
X117348000Y-35957603D01*
X117878235Y-35852133D01*
X118327746Y-35551779D01*
X118628100Y-35102268D01*
X118733570Y-34572033D01*
X118733570Y-33499967D01*
X121042430Y-33499967D01*
X121042430Y-34572033D01*
X121147900Y-35102268D01*
X121448254Y-35551779D01*
X121897765Y-35852133D01*
X122428000Y-35957603D01*
X122958235Y-35852133D01*
X123407746Y-35551779D01*
X123708100Y-35102268D01*
X123813570Y-34572033D01*
X123813570Y-33499967D01*
X123708100Y-32969732D01*
X123407746Y-32520221D01*
X122958235Y-32219867D01*
X122428000Y-32114397D01*
X121897765Y-32219867D01*
X121448254Y-32520221D01*
X121147900Y-32969732D01*
X121042430Y-33499967D01*
X118733570Y-33499967D01*
X118628100Y-32969732D01*
X118327746Y-32520221D01*
X117878235Y-32219867D01*
X117348000Y-32114397D01*
X116817765Y-32219867D01*
X116368254Y-32520221D01*
X116067900Y-32969732D01*
X115962430Y-33499967D01*
X73823489Y-33499967D01*
X73428235Y-33235867D01*
X72898000Y-33130397D01*
X72367765Y-33235867D01*
X71918254Y-33536221D01*
X71617900Y-33985732D01*
X71512430Y-34515967D01*
X69203570Y-34515967D01*
X69098100Y-33985732D01*
X68797746Y-33536221D01*
X68348235Y-33235867D01*
X67818000Y-33130397D01*
X67287765Y-33235867D01*
X66838254Y-33536221D01*
X66537900Y-33985732D01*
X66432430Y-34515967D01*
X45433035Y-34515967D01*
X45422090Y-34498959D01*
X45209890Y-34353969D01*
X44958000Y-34302960D01*
X42926000Y-34302960D01*
X42690683Y-34347238D01*
X42474559Y-34486310D01*
X42329569Y-34698510D01*
X42278560Y-34950400D01*
X41529000Y-34950400D01*
X41529000Y-31974775D01*
X50934803Y-31974775D01*
X51107233Y-32392086D01*
X51426235Y-32711645D01*
X51843244Y-32884803D01*
X52294775Y-32885197D01*
X52712086Y-32712767D01*
X53031645Y-32393765D01*
X53204803Y-31976756D01*
X53204804Y-31974775D01*
X53728803Y-31974775D01*
X53901233Y-32392086D01*
X54220235Y-32711645D01*
X54637244Y-32884803D01*
X55088775Y-32885197D01*
X55506086Y-32712767D01*
X55825645Y-32393765D01*
X55998803Y-31976756D01*
X55998804Y-31974775D01*
X56522803Y-31974775D01*
X56695233Y-32392086D01*
X57014235Y-32711645D01*
X57431244Y-32884803D01*
X57882775Y-32885197D01*
X58300086Y-32712767D01*
X58619645Y-32393765D01*
X58792803Y-31976756D01*
X58793197Y-31525225D01*
X58620767Y-31107914D01*
X58301765Y-30788355D01*
X57884756Y-30615197D01*
X57433225Y-30614803D01*
X57015914Y-30787233D01*
X56696355Y-31106235D01*
X56523197Y-31523244D01*
X56522803Y-31974775D01*
X55998804Y-31974775D01*
X55999197Y-31525225D01*
X55826767Y-31107914D01*
X55507765Y-30788355D01*
X55090756Y-30615197D01*
X54639225Y-30614803D01*
X54221914Y-30787233D01*
X53902355Y-31106235D01*
X53729197Y-31523244D01*
X53728803Y-31974775D01*
X53204804Y-31974775D01*
X53205197Y-31525225D01*
X53032767Y-31107914D01*
X52713765Y-30788355D01*
X52296756Y-30615197D01*
X51845225Y-30614803D01*
X51427914Y-30787233D01*
X51108355Y-31106235D01*
X50935197Y-31523244D01*
X50934803Y-31974775D01*
X41529000Y-31974775D01*
X41529000Y-29845000D01*
X138557000Y-29845000D01*
X138557000Y-104267000D01*
M02*
