G04 #@! TF.FileFunction,Legend,Top*
%FSLAX46Y46*%
G04 Gerber Fmt 4.6, Leading zero omitted, Abs format (unit mm)*
G04 Created by KiCad (PCBNEW 4.0.4+dfsg1-stable) date Fri Jan 20 23:08:29 2017*
%MOMM*%
%LPD*%
G01*
G04 APERTURE LIST*
%ADD10C,0.100000*%
%ADD11C,0.150000*%
G04 APERTURE END LIST*
D10*
D11*
X54213760Y-34006840D02*
X54213760Y-34055100D01*
X54914800Y-36805820D02*
X54213760Y-36805820D01*
X54213760Y-36805820D02*
X54213760Y-36556900D01*
X54213760Y-34006840D02*
X54213760Y-33806180D01*
X54213760Y-33806180D02*
X54914800Y-33806180D01*
X55356000Y-41139000D02*
X53356000Y-41139000D01*
X53356000Y-43189000D02*
X55356000Y-43189000D01*
X108982000Y-52079000D02*
X110982000Y-52079000D01*
X110982000Y-50029000D02*
X108982000Y-50029000D01*
X50047000Y-36814000D02*
X50047000Y-34814000D01*
X47997000Y-34814000D02*
X47997000Y-36814000D01*
X51063000Y-50530000D02*
X51063000Y-48530000D01*
X49013000Y-48530000D02*
X49013000Y-50530000D01*
X118373000Y-45704000D02*
X118373000Y-43704000D01*
X116323000Y-43704000D02*
X116323000Y-45704000D01*
X82293460Y-39877480D02*
X82293460Y-38480480D01*
X82293460Y-44322480D02*
X82293460Y-45846480D01*
X81531460Y-43941480D02*
X83055460Y-43941480D01*
X81531460Y-44195480D02*
X83055460Y-44195480D01*
X82293460Y-44449480D02*
X83055460Y-44449480D01*
X83055460Y-44449480D02*
X83055460Y-39877480D01*
X83055460Y-39877480D02*
X81531460Y-39877480D01*
X81531460Y-39877480D02*
X81531460Y-44449480D01*
X81531460Y-44449480D02*
X82293460Y-44449480D01*
X88389460Y-39877480D02*
X88389460Y-38480480D01*
X88389460Y-44322480D02*
X88389460Y-45846480D01*
X87627460Y-43941480D02*
X89151460Y-43941480D01*
X87627460Y-44195480D02*
X89151460Y-44195480D01*
X88389460Y-44449480D02*
X89151460Y-44449480D01*
X89151460Y-44449480D02*
X89151460Y-39877480D01*
X89151460Y-39877480D02*
X87627460Y-39877480D01*
X87627460Y-39877480D02*
X87627460Y-44449480D01*
X87627460Y-44449480D02*
X88389460Y-44449480D01*
X82550000Y-40894000D02*
X87630000Y-40894000D01*
X87630000Y-40894000D02*
X87630000Y-43434000D01*
X87630000Y-43434000D02*
X82550000Y-43434000D01*
X82550000Y-43434000D02*
X82550000Y-40894000D01*
X53356000Y-37787000D02*
X55356000Y-37787000D01*
X55356000Y-39937000D02*
X53356000Y-39937000D01*
X59749000Y-34814000D02*
X59749000Y-36814000D01*
X57599000Y-36814000D02*
X57599000Y-34814000D01*
X52543000Y-50335000D02*
X52593000Y-50335000D01*
X52543000Y-46185000D02*
X52688000Y-46185000D01*
X57693000Y-46185000D02*
X57548000Y-46185000D01*
X57693000Y-50335000D02*
X57548000Y-50335000D01*
X52543000Y-50335000D02*
X52543000Y-46185000D01*
X57693000Y-50335000D02*
X57693000Y-46185000D01*
X52593000Y-50335000D02*
X52593000Y-51735000D01*
X109693000Y-46525000D02*
X109743000Y-46525000D01*
X109693000Y-42375000D02*
X109838000Y-42375000D01*
X114843000Y-42375000D02*
X114698000Y-42375000D01*
X114843000Y-46525000D02*
X114698000Y-46525000D01*
X109693000Y-46525000D02*
X109693000Y-42375000D01*
X114843000Y-46525000D02*
X114843000Y-42375000D01*
X109743000Y-46525000D02*
X109743000Y-47925000D01*
X45212000Y-37084000D02*
X45212000Y-52324000D01*
X45212000Y-52324000D02*
X42672000Y-52324000D01*
X42672000Y-52324000D02*
X42672000Y-37084000D01*
X45492000Y-34264000D02*
X45492000Y-35814000D01*
X45212000Y-37084000D02*
X42672000Y-37084000D01*
X42392000Y-35814000D02*
X42392000Y-34264000D01*
X42392000Y-34264000D02*
X45492000Y-34264000D01*
X110855760Y-35530840D02*
X110855760Y-35579100D01*
X111556800Y-38329820D02*
X110855760Y-38329820D01*
X110855760Y-38329820D02*
X110855760Y-38080900D01*
X110855760Y-35530840D02*
X110855760Y-35330180D01*
X110855760Y-35330180D02*
X111556800Y-35330180D01*
X63246000Y-44323000D02*
X62230000Y-44323000D01*
X68326000Y-44323000D02*
X65786000Y-44323000D01*
X71882000Y-44323000D02*
X70866000Y-44323000D01*
X63500000Y-40386000D02*
X63500000Y-41656000D01*
X64287400Y-41135300D02*
X64249300Y-40881300D01*
X64249300Y-40881300D02*
X64071500Y-40601900D01*
X64071500Y-40601900D02*
X63754000Y-40386000D01*
X63754000Y-40386000D02*
X63309500Y-40373300D01*
X63309500Y-40373300D02*
X62953900Y-40576500D01*
X62953900Y-40576500D02*
X62776100Y-40868600D01*
X62776100Y-40868600D02*
X62725300Y-41186100D01*
X62725300Y-41186100D02*
X62826900Y-41592500D01*
X62826900Y-41592500D02*
X63169800Y-41846500D01*
X63169800Y-41846500D02*
X63347600Y-41935400D01*
X62230000Y-41148000D02*
X62230000Y-39878000D01*
X62230000Y-39878000D02*
X71882000Y-39878000D01*
X71882000Y-39878000D02*
X71882000Y-44958000D01*
X62230000Y-44958000D02*
X62230000Y-42418000D01*
X62230000Y-42418000D02*
X62230000Y-41148000D01*
X68072000Y-39116000D02*
X68072000Y-37973000D01*
X65024000Y-39116000D02*
X65024000Y-37973000D01*
X61214000Y-37973000D02*
X61214000Y-34290000D01*
X61214000Y-34290000D02*
X71882000Y-34290000D01*
X71882000Y-34290000D02*
X71882000Y-37973000D01*
X61214000Y-39116000D02*
X61214000Y-37973000D01*
X61214000Y-37973000D02*
X71882000Y-37973000D01*
X71882000Y-37973000D02*
X71882000Y-39116000D01*
X66548000Y-39116000D02*
X71882000Y-39116000D01*
X66548000Y-39116000D02*
X61214000Y-39116000D01*
X65024000Y-45974000D02*
X65024000Y-47117000D01*
X68072000Y-45974000D02*
X68072000Y-47117000D01*
X71882000Y-47117000D02*
X71882000Y-50800000D01*
X71882000Y-50800000D02*
X61214000Y-50800000D01*
X61214000Y-50800000D02*
X61214000Y-47117000D01*
X71882000Y-45974000D02*
X71882000Y-47117000D01*
X71882000Y-47117000D02*
X61214000Y-47117000D01*
X61214000Y-47117000D02*
X61214000Y-45974000D01*
X66548000Y-45974000D02*
X61214000Y-45974000D01*
X66548000Y-45974000D02*
X71882000Y-45974000D01*
X102870000Y-37084000D02*
X102870000Y-35941000D01*
X99822000Y-37084000D02*
X99822000Y-35941000D01*
X96012000Y-35941000D02*
X96012000Y-32258000D01*
X96012000Y-32258000D02*
X106680000Y-32258000D01*
X106680000Y-32258000D02*
X106680000Y-35941000D01*
X96012000Y-37084000D02*
X96012000Y-35941000D01*
X96012000Y-35941000D02*
X106680000Y-35941000D01*
X106680000Y-35941000D02*
X106680000Y-37084000D01*
X101346000Y-37084000D02*
X106680000Y-37084000D01*
X101346000Y-37084000D02*
X96012000Y-37084000D01*
X102870000Y-42672000D02*
X102870000Y-41529000D01*
X99822000Y-42672000D02*
X99822000Y-41529000D01*
X96012000Y-41529000D02*
X96012000Y-37846000D01*
X96012000Y-37846000D02*
X106680000Y-37846000D01*
X106680000Y-37846000D02*
X106680000Y-41529000D01*
X96012000Y-42672000D02*
X96012000Y-41529000D01*
X96012000Y-41529000D02*
X106680000Y-41529000D01*
X106680000Y-41529000D02*
X106680000Y-42672000D01*
X101346000Y-42672000D02*
X106680000Y-42672000D01*
X101346000Y-42672000D02*
X96012000Y-42672000D01*
X102870000Y-54356000D02*
X102870000Y-53213000D01*
X99822000Y-54356000D02*
X99822000Y-53213000D01*
X96012000Y-53213000D02*
X96012000Y-49530000D01*
X96012000Y-49530000D02*
X106680000Y-49530000D01*
X106680000Y-49530000D02*
X106680000Y-53213000D01*
X96012000Y-54356000D02*
X96012000Y-53213000D01*
X96012000Y-53213000D02*
X106680000Y-53213000D01*
X106680000Y-53213000D02*
X106680000Y-54356000D01*
X101346000Y-54356000D02*
X106680000Y-54356000D01*
X101346000Y-54356000D02*
X96012000Y-54356000D01*
X99822000Y-43688000D02*
X99822000Y-44831000D01*
X102870000Y-43688000D02*
X102870000Y-44831000D01*
X106680000Y-44831000D02*
X106680000Y-48514000D01*
X106680000Y-48514000D02*
X96012000Y-48514000D01*
X96012000Y-48514000D02*
X96012000Y-44831000D01*
X106680000Y-43688000D02*
X106680000Y-44831000D01*
X106680000Y-44831000D02*
X96012000Y-44831000D01*
X96012000Y-44831000D02*
X96012000Y-43688000D01*
X101346000Y-43688000D02*
X96012000Y-43688000D01*
X101346000Y-43688000D02*
X106680000Y-43688000D01*
X50351000Y-40656000D02*
X50351000Y-42656000D01*
X48201000Y-42656000D02*
X48201000Y-40656000D01*
X53161619Y-36353619D02*
X53114000Y-36448857D01*
X53018762Y-36544095D01*
X52875905Y-36686952D01*
X52828286Y-36782191D01*
X52828286Y-36877429D01*
X53066381Y-36829810D02*
X53018762Y-36925048D01*
X52923524Y-37020286D01*
X52733048Y-37067905D01*
X52399714Y-37067905D01*
X52209238Y-37020286D01*
X52114000Y-36925048D01*
X52066381Y-36829810D01*
X52066381Y-36639333D01*
X52114000Y-36544095D01*
X52209238Y-36448857D01*
X52399714Y-36401238D01*
X52733048Y-36401238D01*
X52923524Y-36448857D01*
X53018762Y-36544095D01*
X53066381Y-36639333D01*
X53066381Y-36829810D01*
X52066381Y-35496476D02*
X52066381Y-35972667D01*
X52542571Y-36020286D01*
X52494952Y-35972667D01*
X52447333Y-35877429D01*
X52447333Y-35639333D01*
X52494952Y-35544095D01*
X52542571Y-35496476D01*
X52637810Y-35448857D01*
X52875905Y-35448857D01*
X52971143Y-35496476D01*
X53018762Y-35544095D01*
X53066381Y-35639333D01*
X53066381Y-35877429D01*
X53018762Y-35972667D01*
X52971143Y-36020286D01*
X52066381Y-34829810D02*
X52066381Y-34734571D01*
X52114000Y-34639333D01*
X52161619Y-34591714D01*
X52256857Y-34544095D01*
X52447333Y-34496476D01*
X52685429Y-34496476D01*
X52875905Y-34544095D01*
X52971143Y-34591714D01*
X53018762Y-34639333D01*
X53066381Y-34734571D01*
X53066381Y-34829810D01*
X53018762Y-34925048D01*
X52971143Y-34972667D01*
X52875905Y-35020286D01*
X52685429Y-35067905D01*
X52447333Y-35067905D01*
X52256857Y-35020286D01*
X52161619Y-34972667D01*
X52114000Y-34925048D01*
X52066381Y-34829810D01*
X53066381Y-33544095D02*
X53066381Y-34115524D01*
X53066381Y-33829810D02*
X52066381Y-33829810D01*
X52209238Y-33925048D01*
X52304476Y-34020286D01*
X52352095Y-34115524D01*
X53236953Y-40221143D02*
X53189334Y-40268762D01*
X53046477Y-40316381D01*
X52951239Y-40316381D01*
X52808381Y-40268762D01*
X52713143Y-40173524D01*
X52665524Y-40078286D01*
X52617905Y-39887810D01*
X52617905Y-39744952D01*
X52665524Y-39554476D01*
X52713143Y-39459238D01*
X52808381Y-39364000D01*
X52951239Y-39316381D01*
X53046477Y-39316381D01*
X53189334Y-39364000D01*
X53236953Y-39411619D01*
X54141715Y-39316381D02*
X53665524Y-39316381D01*
X53617905Y-39792571D01*
X53665524Y-39744952D01*
X53760762Y-39697333D01*
X53998858Y-39697333D01*
X54094096Y-39744952D01*
X54141715Y-39792571D01*
X54189334Y-39887810D01*
X54189334Y-40125905D01*
X54141715Y-40221143D01*
X54094096Y-40268762D01*
X53998858Y-40316381D01*
X53760762Y-40316381D01*
X53665524Y-40268762D01*
X53617905Y-40221143D01*
X54808381Y-39316381D02*
X54903620Y-39316381D01*
X54998858Y-39364000D01*
X55046477Y-39411619D01*
X55094096Y-39506857D01*
X55141715Y-39697333D01*
X55141715Y-39935429D01*
X55094096Y-40125905D01*
X55046477Y-40221143D01*
X54998858Y-40268762D01*
X54903620Y-40316381D01*
X54808381Y-40316381D01*
X54713143Y-40268762D01*
X54665524Y-40221143D01*
X54617905Y-40125905D01*
X54570286Y-39935429D01*
X54570286Y-39697333D01*
X54617905Y-39506857D01*
X54665524Y-39411619D01*
X54713143Y-39364000D01*
X54808381Y-39316381D01*
X56094096Y-40316381D02*
X55522667Y-40316381D01*
X55808381Y-40316381D02*
X55808381Y-39316381D01*
X55713143Y-39459238D01*
X55617905Y-39554476D01*
X55522667Y-39602095D01*
X108862953Y-53711143D02*
X108815334Y-53758762D01*
X108672477Y-53806381D01*
X108577239Y-53806381D01*
X108434381Y-53758762D01*
X108339143Y-53663524D01*
X108291524Y-53568286D01*
X108243905Y-53377810D01*
X108243905Y-53234952D01*
X108291524Y-53044476D01*
X108339143Y-52949238D01*
X108434381Y-52854000D01*
X108577239Y-52806381D01*
X108672477Y-52806381D01*
X108815334Y-52854000D01*
X108862953Y-52901619D01*
X109767715Y-52806381D02*
X109291524Y-52806381D01*
X109243905Y-53282571D01*
X109291524Y-53234952D01*
X109386762Y-53187333D01*
X109624858Y-53187333D01*
X109720096Y-53234952D01*
X109767715Y-53282571D01*
X109815334Y-53377810D01*
X109815334Y-53615905D01*
X109767715Y-53711143D01*
X109720096Y-53758762D01*
X109624858Y-53806381D01*
X109386762Y-53806381D01*
X109291524Y-53758762D01*
X109243905Y-53711143D01*
X110434381Y-52806381D02*
X110529620Y-52806381D01*
X110624858Y-52854000D01*
X110672477Y-52901619D01*
X110720096Y-52996857D01*
X110767715Y-53187333D01*
X110767715Y-53425429D01*
X110720096Y-53615905D01*
X110672477Y-53711143D01*
X110624858Y-53758762D01*
X110529620Y-53806381D01*
X110434381Y-53806381D01*
X110339143Y-53758762D01*
X110291524Y-53711143D01*
X110243905Y-53615905D01*
X110196286Y-53425429D01*
X110196286Y-53187333D01*
X110243905Y-52996857D01*
X110291524Y-52901619D01*
X110339143Y-52854000D01*
X110434381Y-52806381D01*
X111148667Y-52901619D02*
X111196286Y-52854000D01*
X111291524Y-52806381D01*
X111529620Y-52806381D01*
X111624858Y-52854000D01*
X111672477Y-52901619D01*
X111720096Y-52996857D01*
X111720096Y-53092095D01*
X111672477Y-53234952D01*
X111101048Y-53806381D01*
X111720096Y-53806381D01*
X51679143Y-36933047D02*
X51726762Y-36980666D01*
X51774381Y-37123523D01*
X51774381Y-37218761D01*
X51726762Y-37361619D01*
X51631524Y-37456857D01*
X51536286Y-37504476D01*
X51345810Y-37552095D01*
X51202952Y-37552095D01*
X51012476Y-37504476D01*
X50917238Y-37456857D01*
X50822000Y-37361619D01*
X50774381Y-37218761D01*
X50774381Y-37123523D01*
X50822000Y-36980666D01*
X50869619Y-36933047D01*
X50774381Y-36028285D02*
X50774381Y-36504476D01*
X51250571Y-36552095D01*
X51202952Y-36504476D01*
X51155333Y-36409238D01*
X51155333Y-36171142D01*
X51202952Y-36075904D01*
X51250571Y-36028285D01*
X51345810Y-35980666D01*
X51583905Y-35980666D01*
X51679143Y-36028285D01*
X51726762Y-36075904D01*
X51774381Y-36171142D01*
X51774381Y-36409238D01*
X51726762Y-36504476D01*
X51679143Y-36552095D01*
X50774381Y-35361619D02*
X50774381Y-35266380D01*
X50822000Y-35171142D01*
X50869619Y-35123523D01*
X50964857Y-35075904D01*
X51155333Y-35028285D01*
X51393429Y-35028285D01*
X51583905Y-35075904D01*
X51679143Y-35123523D01*
X51726762Y-35171142D01*
X51774381Y-35266380D01*
X51774381Y-35361619D01*
X51726762Y-35456857D01*
X51679143Y-35504476D01*
X51583905Y-35552095D01*
X51393429Y-35599714D01*
X51155333Y-35599714D01*
X50964857Y-35552095D01*
X50869619Y-35504476D01*
X50822000Y-35456857D01*
X50774381Y-35361619D01*
X50774381Y-34694952D02*
X50774381Y-34075904D01*
X51155333Y-34409238D01*
X51155333Y-34266380D01*
X51202952Y-34171142D01*
X51250571Y-34123523D01*
X51345810Y-34075904D01*
X51583905Y-34075904D01*
X51679143Y-34123523D01*
X51726762Y-34171142D01*
X51774381Y-34266380D01*
X51774381Y-34552095D01*
X51726762Y-34647333D01*
X51679143Y-34694952D01*
X52695143Y-50649047D02*
X52742762Y-50696666D01*
X52790381Y-50839523D01*
X52790381Y-50934761D01*
X52742762Y-51077619D01*
X52647524Y-51172857D01*
X52552286Y-51220476D01*
X52361810Y-51268095D01*
X52218952Y-51268095D01*
X52028476Y-51220476D01*
X51933238Y-51172857D01*
X51838000Y-51077619D01*
X51790381Y-50934761D01*
X51790381Y-50839523D01*
X51838000Y-50696666D01*
X51885619Y-50649047D01*
X51790381Y-49744285D02*
X51790381Y-50220476D01*
X52266571Y-50268095D01*
X52218952Y-50220476D01*
X52171333Y-50125238D01*
X52171333Y-49887142D01*
X52218952Y-49791904D01*
X52266571Y-49744285D01*
X52361810Y-49696666D01*
X52599905Y-49696666D01*
X52695143Y-49744285D01*
X52742762Y-49791904D01*
X52790381Y-49887142D01*
X52790381Y-50125238D01*
X52742762Y-50220476D01*
X52695143Y-50268095D01*
X51790381Y-49077619D02*
X51790381Y-48982380D01*
X51838000Y-48887142D01*
X51885619Y-48839523D01*
X51980857Y-48791904D01*
X52171333Y-48744285D01*
X52409429Y-48744285D01*
X52599905Y-48791904D01*
X52695143Y-48839523D01*
X52742762Y-48887142D01*
X52790381Y-48982380D01*
X52790381Y-49077619D01*
X52742762Y-49172857D01*
X52695143Y-49220476D01*
X52599905Y-49268095D01*
X52409429Y-49315714D01*
X52171333Y-49315714D01*
X51980857Y-49268095D01*
X51885619Y-49220476D01*
X51838000Y-49172857D01*
X51790381Y-49077619D01*
X52123714Y-47887142D02*
X52790381Y-47887142D01*
X51742762Y-48125238D02*
X52457048Y-48363333D01*
X52457048Y-47744285D01*
X120005143Y-45823047D02*
X120052762Y-45870666D01*
X120100381Y-46013523D01*
X120100381Y-46108761D01*
X120052762Y-46251619D01*
X119957524Y-46346857D01*
X119862286Y-46394476D01*
X119671810Y-46442095D01*
X119528952Y-46442095D01*
X119338476Y-46394476D01*
X119243238Y-46346857D01*
X119148000Y-46251619D01*
X119100381Y-46108761D01*
X119100381Y-46013523D01*
X119148000Y-45870666D01*
X119195619Y-45823047D01*
X119100381Y-44918285D02*
X119100381Y-45394476D01*
X119576571Y-45442095D01*
X119528952Y-45394476D01*
X119481333Y-45299238D01*
X119481333Y-45061142D01*
X119528952Y-44965904D01*
X119576571Y-44918285D01*
X119671810Y-44870666D01*
X119909905Y-44870666D01*
X120005143Y-44918285D01*
X120052762Y-44965904D01*
X120100381Y-45061142D01*
X120100381Y-45299238D01*
X120052762Y-45394476D01*
X120005143Y-45442095D01*
X119100381Y-44251619D02*
X119100381Y-44156380D01*
X119148000Y-44061142D01*
X119195619Y-44013523D01*
X119290857Y-43965904D01*
X119481333Y-43918285D01*
X119719429Y-43918285D01*
X119909905Y-43965904D01*
X120005143Y-44013523D01*
X120052762Y-44061142D01*
X120100381Y-44156380D01*
X120100381Y-44251619D01*
X120052762Y-44346857D01*
X120005143Y-44394476D01*
X119909905Y-44442095D01*
X119719429Y-44489714D01*
X119481333Y-44489714D01*
X119290857Y-44442095D01*
X119195619Y-44394476D01*
X119148000Y-44346857D01*
X119100381Y-44251619D01*
X119100381Y-43013523D02*
X119100381Y-43489714D01*
X119576571Y-43537333D01*
X119528952Y-43489714D01*
X119481333Y-43394476D01*
X119481333Y-43156380D01*
X119528952Y-43061142D01*
X119576571Y-43013523D01*
X119671810Y-42965904D01*
X119909905Y-42965904D01*
X120005143Y-43013523D01*
X120052762Y-43061142D01*
X120100381Y-43156380D01*
X120100381Y-43394476D01*
X120052762Y-43489714D01*
X120005143Y-43537333D01*
X85285841Y-43503956D02*
X84285841Y-43503956D01*
X84285841Y-43265861D01*
X84333460Y-43123003D01*
X84428698Y-43027765D01*
X84523936Y-42980146D01*
X84714412Y-42932527D01*
X84857270Y-42932527D01*
X85047746Y-42980146D01*
X85142984Y-43027765D01*
X85238222Y-43123003D01*
X85285841Y-43265861D01*
X85285841Y-43503956D01*
X84285841Y-42027765D02*
X84285841Y-42503956D01*
X84762031Y-42551575D01*
X84714412Y-42503956D01*
X84666793Y-42408718D01*
X84666793Y-42170622D01*
X84714412Y-42075384D01*
X84762031Y-42027765D01*
X84857270Y-41980146D01*
X85095365Y-41980146D01*
X85190603Y-42027765D01*
X85238222Y-42075384D01*
X85285841Y-42170622D01*
X85285841Y-42408718D01*
X85238222Y-42503956D01*
X85190603Y-42551575D01*
X84285841Y-41361099D02*
X84285841Y-41265860D01*
X84333460Y-41170622D01*
X84381079Y-41123003D01*
X84476317Y-41075384D01*
X84666793Y-41027765D01*
X84904889Y-41027765D01*
X85095365Y-41075384D01*
X85190603Y-41123003D01*
X85238222Y-41170622D01*
X85285841Y-41265860D01*
X85285841Y-41361099D01*
X85238222Y-41456337D01*
X85190603Y-41503956D01*
X85095365Y-41551575D01*
X84904889Y-41599194D01*
X84666793Y-41599194D01*
X84476317Y-41551575D01*
X84381079Y-41503956D01*
X84333460Y-41456337D01*
X84285841Y-41361099D01*
X85285841Y-40075384D02*
X85285841Y-40646813D01*
X85285841Y-40361099D02*
X84285841Y-40361099D01*
X84428698Y-40456337D01*
X84523936Y-40551575D01*
X84571555Y-40646813D01*
X91381841Y-43503956D02*
X90381841Y-43503956D01*
X90381841Y-43265861D01*
X90429460Y-43123003D01*
X90524698Y-43027765D01*
X90619936Y-42980146D01*
X90810412Y-42932527D01*
X90953270Y-42932527D01*
X91143746Y-42980146D01*
X91238984Y-43027765D01*
X91334222Y-43123003D01*
X91381841Y-43265861D01*
X91381841Y-43503956D01*
X90381841Y-42027765D02*
X90381841Y-42503956D01*
X90858031Y-42551575D01*
X90810412Y-42503956D01*
X90762793Y-42408718D01*
X90762793Y-42170622D01*
X90810412Y-42075384D01*
X90858031Y-42027765D01*
X90953270Y-41980146D01*
X91191365Y-41980146D01*
X91286603Y-42027765D01*
X91334222Y-42075384D01*
X91381841Y-42170622D01*
X91381841Y-42408718D01*
X91334222Y-42503956D01*
X91286603Y-42551575D01*
X90381841Y-41361099D02*
X90381841Y-41265860D01*
X90429460Y-41170622D01*
X90477079Y-41123003D01*
X90572317Y-41075384D01*
X90762793Y-41027765D01*
X91000889Y-41027765D01*
X91191365Y-41075384D01*
X91286603Y-41123003D01*
X91334222Y-41170622D01*
X91381841Y-41265860D01*
X91381841Y-41361099D01*
X91334222Y-41456337D01*
X91286603Y-41503956D01*
X91191365Y-41551575D01*
X91000889Y-41599194D01*
X90762793Y-41599194D01*
X90572317Y-41551575D01*
X90477079Y-41503956D01*
X90429460Y-41456337D01*
X90381841Y-41361099D01*
X90477079Y-40646813D02*
X90429460Y-40599194D01*
X90381841Y-40503956D01*
X90381841Y-40265860D01*
X90429460Y-40170622D01*
X90477079Y-40123003D01*
X90572317Y-40075384D01*
X90667555Y-40075384D01*
X90810412Y-40123003D01*
X91381841Y-40694432D01*
X91381841Y-40075384D01*
X84219873Y-39116261D02*
X83886539Y-38640070D01*
X83648444Y-39116261D02*
X83648444Y-38116261D01*
X84029397Y-38116261D01*
X84124635Y-38163880D01*
X84172254Y-38211499D01*
X84219873Y-38306737D01*
X84219873Y-38449594D01*
X84172254Y-38544832D01*
X84124635Y-38592451D01*
X84029397Y-38640070D01*
X83648444Y-38640070D01*
X85124635Y-38116261D02*
X84648444Y-38116261D01*
X84600825Y-38592451D01*
X84648444Y-38544832D01*
X84743682Y-38497213D01*
X84981778Y-38497213D01*
X85077016Y-38544832D01*
X85124635Y-38592451D01*
X85172254Y-38687690D01*
X85172254Y-38925785D01*
X85124635Y-39021023D01*
X85077016Y-39068642D01*
X84981778Y-39116261D01*
X84743682Y-39116261D01*
X84648444Y-39068642D01*
X84600825Y-39021023D01*
X85791301Y-38116261D02*
X85886540Y-38116261D01*
X85981778Y-38163880D01*
X86029397Y-38211499D01*
X86077016Y-38306737D01*
X86124635Y-38497213D01*
X86124635Y-38735309D01*
X86077016Y-38925785D01*
X86029397Y-39021023D01*
X85981778Y-39068642D01*
X85886540Y-39116261D01*
X85791301Y-39116261D01*
X85696063Y-39068642D01*
X85648444Y-39021023D01*
X85600825Y-38925785D01*
X85553206Y-38735309D01*
X85553206Y-38497213D01*
X85600825Y-38306737D01*
X85648444Y-38211499D01*
X85696063Y-38163880D01*
X85791301Y-38116261D01*
X87077016Y-39116261D02*
X86505587Y-39116261D01*
X86791301Y-39116261D02*
X86791301Y-38116261D01*
X86696063Y-38259118D01*
X86600825Y-38354356D01*
X86505587Y-38401975D01*
X53236953Y-41614381D02*
X52903619Y-41138190D01*
X52665524Y-41614381D02*
X52665524Y-40614381D01*
X53046477Y-40614381D01*
X53141715Y-40662000D01*
X53189334Y-40709619D01*
X53236953Y-40804857D01*
X53236953Y-40947714D01*
X53189334Y-41042952D01*
X53141715Y-41090571D01*
X53046477Y-41138190D01*
X52665524Y-41138190D01*
X54141715Y-40614381D02*
X53665524Y-40614381D01*
X53617905Y-41090571D01*
X53665524Y-41042952D01*
X53760762Y-40995333D01*
X53998858Y-40995333D01*
X54094096Y-41042952D01*
X54141715Y-41090571D01*
X54189334Y-41185810D01*
X54189334Y-41423905D01*
X54141715Y-41519143D01*
X54094096Y-41566762D01*
X53998858Y-41614381D01*
X53760762Y-41614381D01*
X53665524Y-41566762D01*
X53617905Y-41519143D01*
X54808381Y-40614381D02*
X54903620Y-40614381D01*
X54998858Y-40662000D01*
X55046477Y-40709619D01*
X55094096Y-40804857D01*
X55141715Y-40995333D01*
X55141715Y-41233429D01*
X55094096Y-41423905D01*
X55046477Y-41519143D01*
X54998858Y-41566762D01*
X54903620Y-41614381D01*
X54808381Y-41614381D01*
X54713143Y-41566762D01*
X54665524Y-41519143D01*
X54617905Y-41423905D01*
X54570286Y-41233429D01*
X54570286Y-40995333D01*
X54617905Y-40804857D01*
X54665524Y-40709619D01*
X54713143Y-40662000D01*
X54808381Y-40614381D01*
X55522667Y-40709619D02*
X55570286Y-40662000D01*
X55665524Y-40614381D01*
X55903620Y-40614381D01*
X55998858Y-40662000D01*
X56046477Y-40709619D01*
X56094096Y-40804857D01*
X56094096Y-40900095D01*
X56046477Y-41042952D01*
X55475048Y-41614381D01*
X56094096Y-41614381D01*
X56826381Y-36933047D02*
X56350190Y-37266381D01*
X56826381Y-37504476D02*
X55826381Y-37504476D01*
X55826381Y-37123523D01*
X55874000Y-37028285D01*
X55921619Y-36980666D01*
X56016857Y-36933047D01*
X56159714Y-36933047D01*
X56254952Y-36980666D01*
X56302571Y-37028285D01*
X56350190Y-37123523D01*
X56350190Y-37504476D01*
X55826381Y-36028285D02*
X55826381Y-36504476D01*
X56302571Y-36552095D01*
X56254952Y-36504476D01*
X56207333Y-36409238D01*
X56207333Y-36171142D01*
X56254952Y-36075904D01*
X56302571Y-36028285D01*
X56397810Y-35980666D01*
X56635905Y-35980666D01*
X56731143Y-36028285D01*
X56778762Y-36075904D01*
X56826381Y-36171142D01*
X56826381Y-36409238D01*
X56778762Y-36504476D01*
X56731143Y-36552095D01*
X55826381Y-35361619D02*
X55826381Y-35266380D01*
X55874000Y-35171142D01*
X55921619Y-35123523D01*
X56016857Y-35075904D01*
X56207333Y-35028285D01*
X56445429Y-35028285D01*
X56635905Y-35075904D01*
X56731143Y-35123523D01*
X56778762Y-35171142D01*
X56826381Y-35266380D01*
X56826381Y-35361619D01*
X56778762Y-35456857D01*
X56731143Y-35504476D01*
X56635905Y-35552095D01*
X56445429Y-35599714D01*
X56207333Y-35599714D01*
X56016857Y-35552095D01*
X55921619Y-35504476D01*
X55874000Y-35456857D01*
X55826381Y-35361619D01*
X55826381Y-34694952D02*
X55826381Y-34075904D01*
X56207333Y-34409238D01*
X56207333Y-34266380D01*
X56254952Y-34171142D01*
X56302571Y-34123523D01*
X56397810Y-34075904D01*
X56635905Y-34075904D01*
X56731143Y-34123523D01*
X56778762Y-34171142D01*
X56826381Y-34266380D01*
X56826381Y-34552095D01*
X56778762Y-34647333D01*
X56731143Y-34694952D01*
X51070381Y-49974286D02*
X51879905Y-49974286D01*
X51975143Y-49926667D01*
X52022762Y-49879048D01*
X52070381Y-49783810D01*
X52070381Y-49593333D01*
X52022762Y-49498095D01*
X51975143Y-49450476D01*
X51879905Y-49402857D01*
X51070381Y-49402857D01*
X51070381Y-48450476D02*
X51070381Y-48926667D01*
X51546571Y-48974286D01*
X51498952Y-48926667D01*
X51451333Y-48831429D01*
X51451333Y-48593333D01*
X51498952Y-48498095D01*
X51546571Y-48450476D01*
X51641810Y-48402857D01*
X51879905Y-48402857D01*
X51975143Y-48450476D01*
X52022762Y-48498095D01*
X52070381Y-48593333D01*
X52070381Y-48831429D01*
X52022762Y-48926667D01*
X51975143Y-48974286D01*
X51070381Y-47783810D02*
X51070381Y-47688571D01*
X51118000Y-47593333D01*
X51165619Y-47545714D01*
X51260857Y-47498095D01*
X51451333Y-47450476D01*
X51689429Y-47450476D01*
X51879905Y-47498095D01*
X51975143Y-47545714D01*
X52022762Y-47593333D01*
X52070381Y-47688571D01*
X52070381Y-47783810D01*
X52022762Y-47879048D01*
X51975143Y-47926667D01*
X51879905Y-47974286D01*
X51689429Y-48021905D01*
X51451333Y-48021905D01*
X51260857Y-47974286D01*
X51165619Y-47926667D01*
X51118000Y-47879048D01*
X51070381Y-47783810D01*
X52070381Y-46498095D02*
X52070381Y-47069524D01*
X52070381Y-46783810D02*
X51070381Y-46783810D01*
X51213238Y-46879048D01*
X51308476Y-46974286D01*
X51356095Y-47069524D01*
X108220381Y-46164286D02*
X109029905Y-46164286D01*
X109125143Y-46116667D01*
X109172762Y-46069048D01*
X109220381Y-45973810D01*
X109220381Y-45783333D01*
X109172762Y-45688095D01*
X109125143Y-45640476D01*
X109029905Y-45592857D01*
X108220381Y-45592857D01*
X108220381Y-44640476D02*
X108220381Y-45116667D01*
X108696571Y-45164286D01*
X108648952Y-45116667D01*
X108601333Y-45021429D01*
X108601333Y-44783333D01*
X108648952Y-44688095D01*
X108696571Y-44640476D01*
X108791810Y-44592857D01*
X109029905Y-44592857D01*
X109125143Y-44640476D01*
X109172762Y-44688095D01*
X109220381Y-44783333D01*
X109220381Y-45021429D01*
X109172762Y-45116667D01*
X109125143Y-45164286D01*
X108220381Y-43973810D02*
X108220381Y-43878571D01*
X108268000Y-43783333D01*
X108315619Y-43735714D01*
X108410857Y-43688095D01*
X108601333Y-43640476D01*
X108839429Y-43640476D01*
X109029905Y-43688095D01*
X109125143Y-43735714D01*
X109172762Y-43783333D01*
X109220381Y-43878571D01*
X109220381Y-43973810D01*
X109172762Y-44069048D01*
X109125143Y-44116667D01*
X109029905Y-44164286D01*
X108839429Y-44211905D01*
X108601333Y-44211905D01*
X108410857Y-44164286D01*
X108315619Y-44116667D01*
X108268000Y-44069048D01*
X108220381Y-43973810D01*
X108315619Y-43259524D02*
X108268000Y-43211905D01*
X108220381Y-43116667D01*
X108220381Y-42878571D01*
X108268000Y-42783333D01*
X108315619Y-42735714D01*
X108410857Y-42688095D01*
X108506095Y-42688095D01*
X108648952Y-42735714D01*
X109220381Y-43307143D01*
X109220381Y-42688095D01*
X42251524Y-31166381D02*
X42251524Y-30166381D01*
X42632477Y-30166381D01*
X42727715Y-30214000D01*
X42775334Y-30261619D01*
X42822953Y-30356857D01*
X42822953Y-30499714D01*
X42775334Y-30594952D01*
X42727715Y-30642571D01*
X42632477Y-30690190D01*
X42251524Y-30690190D01*
X43727715Y-30166381D02*
X43251524Y-30166381D01*
X43203905Y-30642571D01*
X43251524Y-30594952D01*
X43346762Y-30547333D01*
X43584858Y-30547333D01*
X43680096Y-30594952D01*
X43727715Y-30642571D01*
X43775334Y-30737810D01*
X43775334Y-30975905D01*
X43727715Y-31071143D01*
X43680096Y-31118762D01*
X43584858Y-31166381D01*
X43346762Y-31166381D01*
X43251524Y-31118762D01*
X43203905Y-31071143D01*
X44394381Y-30166381D02*
X44489620Y-30166381D01*
X44584858Y-30214000D01*
X44632477Y-30261619D01*
X44680096Y-30356857D01*
X44727715Y-30547333D01*
X44727715Y-30785429D01*
X44680096Y-30975905D01*
X44632477Y-31071143D01*
X44584858Y-31118762D01*
X44489620Y-31166381D01*
X44394381Y-31166381D01*
X44299143Y-31118762D01*
X44251524Y-31071143D01*
X44203905Y-30975905D01*
X44156286Y-30785429D01*
X44156286Y-30547333D01*
X44203905Y-30356857D01*
X44251524Y-30261619D01*
X44299143Y-30214000D01*
X44394381Y-30166381D01*
X45680096Y-31166381D02*
X45108667Y-31166381D01*
X45394381Y-31166381D02*
X45394381Y-30166381D01*
X45299143Y-30309238D01*
X45203905Y-30404476D01*
X45108667Y-30452095D01*
X109803619Y-37877619D02*
X109756000Y-37972857D01*
X109660762Y-38068095D01*
X109517905Y-38210952D01*
X109470286Y-38306191D01*
X109470286Y-38401429D01*
X109708381Y-38353810D02*
X109660762Y-38449048D01*
X109565524Y-38544286D01*
X109375048Y-38591905D01*
X109041714Y-38591905D01*
X108851238Y-38544286D01*
X108756000Y-38449048D01*
X108708381Y-38353810D01*
X108708381Y-38163333D01*
X108756000Y-38068095D01*
X108851238Y-37972857D01*
X109041714Y-37925238D01*
X109375048Y-37925238D01*
X109565524Y-37972857D01*
X109660762Y-38068095D01*
X109708381Y-38163333D01*
X109708381Y-38353810D01*
X108708381Y-37020476D02*
X108708381Y-37496667D01*
X109184571Y-37544286D01*
X109136952Y-37496667D01*
X109089333Y-37401429D01*
X109089333Y-37163333D01*
X109136952Y-37068095D01*
X109184571Y-37020476D01*
X109279810Y-36972857D01*
X109517905Y-36972857D01*
X109613143Y-37020476D01*
X109660762Y-37068095D01*
X109708381Y-37163333D01*
X109708381Y-37401429D01*
X109660762Y-37496667D01*
X109613143Y-37544286D01*
X108708381Y-36353810D02*
X108708381Y-36258571D01*
X108756000Y-36163333D01*
X108803619Y-36115714D01*
X108898857Y-36068095D01*
X109089333Y-36020476D01*
X109327429Y-36020476D01*
X109517905Y-36068095D01*
X109613143Y-36115714D01*
X109660762Y-36163333D01*
X109708381Y-36258571D01*
X109708381Y-36353810D01*
X109660762Y-36449048D01*
X109613143Y-36496667D01*
X109517905Y-36544286D01*
X109327429Y-36591905D01*
X109089333Y-36591905D01*
X108898857Y-36544286D01*
X108803619Y-36496667D01*
X108756000Y-36449048D01*
X108708381Y-36353810D01*
X108803619Y-35639524D02*
X108756000Y-35591905D01*
X108708381Y-35496667D01*
X108708381Y-35258571D01*
X108756000Y-35163333D01*
X108803619Y-35115714D01*
X108898857Y-35068095D01*
X108994095Y-35068095D01*
X109136952Y-35115714D01*
X109708381Y-35687143D01*
X109708381Y-35068095D01*
X75128381Y-43965619D02*
X74652190Y-44298953D01*
X75128381Y-44537048D02*
X74128381Y-44537048D01*
X74128381Y-44156095D01*
X74176000Y-44060857D01*
X74223619Y-44013238D01*
X74318857Y-43965619D01*
X74461714Y-43965619D01*
X74556952Y-44013238D01*
X74604571Y-44060857D01*
X74652190Y-44156095D01*
X74652190Y-44537048D01*
X74128381Y-43679905D02*
X75128381Y-43346572D01*
X74128381Y-43013238D01*
X74128381Y-42203714D02*
X74128381Y-42679905D01*
X74604571Y-42727524D01*
X74556952Y-42679905D01*
X74509333Y-42584667D01*
X74509333Y-42346571D01*
X74556952Y-42251333D01*
X74604571Y-42203714D01*
X74699810Y-42156095D01*
X74937905Y-42156095D01*
X75033143Y-42203714D01*
X75080762Y-42251333D01*
X75128381Y-42346571D01*
X75128381Y-42584667D01*
X75080762Y-42679905D01*
X75033143Y-42727524D01*
X74128381Y-41537048D02*
X74128381Y-41441809D01*
X74176000Y-41346571D01*
X74223619Y-41298952D01*
X74318857Y-41251333D01*
X74509333Y-41203714D01*
X74747429Y-41203714D01*
X74937905Y-41251333D01*
X75033143Y-41298952D01*
X75080762Y-41346571D01*
X75128381Y-41441809D01*
X75128381Y-41537048D01*
X75080762Y-41632286D01*
X75033143Y-41679905D01*
X74937905Y-41727524D01*
X74747429Y-41775143D01*
X74509333Y-41775143D01*
X74318857Y-41727524D01*
X74223619Y-41679905D01*
X74176000Y-41632286D01*
X74128381Y-41537048D01*
X75128381Y-40251333D02*
X75128381Y-40822762D01*
X75128381Y-40537048D02*
X74128381Y-40537048D01*
X74271238Y-40632286D01*
X74366476Y-40727524D01*
X74414095Y-40822762D01*
X65174953Y-38044381D02*
X64841619Y-37568190D01*
X64603524Y-38044381D02*
X64603524Y-37044381D01*
X64984477Y-37044381D01*
X65079715Y-37092000D01*
X65127334Y-37139619D01*
X65174953Y-37234857D01*
X65174953Y-37377714D01*
X65127334Y-37472952D01*
X65079715Y-37520571D01*
X64984477Y-37568190D01*
X64603524Y-37568190D01*
X66079715Y-37044381D02*
X65603524Y-37044381D01*
X65555905Y-37520571D01*
X65603524Y-37472952D01*
X65698762Y-37425333D01*
X65936858Y-37425333D01*
X66032096Y-37472952D01*
X66079715Y-37520571D01*
X66127334Y-37615810D01*
X66127334Y-37853905D01*
X66079715Y-37949143D01*
X66032096Y-37996762D01*
X65936858Y-38044381D01*
X65698762Y-38044381D01*
X65603524Y-37996762D01*
X65555905Y-37949143D01*
X66746381Y-37044381D02*
X66841620Y-37044381D01*
X66936858Y-37092000D01*
X66984477Y-37139619D01*
X67032096Y-37234857D01*
X67079715Y-37425333D01*
X67079715Y-37663429D01*
X67032096Y-37853905D01*
X66984477Y-37949143D01*
X66936858Y-37996762D01*
X66841620Y-38044381D01*
X66746381Y-38044381D01*
X66651143Y-37996762D01*
X66603524Y-37949143D01*
X66555905Y-37853905D01*
X66508286Y-37663429D01*
X66508286Y-37425333D01*
X66555905Y-37234857D01*
X66603524Y-37139619D01*
X66651143Y-37092000D01*
X66746381Y-37044381D01*
X67936858Y-37377714D02*
X67936858Y-38044381D01*
X67698762Y-36996762D02*
X67460667Y-37711048D01*
X68079715Y-37711048D01*
X65174953Y-48966381D02*
X64841619Y-48490190D01*
X64603524Y-48966381D02*
X64603524Y-47966381D01*
X64984477Y-47966381D01*
X65079715Y-48014000D01*
X65127334Y-48061619D01*
X65174953Y-48156857D01*
X65174953Y-48299714D01*
X65127334Y-48394952D01*
X65079715Y-48442571D01*
X64984477Y-48490190D01*
X64603524Y-48490190D01*
X66079715Y-47966381D02*
X65603524Y-47966381D01*
X65555905Y-48442571D01*
X65603524Y-48394952D01*
X65698762Y-48347333D01*
X65936858Y-48347333D01*
X66032096Y-48394952D01*
X66079715Y-48442571D01*
X66127334Y-48537810D01*
X66127334Y-48775905D01*
X66079715Y-48871143D01*
X66032096Y-48918762D01*
X65936858Y-48966381D01*
X65698762Y-48966381D01*
X65603524Y-48918762D01*
X65555905Y-48871143D01*
X66746381Y-47966381D02*
X66841620Y-47966381D01*
X66936858Y-48014000D01*
X66984477Y-48061619D01*
X67032096Y-48156857D01*
X67079715Y-48347333D01*
X67079715Y-48585429D01*
X67032096Y-48775905D01*
X66984477Y-48871143D01*
X66936858Y-48918762D01*
X66841620Y-48966381D01*
X66746381Y-48966381D01*
X66651143Y-48918762D01*
X66603524Y-48871143D01*
X66555905Y-48775905D01*
X66508286Y-48585429D01*
X66508286Y-48347333D01*
X66555905Y-48156857D01*
X66603524Y-48061619D01*
X66651143Y-48014000D01*
X66746381Y-47966381D01*
X67984477Y-47966381D02*
X67508286Y-47966381D01*
X67460667Y-48442571D01*
X67508286Y-48394952D01*
X67603524Y-48347333D01*
X67841620Y-48347333D01*
X67936858Y-48394952D01*
X67984477Y-48442571D01*
X68032096Y-48537810D01*
X68032096Y-48775905D01*
X67984477Y-48871143D01*
X67936858Y-48918762D01*
X67841620Y-48966381D01*
X67603524Y-48966381D01*
X67508286Y-48918762D01*
X67460667Y-48871143D01*
X100226953Y-39568381D02*
X99893619Y-39092190D01*
X99655524Y-39568381D02*
X99655524Y-38568381D01*
X100036477Y-38568381D01*
X100131715Y-38616000D01*
X100179334Y-38663619D01*
X100226953Y-38758857D01*
X100226953Y-38901714D01*
X100179334Y-38996952D01*
X100131715Y-39044571D01*
X100036477Y-39092190D01*
X99655524Y-39092190D01*
X101131715Y-38568381D02*
X100655524Y-38568381D01*
X100607905Y-39044571D01*
X100655524Y-38996952D01*
X100750762Y-38949333D01*
X100988858Y-38949333D01*
X101084096Y-38996952D01*
X101131715Y-39044571D01*
X101179334Y-39139810D01*
X101179334Y-39377905D01*
X101131715Y-39473143D01*
X101084096Y-39520762D01*
X100988858Y-39568381D01*
X100750762Y-39568381D01*
X100655524Y-39520762D01*
X100607905Y-39473143D01*
X101798381Y-38568381D02*
X101893620Y-38568381D01*
X101988858Y-38616000D01*
X102036477Y-38663619D01*
X102084096Y-38758857D01*
X102131715Y-38949333D01*
X102131715Y-39187429D01*
X102084096Y-39377905D01*
X102036477Y-39473143D01*
X101988858Y-39520762D01*
X101893620Y-39568381D01*
X101798381Y-39568381D01*
X101703143Y-39520762D01*
X101655524Y-39473143D01*
X101607905Y-39377905D01*
X101560286Y-39187429D01*
X101560286Y-38949333D01*
X101607905Y-38758857D01*
X101655524Y-38663619D01*
X101703143Y-38616000D01*
X101798381Y-38568381D01*
X102988858Y-38568381D02*
X102798381Y-38568381D01*
X102703143Y-38616000D01*
X102655524Y-38663619D01*
X102560286Y-38806476D01*
X102512667Y-38996952D01*
X102512667Y-39377905D01*
X102560286Y-39473143D01*
X102607905Y-39520762D01*
X102703143Y-39568381D01*
X102893620Y-39568381D01*
X102988858Y-39520762D01*
X103036477Y-39473143D01*
X103084096Y-39377905D01*
X103084096Y-39139810D01*
X103036477Y-39044571D01*
X102988858Y-38996952D01*
X102893620Y-38949333D01*
X102703143Y-38949333D01*
X102607905Y-38996952D01*
X102560286Y-39044571D01*
X102512667Y-39139810D01*
X100226953Y-45156381D02*
X99893619Y-44680190D01*
X99655524Y-45156381D02*
X99655524Y-44156381D01*
X100036477Y-44156381D01*
X100131715Y-44204000D01*
X100179334Y-44251619D01*
X100226953Y-44346857D01*
X100226953Y-44489714D01*
X100179334Y-44584952D01*
X100131715Y-44632571D01*
X100036477Y-44680190D01*
X99655524Y-44680190D01*
X101131715Y-44156381D02*
X100655524Y-44156381D01*
X100607905Y-44632571D01*
X100655524Y-44584952D01*
X100750762Y-44537333D01*
X100988858Y-44537333D01*
X101084096Y-44584952D01*
X101131715Y-44632571D01*
X101179334Y-44727810D01*
X101179334Y-44965905D01*
X101131715Y-45061143D01*
X101084096Y-45108762D01*
X100988858Y-45156381D01*
X100750762Y-45156381D01*
X100655524Y-45108762D01*
X100607905Y-45061143D01*
X101798381Y-44156381D02*
X101893620Y-44156381D01*
X101988858Y-44204000D01*
X102036477Y-44251619D01*
X102084096Y-44346857D01*
X102131715Y-44537333D01*
X102131715Y-44775429D01*
X102084096Y-44965905D01*
X102036477Y-45061143D01*
X101988858Y-45108762D01*
X101893620Y-45156381D01*
X101798381Y-45156381D01*
X101703143Y-45108762D01*
X101655524Y-45061143D01*
X101607905Y-44965905D01*
X101560286Y-44775429D01*
X101560286Y-44537333D01*
X101607905Y-44346857D01*
X101655524Y-44251619D01*
X101703143Y-44204000D01*
X101798381Y-44156381D01*
X102465048Y-44156381D02*
X103131715Y-44156381D01*
X102703143Y-45156381D01*
X100226953Y-56840381D02*
X99893619Y-56364190D01*
X99655524Y-56840381D02*
X99655524Y-55840381D01*
X100036477Y-55840381D01*
X100131715Y-55888000D01*
X100179334Y-55935619D01*
X100226953Y-56030857D01*
X100226953Y-56173714D01*
X100179334Y-56268952D01*
X100131715Y-56316571D01*
X100036477Y-56364190D01*
X99655524Y-56364190D01*
X101131715Y-55840381D02*
X100655524Y-55840381D01*
X100607905Y-56316571D01*
X100655524Y-56268952D01*
X100750762Y-56221333D01*
X100988858Y-56221333D01*
X101084096Y-56268952D01*
X101131715Y-56316571D01*
X101179334Y-56411810D01*
X101179334Y-56649905D01*
X101131715Y-56745143D01*
X101084096Y-56792762D01*
X100988858Y-56840381D01*
X100750762Y-56840381D01*
X100655524Y-56792762D01*
X100607905Y-56745143D01*
X101798381Y-55840381D02*
X101893620Y-55840381D01*
X101988858Y-55888000D01*
X102036477Y-55935619D01*
X102084096Y-56030857D01*
X102131715Y-56221333D01*
X102131715Y-56459429D01*
X102084096Y-56649905D01*
X102036477Y-56745143D01*
X101988858Y-56792762D01*
X101893620Y-56840381D01*
X101798381Y-56840381D01*
X101703143Y-56792762D01*
X101655524Y-56745143D01*
X101607905Y-56649905D01*
X101560286Y-56459429D01*
X101560286Y-56221333D01*
X101607905Y-56030857D01*
X101655524Y-55935619D01*
X101703143Y-55888000D01*
X101798381Y-55840381D01*
X102703143Y-56268952D02*
X102607905Y-56221333D01*
X102560286Y-56173714D01*
X102512667Y-56078476D01*
X102512667Y-56030857D01*
X102560286Y-55935619D01*
X102607905Y-55888000D01*
X102703143Y-55840381D01*
X102893620Y-55840381D01*
X102988858Y-55888000D01*
X103036477Y-55935619D01*
X103084096Y-56030857D01*
X103084096Y-56078476D01*
X103036477Y-56173714D01*
X102988858Y-56221333D01*
X102893620Y-56268952D01*
X102703143Y-56268952D01*
X102607905Y-56316571D01*
X102560286Y-56364190D01*
X102512667Y-56459429D01*
X102512667Y-56649905D01*
X102560286Y-56745143D01*
X102607905Y-56792762D01*
X102703143Y-56840381D01*
X102893620Y-56840381D01*
X102988858Y-56792762D01*
X103036477Y-56745143D01*
X103084096Y-56649905D01*
X103084096Y-56459429D01*
X103036477Y-56364190D01*
X102988858Y-56316571D01*
X102893620Y-56268952D01*
X100226953Y-42108381D02*
X99893619Y-41632190D01*
X99655524Y-42108381D02*
X99655524Y-41108381D01*
X100036477Y-41108381D01*
X100131715Y-41156000D01*
X100179334Y-41203619D01*
X100226953Y-41298857D01*
X100226953Y-41441714D01*
X100179334Y-41536952D01*
X100131715Y-41584571D01*
X100036477Y-41632190D01*
X99655524Y-41632190D01*
X101131715Y-41108381D02*
X100655524Y-41108381D01*
X100607905Y-41584571D01*
X100655524Y-41536952D01*
X100750762Y-41489333D01*
X100988858Y-41489333D01*
X101084096Y-41536952D01*
X101131715Y-41584571D01*
X101179334Y-41679810D01*
X101179334Y-41917905D01*
X101131715Y-42013143D01*
X101084096Y-42060762D01*
X100988858Y-42108381D01*
X100750762Y-42108381D01*
X100655524Y-42060762D01*
X100607905Y-42013143D01*
X101798381Y-41108381D02*
X101893620Y-41108381D01*
X101988858Y-41156000D01*
X102036477Y-41203619D01*
X102084096Y-41298857D01*
X102131715Y-41489333D01*
X102131715Y-41727429D01*
X102084096Y-41917905D01*
X102036477Y-42013143D01*
X101988858Y-42060762D01*
X101893620Y-42108381D01*
X101798381Y-42108381D01*
X101703143Y-42060762D01*
X101655524Y-42013143D01*
X101607905Y-41917905D01*
X101560286Y-41727429D01*
X101560286Y-41489333D01*
X101607905Y-41298857D01*
X101655524Y-41203619D01*
X101703143Y-41156000D01*
X101798381Y-41108381D01*
X102607905Y-42108381D02*
X102798381Y-42108381D01*
X102893620Y-42060762D01*
X102941239Y-42013143D01*
X103036477Y-41870286D01*
X103084096Y-41679810D01*
X103084096Y-41298857D01*
X103036477Y-41203619D01*
X102988858Y-41156000D01*
X102893620Y-41108381D01*
X102703143Y-41108381D01*
X102607905Y-41156000D01*
X102560286Y-41203619D01*
X102512667Y-41298857D01*
X102512667Y-41536952D01*
X102560286Y-41632190D01*
X102607905Y-41679810D01*
X102703143Y-41727429D01*
X102893620Y-41727429D01*
X102988858Y-41679810D01*
X103036477Y-41632190D01*
X103084096Y-41536952D01*
X47428381Y-42775047D02*
X46952190Y-43108381D01*
X47428381Y-43346476D02*
X46428381Y-43346476D01*
X46428381Y-42965523D01*
X46476000Y-42870285D01*
X46523619Y-42822666D01*
X46618857Y-42775047D01*
X46761714Y-42775047D01*
X46856952Y-42822666D01*
X46904571Y-42870285D01*
X46952190Y-42965523D01*
X46952190Y-43346476D01*
X46428381Y-41870285D02*
X46428381Y-42346476D01*
X46904571Y-42394095D01*
X46856952Y-42346476D01*
X46809333Y-42251238D01*
X46809333Y-42013142D01*
X46856952Y-41917904D01*
X46904571Y-41870285D01*
X46999810Y-41822666D01*
X47237905Y-41822666D01*
X47333143Y-41870285D01*
X47380762Y-41917904D01*
X47428381Y-42013142D01*
X47428381Y-42251238D01*
X47380762Y-42346476D01*
X47333143Y-42394095D01*
X47428381Y-40870285D02*
X47428381Y-41441714D01*
X47428381Y-41156000D02*
X46428381Y-41156000D01*
X46571238Y-41251238D01*
X46666476Y-41346476D01*
X46714095Y-41441714D01*
X46428381Y-40251238D02*
X46428381Y-40155999D01*
X46476000Y-40060761D01*
X46523619Y-40013142D01*
X46618857Y-39965523D01*
X46809333Y-39917904D01*
X47047429Y-39917904D01*
X47237905Y-39965523D01*
X47333143Y-40013142D01*
X47380762Y-40060761D01*
X47428381Y-40155999D01*
X47428381Y-40251238D01*
X47380762Y-40346476D01*
X47333143Y-40394095D01*
X47237905Y-40441714D01*
X47047429Y-40489333D01*
X46809333Y-40489333D01*
X46618857Y-40441714D01*
X46523619Y-40394095D01*
X46476000Y-40346476D01*
X46428381Y-40251238D01*
M02*
