M48
;DRILL file {KiCad 4.0.4+dfsg1-stable} date Sun Jan 22 14:41:54 2017
;FORMAT={-:-/ absolute / metric / decimal}
FMAT,2
METRIC,TZ
T1C0.500
T2C0.800
T3C0.813
T4C0.850
T5C1.001
T6C1.016
%
G90
G05
M71
T1
X46.736Y-38.608
X46.99Y-88.646
X48.26Y-31.75
X49.53Y-84.074
X50.292Y-44.958
X50.292Y-52.578
X50.546Y-80.518
X50.8Y-85.598
X51.054Y-31.75
X51.562Y-62.484
X52.832Y-90.932
X53.848Y-31.75
X54.864Y-62.484
X54.864Y-70.612
X55.118Y-77.47
X55.118Y-79.756
X55.626Y-85.598
X56.642Y-96.774
X57.15Y-53.594
X57.15Y-74.676
X58.928Y-85.598
X59.69Y-93.726
X59.944Y-89.408
X60.452Y-90.932
X60.706Y-44.45
X61.214Y-84.074
X61.722Y-79.502
X64.516Y-89.408
X66.04Y-75.692
X66.04Y-77.978
X66.04Y-81.28
X66.04Y-88.9
X71.882Y-89.916
X75.946Y-81.28
X76.2Y-88.9
X80.518Y-81.28
X80.518Y-88.9
X81.28Y-78.232
X85.09Y-85.852
X86.36Y-90.17
X90.424Y-81.28
X90.424Y-88.9
X94.234Y-81.28
X94.234Y-88.9
X96.266Y-85.852
X96.266Y-90.17
X96.52Y-79.502
X99.06Y-92.202
X99.568Y-79.502
X103.632Y-81.28
X106.172Y-86.614
X106.172Y-89.154
X111.252Y-81.28
X111.252Y-88.646
X115.316Y-73.66
X120.396Y-81.28
X120.396Y-88.9
X122.428Y-40.894
X122.428Y-49.276
X123.444Y-36.322
X131.826Y-40.894
X131.826Y-48.768
X131.826Y-51.054
T2
X81.614Y-72.898
X86.614Y-72.898
T3
X64.516Y-43.688
X67.056Y-41.148
X69.596Y-43.688
X113.03Y-47.244
X115.57Y-44.704
X118.11Y-47.244
T4
X88.011Y-41.91
X90.678Y-39.243
X90.678Y-44.704
X92.456Y-40.005
X93.218Y-41.91
T5
X64.008Y-35.052
X64.008Y-49.022
X67.818Y-92.71
X67.818Y-99.822
X69.088Y-35.052
X69.088Y-49.022
X71.628Y-72.644
X72.898Y-92.71
X72.898Y-99.822
X76.708Y-72.644
X113.538Y-34.036
X113.538Y-39.624
X113.538Y-51.308
X118.618Y-34.036
X118.618Y-39.624
X118.618Y-51.308
T6
X43.942Y-35.814
X43.942Y-38.354
X43.942Y-40.894
X43.942Y-43.434
X43.942Y-45.974
X43.942Y-48.514
X43.942Y-51.054
X43.942Y-62.992
X43.942Y-65.532
X43.942Y-68.072
X43.942Y-70.612
X43.942Y-73.152
X43.942Y-75.692
X43.942Y-78.232
X43.942Y-80.772
X43.942Y-83.312
X43.942Y-85.852
X43.942Y-88.392
X43.942Y-90.932
X43.942Y-93.472
X43.942Y-96.012
X43.942Y-98.552
X86.36Y-68.326
X93.98Y-95.25
X96.52Y-95.25
X99.06Y-95.25
T0
M30
