G04 #@! TF.FileFunction,Other,Fab,Top*
%FSLAX46Y46*%
G04 Gerber Fmt 4.6, Leading zero omitted, Abs format (unit mm)*
G04 Created by KiCad (PCBNEW 4.0.4+dfsg1-stable) date Sun Jan 22 10:37:54 2017*
%MOMM*%
%LPD*%
G01*
G04 APERTURE LIST*
%ADD10C,0.100000*%
%ADD11C,0.150000*%
G04 APERTURE END LIST*
D10*
D11*
X61142000Y-83840000D02*
G75*
G03X61142000Y-83840000I-250000J0D01*
G01*
X61592000Y-83140000D02*
X51692000Y-83140000D01*
X61592000Y-87040000D02*
X61592000Y-83140000D01*
X51692000Y-87040000D02*
X61592000Y-87040000D01*
X51692000Y-83140000D02*
X51692000Y-87040000D01*
X53368000Y-49760000D02*
G75*
G03X53368000Y-49760000I-250000J0D01*
G01*
X52668000Y-50210000D02*
X57568000Y-50210000D01*
X52668000Y-46310000D02*
X52668000Y-50210000D01*
X57568000Y-46310000D02*
X52668000Y-46310000D01*
X57568000Y-50210000D02*
X57568000Y-46310000D01*
X125250000Y-45950000D02*
G75*
G03X125250000Y-45950000I-250000J0D01*
G01*
X124550000Y-46400000D02*
X129450000Y-46400000D01*
X124550000Y-42500000D02*
X124550000Y-46400000D01*
X129450000Y-42500000D02*
X124550000Y-42500000D01*
X129450000Y-46400000D02*
X129450000Y-42500000D01*
X69370000Y-86590000D02*
G75*
G03X69370000Y-86590000I-250000J0D01*
G01*
X68670000Y-87040000D02*
X73570000Y-87040000D01*
X68670000Y-83140000D02*
X68670000Y-87040000D01*
X73570000Y-83140000D02*
X68670000Y-83140000D01*
X73570000Y-87040000D02*
X73570000Y-83140000D01*
X83848000Y-86590000D02*
G75*
G03X83848000Y-86590000I-250000J0D01*
G01*
X83148000Y-87040000D02*
X88048000Y-87040000D01*
X83148000Y-83140000D02*
X83148000Y-87040000D01*
X88048000Y-83140000D02*
X83148000Y-83140000D01*
X88048000Y-87040000D02*
X88048000Y-83140000D01*
X97056000Y-86590000D02*
G75*
G03X97056000Y-86590000I-250000J0D01*
G01*
X96356000Y-87040000D02*
X101256000Y-87040000D01*
X96356000Y-83140000D02*
X96356000Y-87040000D01*
X101256000Y-83140000D02*
X96356000Y-83140000D01*
X101256000Y-87040000D02*
X101256000Y-83140000D01*
X114074000Y-86336000D02*
G75*
G03X114074000Y-86336000I-250000J0D01*
G01*
X113374000Y-86786000D02*
X118274000Y-86786000D01*
X113374000Y-82886000D02*
X113374000Y-86786000D01*
X118274000Y-82886000D02*
X113374000Y-82886000D01*
X118274000Y-86786000D02*
X118274000Y-82886000D01*
X51094381Y-87280476D02*
X50094381Y-87280476D01*
X50094381Y-87042381D01*
X50142000Y-86899523D01*
X50237238Y-86804285D01*
X50332476Y-86756666D01*
X50522952Y-86709047D01*
X50665810Y-86709047D01*
X50856286Y-86756666D01*
X50951524Y-86804285D01*
X51046762Y-86899523D01*
X51094381Y-87042381D01*
X51094381Y-87280476D01*
X50142000Y-85756666D02*
X50094381Y-85851904D01*
X50094381Y-85994761D01*
X50142000Y-86137619D01*
X50237238Y-86232857D01*
X50332476Y-86280476D01*
X50522952Y-86328095D01*
X50665810Y-86328095D01*
X50856286Y-86280476D01*
X50951524Y-86232857D01*
X51046762Y-86137619D01*
X51094381Y-85994761D01*
X51094381Y-85899523D01*
X51046762Y-85756666D01*
X50999143Y-85709047D01*
X50665810Y-85709047D01*
X50665810Y-85899523D01*
X50427714Y-84851904D02*
X51094381Y-84851904D01*
X50046762Y-85090000D02*
X50761048Y-85328095D01*
X50761048Y-84709047D01*
X50427714Y-83899523D02*
X51094381Y-83899523D01*
X50046762Y-84137619D02*
X50761048Y-84375714D01*
X50761048Y-83756666D01*
X50427714Y-82947142D02*
X51094381Y-82947142D01*
X50046762Y-83185238D02*
X50761048Y-83423333D01*
X50761048Y-82804285D01*
X57616381Y-38996476D02*
X56616381Y-38996476D01*
X57330667Y-38663142D01*
X56616381Y-38329809D01*
X57616381Y-38329809D01*
X57616381Y-37853619D02*
X56616381Y-37853619D01*
X57330667Y-37520285D01*
X56616381Y-37186952D01*
X57616381Y-37186952D01*
X57092571Y-36377428D02*
X57140190Y-36234571D01*
X57187810Y-36186952D01*
X57283048Y-36139333D01*
X57425905Y-36139333D01*
X57521143Y-36186952D01*
X57568762Y-36234571D01*
X57616381Y-36329809D01*
X57616381Y-36710762D01*
X56616381Y-36710762D01*
X56616381Y-36377428D01*
X56664000Y-36282190D01*
X56711619Y-36234571D01*
X56806857Y-36186952D01*
X56902095Y-36186952D01*
X56997333Y-36234571D01*
X57044952Y-36282190D01*
X57092571Y-36377428D01*
X57092571Y-36710762D01*
X56616381Y-35853619D02*
X56616381Y-35282190D01*
X57616381Y-35567905D02*
X56616381Y-35567905D01*
X56616381Y-35044095D02*
X56616381Y-34425047D01*
X56997333Y-34758381D01*
X56997333Y-34615523D01*
X57044952Y-34520285D01*
X57092571Y-34472666D01*
X57187810Y-34425047D01*
X57425905Y-34425047D01*
X57521143Y-34472666D01*
X57568762Y-34520285D01*
X57616381Y-34615523D01*
X57616381Y-34901238D01*
X57568762Y-34996476D01*
X57521143Y-35044095D01*
X57616381Y-33948857D02*
X57616381Y-33758381D01*
X57568762Y-33663142D01*
X57521143Y-33615523D01*
X57378286Y-33520285D01*
X57187810Y-33472666D01*
X56806857Y-33472666D01*
X56711619Y-33520285D01*
X56664000Y-33567904D01*
X56616381Y-33663142D01*
X56616381Y-33853619D01*
X56664000Y-33948857D01*
X56711619Y-33996476D01*
X56806857Y-34044095D01*
X57044952Y-34044095D01*
X57140190Y-33996476D01*
X57187810Y-33948857D01*
X57235429Y-33853619D01*
X57235429Y-33663142D01*
X57187810Y-33567904D01*
X57140190Y-33520285D01*
X57044952Y-33472666D01*
X56616381Y-32853619D02*
X56616381Y-32758380D01*
X56664000Y-32663142D01*
X56711619Y-32615523D01*
X56806857Y-32567904D01*
X56997333Y-32520285D01*
X57235429Y-32520285D01*
X57425905Y-32567904D01*
X57521143Y-32615523D01*
X57568762Y-32663142D01*
X57616381Y-32758380D01*
X57616381Y-32853619D01*
X57568762Y-32948857D01*
X57521143Y-32996476D01*
X57425905Y-33044095D01*
X57235429Y-33091714D01*
X56997333Y-33091714D01*
X56806857Y-33044095D01*
X56711619Y-32996476D01*
X56664000Y-32948857D01*
X56616381Y-32853619D01*
X56949714Y-31663142D02*
X57616381Y-31663142D01*
X56568762Y-31901238D02*
X57283048Y-32139333D01*
X57283048Y-31520285D01*
X53284572Y-44916381D02*
X52713143Y-44916381D01*
X52998857Y-44916381D02*
X52998857Y-43916381D01*
X52903619Y-44059238D01*
X52808381Y-44154476D01*
X52713143Y-44202095D01*
X53903619Y-43916381D02*
X53998858Y-43916381D01*
X54094096Y-43964000D01*
X54141715Y-44011619D01*
X54189334Y-44106857D01*
X54236953Y-44297333D01*
X54236953Y-44535429D01*
X54189334Y-44725905D01*
X54141715Y-44821143D01*
X54094096Y-44868762D01*
X53998858Y-44916381D01*
X53903619Y-44916381D01*
X53808381Y-44868762D01*
X53760762Y-44821143D01*
X53713143Y-44725905D01*
X53665524Y-44535429D01*
X53665524Y-44297333D01*
X53713143Y-44106857D01*
X53760762Y-44011619D01*
X53808381Y-43964000D01*
X53903619Y-43916381D01*
X55094096Y-44249714D02*
X55094096Y-44916381D01*
X54665524Y-44249714D02*
X54665524Y-44773524D01*
X54713143Y-44868762D01*
X54808381Y-44916381D01*
X54951239Y-44916381D01*
X55046477Y-44868762D01*
X55094096Y-44821143D01*
X55903620Y-44392571D02*
X55570286Y-44392571D01*
X55570286Y-44916381D02*
X55570286Y-43916381D01*
X56046477Y-43916381D01*
X127373143Y-53806381D02*
X126801714Y-53806381D01*
X127087428Y-53806381D02*
X127087428Y-52806381D01*
X126992190Y-52949238D01*
X126896952Y-53044476D01*
X126801714Y-53092095D01*
X127992190Y-52806381D02*
X128087429Y-52806381D01*
X128182667Y-52854000D01*
X128230286Y-52901619D01*
X128277905Y-52996857D01*
X128325524Y-53187333D01*
X128325524Y-53425429D01*
X128277905Y-53615905D01*
X128230286Y-53711143D01*
X128182667Y-53758762D01*
X128087429Y-53806381D01*
X127992190Y-53806381D01*
X127896952Y-53758762D01*
X127849333Y-53711143D01*
X127801714Y-53615905D01*
X127754095Y-53425429D01*
X127754095Y-53187333D01*
X127801714Y-52996857D01*
X127849333Y-52901619D01*
X127896952Y-52854000D01*
X127992190Y-52806381D01*
X128754095Y-53139714D02*
X128754095Y-54139714D01*
X128754095Y-53187333D02*
X128849333Y-53139714D01*
X129039810Y-53139714D01*
X129135048Y-53187333D01*
X129182667Y-53234952D01*
X129230286Y-53330190D01*
X129230286Y-53615905D01*
X129182667Y-53711143D01*
X129135048Y-53758762D01*
X129039810Y-53806381D01*
X128849333Y-53806381D01*
X128754095Y-53758762D01*
X46412381Y-36377428D02*
X46412381Y-36948857D01*
X46412381Y-36663143D02*
X45412381Y-36663143D01*
X45555238Y-36758381D01*
X45650476Y-36853619D01*
X45698095Y-36948857D01*
X45412381Y-35758381D02*
X45412381Y-35663142D01*
X45460000Y-35567904D01*
X45507619Y-35520285D01*
X45602857Y-35472666D01*
X45793333Y-35425047D01*
X46031429Y-35425047D01*
X46221905Y-35472666D01*
X46317143Y-35520285D01*
X46364762Y-35567904D01*
X46412381Y-35663142D01*
X46412381Y-35758381D01*
X46364762Y-35853619D01*
X46317143Y-35901238D01*
X46221905Y-35948857D01*
X46031429Y-35996476D01*
X45793333Y-35996476D01*
X45602857Y-35948857D01*
X45507619Y-35901238D01*
X45460000Y-35853619D01*
X45412381Y-35758381D01*
X45745714Y-34567904D02*
X46412381Y-34567904D01*
X45745714Y-34996476D02*
X46269524Y-34996476D01*
X46364762Y-34948857D01*
X46412381Y-34853619D01*
X46412381Y-34710761D01*
X46364762Y-34615523D01*
X46317143Y-34567904D01*
X45888571Y-33758380D02*
X45888571Y-34091714D01*
X46412381Y-34091714D02*
X45412381Y-34091714D01*
X45412381Y-33615523D01*
X62458381Y-50156857D02*
X62458381Y-50061618D01*
X62506000Y-49966380D01*
X62553619Y-49918761D01*
X62648857Y-49871142D01*
X62839333Y-49823523D01*
X63077429Y-49823523D01*
X63267905Y-49871142D01*
X63363143Y-49918761D01*
X63410762Y-49966380D01*
X63458381Y-50061618D01*
X63458381Y-50156857D01*
X63410762Y-50252095D01*
X63363143Y-50299714D01*
X63267905Y-50347333D01*
X63077429Y-50394952D01*
X62839333Y-50394952D01*
X62648857Y-50347333D01*
X62553619Y-50299714D01*
X62506000Y-50252095D01*
X62458381Y-50156857D01*
X63363143Y-49394952D02*
X63410762Y-49347333D01*
X63458381Y-49394952D01*
X63410762Y-49442571D01*
X63363143Y-49394952D01*
X63458381Y-49394952D01*
X63458381Y-48394952D02*
X63458381Y-48966381D01*
X63458381Y-48680667D02*
X62458381Y-48680667D01*
X62601238Y-48775905D01*
X62696476Y-48871143D01*
X62744095Y-48966381D01*
X62791714Y-47537809D02*
X63458381Y-47537809D01*
X62791714Y-47966381D02*
X63315524Y-47966381D01*
X63410762Y-47918762D01*
X63458381Y-47823524D01*
X63458381Y-47680666D01*
X63410762Y-47585428D01*
X63363143Y-47537809D01*
X62934571Y-46728285D02*
X62934571Y-47061619D01*
X63458381Y-47061619D02*
X62458381Y-47061619D01*
X62458381Y-46585428D01*
X133578381Y-46600857D02*
X133578381Y-46505618D01*
X133626000Y-46410380D01*
X133673619Y-46362761D01*
X133768857Y-46315142D01*
X133959333Y-46267523D01*
X134197429Y-46267523D01*
X134387905Y-46315142D01*
X134483143Y-46362761D01*
X134530762Y-46410380D01*
X134578381Y-46505618D01*
X134578381Y-46600857D01*
X134530762Y-46696095D01*
X134483143Y-46743714D01*
X134387905Y-46791333D01*
X134197429Y-46838952D01*
X133959333Y-46838952D01*
X133768857Y-46791333D01*
X133673619Y-46743714D01*
X133626000Y-46696095D01*
X133578381Y-46600857D01*
X134483143Y-45838952D02*
X134530762Y-45791333D01*
X134578381Y-45838952D01*
X134530762Y-45886571D01*
X134483143Y-45838952D01*
X134578381Y-45838952D01*
X134578381Y-44838952D02*
X134578381Y-45410381D01*
X134578381Y-45124667D02*
X133578381Y-45124667D01*
X133721238Y-45219905D01*
X133816476Y-45315143D01*
X133864095Y-45410381D01*
X133911714Y-43981809D02*
X134578381Y-43981809D01*
X133911714Y-44410381D02*
X134435524Y-44410381D01*
X134530762Y-44362762D01*
X134578381Y-44267524D01*
X134578381Y-44124666D01*
X134530762Y-44029428D01*
X134483143Y-43981809D01*
X134054571Y-43172285D02*
X134054571Y-43505619D01*
X134578381Y-43505619D02*
X133578381Y-43505619D01*
X133578381Y-43029428D01*
X54070286Y-37014381D02*
X53498857Y-37014381D01*
X53784571Y-37014381D02*
X53784571Y-36014381D01*
X53689333Y-36157238D01*
X53594095Y-36252476D01*
X53498857Y-36300095D01*
X54498857Y-37014381D02*
X54498857Y-36014381D01*
X54832191Y-36728667D01*
X55165524Y-36014381D01*
X55165524Y-37014381D01*
X61426381Y-37933238D02*
X61426381Y-38504667D01*
X61426381Y-38218953D02*
X60426381Y-38218953D01*
X60569238Y-38314191D01*
X60664476Y-38409429D01*
X60712095Y-38504667D01*
X60426381Y-37314191D02*
X60426381Y-37218952D01*
X60474000Y-37123714D01*
X60521619Y-37076095D01*
X60616857Y-37028476D01*
X60807333Y-36980857D01*
X61045429Y-36980857D01*
X61235905Y-37028476D01*
X61331143Y-37076095D01*
X61378762Y-37123714D01*
X61426381Y-37218952D01*
X61426381Y-37314191D01*
X61378762Y-37409429D01*
X61331143Y-37457048D01*
X61235905Y-37504667D01*
X61045429Y-37552286D01*
X60807333Y-37552286D01*
X60616857Y-37504667D01*
X60521619Y-37457048D01*
X60474000Y-37409429D01*
X60426381Y-37314191D01*
X61426381Y-36552286D02*
X60426381Y-36552286D01*
X61045429Y-36457048D02*
X61426381Y-36171333D01*
X60759714Y-36171333D02*
X61140667Y-36552286D01*
X59070381Y-49950476D02*
X59070381Y-50426667D01*
X58070381Y-50426667D01*
X59070381Y-49617143D02*
X58070381Y-49617143D01*
X58784667Y-49283809D01*
X58070381Y-48950476D01*
X59070381Y-48950476D01*
X58070381Y-48569524D02*
X58070381Y-47902857D01*
X59070381Y-48331429D01*
X58403714Y-47093333D02*
X59070381Y-47093333D01*
X58022762Y-47331429D02*
X58737048Y-47569524D01*
X58737048Y-46950476D01*
X59070381Y-46045714D02*
X59070381Y-46617143D01*
X59070381Y-46331429D02*
X58070381Y-46331429D01*
X58213238Y-46426667D01*
X58308476Y-46521905D01*
X58356095Y-46617143D01*
X130952381Y-46140476D02*
X130952381Y-46616667D01*
X129952381Y-46616667D01*
X130952381Y-45807143D02*
X129952381Y-45807143D01*
X130666667Y-45473809D01*
X129952381Y-45140476D01*
X130952381Y-45140476D01*
X129952381Y-44759524D02*
X129952381Y-44092857D01*
X130952381Y-44521429D01*
X130285714Y-43283333D02*
X130952381Y-43283333D01*
X129904762Y-43521429D02*
X130619048Y-43759524D01*
X130619048Y-43140476D01*
X130952381Y-42235714D02*
X130952381Y-42807143D01*
X130952381Y-42521429D02*
X129952381Y-42521429D01*
X130095238Y-42616667D01*
X130190476Y-42711905D01*
X130238095Y-42807143D01*
X47601143Y-54315809D02*
X47648762Y-54363428D01*
X47696381Y-54506285D01*
X47696381Y-54601523D01*
X47648762Y-54744381D01*
X47553524Y-54839619D01*
X47458286Y-54887238D01*
X47267810Y-54934857D01*
X47124952Y-54934857D01*
X46934476Y-54887238D01*
X46839238Y-54839619D01*
X46744000Y-54744381D01*
X46696381Y-54601523D01*
X46696381Y-54506285D01*
X46744000Y-54363428D01*
X46791619Y-54315809D01*
X46696381Y-53696762D02*
X46696381Y-53506285D01*
X46744000Y-53411047D01*
X46839238Y-53315809D01*
X47029714Y-53268190D01*
X47363048Y-53268190D01*
X47553524Y-53315809D01*
X47648762Y-53411047D01*
X47696381Y-53506285D01*
X47696381Y-53696762D01*
X47648762Y-53792000D01*
X47553524Y-53887238D01*
X47363048Y-53934857D01*
X47029714Y-53934857D01*
X46839238Y-53887238D01*
X46744000Y-53792000D01*
X46696381Y-53696762D01*
X47696381Y-52839619D02*
X46696381Y-52839619D01*
X47696381Y-52268190D01*
X46696381Y-52268190D01*
X47696381Y-51792000D02*
X46696381Y-51792000D01*
X47696381Y-51220571D01*
X46696381Y-51220571D01*
X47791619Y-50982476D02*
X47791619Y-50220571D01*
X46696381Y-49792000D02*
X46696381Y-49696761D01*
X46744000Y-49601523D01*
X46791619Y-49553904D01*
X46886857Y-49506285D01*
X47077333Y-49458666D01*
X47315429Y-49458666D01*
X47505905Y-49506285D01*
X47601143Y-49553904D01*
X47648762Y-49601523D01*
X47696381Y-49696761D01*
X47696381Y-49792000D01*
X47648762Y-49887238D01*
X47601143Y-49934857D01*
X47505905Y-49982476D01*
X47315429Y-50030095D01*
X47077333Y-50030095D01*
X46886857Y-49982476D01*
X46791619Y-49934857D01*
X46744000Y-49887238D01*
X46696381Y-49792000D01*
X47696381Y-48506285D02*
X47696381Y-49077714D01*
X47696381Y-48792000D02*
X46696381Y-48792000D01*
X46839238Y-48887238D01*
X46934476Y-48982476D01*
X46982095Y-49077714D01*
X46696381Y-48172952D02*
X47696381Y-47506285D01*
X46696381Y-47506285D02*
X47696381Y-48172952D01*
X46696381Y-46934857D02*
X46696381Y-46839618D01*
X46744000Y-46744380D01*
X46791619Y-46696761D01*
X46886857Y-46649142D01*
X47077333Y-46601523D01*
X47315429Y-46601523D01*
X47505905Y-46649142D01*
X47601143Y-46696761D01*
X47648762Y-46744380D01*
X47696381Y-46839618D01*
X47696381Y-46934857D01*
X47648762Y-47030095D01*
X47601143Y-47077714D01*
X47505905Y-47125333D01*
X47315429Y-47172952D01*
X47077333Y-47172952D01*
X46886857Y-47125333D01*
X46791619Y-47077714D01*
X46744000Y-47030095D01*
X46696381Y-46934857D01*
X46696381Y-46268190D02*
X46696381Y-45601523D01*
X47696381Y-46030095D01*
X129498381Y-40012476D02*
X128498381Y-40012476D01*
X129212667Y-39679142D01*
X128498381Y-39345809D01*
X129498381Y-39345809D01*
X129498381Y-38869619D02*
X128498381Y-38869619D01*
X129212667Y-38536285D01*
X128498381Y-38202952D01*
X129498381Y-38202952D01*
X128974571Y-37393428D02*
X129022190Y-37250571D01*
X129069810Y-37202952D01*
X129165048Y-37155333D01*
X129307905Y-37155333D01*
X129403143Y-37202952D01*
X129450762Y-37250571D01*
X129498381Y-37345809D01*
X129498381Y-37726762D01*
X128498381Y-37726762D01*
X128498381Y-37393428D01*
X128546000Y-37298190D01*
X128593619Y-37250571D01*
X128688857Y-37202952D01*
X128784095Y-37202952D01*
X128879333Y-37250571D01*
X128926952Y-37298190D01*
X128974571Y-37393428D01*
X128974571Y-37726762D01*
X128498381Y-36869619D02*
X128498381Y-36298190D01*
X129498381Y-36583905D02*
X128498381Y-36583905D01*
X128498381Y-36060095D02*
X128498381Y-35441047D01*
X128879333Y-35774381D01*
X128879333Y-35631523D01*
X128926952Y-35536285D01*
X128974571Y-35488666D01*
X129069810Y-35441047D01*
X129307905Y-35441047D01*
X129403143Y-35488666D01*
X129450762Y-35536285D01*
X129498381Y-35631523D01*
X129498381Y-35917238D01*
X129450762Y-36012476D01*
X129403143Y-36060095D01*
X129498381Y-34964857D02*
X129498381Y-34774381D01*
X129450762Y-34679142D01*
X129403143Y-34631523D01*
X129260286Y-34536285D01*
X129069810Y-34488666D01*
X128688857Y-34488666D01*
X128593619Y-34536285D01*
X128546000Y-34583904D01*
X128498381Y-34679142D01*
X128498381Y-34869619D01*
X128546000Y-34964857D01*
X128593619Y-35012476D01*
X128688857Y-35060095D01*
X128926952Y-35060095D01*
X129022190Y-35012476D01*
X129069810Y-34964857D01*
X129117429Y-34869619D01*
X129117429Y-34679142D01*
X129069810Y-34583904D01*
X129022190Y-34536285D01*
X128926952Y-34488666D01*
X128498381Y-33869619D02*
X128498381Y-33774380D01*
X128546000Y-33679142D01*
X128593619Y-33631523D01*
X128688857Y-33583904D01*
X128879333Y-33536285D01*
X129117429Y-33536285D01*
X129307905Y-33583904D01*
X129403143Y-33631523D01*
X129450762Y-33679142D01*
X129498381Y-33774380D01*
X129498381Y-33869619D01*
X129450762Y-33964857D01*
X129403143Y-34012476D01*
X129307905Y-34060095D01*
X129117429Y-34107714D01*
X128879333Y-34107714D01*
X128688857Y-34060095D01*
X128593619Y-34012476D01*
X128546000Y-33964857D01*
X128498381Y-33869619D01*
X128831714Y-32679142D02*
X129498381Y-32679142D01*
X128450762Y-32917238D02*
X129165048Y-33155333D01*
X129165048Y-32536285D01*
X61412381Y-42029047D02*
X61412381Y-42600476D01*
X61412381Y-42314762D02*
X60412381Y-42314762D01*
X60555238Y-42410000D01*
X60650476Y-42505238D01*
X60698095Y-42600476D01*
X61412381Y-41600476D02*
X60412381Y-41600476D01*
X61031429Y-41505238D02*
X61412381Y-41219523D01*
X60745714Y-41219523D02*
X61126667Y-41600476D01*
X66428953Y-34488381D02*
X65857524Y-34488381D01*
X66143238Y-34488381D02*
X66143238Y-33488381D01*
X66048000Y-33631238D01*
X65952762Y-33726476D01*
X65857524Y-33774095D01*
X66857524Y-34488381D02*
X66857524Y-33488381D01*
X66952762Y-34107429D02*
X67238477Y-34488381D01*
X67238477Y-33821714D02*
X66857524Y-34202667D01*
X65952762Y-47188381D02*
X65381333Y-47188381D01*
X65667047Y-47188381D02*
X65667047Y-46188381D01*
X65571809Y-46331238D01*
X65476571Y-46426476D01*
X65381333Y-46474095D01*
X66571809Y-46188381D02*
X66667048Y-46188381D01*
X66762286Y-46236000D01*
X66809905Y-46283619D01*
X66857524Y-46378857D01*
X66905143Y-46569333D01*
X66905143Y-46807429D01*
X66857524Y-46997905D01*
X66809905Y-47093143D01*
X66762286Y-47140762D01*
X66667048Y-47188381D01*
X66571809Y-47188381D01*
X66476571Y-47140762D01*
X66428952Y-47093143D01*
X66381333Y-46997905D01*
X66333714Y-46807429D01*
X66333714Y-46569333D01*
X66381333Y-46378857D01*
X66428952Y-46283619D01*
X66476571Y-46236000D01*
X66571809Y-46188381D01*
X67333714Y-47188381D02*
X67333714Y-46188381D01*
X67428952Y-46807429D02*
X67714667Y-47188381D01*
X67714667Y-46521714D02*
X67333714Y-46902667D01*
X115411334Y-33980381D02*
X114839905Y-33980381D01*
X115125619Y-33980381D02*
X115125619Y-32980381D01*
X115030381Y-33123238D01*
X114935143Y-33218476D01*
X114839905Y-33266095D01*
X115792286Y-33075619D02*
X115839905Y-33028000D01*
X115935143Y-32980381D01*
X116173239Y-32980381D01*
X116268477Y-33028000D01*
X116316096Y-33075619D01*
X116363715Y-33170857D01*
X116363715Y-33266095D01*
X116316096Y-33408952D01*
X115744667Y-33980381D01*
X116363715Y-33980381D01*
X116982762Y-32980381D02*
X117078001Y-32980381D01*
X117173239Y-33028000D01*
X117220858Y-33075619D01*
X117268477Y-33170857D01*
X117316096Y-33361333D01*
X117316096Y-33599429D01*
X117268477Y-33789905D01*
X117220858Y-33885143D01*
X117173239Y-33932762D01*
X117078001Y-33980381D01*
X116982762Y-33980381D01*
X116887524Y-33932762D01*
X116839905Y-33885143D01*
X116792286Y-33789905D01*
X116744667Y-33599429D01*
X116744667Y-33361333D01*
X116792286Y-33170857D01*
X116839905Y-33075619D01*
X116887524Y-33028000D01*
X116982762Y-32980381D01*
X115197048Y-37298381D02*
X114720857Y-37298381D01*
X114673238Y-37774571D01*
X114720857Y-37726952D01*
X114816095Y-37679333D01*
X115054191Y-37679333D01*
X115149429Y-37726952D01*
X115197048Y-37774571D01*
X115244667Y-37869810D01*
X115244667Y-38107905D01*
X115197048Y-38203143D01*
X115149429Y-38250762D01*
X115054191Y-38298381D01*
X114816095Y-38298381D01*
X114720857Y-38250762D01*
X114673238Y-38203143D01*
X115673238Y-38203143D02*
X115720857Y-38250762D01*
X115673238Y-38298381D01*
X115625619Y-38250762D01*
X115673238Y-38203143D01*
X115673238Y-38298381D01*
X116673238Y-38298381D02*
X116101809Y-38298381D01*
X116387523Y-38298381D02*
X116387523Y-37298381D01*
X116292285Y-37441238D01*
X116197047Y-37536476D01*
X116101809Y-37584095D01*
X117101809Y-38298381D02*
X117101809Y-37298381D01*
X117197047Y-37917429D02*
X117482762Y-38298381D01*
X117482762Y-37631714D02*
X117101809Y-38012667D01*
X115482762Y-45156381D02*
X114911333Y-45156381D01*
X115197047Y-45156381D02*
X115197047Y-44156381D01*
X115101809Y-44299238D01*
X115006571Y-44394476D01*
X114911333Y-44442095D01*
X116101809Y-44156381D02*
X116197048Y-44156381D01*
X116292286Y-44204000D01*
X116339905Y-44251619D01*
X116387524Y-44346857D01*
X116435143Y-44537333D01*
X116435143Y-44775429D01*
X116387524Y-44965905D01*
X116339905Y-45061143D01*
X116292286Y-45108762D01*
X116197048Y-45156381D01*
X116101809Y-45156381D01*
X116006571Y-45108762D01*
X115958952Y-45061143D01*
X115911333Y-44965905D01*
X115863714Y-44775429D01*
X115863714Y-44537333D01*
X115911333Y-44346857D01*
X115958952Y-44251619D01*
X116006571Y-44204000D01*
X116101809Y-44156381D01*
X116863714Y-45156381D02*
X116863714Y-44156381D01*
X116958952Y-44775429D02*
X117244667Y-45156381D01*
X117244667Y-44489714D02*
X116863714Y-44870667D01*
X51774381Y-41346476D02*
X51298190Y-41679810D01*
X51774381Y-41917905D02*
X50774381Y-41917905D01*
X50774381Y-41536952D01*
X50822000Y-41441714D01*
X50869619Y-41394095D01*
X50964857Y-41346476D01*
X51107714Y-41346476D01*
X51202952Y-41394095D01*
X51250571Y-41441714D01*
X51298190Y-41536952D01*
X51298190Y-41917905D01*
X108402381Y-47363047D02*
X108402381Y-47934476D01*
X108402381Y-47648762D02*
X107402381Y-47648762D01*
X107545238Y-47744000D01*
X107640476Y-47839238D01*
X107688095Y-47934476D01*
X108402381Y-46934476D02*
X107402381Y-46934476D01*
X108021429Y-46839238D02*
X108402381Y-46553523D01*
X107735714Y-46553523D02*
X108116667Y-46934476D01*
X87092286Y-48932619D02*
X87139905Y-48885000D01*
X87235143Y-48837381D01*
X87473239Y-48837381D01*
X87568477Y-48885000D01*
X87616096Y-48932619D01*
X87663715Y-49027857D01*
X87663715Y-49123095D01*
X87616096Y-49265952D01*
X87044667Y-49837381D01*
X87663715Y-49837381D01*
X88092286Y-49837381D02*
X88092286Y-48837381D01*
X88330381Y-48837381D01*
X88473239Y-48885000D01*
X88568477Y-48980238D01*
X88616096Y-49075476D01*
X88663715Y-49265952D01*
X88663715Y-49408810D01*
X88616096Y-49599286D01*
X88568477Y-49694524D01*
X88473239Y-49789762D01*
X88330381Y-49837381D01*
X88092286Y-49837381D01*
X88997048Y-48837381D02*
X89235143Y-49837381D01*
X89425620Y-49123095D01*
X89616096Y-49837381D01*
X89854191Y-48837381D01*
X90187524Y-48932619D02*
X90235143Y-48885000D01*
X90330381Y-48837381D01*
X90568477Y-48837381D01*
X90663715Y-48885000D01*
X90711334Y-48932619D01*
X90758953Y-49027857D01*
X90758953Y-49123095D01*
X90711334Y-49265952D01*
X90139905Y-49837381D01*
X90758953Y-49837381D01*
X91092286Y-48837381D02*
X91711334Y-48837381D01*
X91378000Y-49218333D01*
X91520858Y-49218333D01*
X91616096Y-49265952D01*
X91663715Y-49313571D01*
X91711334Y-49408810D01*
X91711334Y-49646905D01*
X91663715Y-49742143D01*
X91616096Y-49789762D01*
X91520858Y-49837381D01*
X91235143Y-49837381D01*
X91139905Y-49789762D01*
X91092286Y-49742143D01*
X92092286Y-48932619D02*
X92139905Y-48885000D01*
X92235143Y-48837381D01*
X92473239Y-48837381D01*
X92568477Y-48885000D01*
X92616096Y-48932619D01*
X92663715Y-49027857D01*
X92663715Y-49123095D01*
X92616096Y-49265952D01*
X92044667Y-49837381D01*
X92663715Y-49837381D01*
X49206381Y-36377428D02*
X49206381Y-36948857D01*
X49206381Y-36663143D02*
X48206381Y-36663143D01*
X48349238Y-36758381D01*
X48444476Y-36853619D01*
X48492095Y-36948857D01*
X48206381Y-35758381D02*
X48206381Y-35663142D01*
X48254000Y-35567904D01*
X48301619Y-35520285D01*
X48396857Y-35472666D01*
X48587333Y-35425047D01*
X48825429Y-35425047D01*
X49015905Y-35472666D01*
X49111143Y-35520285D01*
X49158762Y-35567904D01*
X49206381Y-35663142D01*
X49206381Y-35758381D01*
X49158762Y-35853619D01*
X49111143Y-35901238D01*
X49015905Y-35948857D01*
X48825429Y-35996476D01*
X48587333Y-35996476D01*
X48396857Y-35948857D01*
X48301619Y-35901238D01*
X48254000Y-35853619D01*
X48206381Y-35758381D01*
X48539714Y-34567904D02*
X49206381Y-34567904D01*
X48539714Y-34996476D02*
X49063524Y-34996476D01*
X49158762Y-34948857D01*
X49206381Y-34853619D01*
X49206381Y-34710761D01*
X49158762Y-34615523D01*
X49111143Y-34567904D01*
X48682571Y-33758380D02*
X48682571Y-34091714D01*
X49206381Y-34091714D02*
X48206381Y-34091714D01*
X48206381Y-33615523D01*
X52044381Y-50156857D02*
X52044381Y-50061618D01*
X52092000Y-49966380D01*
X52139619Y-49918761D01*
X52234857Y-49871142D01*
X52425333Y-49823523D01*
X52663429Y-49823523D01*
X52853905Y-49871142D01*
X52949143Y-49918761D01*
X52996762Y-49966380D01*
X53044381Y-50061618D01*
X53044381Y-50156857D01*
X52996762Y-50252095D01*
X52949143Y-50299714D01*
X52853905Y-50347333D01*
X52663429Y-50394952D01*
X52425333Y-50394952D01*
X52234857Y-50347333D01*
X52139619Y-50299714D01*
X52092000Y-50252095D01*
X52044381Y-50156857D01*
X52949143Y-49394952D02*
X52996762Y-49347333D01*
X53044381Y-49394952D01*
X52996762Y-49442571D01*
X52949143Y-49394952D01*
X53044381Y-49394952D01*
X53044381Y-48394952D02*
X53044381Y-48966381D01*
X53044381Y-48680667D02*
X52044381Y-48680667D01*
X52187238Y-48775905D01*
X52282476Y-48871143D01*
X52330095Y-48966381D01*
X52377714Y-47537809D02*
X53044381Y-47537809D01*
X52377714Y-47966381D02*
X52901524Y-47966381D01*
X52996762Y-47918762D01*
X53044381Y-47823524D01*
X53044381Y-47680666D01*
X52996762Y-47585428D01*
X52949143Y-47537809D01*
X52520571Y-46728285D02*
X52520571Y-47061619D01*
X53044381Y-47061619D02*
X52044381Y-47061619D01*
X52044381Y-46585428D01*
X119580381Y-46600857D02*
X119580381Y-46505618D01*
X119628000Y-46410380D01*
X119675619Y-46362761D01*
X119770857Y-46315142D01*
X119961333Y-46267523D01*
X120199429Y-46267523D01*
X120389905Y-46315142D01*
X120485143Y-46362761D01*
X120532762Y-46410380D01*
X120580381Y-46505618D01*
X120580381Y-46600857D01*
X120532762Y-46696095D01*
X120485143Y-46743714D01*
X120389905Y-46791333D01*
X120199429Y-46838952D01*
X119961333Y-46838952D01*
X119770857Y-46791333D01*
X119675619Y-46743714D01*
X119628000Y-46696095D01*
X119580381Y-46600857D01*
X120485143Y-45838952D02*
X120532762Y-45791333D01*
X120580381Y-45838952D01*
X120532762Y-45886571D01*
X120485143Y-45838952D01*
X120580381Y-45838952D01*
X120580381Y-44838952D02*
X120580381Y-45410381D01*
X120580381Y-45124667D02*
X119580381Y-45124667D01*
X119723238Y-45219905D01*
X119818476Y-45315143D01*
X119866095Y-45410381D01*
X119913714Y-43981809D02*
X120580381Y-43981809D01*
X119913714Y-44410381D02*
X120437524Y-44410381D01*
X120532762Y-44362762D01*
X120580381Y-44267524D01*
X120580381Y-44124666D01*
X120532762Y-44029428D01*
X120485143Y-43981809D01*
X120056571Y-43172285D02*
X120056571Y-43505619D01*
X120580381Y-43505619D02*
X119580381Y-43505619D01*
X119580381Y-43029428D01*
X49619143Y-66238476D02*
X49666762Y-66286095D01*
X49714381Y-66428952D01*
X49714381Y-66524190D01*
X49666762Y-66667048D01*
X49571524Y-66762286D01*
X49476286Y-66809905D01*
X49285810Y-66857524D01*
X49142952Y-66857524D01*
X48952476Y-66809905D01*
X48857238Y-66762286D01*
X48762000Y-66667048D01*
X48714381Y-66524190D01*
X48714381Y-66428952D01*
X48762000Y-66286095D01*
X48809619Y-66238476D01*
X59807143Y-77668476D02*
X59854762Y-77716095D01*
X59902381Y-77858952D01*
X59902381Y-77954190D01*
X59854762Y-78097048D01*
X59759524Y-78192286D01*
X59664286Y-78239905D01*
X59473810Y-78287524D01*
X59330952Y-78287524D01*
X59140476Y-78239905D01*
X59045238Y-78192286D01*
X58950000Y-78097048D01*
X58902381Y-77954190D01*
X58902381Y-77858952D01*
X58950000Y-77716095D01*
X58997619Y-77668476D01*
X78575143Y-84780476D02*
X78622762Y-84828095D01*
X78670381Y-84970952D01*
X78670381Y-85066190D01*
X78622762Y-85209048D01*
X78527524Y-85304286D01*
X78432286Y-85351905D01*
X78241810Y-85399524D01*
X78098952Y-85399524D01*
X77908476Y-85351905D01*
X77813238Y-85304286D01*
X77718000Y-85209048D01*
X77670381Y-85066190D01*
X77670381Y-84970952D01*
X77718000Y-84828095D01*
X77765619Y-84780476D01*
X93081143Y-84780476D02*
X93128762Y-84828095D01*
X93176381Y-84970952D01*
X93176381Y-85066190D01*
X93128762Y-85209048D01*
X93033524Y-85304286D01*
X92938286Y-85351905D01*
X92747810Y-85399524D01*
X92604952Y-85399524D01*
X92414476Y-85351905D01*
X92319238Y-85304286D01*
X92224000Y-85209048D01*
X92176381Y-85066190D01*
X92176381Y-84970952D01*
X92224000Y-84828095D01*
X92271619Y-84780476D01*
X92291143Y-84780476D02*
X92338762Y-84828095D01*
X92386381Y-84970952D01*
X92386381Y-85066190D01*
X92338762Y-85209048D01*
X92243524Y-85304286D01*
X92148286Y-85351905D01*
X91957810Y-85399524D01*
X91814952Y-85399524D01*
X91624476Y-85351905D01*
X91529238Y-85304286D01*
X91434000Y-85209048D01*
X91386381Y-85066190D01*
X91386381Y-84970952D01*
X91434000Y-84828095D01*
X91481619Y-84780476D01*
X106289143Y-84780476D02*
X106336762Y-84828095D01*
X106384381Y-84970952D01*
X106384381Y-85066190D01*
X106336762Y-85209048D01*
X106241524Y-85304286D01*
X106146286Y-85351905D01*
X105955810Y-85399524D01*
X105812952Y-85399524D01*
X105622476Y-85351905D01*
X105527238Y-85304286D01*
X105432000Y-85209048D01*
X105384381Y-85066190D01*
X105384381Y-84970952D01*
X105432000Y-84828095D01*
X105479619Y-84780476D01*
X109309143Y-84526476D02*
X109356762Y-84574095D01*
X109404381Y-84716952D01*
X109404381Y-84812190D01*
X109356762Y-84955048D01*
X109261524Y-85050286D01*
X109166286Y-85097905D01*
X108975810Y-85145524D01*
X108832952Y-85145524D01*
X108642476Y-85097905D01*
X108547238Y-85050286D01*
X108452000Y-84955048D01*
X108404381Y-84812190D01*
X108404381Y-84716952D01*
X108452000Y-84574095D01*
X108499619Y-84526476D01*
X123053143Y-84526476D02*
X123100762Y-84574095D01*
X123148381Y-84716952D01*
X123148381Y-84812190D01*
X123100762Y-84955048D01*
X123005524Y-85050286D01*
X122910286Y-85097905D01*
X122719810Y-85145524D01*
X122576952Y-85145524D01*
X122386476Y-85097905D01*
X122291238Y-85050286D01*
X122196000Y-84955048D01*
X122148381Y-84812190D01*
X122148381Y-84716952D01*
X122196000Y-84574095D01*
X122243619Y-84526476D01*
X64097143Y-84526476D02*
X64144762Y-84574095D01*
X64192381Y-84716952D01*
X64192381Y-84812190D01*
X64144762Y-84955048D01*
X64049524Y-85050286D01*
X63954286Y-85097905D01*
X63763810Y-85145524D01*
X63620952Y-85145524D01*
X63430476Y-85097905D01*
X63335238Y-85050286D01*
X63240000Y-84955048D01*
X63192381Y-84812190D01*
X63192381Y-84716952D01*
X63240000Y-84574095D01*
X63287619Y-84526476D01*
X52921143Y-66238476D02*
X52968762Y-66286095D01*
X53016381Y-66428952D01*
X53016381Y-66524190D01*
X52968762Y-66667048D01*
X52873524Y-66762286D01*
X52778286Y-66809905D01*
X52587810Y-66857524D01*
X52444952Y-66857524D01*
X52254476Y-66809905D01*
X52159238Y-66762286D01*
X52064000Y-66667048D01*
X52016381Y-66524190D01*
X52016381Y-66428952D01*
X52064000Y-66286095D01*
X52111619Y-66238476D01*
X85145524Y-75273143D02*
X85097905Y-75320762D01*
X84955048Y-75368381D01*
X84859810Y-75368381D01*
X84716952Y-75320762D01*
X84621714Y-75225524D01*
X84574095Y-75130286D01*
X84526476Y-74939810D01*
X84526476Y-74796952D01*
X84574095Y-74606476D01*
X84621714Y-74511238D01*
X84716952Y-74416000D01*
X84859810Y-74368381D01*
X84955048Y-74368381D01*
X85097905Y-74416000D01*
X85145524Y-74463619D01*
X54699143Y-91892476D02*
X54746762Y-91940095D01*
X54794381Y-92082952D01*
X54794381Y-92178190D01*
X54746762Y-92321048D01*
X54651524Y-92416286D01*
X54556286Y-92463905D01*
X54365810Y-92511524D01*
X54222952Y-92511524D01*
X54032476Y-92463905D01*
X53937238Y-92416286D01*
X53842000Y-92321048D01*
X53794381Y-92178190D01*
X53794381Y-92082952D01*
X53842000Y-91940095D01*
X53889619Y-91892476D01*
X78603143Y-84780476D02*
X78650762Y-84828095D01*
X78698381Y-84970952D01*
X78698381Y-85066190D01*
X78650762Y-85209048D01*
X78555524Y-85304286D01*
X78460286Y-85351905D01*
X78269810Y-85399524D01*
X78126952Y-85399524D01*
X77936476Y-85351905D01*
X77841238Y-85304286D01*
X77746000Y-85209048D01*
X77698381Y-85066190D01*
X77698381Y-84970952D01*
X77746000Y-84828095D01*
X77793619Y-84780476D01*
X47601143Y-70825809D02*
X47648762Y-70873428D01*
X47696381Y-71016285D01*
X47696381Y-71111523D01*
X47648762Y-71254381D01*
X47553524Y-71349619D01*
X47458286Y-71397238D01*
X47267810Y-71444857D01*
X47124952Y-71444857D01*
X46934476Y-71397238D01*
X46839238Y-71349619D01*
X46744000Y-71254381D01*
X46696381Y-71111523D01*
X46696381Y-71016285D01*
X46744000Y-70873428D01*
X46791619Y-70825809D01*
X46696381Y-70206762D02*
X46696381Y-70016285D01*
X46744000Y-69921047D01*
X46839238Y-69825809D01*
X47029714Y-69778190D01*
X47363048Y-69778190D01*
X47553524Y-69825809D01*
X47648762Y-69921047D01*
X47696381Y-70016285D01*
X47696381Y-70206762D01*
X47648762Y-70302000D01*
X47553524Y-70397238D01*
X47363048Y-70444857D01*
X47029714Y-70444857D01*
X46839238Y-70397238D01*
X46744000Y-70302000D01*
X46696381Y-70206762D01*
X47696381Y-69349619D02*
X46696381Y-69349619D01*
X47696381Y-68778190D01*
X46696381Y-68778190D01*
X47696381Y-68302000D02*
X46696381Y-68302000D01*
X47696381Y-67730571D01*
X46696381Y-67730571D01*
X47791619Y-67492476D02*
X47791619Y-66730571D01*
X46696381Y-66302000D02*
X46696381Y-66206761D01*
X46744000Y-66111523D01*
X46791619Y-66063904D01*
X46886857Y-66016285D01*
X47077333Y-65968666D01*
X47315429Y-65968666D01*
X47505905Y-66016285D01*
X47601143Y-66063904D01*
X47648762Y-66111523D01*
X47696381Y-66206761D01*
X47696381Y-66302000D01*
X47648762Y-66397238D01*
X47601143Y-66444857D01*
X47505905Y-66492476D01*
X47315429Y-66540095D01*
X47077333Y-66540095D01*
X46886857Y-66492476D01*
X46791619Y-66444857D01*
X46744000Y-66397238D01*
X46696381Y-66302000D01*
X47696381Y-65016285D02*
X47696381Y-65587714D01*
X47696381Y-65302000D02*
X46696381Y-65302000D01*
X46839238Y-65397238D01*
X46934476Y-65492476D01*
X46982095Y-65587714D01*
X46696381Y-64682952D02*
X47696381Y-64016285D01*
X46696381Y-64016285D02*
X47696381Y-64682952D01*
X47696381Y-63111523D02*
X47696381Y-63682952D01*
X47696381Y-63397238D02*
X46696381Y-63397238D01*
X46839238Y-63492476D01*
X46934476Y-63587714D01*
X46982095Y-63682952D01*
X46696381Y-62206761D02*
X46696381Y-62682952D01*
X47172571Y-62730571D01*
X47124952Y-62682952D01*
X47077333Y-62587714D01*
X47077333Y-62349618D01*
X47124952Y-62254380D01*
X47172571Y-62206761D01*
X47267810Y-62159142D01*
X47505905Y-62159142D01*
X47601143Y-62206761D01*
X47648762Y-62254380D01*
X47696381Y-62349618D01*
X47696381Y-62587714D01*
X47648762Y-62682952D01*
X47601143Y-62730571D01*
X91237143Y-99273809D02*
X91284762Y-99321428D01*
X91332381Y-99464285D01*
X91332381Y-99559523D01*
X91284762Y-99702381D01*
X91189524Y-99797619D01*
X91094286Y-99845238D01*
X90903810Y-99892857D01*
X90760952Y-99892857D01*
X90570476Y-99845238D01*
X90475238Y-99797619D01*
X90380000Y-99702381D01*
X90332381Y-99559523D01*
X90332381Y-99464285D01*
X90380000Y-99321428D01*
X90427619Y-99273809D01*
X90332381Y-98654762D02*
X90332381Y-98464285D01*
X90380000Y-98369047D01*
X90475238Y-98273809D01*
X90665714Y-98226190D01*
X90999048Y-98226190D01*
X91189524Y-98273809D01*
X91284762Y-98369047D01*
X91332381Y-98464285D01*
X91332381Y-98654762D01*
X91284762Y-98750000D01*
X91189524Y-98845238D01*
X90999048Y-98892857D01*
X90665714Y-98892857D01*
X90475238Y-98845238D01*
X90380000Y-98750000D01*
X90332381Y-98654762D01*
X91332381Y-97797619D02*
X90332381Y-97797619D01*
X91332381Y-97226190D01*
X90332381Y-97226190D01*
X91332381Y-96750000D02*
X90332381Y-96750000D01*
X91332381Y-96178571D01*
X90332381Y-96178571D01*
X91427619Y-95940476D02*
X91427619Y-95178571D01*
X90332381Y-94750000D02*
X90332381Y-94654761D01*
X90380000Y-94559523D01*
X90427619Y-94511904D01*
X90522857Y-94464285D01*
X90713333Y-94416666D01*
X90951429Y-94416666D01*
X91141905Y-94464285D01*
X91237143Y-94511904D01*
X91284762Y-94559523D01*
X91332381Y-94654761D01*
X91332381Y-94750000D01*
X91284762Y-94845238D01*
X91237143Y-94892857D01*
X91141905Y-94940476D01*
X90951429Y-94988095D01*
X90713333Y-94988095D01*
X90522857Y-94940476D01*
X90427619Y-94892857D01*
X90380000Y-94845238D01*
X90332381Y-94750000D01*
X91332381Y-93464285D02*
X91332381Y-94035714D01*
X91332381Y-93750000D02*
X90332381Y-93750000D01*
X90475238Y-93845238D01*
X90570476Y-93940476D01*
X90618095Y-94035714D01*
X90332381Y-93130952D02*
X91332381Y-92464285D01*
X90332381Y-92464285D02*
X91332381Y-93130952D01*
X90332381Y-91892857D02*
X90332381Y-91797618D01*
X90380000Y-91702380D01*
X90427619Y-91654761D01*
X90522857Y-91607142D01*
X90713333Y-91559523D01*
X90951429Y-91559523D01*
X91141905Y-91607142D01*
X91237143Y-91654761D01*
X91284762Y-91702380D01*
X91332381Y-91797618D01*
X91332381Y-91892857D01*
X91284762Y-91988095D01*
X91237143Y-92035714D01*
X91141905Y-92083333D01*
X90951429Y-92130952D01*
X90713333Y-92130952D01*
X90522857Y-92083333D01*
X90427619Y-92035714D01*
X90380000Y-91988095D01*
X90332381Y-91892857D01*
X90332381Y-91226190D02*
X90332381Y-90607142D01*
X90713333Y-90940476D01*
X90713333Y-90797618D01*
X90760952Y-90702380D01*
X90808571Y-90654761D01*
X90903810Y-90607142D01*
X91141905Y-90607142D01*
X91237143Y-90654761D01*
X91284762Y-90702380D01*
X91332381Y-90797618D01*
X91332381Y-91083333D01*
X91284762Y-91178571D01*
X91237143Y-91226190D01*
X70667524Y-89352381D02*
X70334190Y-88876190D01*
X70096095Y-89352381D02*
X70096095Y-88352381D01*
X70477048Y-88352381D01*
X70572286Y-88400000D01*
X70619905Y-88447619D01*
X70667524Y-88542857D01*
X70667524Y-88685714D01*
X70619905Y-88780952D01*
X70572286Y-88828571D01*
X70477048Y-88876190D01*
X70096095Y-88876190D01*
X70667524Y-104084381D02*
X70334190Y-103608190D01*
X70096095Y-104084381D02*
X70096095Y-103084381D01*
X70477048Y-103084381D01*
X70572286Y-103132000D01*
X70619905Y-103179619D01*
X70667524Y-103274857D01*
X70667524Y-103417714D01*
X70619905Y-103512952D01*
X70572286Y-103560571D01*
X70477048Y-103608190D01*
X70096095Y-103608190D01*
X74477524Y-69286381D02*
X74144190Y-68810190D01*
X73906095Y-69286381D02*
X73906095Y-68286381D01*
X74287048Y-68286381D01*
X74382286Y-68334000D01*
X74429905Y-68381619D01*
X74477524Y-68476857D01*
X74477524Y-68619714D01*
X74429905Y-68714952D01*
X74382286Y-68762571D01*
X74287048Y-68810190D01*
X73906095Y-68810190D01*
X105876381Y-90797047D02*
X105876381Y-91368476D01*
X105876381Y-91082762D02*
X104876381Y-91082762D01*
X105019238Y-91178000D01*
X105114476Y-91273238D01*
X105162095Y-91368476D01*
X105876381Y-90368476D02*
X104876381Y-90368476D01*
X105495429Y-90273238D02*
X105876381Y-89987523D01*
X105209714Y-89987523D02*
X105590667Y-90368476D01*
X105876381Y-96099238D02*
X105876381Y-96670667D01*
X105876381Y-96384953D02*
X104876381Y-96384953D01*
X105019238Y-96480191D01*
X105114476Y-96575429D01*
X105162095Y-96670667D01*
X104876381Y-95480191D02*
X104876381Y-95384952D01*
X104924000Y-95289714D01*
X104971619Y-95242095D01*
X105066857Y-95194476D01*
X105257333Y-95146857D01*
X105495429Y-95146857D01*
X105685905Y-95194476D01*
X105781143Y-95242095D01*
X105828762Y-95289714D01*
X105876381Y-95384952D01*
X105876381Y-95480191D01*
X105828762Y-95575429D01*
X105781143Y-95623048D01*
X105685905Y-95670667D01*
X105495429Y-95718286D01*
X105257333Y-95718286D01*
X105066857Y-95670667D01*
X104971619Y-95623048D01*
X104924000Y-95575429D01*
X104876381Y-95480191D01*
X105876381Y-94718286D02*
X104876381Y-94718286D01*
X105495429Y-94623048D02*
X105876381Y-94337333D01*
X105209714Y-94337333D02*
X105590667Y-94718286D01*
X112468381Y-77636666D02*
X112468381Y-78112857D01*
X112944571Y-78160476D01*
X112896952Y-78112857D01*
X112849333Y-78017619D01*
X112849333Y-77779523D01*
X112896952Y-77684285D01*
X112944571Y-77636666D01*
X113039810Y-77589047D01*
X113277905Y-77589047D01*
X113373143Y-77636666D01*
X113420762Y-77684285D01*
X113468381Y-77779523D01*
X113468381Y-78017619D01*
X113420762Y-78112857D01*
X113373143Y-78160476D01*
X113468381Y-77160476D02*
X112468381Y-77160476D01*
X113087429Y-77065238D02*
X113468381Y-76779523D01*
X112801714Y-76779523D02*
X113182667Y-77160476D01*
X75072381Y-86780476D02*
X75072381Y-87256667D01*
X74072381Y-87256667D01*
X75072381Y-86447143D02*
X74072381Y-86447143D01*
X74786667Y-86113809D01*
X74072381Y-85780476D01*
X75072381Y-85780476D01*
X74072381Y-85399524D02*
X74072381Y-84732857D01*
X75072381Y-85161429D01*
X74405714Y-83923333D02*
X75072381Y-83923333D01*
X74024762Y-84161429D02*
X74739048Y-84399524D01*
X74739048Y-83780476D01*
X75072381Y-82875714D02*
X75072381Y-83447143D01*
X75072381Y-83161429D02*
X74072381Y-83161429D01*
X74215238Y-83256667D01*
X74310476Y-83351905D01*
X74358095Y-83447143D01*
X89550381Y-86780476D02*
X89550381Y-87256667D01*
X88550381Y-87256667D01*
X89550381Y-86447143D02*
X88550381Y-86447143D01*
X89264667Y-86113809D01*
X88550381Y-85780476D01*
X89550381Y-85780476D01*
X88550381Y-85399524D02*
X88550381Y-84732857D01*
X89550381Y-85161429D01*
X88883714Y-83923333D02*
X89550381Y-83923333D01*
X88502762Y-84161429D02*
X89217048Y-84399524D01*
X89217048Y-83780476D01*
X89550381Y-82875714D02*
X89550381Y-83447143D01*
X89550381Y-83161429D02*
X88550381Y-83161429D01*
X88693238Y-83256667D01*
X88788476Y-83351905D01*
X88836095Y-83447143D01*
X102758381Y-86780476D02*
X102758381Y-87256667D01*
X101758381Y-87256667D01*
X102758381Y-86447143D02*
X101758381Y-86447143D01*
X102472667Y-86113809D01*
X101758381Y-85780476D01*
X102758381Y-85780476D01*
X101758381Y-85399524D02*
X101758381Y-84732857D01*
X102758381Y-85161429D01*
X102091714Y-83923333D02*
X102758381Y-83923333D01*
X101710762Y-84161429D02*
X102425048Y-84399524D01*
X102425048Y-83780476D01*
X102758381Y-82875714D02*
X102758381Y-83447143D01*
X102758381Y-83161429D02*
X101758381Y-83161429D01*
X101901238Y-83256667D01*
X101996476Y-83351905D01*
X102044095Y-83447143D01*
X119776381Y-87050285D02*
X119776381Y-87526476D01*
X118776381Y-87526476D01*
X119776381Y-86716952D02*
X118776381Y-86716952D01*
X119490667Y-86383618D01*
X118776381Y-86050285D01*
X119776381Y-86050285D01*
X118776381Y-85669333D02*
X118776381Y-85050285D01*
X119157333Y-85383619D01*
X119157333Y-85240761D01*
X119204952Y-85145523D01*
X119252571Y-85097904D01*
X119347810Y-85050285D01*
X119585905Y-85050285D01*
X119681143Y-85097904D01*
X119728762Y-85145523D01*
X119776381Y-85240761D01*
X119776381Y-85526476D01*
X119728762Y-85621714D01*
X119681143Y-85669333D01*
X119776381Y-84097904D02*
X119776381Y-84669333D01*
X119776381Y-84383619D02*
X118776381Y-84383619D01*
X118919238Y-84478857D01*
X119014476Y-84574095D01*
X119062095Y-84669333D01*
X119776381Y-83145523D02*
X119776381Y-83716952D01*
X119776381Y-83431238D02*
X118776381Y-83431238D01*
X118919238Y-83526476D01*
X119014476Y-83621714D01*
X119062095Y-83716952D01*
X119776381Y-82716952D02*
X118776381Y-82716952D01*
X119776381Y-82145523D01*
X118776381Y-82145523D01*
X83407619Y-64678381D02*
X83979048Y-64678381D01*
X83693333Y-65678381D02*
X83693333Y-64678381D01*
X84312381Y-65154571D02*
X84645715Y-65154571D01*
X84788572Y-65678381D02*
X84312381Y-65678381D01*
X84312381Y-64678381D01*
X84788572Y-64678381D01*
X85169524Y-65630762D02*
X85312381Y-65678381D01*
X85550477Y-65678381D01*
X85645715Y-65630762D01*
X85693334Y-65583143D01*
X85740953Y-65487905D01*
X85740953Y-65392667D01*
X85693334Y-65297429D01*
X85645715Y-65249810D01*
X85550477Y-65202190D01*
X85360000Y-65154571D01*
X85264762Y-65106952D01*
X85217143Y-65059333D01*
X85169524Y-64964095D01*
X85169524Y-64868857D01*
X85217143Y-64773619D01*
X85264762Y-64726000D01*
X85360000Y-64678381D01*
X85598096Y-64678381D01*
X85740953Y-64726000D01*
X86026667Y-64678381D02*
X86598096Y-64678381D01*
X86312381Y-65678381D02*
X86312381Y-64678381D01*
X86693334Y-65773619D02*
X87455239Y-65773619D01*
X88217144Y-65678381D02*
X87645715Y-65678381D01*
X87931429Y-65678381D02*
X87931429Y-64678381D01*
X87836191Y-64821238D01*
X87740953Y-64916476D01*
X87645715Y-64964095D01*
X88645715Y-65678381D02*
X88645715Y-64678381D01*
X89026668Y-64678381D01*
X89121906Y-64726000D01*
X89169525Y-64773619D01*
X89217144Y-64868857D01*
X89217144Y-65011714D01*
X89169525Y-65106952D01*
X89121906Y-65154571D01*
X89026668Y-65202190D01*
X88645715Y-65202190D01*
X84423524Y-70255143D02*
X84375905Y-70302762D01*
X84233048Y-70350381D01*
X84137810Y-70350381D01*
X83994952Y-70302762D01*
X83899714Y-70207524D01*
X83852095Y-70112286D01*
X83804476Y-69921810D01*
X83804476Y-69778952D01*
X83852095Y-69588476D01*
X83899714Y-69493238D01*
X83994952Y-69398000D01*
X84137810Y-69350381D01*
X84233048Y-69350381D01*
X84375905Y-69398000D01*
X84423524Y-69445619D01*
X106315143Y-98750381D02*
X105743714Y-98750381D01*
X106029428Y-98750381D02*
X106029428Y-97750381D01*
X105934190Y-97893238D01*
X105838952Y-97988476D01*
X105743714Y-98036095D01*
X106743714Y-98750381D02*
X106743714Y-97750381D01*
X107315143Y-98750381D01*
X107315143Y-97750381D01*
X108219905Y-98083714D02*
X108219905Y-98750381D01*
X107981809Y-97702762D02*
X107743714Y-98417048D01*
X108362762Y-98417048D01*
X109267524Y-98750381D02*
X108696095Y-98750381D01*
X108981809Y-98750381D02*
X108981809Y-97750381D01*
X108886571Y-97893238D01*
X108791333Y-97988476D01*
X108696095Y-98036095D01*
X110124667Y-98083714D02*
X110124667Y-98750381D01*
X109886571Y-97702762D02*
X109648476Y-98417048D01*
X110267524Y-98417048D01*
X110791333Y-98178952D02*
X110696095Y-98131333D01*
X110648476Y-98083714D01*
X110600857Y-97988476D01*
X110600857Y-97940857D01*
X110648476Y-97845619D01*
X110696095Y-97798000D01*
X110791333Y-97750381D01*
X110981810Y-97750381D01*
X111077048Y-97798000D01*
X111124667Y-97845619D01*
X111172286Y-97940857D01*
X111172286Y-97988476D01*
X111124667Y-98083714D01*
X111077048Y-98131333D01*
X110981810Y-98178952D01*
X110791333Y-98178952D01*
X110696095Y-98226571D01*
X110648476Y-98274190D01*
X110600857Y-98369429D01*
X110600857Y-98559905D01*
X110648476Y-98655143D01*
X110696095Y-98702762D01*
X110791333Y-98750381D01*
X110981810Y-98750381D01*
X111077048Y-98702762D01*
X111124667Y-98655143D01*
X111172286Y-98559905D01*
X111172286Y-98369429D01*
X111124667Y-98274190D01*
X111077048Y-98226571D01*
X110981810Y-98178952D01*
X106315143Y-88336381D02*
X105743714Y-88336381D01*
X106029428Y-88336381D02*
X106029428Y-87336381D01*
X105934190Y-87479238D01*
X105838952Y-87574476D01*
X105743714Y-87622095D01*
X106743714Y-88336381D02*
X106743714Y-87336381D01*
X107315143Y-88336381D01*
X107315143Y-87336381D01*
X108219905Y-87669714D02*
X108219905Y-88336381D01*
X107981809Y-87288762D02*
X107743714Y-88003048D01*
X108362762Y-88003048D01*
X109267524Y-88336381D02*
X108696095Y-88336381D01*
X108981809Y-88336381D02*
X108981809Y-87336381D01*
X108886571Y-87479238D01*
X108791333Y-87574476D01*
X108696095Y-87622095D01*
X110124667Y-87669714D02*
X110124667Y-88336381D01*
X109886571Y-87288762D02*
X109648476Y-88003048D01*
X110267524Y-88003048D01*
X110791333Y-87764952D02*
X110696095Y-87717333D01*
X110648476Y-87669714D01*
X110600857Y-87574476D01*
X110600857Y-87526857D01*
X110648476Y-87431619D01*
X110696095Y-87384000D01*
X110791333Y-87336381D01*
X110981810Y-87336381D01*
X111077048Y-87384000D01*
X111124667Y-87431619D01*
X111172286Y-87526857D01*
X111172286Y-87574476D01*
X111124667Y-87669714D01*
X111077048Y-87717333D01*
X110981810Y-87764952D01*
X110791333Y-87764952D01*
X110696095Y-87812571D01*
X110648476Y-87860190D01*
X110600857Y-87955429D01*
X110600857Y-88145905D01*
X110648476Y-88241143D01*
X110696095Y-88288762D01*
X110791333Y-88336381D01*
X110981810Y-88336381D01*
X111077048Y-88288762D01*
X111124667Y-88241143D01*
X111172286Y-88145905D01*
X111172286Y-87955429D01*
X111124667Y-87860190D01*
X111077048Y-87812571D01*
X110981810Y-87764952D01*
M02*
