M48
;DRILL file {KiCad 4.0.4+dfsg1-stable} date Fri Jan 20 23:08:35 2017
;FORMAT={-:-/ absolute / metric / decimal}
FMAT,2
METRIC,TZ
T1C0.500
T2C0.701
T3C0.813
T4C1.001
T5C1.016
%
G90
G05
M71
T1
X44.196Y-32.004
X44.196Y-54.61
X49.022Y-32.004
X50.038Y-45.466
X50.292Y-53.594
X52.07Y-35.306
X53.848Y-32.004
X57.15Y-53.594
X69.088Y-53.594
X88.392Y-33.782
X94.488Y-51.308
X108.204Y-46.99
X114.3Y-51.054
X117.348Y-40.132
X117.348Y-51.054
T2
X82.293Y-37.083
X82.293Y-47.243
X88.389Y-37.083
X88.389Y-47.243
T3
X64.516Y-43.688
X67.056Y-41.148
X69.596Y-43.688
T4
X64.008Y-36.068
X64.008Y-49.022
X69.088Y-36.068
X69.088Y-49.022
X81.28Y-42.164
X88.9Y-42.164
X98.806Y-34.036
X98.806Y-39.624
X98.806Y-46.736
X98.806Y-51.308
X103.886Y-34.036
X103.886Y-39.624
X103.886Y-46.736
X103.886Y-51.308
T5
X43.942Y-35.814
X43.942Y-38.354
X43.942Y-40.894
X43.942Y-43.434
X43.942Y-45.974
X43.942Y-48.514
X43.942Y-51.054
T0
M30
