G04 #@! TF.FileFunction,Legend,Top*
%FSLAX46Y46*%
G04 Gerber Fmt 4.6, Leading zero omitted, Abs format (unit mm)*
G04 Created by KiCad (PCBNEW 4.0.4+dfsg1-stable) date Sun Jan 22 20:41:02 2017*
%MOMM*%
%LPD*%
G01*
G04 APERTURE LIST*
%ADD10C,0.100000*%
%ADD11C,0.300000*%
%ADD12C,0.150000*%
G04 APERTURE END LIST*
D10*
D11*
X46362857Y-50232571D02*
X46505714Y-50232571D01*
X46648571Y-50304000D01*
X46720000Y-50375429D01*
X46791429Y-50518286D01*
X46862857Y-50804000D01*
X46862857Y-51161143D01*
X46791429Y-51446857D01*
X46720000Y-51589714D01*
X46648571Y-51661143D01*
X46505714Y-51732571D01*
X46362857Y-51732571D01*
X46220000Y-51661143D01*
X46148571Y-51589714D01*
X46077143Y-51446857D01*
X46005714Y-51161143D01*
X46005714Y-50804000D01*
X46077143Y-50518286D01*
X46148571Y-50375429D01*
X46220000Y-50304000D01*
X46362857Y-50232571D01*
X47291428Y-50232571D02*
X47791428Y-51732571D01*
X48291428Y-50232571D01*
X46362857Y-47692571D02*
X46505714Y-47692571D01*
X46648571Y-47764000D01*
X46720000Y-47835429D01*
X46791429Y-47978286D01*
X46862857Y-48264000D01*
X46862857Y-48621143D01*
X46791429Y-48906857D01*
X46720000Y-49049714D01*
X46648571Y-49121143D01*
X46505714Y-49192571D01*
X46362857Y-49192571D01*
X46220000Y-49121143D01*
X46148571Y-49049714D01*
X46077143Y-48906857D01*
X46005714Y-48621143D01*
X46005714Y-48264000D01*
X46077143Y-47978286D01*
X46148571Y-47835429D01*
X46220000Y-47764000D01*
X46362857Y-47692571D01*
X47291428Y-47692571D02*
X47791428Y-49192571D01*
X48291428Y-47692571D01*
X46934286Y-46652571D02*
X46434286Y-45938286D01*
X46077143Y-46652571D02*
X46077143Y-45152571D01*
X46648571Y-45152571D01*
X46791429Y-45224000D01*
X46862857Y-45295429D01*
X46934286Y-45438286D01*
X46934286Y-45652571D01*
X46862857Y-45795429D01*
X46791429Y-45866857D01*
X46648571Y-45938286D01*
X46077143Y-45938286D01*
X47577143Y-45866857D02*
X48077143Y-45866857D01*
X48291429Y-46652571D02*
X47577143Y-46652571D01*
X47577143Y-45152571D01*
X48291429Y-45152571D01*
X49434286Y-45866857D02*
X48934286Y-45866857D01*
X48934286Y-46652571D02*
X48934286Y-45152571D01*
X49648572Y-45152571D01*
X46077143Y-44112571D02*
X46077143Y-42612571D01*
X46077143Y-43326857D02*
X46934286Y-43326857D01*
X46934286Y-44112571D02*
X46934286Y-42612571D01*
X47648572Y-43326857D02*
X48148572Y-43326857D01*
X48362858Y-44112571D02*
X47648572Y-44112571D01*
X47648572Y-42612571D01*
X48362858Y-42612571D01*
X48934286Y-43684000D02*
X49648572Y-43684000D01*
X48791429Y-44112571D02*
X49291429Y-42612571D01*
X49791429Y-44112571D01*
X50077143Y-42612571D02*
X50934286Y-42612571D01*
X50505715Y-44112571D02*
X50505715Y-42612571D01*
X51434286Y-43541143D02*
X52577143Y-43541143D01*
X53577143Y-42612571D02*
X53720000Y-42612571D01*
X53862857Y-42684000D01*
X53934286Y-42755429D01*
X54005715Y-42898286D01*
X54077143Y-43184000D01*
X54077143Y-43541143D01*
X54005715Y-43826857D01*
X53934286Y-43969714D01*
X53862857Y-44041143D01*
X53720000Y-44112571D01*
X53577143Y-44112571D01*
X53434286Y-44041143D01*
X53362857Y-43969714D01*
X53291429Y-43826857D01*
X53220000Y-43541143D01*
X53220000Y-43184000D01*
X53291429Y-42898286D01*
X53362857Y-42755429D01*
X53434286Y-42684000D01*
X53577143Y-42612571D01*
X54505714Y-42612571D02*
X55005714Y-44112571D01*
X55505714Y-42612571D01*
X46077143Y-41001143D02*
X47220000Y-41001143D01*
X47720000Y-40072571D02*
X48220000Y-41572571D01*
X48720000Y-40072571D01*
X49220000Y-40786857D02*
X49720000Y-40786857D01*
X49934286Y-41572571D02*
X49220000Y-41572571D01*
X49220000Y-40072571D01*
X49934286Y-40072571D01*
X46362857Y-37532571D02*
X46505714Y-37532571D01*
X46648571Y-37604000D01*
X46720000Y-37675429D01*
X46791429Y-37818286D01*
X46862857Y-38104000D01*
X46862857Y-38461143D01*
X46791429Y-38746857D01*
X46720000Y-38889714D01*
X46648571Y-38961143D01*
X46505714Y-39032571D01*
X46362857Y-39032571D01*
X46220000Y-38961143D01*
X46148571Y-38889714D01*
X46077143Y-38746857D01*
X46005714Y-38461143D01*
X46005714Y-38104000D01*
X46077143Y-37818286D01*
X46148571Y-37675429D01*
X46220000Y-37604000D01*
X46362857Y-37532571D01*
X47291428Y-37532571D02*
X47791428Y-39032571D01*
X48291428Y-37532571D01*
X46077143Y-35921143D02*
X47220000Y-35921143D01*
X46648571Y-36492571D02*
X46648571Y-35349714D01*
X47720000Y-34992571D02*
X48220000Y-36492571D01*
X48720000Y-34992571D01*
X49220000Y-35706857D02*
X49720000Y-35706857D01*
X49934286Y-36492571D02*
X49220000Y-36492571D01*
X49220000Y-34992571D01*
X49934286Y-34992571D01*
X46934286Y-86530571D02*
X46434286Y-85816286D01*
X46077143Y-86530571D02*
X46077143Y-85030571D01*
X46648571Y-85030571D01*
X46791429Y-85102000D01*
X46862857Y-85173429D01*
X46934286Y-85316286D01*
X46934286Y-85530571D01*
X46862857Y-85673429D01*
X46791429Y-85744857D01*
X46648571Y-85816286D01*
X46077143Y-85816286D01*
X47577143Y-85744857D02*
X48077143Y-85744857D01*
X48291429Y-86530571D02*
X47577143Y-86530571D01*
X47577143Y-85030571D01*
X48291429Y-85030571D01*
X49434286Y-85744857D02*
X48934286Y-85744857D01*
X48934286Y-86530571D02*
X48934286Y-85030571D01*
X49648572Y-85030571D01*
X50220000Y-85959143D02*
X51362857Y-85959143D01*
X52934286Y-86387714D02*
X52862857Y-86459143D01*
X52648571Y-86530571D01*
X52505714Y-86530571D01*
X52291429Y-86459143D01*
X52148571Y-86316286D01*
X52077143Y-86173429D01*
X52005714Y-85887714D01*
X52005714Y-85673429D01*
X52077143Y-85387714D01*
X52148571Y-85244857D01*
X52291429Y-85102000D01*
X52505714Y-85030571D01*
X52648571Y-85030571D01*
X52862857Y-85102000D01*
X52934286Y-85173429D01*
X53362857Y-85030571D02*
X54220000Y-85030571D01*
X53791429Y-86530571D02*
X53791429Y-85030571D01*
X55434286Y-86530571D02*
X54720000Y-86530571D01*
X54720000Y-85030571D01*
X46934286Y-83990571D02*
X46434286Y-83276286D01*
X46077143Y-83990571D02*
X46077143Y-82490571D01*
X46648571Y-82490571D01*
X46791429Y-82562000D01*
X46862857Y-82633429D01*
X46934286Y-82776286D01*
X46934286Y-82990571D01*
X46862857Y-83133429D01*
X46791429Y-83204857D01*
X46648571Y-83276286D01*
X46077143Y-83276286D01*
X47577143Y-83204857D02*
X48077143Y-83204857D01*
X48291429Y-83990571D02*
X47577143Y-83990571D01*
X47577143Y-82490571D01*
X48291429Y-82490571D01*
X49434286Y-83204857D02*
X48934286Y-83204857D01*
X48934286Y-83990571D02*
X48934286Y-82490571D01*
X49648572Y-82490571D01*
X50220000Y-83419143D02*
X51362857Y-83419143D01*
X50791428Y-83990571D02*
X50791428Y-82847714D01*
X52934286Y-83847714D02*
X52862857Y-83919143D01*
X52648571Y-83990571D01*
X52505714Y-83990571D01*
X52291429Y-83919143D01*
X52148571Y-83776286D01*
X52077143Y-83633429D01*
X52005714Y-83347714D01*
X52005714Y-83133429D01*
X52077143Y-82847714D01*
X52148571Y-82704857D01*
X52291429Y-82562000D01*
X52505714Y-82490571D01*
X52648571Y-82490571D01*
X52862857Y-82562000D01*
X52934286Y-82633429D01*
X53362857Y-82490571D02*
X54220000Y-82490571D01*
X53791429Y-83990571D02*
X53791429Y-82490571D01*
X55434286Y-83990571D02*
X54720000Y-83990571D01*
X54720000Y-82490571D01*
X46362857Y-97730571D02*
X46505714Y-97730571D01*
X46648571Y-97802000D01*
X46720000Y-97873429D01*
X46791429Y-98016286D01*
X46862857Y-98302000D01*
X46862857Y-98659143D01*
X46791429Y-98944857D01*
X46720000Y-99087714D01*
X46648571Y-99159143D01*
X46505714Y-99230571D01*
X46362857Y-99230571D01*
X46220000Y-99159143D01*
X46148571Y-99087714D01*
X46077143Y-98944857D01*
X46005714Y-98659143D01*
X46005714Y-98302000D01*
X46077143Y-98016286D01*
X46148571Y-97873429D01*
X46220000Y-97802000D01*
X46362857Y-97730571D01*
X47291428Y-97730571D02*
X47791428Y-99230571D01*
X48291428Y-97730571D01*
X46362857Y-95190571D02*
X46505714Y-95190571D01*
X46648571Y-95262000D01*
X46720000Y-95333429D01*
X46791429Y-95476286D01*
X46862857Y-95762000D01*
X46862857Y-96119143D01*
X46791429Y-96404857D01*
X46720000Y-96547714D01*
X46648571Y-96619143D01*
X46505714Y-96690571D01*
X46362857Y-96690571D01*
X46220000Y-96619143D01*
X46148571Y-96547714D01*
X46077143Y-96404857D01*
X46005714Y-96119143D01*
X46005714Y-95762000D01*
X46077143Y-95476286D01*
X46148571Y-95333429D01*
X46220000Y-95262000D01*
X46362857Y-95190571D01*
X47291428Y-95190571D02*
X47791428Y-96690571D01*
X48291428Y-95190571D01*
X45862857Y-92650571D02*
X46720000Y-92650571D01*
X46291429Y-94150571D02*
X46291429Y-92650571D01*
X48077143Y-94150571D02*
X47577143Y-93436286D01*
X47220000Y-94150571D02*
X47220000Y-92650571D01*
X47791428Y-92650571D01*
X47934286Y-92722000D01*
X48005714Y-92793429D01*
X48077143Y-92936286D01*
X48077143Y-93150571D01*
X48005714Y-93293429D01*
X47934286Y-93364857D01*
X47791428Y-93436286D01*
X47220000Y-93436286D01*
X48720000Y-94150571D02*
X48720000Y-92650571D01*
X50220000Y-92722000D02*
X50077143Y-92650571D01*
X49862857Y-92650571D01*
X49648572Y-92722000D01*
X49505714Y-92864857D01*
X49434286Y-93007714D01*
X49362857Y-93293429D01*
X49362857Y-93507714D01*
X49434286Y-93793429D01*
X49505714Y-93936286D01*
X49648572Y-94079143D01*
X49862857Y-94150571D01*
X50005714Y-94150571D01*
X50220000Y-94079143D01*
X50291429Y-94007714D01*
X50291429Y-93507714D01*
X50005714Y-93507714D01*
X51720000Y-92722000D02*
X51577143Y-92650571D01*
X51362857Y-92650571D01*
X51148572Y-92722000D01*
X51005714Y-92864857D01*
X50934286Y-93007714D01*
X50862857Y-93293429D01*
X50862857Y-93507714D01*
X50934286Y-93793429D01*
X51005714Y-93936286D01*
X51148572Y-94079143D01*
X51362857Y-94150571D01*
X51505714Y-94150571D01*
X51720000Y-94079143D01*
X51791429Y-94007714D01*
X51791429Y-93507714D01*
X51505714Y-93507714D01*
X52434286Y-93364857D02*
X52934286Y-93364857D01*
X53148572Y-94150571D02*
X52434286Y-94150571D01*
X52434286Y-92650571D01*
X53148572Y-92650571D01*
X54648572Y-94150571D02*
X54148572Y-93436286D01*
X53791429Y-94150571D02*
X53791429Y-92650571D01*
X54362857Y-92650571D01*
X54505715Y-92722000D01*
X54577143Y-92793429D01*
X54648572Y-92936286D01*
X54648572Y-93150571D01*
X54577143Y-93293429D01*
X54505715Y-93364857D01*
X54362857Y-93436286D01*
X53791429Y-93436286D01*
X46934286Y-91610571D02*
X46434286Y-90896286D01*
X46077143Y-91610571D02*
X46077143Y-90110571D01*
X46648571Y-90110571D01*
X46791429Y-90182000D01*
X46862857Y-90253429D01*
X46934286Y-90396286D01*
X46934286Y-90610571D01*
X46862857Y-90753429D01*
X46791429Y-90824857D01*
X46648571Y-90896286D01*
X46077143Y-90896286D01*
X47577143Y-90824857D02*
X48077143Y-90824857D01*
X48291429Y-91610571D02*
X47577143Y-91610571D01*
X47577143Y-90110571D01*
X48291429Y-90110571D01*
X48862857Y-91539143D02*
X49077143Y-91610571D01*
X49434286Y-91610571D01*
X49577143Y-91539143D01*
X49648572Y-91467714D01*
X49720000Y-91324857D01*
X49720000Y-91182000D01*
X49648572Y-91039143D01*
X49577143Y-90967714D01*
X49434286Y-90896286D01*
X49148572Y-90824857D01*
X49005714Y-90753429D01*
X48934286Y-90682000D01*
X48862857Y-90539143D01*
X48862857Y-90396286D01*
X48934286Y-90253429D01*
X49005714Y-90182000D01*
X49148572Y-90110571D01*
X49505714Y-90110571D01*
X49720000Y-90182000D01*
X50362857Y-90824857D02*
X50862857Y-90824857D01*
X51077143Y-91610571D02*
X50362857Y-91610571D01*
X50362857Y-90110571D01*
X51077143Y-90110571D01*
X51505714Y-90110571D02*
X52362857Y-90110571D01*
X51934286Y-91610571D02*
X51934286Y-90110571D01*
X46077143Y-89070571D02*
X46077143Y-87570571D01*
X46791429Y-89070571D02*
X46791429Y-87570571D01*
X47648572Y-89070571D01*
X47648572Y-87570571D01*
X48362858Y-88499143D02*
X49505715Y-88499143D01*
X51077144Y-88927714D02*
X51005715Y-88999143D01*
X50791429Y-89070571D01*
X50648572Y-89070571D01*
X50434287Y-88999143D01*
X50291429Y-88856286D01*
X50220001Y-88713429D01*
X50148572Y-88427714D01*
X50148572Y-88213429D01*
X50220001Y-87927714D01*
X50291429Y-87784857D01*
X50434287Y-87642000D01*
X50648572Y-87570571D01*
X50791429Y-87570571D01*
X51005715Y-87642000D01*
X51077144Y-87713429D01*
X51505715Y-87570571D02*
X52362858Y-87570571D01*
X51934287Y-89070571D02*
X51934287Y-87570571D01*
X53577144Y-89070571D02*
X52862858Y-89070571D01*
X52862858Y-87570571D01*
X45934286Y-79950571D02*
X46862857Y-79950571D01*
X46362857Y-80522000D01*
X46577143Y-80522000D01*
X46720000Y-80593429D01*
X46791429Y-80664857D01*
X46862857Y-80807714D01*
X46862857Y-81164857D01*
X46791429Y-81307714D01*
X46720000Y-81379143D01*
X46577143Y-81450571D01*
X46148571Y-81450571D01*
X46005714Y-81379143D01*
X45934286Y-81307714D01*
X47505714Y-81307714D02*
X47577142Y-81379143D01*
X47505714Y-81450571D01*
X47434285Y-81379143D01*
X47505714Y-81307714D01*
X47505714Y-81450571D01*
X48077143Y-79950571D02*
X49005714Y-79950571D01*
X48505714Y-80522000D01*
X48720000Y-80522000D01*
X48862857Y-80593429D01*
X48934286Y-80664857D01*
X49005714Y-80807714D01*
X49005714Y-81164857D01*
X48934286Y-81307714D01*
X48862857Y-81379143D01*
X48720000Y-81450571D01*
X48291428Y-81450571D01*
X48148571Y-81379143D01*
X48077143Y-81307714D01*
X46362857Y-77410571D02*
X46505714Y-77410571D01*
X46648571Y-77482000D01*
X46720000Y-77553429D01*
X46791429Y-77696286D01*
X46862857Y-77982000D01*
X46862857Y-78339143D01*
X46791429Y-78624857D01*
X46720000Y-78767714D01*
X46648571Y-78839143D01*
X46505714Y-78910571D01*
X46362857Y-78910571D01*
X46220000Y-78839143D01*
X46148571Y-78767714D01*
X46077143Y-78624857D01*
X46005714Y-78339143D01*
X46005714Y-77982000D01*
X46077143Y-77696286D01*
X46148571Y-77553429D01*
X46220000Y-77482000D01*
X46362857Y-77410571D01*
X47291428Y-77410571D02*
X47791428Y-78910571D01*
X48291428Y-77410571D01*
X46077143Y-76370571D02*
X46077143Y-74870571D01*
X46791429Y-76370571D02*
X46791429Y-74870571D01*
X47648572Y-76370571D01*
X47648572Y-74870571D01*
X46934286Y-73830571D02*
X46434286Y-73116286D01*
X46077143Y-73830571D02*
X46077143Y-72330571D01*
X46648571Y-72330571D01*
X46791429Y-72402000D01*
X46862857Y-72473429D01*
X46934286Y-72616286D01*
X46934286Y-72830571D01*
X46862857Y-72973429D01*
X46791429Y-73044857D01*
X46648571Y-73116286D01*
X46077143Y-73116286D01*
X47577143Y-73044857D02*
X48077143Y-73044857D01*
X48291429Y-73830571D02*
X47577143Y-73830571D01*
X47577143Y-72330571D01*
X48291429Y-72330571D01*
X49434286Y-73044857D02*
X48934286Y-73044857D01*
X48934286Y-73830571D02*
X48934286Y-72330571D01*
X49648572Y-72330571D01*
X46362857Y-69790571D02*
X46505714Y-69790571D01*
X46648571Y-69862000D01*
X46720000Y-69933429D01*
X46791429Y-70076286D01*
X46862857Y-70362000D01*
X46862857Y-70719143D01*
X46791429Y-71004857D01*
X46720000Y-71147714D01*
X46648571Y-71219143D01*
X46505714Y-71290571D01*
X46362857Y-71290571D01*
X46220000Y-71219143D01*
X46148571Y-71147714D01*
X46077143Y-71004857D01*
X46005714Y-70719143D01*
X46005714Y-70362000D01*
X46077143Y-70076286D01*
X46148571Y-69933429D01*
X46220000Y-69862000D01*
X46362857Y-69790571D01*
X47291428Y-69790571D02*
X47791428Y-71290571D01*
X48291428Y-69790571D01*
X46077143Y-68179143D02*
X47220000Y-68179143D01*
X47720000Y-67250571D02*
X48220000Y-68750571D01*
X48720000Y-67250571D01*
X49220000Y-67964857D02*
X49720000Y-67964857D01*
X49934286Y-68750571D02*
X49220000Y-68750571D01*
X49220000Y-67250571D01*
X49934286Y-67250571D01*
X46362857Y-64710571D02*
X46505714Y-64710571D01*
X46648571Y-64782000D01*
X46720000Y-64853429D01*
X46791429Y-64996286D01*
X46862857Y-65282000D01*
X46862857Y-65639143D01*
X46791429Y-65924857D01*
X46720000Y-66067714D01*
X46648571Y-66139143D01*
X46505714Y-66210571D01*
X46362857Y-66210571D01*
X46220000Y-66139143D01*
X46148571Y-66067714D01*
X46077143Y-65924857D01*
X46005714Y-65639143D01*
X46005714Y-65282000D01*
X46077143Y-64996286D01*
X46148571Y-64853429D01*
X46220000Y-64782000D01*
X46362857Y-64710571D01*
X47291428Y-64710571D02*
X47791428Y-66210571D01*
X48291428Y-64710571D01*
X46077143Y-62591143D02*
X47220000Y-62591143D01*
X46648571Y-63162571D02*
X46648571Y-62019714D01*
X47720000Y-61662571D02*
X48220000Y-63162571D01*
X48720000Y-61662571D01*
X49220000Y-62376857D02*
X49720000Y-62376857D01*
X49934286Y-63162571D02*
X49220000Y-63162571D01*
X49220000Y-61662571D01*
X49934286Y-61662571D01*
X110323715Y-66996571D02*
X110823715Y-68496571D01*
X111323715Y-66996571D01*
X111823715Y-67925143D02*
X112966572Y-67925143D01*
X113966572Y-66996571D02*
X114109429Y-66996571D01*
X114252286Y-67068000D01*
X114323715Y-67139429D01*
X114395144Y-67282286D01*
X114466572Y-67568000D01*
X114466572Y-67925143D01*
X114395144Y-68210857D01*
X114323715Y-68353714D01*
X114252286Y-68425143D01*
X114109429Y-68496571D01*
X113966572Y-68496571D01*
X113823715Y-68425143D01*
X113752286Y-68353714D01*
X113680858Y-68210857D01*
X113609429Y-67925143D01*
X113609429Y-67568000D01*
X113680858Y-67282286D01*
X113752286Y-67139429D01*
X113823715Y-67068000D01*
X113966572Y-66996571D01*
X115109429Y-68353714D02*
X115180857Y-68425143D01*
X115109429Y-68496571D01*
X115038000Y-68425143D01*
X115109429Y-68353714D01*
X115109429Y-68496571D01*
X115752286Y-67139429D02*
X115823715Y-67068000D01*
X115966572Y-66996571D01*
X116323715Y-66996571D01*
X116466572Y-67068000D01*
X116538001Y-67139429D01*
X116609429Y-67282286D01*
X116609429Y-67425143D01*
X116538001Y-67639429D01*
X115680858Y-68496571D01*
X116609429Y-68496571D01*
D12*
X61717000Y-83015000D02*
X61692000Y-83015000D01*
X61717000Y-87165000D02*
X61612000Y-87165000D01*
X51567000Y-87165000D02*
X51672000Y-87165000D01*
X51567000Y-83015000D02*
X51672000Y-83015000D01*
X61717000Y-83015000D02*
X61717000Y-87165000D01*
X51567000Y-83015000D02*
X51567000Y-87165000D01*
X61692000Y-83015000D02*
X61692000Y-81640000D01*
X58023760Y-34006840D02*
X58023760Y-34055100D01*
X58724800Y-36805820D02*
X58023760Y-36805820D01*
X58023760Y-36805820D02*
X58023760Y-36556900D01*
X58023760Y-34006840D02*
X58023760Y-33806180D01*
X58023760Y-33806180D02*
X58724800Y-33806180D01*
X59166000Y-41139000D02*
X57166000Y-41139000D01*
X57166000Y-43189000D02*
X59166000Y-43189000D01*
X132826000Y-50029000D02*
X130826000Y-50029000D01*
X130826000Y-52079000D02*
X132826000Y-52079000D01*
X53095000Y-36306000D02*
X53095000Y-34306000D01*
X51045000Y-34306000D02*
X51045000Y-36306000D01*
X63491000Y-47514000D02*
X63491000Y-49514000D01*
X65541000Y-49514000D02*
X65541000Y-47514000D01*
X134611000Y-43958000D02*
X134611000Y-45958000D01*
X136661000Y-45958000D02*
X136661000Y-43958000D01*
X57166000Y-37787000D02*
X59166000Y-37787000D01*
X59166000Y-39937000D02*
X57166000Y-39937000D01*
X63559000Y-36338000D02*
X63559000Y-38338000D01*
X61409000Y-38338000D02*
X61409000Y-36338000D01*
X56353000Y-50335000D02*
X56403000Y-50335000D01*
X56353000Y-46185000D02*
X56498000Y-46185000D01*
X61503000Y-46185000D02*
X61358000Y-46185000D01*
X61503000Y-50335000D02*
X61358000Y-50335000D01*
X56353000Y-50335000D02*
X56353000Y-46185000D01*
X61503000Y-50335000D02*
X61503000Y-46185000D01*
X56403000Y-50335000D02*
X56403000Y-51735000D01*
X128235000Y-46525000D02*
X128285000Y-46525000D01*
X128235000Y-42375000D02*
X128380000Y-42375000D01*
X133385000Y-42375000D02*
X133240000Y-42375000D01*
X133385000Y-46525000D02*
X133240000Y-46525000D01*
X128235000Y-46525000D02*
X128235000Y-42375000D01*
X133385000Y-46525000D02*
X133385000Y-42375000D01*
X128285000Y-46525000D02*
X128285000Y-47925000D01*
X45212000Y-37084000D02*
X45212000Y-52324000D01*
X45212000Y-52324000D02*
X42672000Y-52324000D01*
X42672000Y-52324000D02*
X42672000Y-37084000D01*
X45492000Y-34264000D02*
X45492000Y-35814000D01*
X45212000Y-37084000D02*
X42672000Y-37084000D01*
X42392000Y-35814000D02*
X42392000Y-34264000D01*
X42392000Y-34264000D02*
X45492000Y-34264000D01*
X129905760Y-35022840D02*
X129905760Y-35071100D01*
X130606800Y-37821820D02*
X129905760Y-37821820D01*
X129905760Y-37821820D02*
X129905760Y-37572900D01*
X129905760Y-35022840D02*
X129905760Y-34822180D01*
X129905760Y-34822180D02*
X130606800Y-34822180D01*
X67056000Y-44323000D02*
X66040000Y-44323000D01*
X72136000Y-44323000D02*
X69596000Y-44323000D01*
X75692000Y-44323000D02*
X74676000Y-44323000D01*
X67310000Y-40386000D02*
X67310000Y-41656000D01*
X68097400Y-41135300D02*
X68059300Y-40881300D01*
X68059300Y-40881300D02*
X67881500Y-40601900D01*
X67881500Y-40601900D02*
X67564000Y-40386000D01*
X67564000Y-40386000D02*
X67119500Y-40373300D01*
X67119500Y-40373300D02*
X66763900Y-40576500D01*
X66763900Y-40576500D02*
X66586100Y-40868600D01*
X66586100Y-40868600D02*
X66535300Y-41186100D01*
X66535300Y-41186100D02*
X66636900Y-41592500D01*
X66636900Y-41592500D02*
X66979800Y-41846500D01*
X66979800Y-41846500D02*
X67157600Y-41935400D01*
X66040000Y-41148000D02*
X66040000Y-39878000D01*
X66040000Y-39878000D02*
X75692000Y-39878000D01*
X75692000Y-39878000D02*
X75692000Y-44958000D01*
X66040000Y-44958000D02*
X66040000Y-42418000D01*
X66040000Y-42418000D02*
X66040000Y-41148000D01*
X71882000Y-38100000D02*
X71882000Y-36957000D01*
X68834000Y-38100000D02*
X68834000Y-36957000D01*
X65024000Y-36957000D02*
X65024000Y-33274000D01*
X65024000Y-33274000D02*
X75692000Y-33274000D01*
X75692000Y-33274000D02*
X75692000Y-36957000D01*
X65024000Y-38100000D02*
X65024000Y-36957000D01*
X65024000Y-36957000D02*
X75692000Y-36957000D01*
X75692000Y-36957000D02*
X75692000Y-38100000D01*
X70358000Y-38100000D02*
X75692000Y-38100000D01*
X70358000Y-38100000D02*
X65024000Y-38100000D01*
X68834000Y-45974000D02*
X68834000Y-47117000D01*
X71882000Y-45974000D02*
X71882000Y-47117000D01*
X75692000Y-47117000D02*
X75692000Y-50800000D01*
X75692000Y-50800000D02*
X65024000Y-50800000D01*
X65024000Y-50800000D02*
X65024000Y-47117000D01*
X75692000Y-45974000D02*
X75692000Y-47117000D01*
X75692000Y-47117000D02*
X65024000Y-47117000D01*
X65024000Y-47117000D02*
X65024000Y-45974000D01*
X70358000Y-45974000D02*
X65024000Y-45974000D01*
X70358000Y-45974000D02*
X75692000Y-45974000D01*
X121412000Y-37084000D02*
X121412000Y-35941000D01*
X118364000Y-37084000D02*
X118364000Y-35941000D01*
X114554000Y-35941000D02*
X114554000Y-32258000D01*
X114554000Y-32258000D02*
X125222000Y-32258000D01*
X125222000Y-32258000D02*
X125222000Y-35941000D01*
X114554000Y-37084000D02*
X114554000Y-35941000D01*
X114554000Y-35941000D02*
X125222000Y-35941000D01*
X125222000Y-35941000D02*
X125222000Y-37084000D01*
X119888000Y-37084000D02*
X125222000Y-37084000D01*
X119888000Y-37084000D02*
X114554000Y-37084000D01*
X121412000Y-42672000D02*
X121412000Y-41529000D01*
X118364000Y-42672000D02*
X118364000Y-41529000D01*
X114554000Y-41529000D02*
X114554000Y-37846000D01*
X114554000Y-37846000D02*
X125222000Y-37846000D01*
X125222000Y-37846000D02*
X125222000Y-41529000D01*
X114554000Y-42672000D02*
X114554000Y-41529000D01*
X114554000Y-41529000D02*
X125222000Y-41529000D01*
X125222000Y-41529000D02*
X125222000Y-42672000D01*
X119888000Y-42672000D02*
X125222000Y-42672000D01*
X119888000Y-42672000D02*
X114554000Y-42672000D01*
X121412000Y-54356000D02*
X121412000Y-53213000D01*
X118364000Y-54356000D02*
X118364000Y-53213000D01*
X114554000Y-53213000D02*
X114554000Y-49530000D01*
X114554000Y-49530000D02*
X125222000Y-49530000D01*
X125222000Y-49530000D02*
X125222000Y-53213000D01*
X114554000Y-54356000D02*
X114554000Y-53213000D01*
X114554000Y-53213000D02*
X125222000Y-53213000D01*
X125222000Y-53213000D02*
X125222000Y-54356000D01*
X119888000Y-54356000D02*
X125222000Y-54356000D01*
X119888000Y-54356000D02*
X114554000Y-54356000D01*
X53907000Y-40656000D02*
X53907000Y-42656000D01*
X51757000Y-42656000D02*
X51757000Y-40656000D01*
X115570000Y-47879000D02*
X114554000Y-47879000D01*
X120650000Y-47879000D02*
X118110000Y-47879000D01*
X124206000Y-47879000D02*
X123190000Y-47879000D01*
X115824000Y-43942000D02*
X115824000Y-45212000D01*
X116611400Y-44691300D02*
X116573300Y-44437300D01*
X116573300Y-44437300D02*
X116395500Y-44157900D01*
X116395500Y-44157900D02*
X116078000Y-43942000D01*
X116078000Y-43942000D02*
X115633500Y-43929300D01*
X115633500Y-43929300D02*
X115277900Y-44132500D01*
X115277900Y-44132500D02*
X115100100Y-44424600D01*
X115100100Y-44424600D02*
X115049300Y-44742100D01*
X115049300Y-44742100D02*
X115150900Y-45148500D01*
X115150900Y-45148500D02*
X115493800Y-45402500D01*
X115493800Y-45402500D02*
X115671600Y-45491400D01*
X114554000Y-44704000D02*
X114554000Y-43434000D01*
X114554000Y-43434000D02*
X124206000Y-43434000D01*
X124206000Y-43434000D02*
X124206000Y-48514000D01*
X114554000Y-48514000D02*
X114554000Y-45974000D01*
X114554000Y-45974000D02*
X114554000Y-44704000D01*
X98250500Y-45822500D02*
X97900500Y-46172500D01*
X97900500Y-46172500D02*
X97400500Y-45597500D01*
X98250500Y-45822500D02*
X98625500Y-45447500D01*
X98625500Y-45447500D02*
X98075500Y-44922500D01*
X98625500Y-41947500D02*
G75*
G03X98625500Y-41947500I-4250000J0D01*
G01*
X99075500Y-41947500D02*
G75*
G03X99075500Y-41947500I-4700000J0D01*
G01*
X55889000Y-36306000D02*
X55889000Y-34306000D01*
X53839000Y-34306000D02*
X53839000Y-36306000D01*
X53077000Y-47514000D02*
X53077000Y-49514000D01*
X55127000Y-49514000D02*
X55127000Y-47514000D01*
X127263000Y-45958000D02*
X127263000Y-43958000D01*
X125213000Y-43958000D02*
X125213000Y-45958000D01*
X52587000Y-67548000D02*
X52587000Y-65548000D01*
X50537000Y-65548000D02*
X50537000Y-67548000D01*
X56125000Y-76978000D02*
X56125000Y-78978000D01*
X58175000Y-78978000D02*
X58175000Y-76978000D01*
X81543000Y-86090000D02*
X81543000Y-84090000D01*
X79493000Y-84090000D02*
X79493000Y-86090000D01*
X89399000Y-84090000D02*
X89399000Y-86090000D01*
X91449000Y-86090000D02*
X91449000Y-84090000D01*
X95259000Y-86090000D02*
X95259000Y-84090000D01*
X93209000Y-84090000D02*
X93209000Y-86090000D01*
X102607000Y-84090000D02*
X102607000Y-86090000D01*
X104657000Y-86090000D02*
X104657000Y-84090000D01*
X112277000Y-85836000D02*
X112277000Y-83836000D01*
X110227000Y-83836000D02*
X110227000Y-85836000D01*
X119371000Y-83836000D02*
X119371000Y-85836000D01*
X121421000Y-85836000D02*
X121421000Y-83836000D01*
X67065000Y-85836000D02*
X67065000Y-83836000D01*
X65015000Y-83836000D02*
X65015000Y-85836000D01*
X55889000Y-67548000D02*
X55889000Y-65548000D01*
X53839000Y-65548000D02*
X53839000Y-67548000D01*
X83836000Y-78241000D02*
X85836000Y-78241000D01*
X85836000Y-76191000D02*
X83836000Y-76191000D01*
X57667000Y-93202000D02*
X57667000Y-91202000D01*
X55617000Y-91202000D02*
X55617000Y-93202000D01*
X74921000Y-84090000D02*
X74921000Y-86090000D01*
X76971000Y-86090000D02*
X76971000Y-84090000D01*
X42672000Y-64262000D02*
X42672000Y-99822000D01*
X42672000Y-99822000D02*
X45212000Y-99822000D01*
X45212000Y-99822000D02*
X45212000Y-64262000D01*
X45492000Y-61442000D02*
X45492000Y-62992000D01*
X45212000Y-64262000D02*
X42672000Y-64262000D01*
X42392000Y-62992000D02*
X42392000Y-61442000D01*
X42392000Y-61442000D02*
X45492000Y-61442000D01*
X95250000Y-96520000D02*
X100330000Y-96520000D01*
X100330000Y-96520000D02*
X100330000Y-93980000D01*
X100330000Y-93980000D02*
X95250000Y-93980000D01*
X92430000Y-93700000D02*
X93980000Y-93700000D01*
X95250000Y-93980000D02*
X95250000Y-96520000D01*
X93980000Y-96800000D02*
X92430000Y-96800000D01*
X92430000Y-96800000D02*
X92430000Y-93700000D01*
X71882000Y-95758000D02*
X71882000Y-94615000D01*
X68834000Y-95758000D02*
X68834000Y-94615000D01*
X65024000Y-94615000D02*
X65024000Y-90932000D01*
X65024000Y-90932000D02*
X75692000Y-90932000D01*
X75692000Y-90932000D02*
X75692000Y-94615000D01*
X65024000Y-95758000D02*
X65024000Y-94615000D01*
X65024000Y-94615000D02*
X75692000Y-94615000D01*
X75692000Y-94615000D02*
X75692000Y-95758000D01*
X70358000Y-95758000D02*
X75692000Y-95758000D01*
X70358000Y-95758000D02*
X65024000Y-95758000D01*
X68834000Y-96774000D02*
X68834000Y-97917000D01*
X71882000Y-96774000D02*
X71882000Y-97917000D01*
X75692000Y-97917000D02*
X75692000Y-101600000D01*
X75692000Y-101600000D02*
X65024000Y-101600000D01*
X65024000Y-101600000D02*
X65024000Y-97917000D01*
X75692000Y-96774000D02*
X75692000Y-97917000D01*
X75692000Y-97917000D02*
X65024000Y-97917000D01*
X65024000Y-97917000D02*
X65024000Y-96774000D01*
X70358000Y-96774000D02*
X65024000Y-96774000D01*
X70358000Y-96774000D02*
X75692000Y-96774000D01*
X75692000Y-75692000D02*
X75692000Y-74549000D01*
X72644000Y-75692000D02*
X72644000Y-74549000D01*
X68834000Y-74549000D02*
X68834000Y-70866000D01*
X68834000Y-70866000D02*
X79502000Y-70866000D01*
X79502000Y-70866000D02*
X79502000Y-74549000D01*
X68834000Y-75692000D02*
X68834000Y-74549000D01*
X68834000Y-74549000D02*
X79502000Y-74549000D01*
X79502000Y-74549000D02*
X79502000Y-75692000D01*
X74168000Y-75692000D02*
X79502000Y-75692000D01*
X74168000Y-75692000D02*
X68834000Y-75692000D01*
X104199000Y-89678000D02*
X104199000Y-91678000D01*
X102049000Y-91678000D02*
X102049000Y-89678000D01*
X104199000Y-94504000D02*
X104199000Y-96504000D01*
X102049000Y-96504000D02*
X102049000Y-94504000D01*
X114241000Y-78470000D02*
X114241000Y-76470000D01*
X116391000Y-76470000D02*
X116391000Y-78470000D01*
X68545000Y-87165000D02*
X68595000Y-87165000D01*
X68545000Y-83015000D02*
X68690000Y-83015000D01*
X73695000Y-83015000D02*
X73550000Y-83015000D01*
X73695000Y-87165000D02*
X73550000Y-87165000D01*
X68545000Y-87165000D02*
X68545000Y-83015000D01*
X73695000Y-87165000D02*
X73695000Y-83015000D01*
X68595000Y-87165000D02*
X68595000Y-88565000D01*
X83023000Y-87165000D02*
X83073000Y-87165000D01*
X83023000Y-83015000D02*
X83168000Y-83015000D01*
X88173000Y-83015000D02*
X88028000Y-83015000D01*
X88173000Y-87165000D02*
X88028000Y-87165000D01*
X83023000Y-87165000D02*
X83023000Y-83015000D01*
X88173000Y-87165000D02*
X88173000Y-83015000D01*
X83073000Y-87165000D02*
X83073000Y-88565000D01*
X96231000Y-87165000D02*
X96281000Y-87165000D01*
X96231000Y-83015000D02*
X96376000Y-83015000D01*
X101381000Y-83015000D02*
X101236000Y-83015000D01*
X101381000Y-87165000D02*
X101236000Y-87165000D01*
X96231000Y-87165000D02*
X96231000Y-83015000D01*
X101381000Y-87165000D02*
X101381000Y-83015000D01*
X96281000Y-87165000D02*
X96281000Y-88565000D01*
X113249000Y-86911000D02*
X113299000Y-86911000D01*
X113249000Y-82761000D02*
X113394000Y-82761000D01*
X118399000Y-82761000D02*
X118254000Y-82761000D01*
X118399000Y-86911000D02*
X118254000Y-86911000D01*
X113249000Y-86911000D02*
X113249000Y-82761000D01*
X118399000Y-86911000D02*
X118399000Y-82761000D01*
X113299000Y-86911000D02*
X113299000Y-88311000D01*
X87910000Y-66776000D02*
X87910000Y-68326000D01*
X84810000Y-68326000D02*
X84810000Y-66776000D01*
X84810000Y-66776000D02*
X87910000Y-66776000D01*
X85090000Y-69596000D02*
X87630000Y-69596000D01*
X87614000Y-74648000D02*
X80614000Y-74648000D01*
X80614000Y-74648000D02*
X80614000Y-71148000D01*
X80614000Y-71148000D02*
X87614000Y-71148000D01*
X87614000Y-71148000D02*
X87614000Y-74648000D01*
X108057760Y-94538800D02*
X109058520Y-93638000D01*
X109058520Y-93638000D02*
X109058520Y-95338000D01*
X109058520Y-95338000D02*
X108057760Y-94488000D01*
X108057760Y-93638000D02*
X108057760Y-95338000D01*
X108858240Y-91643200D02*
X107857480Y-92544000D01*
X107857480Y-92544000D02*
X107857480Y-90844000D01*
X107857480Y-90844000D02*
X108858240Y-91694000D01*
X108858240Y-92544000D02*
X108858240Y-90844000D01*
X62094381Y-86804286D02*
X62903905Y-86804286D01*
X62999143Y-86756667D01*
X63046762Y-86709048D01*
X63094381Y-86613810D01*
X63094381Y-86423333D01*
X63046762Y-86328095D01*
X62999143Y-86280476D01*
X62903905Y-86232857D01*
X62094381Y-86232857D01*
X62094381Y-85851905D02*
X62094381Y-85232857D01*
X62475333Y-85566191D01*
X62475333Y-85423333D01*
X62522952Y-85328095D01*
X62570571Y-85280476D01*
X62665810Y-85232857D01*
X62903905Y-85232857D01*
X62999143Y-85280476D01*
X63046762Y-85328095D01*
X63094381Y-85423333D01*
X63094381Y-85709048D01*
X63046762Y-85804286D01*
X62999143Y-85851905D01*
X62094381Y-84613810D02*
X62094381Y-84518571D01*
X62142000Y-84423333D01*
X62189619Y-84375714D01*
X62284857Y-84328095D01*
X62475333Y-84280476D01*
X62713429Y-84280476D01*
X62903905Y-84328095D01*
X62999143Y-84375714D01*
X63046762Y-84423333D01*
X63094381Y-84518571D01*
X63094381Y-84613810D01*
X63046762Y-84709048D01*
X62999143Y-84756667D01*
X62903905Y-84804286D01*
X62713429Y-84851905D01*
X62475333Y-84851905D01*
X62284857Y-84804286D01*
X62189619Y-84756667D01*
X62142000Y-84709048D01*
X62094381Y-84613810D01*
X62189619Y-83899524D02*
X62142000Y-83851905D01*
X62094381Y-83756667D01*
X62094381Y-83518571D01*
X62142000Y-83423333D01*
X62189619Y-83375714D01*
X62284857Y-83328095D01*
X62380095Y-83328095D01*
X62522952Y-83375714D01*
X63094381Y-83947143D01*
X63094381Y-83328095D01*
X56971619Y-36353619D02*
X56924000Y-36448857D01*
X56828762Y-36544095D01*
X56685905Y-36686952D01*
X56638286Y-36782191D01*
X56638286Y-36877429D01*
X56876381Y-36829810D02*
X56828762Y-36925048D01*
X56733524Y-37020286D01*
X56543048Y-37067905D01*
X56209714Y-37067905D01*
X56019238Y-37020286D01*
X55924000Y-36925048D01*
X55876381Y-36829810D01*
X55876381Y-36639333D01*
X55924000Y-36544095D01*
X56019238Y-36448857D01*
X56209714Y-36401238D01*
X56543048Y-36401238D01*
X56733524Y-36448857D01*
X56828762Y-36544095D01*
X56876381Y-36639333D01*
X56876381Y-36829810D01*
X55876381Y-35496476D02*
X55876381Y-35972667D01*
X56352571Y-36020286D01*
X56304952Y-35972667D01*
X56257333Y-35877429D01*
X56257333Y-35639333D01*
X56304952Y-35544095D01*
X56352571Y-35496476D01*
X56447810Y-35448857D01*
X56685905Y-35448857D01*
X56781143Y-35496476D01*
X56828762Y-35544095D01*
X56876381Y-35639333D01*
X56876381Y-35877429D01*
X56828762Y-35972667D01*
X56781143Y-36020286D01*
X55876381Y-34829810D02*
X55876381Y-34734571D01*
X55924000Y-34639333D01*
X55971619Y-34591714D01*
X56066857Y-34544095D01*
X56257333Y-34496476D01*
X56495429Y-34496476D01*
X56685905Y-34544095D01*
X56781143Y-34591714D01*
X56828762Y-34639333D01*
X56876381Y-34734571D01*
X56876381Y-34829810D01*
X56828762Y-34925048D01*
X56781143Y-34972667D01*
X56685905Y-35020286D01*
X56495429Y-35067905D01*
X56257333Y-35067905D01*
X56066857Y-35020286D01*
X55971619Y-34972667D01*
X55924000Y-34925048D01*
X55876381Y-34829810D01*
X56876381Y-33544095D02*
X56876381Y-34115524D01*
X56876381Y-33829810D02*
X55876381Y-33829810D01*
X56019238Y-33925048D01*
X56114476Y-34020286D01*
X56162095Y-34115524D01*
X57046953Y-40221143D02*
X56999334Y-40268762D01*
X56856477Y-40316381D01*
X56761239Y-40316381D01*
X56618381Y-40268762D01*
X56523143Y-40173524D01*
X56475524Y-40078286D01*
X56427905Y-39887810D01*
X56427905Y-39744952D01*
X56475524Y-39554476D01*
X56523143Y-39459238D01*
X56618381Y-39364000D01*
X56761239Y-39316381D01*
X56856477Y-39316381D01*
X56999334Y-39364000D01*
X57046953Y-39411619D01*
X57951715Y-39316381D02*
X57475524Y-39316381D01*
X57427905Y-39792571D01*
X57475524Y-39744952D01*
X57570762Y-39697333D01*
X57808858Y-39697333D01*
X57904096Y-39744952D01*
X57951715Y-39792571D01*
X57999334Y-39887810D01*
X57999334Y-40125905D01*
X57951715Y-40221143D01*
X57904096Y-40268762D01*
X57808858Y-40316381D01*
X57570762Y-40316381D01*
X57475524Y-40268762D01*
X57427905Y-40221143D01*
X58618381Y-39316381D02*
X58713620Y-39316381D01*
X58808858Y-39364000D01*
X58856477Y-39411619D01*
X58904096Y-39506857D01*
X58951715Y-39697333D01*
X58951715Y-39935429D01*
X58904096Y-40125905D01*
X58856477Y-40221143D01*
X58808858Y-40268762D01*
X58713620Y-40316381D01*
X58618381Y-40316381D01*
X58523143Y-40268762D01*
X58475524Y-40221143D01*
X58427905Y-40125905D01*
X58380286Y-39935429D01*
X58380286Y-39697333D01*
X58427905Y-39506857D01*
X58475524Y-39411619D01*
X58523143Y-39364000D01*
X58618381Y-39316381D01*
X59904096Y-40316381D02*
X59332667Y-40316381D01*
X59618381Y-40316381D02*
X59618381Y-39316381D01*
X59523143Y-39459238D01*
X59427905Y-39554476D01*
X59332667Y-39602095D01*
X130706953Y-49111143D02*
X130659334Y-49158762D01*
X130516477Y-49206381D01*
X130421239Y-49206381D01*
X130278381Y-49158762D01*
X130183143Y-49063524D01*
X130135524Y-48968286D01*
X130087905Y-48777810D01*
X130087905Y-48634952D01*
X130135524Y-48444476D01*
X130183143Y-48349238D01*
X130278381Y-48254000D01*
X130421239Y-48206381D01*
X130516477Y-48206381D01*
X130659334Y-48254000D01*
X130706953Y-48301619D01*
X131611715Y-48206381D02*
X131135524Y-48206381D01*
X131087905Y-48682571D01*
X131135524Y-48634952D01*
X131230762Y-48587333D01*
X131468858Y-48587333D01*
X131564096Y-48634952D01*
X131611715Y-48682571D01*
X131659334Y-48777810D01*
X131659334Y-49015905D01*
X131611715Y-49111143D01*
X131564096Y-49158762D01*
X131468858Y-49206381D01*
X131230762Y-49206381D01*
X131135524Y-49158762D01*
X131087905Y-49111143D01*
X132278381Y-48206381D02*
X132373620Y-48206381D01*
X132468858Y-48254000D01*
X132516477Y-48301619D01*
X132564096Y-48396857D01*
X132611715Y-48587333D01*
X132611715Y-48825429D01*
X132564096Y-49015905D01*
X132516477Y-49111143D01*
X132468858Y-49158762D01*
X132373620Y-49206381D01*
X132278381Y-49206381D01*
X132183143Y-49158762D01*
X132135524Y-49111143D01*
X132087905Y-49015905D01*
X132040286Y-48825429D01*
X132040286Y-48587333D01*
X132087905Y-48396857D01*
X132135524Y-48301619D01*
X132183143Y-48254000D01*
X132278381Y-48206381D01*
X132992667Y-48301619D02*
X133040286Y-48254000D01*
X133135524Y-48206381D01*
X133373620Y-48206381D01*
X133468858Y-48254000D01*
X133516477Y-48301619D01*
X133564096Y-48396857D01*
X133564096Y-48492095D01*
X133516477Y-48634952D01*
X132945048Y-49206381D01*
X133564096Y-49206381D01*
X54727143Y-36425047D02*
X54774762Y-36472666D01*
X54822381Y-36615523D01*
X54822381Y-36710761D01*
X54774762Y-36853619D01*
X54679524Y-36948857D01*
X54584286Y-36996476D01*
X54393810Y-37044095D01*
X54250952Y-37044095D01*
X54060476Y-36996476D01*
X53965238Y-36948857D01*
X53870000Y-36853619D01*
X53822381Y-36710761D01*
X53822381Y-36615523D01*
X53870000Y-36472666D01*
X53917619Y-36425047D01*
X53822381Y-35520285D02*
X53822381Y-35996476D01*
X54298571Y-36044095D01*
X54250952Y-35996476D01*
X54203333Y-35901238D01*
X54203333Y-35663142D01*
X54250952Y-35567904D01*
X54298571Y-35520285D01*
X54393810Y-35472666D01*
X54631905Y-35472666D01*
X54727143Y-35520285D01*
X54774762Y-35567904D01*
X54822381Y-35663142D01*
X54822381Y-35901238D01*
X54774762Y-35996476D01*
X54727143Y-36044095D01*
X53822381Y-34853619D02*
X53822381Y-34758380D01*
X53870000Y-34663142D01*
X53917619Y-34615523D01*
X54012857Y-34567904D01*
X54203333Y-34520285D01*
X54441429Y-34520285D01*
X54631905Y-34567904D01*
X54727143Y-34615523D01*
X54774762Y-34663142D01*
X54822381Y-34758380D01*
X54822381Y-34853619D01*
X54774762Y-34948857D01*
X54727143Y-34996476D01*
X54631905Y-35044095D01*
X54441429Y-35091714D01*
X54203333Y-35091714D01*
X54012857Y-35044095D01*
X53917619Y-34996476D01*
X53870000Y-34948857D01*
X53822381Y-34853619D01*
X53822381Y-34186952D02*
X53822381Y-33567904D01*
X54203333Y-33901238D01*
X54203333Y-33758380D01*
X54250952Y-33663142D01*
X54298571Y-33615523D01*
X54393810Y-33567904D01*
X54631905Y-33567904D01*
X54727143Y-33615523D01*
X54774762Y-33663142D01*
X54822381Y-33758380D01*
X54822381Y-34044095D01*
X54774762Y-34139333D01*
X54727143Y-34186952D01*
X62573143Y-49633047D02*
X62620762Y-49680666D01*
X62668381Y-49823523D01*
X62668381Y-49918761D01*
X62620762Y-50061619D01*
X62525524Y-50156857D01*
X62430286Y-50204476D01*
X62239810Y-50252095D01*
X62096952Y-50252095D01*
X61906476Y-50204476D01*
X61811238Y-50156857D01*
X61716000Y-50061619D01*
X61668381Y-49918761D01*
X61668381Y-49823523D01*
X61716000Y-49680666D01*
X61763619Y-49633047D01*
X61668381Y-48728285D02*
X61668381Y-49204476D01*
X62144571Y-49252095D01*
X62096952Y-49204476D01*
X62049333Y-49109238D01*
X62049333Y-48871142D01*
X62096952Y-48775904D01*
X62144571Y-48728285D01*
X62239810Y-48680666D01*
X62477905Y-48680666D01*
X62573143Y-48728285D01*
X62620762Y-48775904D01*
X62668381Y-48871142D01*
X62668381Y-49109238D01*
X62620762Y-49204476D01*
X62573143Y-49252095D01*
X61668381Y-48061619D02*
X61668381Y-47966380D01*
X61716000Y-47871142D01*
X61763619Y-47823523D01*
X61858857Y-47775904D01*
X62049333Y-47728285D01*
X62287429Y-47728285D01*
X62477905Y-47775904D01*
X62573143Y-47823523D01*
X62620762Y-47871142D01*
X62668381Y-47966380D01*
X62668381Y-48061619D01*
X62620762Y-48156857D01*
X62573143Y-48204476D01*
X62477905Y-48252095D01*
X62287429Y-48299714D01*
X62049333Y-48299714D01*
X61858857Y-48252095D01*
X61763619Y-48204476D01*
X61716000Y-48156857D01*
X61668381Y-48061619D01*
X62001714Y-46871142D02*
X62668381Y-46871142D01*
X61620762Y-47109238D02*
X62335048Y-47347333D01*
X62335048Y-46728285D01*
X133693143Y-46077047D02*
X133740762Y-46124666D01*
X133788381Y-46267523D01*
X133788381Y-46362761D01*
X133740762Y-46505619D01*
X133645524Y-46600857D01*
X133550286Y-46648476D01*
X133359810Y-46696095D01*
X133216952Y-46696095D01*
X133026476Y-46648476D01*
X132931238Y-46600857D01*
X132836000Y-46505619D01*
X132788381Y-46362761D01*
X132788381Y-46267523D01*
X132836000Y-46124666D01*
X132883619Y-46077047D01*
X132788381Y-45172285D02*
X132788381Y-45648476D01*
X133264571Y-45696095D01*
X133216952Y-45648476D01*
X133169333Y-45553238D01*
X133169333Y-45315142D01*
X133216952Y-45219904D01*
X133264571Y-45172285D01*
X133359810Y-45124666D01*
X133597905Y-45124666D01*
X133693143Y-45172285D01*
X133740762Y-45219904D01*
X133788381Y-45315142D01*
X133788381Y-45553238D01*
X133740762Y-45648476D01*
X133693143Y-45696095D01*
X132788381Y-44505619D02*
X132788381Y-44410380D01*
X132836000Y-44315142D01*
X132883619Y-44267523D01*
X132978857Y-44219904D01*
X133169333Y-44172285D01*
X133407429Y-44172285D01*
X133597905Y-44219904D01*
X133693143Y-44267523D01*
X133740762Y-44315142D01*
X133788381Y-44410380D01*
X133788381Y-44505619D01*
X133740762Y-44600857D01*
X133693143Y-44648476D01*
X133597905Y-44696095D01*
X133407429Y-44743714D01*
X133169333Y-44743714D01*
X132978857Y-44696095D01*
X132883619Y-44648476D01*
X132836000Y-44600857D01*
X132788381Y-44505619D01*
X132788381Y-43267523D02*
X132788381Y-43743714D01*
X133264571Y-43791333D01*
X133216952Y-43743714D01*
X133169333Y-43648476D01*
X133169333Y-43410380D01*
X133216952Y-43315142D01*
X133264571Y-43267523D01*
X133359810Y-43219904D01*
X133597905Y-43219904D01*
X133693143Y-43267523D01*
X133740762Y-43315142D01*
X133788381Y-43410380D01*
X133788381Y-43648476D01*
X133740762Y-43743714D01*
X133693143Y-43791333D01*
X57046953Y-41614381D02*
X56713619Y-41138190D01*
X56475524Y-41614381D02*
X56475524Y-40614381D01*
X56856477Y-40614381D01*
X56951715Y-40662000D01*
X56999334Y-40709619D01*
X57046953Y-40804857D01*
X57046953Y-40947714D01*
X56999334Y-41042952D01*
X56951715Y-41090571D01*
X56856477Y-41138190D01*
X56475524Y-41138190D01*
X57951715Y-40614381D02*
X57475524Y-40614381D01*
X57427905Y-41090571D01*
X57475524Y-41042952D01*
X57570762Y-40995333D01*
X57808858Y-40995333D01*
X57904096Y-41042952D01*
X57951715Y-41090571D01*
X57999334Y-41185810D01*
X57999334Y-41423905D01*
X57951715Y-41519143D01*
X57904096Y-41566762D01*
X57808858Y-41614381D01*
X57570762Y-41614381D01*
X57475524Y-41566762D01*
X57427905Y-41519143D01*
X58618381Y-40614381D02*
X58713620Y-40614381D01*
X58808858Y-40662000D01*
X58856477Y-40709619D01*
X58904096Y-40804857D01*
X58951715Y-40995333D01*
X58951715Y-41233429D01*
X58904096Y-41423905D01*
X58856477Y-41519143D01*
X58808858Y-41566762D01*
X58713620Y-41614381D01*
X58618381Y-41614381D01*
X58523143Y-41566762D01*
X58475524Y-41519143D01*
X58427905Y-41423905D01*
X58380286Y-41233429D01*
X58380286Y-40995333D01*
X58427905Y-40804857D01*
X58475524Y-40709619D01*
X58523143Y-40662000D01*
X58618381Y-40614381D01*
X59332667Y-40709619D02*
X59380286Y-40662000D01*
X59475524Y-40614381D01*
X59713620Y-40614381D01*
X59808858Y-40662000D01*
X59856477Y-40709619D01*
X59904096Y-40804857D01*
X59904096Y-40900095D01*
X59856477Y-41042952D01*
X59285048Y-41614381D01*
X59904096Y-41614381D01*
X60636381Y-38457047D02*
X60160190Y-38790381D01*
X60636381Y-39028476D02*
X59636381Y-39028476D01*
X59636381Y-38647523D01*
X59684000Y-38552285D01*
X59731619Y-38504666D01*
X59826857Y-38457047D01*
X59969714Y-38457047D01*
X60064952Y-38504666D01*
X60112571Y-38552285D01*
X60160190Y-38647523D01*
X60160190Y-39028476D01*
X59636381Y-37552285D02*
X59636381Y-38028476D01*
X60112571Y-38076095D01*
X60064952Y-38028476D01*
X60017333Y-37933238D01*
X60017333Y-37695142D01*
X60064952Y-37599904D01*
X60112571Y-37552285D01*
X60207810Y-37504666D01*
X60445905Y-37504666D01*
X60541143Y-37552285D01*
X60588762Y-37599904D01*
X60636381Y-37695142D01*
X60636381Y-37933238D01*
X60588762Y-38028476D01*
X60541143Y-38076095D01*
X59636381Y-36885619D02*
X59636381Y-36790380D01*
X59684000Y-36695142D01*
X59731619Y-36647523D01*
X59826857Y-36599904D01*
X60017333Y-36552285D01*
X60255429Y-36552285D01*
X60445905Y-36599904D01*
X60541143Y-36647523D01*
X60588762Y-36695142D01*
X60636381Y-36790380D01*
X60636381Y-36885619D01*
X60588762Y-36980857D01*
X60541143Y-37028476D01*
X60445905Y-37076095D01*
X60255429Y-37123714D01*
X60017333Y-37123714D01*
X59826857Y-37076095D01*
X59731619Y-37028476D01*
X59684000Y-36980857D01*
X59636381Y-36885619D01*
X59636381Y-36218952D02*
X59636381Y-35599904D01*
X60017333Y-35933238D01*
X60017333Y-35790380D01*
X60064952Y-35695142D01*
X60112571Y-35647523D01*
X60207810Y-35599904D01*
X60445905Y-35599904D01*
X60541143Y-35647523D01*
X60588762Y-35695142D01*
X60636381Y-35790380D01*
X60636381Y-36076095D01*
X60588762Y-36171333D01*
X60541143Y-36218952D01*
X54880381Y-49974286D02*
X55689905Y-49974286D01*
X55785143Y-49926667D01*
X55832762Y-49879048D01*
X55880381Y-49783810D01*
X55880381Y-49593333D01*
X55832762Y-49498095D01*
X55785143Y-49450476D01*
X55689905Y-49402857D01*
X54880381Y-49402857D01*
X54880381Y-48450476D02*
X54880381Y-48926667D01*
X55356571Y-48974286D01*
X55308952Y-48926667D01*
X55261333Y-48831429D01*
X55261333Y-48593333D01*
X55308952Y-48498095D01*
X55356571Y-48450476D01*
X55451810Y-48402857D01*
X55689905Y-48402857D01*
X55785143Y-48450476D01*
X55832762Y-48498095D01*
X55880381Y-48593333D01*
X55880381Y-48831429D01*
X55832762Y-48926667D01*
X55785143Y-48974286D01*
X54880381Y-47783810D02*
X54880381Y-47688571D01*
X54928000Y-47593333D01*
X54975619Y-47545714D01*
X55070857Y-47498095D01*
X55261333Y-47450476D01*
X55499429Y-47450476D01*
X55689905Y-47498095D01*
X55785143Y-47545714D01*
X55832762Y-47593333D01*
X55880381Y-47688571D01*
X55880381Y-47783810D01*
X55832762Y-47879048D01*
X55785143Y-47926667D01*
X55689905Y-47974286D01*
X55499429Y-48021905D01*
X55261333Y-48021905D01*
X55070857Y-47974286D01*
X54975619Y-47926667D01*
X54928000Y-47879048D01*
X54880381Y-47783810D01*
X55880381Y-46498095D02*
X55880381Y-47069524D01*
X55880381Y-46783810D02*
X54880381Y-46783810D01*
X55023238Y-46879048D01*
X55118476Y-46974286D01*
X55166095Y-47069524D01*
X126762381Y-46164286D02*
X127571905Y-46164286D01*
X127667143Y-46116667D01*
X127714762Y-46069048D01*
X127762381Y-45973810D01*
X127762381Y-45783333D01*
X127714762Y-45688095D01*
X127667143Y-45640476D01*
X127571905Y-45592857D01*
X126762381Y-45592857D01*
X126762381Y-44640476D02*
X126762381Y-45116667D01*
X127238571Y-45164286D01*
X127190952Y-45116667D01*
X127143333Y-45021429D01*
X127143333Y-44783333D01*
X127190952Y-44688095D01*
X127238571Y-44640476D01*
X127333810Y-44592857D01*
X127571905Y-44592857D01*
X127667143Y-44640476D01*
X127714762Y-44688095D01*
X127762381Y-44783333D01*
X127762381Y-45021429D01*
X127714762Y-45116667D01*
X127667143Y-45164286D01*
X126762381Y-43973810D02*
X126762381Y-43878571D01*
X126810000Y-43783333D01*
X126857619Y-43735714D01*
X126952857Y-43688095D01*
X127143333Y-43640476D01*
X127381429Y-43640476D01*
X127571905Y-43688095D01*
X127667143Y-43735714D01*
X127714762Y-43783333D01*
X127762381Y-43878571D01*
X127762381Y-43973810D01*
X127714762Y-44069048D01*
X127667143Y-44116667D01*
X127571905Y-44164286D01*
X127381429Y-44211905D01*
X127143333Y-44211905D01*
X126952857Y-44164286D01*
X126857619Y-44116667D01*
X126810000Y-44069048D01*
X126762381Y-43973810D01*
X126857619Y-43259524D02*
X126810000Y-43211905D01*
X126762381Y-43116667D01*
X126762381Y-42878571D01*
X126810000Y-42783333D01*
X126857619Y-42735714D01*
X126952857Y-42688095D01*
X127048095Y-42688095D01*
X127190952Y-42735714D01*
X127762381Y-43307143D01*
X127762381Y-42688095D01*
X42251524Y-32710381D02*
X42251524Y-31710381D01*
X42632477Y-31710381D01*
X42727715Y-31758000D01*
X42775334Y-31805619D01*
X42822953Y-31900857D01*
X42822953Y-32043714D01*
X42775334Y-32138952D01*
X42727715Y-32186571D01*
X42632477Y-32234190D01*
X42251524Y-32234190D01*
X43727715Y-31710381D02*
X43251524Y-31710381D01*
X43203905Y-32186571D01*
X43251524Y-32138952D01*
X43346762Y-32091333D01*
X43584858Y-32091333D01*
X43680096Y-32138952D01*
X43727715Y-32186571D01*
X43775334Y-32281810D01*
X43775334Y-32519905D01*
X43727715Y-32615143D01*
X43680096Y-32662762D01*
X43584858Y-32710381D01*
X43346762Y-32710381D01*
X43251524Y-32662762D01*
X43203905Y-32615143D01*
X44394381Y-31710381D02*
X44489620Y-31710381D01*
X44584858Y-31758000D01*
X44632477Y-31805619D01*
X44680096Y-31900857D01*
X44727715Y-32091333D01*
X44727715Y-32329429D01*
X44680096Y-32519905D01*
X44632477Y-32615143D01*
X44584858Y-32662762D01*
X44489620Y-32710381D01*
X44394381Y-32710381D01*
X44299143Y-32662762D01*
X44251524Y-32615143D01*
X44203905Y-32519905D01*
X44156286Y-32329429D01*
X44156286Y-32091333D01*
X44203905Y-31900857D01*
X44251524Y-31805619D01*
X44299143Y-31758000D01*
X44394381Y-31710381D01*
X45680096Y-32710381D02*
X45108667Y-32710381D01*
X45394381Y-32710381D02*
X45394381Y-31710381D01*
X45299143Y-31853238D01*
X45203905Y-31948476D01*
X45108667Y-31996095D01*
X128853619Y-37369619D02*
X128806000Y-37464857D01*
X128710762Y-37560095D01*
X128567905Y-37702952D01*
X128520286Y-37798191D01*
X128520286Y-37893429D01*
X128758381Y-37845810D02*
X128710762Y-37941048D01*
X128615524Y-38036286D01*
X128425048Y-38083905D01*
X128091714Y-38083905D01*
X127901238Y-38036286D01*
X127806000Y-37941048D01*
X127758381Y-37845810D01*
X127758381Y-37655333D01*
X127806000Y-37560095D01*
X127901238Y-37464857D01*
X128091714Y-37417238D01*
X128425048Y-37417238D01*
X128615524Y-37464857D01*
X128710762Y-37560095D01*
X128758381Y-37655333D01*
X128758381Y-37845810D01*
X127758381Y-36512476D02*
X127758381Y-36988667D01*
X128234571Y-37036286D01*
X128186952Y-36988667D01*
X128139333Y-36893429D01*
X128139333Y-36655333D01*
X128186952Y-36560095D01*
X128234571Y-36512476D01*
X128329810Y-36464857D01*
X128567905Y-36464857D01*
X128663143Y-36512476D01*
X128710762Y-36560095D01*
X128758381Y-36655333D01*
X128758381Y-36893429D01*
X128710762Y-36988667D01*
X128663143Y-37036286D01*
X127758381Y-35845810D02*
X127758381Y-35750571D01*
X127806000Y-35655333D01*
X127853619Y-35607714D01*
X127948857Y-35560095D01*
X128139333Y-35512476D01*
X128377429Y-35512476D01*
X128567905Y-35560095D01*
X128663143Y-35607714D01*
X128710762Y-35655333D01*
X128758381Y-35750571D01*
X128758381Y-35845810D01*
X128710762Y-35941048D01*
X128663143Y-35988667D01*
X128567905Y-36036286D01*
X128377429Y-36083905D01*
X128139333Y-36083905D01*
X127948857Y-36036286D01*
X127853619Y-35988667D01*
X127806000Y-35941048D01*
X127758381Y-35845810D01*
X127853619Y-35131524D02*
X127806000Y-35083905D01*
X127758381Y-34988667D01*
X127758381Y-34750571D01*
X127806000Y-34655333D01*
X127853619Y-34607714D01*
X127948857Y-34560095D01*
X128044095Y-34560095D01*
X128186952Y-34607714D01*
X128758381Y-35179143D01*
X128758381Y-34560095D01*
X78938381Y-43965619D02*
X78462190Y-44298953D01*
X78938381Y-44537048D02*
X77938381Y-44537048D01*
X77938381Y-44156095D01*
X77986000Y-44060857D01*
X78033619Y-44013238D01*
X78128857Y-43965619D01*
X78271714Y-43965619D01*
X78366952Y-44013238D01*
X78414571Y-44060857D01*
X78462190Y-44156095D01*
X78462190Y-44537048D01*
X77938381Y-43679905D02*
X78938381Y-43346572D01*
X77938381Y-43013238D01*
X77938381Y-42203714D02*
X77938381Y-42679905D01*
X78414571Y-42727524D01*
X78366952Y-42679905D01*
X78319333Y-42584667D01*
X78319333Y-42346571D01*
X78366952Y-42251333D01*
X78414571Y-42203714D01*
X78509810Y-42156095D01*
X78747905Y-42156095D01*
X78843143Y-42203714D01*
X78890762Y-42251333D01*
X78938381Y-42346571D01*
X78938381Y-42584667D01*
X78890762Y-42679905D01*
X78843143Y-42727524D01*
X77938381Y-41537048D02*
X77938381Y-41441809D01*
X77986000Y-41346571D01*
X78033619Y-41298952D01*
X78128857Y-41251333D01*
X78319333Y-41203714D01*
X78557429Y-41203714D01*
X78747905Y-41251333D01*
X78843143Y-41298952D01*
X78890762Y-41346571D01*
X78938381Y-41441809D01*
X78938381Y-41537048D01*
X78890762Y-41632286D01*
X78843143Y-41679905D01*
X78747905Y-41727524D01*
X78557429Y-41775143D01*
X78319333Y-41775143D01*
X78128857Y-41727524D01*
X78033619Y-41679905D01*
X77986000Y-41632286D01*
X77938381Y-41537048D01*
X78938381Y-40251333D02*
X78938381Y-40822762D01*
X78938381Y-40537048D02*
X77938381Y-40537048D01*
X78081238Y-40632286D01*
X78176476Y-40727524D01*
X78224095Y-40822762D01*
X68984953Y-37028381D02*
X68651619Y-36552190D01*
X68413524Y-37028381D02*
X68413524Y-36028381D01*
X68794477Y-36028381D01*
X68889715Y-36076000D01*
X68937334Y-36123619D01*
X68984953Y-36218857D01*
X68984953Y-36361714D01*
X68937334Y-36456952D01*
X68889715Y-36504571D01*
X68794477Y-36552190D01*
X68413524Y-36552190D01*
X69889715Y-36028381D02*
X69413524Y-36028381D01*
X69365905Y-36504571D01*
X69413524Y-36456952D01*
X69508762Y-36409333D01*
X69746858Y-36409333D01*
X69842096Y-36456952D01*
X69889715Y-36504571D01*
X69937334Y-36599810D01*
X69937334Y-36837905D01*
X69889715Y-36933143D01*
X69842096Y-36980762D01*
X69746858Y-37028381D01*
X69508762Y-37028381D01*
X69413524Y-36980762D01*
X69365905Y-36933143D01*
X70556381Y-36028381D02*
X70651620Y-36028381D01*
X70746858Y-36076000D01*
X70794477Y-36123619D01*
X70842096Y-36218857D01*
X70889715Y-36409333D01*
X70889715Y-36647429D01*
X70842096Y-36837905D01*
X70794477Y-36933143D01*
X70746858Y-36980762D01*
X70651620Y-37028381D01*
X70556381Y-37028381D01*
X70461143Y-36980762D01*
X70413524Y-36933143D01*
X70365905Y-36837905D01*
X70318286Y-36647429D01*
X70318286Y-36409333D01*
X70365905Y-36218857D01*
X70413524Y-36123619D01*
X70461143Y-36076000D01*
X70556381Y-36028381D01*
X71746858Y-36361714D02*
X71746858Y-37028381D01*
X71508762Y-35980762D02*
X71270667Y-36695048D01*
X71889715Y-36695048D01*
X68984953Y-48966381D02*
X68651619Y-48490190D01*
X68413524Y-48966381D02*
X68413524Y-47966381D01*
X68794477Y-47966381D01*
X68889715Y-48014000D01*
X68937334Y-48061619D01*
X68984953Y-48156857D01*
X68984953Y-48299714D01*
X68937334Y-48394952D01*
X68889715Y-48442571D01*
X68794477Y-48490190D01*
X68413524Y-48490190D01*
X69889715Y-47966381D02*
X69413524Y-47966381D01*
X69365905Y-48442571D01*
X69413524Y-48394952D01*
X69508762Y-48347333D01*
X69746858Y-48347333D01*
X69842096Y-48394952D01*
X69889715Y-48442571D01*
X69937334Y-48537810D01*
X69937334Y-48775905D01*
X69889715Y-48871143D01*
X69842096Y-48918762D01*
X69746858Y-48966381D01*
X69508762Y-48966381D01*
X69413524Y-48918762D01*
X69365905Y-48871143D01*
X70556381Y-47966381D02*
X70651620Y-47966381D01*
X70746858Y-48014000D01*
X70794477Y-48061619D01*
X70842096Y-48156857D01*
X70889715Y-48347333D01*
X70889715Y-48585429D01*
X70842096Y-48775905D01*
X70794477Y-48871143D01*
X70746858Y-48918762D01*
X70651620Y-48966381D01*
X70556381Y-48966381D01*
X70461143Y-48918762D01*
X70413524Y-48871143D01*
X70365905Y-48775905D01*
X70318286Y-48585429D01*
X70318286Y-48347333D01*
X70365905Y-48156857D01*
X70413524Y-48061619D01*
X70461143Y-48014000D01*
X70556381Y-47966381D01*
X71794477Y-47966381D02*
X71318286Y-47966381D01*
X71270667Y-48442571D01*
X71318286Y-48394952D01*
X71413524Y-48347333D01*
X71651620Y-48347333D01*
X71746858Y-48394952D01*
X71794477Y-48442571D01*
X71842096Y-48537810D01*
X71842096Y-48775905D01*
X71794477Y-48871143D01*
X71746858Y-48918762D01*
X71651620Y-48966381D01*
X71413524Y-48966381D01*
X71318286Y-48918762D01*
X71270667Y-48871143D01*
X118768953Y-39568381D02*
X118435619Y-39092190D01*
X118197524Y-39568381D02*
X118197524Y-38568381D01*
X118578477Y-38568381D01*
X118673715Y-38616000D01*
X118721334Y-38663619D01*
X118768953Y-38758857D01*
X118768953Y-38901714D01*
X118721334Y-38996952D01*
X118673715Y-39044571D01*
X118578477Y-39092190D01*
X118197524Y-39092190D01*
X119673715Y-38568381D02*
X119197524Y-38568381D01*
X119149905Y-39044571D01*
X119197524Y-38996952D01*
X119292762Y-38949333D01*
X119530858Y-38949333D01*
X119626096Y-38996952D01*
X119673715Y-39044571D01*
X119721334Y-39139810D01*
X119721334Y-39377905D01*
X119673715Y-39473143D01*
X119626096Y-39520762D01*
X119530858Y-39568381D01*
X119292762Y-39568381D01*
X119197524Y-39520762D01*
X119149905Y-39473143D01*
X120340381Y-38568381D02*
X120435620Y-38568381D01*
X120530858Y-38616000D01*
X120578477Y-38663619D01*
X120626096Y-38758857D01*
X120673715Y-38949333D01*
X120673715Y-39187429D01*
X120626096Y-39377905D01*
X120578477Y-39473143D01*
X120530858Y-39520762D01*
X120435620Y-39568381D01*
X120340381Y-39568381D01*
X120245143Y-39520762D01*
X120197524Y-39473143D01*
X120149905Y-39377905D01*
X120102286Y-39187429D01*
X120102286Y-38949333D01*
X120149905Y-38758857D01*
X120197524Y-38663619D01*
X120245143Y-38616000D01*
X120340381Y-38568381D01*
X121530858Y-38568381D02*
X121340381Y-38568381D01*
X121245143Y-38616000D01*
X121197524Y-38663619D01*
X121102286Y-38806476D01*
X121054667Y-38996952D01*
X121054667Y-39377905D01*
X121102286Y-39473143D01*
X121149905Y-39520762D01*
X121245143Y-39568381D01*
X121435620Y-39568381D01*
X121530858Y-39520762D01*
X121578477Y-39473143D01*
X121626096Y-39377905D01*
X121626096Y-39139810D01*
X121578477Y-39044571D01*
X121530858Y-38996952D01*
X121435620Y-38949333D01*
X121245143Y-38949333D01*
X121149905Y-38996952D01*
X121102286Y-39044571D01*
X121054667Y-39139810D01*
X118768953Y-45156381D02*
X118435619Y-44680190D01*
X118197524Y-45156381D02*
X118197524Y-44156381D01*
X118578477Y-44156381D01*
X118673715Y-44204000D01*
X118721334Y-44251619D01*
X118768953Y-44346857D01*
X118768953Y-44489714D01*
X118721334Y-44584952D01*
X118673715Y-44632571D01*
X118578477Y-44680190D01*
X118197524Y-44680190D01*
X119673715Y-44156381D02*
X119197524Y-44156381D01*
X119149905Y-44632571D01*
X119197524Y-44584952D01*
X119292762Y-44537333D01*
X119530858Y-44537333D01*
X119626096Y-44584952D01*
X119673715Y-44632571D01*
X119721334Y-44727810D01*
X119721334Y-44965905D01*
X119673715Y-45061143D01*
X119626096Y-45108762D01*
X119530858Y-45156381D01*
X119292762Y-45156381D01*
X119197524Y-45108762D01*
X119149905Y-45061143D01*
X120340381Y-44156381D02*
X120435620Y-44156381D01*
X120530858Y-44204000D01*
X120578477Y-44251619D01*
X120626096Y-44346857D01*
X120673715Y-44537333D01*
X120673715Y-44775429D01*
X120626096Y-44965905D01*
X120578477Y-45061143D01*
X120530858Y-45108762D01*
X120435620Y-45156381D01*
X120340381Y-45156381D01*
X120245143Y-45108762D01*
X120197524Y-45061143D01*
X120149905Y-44965905D01*
X120102286Y-44775429D01*
X120102286Y-44537333D01*
X120149905Y-44346857D01*
X120197524Y-44251619D01*
X120245143Y-44204000D01*
X120340381Y-44156381D01*
X121007048Y-44156381D02*
X121673715Y-44156381D01*
X121245143Y-45156381D01*
X118768953Y-56840381D02*
X118435619Y-56364190D01*
X118197524Y-56840381D02*
X118197524Y-55840381D01*
X118578477Y-55840381D01*
X118673715Y-55888000D01*
X118721334Y-55935619D01*
X118768953Y-56030857D01*
X118768953Y-56173714D01*
X118721334Y-56268952D01*
X118673715Y-56316571D01*
X118578477Y-56364190D01*
X118197524Y-56364190D01*
X119673715Y-55840381D02*
X119197524Y-55840381D01*
X119149905Y-56316571D01*
X119197524Y-56268952D01*
X119292762Y-56221333D01*
X119530858Y-56221333D01*
X119626096Y-56268952D01*
X119673715Y-56316571D01*
X119721334Y-56411810D01*
X119721334Y-56649905D01*
X119673715Y-56745143D01*
X119626096Y-56792762D01*
X119530858Y-56840381D01*
X119292762Y-56840381D01*
X119197524Y-56792762D01*
X119149905Y-56745143D01*
X120340381Y-55840381D02*
X120435620Y-55840381D01*
X120530858Y-55888000D01*
X120578477Y-55935619D01*
X120626096Y-56030857D01*
X120673715Y-56221333D01*
X120673715Y-56459429D01*
X120626096Y-56649905D01*
X120578477Y-56745143D01*
X120530858Y-56792762D01*
X120435620Y-56840381D01*
X120340381Y-56840381D01*
X120245143Y-56792762D01*
X120197524Y-56745143D01*
X120149905Y-56649905D01*
X120102286Y-56459429D01*
X120102286Y-56221333D01*
X120149905Y-56030857D01*
X120197524Y-55935619D01*
X120245143Y-55888000D01*
X120340381Y-55840381D01*
X121245143Y-56268952D02*
X121149905Y-56221333D01*
X121102286Y-56173714D01*
X121054667Y-56078476D01*
X121054667Y-56030857D01*
X121102286Y-55935619D01*
X121149905Y-55888000D01*
X121245143Y-55840381D01*
X121435620Y-55840381D01*
X121530858Y-55888000D01*
X121578477Y-55935619D01*
X121626096Y-56030857D01*
X121626096Y-56078476D01*
X121578477Y-56173714D01*
X121530858Y-56221333D01*
X121435620Y-56268952D01*
X121245143Y-56268952D01*
X121149905Y-56316571D01*
X121102286Y-56364190D01*
X121054667Y-56459429D01*
X121054667Y-56649905D01*
X121102286Y-56745143D01*
X121149905Y-56792762D01*
X121245143Y-56840381D01*
X121435620Y-56840381D01*
X121530858Y-56792762D01*
X121578477Y-56745143D01*
X121626096Y-56649905D01*
X121626096Y-56459429D01*
X121578477Y-56364190D01*
X121530858Y-56316571D01*
X121435620Y-56268952D01*
X50984381Y-42775047D02*
X50508190Y-43108381D01*
X50984381Y-43346476D02*
X49984381Y-43346476D01*
X49984381Y-42965523D01*
X50032000Y-42870285D01*
X50079619Y-42822666D01*
X50174857Y-42775047D01*
X50317714Y-42775047D01*
X50412952Y-42822666D01*
X50460571Y-42870285D01*
X50508190Y-42965523D01*
X50508190Y-43346476D01*
X49984381Y-41870285D02*
X49984381Y-42346476D01*
X50460571Y-42394095D01*
X50412952Y-42346476D01*
X50365333Y-42251238D01*
X50365333Y-42013142D01*
X50412952Y-41917904D01*
X50460571Y-41870285D01*
X50555810Y-41822666D01*
X50793905Y-41822666D01*
X50889143Y-41870285D01*
X50936762Y-41917904D01*
X50984381Y-42013142D01*
X50984381Y-42251238D01*
X50936762Y-42346476D01*
X50889143Y-42394095D01*
X50984381Y-40870285D02*
X50984381Y-41441714D01*
X50984381Y-41156000D02*
X49984381Y-41156000D01*
X50127238Y-41251238D01*
X50222476Y-41346476D01*
X50270095Y-41441714D01*
X49984381Y-40251238D02*
X49984381Y-40155999D01*
X50032000Y-40060761D01*
X50079619Y-40013142D01*
X50174857Y-39965523D01*
X50365333Y-39917904D01*
X50603429Y-39917904D01*
X50793905Y-39965523D01*
X50889143Y-40013142D01*
X50936762Y-40060761D01*
X50984381Y-40155999D01*
X50984381Y-40251238D01*
X50936762Y-40346476D01*
X50889143Y-40394095D01*
X50793905Y-40441714D01*
X50603429Y-40489333D01*
X50365333Y-40489333D01*
X50174857Y-40441714D01*
X50079619Y-40394095D01*
X50032000Y-40346476D01*
X49984381Y-40251238D01*
X127452381Y-47521619D02*
X126976190Y-47854953D01*
X127452381Y-48093048D02*
X126452381Y-48093048D01*
X126452381Y-47712095D01*
X126500000Y-47616857D01*
X126547619Y-47569238D01*
X126642857Y-47521619D01*
X126785714Y-47521619D01*
X126880952Y-47569238D01*
X126928571Y-47616857D01*
X126976190Y-47712095D01*
X126976190Y-48093048D01*
X126452381Y-47235905D02*
X127452381Y-46902572D01*
X126452381Y-46569238D01*
X126452381Y-45759714D02*
X126452381Y-46235905D01*
X126928571Y-46283524D01*
X126880952Y-46235905D01*
X126833333Y-46140667D01*
X126833333Y-45902571D01*
X126880952Y-45807333D01*
X126928571Y-45759714D01*
X127023810Y-45712095D01*
X127261905Y-45712095D01*
X127357143Y-45759714D01*
X127404762Y-45807333D01*
X127452381Y-45902571D01*
X127452381Y-46140667D01*
X127404762Y-46235905D01*
X127357143Y-46283524D01*
X126452381Y-45093048D02*
X126452381Y-44997809D01*
X126500000Y-44902571D01*
X126547619Y-44854952D01*
X126642857Y-44807333D01*
X126833333Y-44759714D01*
X127071429Y-44759714D01*
X127261905Y-44807333D01*
X127357143Y-44854952D01*
X127404762Y-44902571D01*
X127452381Y-44997809D01*
X127452381Y-45093048D01*
X127404762Y-45188286D01*
X127357143Y-45235905D01*
X127261905Y-45283524D01*
X127071429Y-45331143D01*
X126833333Y-45331143D01*
X126642857Y-45283524D01*
X126547619Y-45235905D01*
X126500000Y-45188286D01*
X126452381Y-45093048D01*
X126547619Y-44378762D02*
X126500000Y-44331143D01*
X126452381Y-44235905D01*
X126452381Y-43997809D01*
X126500000Y-43902571D01*
X126547619Y-43854952D01*
X126642857Y-43807333D01*
X126738095Y-43807333D01*
X126880952Y-43854952D01*
X127452381Y-44426381D01*
X127452381Y-43807333D01*
X92923714Y-34887381D02*
X92923714Y-35696905D01*
X92971333Y-35792143D01*
X93018952Y-35839762D01*
X93114190Y-35887381D01*
X93304667Y-35887381D01*
X93399905Y-35839762D01*
X93447524Y-35792143D01*
X93495143Y-35696905D01*
X93495143Y-34887381D01*
X94447524Y-34887381D02*
X93971333Y-34887381D01*
X93923714Y-35363571D01*
X93971333Y-35315952D01*
X94066571Y-35268333D01*
X94304667Y-35268333D01*
X94399905Y-35315952D01*
X94447524Y-35363571D01*
X94495143Y-35458810D01*
X94495143Y-35696905D01*
X94447524Y-35792143D01*
X94399905Y-35839762D01*
X94304667Y-35887381D01*
X94066571Y-35887381D01*
X93971333Y-35839762D01*
X93923714Y-35792143D01*
X95114190Y-34887381D02*
X95209429Y-34887381D01*
X95304667Y-34935000D01*
X95352286Y-34982619D01*
X95399905Y-35077857D01*
X95447524Y-35268333D01*
X95447524Y-35506429D01*
X95399905Y-35696905D01*
X95352286Y-35792143D01*
X95304667Y-35839762D01*
X95209429Y-35887381D01*
X95114190Y-35887381D01*
X95018952Y-35839762D01*
X94971333Y-35792143D01*
X94923714Y-35696905D01*
X94876095Y-35506429D01*
X94876095Y-35268333D01*
X94923714Y-35077857D01*
X94971333Y-34982619D01*
X95018952Y-34935000D01*
X95114190Y-34887381D01*
X95780857Y-34887381D02*
X96399905Y-34887381D01*
X96066571Y-35268333D01*
X96209429Y-35268333D01*
X96304667Y-35315952D01*
X96352286Y-35363571D01*
X96399905Y-35458810D01*
X96399905Y-35696905D01*
X96352286Y-35792143D01*
X96304667Y-35839762D01*
X96209429Y-35887381D01*
X95923714Y-35887381D01*
X95828476Y-35839762D01*
X95780857Y-35792143D01*
X57521143Y-36425047D02*
X57568762Y-36472666D01*
X57616381Y-36615523D01*
X57616381Y-36710761D01*
X57568762Y-36853619D01*
X57473524Y-36948857D01*
X57378286Y-36996476D01*
X57187810Y-37044095D01*
X57044952Y-37044095D01*
X56854476Y-36996476D01*
X56759238Y-36948857D01*
X56664000Y-36853619D01*
X56616381Y-36710761D01*
X56616381Y-36615523D01*
X56664000Y-36472666D01*
X56711619Y-36425047D01*
X56616381Y-35520285D02*
X56616381Y-35996476D01*
X57092571Y-36044095D01*
X57044952Y-35996476D01*
X56997333Y-35901238D01*
X56997333Y-35663142D01*
X57044952Y-35567904D01*
X57092571Y-35520285D01*
X57187810Y-35472666D01*
X57425905Y-35472666D01*
X57521143Y-35520285D01*
X57568762Y-35567904D01*
X57616381Y-35663142D01*
X57616381Y-35901238D01*
X57568762Y-35996476D01*
X57521143Y-36044095D01*
X56616381Y-34853619D02*
X56616381Y-34758380D01*
X56664000Y-34663142D01*
X56711619Y-34615523D01*
X56806857Y-34567904D01*
X56997333Y-34520285D01*
X57235429Y-34520285D01*
X57425905Y-34567904D01*
X57521143Y-34615523D01*
X57568762Y-34663142D01*
X57616381Y-34758380D01*
X57616381Y-34853619D01*
X57568762Y-34948857D01*
X57521143Y-34996476D01*
X57425905Y-35044095D01*
X57235429Y-35091714D01*
X56997333Y-35091714D01*
X56806857Y-35044095D01*
X56711619Y-34996476D01*
X56664000Y-34948857D01*
X56616381Y-34853619D01*
X56616381Y-33663142D02*
X56616381Y-33853619D01*
X56664000Y-33948857D01*
X56711619Y-33996476D01*
X56854476Y-34091714D01*
X57044952Y-34139333D01*
X57425905Y-34139333D01*
X57521143Y-34091714D01*
X57568762Y-34044095D01*
X57616381Y-33948857D01*
X57616381Y-33758380D01*
X57568762Y-33663142D01*
X57521143Y-33615523D01*
X57425905Y-33567904D01*
X57187810Y-33567904D01*
X57092571Y-33615523D01*
X57044952Y-33663142D01*
X56997333Y-33758380D01*
X56997333Y-33948857D01*
X57044952Y-34044095D01*
X57092571Y-34091714D01*
X57187810Y-34139333D01*
X52159143Y-49633047D02*
X52206762Y-49680666D01*
X52254381Y-49823523D01*
X52254381Y-49918761D01*
X52206762Y-50061619D01*
X52111524Y-50156857D01*
X52016286Y-50204476D01*
X51825810Y-50252095D01*
X51682952Y-50252095D01*
X51492476Y-50204476D01*
X51397238Y-50156857D01*
X51302000Y-50061619D01*
X51254381Y-49918761D01*
X51254381Y-49823523D01*
X51302000Y-49680666D01*
X51349619Y-49633047D01*
X51254381Y-48728285D02*
X51254381Y-49204476D01*
X51730571Y-49252095D01*
X51682952Y-49204476D01*
X51635333Y-49109238D01*
X51635333Y-48871142D01*
X51682952Y-48775904D01*
X51730571Y-48728285D01*
X51825810Y-48680666D01*
X52063905Y-48680666D01*
X52159143Y-48728285D01*
X52206762Y-48775904D01*
X52254381Y-48871142D01*
X52254381Y-49109238D01*
X52206762Y-49204476D01*
X52159143Y-49252095D01*
X51254381Y-48061619D02*
X51254381Y-47966380D01*
X51302000Y-47871142D01*
X51349619Y-47823523D01*
X51444857Y-47775904D01*
X51635333Y-47728285D01*
X51873429Y-47728285D01*
X52063905Y-47775904D01*
X52159143Y-47823523D01*
X52206762Y-47871142D01*
X52254381Y-47966380D01*
X52254381Y-48061619D01*
X52206762Y-48156857D01*
X52159143Y-48204476D01*
X52063905Y-48252095D01*
X51873429Y-48299714D01*
X51635333Y-48299714D01*
X51444857Y-48252095D01*
X51349619Y-48204476D01*
X51302000Y-48156857D01*
X51254381Y-48061619D01*
X51254381Y-47394952D02*
X51254381Y-46728285D01*
X52254381Y-47156857D01*
X128895143Y-46077047D02*
X128942762Y-46124666D01*
X128990381Y-46267523D01*
X128990381Y-46362761D01*
X128942762Y-46505619D01*
X128847524Y-46600857D01*
X128752286Y-46648476D01*
X128561810Y-46696095D01*
X128418952Y-46696095D01*
X128228476Y-46648476D01*
X128133238Y-46600857D01*
X128038000Y-46505619D01*
X127990381Y-46362761D01*
X127990381Y-46267523D01*
X128038000Y-46124666D01*
X128085619Y-46077047D01*
X127990381Y-45172285D02*
X127990381Y-45648476D01*
X128466571Y-45696095D01*
X128418952Y-45648476D01*
X128371333Y-45553238D01*
X128371333Y-45315142D01*
X128418952Y-45219904D01*
X128466571Y-45172285D01*
X128561810Y-45124666D01*
X128799905Y-45124666D01*
X128895143Y-45172285D01*
X128942762Y-45219904D01*
X128990381Y-45315142D01*
X128990381Y-45553238D01*
X128942762Y-45648476D01*
X128895143Y-45696095D01*
X127990381Y-44505619D02*
X127990381Y-44410380D01*
X128038000Y-44315142D01*
X128085619Y-44267523D01*
X128180857Y-44219904D01*
X128371333Y-44172285D01*
X128609429Y-44172285D01*
X128799905Y-44219904D01*
X128895143Y-44267523D01*
X128942762Y-44315142D01*
X128990381Y-44410380D01*
X128990381Y-44505619D01*
X128942762Y-44600857D01*
X128895143Y-44648476D01*
X128799905Y-44696095D01*
X128609429Y-44743714D01*
X128371333Y-44743714D01*
X128180857Y-44696095D01*
X128085619Y-44648476D01*
X128038000Y-44600857D01*
X127990381Y-44505619D01*
X128418952Y-43600857D02*
X128371333Y-43696095D01*
X128323714Y-43743714D01*
X128228476Y-43791333D01*
X128180857Y-43791333D01*
X128085619Y-43743714D01*
X128038000Y-43696095D01*
X127990381Y-43600857D01*
X127990381Y-43410380D01*
X128038000Y-43315142D01*
X128085619Y-43267523D01*
X128180857Y-43219904D01*
X128228476Y-43219904D01*
X128323714Y-43267523D01*
X128371333Y-43315142D01*
X128418952Y-43410380D01*
X128418952Y-43600857D01*
X128466571Y-43696095D01*
X128514190Y-43743714D01*
X128609429Y-43791333D01*
X128799905Y-43791333D01*
X128895143Y-43743714D01*
X128942762Y-43696095D01*
X128990381Y-43600857D01*
X128990381Y-43410380D01*
X128942762Y-43315142D01*
X128895143Y-43267523D01*
X128799905Y-43219904D01*
X128609429Y-43219904D01*
X128514190Y-43267523D01*
X128466571Y-43315142D01*
X128418952Y-43410380D01*
X54219143Y-67667047D02*
X54266762Y-67714666D01*
X54314381Y-67857523D01*
X54314381Y-67952761D01*
X54266762Y-68095619D01*
X54171524Y-68190857D01*
X54076286Y-68238476D01*
X53885810Y-68286095D01*
X53742952Y-68286095D01*
X53552476Y-68238476D01*
X53457238Y-68190857D01*
X53362000Y-68095619D01*
X53314381Y-67952761D01*
X53314381Y-67857523D01*
X53362000Y-67714666D01*
X53409619Y-67667047D01*
X53314381Y-67333714D02*
X53314381Y-66714666D01*
X53695333Y-67048000D01*
X53695333Y-66905142D01*
X53742952Y-66809904D01*
X53790571Y-66762285D01*
X53885810Y-66714666D01*
X54123905Y-66714666D01*
X54219143Y-66762285D01*
X54266762Y-66809904D01*
X54314381Y-66905142D01*
X54314381Y-67190857D01*
X54266762Y-67286095D01*
X54219143Y-67333714D01*
X53314381Y-66095619D02*
X53314381Y-66000380D01*
X53362000Y-65905142D01*
X53409619Y-65857523D01*
X53504857Y-65809904D01*
X53695333Y-65762285D01*
X53933429Y-65762285D01*
X54123905Y-65809904D01*
X54219143Y-65857523D01*
X54266762Y-65905142D01*
X54314381Y-66000380D01*
X54314381Y-66095619D01*
X54266762Y-66190857D01*
X54219143Y-66238476D01*
X54123905Y-66286095D01*
X53933429Y-66333714D01*
X53695333Y-66333714D01*
X53504857Y-66286095D01*
X53409619Y-66238476D01*
X53362000Y-66190857D01*
X53314381Y-66095619D01*
X54314381Y-64809904D02*
X54314381Y-65381333D01*
X54314381Y-65095619D02*
X53314381Y-65095619D01*
X53457238Y-65190857D01*
X53552476Y-65286095D01*
X53600095Y-65381333D01*
X55207143Y-79097047D02*
X55254762Y-79144666D01*
X55302381Y-79287523D01*
X55302381Y-79382761D01*
X55254762Y-79525619D01*
X55159524Y-79620857D01*
X55064286Y-79668476D01*
X54873810Y-79716095D01*
X54730952Y-79716095D01*
X54540476Y-79668476D01*
X54445238Y-79620857D01*
X54350000Y-79525619D01*
X54302381Y-79382761D01*
X54302381Y-79287523D01*
X54350000Y-79144666D01*
X54397619Y-79097047D01*
X54302381Y-78763714D02*
X54302381Y-78144666D01*
X54683333Y-78478000D01*
X54683333Y-78335142D01*
X54730952Y-78239904D01*
X54778571Y-78192285D01*
X54873810Y-78144666D01*
X55111905Y-78144666D01*
X55207143Y-78192285D01*
X55254762Y-78239904D01*
X55302381Y-78335142D01*
X55302381Y-78620857D01*
X55254762Y-78716095D01*
X55207143Y-78763714D01*
X54302381Y-77525619D02*
X54302381Y-77430380D01*
X54350000Y-77335142D01*
X54397619Y-77287523D01*
X54492857Y-77239904D01*
X54683333Y-77192285D01*
X54921429Y-77192285D01*
X55111905Y-77239904D01*
X55207143Y-77287523D01*
X55254762Y-77335142D01*
X55302381Y-77430380D01*
X55302381Y-77525619D01*
X55254762Y-77620857D01*
X55207143Y-77668476D01*
X55111905Y-77716095D01*
X54921429Y-77763714D01*
X54683333Y-77763714D01*
X54492857Y-77716095D01*
X54397619Y-77668476D01*
X54350000Y-77620857D01*
X54302381Y-77525619D01*
X54397619Y-76811333D02*
X54350000Y-76763714D01*
X54302381Y-76668476D01*
X54302381Y-76430380D01*
X54350000Y-76335142D01*
X54397619Y-76287523D01*
X54492857Y-76239904D01*
X54588095Y-76239904D01*
X54730952Y-76287523D01*
X55302381Y-76858952D01*
X55302381Y-76239904D01*
X83175143Y-86209047D02*
X83222762Y-86256666D01*
X83270381Y-86399523D01*
X83270381Y-86494761D01*
X83222762Y-86637619D01*
X83127524Y-86732857D01*
X83032286Y-86780476D01*
X82841810Y-86828095D01*
X82698952Y-86828095D01*
X82508476Y-86780476D01*
X82413238Y-86732857D01*
X82318000Y-86637619D01*
X82270381Y-86494761D01*
X82270381Y-86399523D01*
X82318000Y-86256666D01*
X82365619Y-86209047D01*
X82270381Y-85875714D02*
X82270381Y-85256666D01*
X82651333Y-85590000D01*
X82651333Y-85447142D01*
X82698952Y-85351904D01*
X82746571Y-85304285D01*
X82841810Y-85256666D01*
X83079905Y-85256666D01*
X83175143Y-85304285D01*
X83222762Y-85351904D01*
X83270381Y-85447142D01*
X83270381Y-85732857D01*
X83222762Y-85828095D01*
X83175143Y-85875714D01*
X82270381Y-84637619D02*
X82270381Y-84542380D01*
X82318000Y-84447142D01*
X82365619Y-84399523D01*
X82460857Y-84351904D01*
X82651333Y-84304285D01*
X82889429Y-84304285D01*
X83079905Y-84351904D01*
X83175143Y-84399523D01*
X83222762Y-84447142D01*
X83270381Y-84542380D01*
X83270381Y-84637619D01*
X83222762Y-84732857D01*
X83175143Y-84780476D01*
X83079905Y-84828095D01*
X82889429Y-84875714D01*
X82651333Y-84875714D01*
X82460857Y-84828095D01*
X82365619Y-84780476D01*
X82318000Y-84732857D01*
X82270381Y-84637619D01*
X82270381Y-83970952D02*
X82270381Y-83351904D01*
X82651333Y-83685238D01*
X82651333Y-83542380D01*
X82698952Y-83447142D01*
X82746571Y-83399523D01*
X82841810Y-83351904D01*
X83079905Y-83351904D01*
X83175143Y-83399523D01*
X83222762Y-83447142D01*
X83270381Y-83542380D01*
X83270381Y-83828095D01*
X83222762Y-83923333D01*
X83175143Y-83970952D01*
X88481143Y-86209047D02*
X88528762Y-86256666D01*
X88576381Y-86399523D01*
X88576381Y-86494761D01*
X88528762Y-86637619D01*
X88433524Y-86732857D01*
X88338286Y-86780476D01*
X88147810Y-86828095D01*
X88004952Y-86828095D01*
X87814476Y-86780476D01*
X87719238Y-86732857D01*
X87624000Y-86637619D01*
X87576381Y-86494761D01*
X87576381Y-86399523D01*
X87624000Y-86256666D01*
X87671619Y-86209047D01*
X87576381Y-85875714D02*
X87576381Y-85256666D01*
X87957333Y-85590000D01*
X87957333Y-85447142D01*
X88004952Y-85351904D01*
X88052571Y-85304285D01*
X88147810Y-85256666D01*
X88385905Y-85256666D01*
X88481143Y-85304285D01*
X88528762Y-85351904D01*
X88576381Y-85447142D01*
X88576381Y-85732857D01*
X88528762Y-85828095D01*
X88481143Y-85875714D01*
X87576381Y-84637619D02*
X87576381Y-84542380D01*
X87624000Y-84447142D01*
X87671619Y-84399523D01*
X87766857Y-84351904D01*
X87957333Y-84304285D01*
X88195429Y-84304285D01*
X88385905Y-84351904D01*
X88481143Y-84399523D01*
X88528762Y-84447142D01*
X88576381Y-84542380D01*
X88576381Y-84637619D01*
X88528762Y-84732857D01*
X88481143Y-84780476D01*
X88385905Y-84828095D01*
X88195429Y-84875714D01*
X87957333Y-84875714D01*
X87766857Y-84828095D01*
X87671619Y-84780476D01*
X87624000Y-84732857D01*
X87576381Y-84637619D01*
X87909714Y-83447142D02*
X88576381Y-83447142D01*
X87528762Y-83685238D02*
X88243048Y-83923333D01*
X88243048Y-83304285D01*
X96891143Y-86209047D02*
X96938762Y-86256666D01*
X96986381Y-86399523D01*
X96986381Y-86494761D01*
X96938762Y-86637619D01*
X96843524Y-86732857D01*
X96748286Y-86780476D01*
X96557810Y-86828095D01*
X96414952Y-86828095D01*
X96224476Y-86780476D01*
X96129238Y-86732857D01*
X96034000Y-86637619D01*
X95986381Y-86494761D01*
X95986381Y-86399523D01*
X96034000Y-86256666D01*
X96081619Y-86209047D01*
X95986381Y-85875714D02*
X95986381Y-85256666D01*
X96367333Y-85590000D01*
X96367333Y-85447142D01*
X96414952Y-85351904D01*
X96462571Y-85304285D01*
X96557810Y-85256666D01*
X96795905Y-85256666D01*
X96891143Y-85304285D01*
X96938762Y-85351904D01*
X96986381Y-85447142D01*
X96986381Y-85732857D01*
X96938762Y-85828095D01*
X96891143Y-85875714D01*
X95986381Y-84637619D02*
X95986381Y-84542380D01*
X96034000Y-84447142D01*
X96081619Y-84399523D01*
X96176857Y-84351904D01*
X96367333Y-84304285D01*
X96605429Y-84304285D01*
X96795905Y-84351904D01*
X96891143Y-84399523D01*
X96938762Y-84447142D01*
X96986381Y-84542380D01*
X96986381Y-84637619D01*
X96938762Y-84732857D01*
X96891143Y-84780476D01*
X96795905Y-84828095D01*
X96605429Y-84875714D01*
X96367333Y-84875714D01*
X96176857Y-84828095D01*
X96081619Y-84780476D01*
X96034000Y-84732857D01*
X95986381Y-84637619D01*
X95986381Y-83399523D02*
X95986381Y-83875714D01*
X96462571Y-83923333D01*
X96414952Y-83875714D01*
X96367333Y-83780476D01*
X96367333Y-83542380D01*
X96414952Y-83447142D01*
X96462571Y-83399523D01*
X96557810Y-83351904D01*
X96795905Y-83351904D01*
X96891143Y-83399523D01*
X96938762Y-83447142D01*
X96986381Y-83542380D01*
X96986381Y-83780476D01*
X96938762Y-83875714D01*
X96891143Y-83923333D01*
X101689143Y-86209047D02*
X101736762Y-86256666D01*
X101784381Y-86399523D01*
X101784381Y-86494761D01*
X101736762Y-86637619D01*
X101641524Y-86732857D01*
X101546286Y-86780476D01*
X101355810Y-86828095D01*
X101212952Y-86828095D01*
X101022476Y-86780476D01*
X100927238Y-86732857D01*
X100832000Y-86637619D01*
X100784381Y-86494761D01*
X100784381Y-86399523D01*
X100832000Y-86256666D01*
X100879619Y-86209047D01*
X100784381Y-85875714D02*
X100784381Y-85256666D01*
X101165333Y-85590000D01*
X101165333Y-85447142D01*
X101212952Y-85351904D01*
X101260571Y-85304285D01*
X101355810Y-85256666D01*
X101593905Y-85256666D01*
X101689143Y-85304285D01*
X101736762Y-85351904D01*
X101784381Y-85447142D01*
X101784381Y-85732857D01*
X101736762Y-85828095D01*
X101689143Y-85875714D01*
X100784381Y-84637619D02*
X100784381Y-84542380D01*
X100832000Y-84447142D01*
X100879619Y-84399523D01*
X100974857Y-84351904D01*
X101165333Y-84304285D01*
X101403429Y-84304285D01*
X101593905Y-84351904D01*
X101689143Y-84399523D01*
X101736762Y-84447142D01*
X101784381Y-84542380D01*
X101784381Y-84637619D01*
X101736762Y-84732857D01*
X101689143Y-84780476D01*
X101593905Y-84828095D01*
X101403429Y-84875714D01*
X101165333Y-84875714D01*
X100974857Y-84828095D01*
X100879619Y-84780476D01*
X100832000Y-84732857D01*
X100784381Y-84637619D01*
X100784381Y-83447142D02*
X100784381Y-83637619D01*
X100832000Y-83732857D01*
X100879619Y-83780476D01*
X101022476Y-83875714D01*
X101212952Y-83923333D01*
X101593905Y-83923333D01*
X101689143Y-83875714D01*
X101736762Y-83828095D01*
X101784381Y-83732857D01*
X101784381Y-83542380D01*
X101736762Y-83447142D01*
X101689143Y-83399523D01*
X101593905Y-83351904D01*
X101355810Y-83351904D01*
X101260571Y-83399523D01*
X101212952Y-83447142D01*
X101165333Y-83542380D01*
X101165333Y-83732857D01*
X101212952Y-83828095D01*
X101260571Y-83875714D01*
X101355810Y-83923333D01*
X113909143Y-85955047D02*
X113956762Y-86002666D01*
X114004381Y-86145523D01*
X114004381Y-86240761D01*
X113956762Y-86383619D01*
X113861524Y-86478857D01*
X113766286Y-86526476D01*
X113575810Y-86574095D01*
X113432952Y-86574095D01*
X113242476Y-86526476D01*
X113147238Y-86478857D01*
X113052000Y-86383619D01*
X113004381Y-86240761D01*
X113004381Y-86145523D01*
X113052000Y-86002666D01*
X113099619Y-85955047D01*
X113004381Y-85621714D02*
X113004381Y-85002666D01*
X113385333Y-85336000D01*
X113385333Y-85193142D01*
X113432952Y-85097904D01*
X113480571Y-85050285D01*
X113575810Y-85002666D01*
X113813905Y-85002666D01*
X113909143Y-85050285D01*
X113956762Y-85097904D01*
X114004381Y-85193142D01*
X114004381Y-85478857D01*
X113956762Y-85574095D01*
X113909143Y-85621714D01*
X113004381Y-84383619D02*
X113004381Y-84288380D01*
X113052000Y-84193142D01*
X113099619Y-84145523D01*
X113194857Y-84097904D01*
X113385333Y-84050285D01*
X113623429Y-84050285D01*
X113813905Y-84097904D01*
X113909143Y-84145523D01*
X113956762Y-84193142D01*
X114004381Y-84288380D01*
X114004381Y-84383619D01*
X113956762Y-84478857D01*
X113909143Y-84526476D01*
X113813905Y-84574095D01*
X113623429Y-84621714D01*
X113385333Y-84621714D01*
X113194857Y-84574095D01*
X113099619Y-84526476D01*
X113052000Y-84478857D01*
X113004381Y-84383619D01*
X113004381Y-83716952D02*
X113004381Y-83050285D01*
X114004381Y-83478857D01*
X118453143Y-85955047D02*
X118500762Y-86002666D01*
X118548381Y-86145523D01*
X118548381Y-86240761D01*
X118500762Y-86383619D01*
X118405524Y-86478857D01*
X118310286Y-86526476D01*
X118119810Y-86574095D01*
X117976952Y-86574095D01*
X117786476Y-86526476D01*
X117691238Y-86478857D01*
X117596000Y-86383619D01*
X117548381Y-86240761D01*
X117548381Y-86145523D01*
X117596000Y-86002666D01*
X117643619Y-85955047D01*
X117548381Y-85621714D02*
X117548381Y-85002666D01*
X117929333Y-85336000D01*
X117929333Y-85193142D01*
X117976952Y-85097904D01*
X118024571Y-85050285D01*
X118119810Y-85002666D01*
X118357905Y-85002666D01*
X118453143Y-85050285D01*
X118500762Y-85097904D01*
X118548381Y-85193142D01*
X118548381Y-85478857D01*
X118500762Y-85574095D01*
X118453143Y-85621714D01*
X117548381Y-84383619D02*
X117548381Y-84288380D01*
X117596000Y-84193142D01*
X117643619Y-84145523D01*
X117738857Y-84097904D01*
X117929333Y-84050285D01*
X118167429Y-84050285D01*
X118357905Y-84097904D01*
X118453143Y-84145523D01*
X118500762Y-84193142D01*
X118548381Y-84288380D01*
X118548381Y-84383619D01*
X118500762Y-84478857D01*
X118453143Y-84526476D01*
X118357905Y-84574095D01*
X118167429Y-84621714D01*
X117929333Y-84621714D01*
X117738857Y-84574095D01*
X117643619Y-84526476D01*
X117596000Y-84478857D01*
X117548381Y-84383619D01*
X117976952Y-83478857D02*
X117929333Y-83574095D01*
X117881714Y-83621714D01*
X117786476Y-83669333D01*
X117738857Y-83669333D01*
X117643619Y-83621714D01*
X117596000Y-83574095D01*
X117548381Y-83478857D01*
X117548381Y-83288380D01*
X117596000Y-83193142D01*
X117643619Y-83145523D01*
X117738857Y-83097904D01*
X117786476Y-83097904D01*
X117881714Y-83145523D01*
X117929333Y-83193142D01*
X117976952Y-83288380D01*
X117976952Y-83478857D01*
X118024571Y-83574095D01*
X118072190Y-83621714D01*
X118167429Y-83669333D01*
X118357905Y-83669333D01*
X118453143Y-83621714D01*
X118500762Y-83574095D01*
X118548381Y-83478857D01*
X118548381Y-83288380D01*
X118500762Y-83193142D01*
X118453143Y-83145523D01*
X118357905Y-83097904D01*
X118167429Y-83097904D01*
X118072190Y-83145523D01*
X118024571Y-83193142D01*
X117976952Y-83288380D01*
X68697143Y-85955047D02*
X68744762Y-86002666D01*
X68792381Y-86145523D01*
X68792381Y-86240761D01*
X68744762Y-86383619D01*
X68649524Y-86478857D01*
X68554286Y-86526476D01*
X68363810Y-86574095D01*
X68220952Y-86574095D01*
X68030476Y-86526476D01*
X67935238Y-86478857D01*
X67840000Y-86383619D01*
X67792381Y-86240761D01*
X67792381Y-86145523D01*
X67840000Y-86002666D01*
X67887619Y-85955047D01*
X67792381Y-85621714D02*
X67792381Y-85002666D01*
X68173333Y-85336000D01*
X68173333Y-85193142D01*
X68220952Y-85097904D01*
X68268571Y-85050285D01*
X68363810Y-85002666D01*
X68601905Y-85002666D01*
X68697143Y-85050285D01*
X68744762Y-85097904D01*
X68792381Y-85193142D01*
X68792381Y-85478857D01*
X68744762Y-85574095D01*
X68697143Y-85621714D01*
X67792381Y-84383619D02*
X67792381Y-84288380D01*
X67840000Y-84193142D01*
X67887619Y-84145523D01*
X67982857Y-84097904D01*
X68173333Y-84050285D01*
X68411429Y-84050285D01*
X68601905Y-84097904D01*
X68697143Y-84145523D01*
X68744762Y-84193142D01*
X68792381Y-84288380D01*
X68792381Y-84383619D01*
X68744762Y-84478857D01*
X68697143Y-84526476D01*
X68601905Y-84574095D01*
X68411429Y-84621714D01*
X68173333Y-84621714D01*
X67982857Y-84574095D01*
X67887619Y-84526476D01*
X67840000Y-84478857D01*
X67792381Y-84383619D01*
X68792381Y-83574095D02*
X68792381Y-83383619D01*
X68744762Y-83288380D01*
X68697143Y-83240761D01*
X68554286Y-83145523D01*
X68363810Y-83097904D01*
X67982857Y-83097904D01*
X67887619Y-83145523D01*
X67840000Y-83193142D01*
X67792381Y-83288380D01*
X67792381Y-83478857D01*
X67840000Y-83574095D01*
X67887619Y-83621714D01*
X67982857Y-83669333D01*
X68220952Y-83669333D01*
X68316190Y-83621714D01*
X68363810Y-83574095D01*
X68411429Y-83478857D01*
X68411429Y-83288380D01*
X68363810Y-83193142D01*
X68316190Y-83145523D01*
X68220952Y-83097904D01*
X57521143Y-67667047D02*
X57568762Y-67714666D01*
X57616381Y-67857523D01*
X57616381Y-67952761D01*
X57568762Y-68095619D01*
X57473524Y-68190857D01*
X57378286Y-68238476D01*
X57187810Y-68286095D01*
X57044952Y-68286095D01*
X56854476Y-68238476D01*
X56759238Y-68190857D01*
X56664000Y-68095619D01*
X56616381Y-67952761D01*
X56616381Y-67857523D01*
X56664000Y-67714666D01*
X56711619Y-67667047D01*
X56616381Y-67333714D02*
X56616381Y-66714666D01*
X56997333Y-67048000D01*
X56997333Y-66905142D01*
X57044952Y-66809904D01*
X57092571Y-66762285D01*
X57187810Y-66714666D01*
X57425905Y-66714666D01*
X57521143Y-66762285D01*
X57568762Y-66809904D01*
X57616381Y-66905142D01*
X57616381Y-67190857D01*
X57568762Y-67286095D01*
X57521143Y-67333714D01*
X57616381Y-65762285D02*
X57616381Y-66333714D01*
X57616381Y-66048000D02*
X56616381Y-66048000D01*
X56759238Y-66143238D01*
X56854476Y-66238476D01*
X56902095Y-66333714D01*
X56616381Y-65143238D02*
X56616381Y-65047999D01*
X56664000Y-64952761D01*
X56711619Y-64905142D01*
X56806857Y-64857523D01*
X56997333Y-64809904D01*
X57235429Y-64809904D01*
X57425905Y-64857523D01*
X57521143Y-64905142D01*
X57568762Y-64952761D01*
X57616381Y-65047999D01*
X57616381Y-65143238D01*
X57568762Y-65238476D01*
X57521143Y-65286095D01*
X57425905Y-65333714D01*
X57235429Y-65381333D01*
X56997333Y-65381333D01*
X56806857Y-65333714D01*
X56711619Y-65286095D01*
X56664000Y-65238476D01*
X56616381Y-65143238D01*
X83716953Y-79873143D02*
X83669334Y-79920762D01*
X83526477Y-79968381D01*
X83431239Y-79968381D01*
X83288381Y-79920762D01*
X83193143Y-79825524D01*
X83145524Y-79730286D01*
X83097905Y-79539810D01*
X83097905Y-79396952D01*
X83145524Y-79206476D01*
X83193143Y-79111238D01*
X83288381Y-79016000D01*
X83431239Y-78968381D01*
X83526477Y-78968381D01*
X83669334Y-79016000D01*
X83716953Y-79063619D01*
X84050286Y-78968381D02*
X84669334Y-78968381D01*
X84336000Y-79349333D01*
X84478858Y-79349333D01*
X84574096Y-79396952D01*
X84621715Y-79444571D01*
X84669334Y-79539810D01*
X84669334Y-79777905D01*
X84621715Y-79873143D01*
X84574096Y-79920762D01*
X84478858Y-79968381D01*
X84193143Y-79968381D01*
X84097905Y-79920762D01*
X84050286Y-79873143D01*
X85621715Y-79968381D02*
X85050286Y-79968381D01*
X85336000Y-79968381D02*
X85336000Y-78968381D01*
X85240762Y-79111238D01*
X85145524Y-79206476D01*
X85050286Y-79254095D01*
X86574096Y-79968381D02*
X86002667Y-79968381D01*
X86288381Y-79968381D02*
X86288381Y-78968381D01*
X86193143Y-79111238D01*
X86097905Y-79206476D01*
X86002667Y-79254095D01*
X59299143Y-93321047D02*
X59346762Y-93368666D01*
X59394381Y-93511523D01*
X59394381Y-93606761D01*
X59346762Y-93749619D01*
X59251524Y-93844857D01*
X59156286Y-93892476D01*
X58965810Y-93940095D01*
X58822952Y-93940095D01*
X58632476Y-93892476D01*
X58537238Y-93844857D01*
X58442000Y-93749619D01*
X58394381Y-93606761D01*
X58394381Y-93511523D01*
X58442000Y-93368666D01*
X58489619Y-93321047D01*
X58394381Y-92987714D02*
X58394381Y-92368666D01*
X58775333Y-92702000D01*
X58775333Y-92559142D01*
X58822952Y-92463904D01*
X58870571Y-92416285D01*
X58965810Y-92368666D01*
X59203905Y-92368666D01*
X59299143Y-92416285D01*
X59346762Y-92463904D01*
X59394381Y-92559142D01*
X59394381Y-92844857D01*
X59346762Y-92940095D01*
X59299143Y-92987714D01*
X59394381Y-91416285D02*
X59394381Y-91987714D01*
X59394381Y-91702000D02*
X58394381Y-91702000D01*
X58537238Y-91797238D01*
X58632476Y-91892476D01*
X58680095Y-91987714D01*
X58489619Y-91035333D02*
X58442000Y-90987714D01*
X58394381Y-90892476D01*
X58394381Y-90654380D01*
X58442000Y-90559142D01*
X58489619Y-90511523D01*
X58584857Y-90463904D01*
X58680095Y-90463904D01*
X58822952Y-90511523D01*
X59394381Y-91082952D01*
X59394381Y-90463904D01*
X74003143Y-86209047D02*
X74050762Y-86256666D01*
X74098381Y-86399523D01*
X74098381Y-86494761D01*
X74050762Y-86637619D01*
X73955524Y-86732857D01*
X73860286Y-86780476D01*
X73669810Y-86828095D01*
X73526952Y-86828095D01*
X73336476Y-86780476D01*
X73241238Y-86732857D01*
X73146000Y-86637619D01*
X73098381Y-86494761D01*
X73098381Y-86399523D01*
X73146000Y-86256666D01*
X73193619Y-86209047D01*
X73098381Y-85875714D02*
X73098381Y-85256666D01*
X73479333Y-85590000D01*
X73479333Y-85447142D01*
X73526952Y-85351904D01*
X73574571Y-85304285D01*
X73669810Y-85256666D01*
X73907905Y-85256666D01*
X74003143Y-85304285D01*
X74050762Y-85351904D01*
X74098381Y-85447142D01*
X74098381Y-85732857D01*
X74050762Y-85828095D01*
X74003143Y-85875714D01*
X74098381Y-84304285D02*
X74098381Y-84875714D01*
X74098381Y-84590000D02*
X73098381Y-84590000D01*
X73241238Y-84685238D01*
X73336476Y-84780476D01*
X73384095Y-84875714D01*
X73098381Y-83970952D02*
X73098381Y-83351904D01*
X73479333Y-83685238D01*
X73479333Y-83542380D01*
X73526952Y-83447142D01*
X73574571Y-83399523D01*
X73669810Y-83351904D01*
X73907905Y-83351904D01*
X74003143Y-83399523D01*
X74050762Y-83447142D01*
X74098381Y-83542380D01*
X74098381Y-83828095D01*
X74050762Y-83923333D01*
X74003143Y-83970952D01*
X42251524Y-58344381D02*
X42251524Y-57344381D01*
X42632477Y-57344381D01*
X42727715Y-57392000D01*
X42775334Y-57439619D01*
X42822953Y-57534857D01*
X42822953Y-57677714D01*
X42775334Y-57772952D01*
X42727715Y-57820571D01*
X42632477Y-57868190D01*
X42251524Y-57868190D01*
X43156286Y-57344381D02*
X43775334Y-57344381D01*
X43442000Y-57725333D01*
X43584858Y-57725333D01*
X43680096Y-57772952D01*
X43727715Y-57820571D01*
X43775334Y-57915810D01*
X43775334Y-58153905D01*
X43727715Y-58249143D01*
X43680096Y-58296762D01*
X43584858Y-58344381D01*
X43299143Y-58344381D01*
X43203905Y-58296762D01*
X43156286Y-58249143D01*
X44394381Y-57344381D02*
X44489620Y-57344381D01*
X44584858Y-57392000D01*
X44632477Y-57439619D01*
X44680096Y-57534857D01*
X44727715Y-57725333D01*
X44727715Y-57963429D01*
X44680096Y-58153905D01*
X44632477Y-58249143D01*
X44584858Y-58296762D01*
X44489620Y-58344381D01*
X44394381Y-58344381D01*
X44299143Y-58296762D01*
X44251524Y-58249143D01*
X44203905Y-58153905D01*
X44156286Y-57963429D01*
X44156286Y-57725333D01*
X44203905Y-57534857D01*
X44251524Y-57439619D01*
X44299143Y-57392000D01*
X44394381Y-57344381D01*
X45680096Y-58344381D02*
X45108667Y-58344381D01*
X45394381Y-58344381D02*
X45394381Y-57344381D01*
X45299143Y-57487238D01*
X45203905Y-57582476D01*
X45108667Y-57630095D01*
X89332381Y-96940476D02*
X88332381Y-96940476D01*
X88332381Y-96559523D01*
X88380000Y-96464285D01*
X88427619Y-96416666D01*
X88522857Y-96369047D01*
X88665714Y-96369047D01*
X88760952Y-96416666D01*
X88808571Y-96464285D01*
X88856190Y-96559523D01*
X88856190Y-96940476D01*
X88332381Y-96035714D02*
X88332381Y-95416666D01*
X88713333Y-95750000D01*
X88713333Y-95607142D01*
X88760952Y-95511904D01*
X88808571Y-95464285D01*
X88903810Y-95416666D01*
X89141905Y-95416666D01*
X89237143Y-95464285D01*
X89284762Y-95511904D01*
X89332381Y-95607142D01*
X89332381Y-95892857D01*
X89284762Y-95988095D01*
X89237143Y-96035714D01*
X88332381Y-94797619D02*
X88332381Y-94702380D01*
X88380000Y-94607142D01*
X88427619Y-94559523D01*
X88522857Y-94511904D01*
X88713333Y-94464285D01*
X88951429Y-94464285D01*
X89141905Y-94511904D01*
X89237143Y-94559523D01*
X89284762Y-94607142D01*
X89332381Y-94702380D01*
X89332381Y-94797619D01*
X89284762Y-94892857D01*
X89237143Y-94940476D01*
X89141905Y-94988095D01*
X88951429Y-95035714D01*
X88713333Y-95035714D01*
X88522857Y-94988095D01*
X88427619Y-94940476D01*
X88380000Y-94892857D01*
X88332381Y-94797619D01*
X88427619Y-94083333D02*
X88380000Y-94035714D01*
X88332381Y-93940476D01*
X88332381Y-93702380D01*
X88380000Y-93607142D01*
X88427619Y-93559523D01*
X88522857Y-93511904D01*
X88618095Y-93511904D01*
X88760952Y-93559523D01*
X89332381Y-94130952D01*
X89332381Y-93511904D01*
X69238953Y-98242381D02*
X68905619Y-97766190D01*
X68667524Y-98242381D02*
X68667524Y-97242381D01*
X69048477Y-97242381D01*
X69143715Y-97290000D01*
X69191334Y-97337619D01*
X69238953Y-97432857D01*
X69238953Y-97575714D01*
X69191334Y-97670952D01*
X69143715Y-97718571D01*
X69048477Y-97766190D01*
X68667524Y-97766190D01*
X69572286Y-97242381D02*
X70191334Y-97242381D01*
X69858000Y-97623333D01*
X70000858Y-97623333D01*
X70096096Y-97670952D01*
X70143715Y-97718571D01*
X70191334Y-97813810D01*
X70191334Y-98051905D01*
X70143715Y-98147143D01*
X70096096Y-98194762D01*
X70000858Y-98242381D01*
X69715143Y-98242381D01*
X69619905Y-98194762D01*
X69572286Y-98147143D01*
X70810381Y-97242381D02*
X70905620Y-97242381D01*
X71000858Y-97290000D01*
X71048477Y-97337619D01*
X71096096Y-97432857D01*
X71143715Y-97623333D01*
X71143715Y-97861429D01*
X71096096Y-98051905D01*
X71048477Y-98147143D01*
X71000858Y-98194762D01*
X70905620Y-98242381D01*
X70810381Y-98242381D01*
X70715143Y-98194762D01*
X70667524Y-98147143D01*
X70619905Y-98051905D01*
X70572286Y-97861429D01*
X70572286Y-97623333D01*
X70619905Y-97432857D01*
X70667524Y-97337619D01*
X70715143Y-97290000D01*
X70810381Y-97242381D01*
X72096096Y-98242381D02*
X71524667Y-98242381D01*
X71810381Y-98242381D02*
X71810381Y-97242381D01*
X71715143Y-97385238D01*
X71619905Y-97480476D01*
X71524667Y-97528095D01*
X69238953Y-95194381D02*
X68905619Y-94718190D01*
X68667524Y-95194381D02*
X68667524Y-94194381D01*
X69048477Y-94194381D01*
X69143715Y-94242000D01*
X69191334Y-94289619D01*
X69238953Y-94384857D01*
X69238953Y-94527714D01*
X69191334Y-94622952D01*
X69143715Y-94670571D01*
X69048477Y-94718190D01*
X68667524Y-94718190D01*
X69572286Y-94194381D02*
X70191334Y-94194381D01*
X69858000Y-94575333D01*
X70000858Y-94575333D01*
X70096096Y-94622952D01*
X70143715Y-94670571D01*
X70191334Y-94765810D01*
X70191334Y-95003905D01*
X70143715Y-95099143D01*
X70096096Y-95146762D01*
X70000858Y-95194381D01*
X69715143Y-95194381D01*
X69619905Y-95146762D01*
X69572286Y-95099143D01*
X70810381Y-94194381D02*
X70905620Y-94194381D01*
X71000858Y-94242000D01*
X71048477Y-94289619D01*
X71096096Y-94384857D01*
X71143715Y-94575333D01*
X71143715Y-94813429D01*
X71096096Y-95003905D01*
X71048477Y-95099143D01*
X71000858Y-95146762D01*
X70905620Y-95194381D01*
X70810381Y-95194381D01*
X70715143Y-95146762D01*
X70667524Y-95099143D01*
X70619905Y-95003905D01*
X70572286Y-94813429D01*
X70572286Y-94575333D01*
X70619905Y-94384857D01*
X70667524Y-94289619D01*
X70715143Y-94242000D01*
X70810381Y-94194381D01*
X71524667Y-94289619D02*
X71572286Y-94242000D01*
X71667524Y-94194381D01*
X71905620Y-94194381D01*
X72000858Y-94242000D01*
X72048477Y-94289619D01*
X72096096Y-94384857D01*
X72096096Y-94480095D01*
X72048477Y-94622952D01*
X71477048Y-95194381D01*
X72096096Y-95194381D01*
X73048953Y-78176381D02*
X72715619Y-77700190D01*
X72477524Y-78176381D02*
X72477524Y-77176381D01*
X72858477Y-77176381D01*
X72953715Y-77224000D01*
X73001334Y-77271619D01*
X73048953Y-77366857D01*
X73048953Y-77509714D01*
X73001334Y-77604952D01*
X72953715Y-77652571D01*
X72858477Y-77700190D01*
X72477524Y-77700190D01*
X73382286Y-77176381D02*
X74001334Y-77176381D01*
X73668000Y-77557333D01*
X73810858Y-77557333D01*
X73906096Y-77604952D01*
X73953715Y-77652571D01*
X74001334Y-77747810D01*
X74001334Y-77985905D01*
X73953715Y-78081143D01*
X73906096Y-78128762D01*
X73810858Y-78176381D01*
X73525143Y-78176381D01*
X73429905Y-78128762D01*
X73382286Y-78081143D01*
X74620381Y-77176381D02*
X74715620Y-77176381D01*
X74810858Y-77224000D01*
X74858477Y-77271619D01*
X74906096Y-77366857D01*
X74953715Y-77557333D01*
X74953715Y-77795429D01*
X74906096Y-77985905D01*
X74858477Y-78081143D01*
X74810858Y-78128762D01*
X74715620Y-78176381D01*
X74620381Y-78176381D01*
X74525143Y-78128762D01*
X74477524Y-78081143D01*
X74429905Y-77985905D01*
X74382286Y-77795429D01*
X74382286Y-77557333D01*
X74429905Y-77366857D01*
X74477524Y-77271619D01*
X74525143Y-77224000D01*
X74620381Y-77176381D01*
X75287048Y-77176381D02*
X75906096Y-77176381D01*
X75572762Y-77557333D01*
X75715620Y-77557333D01*
X75810858Y-77604952D01*
X75858477Y-77652571D01*
X75906096Y-77747810D01*
X75906096Y-77985905D01*
X75858477Y-78081143D01*
X75810858Y-78128762D01*
X75715620Y-78176381D01*
X75429905Y-78176381D01*
X75334667Y-78128762D01*
X75287048Y-78081143D01*
X101276381Y-91797047D02*
X100800190Y-92130381D01*
X101276381Y-92368476D02*
X100276381Y-92368476D01*
X100276381Y-91987523D01*
X100324000Y-91892285D01*
X100371619Y-91844666D01*
X100466857Y-91797047D01*
X100609714Y-91797047D01*
X100704952Y-91844666D01*
X100752571Y-91892285D01*
X100800190Y-91987523D01*
X100800190Y-92368476D01*
X100276381Y-91463714D02*
X100276381Y-90844666D01*
X100657333Y-91178000D01*
X100657333Y-91035142D01*
X100704952Y-90939904D01*
X100752571Y-90892285D01*
X100847810Y-90844666D01*
X101085905Y-90844666D01*
X101181143Y-90892285D01*
X101228762Y-90939904D01*
X101276381Y-91035142D01*
X101276381Y-91320857D01*
X101228762Y-91416095D01*
X101181143Y-91463714D01*
X100276381Y-90225619D02*
X100276381Y-90130380D01*
X100324000Y-90035142D01*
X100371619Y-89987523D01*
X100466857Y-89939904D01*
X100657333Y-89892285D01*
X100895429Y-89892285D01*
X101085905Y-89939904D01*
X101181143Y-89987523D01*
X101228762Y-90035142D01*
X101276381Y-90130380D01*
X101276381Y-90225619D01*
X101228762Y-90320857D01*
X101181143Y-90368476D01*
X101085905Y-90416095D01*
X100895429Y-90463714D01*
X100657333Y-90463714D01*
X100466857Y-90416095D01*
X100371619Y-90368476D01*
X100324000Y-90320857D01*
X100276381Y-90225619D01*
X100609714Y-89035142D02*
X101276381Y-89035142D01*
X100228762Y-89273238D02*
X100943048Y-89511333D01*
X100943048Y-88892285D01*
X101276381Y-96623047D02*
X100800190Y-96956381D01*
X101276381Y-97194476D02*
X100276381Y-97194476D01*
X100276381Y-96813523D01*
X100324000Y-96718285D01*
X100371619Y-96670666D01*
X100466857Y-96623047D01*
X100609714Y-96623047D01*
X100704952Y-96670666D01*
X100752571Y-96718285D01*
X100800190Y-96813523D01*
X100800190Y-97194476D01*
X100276381Y-96289714D02*
X100276381Y-95670666D01*
X100657333Y-96004000D01*
X100657333Y-95861142D01*
X100704952Y-95765904D01*
X100752571Y-95718285D01*
X100847810Y-95670666D01*
X101085905Y-95670666D01*
X101181143Y-95718285D01*
X101228762Y-95765904D01*
X101276381Y-95861142D01*
X101276381Y-96146857D01*
X101228762Y-96242095D01*
X101181143Y-96289714D01*
X100276381Y-95051619D02*
X100276381Y-94956380D01*
X100324000Y-94861142D01*
X100371619Y-94813523D01*
X100466857Y-94765904D01*
X100657333Y-94718285D01*
X100895429Y-94718285D01*
X101085905Y-94765904D01*
X101181143Y-94813523D01*
X101228762Y-94861142D01*
X101276381Y-94956380D01*
X101276381Y-95051619D01*
X101228762Y-95146857D01*
X101181143Y-95194476D01*
X101085905Y-95242095D01*
X100895429Y-95289714D01*
X100657333Y-95289714D01*
X100466857Y-95242095D01*
X100371619Y-95194476D01*
X100324000Y-95146857D01*
X100276381Y-95051619D01*
X100276381Y-93813523D02*
X100276381Y-94289714D01*
X100752571Y-94337333D01*
X100704952Y-94289714D01*
X100657333Y-94194476D01*
X100657333Y-93956380D01*
X100704952Y-93861142D01*
X100752571Y-93813523D01*
X100847810Y-93765904D01*
X101085905Y-93765904D01*
X101181143Y-93813523D01*
X101228762Y-93861142D01*
X101276381Y-93956380D01*
X101276381Y-94194476D01*
X101228762Y-94289714D01*
X101181143Y-94337333D01*
X118068381Y-78589047D02*
X117592190Y-78922381D01*
X118068381Y-79160476D02*
X117068381Y-79160476D01*
X117068381Y-78779523D01*
X117116000Y-78684285D01*
X117163619Y-78636666D01*
X117258857Y-78589047D01*
X117401714Y-78589047D01*
X117496952Y-78636666D01*
X117544571Y-78684285D01*
X117592190Y-78779523D01*
X117592190Y-79160476D01*
X117068381Y-78255714D02*
X117068381Y-77636666D01*
X117449333Y-77970000D01*
X117449333Y-77827142D01*
X117496952Y-77731904D01*
X117544571Y-77684285D01*
X117639810Y-77636666D01*
X117877905Y-77636666D01*
X117973143Y-77684285D01*
X118020762Y-77731904D01*
X118068381Y-77827142D01*
X118068381Y-78112857D01*
X118020762Y-78208095D01*
X117973143Y-78255714D01*
X117068381Y-77017619D02*
X117068381Y-76922380D01*
X117116000Y-76827142D01*
X117163619Y-76779523D01*
X117258857Y-76731904D01*
X117449333Y-76684285D01*
X117687429Y-76684285D01*
X117877905Y-76731904D01*
X117973143Y-76779523D01*
X118020762Y-76827142D01*
X118068381Y-76922380D01*
X118068381Y-77017619D01*
X118020762Y-77112857D01*
X117973143Y-77160476D01*
X117877905Y-77208095D01*
X117687429Y-77255714D01*
X117449333Y-77255714D01*
X117258857Y-77208095D01*
X117163619Y-77160476D01*
X117116000Y-77112857D01*
X117068381Y-77017619D01*
X117068381Y-75827142D02*
X117068381Y-76017619D01*
X117116000Y-76112857D01*
X117163619Y-76160476D01*
X117306476Y-76255714D01*
X117496952Y-76303333D01*
X117877905Y-76303333D01*
X117973143Y-76255714D01*
X118020762Y-76208095D01*
X118068381Y-76112857D01*
X118068381Y-75922380D01*
X118020762Y-75827142D01*
X117973143Y-75779523D01*
X117877905Y-75731904D01*
X117639810Y-75731904D01*
X117544571Y-75779523D01*
X117496952Y-75827142D01*
X117449333Y-75922380D01*
X117449333Y-76112857D01*
X117496952Y-76208095D01*
X117544571Y-76255714D01*
X117639810Y-76303333D01*
X67072381Y-86804286D02*
X67881905Y-86804286D01*
X67977143Y-86756667D01*
X68024762Y-86709048D01*
X68072381Y-86613810D01*
X68072381Y-86423333D01*
X68024762Y-86328095D01*
X67977143Y-86280476D01*
X67881905Y-86232857D01*
X67072381Y-86232857D01*
X67072381Y-85851905D02*
X67072381Y-85232857D01*
X67453333Y-85566191D01*
X67453333Y-85423333D01*
X67500952Y-85328095D01*
X67548571Y-85280476D01*
X67643810Y-85232857D01*
X67881905Y-85232857D01*
X67977143Y-85280476D01*
X68024762Y-85328095D01*
X68072381Y-85423333D01*
X68072381Y-85709048D01*
X68024762Y-85804286D01*
X67977143Y-85851905D01*
X67072381Y-84613810D02*
X67072381Y-84518571D01*
X67120000Y-84423333D01*
X67167619Y-84375714D01*
X67262857Y-84328095D01*
X67453333Y-84280476D01*
X67691429Y-84280476D01*
X67881905Y-84328095D01*
X67977143Y-84375714D01*
X68024762Y-84423333D01*
X68072381Y-84518571D01*
X68072381Y-84613810D01*
X68024762Y-84709048D01*
X67977143Y-84756667D01*
X67881905Y-84804286D01*
X67691429Y-84851905D01*
X67453333Y-84851905D01*
X67262857Y-84804286D01*
X67167619Y-84756667D01*
X67120000Y-84709048D01*
X67072381Y-84613810D01*
X68072381Y-83328095D02*
X68072381Y-83899524D01*
X68072381Y-83613810D02*
X67072381Y-83613810D01*
X67215238Y-83709048D01*
X67310476Y-83804286D01*
X67358095Y-83899524D01*
X81550381Y-86804286D02*
X82359905Y-86804286D01*
X82455143Y-86756667D01*
X82502762Y-86709048D01*
X82550381Y-86613810D01*
X82550381Y-86423333D01*
X82502762Y-86328095D01*
X82455143Y-86280476D01*
X82359905Y-86232857D01*
X81550381Y-86232857D01*
X81550381Y-85851905D02*
X81550381Y-85232857D01*
X81931333Y-85566191D01*
X81931333Y-85423333D01*
X81978952Y-85328095D01*
X82026571Y-85280476D01*
X82121810Y-85232857D01*
X82359905Y-85232857D01*
X82455143Y-85280476D01*
X82502762Y-85328095D01*
X82550381Y-85423333D01*
X82550381Y-85709048D01*
X82502762Y-85804286D01*
X82455143Y-85851905D01*
X81550381Y-84613810D02*
X81550381Y-84518571D01*
X81598000Y-84423333D01*
X81645619Y-84375714D01*
X81740857Y-84328095D01*
X81931333Y-84280476D01*
X82169429Y-84280476D01*
X82359905Y-84328095D01*
X82455143Y-84375714D01*
X82502762Y-84423333D01*
X82550381Y-84518571D01*
X82550381Y-84613810D01*
X82502762Y-84709048D01*
X82455143Y-84756667D01*
X82359905Y-84804286D01*
X82169429Y-84851905D01*
X81931333Y-84851905D01*
X81740857Y-84804286D01*
X81645619Y-84756667D01*
X81598000Y-84709048D01*
X81550381Y-84613810D01*
X81550381Y-83947143D02*
X81550381Y-83328095D01*
X81931333Y-83661429D01*
X81931333Y-83518571D01*
X81978952Y-83423333D01*
X82026571Y-83375714D01*
X82121810Y-83328095D01*
X82359905Y-83328095D01*
X82455143Y-83375714D01*
X82502762Y-83423333D01*
X82550381Y-83518571D01*
X82550381Y-83804286D01*
X82502762Y-83899524D01*
X82455143Y-83947143D01*
X94758381Y-86804286D02*
X95567905Y-86804286D01*
X95663143Y-86756667D01*
X95710762Y-86709048D01*
X95758381Y-86613810D01*
X95758381Y-86423333D01*
X95710762Y-86328095D01*
X95663143Y-86280476D01*
X95567905Y-86232857D01*
X94758381Y-86232857D01*
X94758381Y-85851905D02*
X94758381Y-85232857D01*
X95139333Y-85566191D01*
X95139333Y-85423333D01*
X95186952Y-85328095D01*
X95234571Y-85280476D01*
X95329810Y-85232857D01*
X95567905Y-85232857D01*
X95663143Y-85280476D01*
X95710762Y-85328095D01*
X95758381Y-85423333D01*
X95758381Y-85709048D01*
X95710762Y-85804286D01*
X95663143Y-85851905D01*
X94758381Y-84613810D02*
X94758381Y-84518571D01*
X94806000Y-84423333D01*
X94853619Y-84375714D01*
X94948857Y-84328095D01*
X95139333Y-84280476D01*
X95377429Y-84280476D01*
X95567905Y-84328095D01*
X95663143Y-84375714D01*
X95710762Y-84423333D01*
X95758381Y-84518571D01*
X95758381Y-84613810D01*
X95710762Y-84709048D01*
X95663143Y-84756667D01*
X95567905Y-84804286D01*
X95377429Y-84851905D01*
X95139333Y-84851905D01*
X94948857Y-84804286D01*
X94853619Y-84756667D01*
X94806000Y-84709048D01*
X94758381Y-84613810D01*
X95091714Y-83423333D02*
X95758381Y-83423333D01*
X94710762Y-83661429D02*
X95425048Y-83899524D01*
X95425048Y-83280476D01*
X111776381Y-86550286D02*
X112585905Y-86550286D01*
X112681143Y-86502667D01*
X112728762Y-86455048D01*
X112776381Y-86359810D01*
X112776381Y-86169333D01*
X112728762Y-86074095D01*
X112681143Y-86026476D01*
X112585905Y-85978857D01*
X111776381Y-85978857D01*
X111776381Y-85597905D02*
X111776381Y-84978857D01*
X112157333Y-85312191D01*
X112157333Y-85169333D01*
X112204952Y-85074095D01*
X112252571Y-85026476D01*
X112347810Y-84978857D01*
X112585905Y-84978857D01*
X112681143Y-85026476D01*
X112728762Y-85074095D01*
X112776381Y-85169333D01*
X112776381Y-85455048D01*
X112728762Y-85550286D01*
X112681143Y-85597905D01*
X111776381Y-84359810D02*
X111776381Y-84264571D01*
X111824000Y-84169333D01*
X111871619Y-84121714D01*
X111966857Y-84074095D01*
X112157333Y-84026476D01*
X112395429Y-84026476D01*
X112585905Y-84074095D01*
X112681143Y-84121714D01*
X112728762Y-84169333D01*
X112776381Y-84264571D01*
X112776381Y-84359810D01*
X112728762Y-84455048D01*
X112681143Y-84502667D01*
X112585905Y-84550286D01*
X112395429Y-84597905D01*
X112157333Y-84597905D01*
X111966857Y-84550286D01*
X111871619Y-84502667D01*
X111824000Y-84455048D01*
X111776381Y-84359810D01*
X111776381Y-83121714D02*
X111776381Y-83597905D01*
X112252571Y-83645524D01*
X112204952Y-83597905D01*
X112157333Y-83502667D01*
X112157333Y-83264571D01*
X112204952Y-83169333D01*
X112252571Y-83121714D01*
X112347810Y-83074095D01*
X112585905Y-83074095D01*
X112681143Y-83121714D01*
X112728762Y-83169333D01*
X112776381Y-83264571D01*
X112776381Y-83502667D01*
X112728762Y-83597905D01*
X112681143Y-83645524D01*
X84502857Y-62678381D02*
X84740952Y-63678381D01*
X84931429Y-62964095D01*
X85121905Y-63678381D01*
X85360000Y-62678381D01*
X85645714Y-62678381D02*
X86264762Y-62678381D01*
X85931428Y-63059333D01*
X86074286Y-63059333D01*
X86169524Y-63106952D01*
X86217143Y-63154571D01*
X86264762Y-63249810D01*
X86264762Y-63487905D01*
X86217143Y-63583143D01*
X86169524Y-63630762D01*
X86074286Y-63678381D01*
X85788571Y-63678381D01*
X85693333Y-63630762D01*
X85645714Y-63583143D01*
X86883809Y-62678381D02*
X86979048Y-62678381D01*
X87074286Y-62726000D01*
X87121905Y-62773619D01*
X87169524Y-62868857D01*
X87217143Y-63059333D01*
X87217143Y-63297429D01*
X87169524Y-63487905D01*
X87121905Y-63583143D01*
X87074286Y-63630762D01*
X86979048Y-63678381D01*
X86883809Y-63678381D01*
X86788571Y-63630762D01*
X86740952Y-63583143D01*
X86693333Y-63487905D01*
X86645714Y-63297429D01*
X86645714Y-63059333D01*
X86693333Y-62868857D01*
X86740952Y-62773619D01*
X86788571Y-62726000D01*
X86883809Y-62678381D01*
X88169524Y-63678381D02*
X87598095Y-63678381D01*
X87883809Y-63678381D02*
X87883809Y-62678381D01*
X87788571Y-62821238D01*
X87693333Y-62916476D01*
X87598095Y-62964095D01*
X82994953Y-76255143D02*
X82947334Y-76302762D01*
X82804477Y-76350381D01*
X82709239Y-76350381D01*
X82566381Y-76302762D01*
X82471143Y-76207524D01*
X82423524Y-76112286D01*
X82375905Y-75921810D01*
X82375905Y-75778952D01*
X82423524Y-75588476D01*
X82471143Y-75493238D01*
X82566381Y-75398000D01*
X82709239Y-75350381D01*
X82804477Y-75350381D01*
X82947334Y-75398000D01*
X82994953Y-75445619D01*
X83328286Y-75350381D02*
X83947334Y-75350381D01*
X83614000Y-75731333D01*
X83756858Y-75731333D01*
X83852096Y-75778952D01*
X83899715Y-75826571D01*
X83947334Y-75921810D01*
X83947334Y-76159905D01*
X83899715Y-76255143D01*
X83852096Y-76302762D01*
X83756858Y-76350381D01*
X83471143Y-76350381D01*
X83375905Y-76302762D01*
X83328286Y-76255143D01*
X84899715Y-76350381D02*
X84328286Y-76350381D01*
X84614000Y-76350381D02*
X84614000Y-75350381D01*
X84518762Y-75493238D01*
X84423524Y-75588476D01*
X84328286Y-75636095D01*
X85756858Y-75683714D02*
X85756858Y-76350381D01*
X85518762Y-75302762D02*
X85280667Y-76017048D01*
X85899715Y-76017048D01*
X106767524Y-92990381D02*
X106767524Y-91990381D01*
X107005619Y-91990381D01*
X107148477Y-92038000D01*
X107243715Y-92133238D01*
X107291334Y-92228476D01*
X107338953Y-92418952D01*
X107338953Y-92561810D01*
X107291334Y-92752286D01*
X107243715Y-92847524D01*
X107148477Y-92942762D01*
X107005619Y-92990381D01*
X106767524Y-92990381D01*
X107672286Y-91990381D02*
X108291334Y-91990381D01*
X107958000Y-92371333D01*
X108100858Y-92371333D01*
X108196096Y-92418952D01*
X108243715Y-92466571D01*
X108291334Y-92561810D01*
X108291334Y-92799905D01*
X108243715Y-92895143D01*
X108196096Y-92942762D01*
X108100858Y-92990381D01*
X107815143Y-92990381D01*
X107719905Y-92942762D01*
X107672286Y-92895143D01*
X108910381Y-91990381D02*
X109005620Y-91990381D01*
X109100858Y-92038000D01*
X109148477Y-92085619D01*
X109196096Y-92180857D01*
X109243715Y-92371333D01*
X109243715Y-92609429D01*
X109196096Y-92799905D01*
X109148477Y-92895143D01*
X109100858Y-92942762D01*
X109005620Y-92990381D01*
X108910381Y-92990381D01*
X108815143Y-92942762D01*
X108767524Y-92895143D01*
X108719905Y-92799905D01*
X108672286Y-92609429D01*
X108672286Y-92371333D01*
X108719905Y-92180857D01*
X108767524Y-92085619D01*
X108815143Y-92038000D01*
X108910381Y-91990381D01*
X110196096Y-92990381D02*
X109624667Y-92990381D01*
X109910381Y-92990381D02*
X109910381Y-91990381D01*
X109815143Y-92133238D01*
X109719905Y-92228476D01*
X109624667Y-92276095D01*
X106396095Y-96890381D02*
X106396095Y-95890381D01*
X106967524Y-96890381D02*
X106538952Y-96318952D01*
X106967524Y-95890381D02*
X106396095Y-96461810D01*
X110019905Y-96604667D02*
X110496096Y-96604667D01*
X109924667Y-96890381D02*
X110258000Y-95890381D01*
X110591334Y-96890381D01*
X106767524Y-94096381D02*
X106767524Y-93096381D01*
X107005619Y-93096381D01*
X107148477Y-93144000D01*
X107243715Y-93239238D01*
X107291334Y-93334476D01*
X107338953Y-93524952D01*
X107338953Y-93667810D01*
X107291334Y-93858286D01*
X107243715Y-93953524D01*
X107148477Y-94048762D01*
X107005619Y-94096381D01*
X106767524Y-94096381D01*
X107672286Y-93096381D02*
X108291334Y-93096381D01*
X107958000Y-93477333D01*
X108100858Y-93477333D01*
X108196096Y-93524952D01*
X108243715Y-93572571D01*
X108291334Y-93667810D01*
X108291334Y-93905905D01*
X108243715Y-94001143D01*
X108196096Y-94048762D01*
X108100858Y-94096381D01*
X107815143Y-94096381D01*
X107719905Y-94048762D01*
X107672286Y-94001143D01*
X108910381Y-93096381D02*
X109005620Y-93096381D01*
X109100858Y-93144000D01*
X109148477Y-93191619D01*
X109196096Y-93286857D01*
X109243715Y-93477333D01*
X109243715Y-93715429D01*
X109196096Y-93905905D01*
X109148477Y-94001143D01*
X109100858Y-94048762D01*
X109005620Y-94096381D01*
X108910381Y-94096381D01*
X108815143Y-94048762D01*
X108767524Y-94001143D01*
X108719905Y-93905905D01*
X108672286Y-93715429D01*
X108672286Y-93477333D01*
X108719905Y-93286857D01*
X108767524Y-93191619D01*
X108815143Y-93144000D01*
X108910381Y-93096381D01*
X109624667Y-93191619D02*
X109672286Y-93144000D01*
X109767524Y-93096381D01*
X110005620Y-93096381D01*
X110100858Y-93144000D01*
X110148477Y-93191619D01*
X110196096Y-93286857D01*
X110196096Y-93382095D01*
X110148477Y-93524952D01*
X109577048Y-94096381D01*
X110196096Y-94096381D01*
X109996095Y-90196381D02*
X109996095Y-89196381D01*
X110567524Y-90196381D02*
X110138952Y-89624952D01*
X110567524Y-89196381D02*
X109996095Y-89767810D01*
X106419905Y-89910667D02*
X106896096Y-89910667D01*
X106324667Y-90196381D02*
X106658000Y-89196381D01*
X106991334Y-90196381D01*
M02*
