G04 #@! TF.FileFunction,Other,User*
%FSLAX46Y46*%
G04 Gerber Fmt 4.6, Leading zero omitted, Abs format (unit mm)*
G04 Created by KiCad (PCBNEW 4.0.4+dfsg1-stable) date Sun Jan 22 10:37:54 2017*
%MOMM*%
%LPD*%
G01*
G04 APERTURE LIST*
%ADD10C,0.100000*%
%ADD11C,0.050000*%
G04 APERTURE END LIST*
D10*
D11*
X61892000Y-81390000D02*
X51392000Y-81390000D01*
X61892000Y-88790000D02*
X51392000Y-88790000D01*
X61892000Y-81390000D02*
X61892000Y-88790000D01*
X51392000Y-81390000D02*
X51392000Y-88790000D01*
X53264000Y-36956000D02*
X53264000Y-33656000D01*
X53264000Y-33656000D02*
X56464000Y-33656000D01*
X56464000Y-33656000D02*
X56464000Y-36956000D01*
X56464000Y-36956000D02*
X53264000Y-36956000D01*
X52056000Y-41014000D02*
X56656000Y-41014000D01*
X52056000Y-43314000D02*
X56656000Y-43314000D01*
X52056000Y-41014000D02*
X52056000Y-43314000D01*
X56656000Y-41014000D02*
X56656000Y-43314000D01*
X125716000Y-49904000D02*
X130316000Y-49904000D01*
X125716000Y-52204000D02*
X130316000Y-52204000D01*
X125716000Y-49904000D02*
X125716000Y-52204000D01*
X130316000Y-49904000D02*
X130316000Y-52204000D01*
X49410000Y-33006000D02*
X49410000Y-37606000D01*
X47110000Y-33006000D02*
X47110000Y-37606000D01*
X49410000Y-33006000D02*
X47110000Y-33006000D01*
X49410000Y-37606000D02*
X47110000Y-37606000D01*
X59556000Y-50814000D02*
X59556000Y-46214000D01*
X61856000Y-50814000D02*
X61856000Y-46214000D01*
X59556000Y-50814000D02*
X61856000Y-50814000D01*
X59556000Y-46214000D02*
X61856000Y-46214000D01*
X130676000Y-47258000D02*
X130676000Y-42658000D01*
X132976000Y-47258000D02*
X132976000Y-42658000D01*
X130676000Y-47258000D02*
X132976000Y-47258000D01*
X130676000Y-42658000D02*
X132976000Y-42658000D01*
X56556000Y-40062000D02*
X52156000Y-40062000D01*
X56556000Y-37662000D02*
X52156000Y-37662000D01*
X56556000Y-40062000D02*
X56556000Y-37662000D01*
X52156000Y-40062000D02*
X52156000Y-37662000D01*
X57474000Y-39538000D02*
X57474000Y-35138000D01*
X59874000Y-39538000D02*
X59874000Y-35138000D01*
X57474000Y-39538000D02*
X59874000Y-39538000D01*
X57474000Y-35138000D02*
X59874000Y-35138000D01*
X52368000Y-52010000D02*
X57868000Y-52010000D01*
X52368000Y-44510000D02*
X57868000Y-44510000D01*
X52368000Y-52010000D02*
X52368000Y-44510000D01*
X57868000Y-52010000D02*
X57868000Y-44510000D01*
X124250000Y-48200000D02*
X129750000Y-48200000D01*
X124250000Y-40700000D02*
X129750000Y-40700000D01*
X124250000Y-48200000D02*
X124250000Y-40700000D01*
X129750000Y-48200000D02*
X129750000Y-40700000D01*
X42192000Y-34064000D02*
X42192000Y-52814000D01*
X45692000Y-34064000D02*
X45692000Y-52814000D01*
X42192000Y-34064000D02*
X45692000Y-34064000D01*
X42192000Y-52814000D02*
X45692000Y-52814000D01*
X125146000Y-37972000D02*
X125146000Y-34672000D01*
X125146000Y-34672000D02*
X128346000Y-34672000D01*
X128346000Y-34672000D02*
X128346000Y-37972000D01*
X128346000Y-37972000D02*
X125146000Y-37972000D01*
X47822000Y-43856000D02*
X47822000Y-39456000D01*
X50222000Y-43856000D02*
X50222000Y-39456000D01*
X47822000Y-43856000D02*
X50222000Y-43856000D01*
X47822000Y-39456000D02*
X50222000Y-39456000D01*
X52204000Y-33006000D02*
X52204000Y-37606000D01*
X49904000Y-33006000D02*
X49904000Y-37606000D01*
X52204000Y-33006000D02*
X49904000Y-33006000D01*
X52204000Y-37606000D02*
X49904000Y-37606000D01*
X49142000Y-50814000D02*
X49142000Y-46214000D01*
X51442000Y-50814000D02*
X51442000Y-46214000D01*
X49142000Y-50814000D02*
X51442000Y-50814000D01*
X49142000Y-46214000D02*
X51442000Y-46214000D01*
X123578000Y-42658000D02*
X123578000Y-47258000D01*
X121278000Y-42658000D02*
X121278000Y-47258000D01*
X123578000Y-42658000D02*
X121278000Y-42658000D01*
X123578000Y-47258000D02*
X121278000Y-47258000D01*
X52712000Y-64248000D02*
X52712000Y-68848000D01*
X50412000Y-64248000D02*
X50412000Y-68848000D01*
X52712000Y-64248000D02*
X50412000Y-64248000D01*
X52712000Y-68848000D02*
X50412000Y-68848000D01*
X56000000Y-80278000D02*
X56000000Y-75678000D01*
X58300000Y-80278000D02*
X58300000Y-75678000D01*
X56000000Y-80278000D02*
X58300000Y-80278000D01*
X56000000Y-75678000D02*
X58300000Y-75678000D01*
X81668000Y-82790000D02*
X81668000Y-87390000D01*
X79368000Y-82790000D02*
X79368000Y-87390000D01*
X81668000Y-82790000D02*
X79368000Y-82790000D01*
X81668000Y-87390000D02*
X79368000Y-87390000D01*
X89274000Y-87390000D02*
X89274000Y-82790000D01*
X91574000Y-87390000D02*
X91574000Y-82790000D01*
X89274000Y-87390000D02*
X91574000Y-87390000D01*
X89274000Y-82790000D02*
X91574000Y-82790000D01*
X95384000Y-82790000D02*
X95384000Y-87390000D01*
X93084000Y-82790000D02*
X93084000Y-87390000D01*
X95384000Y-82790000D02*
X93084000Y-82790000D01*
X95384000Y-87390000D02*
X93084000Y-87390000D01*
X102482000Y-87390000D02*
X102482000Y-82790000D01*
X104782000Y-87390000D02*
X104782000Y-82790000D01*
X102482000Y-87390000D02*
X104782000Y-87390000D01*
X102482000Y-82790000D02*
X104782000Y-82790000D01*
X112402000Y-82536000D02*
X112402000Y-87136000D01*
X110102000Y-82536000D02*
X110102000Y-87136000D01*
X112402000Y-82536000D02*
X110102000Y-82536000D01*
X112402000Y-87136000D02*
X110102000Y-87136000D01*
X119246000Y-87136000D02*
X119246000Y-82536000D01*
X121546000Y-87136000D02*
X121546000Y-82536000D01*
X119246000Y-87136000D02*
X121546000Y-87136000D01*
X119246000Y-82536000D02*
X121546000Y-82536000D01*
X67190000Y-82536000D02*
X67190000Y-87136000D01*
X64890000Y-82536000D02*
X64890000Y-87136000D01*
X67190000Y-82536000D02*
X64890000Y-82536000D01*
X67190000Y-87136000D02*
X64890000Y-87136000D01*
X56014000Y-64248000D02*
X56014000Y-68848000D01*
X53714000Y-64248000D02*
X53714000Y-68848000D01*
X56014000Y-64248000D02*
X53714000Y-64248000D01*
X56014000Y-68848000D02*
X53714000Y-68848000D01*
X87136000Y-78366000D02*
X82536000Y-78366000D01*
X87136000Y-76066000D02*
X82536000Y-76066000D01*
X87136000Y-78366000D02*
X87136000Y-76066000D01*
X82536000Y-78366000D02*
X82536000Y-76066000D01*
X57792000Y-89902000D02*
X57792000Y-94502000D01*
X55492000Y-89902000D02*
X55492000Y-94502000D01*
X57792000Y-89902000D02*
X55492000Y-89902000D01*
X57792000Y-94502000D02*
X55492000Y-94502000D01*
X74796000Y-87390000D02*
X74796000Y-82790000D01*
X77096000Y-87390000D02*
X77096000Y-82790000D01*
X74796000Y-87390000D02*
X77096000Y-87390000D01*
X74796000Y-82790000D02*
X77096000Y-82790000D01*
X42192000Y-61242000D02*
X42192000Y-100342000D01*
X45692000Y-61242000D02*
X45692000Y-100342000D01*
X42192000Y-61242000D02*
X45692000Y-61242000D01*
X42192000Y-100342000D02*
X45692000Y-100342000D01*
X92230000Y-97000000D02*
X100830000Y-97000000D01*
X92230000Y-93500000D02*
X100830000Y-93500000D01*
X92230000Y-97000000D02*
X92230000Y-93500000D01*
X100830000Y-97000000D02*
X100830000Y-93500000D01*
X101924000Y-92878000D02*
X101924000Y-88478000D01*
X104324000Y-92878000D02*
X104324000Y-88478000D01*
X101924000Y-92878000D02*
X104324000Y-92878000D01*
X101924000Y-88478000D02*
X104324000Y-88478000D01*
X101924000Y-97704000D02*
X101924000Y-93304000D01*
X104324000Y-97704000D02*
X104324000Y-93304000D01*
X101924000Y-97704000D02*
X104324000Y-97704000D01*
X101924000Y-93304000D02*
X104324000Y-93304000D01*
X116516000Y-75270000D02*
X116516000Y-79670000D01*
X114116000Y-75270000D02*
X114116000Y-79670000D01*
X116516000Y-75270000D02*
X114116000Y-75270000D01*
X116516000Y-79670000D02*
X114116000Y-79670000D01*
X68370000Y-88840000D02*
X73870000Y-88840000D01*
X68370000Y-81340000D02*
X73870000Y-81340000D01*
X68370000Y-88840000D02*
X68370000Y-81340000D01*
X73870000Y-88840000D02*
X73870000Y-81340000D01*
X82848000Y-88840000D02*
X88348000Y-88840000D01*
X82848000Y-81340000D02*
X88348000Y-81340000D01*
X82848000Y-88840000D02*
X82848000Y-81340000D01*
X88348000Y-88840000D02*
X88348000Y-81340000D01*
X96056000Y-88840000D02*
X101556000Y-88840000D01*
X96056000Y-81340000D02*
X101556000Y-81340000D01*
X96056000Y-88840000D02*
X96056000Y-81340000D01*
X101556000Y-88840000D02*
X101556000Y-81340000D01*
X113074000Y-88586000D02*
X118574000Y-88586000D01*
X113074000Y-81086000D02*
X118574000Y-81086000D01*
X113074000Y-88586000D02*
X113074000Y-81086000D01*
X118574000Y-88586000D02*
X118574000Y-81086000D01*
X84610000Y-66576000D02*
X84610000Y-70076000D01*
X88110000Y-66576000D02*
X88110000Y-70076000D01*
X84610000Y-66576000D02*
X88110000Y-66576000D01*
X84610000Y-70076000D02*
X88110000Y-70076000D01*
X87864000Y-74898000D02*
X80364000Y-74898000D01*
X80364000Y-74898000D02*
X80364000Y-70898000D01*
X80364000Y-70898000D02*
X87864000Y-70898000D01*
X87864000Y-70898000D02*
X87864000Y-74898000D01*
X105908000Y-93488000D02*
X111008000Y-93488000D01*
X111008000Y-93488000D02*
X111008000Y-95488000D01*
X111008000Y-95488000D02*
X105908000Y-95488000D01*
X105908000Y-95488000D02*
X105908000Y-93488000D01*
X111008000Y-92694000D02*
X105908000Y-92694000D01*
X105908000Y-92694000D02*
X105908000Y-90694000D01*
X105908000Y-90694000D02*
X111008000Y-90694000D01*
X111008000Y-90694000D02*
X111008000Y-92694000D01*
M02*
