G04 #@! TF.FileFunction,Soldermask,Top*
%FSLAX46Y46*%
G04 Gerber Fmt 4.6, Leading zero omitted, Abs format (unit mm)*
G04 Created by KiCad (PCBNEW 4.0.4+dfsg1-stable) date Fri Jan 20 23:08:29 2017*
%MOMM*%
%LPD*%
G01*
G04 APERTURE LIST*
%ADD10C,0.100000*%
%ADD11R,0.800100X0.800100*%
%ADD12R,1.000000X1.600000*%
%ADD13R,1.600000X1.000000*%
%ADD14C,1.699260*%
%ADD15R,1.699260X1.699260*%
%ADD16C,1.998980*%
%ADD17R,0.900000X1.700000*%
%ADD18R,1.700000X0.900000*%
%ADD19R,0.600000X1.550000*%
%ADD20R,2.032000X1.727200*%
%ADD21O,2.032000X1.727200*%
%ADD22C,1.524000*%
%ADD23O,1.501140X2.499360*%
G04 APERTURE END LIST*
D10*
D11*
X55864760Y-36256000D03*
X55864760Y-34356000D03*
X53865780Y-35306000D03*
D12*
X52856000Y-42164000D03*
X55856000Y-42164000D03*
X111482000Y-51054000D03*
X108482000Y-51054000D03*
D13*
X49022000Y-34314000D03*
X49022000Y-37314000D03*
X50038000Y-48030000D03*
X50038000Y-51030000D03*
X117348000Y-43204000D03*
X117348000Y-46204000D03*
D14*
X82293460Y-37083480D03*
D15*
X82293460Y-47243480D03*
D14*
X88389460Y-37083480D03*
D15*
X88389460Y-47243480D03*
D16*
X81280000Y-42164000D03*
X88900000Y-42164000D03*
D17*
X55806000Y-38862000D03*
X52906000Y-38862000D03*
D18*
X58674000Y-37264000D03*
X58674000Y-34364000D03*
D19*
X53213000Y-50960000D03*
X54483000Y-50960000D03*
X55753000Y-50960000D03*
X57023000Y-50960000D03*
X57023000Y-45560000D03*
X55753000Y-45560000D03*
X54483000Y-45560000D03*
X53213000Y-45560000D03*
X110363000Y-47150000D03*
X111633000Y-47150000D03*
X112903000Y-47150000D03*
X114173000Y-47150000D03*
X114173000Y-41750000D03*
X112903000Y-41750000D03*
X111633000Y-41750000D03*
X110363000Y-41750000D03*
D20*
X43942000Y-35814000D03*
D21*
X43942000Y-38354000D03*
X43942000Y-40894000D03*
X43942000Y-43434000D03*
X43942000Y-45974000D03*
X43942000Y-48514000D03*
X43942000Y-51054000D03*
D11*
X112506760Y-37780000D03*
X112506760Y-35880000D03*
X110507780Y-36830000D03*
D22*
X67056000Y-41148000D03*
X69596000Y-43688000D03*
X64516000Y-43688000D03*
D23*
X69088000Y-36068000D03*
X64008000Y-36068000D03*
X64008000Y-49022000D03*
X69088000Y-49022000D03*
X103886000Y-34036000D03*
X98806000Y-34036000D03*
X103886000Y-39624000D03*
X98806000Y-39624000D03*
X103886000Y-51308000D03*
X98806000Y-51308000D03*
X98806000Y-46736000D03*
X103886000Y-46736000D03*
D18*
X49276000Y-43106000D03*
X49276000Y-40206000D03*
M02*
