%TF.GenerationSoftware,KiCad,Pcbnew,4.0.4+dfsg1-stable*%
%TF.CreationDate,2017-01-22T14:38:32+11:00*%
%TF.ProjectId,main,6D61696E2E6B696361645F7063620000,rev?*%
%TF.FileFunction,Copper,L3,Inr,Signal*%
%FSLAX46Y46*%
G04 Gerber Fmt 4.6, Leading zero omitted, Abs format (unit mm)*
G04 Created by KiCad (PCBNEW 4.0.4+dfsg1-stable) date Sun Jan 22 14:38:32 2017*
%MOMM*%
%LPD*%
G01*
G04 APERTURE LIST*
%ADD10C,0.100000*%
%ADD11R,2.032000X1.727200*%
%ADD12O,2.032000X1.727200*%
%ADD13C,1.524000*%
%ADD14O,1.501140X2.499360*%
%ADD15R,1.727200X2.032000*%
%ADD16O,1.727200X2.032000*%
%ADD17R,2.235200X2.235200*%
%ADD18R,1.300000X1.300000*%
%ADD19C,1.300000*%
%ADD20C,1.000000*%
%ADD21C,0.254000*%
G04 APERTURE END LIST*
D10*
D11*
X43942000Y-35814000D03*
D12*
X43942000Y-38354000D03*
X43942000Y-40894000D03*
X43942000Y-43434000D03*
X43942000Y-45974000D03*
X43942000Y-48514000D03*
X43942000Y-51054000D03*
D13*
X67056000Y-41148000D03*
X69596000Y-43688000D03*
X64516000Y-43688000D03*
D14*
X69088000Y-35052000D03*
X64008000Y-35052000D03*
X64008000Y-49022000D03*
X69088000Y-49022000D03*
X118618000Y-34036000D03*
X113538000Y-34036000D03*
X118618000Y-39624000D03*
X113538000Y-39624000D03*
X118618000Y-51308000D03*
X113538000Y-51308000D03*
D13*
X115570000Y-44704000D03*
X118110000Y-47244000D03*
X113030000Y-47244000D03*
X88011000Y-41910000D03*
X90678000Y-44704000D03*
X93218000Y-41910000D03*
X90678000Y-39243000D03*
X92456000Y-40005000D03*
D11*
X43942000Y-62992000D03*
D12*
X43942000Y-65532000D03*
X43942000Y-68072000D03*
X43942000Y-70612000D03*
X43942000Y-73152000D03*
X43942000Y-75692000D03*
X43942000Y-78232000D03*
X43942000Y-80772000D03*
X43942000Y-83312000D03*
X43942000Y-85852000D03*
X43942000Y-88392000D03*
X43942000Y-90932000D03*
X43942000Y-93472000D03*
X43942000Y-96012000D03*
X43942000Y-98552000D03*
D15*
X93980000Y-95250000D03*
D16*
X96520000Y-95250000D03*
X99060000Y-95250000D03*
D14*
X72898000Y-92710000D03*
X67818000Y-92710000D03*
X67818000Y-99822000D03*
X72898000Y-99822000D03*
X76708000Y-72644000D03*
X71628000Y-72644000D03*
D17*
X86360000Y-68326000D03*
D18*
X86614000Y-72898000D03*
D19*
X81614000Y-72898000D03*
D20*
X59690000Y-93726000D03*
X51562000Y-62484000D03*
X115316000Y-73660000D03*
X111252000Y-81280000D03*
X94234000Y-81280000D03*
X80518000Y-81280000D03*
X66040000Y-81280000D03*
X123444000Y-36322000D03*
X122428000Y-40894000D03*
X50292000Y-52578000D03*
X51054000Y-31750000D03*
X53848000Y-31750000D03*
X76200000Y-88900000D03*
X54864000Y-62484000D03*
X120396000Y-88900000D03*
X106172000Y-86614000D03*
X55118000Y-77470000D03*
X90424000Y-88900000D03*
X131826000Y-48768000D03*
X48260000Y-31750000D03*
X57150000Y-53594000D03*
X106172000Y-89154000D03*
X54864000Y-70612000D03*
X56642000Y-96774000D03*
X120396000Y-81280000D03*
X111252000Y-88646000D03*
X86360000Y-90170000D03*
X103632000Y-81280000D03*
X94234000Y-88900000D03*
X75946000Y-81280000D03*
X71882000Y-89916000D03*
X90424000Y-81280000D03*
X80518000Y-88900000D03*
X55118000Y-79756000D03*
X57150000Y-74676000D03*
X66040000Y-88900000D03*
X131826000Y-51054000D03*
X122428000Y-49276000D03*
X60706000Y-44450000D03*
X131826000Y-40894000D03*
X50292000Y-44958000D03*
X46736000Y-38608000D03*
X64516000Y-89408000D03*
X59944000Y-89408000D03*
X96266000Y-85852000D03*
X96520000Y-79502000D03*
X96266000Y-90170000D03*
X81280000Y-78232000D03*
X58928000Y-85598000D03*
X66040000Y-77978000D03*
X85090000Y-85852000D03*
X99568000Y-79502000D03*
X99060000Y-92202000D03*
X50800000Y-85598000D03*
X55626000Y-85598000D03*
X49530000Y-84074000D03*
X61214000Y-84074000D03*
X50546000Y-80518000D03*
X46990000Y-88646000D03*
X52832000Y-90932000D03*
X60452000Y-90932000D03*
X66040000Y-75692000D03*
X61722000Y-79502000D03*
D21*
G36*
X134493000Y-104267000D02*
X41529000Y-104267000D01*
X41529000Y-65532000D01*
X42258655Y-65532000D01*
X42372729Y-66105489D01*
X42697585Y-66591670D01*
X43012366Y-66802000D01*
X42697585Y-67012330D01*
X42372729Y-67498511D01*
X42258655Y-68072000D01*
X42372729Y-68645489D01*
X42697585Y-69131670D01*
X43012366Y-69342000D01*
X42697585Y-69552330D01*
X42372729Y-70038511D01*
X42258655Y-70612000D01*
X42372729Y-71185489D01*
X42697585Y-71671670D01*
X43012366Y-71882000D01*
X42697585Y-72092330D01*
X42372729Y-72578511D01*
X42258655Y-73152000D01*
X42372729Y-73725489D01*
X42697585Y-74211670D01*
X43012366Y-74422000D01*
X42697585Y-74632330D01*
X42372729Y-75118511D01*
X42258655Y-75692000D01*
X42372729Y-76265489D01*
X42697585Y-76751670D01*
X43012366Y-76962000D01*
X42697585Y-77172330D01*
X42372729Y-77658511D01*
X42258655Y-78232000D01*
X42372729Y-78805489D01*
X42697585Y-79291670D01*
X43012366Y-79502000D01*
X42697585Y-79712330D01*
X42372729Y-80198511D01*
X42258655Y-80772000D01*
X42372729Y-81345489D01*
X42697585Y-81831670D01*
X43012366Y-82042000D01*
X42697585Y-82252330D01*
X42372729Y-82738511D01*
X42258655Y-83312000D01*
X42372729Y-83885489D01*
X42697585Y-84371670D01*
X43012366Y-84582000D01*
X42697585Y-84792330D01*
X42372729Y-85278511D01*
X42258655Y-85852000D01*
X42372729Y-86425489D01*
X42697585Y-86911670D01*
X43012366Y-87122000D01*
X42697585Y-87332330D01*
X42372729Y-87818511D01*
X42258655Y-88392000D01*
X42372729Y-88965489D01*
X42697585Y-89451670D01*
X43012366Y-89662000D01*
X42697585Y-89872330D01*
X42372729Y-90358511D01*
X42258655Y-90932000D01*
X42372729Y-91505489D01*
X42697585Y-91991670D01*
X43012366Y-92202000D01*
X42697585Y-92412330D01*
X42372729Y-92898511D01*
X42258655Y-93472000D01*
X42372729Y-94045489D01*
X42697585Y-94531670D01*
X43012366Y-94742000D01*
X42697585Y-94952330D01*
X42372729Y-95438511D01*
X42258655Y-96012000D01*
X42372729Y-96585489D01*
X42697585Y-97071670D01*
X43012366Y-97282000D01*
X42697585Y-97492330D01*
X42372729Y-97978511D01*
X42258655Y-98552000D01*
X42372729Y-99125489D01*
X42697585Y-99611670D01*
X43183766Y-99936526D01*
X43757255Y-100050600D01*
X44126745Y-100050600D01*
X44700234Y-99936526D01*
X45186415Y-99611670D01*
X45404042Y-99285967D01*
X66432430Y-99285967D01*
X66432430Y-100358033D01*
X66537900Y-100888268D01*
X66838254Y-101337779D01*
X67287765Y-101638133D01*
X67818000Y-101743603D01*
X68348235Y-101638133D01*
X68797746Y-101337779D01*
X69098100Y-100888268D01*
X69203570Y-100358033D01*
X69203570Y-99285967D01*
X71512430Y-99285967D01*
X71512430Y-100358033D01*
X71617900Y-100888268D01*
X71918254Y-101337779D01*
X72367765Y-101638133D01*
X72898000Y-101743603D01*
X73428235Y-101638133D01*
X73877746Y-101337779D01*
X74178100Y-100888268D01*
X74283570Y-100358033D01*
X74283570Y-99285967D01*
X74178100Y-98755732D01*
X73877746Y-98306221D01*
X73428235Y-98005867D01*
X72898000Y-97900397D01*
X72367765Y-98005867D01*
X71918254Y-98306221D01*
X71617900Y-98755732D01*
X71512430Y-99285967D01*
X69203570Y-99285967D01*
X69098100Y-98755732D01*
X68797746Y-98306221D01*
X68348235Y-98005867D01*
X67818000Y-97900397D01*
X67287765Y-98005867D01*
X66838254Y-98306221D01*
X66537900Y-98755732D01*
X66432430Y-99285967D01*
X45404042Y-99285967D01*
X45511271Y-99125489D01*
X45625345Y-98552000D01*
X45511271Y-97978511D01*
X45186415Y-97492330D01*
X44871634Y-97282000D01*
X45186415Y-97071670D01*
X45235121Y-96998775D01*
X55506803Y-96998775D01*
X55679233Y-97416086D01*
X55998235Y-97735645D01*
X56415244Y-97908803D01*
X56866775Y-97909197D01*
X57284086Y-97736767D01*
X57603645Y-97417765D01*
X57776803Y-97000756D01*
X57777197Y-96549225D01*
X57604767Y-96131914D01*
X57285765Y-95812355D01*
X56868756Y-95639197D01*
X56417225Y-95638803D01*
X55999914Y-95811233D01*
X55680355Y-96130235D01*
X55507197Y-96547244D01*
X55506803Y-96998775D01*
X45235121Y-96998775D01*
X45511271Y-96585489D01*
X45625345Y-96012000D01*
X45511271Y-95438511D01*
X45186415Y-94952330D01*
X44871634Y-94742000D01*
X45186415Y-94531670D01*
X45511271Y-94045489D01*
X45625345Y-93472000D01*
X45511271Y-92898511D01*
X45186415Y-92412330D01*
X44871634Y-92202000D01*
X44913588Y-92173967D01*
X66432430Y-92173967D01*
X66432430Y-93246033D01*
X66537900Y-93776268D01*
X66838254Y-94225779D01*
X67287765Y-94526133D01*
X67818000Y-94631603D01*
X68348235Y-94526133D01*
X68797746Y-94225779D01*
X69098100Y-93776268D01*
X69203570Y-93246033D01*
X69203570Y-92173967D01*
X69098100Y-91643732D01*
X68797746Y-91194221D01*
X68348235Y-90893867D01*
X67818000Y-90788397D01*
X67287765Y-90893867D01*
X66838254Y-91194221D01*
X66537900Y-91643732D01*
X66432430Y-92173967D01*
X44913588Y-92173967D01*
X45186415Y-91991670D01*
X45511271Y-91505489D01*
X45580634Y-91156775D01*
X51696803Y-91156775D01*
X51869233Y-91574086D01*
X52188235Y-91893645D01*
X52605244Y-92066803D01*
X53056775Y-92067197D01*
X53474086Y-91894767D01*
X53793645Y-91575765D01*
X53966803Y-91158756D01*
X53967197Y-90707225D01*
X53794767Y-90289914D01*
X53475765Y-89970355D01*
X53058756Y-89797197D01*
X52607225Y-89796803D01*
X52189914Y-89969233D01*
X51870355Y-90288235D01*
X51697197Y-90705244D01*
X51696803Y-91156775D01*
X45580634Y-91156775D01*
X45625345Y-90932000D01*
X45511271Y-90358511D01*
X45186415Y-89872330D01*
X44871634Y-89662000D01*
X45186415Y-89451670D01*
X45511271Y-88965489D01*
X45530110Y-88870775D01*
X45854803Y-88870775D01*
X46027233Y-89288086D01*
X46346235Y-89607645D01*
X46763244Y-89780803D01*
X47214775Y-89781197D01*
X47573982Y-89632775D01*
X58808803Y-89632775D01*
X58981233Y-90050086D01*
X59300235Y-90369645D01*
X59433562Y-90425007D01*
X59317197Y-90705244D01*
X59316803Y-91156775D01*
X59489233Y-91574086D01*
X59808235Y-91893645D01*
X60225244Y-92066803D01*
X60676775Y-92067197D01*
X61094086Y-91894767D01*
X61413645Y-91575765D01*
X61586803Y-91158756D01*
X61587197Y-90707225D01*
X61414767Y-90289914D01*
X61095765Y-89970355D01*
X60962438Y-89914993D01*
X61078803Y-89634756D01*
X61078804Y-89632775D01*
X63380803Y-89632775D01*
X63553233Y-90050086D01*
X63872235Y-90369645D01*
X64289244Y-90542803D01*
X64740775Y-90543197D01*
X65158086Y-90370767D01*
X65388479Y-90140775D01*
X70746803Y-90140775D01*
X70919233Y-90558086D01*
X71238235Y-90877645D01*
X71655244Y-91050803D01*
X72106775Y-91051197D01*
X72173673Y-91023555D01*
X71918254Y-91194221D01*
X71617900Y-91643732D01*
X71512430Y-92173967D01*
X71512430Y-93246033D01*
X71617900Y-93776268D01*
X71918254Y-94225779D01*
X72367765Y-94526133D01*
X72898000Y-94631603D01*
X73428235Y-94526133D01*
X73865442Y-94234000D01*
X92468960Y-94234000D01*
X92468960Y-96266000D01*
X92513238Y-96501317D01*
X92652310Y-96717441D01*
X92864510Y-96862431D01*
X93116400Y-96913440D01*
X94843600Y-96913440D01*
X95078917Y-96869162D01*
X95295041Y-96730090D01*
X95440031Y-96517890D01*
X95448400Y-96476561D01*
X95460330Y-96494415D01*
X95946511Y-96819271D01*
X96520000Y-96933345D01*
X97093489Y-96819271D01*
X97579670Y-96494415D01*
X97790000Y-96179634D01*
X98000330Y-96494415D01*
X98486511Y-96819271D01*
X99060000Y-96933345D01*
X99633489Y-96819271D01*
X100119670Y-96494415D01*
X100444526Y-96008234D01*
X100558600Y-95434745D01*
X100558600Y-95065255D01*
X100444526Y-94491766D01*
X100119670Y-94005585D01*
X99633489Y-93680729D01*
X99060000Y-93566655D01*
X98486511Y-93680729D01*
X98000330Y-94005585D01*
X97790000Y-94320366D01*
X97579670Y-94005585D01*
X97093489Y-93680729D01*
X96520000Y-93566655D01*
X95946511Y-93680729D01*
X95460330Y-94005585D01*
X95450757Y-94019913D01*
X95446762Y-93998683D01*
X95307690Y-93782559D01*
X95095490Y-93637569D01*
X94843600Y-93586560D01*
X93116400Y-93586560D01*
X92881083Y-93630838D01*
X92664959Y-93769910D01*
X92519969Y-93982110D01*
X92468960Y-94234000D01*
X73865442Y-94234000D01*
X73877746Y-94225779D01*
X74178100Y-93776268D01*
X74283570Y-93246033D01*
X74283570Y-92426775D01*
X97924803Y-92426775D01*
X98097233Y-92844086D01*
X98416235Y-93163645D01*
X98833244Y-93336803D01*
X99284775Y-93337197D01*
X99702086Y-93164767D01*
X100021645Y-92845765D01*
X100194803Y-92428756D01*
X100195197Y-91977225D01*
X100022767Y-91559914D01*
X99703765Y-91240355D01*
X99286756Y-91067197D01*
X98835225Y-91066803D01*
X98417914Y-91239233D01*
X98098355Y-91558235D01*
X97925197Y-91975244D01*
X97924803Y-92426775D01*
X74283570Y-92426775D01*
X74283570Y-92173967D01*
X74178100Y-91643732D01*
X73877746Y-91194221D01*
X73428235Y-90893867D01*
X72898000Y-90788397D01*
X72544095Y-90858793D01*
X72843645Y-90559765D01*
X72912155Y-90394775D01*
X85224803Y-90394775D01*
X85397233Y-90812086D01*
X85716235Y-91131645D01*
X86133244Y-91304803D01*
X86584775Y-91305197D01*
X87002086Y-91132767D01*
X87321645Y-90813765D01*
X87494803Y-90396756D01*
X87494804Y-90394775D01*
X95130803Y-90394775D01*
X95303233Y-90812086D01*
X95622235Y-91131645D01*
X96039244Y-91304803D01*
X96490775Y-91305197D01*
X96908086Y-91132767D01*
X97227645Y-90813765D01*
X97400803Y-90396756D01*
X97401197Y-89945225D01*
X97228767Y-89527914D01*
X97079888Y-89378775D01*
X105036803Y-89378775D01*
X105209233Y-89796086D01*
X105528235Y-90115645D01*
X105945244Y-90288803D01*
X106396775Y-90289197D01*
X106814086Y-90116767D01*
X107133645Y-89797765D01*
X107306803Y-89380756D01*
X107307197Y-88929225D01*
X107283046Y-88870775D01*
X110116803Y-88870775D01*
X110289233Y-89288086D01*
X110608235Y-89607645D01*
X111025244Y-89780803D01*
X111476775Y-89781197D01*
X111894086Y-89608767D01*
X112213645Y-89289765D01*
X112282155Y-89124775D01*
X119260803Y-89124775D01*
X119433233Y-89542086D01*
X119752235Y-89861645D01*
X120169244Y-90034803D01*
X120620775Y-90035197D01*
X121038086Y-89862767D01*
X121357645Y-89543765D01*
X121530803Y-89126756D01*
X121531197Y-88675225D01*
X121358767Y-88257914D01*
X121039765Y-87938355D01*
X120622756Y-87765197D01*
X120171225Y-87764803D01*
X119753914Y-87937233D01*
X119434355Y-88256235D01*
X119261197Y-88673244D01*
X119260803Y-89124775D01*
X112282155Y-89124775D01*
X112386803Y-88872756D01*
X112387197Y-88421225D01*
X112214767Y-88003914D01*
X111895765Y-87684355D01*
X111478756Y-87511197D01*
X111027225Y-87510803D01*
X110609914Y-87683233D01*
X110290355Y-88002235D01*
X110117197Y-88419244D01*
X110116803Y-88870775D01*
X107283046Y-88870775D01*
X107134767Y-88511914D01*
X106815765Y-88192355D01*
X106398756Y-88019197D01*
X105947225Y-88018803D01*
X105529914Y-88191233D01*
X105210355Y-88510235D01*
X105037197Y-88927244D01*
X105036803Y-89378775D01*
X97079888Y-89378775D01*
X96909765Y-89208355D01*
X96492756Y-89035197D01*
X96041225Y-89034803D01*
X95623914Y-89207233D01*
X95304355Y-89526235D01*
X95131197Y-89943244D01*
X95130803Y-90394775D01*
X87494804Y-90394775D01*
X87495197Y-89945225D01*
X87322767Y-89527914D01*
X87003765Y-89208355D01*
X86802483Y-89124775D01*
X89288803Y-89124775D01*
X89461233Y-89542086D01*
X89780235Y-89861645D01*
X90197244Y-90034803D01*
X90648775Y-90035197D01*
X91066086Y-89862767D01*
X91385645Y-89543765D01*
X91558803Y-89126756D01*
X91558804Y-89124775D01*
X93098803Y-89124775D01*
X93271233Y-89542086D01*
X93590235Y-89861645D01*
X94007244Y-90034803D01*
X94458775Y-90035197D01*
X94876086Y-89862767D01*
X95195645Y-89543765D01*
X95368803Y-89126756D01*
X95369197Y-88675225D01*
X95196767Y-88257914D01*
X94877765Y-87938355D01*
X94460756Y-87765197D01*
X94009225Y-87764803D01*
X93591914Y-87937233D01*
X93272355Y-88256235D01*
X93099197Y-88673244D01*
X93098803Y-89124775D01*
X91558804Y-89124775D01*
X91559197Y-88675225D01*
X91386767Y-88257914D01*
X91067765Y-87938355D01*
X90650756Y-87765197D01*
X90199225Y-87764803D01*
X89781914Y-87937233D01*
X89462355Y-88256235D01*
X89289197Y-88673244D01*
X89288803Y-89124775D01*
X86802483Y-89124775D01*
X86586756Y-89035197D01*
X86135225Y-89034803D01*
X85717914Y-89207233D01*
X85398355Y-89526235D01*
X85225197Y-89943244D01*
X85224803Y-90394775D01*
X72912155Y-90394775D01*
X73016803Y-90142756D01*
X73017197Y-89691225D01*
X72844767Y-89273914D01*
X72695888Y-89124775D01*
X75064803Y-89124775D01*
X75237233Y-89542086D01*
X75556235Y-89861645D01*
X75973244Y-90034803D01*
X76424775Y-90035197D01*
X76842086Y-89862767D01*
X77161645Y-89543765D01*
X77334803Y-89126756D01*
X77334804Y-89124775D01*
X79382803Y-89124775D01*
X79555233Y-89542086D01*
X79874235Y-89861645D01*
X80291244Y-90034803D01*
X80742775Y-90035197D01*
X81160086Y-89862767D01*
X81479645Y-89543765D01*
X81652803Y-89126756D01*
X81653197Y-88675225D01*
X81480767Y-88257914D01*
X81161765Y-87938355D01*
X80744756Y-87765197D01*
X80293225Y-87764803D01*
X79875914Y-87937233D01*
X79556355Y-88256235D01*
X79383197Y-88673244D01*
X79382803Y-89124775D01*
X77334804Y-89124775D01*
X77335197Y-88675225D01*
X77162767Y-88257914D01*
X76843765Y-87938355D01*
X76426756Y-87765197D01*
X75975225Y-87764803D01*
X75557914Y-87937233D01*
X75238355Y-88256235D01*
X75065197Y-88673244D01*
X75064803Y-89124775D01*
X72695888Y-89124775D01*
X72525765Y-88954355D01*
X72108756Y-88781197D01*
X71657225Y-88780803D01*
X71239914Y-88953233D01*
X70920355Y-89272235D01*
X70747197Y-89689244D01*
X70746803Y-90140775D01*
X65388479Y-90140775D01*
X65477645Y-90051765D01*
X65533007Y-89918438D01*
X65813244Y-90034803D01*
X66264775Y-90035197D01*
X66682086Y-89862767D01*
X67001645Y-89543765D01*
X67174803Y-89126756D01*
X67175197Y-88675225D01*
X67002767Y-88257914D01*
X66683765Y-87938355D01*
X66266756Y-87765197D01*
X65815225Y-87764803D01*
X65397914Y-87937233D01*
X65078355Y-88256235D01*
X65022993Y-88389562D01*
X64742756Y-88273197D01*
X64291225Y-88272803D01*
X63873914Y-88445233D01*
X63554355Y-88764235D01*
X63381197Y-89181244D01*
X63380803Y-89632775D01*
X61078804Y-89632775D01*
X61079197Y-89183225D01*
X60906767Y-88765914D01*
X60587765Y-88446355D01*
X60170756Y-88273197D01*
X59719225Y-88272803D01*
X59301914Y-88445233D01*
X58982355Y-88764235D01*
X58809197Y-89181244D01*
X58808803Y-89632775D01*
X47573982Y-89632775D01*
X47632086Y-89608767D01*
X47951645Y-89289765D01*
X48124803Y-88872756D01*
X48125197Y-88421225D01*
X47952767Y-88003914D01*
X47633765Y-87684355D01*
X47216756Y-87511197D01*
X46765225Y-87510803D01*
X46347914Y-87683233D01*
X46028355Y-88002235D01*
X45855197Y-88419244D01*
X45854803Y-88870775D01*
X45530110Y-88870775D01*
X45625345Y-88392000D01*
X45511271Y-87818511D01*
X45186415Y-87332330D01*
X44871634Y-87122000D01*
X45186415Y-86911670D01*
X45511271Y-86425489D01*
X45625345Y-85852000D01*
X45511271Y-85278511D01*
X45186415Y-84792330D01*
X44871634Y-84582000D01*
X45186415Y-84371670D01*
X45235121Y-84298775D01*
X48394803Y-84298775D01*
X48567233Y-84716086D01*
X48886235Y-85035645D01*
X49303244Y-85208803D01*
X49732493Y-85209178D01*
X49665197Y-85371244D01*
X49664803Y-85822775D01*
X49837233Y-86240086D01*
X50156235Y-86559645D01*
X50573244Y-86732803D01*
X51024775Y-86733197D01*
X51442086Y-86560767D01*
X51761645Y-86241765D01*
X51934803Y-85824756D01*
X51934804Y-85822775D01*
X54490803Y-85822775D01*
X54663233Y-86240086D01*
X54982235Y-86559645D01*
X55399244Y-86732803D01*
X55850775Y-86733197D01*
X56268086Y-86560767D01*
X56587645Y-86241765D01*
X56760803Y-85824756D01*
X56760804Y-85822775D01*
X57792803Y-85822775D01*
X57965233Y-86240086D01*
X58284235Y-86559645D01*
X58701244Y-86732803D01*
X59152775Y-86733197D01*
X59570086Y-86560767D01*
X59889645Y-86241765D01*
X59958155Y-86076775D01*
X83954803Y-86076775D01*
X84127233Y-86494086D01*
X84446235Y-86813645D01*
X84863244Y-86986803D01*
X85314775Y-86987197D01*
X85732086Y-86814767D01*
X86051645Y-86495765D01*
X86224803Y-86078756D01*
X86224804Y-86076775D01*
X95130803Y-86076775D01*
X95303233Y-86494086D01*
X95622235Y-86813645D01*
X96039244Y-86986803D01*
X96490775Y-86987197D01*
X96849982Y-86838775D01*
X105036803Y-86838775D01*
X105209233Y-87256086D01*
X105528235Y-87575645D01*
X105945244Y-87748803D01*
X106396775Y-87749197D01*
X106814086Y-87576767D01*
X107133645Y-87257765D01*
X107306803Y-86840756D01*
X107307197Y-86389225D01*
X107134767Y-85971914D01*
X106815765Y-85652355D01*
X106398756Y-85479197D01*
X105947225Y-85478803D01*
X105529914Y-85651233D01*
X105210355Y-85970235D01*
X105037197Y-86387244D01*
X105036803Y-86838775D01*
X96849982Y-86838775D01*
X96908086Y-86814767D01*
X97227645Y-86495765D01*
X97400803Y-86078756D01*
X97401197Y-85627225D01*
X97228767Y-85209914D01*
X96909765Y-84890355D01*
X96492756Y-84717197D01*
X96041225Y-84716803D01*
X95623914Y-84889233D01*
X95304355Y-85208235D01*
X95131197Y-85625244D01*
X95130803Y-86076775D01*
X86224804Y-86076775D01*
X86225197Y-85627225D01*
X86052767Y-85209914D01*
X85733765Y-84890355D01*
X85316756Y-84717197D01*
X84865225Y-84716803D01*
X84447914Y-84889233D01*
X84128355Y-85208235D01*
X83955197Y-85625244D01*
X83954803Y-86076775D01*
X59958155Y-86076775D01*
X60062803Y-85824756D01*
X60063197Y-85373225D01*
X59890767Y-84955914D01*
X59571765Y-84636355D01*
X59154756Y-84463197D01*
X58703225Y-84462803D01*
X58285914Y-84635233D01*
X57966355Y-84954235D01*
X57793197Y-85371244D01*
X57792803Y-85822775D01*
X56760804Y-85822775D01*
X56761197Y-85373225D01*
X56588767Y-84955914D01*
X56269765Y-84636355D01*
X55852756Y-84463197D01*
X55401225Y-84462803D01*
X54983914Y-84635233D01*
X54664355Y-84954235D01*
X54491197Y-85371244D01*
X54490803Y-85822775D01*
X51934804Y-85822775D01*
X51935197Y-85373225D01*
X51762767Y-84955914D01*
X51443765Y-84636355D01*
X51026756Y-84463197D01*
X50597507Y-84462822D01*
X50664803Y-84300756D01*
X50664804Y-84298775D01*
X60078803Y-84298775D01*
X60251233Y-84716086D01*
X60570235Y-85035645D01*
X60987244Y-85208803D01*
X61438775Y-85209197D01*
X61856086Y-85036767D01*
X62175645Y-84717765D01*
X62348803Y-84300756D01*
X62349197Y-83849225D01*
X62176767Y-83431914D01*
X61857765Y-83112355D01*
X61440756Y-82939197D01*
X60989225Y-82938803D01*
X60571914Y-83111233D01*
X60252355Y-83430235D01*
X60079197Y-83847244D01*
X60078803Y-84298775D01*
X50664804Y-84298775D01*
X50665197Y-83849225D01*
X50492767Y-83431914D01*
X50173765Y-83112355D01*
X49756756Y-82939197D01*
X49305225Y-82938803D01*
X48887914Y-83111233D01*
X48568355Y-83430235D01*
X48395197Y-83847244D01*
X48394803Y-84298775D01*
X45235121Y-84298775D01*
X45511271Y-83885489D01*
X45625345Y-83312000D01*
X45511271Y-82738511D01*
X45186415Y-82252330D01*
X44871634Y-82042000D01*
X45186415Y-81831670D01*
X45511271Y-81345489D01*
X45625345Y-80772000D01*
X45619532Y-80742775D01*
X49410803Y-80742775D01*
X49583233Y-81160086D01*
X49902235Y-81479645D01*
X50319244Y-81652803D01*
X50770775Y-81653197D01*
X51129982Y-81504775D01*
X74810803Y-81504775D01*
X74983233Y-81922086D01*
X75302235Y-82241645D01*
X75719244Y-82414803D01*
X76170775Y-82415197D01*
X76588086Y-82242767D01*
X76907645Y-81923765D01*
X77080803Y-81506756D01*
X77080804Y-81504775D01*
X89288803Y-81504775D01*
X89461233Y-81922086D01*
X89780235Y-82241645D01*
X90197244Y-82414803D01*
X90648775Y-82415197D01*
X91066086Y-82242767D01*
X91385645Y-81923765D01*
X91558803Y-81506756D01*
X91558804Y-81504775D01*
X102496803Y-81504775D01*
X102669233Y-81922086D01*
X102988235Y-82241645D01*
X103405244Y-82414803D01*
X103856775Y-82415197D01*
X104274086Y-82242767D01*
X104593645Y-81923765D01*
X104766803Y-81506756D01*
X104766804Y-81504775D01*
X119260803Y-81504775D01*
X119433233Y-81922086D01*
X119752235Y-82241645D01*
X120169244Y-82414803D01*
X120620775Y-82415197D01*
X121038086Y-82242767D01*
X121357645Y-81923765D01*
X121530803Y-81506756D01*
X121531197Y-81055225D01*
X121358767Y-80637914D01*
X121039765Y-80318355D01*
X120622756Y-80145197D01*
X120171225Y-80144803D01*
X119753914Y-80317233D01*
X119434355Y-80636235D01*
X119261197Y-81053244D01*
X119260803Y-81504775D01*
X104766804Y-81504775D01*
X104767197Y-81055225D01*
X104594767Y-80637914D01*
X104275765Y-80318355D01*
X103858756Y-80145197D01*
X103407225Y-80144803D01*
X102989914Y-80317233D01*
X102670355Y-80636235D01*
X102497197Y-81053244D01*
X102496803Y-81504775D01*
X91558804Y-81504775D01*
X91559197Y-81055225D01*
X91386767Y-80637914D01*
X91067765Y-80318355D01*
X90650756Y-80145197D01*
X90199225Y-80144803D01*
X89781914Y-80317233D01*
X89462355Y-80636235D01*
X89289197Y-81053244D01*
X89288803Y-81504775D01*
X77080804Y-81504775D01*
X77081197Y-81055225D01*
X76908767Y-80637914D01*
X76589765Y-80318355D01*
X76172756Y-80145197D01*
X75721225Y-80144803D01*
X75303914Y-80317233D01*
X74984355Y-80636235D01*
X74811197Y-81053244D01*
X74810803Y-81504775D01*
X51129982Y-81504775D01*
X51188086Y-81480767D01*
X51507645Y-81161765D01*
X51680803Y-80744756D01*
X51681197Y-80293225D01*
X51552095Y-79980775D01*
X53982803Y-79980775D01*
X54155233Y-80398086D01*
X54474235Y-80717645D01*
X54891244Y-80890803D01*
X55342775Y-80891197D01*
X55760086Y-80718767D01*
X56079645Y-80399765D01*
X56252803Y-79982756D01*
X56253026Y-79726775D01*
X60586803Y-79726775D01*
X60759233Y-80144086D01*
X61078235Y-80463645D01*
X61495244Y-80636803D01*
X61946775Y-80637197D01*
X62364086Y-80464767D01*
X62683645Y-80145765D01*
X62856803Y-79728756D01*
X62856804Y-79726775D01*
X95384803Y-79726775D01*
X95557233Y-80144086D01*
X95876235Y-80463645D01*
X96293244Y-80636803D01*
X96744775Y-80637197D01*
X97162086Y-80464767D01*
X97481645Y-80145765D01*
X97654803Y-79728756D01*
X97654804Y-79726775D01*
X98432803Y-79726775D01*
X98605233Y-80144086D01*
X98924235Y-80463645D01*
X99341244Y-80636803D01*
X99792775Y-80637197D01*
X100210086Y-80464767D01*
X100529645Y-80145765D01*
X100702803Y-79728756D01*
X100703197Y-79277225D01*
X100530767Y-78859914D01*
X100211765Y-78540355D01*
X99794756Y-78367197D01*
X99343225Y-78366803D01*
X98925914Y-78539233D01*
X98606355Y-78858235D01*
X98433197Y-79275244D01*
X98432803Y-79726775D01*
X97654804Y-79726775D01*
X97655197Y-79277225D01*
X97482767Y-78859914D01*
X97163765Y-78540355D01*
X96746756Y-78367197D01*
X96295225Y-78366803D01*
X95877914Y-78539233D01*
X95558355Y-78858235D01*
X95385197Y-79275244D01*
X95384803Y-79726775D01*
X62856804Y-79726775D01*
X62857197Y-79277225D01*
X62684767Y-78859914D01*
X62365765Y-78540355D01*
X61948756Y-78367197D01*
X61497225Y-78366803D01*
X61079914Y-78539233D01*
X60760355Y-78858235D01*
X60587197Y-79275244D01*
X60586803Y-79726775D01*
X56253026Y-79726775D01*
X56253197Y-79531225D01*
X56080767Y-79113914D01*
X55761765Y-78794355D01*
X55344756Y-78621197D01*
X54893225Y-78620803D01*
X54475914Y-78793233D01*
X54156355Y-79112235D01*
X53983197Y-79529244D01*
X53982803Y-79980775D01*
X51552095Y-79980775D01*
X51508767Y-79875914D01*
X51189765Y-79556355D01*
X50772756Y-79383197D01*
X50321225Y-79382803D01*
X49903914Y-79555233D01*
X49584355Y-79874235D01*
X49411197Y-80291244D01*
X49410803Y-80742775D01*
X45619532Y-80742775D01*
X45511271Y-80198511D01*
X45186415Y-79712330D01*
X44871634Y-79502000D01*
X45186415Y-79291670D01*
X45511271Y-78805489D01*
X45625345Y-78232000D01*
X45518485Y-77694775D01*
X53982803Y-77694775D01*
X54155233Y-78112086D01*
X54474235Y-78431645D01*
X54891244Y-78604803D01*
X55342775Y-78605197D01*
X55760086Y-78432767D01*
X55990479Y-78202775D01*
X64904803Y-78202775D01*
X65077233Y-78620086D01*
X65396235Y-78939645D01*
X65813244Y-79112803D01*
X66264775Y-79113197D01*
X66682086Y-78940767D01*
X67001645Y-78621765D01*
X67070155Y-78456775D01*
X80144803Y-78456775D01*
X80317233Y-78874086D01*
X80636235Y-79193645D01*
X81053244Y-79366803D01*
X81504775Y-79367197D01*
X81922086Y-79194767D01*
X82241645Y-78875765D01*
X82414803Y-78458756D01*
X82415197Y-78007225D01*
X82242767Y-77589914D01*
X81923765Y-77270355D01*
X81506756Y-77097197D01*
X81055225Y-77096803D01*
X80637914Y-77269233D01*
X80318355Y-77588235D01*
X80145197Y-78005244D01*
X80144803Y-78456775D01*
X67070155Y-78456775D01*
X67174803Y-78204756D01*
X67175197Y-77753225D01*
X67002767Y-77335914D01*
X66683765Y-77016355D01*
X66266756Y-76843197D01*
X65815225Y-76842803D01*
X65397914Y-77015233D01*
X65078355Y-77334235D01*
X64905197Y-77751244D01*
X64904803Y-78202775D01*
X55990479Y-78202775D01*
X56079645Y-78113765D01*
X56252803Y-77696756D01*
X56253197Y-77245225D01*
X56080767Y-76827914D01*
X55761765Y-76508355D01*
X55344756Y-76335197D01*
X54893225Y-76334803D01*
X54475914Y-76507233D01*
X54156355Y-76826235D01*
X53983197Y-77243244D01*
X53982803Y-77694775D01*
X45518485Y-77694775D01*
X45511271Y-77658511D01*
X45186415Y-77172330D01*
X44871634Y-76962000D01*
X45186415Y-76751670D01*
X45511271Y-76265489D01*
X45580634Y-75916775D01*
X64904803Y-75916775D01*
X65077233Y-76334086D01*
X65396235Y-76653645D01*
X65813244Y-76826803D01*
X66264775Y-76827197D01*
X66682086Y-76654767D01*
X67001645Y-76335765D01*
X67174803Y-75918756D01*
X67175197Y-75467225D01*
X67002767Y-75049914D01*
X66683765Y-74730355D01*
X66266756Y-74557197D01*
X65815225Y-74556803D01*
X65397914Y-74729233D01*
X65078355Y-75048235D01*
X64905197Y-75465244D01*
X64904803Y-75916775D01*
X45580634Y-75916775D01*
X45625345Y-75692000D01*
X45511271Y-75118511D01*
X45365785Y-74900775D01*
X56014803Y-74900775D01*
X56187233Y-75318086D01*
X56506235Y-75637645D01*
X56923244Y-75810803D01*
X57374775Y-75811197D01*
X57792086Y-75638767D01*
X58111645Y-75319765D01*
X58284803Y-74902756D01*
X58285197Y-74451225D01*
X58112767Y-74033914D01*
X57793765Y-73714355D01*
X57376756Y-73541197D01*
X56925225Y-73540803D01*
X56507914Y-73713233D01*
X56188355Y-74032235D01*
X56015197Y-74449244D01*
X56014803Y-74900775D01*
X45365785Y-74900775D01*
X45186415Y-74632330D01*
X44871634Y-74422000D01*
X45186415Y-74211670D01*
X45511271Y-73725489D01*
X45625345Y-73152000D01*
X45511271Y-72578511D01*
X45196864Y-72107967D01*
X70242430Y-72107967D01*
X70242430Y-73180033D01*
X70347900Y-73710268D01*
X70648254Y-74159779D01*
X71097765Y-74460133D01*
X71628000Y-74565603D01*
X72158235Y-74460133D01*
X72607746Y-74159779D01*
X72908100Y-73710268D01*
X73013570Y-73180033D01*
X73013570Y-72107967D01*
X75322430Y-72107967D01*
X75322430Y-73180033D01*
X75427900Y-73710268D01*
X75728254Y-74159779D01*
X76177765Y-74460133D01*
X76708000Y-74565603D01*
X77238235Y-74460133D01*
X77687746Y-74159779D01*
X77988100Y-73710268D01*
X78093570Y-73180033D01*
X78093570Y-73152481D01*
X80328777Y-73152481D01*
X80523995Y-73624943D01*
X80885155Y-73986735D01*
X81357276Y-74182777D01*
X81868481Y-74183223D01*
X82340943Y-73988005D01*
X82702735Y-73626845D01*
X82898777Y-73154724D01*
X82899223Y-72643519D01*
X82735798Y-72248000D01*
X85316560Y-72248000D01*
X85316560Y-73548000D01*
X85360838Y-73783317D01*
X85499910Y-73999441D01*
X85712110Y-74144431D01*
X85964000Y-74195440D01*
X87264000Y-74195440D01*
X87499317Y-74151162D01*
X87715441Y-74012090D01*
X87860431Y-73799890D01*
X87911440Y-73548000D01*
X87911440Y-72248000D01*
X87867162Y-72012683D01*
X87728090Y-71796559D01*
X87515890Y-71651569D01*
X87264000Y-71600560D01*
X85964000Y-71600560D01*
X85728683Y-71644838D01*
X85512559Y-71783910D01*
X85367569Y-71996110D01*
X85316560Y-72248000D01*
X82735798Y-72248000D01*
X82704005Y-72171057D01*
X82342845Y-71809265D01*
X81870724Y-71613223D01*
X81359519Y-71612777D01*
X80887057Y-71807995D01*
X80525265Y-72169155D01*
X80329223Y-72641276D01*
X80328777Y-73152481D01*
X78093570Y-73152481D01*
X78093570Y-72107967D01*
X77988100Y-71577732D01*
X77687746Y-71128221D01*
X77238235Y-70827867D01*
X76708000Y-70722397D01*
X76177765Y-70827867D01*
X75728254Y-71128221D01*
X75427900Y-71577732D01*
X75322430Y-72107967D01*
X73013570Y-72107967D01*
X72908100Y-71577732D01*
X72607746Y-71128221D01*
X72158235Y-70827867D01*
X71628000Y-70722397D01*
X71097765Y-70827867D01*
X70648254Y-71128221D01*
X70347900Y-71577732D01*
X70242430Y-72107967D01*
X45196864Y-72107967D01*
X45186415Y-72092330D01*
X44871634Y-71882000D01*
X45186415Y-71671670D01*
X45511271Y-71185489D01*
X45580634Y-70836775D01*
X53728803Y-70836775D01*
X53901233Y-71254086D01*
X54220235Y-71573645D01*
X54637244Y-71746803D01*
X55088775Y-71747197D01*
X55506086Y-71574767D01*
X55825645Y-71255765D01*
X55998803Y-70838756D01*
X55999197Y-70387225D01*
X55826767Y-69969914D01*
X55507765Y-69650355D01*
X55090756Y-69477197D01*
X54639225Y-69476803D01*
X54221914Y-69649233D01*
X53902355Y-69968235D01*
X53729197Y-70385244D01*
X53728803Y-70836775D01*
X45580634Y-70836775D01*
X45625345Y-70612000D01*
X45511271Y-70038511D01*
X45186415Y-69552330D01*
X44871634Y-69342000D01*
X45186415Y-69131670D01*
X45511271Y-68645489D01*
X45625345Y-68072000D01*
X45511271Y-67498511D01*
X45317425Y-67208400D01*
X84594960Y-67208400D01*
X84594960Y-69443600D01*
X84639238Y-69678917D01*
X84778310Y-69895041D01*
X84990510Y-70040031D01*
X85242400Y-70091040D01*
X87477600Y-70091040D01*
X87712917Y-70046762D01*
X87929041Y-69907690D01*
X88074031Y-69695490D01*
X88125040Y-69443600D01*
X88125040Y-67208400D01*
X88080762Y-66973083D01*
X87941690Y-66756959D01*
X87729490Y-66611969D01*
X87477600Y-66560960D01*
X85242400Y-66560960D01*
X85007083Y-66605238D01*
X84790959Y-66744310D01*
X84645969Y-66956510D01*
X84594960Y-67208400D01*
X45317425Y-67208400D01*
X45186415Y-67012330D01*
X44871634Y-66802000D01*
X45186415Y-66591670D01*
X45511271Y-66105489D01*
X45625345Y-65532000D01*
X45511271Y-64958511D01*
X45186415Y-64472330D01*
X45164220Y-64457500D01*
X45317698Y-64393927D01*
X45496327Y-64215299D01*
X45593000Y-63981910D01*
X45593000Y-63277750D01*
X45434250Y-63119000D01*
X44069000Y-63119000D01*
X44069000Y-63139000D01*
X43815000Y-63139000D01*
X43815000Y-63119000D01*
X42449750Y-63119000D01*
X42291000Y-63277750D01*
X42291000Y-63981910D01*
X42387673Y-64215299D01*
X42566302Y-64393927D01*
X42719780Y-64457500D01*
X42697585Y-64472330D01*
X42372729Y-64958511D01*
X42258655Y-65532000D01*
X41529000Y-65532000D01*
X41529000Y-62002090D01*
X42291000Y-62002090D01*
X42291000Y-62706250D01*
X42449750Y-62865000D01*
X43815000Y-62865000D01*
X43815000Y-61652150D01*
X44069000Y-61652150D01*
X44069000Y-62865000D01*
X45434250Y-62865000D01*
X45590475Y-62708775D01*
X53728803Y-62708775D01*
X53901233Y-63126086D01*
X54220235Y-63445645D01*
X54637244Y-63618803D01*
X55088775Y-63619197D01*
X55506086Y-63446767D01*
X55825645Y-63127765D01*
X55998803Y-62710756D01*
X55999197Y-62259225D01*
X55826767Y-61841914D01*
X55507765Y-61522355D01*
X55090756Y-61349197D01*
X54639225Y-61348803D01*
X54221914Y-61521233D01*
X53902355Y-61840235D01*
X53729197Y-62257244D01*
X53728803Y-62708775D01*
X45590475Y-62708775D01*
X45593000Y-62706250D01*
X45593000Y-62002090D01*
X45496327Y-61768701D01*
X45317698Y-61590073D01*
X45084309Y-61493400D01*
X44227750Y-61493400D01*
X44069000Y-61652150D01*
X43815000Y-61652150D01*
X43656250Y-61493400D01*
X42799691Y-61493400D01*
X42566302Y-61590073D01*
X42387673Y-61768701D01*
X42291000Y-62002090D01*
X41529000Y-62002090D01*
X41529000Y-53818775D01*
X56014803Y-53818775D01*
X56187233Y-54236086D01*
X56506235Y-54555645D01*
X56923244Y-54728803D01*
X57374775Y-54729197D01*
X57792086Y-54556767D01*
X58111645Y-54237765D01*
X58284803Y-53820756D01*
X58285197Y-53369225D01*
X58112767Y-52951914D01*
X57793765Y-52632355D01*
X57376756Y-52459197D01*
X56925225Y-52458803D01*
X56507914Y-52631233D01*
X56188355Y-52950235D01*
X56015197Y-53367244D01*
X56014803Y-53818775D01*
X41529000Y-53818775D01*
X41529000Y-38354000D01*
X42258655Y-38354000D01*
X42372729Y-38927489D01*
X42697585Y-39413670D01*
X43012366Y-39624000D01*
X42697585Y-39834330D01*
X42372729Y-40320511D01*
X42258655Y-40894000D01*
X42372729Y-41467489D01*
X42697585Y-41953670D01*
X43012366Y-42164000D01*
X42697585Y-42374330D01*
X42372729Y-42860511D01*
X42258655Y-43434000D01*
X42372729Y-44007489D01*
X42697585Y-44493670D01*
X43012366Y-44704000D01*
X42697585Y-44914330D01*
X42372729Y-45400511D01*
X42258655Y-45974000D01*
X42372729Y-46547489D01*
X42697585Y-47033670D01*
X43012366Y-47244000D01*
X42697585Y-47454330D01*
X42372729Y-47940511D01*
X42258655Y-48514000D01*
X42372729Y-49087489D01*
X42697585Y-49573670D01*
X43012366Y-49784000D01*
X42697585Y-49994330D01*
X42372729Y-50480511D01*
X42258655Y-51054000D01*
X42372729Y-51627489D01*
X42697585Y-52113670D01*
X43183766Y-52438526D01*
X43757255Y-52552600D01*
X44126745Y-52552600D01*
X44700234Y-52438526D01*
X45186415Y-52113670D01*
X45511271Y-51627489D01*
X45625345Y-51054000D01*
X45511271Y-50480511D01*
X45186415Y-49994330D01*
X44871634Y-49784000D01*
X45186415Y-49573670D01*
X45511271Y-49087489D01*
X45625345Y-48514000D01*
X45619769Y-48485967D01*
X62622430Y-48485967D01*
X62622430Y-49558033D01*
X62727900Y-50088268D01*
X63028254Y-50537779D01*
X63477765Y-50838133D01*
X64008000Y-50943603D01*
X64538235Y-50838133D01*
X64987746Y-50537779D01*
X65288100Y-50088268D01*
X65393570Y-49558033D01*
X65393570Y-48485967D01*
X67702430Y-48485967D01*
X67702430Y-49558033D01*
X67807900Y-50088268D01*
X68108254Y-50537779D01*
X68557765Y-50838133D01*
X69088000Y-50943603D01*
X69618235Y-50838133D01*
X69717259Y-50771967D01*
X112152430Y-50771967D01*
X112152430Y-51844033D01*
X112257900Y-52374268D01*
X112558254Y-52823779D01*
X113007765Y-53124133D01*
X113538000Y-53229603D01*
X114068235Y-53124133D01*
X114517746Y-52823779D01*
X114818100Y-52374268D01*
X114923570Y-51844033D01*
X114923570Y-50771967D01*
X117232430Y-50771967D01*
X117232430Y-51844033D01*
X117337900Y-52374268D01*
X117638254Y-52823779D01*
X118087765Y-53124133D01*
X118618000Y-53229603D01*
X119148235Y-53124133D01*
X119597746Y-52823779D01*
X119898100Y-52374268D01*
X120003570Y-51844033D01*
X120003570Y-51278775D01*
X130690803Y-51278775D01*
X130863233Y-51696086D01*
X131182235Y-52015645D01*
X131599244Y-52188803D01*
X132050775Y-52189197D01*
X132468086Y-52016767D01*
X132787645Y-51697765D01*
X132960803Y-51280756D01*
X132961197Y-50829225D01*
X132788767Y-50411914D01*
X132469765Y-50092355D01*
X132052756Y-49919197D01*
X131601225Y-49918803D01*
X131183914Y-50091233D01*
X130864355Y-50410235D01*
X130691197Y-50827244D01*
X130690803Y-51278775D01*
X120003570Y-51278775D01*
X120003570Y-50771967D01*
X119898100Y-50241732D01*
X119597746Y-49792221D01*
X119161567Y-49500775D01*
X121292803Y-49500775D01*
X121465233Y-49918086D01*
X121784235Y-50237645D01*
X122201244Y-50410803D01*
X122652775Y-50411197D01*
X123070086Y-50238767D01*
X123389645Y-49919765D01*
X123562803Y-49502756D01*
X123563197Y-49051225D01*
X123539046Y-48992775D01*
X130690803Y-48992775D01*
X130863233Y-49410086D01*
X131182235Y-49729645D01*
X131599244Y-49902803D01*
X132050775Y-49903197D01*
X132468086Y-49730767D01*
X132787645Y-49411765D01*
X132960803Y-48994756D01*
X132961197Y-48543225D01*
X132788767Y-48125914D01*
X132469765Y-47806355D01*
X132052756Y-47633197D01*
X131601225Y-47632803D01*
X131183914Y-47805233D01*
X130864355Y-48124235D01*
X130691197Y-48541244D01*
X130690803Y-48992775D01*
X123539046Y-48992775D01*
X123390767Y-48633914D01*
X123071765Y-48314355D01*
X122654756Y-48141197D01*
X122203225Y-48140803D01*
X121785914Y-48313233D01*
X121466355Y-48632235D01*
X121293197Y-49049244D01*
X121292803Y-49500775D01*
X119161567Y-49500775D01*
X119148235Y-49491867D01*
X118618000Y-49386397D01*
X118087765Y-49491867D01*
X117638254Y-49792221D01*
X117337900Y-50241732D01*
X117232430Y-50771967D01*
X114923570Y-50771967D01*
X114818100Y-50241732D01*
X114517746Y-49792221D01*
X114068235Y-49491867D01*
X113538000Y-49386397D01*
X113007765Y-49491867D01*
X112558254Y-49792221D01*
X112257900Y-50241732D01*
X112152430Y-50771967D01*
X69717259Y-50771967D01*
X70067746Y-50537779D01*
X70368100Y-50088268D01*
X70473570Y-49558033D01*
X70473570Y-48485967D01*
X70368100Y-47955732D01*
X70077395Y-47520661D01*
X111632758Y-47520661D01*
X111844990Y-48034303D01*
X112237630Y-48427629D01*
X112750900Y-48640757D01*
X113306661Y-48641242D01*
X113820303Y-48429010D01*
X114213629Y-48036370D01*
X114426757Y-47523100D01*
X114426759Y-47520661D01*
X116712758Y-47520661D01*
X116924990Y-48034303D01*
X117317630Y-48427629D01*
X117830900Y-48640757D01*
X118386661Y-48641242D01*
X118900303Y-48429010D01*
X119293629Y-48036370D01*
X119506757Y-47523100D01*
X119507242Y-46967339D01*
X119295010Y-46453697D01*
X118902370Y-46060371D01*
X118389100Y-45847243D01*
X117833339Y-45846758D01*
X117319697Y-46058990D01*
X116926371Y-46451630D01*
X116713243Y-46964900D01*
X116712758Y-47520661D01*
X114426759Y-47520661D01*
X114427242Y-46967339D01*
X114215010Y-46453697D01*
X113822370Y-46060371D01*
X113309100Y-45847243D01*
X112753339Y-45846758D01*
X112239697Y-46058990D01*
X111846371Y-46451630D01*
X111633243Y-46964900D01*
X111632758Y-47520661D01*
X70077395Y-47520661D01*
X70067746Y-47506221D01*
X69618235Y-47205867D01*
X69088000Y-47100397D01*
X68557765Y-47205867D01*
X68108254Y-47506221D01*
X67807900Y-47955732D01*
X67702430Y-48485967D01*
X65393570Y-48485967D01*
X65288100Y-47955732D01*
X64987746Y-47506221D01*
X64538235Y-47205867D01*
X64008000Y-47100397D01*
X63477765Y-47205867D01*
X63028254Y-47506221D01*
X62727900Y-47955732D01*
X62622430Y-48485967D01*
X45619769Y-48485967D01*
X45511271Y-47940511D01*
X45186415Y-47454330D01*
X44871634Y-47244000D01*
X45186415Y-47033670D01*
X45511271Y-46547489D01*
X45625345Y-45974000D01*
X45511271Y-45400511D01*
X45365785Y-45182775D01*
X49156803Y-45182775D01*
X49329233Y-45600086D01*
X49648235Y-45919645D01*
X50065244Y-46092803D01*
X50516775Y-46093197D01*
X50934086Y-45920767D01*
X51253645Y-45601765D01*
X51426803Y-45184756D01*
X51427197Y-44733225D01*
X51403046Y-44674775D01*
X59570803Y-44674775D01*
X59743233Y-45092086D01*
X60062235Y-45411645D01*
X60479244Y-45584803D01*
X60930775Y-45585197D01*
X61348086Y-45412767D01*
X61667645Y-45093765D01*
X61840803Y-44676756D01*
X61841197Y-44225225D01*
X61733534Y-43964661D01*
X63118758Y-43964661D01*
X63330990Y-44478303D01*
X63723630Y-44871629D01*
X64236900Y-45084757D01*
X64792661Y-45085242D01*
X65306303Y-44873010D01*
X65699629Y-44480370D01*
X65912757Y-43967100D01*
X65912759Y-43964661D01*
X68198758Y-43964661D01*
X68410990Y-44478303D01*
X68803630Y-44871629D01*
X69316900Y-45084757D01*
X69872661Y-45085242D01*
X70125767Y-44980661D01*
X89280758Y-44980661D01*
X89492990Y-45494303D01*
X89885630Y-45887629D01*
X90398900Y-46100757D01*
X90954661Y-46101242D01*
X91468303Y-45889010D01*
X91861629Y-45496370D01*
X92074757Y-44983100D01*
X92074759Y-44980661D01*
X114172758Y-44980661D01*
X114384990Y-45494303D01*
X114777630Y-45887629D01*
X115290900Y-46100757D01*
X115846661Y-46101242D01*
X116360303Y-45889010D01*
X116753629Y-45496370D01*
X116966757Y-44983100D01*
X116967242Y-44427339D01*
X116755010Y-43913697D01*
X116362370Y-43520371D01*
X115849100Y-43307243D01*
X115293339Y-43306758D01*
X114779697Y-43518990D01*
X114386371Y-43911630D01*
X114173243Y-44424900D01*
X114172758Y-44980661D01*
X92074759Y-44980661D01*
X92075242Y-44427339D01*
X91863010Y-43913697D01*
X91470370Y-43520371D01*
X90957100Y-43307243D01*
X90401339Y-43306758D01*
X89887697Y-43518990D01*
X89494371Y-43911630D01*
X89281243Y-44424900D01*
X89280758Y-44980661D01*
X70125767Y-44980661D01*
X70386303Y-44873010D01*
X70779629Y-44480370D01*
X70992757Y-43967100D01*
X70993242Y-43411339D01*
X70781010Y-42897697D01*
X70388370Y-42504371D01*
X69875100Y-42291243D01*
X69319339Y-42290758D01*
X68805697Y-42502990D01*
X68412371Y-42895630D01*
X68199243Y-43408900D01*
X68198758Y-43964661D01*
X65912759Y-43964661D01*
X65913242Y-43411339D01*
X65701010Y-42897697D01*
X65308370Y-42504371D01*
X64795100Y-42291243D01*
X64239339Y-42290758D01*
X63725697Y-42502990D01*
X63332371Y-42895630D01*
X63119243Y-43408900D01*
X63118758Y-43964661D01*
X61733534Y-43964661D01*
X61668767Y-43807914D01*
X61349765Y-43488355D01*
X60932756Y-43315197D01*
X60481225Y-43314803D01*
X60063914Y-43487233D01*
X59744355Y-43806235D01*
X59571197Y-44223244D01*
X59570803Y-44674775D01*
X51403046Y-44674775D01*
X51254767Y-44315914D01*
X50935765Y-43996355D01*
X50518756Y-43823197D01*
X50067225Y-43822803D01*
X49649914Y-43995233D01*
X49330355Y-44314235D01*
X49157197Y-44731244D01*
X49156803Y-45182775D01*
X45365785Y-45182775D01*
X45186415Y-44914330D01*
X44871634Y-44704000D01*
X45186415Y-44493670D01*
X45511271Y-44007489D01*
X45625345Y-43434000D01*
X45511271Y-42860511D01*
X45186415Y-42374330D01*
X44871634Y-42164000D01*
X45186415Y-41953670D01*
X45511271Y-41467489D01*
X45519790Y-41424661D01*
X65658758Y-41424661D01*
X65870990Y-41938303D01*
X66263630Y-42331629D01*
X66776900Y-42544757D01*
X67332661Y-42545242D01*
X67846303Y-42333010D01*
X67992907Y-42186661D01*
X86613758Y-42186661D01*
X86825990Y-42700303D01*
X87218630Y-43093629D01*
X87731900Y-43306757D01*
X88287661Y-43307242D01*
X88801303Y-43095010D01*
X89194629Y-42702370D01*
X89407757Y-42189100D01*
X89408242Y-41633339D01*
X89196010Y-41119697D01*
X88803370Y-40726371D01*
X88290100Y-40513243D01*
X87734339Y-40512758D01*
X87220697Y-40724990D01*
X86827371Y-41117630D01*
X86614243Y-41630900D01*
X86613758Y-42186661D01*
X67992907Y-42186661D01*
X68239629Y-41940370D01*
X68452757Y-41427100D01*
X68453242Y-40871339D01*
X68241010Y-40357697D01*
X67848370Y-39964371D01*
X67335100Y-39751243D01*
X66779339Y-39750758D01*
X66265697Y-39962990D01*
X65872371Y-40355630D01*
X65659243Y-40868900D01*
X65658758Y-41424661D01*
X45519790Y-41424661D01*
X45625345Y-40894000D01*
X45511271Y-40320511D01*
X45186415Y-39834330D01*
X44871634Y-39624000D01*
X45186415Y-39413670D01*
X45511271Y-38927489D01*
X45601114Y-38475815D01*
X45600803Y-38832775D01*
X45773233Y-39250086D01*
X46092235Y-39569645D01*
X46509244Y-39742803D01*
X46960775Y-39743197D01*
X47378086Y-39570767D01*
X47429281Y-39519661D01*
X89280758Y-39519661D01*
X89492990Y-40033303D01*
X89885630Y-40426629D01*
X90398900Y-40639757D01*
X90954661Y-40640242D01*
X91170133Y-40551211D01*
X91270990Y-40795303D01*
X91663630Y-41188629D01*
X91954703Y-41309493D01*
X91821243Y-41630900D01*
X91820758Y-42186661D01*
X92032990Y-42700303D01*
X92425630Y-43093629D01*
X92938900Y-43306757D01*
X93494661Y-43307242D01*
X94008303Y-43095010D01*
X94401629Y-42702370D01*
X94614757Y-42189100D01*
X94615242Y-41633339D01*
X94403010Y-41119697D01*
X94010370Y-40726371D01*
X93719297Y-40605507D01*
X93852757Y-40284100D01*
X93853242Y-39728339D01*
X93641010Y-39214697D01*
X93514502Y-39087967D01*
X112152430Y-39087967D01*
X112152430Y-40160033D01*
X112257900Y-40690268D01*
X112558254Y-41139779D01*
X113007765Y-41440133D01*
X113538000Y-41545603D01*
X114068235Y-41440133D01*
X114517746Y-41139779D01*
X114818100Y-40690268D01*
X114923570Y-40160033D01*
X114923570Y-39087967D01*
X117232430Y-39087967D01*
X117232430Y-40160033D01*
X117337900Y-40690268D01*
X117638254Y-41139779D01*
X118087765Y-41440133D01*
X118618000Y-41545603D01*
X119148235Y-41440133D01*
X119597746Y-41139779D01*
X119611780Y-41118775D01*
X130690803Y-41118775D01*
X130863233Y-41536086D01*
X131182235Y-41855645D01*
X131599244Y-42028803D01*
X132050775Y-42029197D01*
X132468086Y-41856767D01*
X132787645Y-41537765D01*
X132960803Y-41120756D01*
X132961197Y-40669225D01*
X132788767Y-40251914D01*
X132469765Y-39932355D01*
X132052756Y-39759197D01*
X131601225Y-39758803D01*
X131183914Y-39931233D01*
X130864355Y-40250235D01*
X130691197Y-40667244D01*
X130690803Y-41118775D01*
X119611780Y-41118775D01*
X119898100Y-40690268D01*
X120003570Y-40160033D01*
X120003570Y-39087967D01*
X119898100Y-38557732D01*
X119597746Y-38108221D01*
X119148235Y-37807867D01*
X118618000Y-37702397D01*
X118087765Y-37807867D01*
X117638254Y-38108221D01*
X117337900Y-38557732D01*
X117232430Y-39087967D01*
X114923570Y-39087967D01*
X114818100Y-38557732D01*
X114517746Y-38108221D01*
X114068235Y-37807867D01*
X113538000Y-37702397D01*
X113007765Y-37807867D01*
X112558254Y-38108221D01*
X112257900Y-38557732D01*
X112152430Y-39087967D01*
X93514502Y-39087967D01*
X93248370Y-38821371D01*
X92735100Y-38608243D01*
X92179339Y-38607758D01*
X91963867Y-38696789D01*
X91863010Y-38452697D01*
X91470370Y-38059371D01*
X90957100Y-37846243D01*
X90401339Y-37845758D01*
X89887697Y-38057990D01*
X89494371Y-38450630D01*
X89281243Y-38963900D01*
X89280758Y-39519661D01*
X47429281Y-39519661D01*
X47697645Y-39251765D01*
X47870803Y-38834756D01*
X47871197Y-38383225D01*
X47698767Y-37965914D01*
X47379765Y-37646355D01*
X46962756Y-37473197D01*
X46511225Y-37472803D01*
X46093914Y-37645233D01*
X45774355Y-37964235D01*
X45621188Y-38333101D01*
X45511271Y-37780511D01*
X45186415Y-37294330D01*
X45164220Y-37279500D01*
X45317698Y-37215927D01*
X45496327Y-37037299D01*
X45593000Y-36803910D01*
X45593000Y-36099750D01*
X45434250Y-35941000D01*
X44069000Y-35941000D01*
X44069000Y-35961000D01*
X43815000Y-35961000D01*
X43815000Y-35941000D01*
X42449750Y-35941000D01*
X42291000Y-36099750D01*
X42291000Y-36803910D01*
X42387673Y-37037299D01*
X42566302Y-37215927D01*
X42719780Y-37279500D01*
X42697585Y-37294330D01*
X42372729Y-37780511D01*
X42258655Y-38354000D01*
X41529000Y-38354000D01*
X41529000Y-34824090D01*
X42291000Y-34824090D01*
X42291000Y-35528250D01*
X42449750Y-35687000D01*
X43815000Y-35687000D01*
X43815000Y-34474150D01*
X44069000Y-34474150D01*
X44069000Y-35687000D01*
X45434250Y-35687000D01*
X45593000Y-35528250D01*
X45593000Y-34824090D01*
X45496327Y-34590701D01*
X45421593Y-34515967D01*
X62622430Y-34515967D01*
X62622430Y-35588033D01*
X62727900Y-36118268D01*
X63028254Y-36567779D01*
X63477765Y-36868133D01*
X64008000Y-36973603D01*
X64538235Y-36868133D01*
X64987746Y-36567779D01*
X65288100Y-36118268D01*
X65393570Y-35588033D01*
X65393570Y-34515967D01*
X67702430Y-34515967D01*
X67702430Y-35588033D01*
X67807900Y-36118268D01*
X68108254Y-36567779D01*
X68557765Y-36868133D01*
X69088000Y-36973603D01*
X69618235Y-36868133D01*
X70067746Y-36567779D01*
X70368100Y-36118268D01*
X70473570Y-35588033D01*
X70473570Y-34515967D01*
X70368100Y-33985732D01*
X70067746Y-33536221D01*
X70013489Y-33499967D01*
X112152430Y-33499967D01*
X112152430Y-34572033D01*
X112257900Y-35102268D01*
X112558254Y-35551779D01*
X113007765Y-35852133D01*
X113538000Y-35957603D01*
X114068235Y-35852133D01*
X114517746Y-35551779D01*
X114818100Y-35102268D01*
X114923570Y-34572033D01*
X114923570Y-33499967D01*
X117232430Y-33499967D01*
X117232430Y-34572033D01*
X117337900Y-35102268D01*
X117638254Y-35551779D01*
X118087765Y-35852133D01*
X118618000Y-35957603D01*
X119148235Y-35852133D01*
X119597746Y-35551779D01*
X119898100Y-35102268D01*
X120003570Y-34572033D01*
X120003570Y-33499967D01*
X119898100Y-32969732D01*
X119597746Y-32520221D01*
X119148235Y-32219867D01*
X118618000Y-32114397D01*
X118087765Y-32219867D01*
X117638254Y-32520221D01*
X117337900Y-32969732D01*
X117232430Y-33499967D01*
X114923570Y-33499967D01*
X114818100Y-32969732D01*
X114517746Y-32520221D01*
X114068235Y-32219867D01*
X113538000Y-32114397D01*
X113007765Y-32219867D01*
X112558254Y-32520221D01*
X112257900Y-32969732D01*
X112152430Y-33499967D01*
X70013489Y-33499967D01*
X69618235Y-33235867D01*
X69088000Y-33130397D01*
X68557765Y-33235867D01*
X68108254Y-33536221D01*
X67807900Y-33985732D01*
X67702430Y-34515967D01*
X65393570Y-34515967D01*
X65288100Y-33985732D01*
X64987746Y-33536221D01*
X64538235Y-33235867D01*
X64008000Y-33130397D01*
X63477765Y-33235867D01*
X63028254Y-33536221D01*
X62727900Y-33985732D01*
X62622430Y-34515967D01*
X45421593Y-34515967D01*
X45317698Y-34412073D01*
X45084309Y-34315400D01*
X44227750Y-34315400D01*
X44069000Y-34474150D01*
X43815000Y-34474150D01*
X43656250Y-34315400D01*
X42799691Y-34315400D01*
X42566302Y-34412073D01*
X42387673Y-34590701D01*
X42291000Y-34824090D01*
X41529000Y-34824090D01*
X41529000Y-31974775D01*
X47124803Y-31974775D01*
X47297233Y-32392086D01*
X47616235Y-32711645D01*
X48033244Y-32884803D01*
X48484775Y-32885197D01*
X48902086Y-32712767D01*
X49221645Y-32393765D01*
X49394803Y-31976756D01*
X49395197Y-31525225D01*
X49222767Y-31107914D01*
X48903765Y-30788355D01*
X48486756Y-30615197D01*
X48035225Y-30614803D01*
X47617914Y-30787233D01*
X47298355Y-31106235D01*
X47125197Y-31523244D01*
X47124803Y-31974775D01*
X41529000Y-31974775D01*
X41529000Y-29845000D01*
X134493000Y-29845000D01*
X134493000Y-104267000D01*
X134493000Y-104267000D01*
G37*
X134493000Y-104267000D02*
X41529000Y-104267000D01*
X41529000Y-65532000D01*
X42258655Y-65532000D01*
X42372729Y-66105489D01*
X42697585Y-66591670D01*
X43012366Y-66802000D01*
X42697585Y-67012330D01*
X42372729Y-67498511D01*
X42258655Y-68072000D01*
X42372729Y-68645489D01*
X42697585Y-69131670D01*
X43012366Y-69342000D01*
X42697585Y-69552330D01*
X42372729Y-70038511D01*
X42258655Y-70612000D01*
X42372729Y-71185489D01*
X42697585Y-71671670D01*
X43012366Y-71882000D01*
X42697585Y-72092330D01*
X42372729Y-72578511D01*
X42258655Y-73152000D01*
X42372729Y-73725489D01*
X42697585Y-74211670D01*
X43012366Y-74422000D01*
X42697585Y-74632330D01*
X42372729Y-75118511D01*
X42258655Y-75692000D01*
X42372729Y-76265489D01*
X42697585Y-76751670D01*
X43012366Y-76962000D01*
X42697585Y-77172330D01*
X42372729Y-77658511D01*
X42258655Y-78232000D01*
X42372729Y-78805489D01*
X42697585Y-79291670D01*
X43012366Y-79502000D01*
X42697585Y-79712330D01*
X42372729Y-80198511D01*
X42258655Y-80772000D01*
X42372729Y-81345489D01*
X42697585Y-81831670D01*
X43012366Y-82042000D01*
X42697585Y-82252330D01*
X42372729Y-82738511D01*
X42258655Y-83312000D01*
X42372729Y-83885489D01*
X42697585Y-84371670D01*
X43012366Y-84582000D01*
X42697585Y-84792330D01*
X42372729Y-85278511D01*
X42258655Y-85852000D01*
X42372729Y-86425489D01*
X42697585Y-86911670D01*
X43012366Y-87122000D01*
X42697585Y-87332330D01*
X42372729Y-87818511D01*
X42258655Y-88392000D01*
X42372729Y-88965489D01*
X42697585Y-89451670D01*
X43012366Y-89662000D01*
X42697585Y-89872330D01*
X42372729Y-90358511D01*
X42258655Y-90932000D01*
X42372729Y-91505489D01*
X42697585Y-91991670D01*
X43012366Y-92202000D01*
X42697585Y-92412330D01*
X42372729Y-92898511D01*
X42258655Y-93472000D01*
X42372729Y-94045489D01*
X42697585Y-94531670D01*
X43012366Y-94742000D01*
X42697585Y-94952330D01*
X42372729Y-95438511D01*
X42258655Y-96012000D01*
X42372729Y-96585489D01*
X42697585Y-97071670D01*
X43012366Y-97282000D01*
X42697585Y-97492330D01*
X42372729Y-97978511D01*
X42258655Y-98552000D01*
X42372729Y-99125489D01*
X42697585Y-99611670D01*
X43183766Y-99936526D01*
X43757255Y-100050600D01*
X44126745Y-100050600D01*
X44700234Y-99936526D01*
X45186415Y-99611670D01*
X45404042Y-99285967D01*
X66432430Y-99285967D01*
X66432430Y-100358033D01*
X66537900Y-100888268D01*
X66838254Y-101337779D01*
X67287765Y-101638133D01*
X67818000Y-101743603D01*
X68348235Y-101638133D01*
X68797746Y-101337779D01*
X69098100Y-100888268D01*
X69203570Y-100358033D01*
X69203570Y-99285967D01*
X71512430Y-99285967D01*
X71512430Y-100358033D01*
X71617900Y-100888268D01*
X71918254Y-101337779D01*
X72367765Y-101638133D01*
X72898000Y-101743603D01*
X73428235Y-101638133D01*
X73877746Y-101337779D01*
X74178100Y-100888268D01*
X74283570Y-100358033D01*
X74283570Y-99285967D01*
X74178100Y-98755732D01*
X73877746Y-98306221D01*
X73428235Y-98005867D01*
X72898000Y-97900397D01*
X72367765Y-98005867D01*
X71918254Y-98306221D01*
X71617900Y-98755732D01*
X71512430Y-99285967D01*
X69203570Y-99285967D01*
X69098100Y-98755732D01*
X68797746Y-98306221D01*
X68348235Y-98005867D01*
X67818000Y-97900397D01*
X67287765Y-98005867D01*
X66838254Y-98306221D01*
X66537900Y-98755732D01*
X66432430Y-99285967D01*
X45404042Y-99285967D01*
X45511271Y-99125489D01*
X45625345Y-98552000D01*
X45511271Y-97978511D01*
X45186415Y-97492330D01*
X44871634Y-97282000D01*
X45186415Y-97071670D01*
X45235121Y-96998775D01*
X55506803Y-96998775D01*
X55679233Y-97416086D01*
X55998235Y-97735645D01*
X56415244Y-97908803D01*
X56866775Y-97909197D01*
X57284086Y-97736767D01*
X57603645Y-97417765D01*
X57776803Y-97000756D01*
X57777197Y-96549225D01*
X57604767Y-96131914D01*
X57285765Y-95812355D01*
X56868756Y-95639197D01*
X56417225Y-95638803D01*
X55999914Y-95811233D01*
X55680355Y-96130235D01*
X55507197Y-96547244D01*
X55506803Y-96998775D01*
X45235121Y-96998775D01*
X45511271Y-96585489D01*
X45625345Y-96012000D01*
X45511271Y-95438511D01*
X45186415Y-94952330D01*
X44871634Y-94742000D01*
X45186415Y-94531670D01*
X45511271Y-94045489D01*
X45625345Y-93472000D01*
X45511271Y-92898511D01*
X45186415Y-92412330D01*
X44871634Y-92202000D01*
X44913588Y-92173967D01*
X66432430Y-92173967D01*
X66432430Y-93246033D01*
X66537900Y-93776268D01*
X66838254Y-94225779D01*
X67287765Y-94526133D01*
X67818000Y-94631603D01*
X68348235Y-94526133D01*
X68797746Y-94225779D01*
X69098100Y-93776268D01*
X69203570Y-93246033D01*
X69203570Y-92173967D01*
X69098100Y-91643732D01*
X68797746Y-91194221D01*
X68348235Y-90893867D01*
X67818000Y-90788397D01*
X67287765Y-90893867D01*
X66838254Y-91194221D01*
X66537900Y-91643732D01*
X66432430Y-92173967D01*
X44913588Y-92173967D01*
X45186415Y-91991670D01*
X45511271Y-91505489D01*
X45580634Y-91156775D01*
X51696803Y-91156775D01*
X51869233Y-91574086D01*
X52188235Y-91893645D01*
X52605244Y-92066803D01*
X53056775Y-92067197D01*
X53474086Y-91894767D01*
X53793645Y-91575765D01*
X53966803Y-91158756D01*
X53967197Y-90707225D01*
X53794767Y-90289914D01*
X53475765Y-89970355D01*
X53058756Y-89797197D01*
X52607225Y-89796803D01*
X52189914Y-89969233D01*
X51870355Y-90288235D01*
X51697197Y-90705244D01*
X51696803Y-91156775D01*
X45580634Y-91156775D01*
X45625345Y-90932000D01*
X45511271Y-90358511D01*
X45186415Y-89872330D01*
X44871634Y-89662000D01*
X45186415Y-89451670D01*
X45511271Y-88965489D01*
X45530110Y-88870775D01*
X45854803Y-88870775D01*
X46027233Y-89288086D01*
X46346235Y-89607645D01*
X46763244Y-89780803D01*
X47214775Y-89781197D01*
X47573982Y-89632775D01*
X58808803Y-89632775D01*
X58981233Y-90050086D01*
X59300235Y-90369645D01*
X59433562Y-90425007D01*
X59317197Y-90705244D01*
X59316803Y-91156775D01*
X59489233Y-91574086D01*
X59808235Y-91893645D01*
X60225244Y-92066803D01*
X60676775Y-92067197D01*
X61094086Y-91894767D01*
X61413645Y-91575765D01*
X61586803Y-91158756D01*
X61587197Y-90707225D01*
X61414767Y-90289914D01*
X61095765Y-89970355D01*
X60962438Y-89914993D01*
X61078803Y-89634756D01*
X61078804Y-89632775D01*
X63380803Y-89632775D01*
X63553233Y-90050086D01*
X63872235Y-90369645D01*
X64289244Y-90542803D01*
X64740775Y-90543197D01*
X65158086Y-90370767D01*
X65388479Y-90140775D01*
X70746803Y-90140775D01*
X70919233Y-90558086D01*
X71238235Y-90877645D01*
X71655244Y-91050803D01*
X72106775Y-91051197D01*
X72173673Y-91023555D01*
X71918254Y-91194221D01*
X71617900Y-91643732D01*
X71512430Y-92173967D01*
X71512430Y-93246033D01*
X71617900Y-93776268D01*
X71918254Y-94225779D01*
X72367765Y-94526133D01*
X72898000Y-94631603D01*
X73428235Y-94526133D01*
X73865442Y-94234000D01*
X92468960Y-94234000D01*
X92468960Y-96266000D01*
X92513238Y-96501317D01*
X92652310Y-96717441D01*
X92864510Y-96862431D01*
X93116400Y-96913440D01*
X94843600Y-96913440D01*
X95078917Y-96869162D01*
X95295041Y-96730090D01*
X95440031Y-96517890D01*
X95448400Y-96476561D01*
X95460330Y-96494415D01*
X95946511Y-96819271D01*
X96520000Y-96933345D01*
X97093489Y-96819271D01*
X97579670Y-96494415D01*
X97790000Y-96179634D01*
X98000330Y-96494415D01*
X98486511Y-96819271D01*
X99060000Y-96933345D01*
X99633489Y-96819271D01*
X100119670Y-96494415D01*
X100444526Y-96008234D01*
X100558600Y-95434745D01*
X100558600Y-95065255D01*
X100444526Y-94491766D01*
X100119670Y-94005585D01*
X99633489Y-93680729D01*
X99060000Y-93566655D01*
X98486511Y-93680729D01*
X98000330Y-94005585D01*
X97790000Y-94320366D01*
X97579670Y-94005585D01*
X97093489Y-93680729D01*
X96520000Y-93566655D01*
X95946511Y-93680729D01*
X95460330Y-94005585D01*
X95450757Y-94019913D01*
X95446762Y-93998683D01*
X95307690Y-93782559D01*
X95095490Y-93637569D01*
X94843600Y-93586560D01*
X93116400Y-93586560D01*
X92881083Y-93630838D01*
X92664959Y-93769910D01*
X92519969Y-93982110D01*
X92468960Y-94234000D01*
X73865442Y-94234000D01*
X73877746Y-94225779D01*
X74178100Y-93776268D01*
X74283570Y-93246033D01*
X74283570Y-92426775D01*
X97924803Y-92426775D01*
X98097233Y-92844086D01*
X98416235Y-93163645D01*
X98833244Y-93336803D01*
X99284775Y-93337197D01*
X99702086Y-93164767D01*
X100021645Y-92845765D01*
X100194803Y-92428756D01*
X100195197Y-91977225D01*
X100022767Y-91559914D01*
X99703765Y-91240355D01*
X99286756Y-91067197D01*
X98835225Y-91066803D01*
X98417914Y-91239233D01*
X98098355Y-91558235D01*
X97925197Y-91975244D01*
X97924803Y-92426775D01*
X74283570Y-92426775D01*
X74283570Y-92173967D01*
X74178100Y-91643732D01*
X73877746Y-91194221D01*
X73428235Y-90893867D01*
X72898000Y-90788397D01*
X72544095Y-90858793D01*
X72843645Y-90559765D01*
X72912155Y-90394775D01*
X85224803Y-90394775D01*
X85397233Y-90812086D01*
X85716235Y-91131645D01*
X86133244Y-91304803D01*
X86584775Y-91305197D01*
X87002086Y-91132767D01*
X87321645Y-90813765D01*
X87494803Y-90396756D01*
X87494804Y-90394775D01*
X95130803Y-90394775D01*
X95303233Y-90812086D01*
X95622235Y-91131645D01*
X96039244Y-91304803D01*
X96490775Y-91305197D01*
X96908086Y-91132767D01*
X97227645Y-90813765D01*
X97400803Y-90396756D01*
X97401197Y-89945225D01*
X97228767Y-89527914D01*
X97079888Y-89378775D01*
X105036803Y-89378775D01*
X105209233Y-89796086D01*
X105528235Y-90115645D01*
X105945244Y-90288803D01*
X106396775Y-90289197D01*
X106814086Y-90116767D01*
X107133645Y-89797765D01*
X107306803Y-89380756D01*
X107307197Y-88929225D01*
X107283046Y-88870775D01*
X110116803Y-88870775D01*
X110289233Y-89288086D01*
X110608235Y-89607645D01*
X111025244Y-89780803D01*
X111476775Y-89781197D01*
X111894086Y-89608767D01*
X112213645Y-89289765D01*
X112282155Y-89124775D01*
X119260803Y-89124775D01*
X119433233Y-89542086D01*
X119752235Y-89861645D01*
X120169244Y-90034803D01*
X120620775Y-90035197D01*
X121038086Y-89862767D01*
X121357645Y-89543765D01*
X121530803Y-89126756D01*
X121531197Y-88675225D01*
X121358767Y-88257914D01*
X121039765Y-87938355D01*
X120622756Y-87765197D01*
X120171225Y-87764803D01*
X119753914Y-87937233D01*
X119434355Y-88256235D01*
X119261197Y-88673244D01*
X119260803Y-89124775D01*
X112282155Y-89124775D01*
X112386803Y-88872756D01*
X112387197Y-88421225D01*
X112214767Y-88003914D01*
X111895765Y-87684355D01*
X111478756Y-87511197D01*
X111027225Y-87510803D01*
X110609914Y-87683233D01*
X110290355Y-88002235D01*
X110117197Y-88419244D01*
X110116803Y-88870775D01*
X107283046Y-88870775D01*
X107134767Y-88511914D01*
X106815765Y-88192355D01*
X106398756Y-88019197D01*
X105947225Y-88018803D01*
X105529914Y-88191233D01*
X105210355Y-88510235D01*
X105037197Y-88927244D01*
X105036803Y-89378775D01*
X97079888Y-89378775D01*
X96909765Y-89208355D01*
X96492756Y-89035197D01*
X96041225Y-89034803D01*
X95623914Y-89207233D01*
X95304355Y-89526235D01*
X95131197Y-89943244D01*
X95130803Y-90394775D01*
X87494804Y-90394775D01*
X87495197Y-89945225D01*
X87322767Y-89527914D01*
X87003765Y-89208355D01*
X86802483Y-89124775D01*
X89288803Y-89124775D01*
X89461233Y-89542086D01*
X89780235Y-89861645D01*
X90197244Y-90034803D01*
X90648775Y-90035197D01*
X91066086Y-89862767D01*
X91385645Y-89543765D01*
X91558803Y-89126756D01*
X91558804Y-89124775D01*
X93098803Y-89124775D01*
X93271233Y-89542086D01*
X93590235Y-89861645D01*
X94007244Y-90034803D01*
X94458775Y-90035197D01*
X94876086Y-89862767D01*
X95195645Y-89543765D01*
X95368803Y-89126756D01*
X95369197Y-88675225D01*
X95196767Y-88257914D01*
X94877765Y-87938355D01*
X94460756Y-87765197D01*
X94009225Y-87764803D01*
X93591914Y-87937233D01*
X93272355Y-88256235D01*
X93099197Y-88673244D01*
X93098803Y-89124775D01*
X91558804Y-89124775D01*
X91559197Y-88675225D01*
X91386767Y-88257914D01*
X91067765Y-87938355D01*
X90650756Y-87765197D01*
X90199225Y-87764803D01*
X89781914Y-87937233D01*
X89462355Y-88256235D01*
X89289197Y-88673244D01*
X89288803Y-89124775D01*
X86802483Y-89124775D01*
X86586756Y-89035197D01*
X86135225Y-89034803D01*
X85717914Y-89207233D01*
X85398355Y-89526235D01*
X85225197Y-89943244D01*
X85224803Y-90394775D01*
X72912155Y-90394775D01*
X73016803Y-90142756D01*
X73017197Y-89691225D01*
X72844767Y-89273914D01*
X72695888Y-89124775D01*
X75064803Y-89124775D01*
X75237233Y-89542086D01*
X75556235Y-89861645D01*
X75973244Y-90034803D01*
X76424775Y-90035197D01*
X76842086Y-89862767D01*
X77161645Y-89543765D01*
X77334803Y-89126756D01*
X77334804Y-89124775D01*
X79382803Y-89124775D01*
X79555233Y-89542086D01*
X79874235Y-89861645D01*
X80291244Y-90034803D01*
X80742775Y-90035197D01*
X81160086Y-89862767D01*
X81479645Y-89543765D01*
X81652803Y-89126756D01*
X81653197Y-88675225D01*
X81480767Y-88257914D01*
X81161765Y-87938355D01*
X80744756Y-87765197D01*
X80293225Y-87764803D01*
X79875914Y-87937233D01*
X79556355Y-88256235D01*
X79383197Y-88673244D01*
X79382803Y-89124775D01*
X77334804Y-89124775D01*
X77335197Y-88675225D01*
X77162767Y-88257914D01*
X76843765Y-87938355D01*
X76426756Y-87765197D01*
X75975225Y-87764803D01*
X75557914Y-87937233D01*
X75238355Y-88256235D01*
X75065197Y-88673244D01*
X75064803Y-89124775D01*
X72695888Y-89124775D01*
X72525765Y-88954355D01*
X72108756Y-88781197D01*
X71657225Y-88780803D01*
X71239914Y-88953233D01*
X70920355Y-89272235D01*
X70747197Y-89689244D01*
X70746803Y-90140775D01*
X65388479Y-90140775D01*
X65477645Y-90051765D01*
X65533007Y-89918438D01*
X65813244Y-90034803D01*
X66264775Y-90035197D01*
X66682086Y-89862767D01*
X67001645Y-89543765D01*
X67174803Y-89126756D01*
X67175197Y-88675225D01*
X67002767Y-88257914D01*
X66683765Y-87938355D01*
X66266756Y-87765197D01*
X65815225Y-87764803D01*
X65397914Y-87937233D01*
X65078355Y-88256235D01*
X65022993Y-88389562D01*
X64742756Y-88273197D01*
X64291225Y-88272803D01*
X63873914Y-88445233D01*
X63554355Y-88764235D01*
X63381197Y-89181244D01*
X63380803Y-89632775D01*
X61078804Y-89632775D01*
X61079197Y-89183225D01*
X60906767Y-88765914D01*
X60587765Y-88446355D01*
X60170756Y-88273197D01*
X59719225Y-88272803D01*
X59301914Y-88445233D01*
X58982355Y-88764235D01*
X58809197Y-89181244D01*
X58808803Y-89632775D01*
X47573982Y-89632775D01*
X47632086Y-89608767D01*
X47951645Y-89289765D01*
X48124803Y-88872756D01*
X48125197Y-88421225D01*
X47952767Y-88003914D01*
X47633765Y-87684355D01*
X47216756Y-87511197D01*
X46765225Y-87510803D01*
X46347914Y-87683233D01*
X46028355Y-88002235D01*
X45855197Y-88419244D01*
X45854803Y-88870775D01*
X45530110Y-88870775D01*
X45625345Y-88392000D01*
X45511271Y-87818511D01*
X45186415Y-87332330D01*
X44871634Y-87122000D01*
X45186415Y-86911670D01*
X45511271Y-86425489D01*
X45625345Y-85852000D01*
X45511271Y-85278511D01*
X45186415Y-84792330D01*
X44871634Y-84582000D01*
X45186415Y-84371670D01*
X45235121Y-84298775D01*
X48394803Y-84298775D01*
X48567233Y-84716086D01*
X48886235Y-85035645D01*
X49303244Y-85208803D01*
X49732493Y-85209178D01*
X49665197Y-85371244D01*
X49664803Y-85822775D01*
X49837233Y-86240086D01*
X50156235Y-86559645D01*
X50573244Y-86732803D01*
X51024775Y-86733197D01*
X51442086Y-86560767D01*
X51761645Y-86241765D01*
X51934803Y-85824756D01*
X51934804Y-85822775D01*
X54490803Y-85822775D01*
X54663233Y-86240086D01*
X54982235Y-86559645D01*
X55399244Y-86732803D01*
X55850775Y-86733197D01*
X56268086Y-86560767D01*
X56587645Y-86241765D01*
X56760803Y-85824756D01*
X56760804Y-85822775D01*
X57792803Y-85822775D01*
X57965233Y-86240086D01*
X58284235Y-86559645D01*
X58701244Y-86732803D01*
X59152775Y-86733197D01*
X59570086Y-86560767D01*
X59889645Y-86241765D01*
X59958155Y-86076775D01*
X83954803Y-86076775D01*
X84127233Y-86494086D01*
X84446235Y-86813645D01*
X84863244Y-86986803D01*
X85314775Y-86987197D01*
X85732086Y-86814767D01*
X86051645Y-86495765D01*
X86224803Y-86078756D01*
X86224804Y-86076775D01*
X95130803Y-86076775D01*
X95303233Y-86494086D01*
X95622235Y-86813645D01*
X96039244Y-86986803D01*
X96490775Y-86987197D01*
X96849982Y-86838775D01*
X105036803Y-86838775D01*
X105209233Y-87256086D01*
X105528235Y-87575645D01*
X105945244Y-87748803D01*
X106396775Y-87749197D01*
X106814086Y-87576767D01*
X107133645Y-87257765D01*
X107306803Y-86840756D01*
X107307197Y-86389225D01*
X107134767Y-85971914D01*
X106815765Y-85652355D01*
X106398756Y-85479197D01*
X105947225Y-85478803D01*
X105529914Y-85651233D01*
X105210355Y-85970235D01*
X105037197Y-86387244D01*
X105036803Y-86838775D01*
X96849982Y-86838775D01*
X96908086Y-86814767D01*
X97227645Y-86495765D01*
X97400803Y-86078756D01*
X97401197Y-85627225D01*
X97228767Y-85209914D01*
X96909765Y-84890355D01*
X96492756Y-84717197D01*
X96041225Y-84716803D01*
X95623914Y-84889233D01*
X95304355Y-85208235D01*
X95131197Y-85625244D01*
X95130803Y-86076775D01*
X86224804Y-86076775D01*
X86225197Y-85627225D01*
X86052767Y-85209914D01*
X85733765Y-84890355D01*
X85316756Y-84717197D01*
X84865225Y-84716803D01*
X84447914Y-84889233D01*
X84128355Y-85208235D01*
X83955197Y-85625244D01*
X83954803Y-86076775D01*
X59958155Y-86076775D01*
X60062803Y-85824756D01*
X60063197Y-85373225D01*
X59890767Y-84955914D01*
X59571765Y-84636355D01*
X59154756Y-84463197D01*
X58703225Y-84462803D01*
X58285914Y-84635233D01*
X57966355Y-84954235D01*
X57793197Y-85371244D01*
X57792803Y-85822775D01*
X56760804Y-85822775D01*
X56761197Y-85373225D01*
X56588767Y-84955914D01*
X56269765Y-84636355D01*
X55852756Y-84463197D01*
X55401225Y-84462803D01*
X54983914Y-84635233D01*
X54664355Y-84954235D01*
X54491197Y-85371244D01*
X54490803Y-85822775D01*
X51934804Y-85822775D01*
X51935197Y-85373225D01*
X51762767Y-84955914D01*
X51443765Y-84636355D01*
X51026756Y-84463197D01*
X50597507Y-84462822D01*
X50664803Y-84300756D01*
X50664804Y-84298775D01*
X60078803Y-84298775D01*
X60251233Y-84716086D01*
X60570235Y-85035645D01*
X60987244Y-85208803D01*
X61438775Y-85209197D01*
X61856086Y-85036767D01*
X62175645Y-84717765D01*
X62348803Y-84300756D01*
X62349197Y-83849225D01*
X62176767Y-83431914D01*
X61857765Y-83112355D01*
X61440756Y-82939197D01*
X60989225Y-82938803D01*
X60571914Y-83111233D01*
X60252355Y-83430235D01*
X60079197Y-83847244D01*
X60078803Y-84298775D01*
X50664804Y-84298775D01*
X50665197Y-83849225D01*
X50492767Y-83431914D01*
X50173765Y-83112355D01*
X49756756Y-82939197D01*
X49305225Y-82938803D01*
X48887914Y-83111233D01*
X48568355Y-83430235D01*
X48395197Y-83847244D01*
X48394803Y-84298775D01*
X45235121Y-84298775D01*
X45511271Y-83885489D01*
X45625345Y-83312000D01*
X45511271Y-82738511D01*
X45186415Y-82252330D01*
X44871634Y-82042000D01*
X45186415Y-81831670D01*
X45511271Y-81345489D01*
X45625345Y-80772000D01*
X45619532Y-80742775D01*
X49410803Y-80742775D01*
X49583233Y-81160086D01*
X49902235Y-81479645D01*
X50319244Y-81652803D01*
X50770775Y-81653197D01*
X51129982Y-81504775D01*
X74810803Y-81504775D01*
X74983233Y-81922086D01*
X75302235Y-82241645D01*
X75719244Y-82414803D01*
X76170775Y-82415197D01*
X76588086Y-82242767D01*
X76907645Y-81923765D01*
X77080803Y-81506756D01*
X77080804Y-81504775D01*
X89288803Y-81504775D01*
X89461233Y-81922086D01*
X89780235Y-82241645D01*
X90197244Y-82414803D01*
X90648775Y-82415197D01*
X91066086Y-82242767D01*
X91385645Y-81923765D01*
X91558803Y-81506756D01*
X91558804Y-81504775D01*
X102496803Y-81504775D01*
X102669233Y-81922086D01*
X102988235Y-82241645D01*
X103405244Y-82414803D01*
X103856775Y-82415197D01*
X104274086Y-82242767D01*
X104593645Y-81923765D01*
X104766803Y-81506756D01*
X104766804Y-81504775D01*
X119260803Y-81504775D01*
X119433233Y-81922086D01*
X119752235Y-82241645D01*
X120169244Y-82414803D01*
X120620775Y-82415197D01*
X121038086Y-82242767D01*
X121357645Y-81923765D01*
X121530803Y-81506756D01*
X121531197Y-81055225D01*
X121358767Y-80637914D01*
X121039765Y-80318355D01*
X120622756Y-80145197D01*
X120171225Y-80144803D01*
X119753914Y-80317233D01*
X119434355Y-80636235D01*
X119261197Y-81053244D01*
X119260803Y-81504775D01*
X104766804Y-81504775D01*
X104767197Y-81055225D01*
X104594767Y-80637914D01*
X104275765Y-80318355D01*
X103858756Y-80145197D01*
X103407225Y-80144803D01*
X102989914Y-80317233D01*
X102670355Y-80636235D01*
X102497197Y-81053244D01*
X102496803Y-81504775D01*
X91558804Y-81504775D01*
X91559197Y-81055225D01*
X91386767Y-80637914D01*
X91067765Y-80318355D01*
X90650756Y-80145197D01*
X90199225Y-80144803D01*
X89781914Y-80317233D01*
X89462355Y-80636235D01*
X89289197Y-81053244D01*
X89288803Y-81504775D01*
X77080804Y-81504775D01*
X77081197Y-81055225D01*
X76908767Y-80637914D01*
X76589765Y-80318355D01*
X76172756Y-80145197D01*
X75721225Y-80144803D01*
X75303914Y-80317233D01*
X74984355Y-80636235D01*
X74811197Y-81053244D01*
X74810803Y-81504775D01*
X51129982Y-81504775D01*
X51188086Y-81480767D01*
X51507645Y-81161765D01*
X51680803Y-80744756D01*
X51681197Y-80293225D01*
X51552095Y-79980775D01*
X53982803Y-79980775D01*
X54155233Y-80398086D01*
X54474235Y-80717645D01*
X54891244Y-80890803D01*
X55342775Y-80891197D01*
X55760086Y-80718767D01*
X56079645Y-80399765D01*
X56252803Y-79982756D01*
X56253026Y-79726775D01*
X60586803Y-79726775D01*
X60759233Y-80144086D01*
X61078235Y-80463645D01*
X61495244Y-80636803D01*
X61946775Y-80637197D01*
X62364086Y-80464767D01*
X62683645Y-80145765D01*
X62856803Y-79728756D01*
X62856804Y-79726775D01*
X95384803Y-79726775D01*
X95557233Y-80144086D01*
X95876235Y-80463645D01*
X96293244Y-80636803D01*
X96744775Y-80637197D01*
X97162086Y-80464767D01*
X97481645Y-80145765D01*
X97654803Y-79728756D01*
X97654804Y-79726775D01*
X98432803Y-79726775D01*
X98605233Y-80144086D01*
X98924235Y-80463645D01*
X99341244Y-80636803D01*
X99792775Y-80637197D01*
X100210086Y-80464767D01*
X100529645Y-80145765D01*
X100702803Y-79728756D01*
X100703197Y-79277225D01*
X100530767Y-78859914D01*
X100211765Y-78540355D01*
X99794756Y-78367197D01*
X99343225Y-78366803D01*
X98925914Y-78539233D01*
X98606355Y-78858235D01*
X98433197Y-79275244D01*
X98432803Y-79726775D01*
X97654804Y-79726775D01*
X97655197Y-79277225D01*
X97482767Y-78859914D01*
X97163765Y-78540355D01*
X96746756Y-78367197D01*
X96295225Y-78366803D01*
X95877914Y-78539233D01*
X95558355Y-78858235D01*
X95385197Y-79275244D01*
X95384803Y-79726775D01*
X62856804Y-79726775D01*
X62857197Y-79277225D01*
X62684767Y-78859914D01*
X62365765Y-78540355D01*
X61948756Y-78367197D01*
X61497225Y-78366803D01*
X61079914Y-78539233D01*
X60760355Y-78858235D01*
X60587197Y-79275244D01*
X60586803Y-79726775D01*
X56253026Y-79726775D01*
X56253197Y-79531225D01*
X56080767Y-79113914D01*
X55761765Y-78794355D01*
X55344756Y-78621197D01*
X54893225Y-78620803D01*
X54475914Y-78793233D01*
X54156355Y-79112235D01*
X53983197Y-79529244D01*
X53982803Y-79980775D01*
X51552095Y-79980775D01*
X51508767Y-79875914D01*
X51189765Y-79556355D01*
X50772756Y-79383197D01*
X50321225Y-79382803D01*
X49903914Y-79555233D01*
X49584355Y-79874235D01*
X49411197Y-80291244D01*
X49410803Y-80742775D01*
X45619532Y-80742775D01*
X45511271Y-80198511D01*
X45186415Y-79712330D01*
X44871634Y-79502000D01*
X45186415Y-79291670D01*
X45511271Y-78805489D01*
X45625345Y-78232000D01*
X45518485Y-77694775D01*
X53982803Y-77694775D01*
X54155233Y-78112086D01*
X54474235Y-78431645D01*
X54891244Y-78604803D01*
X55342775Y-78605197D01*
X55760086Y-78432767D01*
X55990479Y-78202775D01*
X64904803Y-78202775D01*
X65077233Y-78620086D01*
X65396235Y-78939645D01*
X65813244Y-79112803D01*
X66264775Y-79113197D01*
X66682086Y-78940767D01*
X67001645Y-78621765D01*
X67070155Y-78456775D01*
X80144803Y-78456775D01*
X80317233Y-78874086D01*
X80636235Y-79193645D01*
X81053244Y-79366803D01*
X81504775Y-79367197D01*
X81922086Y-79194767D01*
X82241645Y-78875765D01*
X82414803Y-78458756D01*
X82415197Y-78007225D01*
X82242767Y-77589914D01*
X81923765Y-77270355D01*
X81506756Y-77097197D01*
X81055225Y-77096803D01*
X80637914Y-77269233D01*
X80318355Y-77588235D01*
X80145197Y-78005244D01*
X80144803Y-78456775D01*
X67070155Y-78456775D01*
X67174803Y-78204756D01*
X67175197Y-77753225D01*
X67002767Y-77335914D01*
X66683765Y-77016355D01*
X66266756Y-76843197D01*
X65815225Y-76842803D01*
X65397914Y-77015233D01*
X65078355Y-77334235D01*
X64905197Y-77751244D01*
X64904803Y-78202775D01*
X55990479Y-78202775D01*
X56079645Y-78113765D01*
X56252803Y-77696756D01*
X56253197Y-77245225D01*
X56080767Y-76827914D01*
X55761765Y-76508355D01*
X55344756Y-76335197D01*
X54893225Y-76334803D01*
X54475914Y-76507233D01*
X54156355Y-76826235D01*
X53983197Y-77243244D01*
X53982803Y-77694775D01*
X45518485Y-77694775D01*
X45511271Y-77658511D01*
X45186415Y-77172330D01*
X44871634Y-76962000D01*
X45186415Y-76751670D01*
X45511271Y-76265489D01*
X45580634Y-75916775D01*
X64904803Y-75916775D01*
X65077233Y-76334086D01*
X65396235Y-76653645D01*
X65813244Y-76826803D01*
X66264775Y-76827197D01*
X66682086Y-76654767D01*
X67001645Y-76335765D01*
X67174803Y-75918756D01*
X67175197Y-75467225D01*
X67002767Y-75049914D01*
X66683765Y-74730355D01*
X66266756Y-74557197D01*
X65815225Y-74556803D01*
X65397914Y-74729233D01*
X65078355Y-75048235D01*
X64905197Y-75465244D01*
X64904803Y-75916775D01*
X45580634Y-75916775D01*
X45625345Y-75692000D01*
X45511271Y-75118511D01*
X45365785Y-74900775D01*
X56014803Y-74900775D01*
X56187233Y-75318086D01*
X56506235Y-75637645D01*
X56923244Y-75810803D01*
X57374775Y-75811197D01*
X57792086Y-75638767D01*
X58111645Y-75319765D01*
X58284803Y-74902756D01*
X58285197Y-74451225D01*
X58112767Y-74033914D01*
X57793765Y-73714355D01*
X57376756Y-73541197D01*
X56925225Y-73540803D01*
X56507914Y-73713233D01*
X56188355Y-74032235D01*
X56015197Y-74449244D01*
X56014803Y-74900775D01*
X45365785Y-74900775D01*
X45186415Y-74632330D01*
X44871634Y-74422000D01*
X45186415Y-74211670D01*
X45511271Y-73725489D01*
X45625345Y-73152000D01*
X45511271Y-72578511D01*
X45196864Y-72107967D01*
X70242430Y-72107967D01*
X70242430Y-73180033D01*
X70347900Y-73710268D01*
X70648254Y-74159779D01*
X71097765Y-74460133D01*
X71628000Y-74565603D01*
X72158235Y-74460133D01*
X72607746Y-74159779D01*
X72908100Y-73710268D01*
X73013570Y-73180033D01*
X73013570Y-72107967D01*
X75322430Y-72107967D01*
X75322430Y-73180033D01*
X75427900Y-73710268D01*
X75728254Y-74159779D01*
X76177765Y-74460133D01*
X76708000Y-74565603D01*
X77238235Y-74460133D01*
X77687746Y-74159779D01*
X77988100Y-73710268D01*
X78093570Y-73180033D01*
X78093570Y-73152481D01*
X80328777Y-73152481D01*
X80523995Y-73624943D01*
X80885155Y-73986735D01*
X81357276Y-74182777D01*
X81868481Y-74183223D01*
X82340943Y-73988005D01*
X82702735Y-73626845D01*
X82898777Y-73154724D01*
X82899223Y-72643519D01*
X82735798Y-72248000D01*
X85316560Y-72248000D01*
X85316560Y-73548000D01*
X85360838Y-73783317D01*
X85499910Y-73999441D01*
X85712110Y-74144431D01*
X85964000Y-74195440D01*
X87264000Y-74195440D01*
X87499317Y-74151162D01*
X87715441Y-74012090D01*
X87860431Y-73799890D01*
X87911440Y-73548000D01*
X87911440Y-72248000D01*
X87867162Y-72012683D01*
X87728090Y-71796559D01*
X87515890Y-71651569D01*
X87264000Y-71600560D01*
X85964000Y-71600560D01*
X85728683Y-71644838D01*
X85512559Y-71783910D01*
X85367569Y-71996110D01*
X85316560Y-72248000D01*
X82735798Y-72248000D01*
X82704005Y-72171057D01*
X82342845Y-71809265D01*
X81870724Y-71613223D01*
X81359519Y-71612777D01*
X80887057Y-71807995D01*
X80525265Y-72169155D01*
X80329223Y-72641276D01*
X80328777Y-73152481D01*
X78093570Y-73152481D01*
X78093570Y-72107967D01*
X77988100Y-71577732D01*
X77687746Y-71128221D01*
X77238235Y-70827867D01*
X76708000Y-70722397D01*
X76177765Y-70827867D01*
X75728254Y-71128221D01*
X75427900Y-71577732D01*
X75322430Y-72107967D01*
X73013570Y-72107967D01*
X72908100Y-71577732D01*
X72607746Y-71128221D01*
X72158235Y-70827867D01*
X71628000Y-70722397D01*
X71097765Y-70827867D01*
X70648254Y-71128221D01*
X70347900Y-71577732D01*
X70242430Y-72107967D01*
X45196864Y-72107967D01*
X45186415Y-72092330D01*
X44871634Y-71882000D01*
X45186415Y-71671670D01*
X45511271Y-71185489D01*
X45580634Y-70836775D01*
X53728803Y-70836775D01*
X53901233Y-71254086D01*
X54220235Y-71573645D01*
X54637244Y-71746803D01*
X55088775Y-71747197D01*
X55506086Y-71574767D01*
X55825645Y-71255765D01*
X55998803Y-70838756D01*
X55999197Y-70387225D01*
X55826767Y-69969914D01*
X55507765Y-69650355D01*
X55090756Y-69477197D01*
X54639225Y-69476803D01*
X54221914Y-69649233D01*
X53902355Y-69968235D01*
X53729197Y-70385244D01*
X53728803Y-70836775D01*
X45580634Y-70836775D01*
X45625345Y-70612000D01*
X45511271Y-70038511D01*
X45186415Y-69552330D01*
X44871634Y-69342000D01*
X45186415Y-69131670D01*
X45511271Y-68645489D01*
X45625345Y-68072000D01*
X45511271Y-67498511D01*
X45317425Y-67208400D01*
X84594960Y-67208400D01*
X84594960Y-69443600D01*
X84639238Y-69678917D01*
X84778310Y-69895041D01*
X84990510Y-70040031D01*
X85242400Y-70091040D01*
X87477600Y-70091040D01*
X87712917Y-70046762D01*
X87929041Y-69907690D01*
X88074031Y-69695490D01*
X88125040Y-69443600D01*
X88125040Y-67208400D01*
X88080762Y-66973083D01*
X87941690Y-66756959D01*
X87729490Y-66611969D01*
X87477600Y-66560960D01*
X85242400Y-66560960D01*
X85007083Y-66605238D01*
X84790959Y-66744310D01*
X84645969Y-66956510D01*
X84594960Y-67208400D01*
X45317425Y-67208400D01*
X45186415Y-67012330D01*
X44871634Y-66802000D01*
X45186415Y-66591670D01*
X45511271Y-66105489D01*
X45625345Y-65532000D01*
X45511271Y-64958511D01*
X45186415Y-64472330D01*
X45164220Y-64457500D01*
X45317698Y-64393927D01*
X45496327Y-64215299D01*
X45593000Y-63981910D01*
X45593000Y-63277750D01*
X45434250Y-63119000D01*
X44069000Y-63119000D01*
X44069000Y-63139000D01*
X43815000Y-63139000D01*
X43815000Y-63119000D01*
X42449750Y-63119000D01*
X42291000Y-63277750D01*
X42291000Y-63981910D01*
X42387673Y-64215299D01*
X42566302Y-64393927D01*
X42719780Y-64457500D01*
X42697585Y-64472330D01*
X42372729Y-64958511D01*
X42258655Y-65532000D01*
X41529000Y-65532000D01*
X41529000Y-62002090D01*
X42291000Y-62002090D01*
X42291000Y-62706250D01*
X42449750Y-62865000D01*
X43815000Y-62865000D01*
X43815000Y-61652150D01*
X44069000Y-61652150D01*
X44069000Y-62865000D01*
X45434250Y-62865000D01*
X45590475Y-62708775D01*
X53728803Y-62708775D01*
X53901233Y-63126086D01*
X54220235Y-63445645D01*
X54637244Y-63618803D01*
X55088775Y-63619197D01*
X55506086Y-63446767D01*
X55825645Y-63127765D01*
X55998803Y-62710756D01*
X55999197Y-62259225D01*
X55826767Y-61841914D01*
X55507765Y-61522355D01*
X55090756Y-61349197D01*
X54639225Y-61348803D01*
X54221914Y-61521233D01*
X53902355Y-61840235D01*
X53729197Y-62257244D01*
X53728803Y-62708775D01*
X45590475Y-62708775D01*
X45593000Y-62706250D01*
X45593000Y-62002090D01*
X45496327Y-61768701D01*
X45317698Y-61590073D01*
X45084309Y-61493400D01*
X44227750Y-61493400D01*
X44069000Y-61652150D01*
X43815000Y-61652150D01*
X43656250Y-61493400D01*
X42799691Y-61493400D01*
X42566302Y-61590073D01*
X42387673Y-61768701D01*
X42291000Y-62002090D01*
X41529000Y-62002090D01*
X41529000Y-53818775D01*
X56014803Y-53818775D01*
X56187233Y-54236086D01*
X56506235Y-54555645D01*
X56923244Y-54728803D01*
X57374775Y-54729197D01*
X57792086Y-54556767D01*
X58111645Y-54237765D01*
X58284803Y-53820756D01*
X58285197Y-53369225D01*
X58112767Y-52951914D01*
X57793765Y-52632355D01*
X57376756Y-52459197D01*
X56925225Y-52458803D01*
X56507914Y-52631233D01*
X56188355Y-52950235D01*
X56015197Y-53367244D01*
X56014803Y-53818775D01*
X41529000Y-53818775D01*
X41529000Y-38354000D01*
X42258655Y-38354000D01*
X42372729Y-38927489D01*
X42697585Y-39413670D01*
X43012366Y-39624000D01*
X42697585Y-39834330D01*
X42372729Y-40320511D01*
X42258655Y-40894000D01*
X42372729Y-41467489D01*
X42697585Y-41953670D01*
X43012366Y-42164000D01*
X42697585Y-42374330D01*
X42372729Y-42860511D01*
X42258655Y-43434000D01*
X42372729Y-44007489D01*
X42697585Y-44493670D01*
X43012366Y-44704000D01*
X42697585Y-44914330D01*
X42372729Y-45400511D01*
X42258655Y-45974000D01*
X42372729Y-46547489D01*
X42697585Y-47033670D01*
X43012366Y-47244000D01*
X42697585Y-47454330D01*
X42372729Y-47940511D01*
X42258655Y-48514000D01*
X42372729Y-49087489D01*
X42697585Y-49573670D01*
X43012366Y-49784000D01*
X42697585Y-49994330D01*
X42372729Y-50480511D01*
X42258655Y-51054000D01*
X42372729Y-51627489D01*
X42697585Y-52113670D01*
X43183766Y-52438526D01*
X43757255Y-52552600D01*
X44126745Y-52552600D01*
X44700234Y-52438526D01*
X45186415Y-52113670D01*
X45511271Y-51627489D01*
X45625345Y-51054000D01*
X45511271Y-50480511D01*
X45186415Y-49994330D01*
X44871634Y-49784000D01*
X45186415Y-49573670D01*
X45511271Y-49087489D01*
X45625345Y-48514000D01*
X45619769Y-48485967D01*
X62622430Y-48485967D01*
X62622430Y-49558033D01*
X62727900Y-50088268D01*
X63028254Y-50537779D01*
X63477765Y-50838133D01*
X64008000Y-50943603D01*
X64538235Y-50838133D01*
X64987746Y-50537779D01*
X65288100Y-50088268D01*
X65393570Y-49558033D01*
X65393570Y-48485967D01*
X67702430Y-48485967D01*
X67702430Y-49558033D01*
X67807900Y-50088268D01*
X68108254Y-50537779D01*
X68557765Y-50838133D01*
X69088000Y-50943603D01*
X69618235Y-50838133D01*
X69717259Y-50771967D01*
X112152430Y-50771967D01*
X112152430Y-51844033D01*
X112257900Y-52374268D01*
X112558254Y-52823779D01*
X113007765Y-53124133D01*
X113538000Y-53229603D01*
X114068235Y-53124133D01*
X114517746Y-52823779D01*
X114818100Y-52374268D01*
X114923570Y-51844033D01*
X114923570Y-50771967D01*
X117232430Y-50771967D01*
X117232430Y-51844033D01*
X117337900Y-52374268D01*
X117638254Y-52823779D01*
X118087765Y-53124133D01*
X118618000Y-53229603D01*
X119148235Y-53124133D01*
X119597746Y-52823779D01*
X119898100Y-52374268D01*
X120003570Y-51844033D01*
X120003570Y-51278775D01*
X130690803Y-51278775D01*
X130863233Y-51696086D01*
X131182235Y-52015645D01*
X131599244Y-52188803D01*
X132050775Y-52189197D01*
X132468086Y-52016767D01*
X132787645Y-51697765D01*
X132960803Y-51280756D01*
X132961197Y-50829225D01*
X132788767Y-50411914D01*
X132469765Y-50092355D01*
X132052756Y-49919197D01*
X131601225Y-49918803D01*
X131183914Y-50091233D01*
X130864355Y-50410235D01*
X130691197Y-50827244D01*
X130690803Y-51278775D01*
X120003570Y-51278775D01*
X120003570Y-50771967D01*
X119898100Y-50241732D01*
X119597746Y-49792221D01*
X119161567Y-49500775D01*
X121292803Y-49500775D01*
X121465233Y-49918086D01*
X121784235Y-50237645D01*
X122201244Y-50410803D01*
X122652775Y-50411197D01*
X123070086Y-50238767D01*
X123389645Y-49919765D01*
X123562803Y-49502756D01*
X123563197Y-49051225D01*
X123539046Y-48992775D01*
X130690803Y-48992775D01*
X130863233Y-49410086D01*
X131182235Y-49729645D01*
X131599244Y-49902803D01*
X132050775Y-49903197D01*
X132468086Y-49730767D01*
X132787645Y-49411765D01*
X132960803Y-48994756D01*
X132961197Y-48543225D01*
X132788767Y-48125914D01*
X132469765Y-47806355D01*
X132052756Y-47633197D01*
X131601225Y-47632803D01*
X131183914Y-47805233D01*
X130864355Y-48124235D01*
X130691197Y-48541244D01*
X130690803Y-48992775D01*
X123539046Y-48992775D01*
X123390767Y-48633914D01*
X123071765Y-48314355D01*
X122654756Y-48141197D01*
X122203225Y-48140803D01*
X121785914Y-48313233D01*
X121466355Y-48632235D01*
X121293197Y-49049244D01*
X121292803Y-49500775D01*
X119161567Y-49500775D01*
X119148235Y-49491867D01*
X118618000Y-49386397D01*
X118087765Y-49491867D01*
X117638254Y-49792221D01*
X117337900Y-50241732D01*
X117232430Y-50771967D01*
X114923570Y-50771967D01*
X114818100Y-50241732D01*
X114517746Y-49792221D01*
X114068235Y-49491867D01*
X113538000Y-49386397D01*
X113007765Y-49491867D01*
X112558254Y-49792221D01*
X112257900Y-50241732D01*
X112152430Y-50771967D01*
X69717259Y-50771967D01*
X70067746Y-50537779D01*
X70368100Y-50088268D01*
X70473570Y-49558033D01*
X70473570Y-48485967D01*
X70368100Y-47955732D01*
X70077395Y-47520661D01*
X111632758Y-47520661D01*
X111844990Y-48034303D01*
X112237630Y-48427629D01*
X112750900Y-48640757D01*
X113306661Y-48641242D01*
X113820303Y-48429010D01*
X114213629Y-48036370D01*
X114426757Y-47523100D01*
X114426759Y-47520661D01*
X116712758Y-47520661D01*
X116924990Y-48034303D01*
X117317630Y-48427629D01*
X117830900Y-48640757D01*
X118386661Y-48641242D01*
X118900303Y-48429010D01*
X119293629Y-48036370D01*
X119506757Y-47523100D01*
X119507242Y-46967339D01*
X119295010Y-46453697D01*
X118902370Y-46060371D01*
X118389100Y-45847243D01*
X117833339Y-45846758D01*
X117319697Y-46058990D01*
X116926371Y-46451630D01*
X116713243Y-46964900D01*
X116712758Y-47520661D01*
X114426759Y-47520661D01*
X114427242Y-46967339D01*
X114215010Y-46453697D01*
X113822370Y-46060371D01*
X113309100Y-45847243D01*
X112753339Y-45846758D01*
X112239697Y-46058990D01*
X111846371Y-46451630D01*
X111633243Y-46964900D01*
X111632758Y-47520661D01*
X70077395Y-47520661D01*
X70067746Y-47506221D01*
X69618235Y-47205867D01*
X69088000Y-47100397D01*
X68557765Y-47205867D01*
X68108254Y-47506221D01*
X67807900Y-47955732D01*
X67702430Y-48485967D01*
X65393570Y-48485967D01*
X65288100Y-47955732D01*
X64987746Y-47506221D01*
X64538235Y-47205867D01*
X64008000Y-47100397D01*
X63477765Y-47205867D01*
X63028254Y-47506221D01*
X62727900Y-47955732D01*
X62622430Y-48485967D01*
X45619769Y-48485967D01*
X45511271Y-47940511D01*
X45186415Y-47454330D01*
X44871634Y-47244000D01*
X45186415Y-47033670D01*
X45511271Y-46547489D01*
X45625345Y-45974000D01*
X45511271Y-45400511D01*
X45365785Y-45182775D01*
X49156803Y-45182775D01*
X49329233Y-45600086D01*
X49648235Y-45919645D01*
X50065244Y-46092803D01*
X50516775Y-46093197D01*
X50934086Y-45920767D01*
X51253645Y-45601765D01*
X51426803Y-45184756D01*
X51427197Y-44733225D01*
X51403046Y-44674775D01*
X59570803Y-44674775D01*
X59743233Y-45092086D01*
X60062235Y-45411645D01*
X60479244Y-45584803D01*
X60930775Y-45585197D01*
X61348086Y-45412767D01*
X61667645Y-45093765D01*
X61840803Y-44676756D01*
X61841197Y-44225225D01*
X61733534Y-43964661D01*
X63118758Y-43964661D01*
X63330990Y-44478303D01*
X63723630Y-44871629D01*
X64236900Y-45084757D01*
X64792661Y-45085242D01*
X65306303Y-44873010D01*
X65699629Y-44480370D01*
X65912757Y-43967100D01*
X65912759Y-43964661D01*
X68198758Y-43964661D01*
X68410990Y-44478303D01*
X68803630Y-44871629D01*
X69316900Y-45084757D01*
X69872661Y-45085242D01*
X70125767Y-44980661D01*
X89280758Y-44980661D01*
X89492990Y-45494303D01*
X89885630Y-45887629D01*
X90398900Y-46100757D01*
X90954661Y-46101242D01*
X91468303Y-45889010D01*
X91861629Y-45496370D01*
X92074757Y-44983100D01*
X92074759Y-44980661D01*
X114172758Y-44980661D01*
X114384990Y-45494303D01*
X114777630Y-45887629D01*
X115290900Y-46100757D01*
X115846661Y-46101242D01*
X116360303Y-45889010D01*
X116753629Y-45496370D01*
X116966757Y-44983100D01*
X116967242Y-44427339D01*
X116755010Y-43913697D01*
X116362370Y-43520371D01*
X115849100Y-43307243D01*
X115293339Y-43306758D01*
X114779697Y-43518990D01*
X114386371Y-43911630D01*
X114173243Y-44424900D01*
X114172758Y-44980661D01*
X92074759Y-44980661D01*
X92075242Y-44427339D01*
X91863010Y-43913697D01*
X91470370Y-43520371D01*
X90957100Y-43307243D01*
X90401339Y-43306758D01*
X89887697Y-43518990D01*
X89494371Y-43911630D01*
X89281243Y-44424900D01*
X89280758Y-44980661D01*
X70125767Y-44980661D01*
X70386303Y-44873010D01*
X70779629Y-44480370D01*
X70992757Y-43967100D01*
X70993242Y-43411339D01*
X70781010Y-42897697D01*
X70388370Y-42504371D01*
X69875100Y-42291243D01*
X69319339Y-42290758D01*
X68805697Y-42502990D01*
X68412371Y-42895630D01*
X68199243Y-43408900D01*
X68198758Y-43964661D01*
X65912759Y-43964661D01*
X65913242Y-43411339D01*
X65701010Y-42897697D01*
X65308370Y-42504371D01*
X64795100Y-42291243D01*
X64239339Y-42290758D01*
X63725697Y-42502990D01*
X63332371Y-42895630D01*
X63119243Y-43408900D01*
X63118758Y-43964661D01*
X61733534Y-43964661D01*
X61668767Y-43807914D01*
X61349765Y-43488355D01*
X60932756Y-43315197D01*
X60481225Y-43314803D01*
X60063914Y-43487233D01*
X59744355Y-43806235D01*
X59571197Y-44223244D01*
X59570803Y-44674775D01*
X51403046Y-44674775D01*
X51254767Y-44315914D01*
X50935765Y-43996355D01*
X50518756Y-43823197D01*
X50067225Y-43822803D01*
X49649914Y-43995233D01*
X49330355Y-44314235D01*
X49157197Y-44731244D01*
X49156803Y-45182775D01*
X45365785Y-45182775D01*
X45186415Y-44914330D01*
X44871634Y-44704000D01*
X45186415Y-44493670D01*
X45511271Y-44007489D01*
X45625345Y-43434000D01*
X45511271Y-42860511D01*
X45186415Y-42374330D01*
X44871634Y-42164000D01*
X45186415Y-41953670D01*
X45511271Y-41467489D01*
X45519790Y-41424661D01*
X65658758Y-41424661D01*
X65870990Y-41938303D01*
X66263630Y-42331629D01*
X66776900Y-42544757D01*
X67332661Y-42545242D01*
X67846303Y-42333010D01*
X67992907Y-42186661D01*
X86613758Y-42186661D01*
X86825990Y-42700303D01*
X87218630Y-43093629D01*
X87731900Y-43306757D01*
X88287661Y-43307242D01*
X88801303Y-43095010D01*
X89194629Y-42702370D01*
X89407757Y-42189100D01*
X89408242Y-41633339D01*
X89196010Y-41119697D01*
X88803370Y-40726371D01*
X88290100Y-40513243D01*
X87734339Y-40512758D01*
X87220697Y-40724990D01*
X86827371Y-41117630D01*
X86614243Y-41630900D01*
X86613758Y-42186661D01*
X67992907Y-42186661D01*
X68239629Y-41940370D01*
X68452757Y-41427100D01*
X68453242Y-40871339D01*
X68241010Y-40357697D01*
X67848370Y-39964371D01*
X67335100Y-39751243D01*
X66779339Y-39750758D01*
X66265697Y-39962990D01*
X65872371Y-40355630D01*
X65659243Y-40868900D01*
X65658758Y-41424661D01*
X45519790Y-41424661D01*
X45625345Y-40894000D01*
X45511271Y-40320511D01*
X45186415Y-39834330D01*
X44871634Y-39624000D01*
X45186415Y-39413670D01*
X45511271Y-38927489D01*
X45601114Y-38475815D01*
X45600803Y-38832775D01*
X45773233Y-39250086D01*
X46092235Y-39569645D01*
X46509244Y-39742803D01*
X46960775Y-39743197D01*
X47378086Y-39570767D01*
X47429281Y-39519661D01*
X89280758Y-39519661D01*
X89492990Y-40033303D01*
X89885630Y-40426629D01*
X90398900Y-40639757D01*
X90954661Y-40640242D01*
X91170133Y-40551211D01*
X91270990Y-40795303D01*
X91663630Y-41188629D01*
X91954703Y-41309493D01*
X91821243Y-41630900D01*
X91820758Y-42186661D01*
X92032990Y-42700303D01*
X92425630Y-43093629D01*
X92938900Y-43306757D01*
X93494661Y-43307242D01*
X94008303Y-43095010D01*
X94401629Y-42702370D01*
X94614757Y-42189100D01*
X94615242Y-41633339D01*
X94403010Y-41119697D01*
X94010370Y-40726371D01*
X93719297Y-40605507D01*
X93852757Y-40284100D01*
X93853242Y-39728339D01*
X93641010Y-39214697D01*
X93514502Y-39087967D01*
X112152430Y-39087967D01*
X112152430Y-40160033D01*
X112257900Y-40690268D01*
X112558254Y-41139779D01*
X113007765Y-41440133D01*
X113538000Y-41545603D01*
X114068235Y-41440133D01*
X114517746Y-41139779D01*
X114818100Y-40690268D01*
X114923570Y-40160033D01*
X114923570Y-39087967D01*
X117232430Y-39087967D01*
X117232430Y-40160033D01*
X117337900Y-40690268D01*
X117638254Y-41139779D01*
X118087765Y-41440133D01*
X118618000Y-41545603D01*
X119148235Y-41440133D01*
X119597746Y-41139779D01*
X119611780Y-41118775D01*
X130690803Y-41118775D01*
X130863233Y-41536086D01*
X131182235Y-41855645D01*
X131599244Y-42028803D01*
X132050775Y-42029197D01*
X132468086Y-41856767D01*
X132787645Y-41537765D01*
X132960803Y-41120756D01*
X132961197Y-40669225D01*
X132788767Y-40251914D01*
X132469765Y-39932355D01*
X132052756Y-39759197D01*
X131601225Y-39758803D01*
X131183914Y-39931233D01*
X130864355Y-40250235D01*
X130691197Y-40667244D01*
X130690803Y-41118775D01*
X119611780Y-41118775D01*
X119898100Y-40690268D01*
X120003570Y-40160033D01*
X120003570Y-39087967D01*
X119898100Y-38557732D01*
X119597746Y-38108221D01*
X119148235Y-37807867D01*
X118618000Y-37702397D01*
X118087765Y-37807867D01*
X117638254Y-38108221D01*
X117337900Y-38557732D01*
X117232430Y-39087967D01*
X114923570Y-39087967D01*
X114818100Y-38557732D01*
X114517746Y-38108221D01*
X114068235Y-37807867D01*
X113538000Y-37702397D01*
X113007765Y-37807867D01*
X112558254Y-38108221D01*
X112257900Y-38557732D01*
X112152430Y-39087967D01*
X93514502Y-39087967D01*
X93248370Y-38821371D01*
X92735100Y-38608243D01*
X92179339Y-38607758D01*
X91963867Y-38696789D01*
X91863010Y-38452697D01*
X91470370Y-38059371D01*
X90957100Y-37846243D01*
X90401339Y-37845758D01*
X89887697Y-38057990D01*
X89494371Y-38450630D01*
X89281243Y-38963900D01*
X89280758Y-39519661D01*
X47429281Y-39519661D01*
X47697645Y-39251765D01*
X47870803Y-38834756D01*
X47871197Y-38383225D01*
X47698767Y-37965914D01*
X47379765Y-37646355D01*
X46962756Y-37473197D01*
X46511225Y-37472803D01*
X46093914Y-37645233D01*
X45774355Y-37964235D01*
X45621188Y-38333101D01*
X45511271Y-37780511D01*
X45186415Y-37294330D01*
X45164220Y-37279500D01*
X45317698Y-37215927D01*
X45496327Y-37037299D01*
X45593000Y-36803910D01*
X45593000Y-36099750D01*
X45434250Y-35941000D01*
X44069000Y-35941000D01*
X44069000Y-35961000D01*
X43815000Y-35961000D01*
X43815000Y-35941000D01*
X42449750Y-35941000D01*
X42291000Y-36099750D01*
X42291000Y-36803910D01*
X42387673Y-37037299D01*
X42566302Y-37215927D01*
X42719780Y-37279500D01*
X42697585Y-37294330D01*
X42372729Y-37780511D01*
X42258655Y-38354000D01*
X41529000Y-38354000D01*
X41529000Y-34824090D01*
X42291000Y-34824090D01*
X42291000Y-35528250D01*
X42449750Y-35687000D01*
X43815000Y-35687000D01*
X43815000Y-34474150D01*
X44069000Y-34474150D01*
X44069000Y-35687000D01*
X45434250Y-35687000D01*
X45593000Y-35528250D01*
X45593000Y-34824090D01*
X45496327Y-34590701D01*
X45421593Y-34515967D01*
X62622430Y-34515967D01*
X62622430Y-35588033D01*
X62727900Y-36118268D01*
X63028254Y-36567779D01*
X63477765Y-36868133D01*
X64008000Y-36973603D01*
X64538235Y-36868133D01*
X64987746Y-36567779D01*
X65288100Y-36118268D01*
X65393570Y-35588033D01*
X65393570Y-34515967D01*
X67702430Y-34515967D01*
X67702430Y-35588033D01*
X67807900Y-36118268D01*
X68108254Y-36567779D01*
X68557765Y-36868133D01*
X69088000Y-36973603D01*
X69618235Y-36868133D01*
X70067746Y-36567779D01*
X70368100Y-36118268D01*
X70473570Y-35588033D01*
X70473570Y-34515967D01*
X70368100Y-33985732D01*
X70067746Y-33536221D01*
X70013489Y-33499967D01*
X112152430Y-33499967D01*
X112152430Y-34572033D01*
X112257900Y-35102268D01*
X112558254Y-35551779D01*
X113007765Y-35852133D01*
X113538000Y-35957603D01*
X114068235Y-35852133D01*
X114517746Y-35551779D01*
X114818100Y-35102268D01*
X114923570Y-34572033D01*
X114923570Y-33499967D01*
X117232430Y-33499967D01*
X117232430Y-34572033D01*
X117337900Y-35102268D01*
X117638254Y-35551779D01*
X118087765Y-35852133D01*
X118618000Y-35957603D01*
X119148235Y-35852133D01*
X119597746Y-35551779D01*
X119898100Y-35102268D01*
X120003570Y-34572033D01*
X120003570Y-33499967D01*
X119898100Y-32969732D01*
X119597746Y-32520221D01*
X119148235Y-32219867D01*
X118618000Y-32114397D01*
X118087765Y-32219867D01*
X117638254Y-32520221D01*
X117337900Y-32969732D01*
X117232430Y-33499967D01*
X114923570Y-33499967D01*
X114818100Y-32969732D01*
X114517746Y-32520221D01*
X114068235Y-32219867D01*
X113538000Y-32114397D01*
X113007765Y-32219867D01*
X112558254Y-32520221D01*
X112257900Y-32969732D01*
X112152430Y-33499967D01*
X70013489Y-33499967D01*
X69618235Y-33235867D01*
X69088000Y-33130397D01*
X68557765Y-33235867D01*
X68108254Y-33536221D01*
X67807900Y-33985732D01*
X67702430Y-34515967D01*
X65393570Y-34515967D01*
X65288100Y-33985732D01*
X64987746Y-33536221D01*
X64538235Y-33235867D01*
X64008000Y-33130397D01*
X63477765Y-33235867D01*
X63028254Y-33536221D01*
X62727900Y-33985732D01*
X62622430Y-34515967D01*
X45421593Y-34515967D01*
X45317698Y-34412073D01*
X45084309Y-34315400D01*
X44227750Y-34315400D01*
X44069000Y-34474150D01*
X43815000Y-34474150D01*
X43656250Y-34315400D01*
X42799691Y-34315400D01*
X42566302Y-34412073D01*
X42387673Y-34590701D01*
X42291000Y-34824090D01*
X41529000Y-34824090D01*
X41529000Y-31974775D01*
X47124803Y-31974775D01*
X47297233Y-32392086D01*
X47616235Y-32711645D01*
X48033244Y-32884803D01*
X48484775Y-32885197D01*
X48902086Y-32712767D01*
X49221645Y-32393765D01*
X49394803Y-31976756D01*
X49395197Y-31525225D01*
X49222767Y-31107914D01*
X48903765Y-30788355D01*
X48486756Y-30615197D01*
X48035225Y-30614803D01*
X47617914Y-30787233D01*
X47298355Y-31106235D01*
X47125197Y-31523244D01*
X47124803Y-31974775D01*
X41529000Y-31974775D01*
X41529000Y-29845000D01*
X134493000Y-29845000D01*
X134493000Y-104267000D01*
M02*
