G04 #@! TF.FileFunction,Paste,Top*
%FSLAX46Y46*%
G04 Gerber Fmt 4.6, Leading zero omitted, Abs format (unit mm)*
G04 Created by KiCad (PCBNEW 4.0.4+dfsg1-stable) date Sun Jan 22 10:37:54 2017*
%MOMM*%
%LPD*%
G01*
G04 APERTURE LIST*
%ADD10C,0.100000*%
%ADD11R,0.600000X1.500000*%
%ADD12R,0.800100X0.800100*%
%ADD13R,1.000000X1.600000*%
%ADD14R,1.600000X1.000000*%
%ADD15R,0.900000X1.700000*%
%ADD16R,1.700000X0.900000*%
%ADD17R,0.600000X1.550000*%
%ADD18R,1.300480X1.699260*%
G04 APERTURE END LIST*
D10*
D11*
X61087000Y-82390000D03*
X59817000Y-82390000D03*
X58547000Y-82390000D03*
X57277000Y-82390000D03*
X56007000Y-82390000D03*
X54737000Y-82390000D03*
X53467000Y-82390000D03*
X52197000Y-82390000D03*
X52197000Y-87790000D03*
X53467000Y-87790000D03*
X54737000Y-87790000D03*
X56007000Y-87790000D03*
X57277000Y-87790000D03*
X58547000Y-87790000D03*
X59817000Y-87790000D03*
X61087000Y-87790000D03*
D12*
X55864760Y-36256000D03*
X55864760Y-34356000D03*
X53865780Y-35306000D03*
D13*
X52856000Y-42164000D03*
X55856000Y-42164000D03*
X126516000Y-51054000D03*
X129516000Y-51054000D03*
D14*
X48260000Y-33806000D03*
X48260000Y-36806000D03*
X60706000Y-50014000D03*
X60706000Y-47014000D03*
X131826000Y-46458000D03*
X131826000Y-43458000D03*
D15*
X55806000Y-38862000D03*
X52906000Y-38862000D03*
D16*
X58674000Y-38788000D03*
X58674000Y-35888000D03*
D17*
X53213000Y-50960000D03*
X54483000Y-50960000D03*
X55753000Y-50960000D03*
X57023000Y-50960000D03*
X57023000Y-45560000D03*
X55753000Y-45560000D03*
X54483000Y-45560000D03*
X53213000Y-45560000D03*
X125095000Y-47150000D03*
X126365000Y-47150000D03*
X127635000Y-47150000D03*
X128905000Y-47150000D03*
X128905000Y-41750000D03*
X127635000Y-41750000D03*
X126365000Y-41750000D03*
X125095000Y-41750000D03*
D12*
X127746760Y-37272000D03*
X127746760Y-35372000D03*
X125747780Y-36322000D03*
D16*
X49022000Y-43106000D03*
X49022000Y-40206000D03*
D14*
X51054000Y-33806000D03*
X51054000Y-36806000D03*
X50292000Y-50014000D03*
X50292000Y-47014000D03*
X122428000Y-43458000D03*
X122428000Y-46458000D03*
X51562000Y-65048000D03*
X51562000Y-68048000D03*
X57150000Y-79478000D03*
X57150000Y-76478000D03*
X80518000Y-83590000D03*
X80518000Y-86590000D03*
X90424000Y-86590000D03*
X90424000Y-83590000D03*
X94234000Y-83590000D03*
X94234000Y-86590000D03*
X103632000Y-86590000D03*
X103632000Y-83590000D03*
X111252000Y-83336000D03*
X111252000Y-86336000D03*
X120396000Y-86336000D03*
X120396000Y-83336000D03*
X66040000Y-83336000D03*
X66040000Y-86336000D03*
X54864000Y-65048000D03*
X54864000Y-68048000D03*
D13*
X86336000Y-77216000D03*
X83336000Y-77216000D03*
D14*
X56642000Y-90702000D03*
X56642000Y-93702000D03*
X75946000Y-86590000D03*
X75946000Y-83590000D03*
D16*
X103124000Y-92128000D03*
X103124000Y-89228000D03*
X103124000Y-96954000D03*
X103124000Y-94054000D03*
X115316000Y-76020000D03*
X115316000Y-78920000D03*
D17*
X69215000Y-87790000D03*
X70485000Y-87790000D03*
X71755000Y-87790000D03*
X73025000Y-87790000D03*
X73025000Y-82390000D03*
X71755000Y-82390000D03*
X70485000Y-82390000D03*
X69215000Y-82390000D03*
X83693000Y-87790000D03*
X84963000Y-87790000D03*
X86233000Y-87790000D03*
X87503000Y-87790000D03*
X87503000Y-82390000D03*
X86233000Y-82390000D03*
X84963000Y-82390000D03*
X83693000Y-82390000D03*
X96901000Y-87790000D03*
X98171000Y-87790000D03*
X99441000Y-87790000D03*
X100711000Y-87790000D03*
X100711000Y-82390000D03*
X99441000Y-82390000D03*
X98171000Y-82390000D03*
X96901000Y-82390000D03*
X113919000Y-87536000D03*
X115189000Y-87536000D03*
X116459000Y-87536000D03*
X117729000Y-87536000D03*
X117729000Y-82136000D03*
X116459000Y-82136000D03*
X115189000Y-82136000D03*
X113919000Y-82136000D03*
D18*
X106707940Y-94488000D03*
X110208060Y-94488000D03*
X110208060Y-91694000D03*
X106707940Y-91694000D03*
M02*
