M48
;DRILL file {KiCad 4.0.4+dfsg1-stable} date Sun Jan 22 20:41:28 2017
;FORMAT={-:-/ absolute / metric / decimal}
FMAT,2
METRIC,TZ
T1C0.500
T2C0.800
T3C0.813
T4C0.850
T5C1.001
T6C1.016
%
G90
G05
M71
T1
X46.99Y-88.646
X49.53Y-84.074
X50.546Y-80.518
X50.8Y-38.608
X50.8Y-85.598
X51.562Y-62.484
X52.07Y-31.75
X52.832Y-90.932
X54.102Y-44.958
X54.102Y-52.578
X54.864Y-31.75
X54.864Y-62.484
X54.864Y-70.612
X55.118Y-77.47
X55.118Y-79.756
X55.626Y-85.598
X56.642Y-96.774
X57.15Y-74.676
X57.658Y-31.75
X58.928Y-85.598
X59.69Y-93.726
X59.944Y-89.408
X60.452Y-90.932
X60.96Y-53.594
X61.214Y-84.074
X61.722Y-79.502
X64.516Y-44.45
X64.516Y-89.408
X66.04Y-75.692
X66.04Y-77.978
X66.04Y-81.28
X66.04Y-88.9
X71.882Y-89.916
X75.946Y-81.28
X76.2Y-88.9
X80.518Y-81.28
X80.518Y-88.9
X81.28Y-78.232
X85.09Y-85.852
X86.36Y-90.17
X90.424Y-81.28
X90.424Y-88.9
X94.234Y-81.28
X94.234Y-88.9
X96.266Y-85.852
X96.266Y-90.17
X96.52Y-79.502
X99.06Y-92.202
X99.568Y-79.502
X103.632Y-81.28
X106.172Y-86.614
X106.172Y-89.154
X111.252Y-81.28
X111.252Y-88.646
X115.316Y-73.66
X120.396Y-81.28
X120.396Y-88.9
X126.238Y-40.894
X126.238Y-49.276
X127.254Y-36.322
X135.636Y-40.894
X135.636Y-48.768
X135.636Y-51.054
T2
X81.614Y-72.898
X86.614Y-72.898
T3
X68.326Y-43.688
X70.866Y-41.148
X73.406Y-43.688
X116.84Y-47.244
X119.38Y-44.704
X121.92Y-47.244
T4
X91.821Y-41.91
X94.488Y-39.243
X94.488Y-44.704
X96.266Y-40.005
X97.028Y-41.91
T5
X67.818Y-35.052
X67.818Y-49.022
X67.818Y-92.71
X67.818Y-99.822
X71.628Y-72.644
X72.898Y-35.052
X72.898Y-49.022
X72.898Y-92.71
X72.898Y-99.822
X76.708Y-72.644
X117.348Y-34.036
X117.348Y-39.624
X117.348Y-51.308
X122.428Y-34.036
X122.428Y-39.624
X122.428Y-51.308
T6
X43.942Y-35.814
X43.942Y-38.354
X43.942Y-40.894
X43.942Y-43.434
X43.942Y-45.974
X43.942Y-48.514
X43.942Y-51.054
X43.942Y-62.992
X43.942Y-65.532
X43.942Y-68.072
X43.942Y-70.612
X43.942Y-73.152
X43.942Y-75.692
X43.942Y-78.232
X43.942Y-80.772
X43.942Y-83.312
X43.942Y-85.852
X43.942Y-88.392
X43.942Y-90.932
X43.942Y-93.472
X43.942Y-96.012
X43.942Y-98.552
X86.36Y-68.326
X93.98Y-95.25
X96.52Y-95.25
X99.06Y-95.25
T0
M30
