G04 #@! TF.FileFunction,Other,Fab,Top*
%FSLAX46Y46*%
G04 Gerber Fmt 4.6, Leading zero omitted, Abs format (unit mm)*
G04 Created by KiCad (PCBNEW 4.0.4+dfsg1-stable) date Fri Jan 20 23:08:29 2017*
%MOMM*%
%LPD*%
G01*
G04 APERTURE LIST*
%ADD10C,0.100000*%
%ADD11C,0.150000*%
G04 APERTURE END LIST*
D10*
D11*
X53368000Y-49760000D02*
G75*
G03X53368000Y-49760000I-250000J0D01*
G01*
X52668000Y-50210000D02*
X57568000Y-50210000D01*
X52668000Y-46310000D02*
X52668000Y-50210000D01*
X57568000Y-46310000D02*
X52668000Y-46310000D01*
X57568000Y-50210000D02*
X57568000Y-46310000D01*
X110518000Y-45950000D02*
G75*
G03X110518000Y-45950000I-250000J0D01*
G01*
X109818000Y-46400000D02*
X114718000Y-46400000D01*
X109818000Y-42500000D02*
X109818000Y-46400000D01*
X114718000Y-42500000D02*
X109818000Y-42500000D01*
X114718000Y-46400000D02*
X114718000Y-42500000D01*
X57616381Y-38996476D02*
X56616381Y-38996476D01*
X57330667Y-38663142D01*
X56616381Y-38329809D01*
X57616381Y-38329809D01*
X57616381Y-37853619D02*
X56616381Y-37853619D01*
X57330667Y-37520285D01*
X56616381Y-37186952D01*
X57616381Y-37186952D01*
X57092571Y-36377428D02*
X57140190Y-36234571D01*
X57187810Y-36186952D01*
X57283048Y-36139333D01*
X57425905Y-36139333D01*
X57521143Y-36186952D01*
X57568762Y-36234571D01*
X57616381Y-36329809D01*
X57616381Y-36710762D01*
X56616381Y-36710762D01*
X56616381Y-36377428D01*
X56664000Y-36282190D01*
X56711619Y-36234571D01*
X56806857Y-36186952D01*
X56902095Y-36186952D01*
X56997333Y-36234571D01*
X57044952Y-36282190D01*
X57092571Y-36377428D01*
X57092571Y-36710762D01*
X56616381Y-35853619D02*
X56616381Y-35282190D01*
X57616381Y-35567905D02*
X56616381Y-35567905D01*
X56616381Y-35044095D02*
X56616381Y-34425047D01*
X56997333Y-34758381D01*
X56997333Y-34615523D01*
X57044952Y-34520285D01*
X57092571Y-34472666D01*
X57187810Y-34425047D01*
X57425905Y-34425047D01*
X57521143Y-34472666D01*
X57568762Y-34520285D01*
X57616381Y-34615523D01*
X57616381Y-34901238D01*
X57568762Y-34996476D01*
X57521143Y-35044095D01*
X57616381Y-33948857D02*
X57616381Y-33758381D01*
X57568762Y-33663142D01*
X57521143Y-33615523D01*
X57378286Y-33520285D01*
X57187810Y-33472666D01*
X56806857Y-33472666D01*
X56711619Y-33520285D01*
X56664000Y-33567904D01*
X56616381Y-33663142D01*
X56616381Y-33853619D01*
X56664000Y-33948857D01*
X56711619Y-33996476D01*
X56806857Y-34044095D01*
X57044952Y-34044095D01*
X57140190Y-33996476D01*
X57187810Y-33948857D01*
X57235429Y-33853619D01*
X57235429Y-33663142D01*
X57187810Y-33567904D01*
X57140190Y-33520285D01*
X57044952Y-33472666D01*
X56616381Y-32853619D02*
X56616381Y-32758380D01*
X56664000Y-32663142D01*
X56711619Y-32615523D01*
X56806857Y-32567904D01*
X56997333Y-32520285D01*
X57235429Y-32520285D01*
X57425905Y-32567904D01*
X57521143Y-32615523D01*
X57568762Y-32663142D01*
X57616381Y-32758380D01*
X57616381Y-32853619D01*
X57568762Y-32948857D01*
X57521143Y-32996476D01*
X57425905Y-33044095D01*
X57235429Y-33091714D01*
X56997333Y-33091714D01*
X56806857Y-33044095D01*
X56711619Y-32996476D01*
X56664000Y-32948857D01*
X56616381Y-32853619D01*
X56949714Y-31663142D02*
X57616381Y-31663142D01*
X56568762Y-31901238D02*
X57283048Y-32139333D01*
X57283048Y-31520285D01*
X53284572Y-44916381D02*
X52713143Y-44916381D01*
X52998857Y-44916381D02*
X52998857Y-43916381D01*
X52903619Y-44059238D01*
X52808381Y-44154476D01*
X52713143Y-44202095D01*
X53903619Y-43916381D02*
X53998858Y-43916381D01*
X54094096Y-43964000D01*
X54141715Y-44011619D01*
X54189334Y-44106857D01*
X54236953Y-44297333D01*
X54236953Y-44535429D01*
X54189334Y-44725905D01*
X54141715Y-44821143D01*
X54094096Y-44868762D01*
X53998858Y-44916381D01*
X53903619Y-44916381D01*
X53808381Y-44868762D01*
X53760762Y-44821143D01*
X53713143Y-44725905D01*
X53665524Y-44535429D01*
X53665524Y-44297333D01*
X53713143Y-44106857D01*
X53760762Y-44011619D01*
X53808381Y-43964000D01*
X53903619Y-43916381D01*
X55094096Y-44249714D02*
X55094096Y-44916381D01*
X54665524Y-44249714D02*
X54665524Y-44773524D01*
X54713143Y-44868762D01*
X54808381Y-44916381D01*
X54951239Y-44916381D01*
X55046477Y-44868762D01*
X55094096Y-44821143D01*
X55903620Y-44392571D02*
X55570286Y-44392571D01*
X55570286Y-44916381D02*
X55570286Y-43916381D01*
X56046477Y-43916381D01*
X109339143Y-49206381D02*
X108767714Y-49206381D01*
X109053428Y-49206381D02*
X109053428Y-48206381D01*
X108958190Y-48349238D01*
X108862952Y-48444476D01*
X108767714Y-48492095D01*
X109958190Y-48206381D02*
X110053429Y-48206381D01*
X110148667Y-48254000D01*
X110196286Y-48301619D01*
X110243905Y-48396857D01*
X110291524Y-48587333D01*
X110291524Y-48825429D01*
X110243905Y-49015905D01*
X110196286Y-49111143D01*
X110148667Y-49158762D01*
X110053429Y-49206381D01*
X109958190Y-49206381D01*
X109862952Y-49158762D01*
X109815333Y-49111143D01*
X109767714Y-49015905D01*
X109720095Y-48825429D01*
X109720095Y-48587333D01*
X109767714Y-48396857D01*
X109815333Y-48301619D01*
X109862952Y-48254000D01*
X109958190Y-48206381D01*
X110720095Y-48539714D02*
X110720095Y-49539714D01*
X110720095Y-48587333D02*
X110815333Y-48539714D01*
X111005810Y-48539714D01*
X111101048Y-48587333D01*
X111148667Y-48634952D01*
X111196286Y-48730190D01*
X111196286Y-49015905D01*
X111148667Y-49111143D01*
X111101048Y-49158762D01*
X111005810Y-49206381D01*
X110815333Y-49206381D01*
X110720095Y-49158762D01*
X47174381Y-36885428D02*
X47174381Y-37456857D01*
X47174381Y-37171143D02*
X46174381Y-37171143D01*
X46317238Y-37266381D01*
X46412476Y-37361619D01*
X46460095Y-37456857D01*
X46174381Y-36266381D02*
X46174381Y-36171142D01*
X46222000Y-36075904D01*
X46269619Y-36028285D01*
X46364857Y-35980666D01*
X46555333Y-35933047D01*
X46793429Y-35933047D01*
X46983905Y-35980666D01*
X47079143Y-36028285D01*
X47126762Y-36075904D01*
X47174381Y-36171142D01*
X47174381Y-36266381D01*
X47126762Y-36361619D01*
X47079143Y-36409238D01*
X46983905Y-36456857D01*
X46793429Y-36504476D01*
X46555333Y-36504476D01*
X46364857Y-36456857D01*
X46269619Y-36409238D01*
X46222000Y-36361619D01*
X46174381Y-36266381D01*
X46507714Y-35075904D02*
X47174381Y-35075904D01*
X46507714Y-35504476D02*
X47031524Y-35504476D01*
X47126762Y-35456857D01*
X47174381Y-35361619D01*
X47174381Y-35218761D01*
X47126762Y-35123523D01*
X47079143Y-35075904D01*
X46650571Y-34266380D02*
X46650571Y-34599714D01*
X47174381Y-34599714D02*
X46174381Y-34599714D01*
X46174381Y-34123523D01*
X47190381Y-51172857D02*
X47190381Y-51077618D01*
X47238000Y-50982380D01*
X47285619Y-50934761D01*
X47380857Y-50887142D01*
X47571333Y-50839523D01*
X47809429Y-50839523D01*
X47999905Y-50887142D01*
X48095143Y-50934761D01*
X48142762Y-50982380D01*
X48190381Y-51077618D01*
X48190381Y-51172857D01*
X48142762Y-51268095D01*
X48095143Y-51315714D01*
X47999905Y-51363333D01*
X47809429Y-51410952D01*
X47571333Y-51410952D01*
X47380857Y-51363333D01*
X47285619Y-51315714D01*
X47238000Y-51268095D01*
X47190381Y-51172857D01*
X48095143Y-50410952D02*
X48142762Y-50363333D01*
X48190381Y-50410952D01*
X48142762Y-50458571D01*
X48095143Y-50410952D01*
X48190381Y-50410952D01*
X48190381Y-49410952D02*
X48190381Y-49982381D01*
X48190381Y-49696667D02*
X47190381Y-49696667D01*
X47333238Y-49791905D01*
X47428476Y-49887143D01*
X47476095Y-49982381D01*
X47523714Y-48553809D02*
X48190381Y-48553809D01*
X47523714Y-48982381D02*
X48047524Y-48982381D01*
X48142762Y-48934762D01*
X48190381Y-48839524D01*
X48190381Y-48696666D01*
X48142762Y-48601428D01*
X48095143Y-48553809D01*
X47666571Y-47744285D02*
X47666571Y-48077619D01*
X48190381Y-48077619D02*
X47190381Y-48077619D01*
X47190381Y-47601428D01*
X114500381Y-46346857D02*
X114500381Y-46251618D01*
X114548000Y-46156380D01*
X114595619Y-46108761D01*
X114690857Y-46061142D01*
X114881333Y-46013523D01*
X115119429Y-46013523D01*
X115309905Y-46061142D01*
X115405143Y-46108761D01*
X115452762Y-46156380D01*
X115500381Y-46251618D01*
X115500381Y-46346857D01*
X115452762Y-46442095D01*
X115405143Y-46489714D01*
X115309905Y-46537333D01*
X115119429Y-46584952D01*
X114881333Y-46584952D01*
X114690857Y-46537333D01*
X114595619Y-46489714D01*
X114548000Y-46442095D01*
X114500381Y-46346857D01*
X115405143Y-45584952D02*
X115452762Y-45537333D01*
X115500381Y-45584952D01*
X115452762Y-45632571D01*
X115405143Y-45584952D01*
X115500381Y-45584952D01*
X115500381Y-44584952D02*
X115500381Y-45156381D01*
X115500381Y-44870667D02*
X114500381Y-44870667D01*
X114643238Y-44965905D01*
X114738476Y-45061143D01*
X114786095Y-45156381D01*
X114833714Y-43727809D02*
X115500381Y-43727809D01*
X114833714Y-44156381D02*
X115357524Y-44156381D01*
X115452762Y-44108762D01*
X115500381Y-44013524D01*
X115500381Y-43870666D01*
X115452762Y-43775428D01*
X115405143Y-43727809D01*
X114976571Y-42918285D02*
X114976571Y-43251619D01*
X115500381Y-43251619D02*
X114500381Y-43251619D01*
X114500381Y-42775428D01*
X78189841Y-45091385D02*
X78189841Y-44424718D01*
X79189841Y-45091385D01*
X79189841Y-44424718D01*
X78666031Y-44043766D02*
X78666031Y-43710432D01*
X79189841Y-43567575D02*
X79189841Y-44043766D01*
X78189841Y-44043766D01*
X78189841Y-43567575D01*
X79189841Y-43139004D02*
X78189841Y-43139004D01*
X79189841Y-42567575D01*
X78189841Y-42567575D01*
X78666031Y-42091385D02*
X78666031Y-41758051D01*
X79189841Y-41615194D02*
X79189841Y-42091385D01*
X78189841Y-42091385D01*
X78189841Y-41615194D01*
X79189841Y-40615194D02*
X78713650Y-40948528D01*
X79189841Y-41186623D02*
X78189841Y-41186623D01*
X78189841Y-40805670D01*
X78237460Y-40710432D01*
X78285079Y-40662813D01*
X78380317Y-40615194D01*
X78523174Y-40615194D01*
X78618412Y-40662813D01*
X78666031Y-40710432D01*
X78713650Y-40805670D01*
X78713650Y-41186623D01*
X84285841Y-45091385D02*
X84285841Y-44424718D01*
X85285841Y-45091385D01*
X85285841Y-44424718D01*
X84762031Y-44043766D02*
X84762031Y-43710432D01*
X85285841Y-43567575D02*
X85285841Y-44043766D01*
X84285841Y-44043766D01*
X84285841Y-43567575D01*
X85285841Y-43139004D02*
X84285841Y-43139004D01*
X85285841Y-42567575D01*
X84285841Y-42567575D01*
X84762031Y-42091385D02*
X84762031Y-41758051D01*
X85285841Y-41615194D02*
X85285841Y-42091385D01*
X84285841Y-42091385D01*
X84285841Y-41615194D01*
X85285841Y-40615194D02*
X84809650Y-40948528D01*
X85285841Y-41186623D02*
X84285841Y-41186623D01*
X84285841Y-40805670D01*
X84333460Y-40710432D01*
X84381079Y-40662813D01*
X84476317Y-40615194D01*
X84619174Y-40615194D01*
X84714412Y-40662813D01*
X84762031Y-40710432D01*
X84809650Y-40805670D01*
X84809650Y-41186623D01*
X83351905Y-45521619D02*
X83399524Y-45474000D01*
X83494762Y-45426381D01*
X83732858Y-45426381D01*
X83828096Y-45474000D01*
X83875715Y-45521619D01*
X83923334Y-45616857D01*
X83923334Y-45712095D01*
X83875715Y-45854952D01*
X83304286Y-46426381D01*
X83923334Y-46426381D01*
X84542381Y-45426381D02*
X84637620Y-45426381D01*
X84732858Y-45474000D01*
X84780477Y-45521619D01*
X84828096Y-45616857D01*
X84875715Y-45807333D01*
X84875715Y-46045429D01*
X84828096Y-46235905D01*
X84780477Y-46331143D01*
X84732858Y-46378762D01*
X84637620Y-46426381D01*
X84542381Y-46426381D01*
X84447143Y-46378762D01*
X84399524Y-46331143D01*
X84351905Y-46235905D01*
X84304286Y-46045429D01*
X84304286Y-45807333D01*
X84351905Y-45616857D01*
X84399524Y-45521619D01*
X84447143Y-45474000D01*
X84542381Y-45426381D01*
X85494762Y-45426381D02*
X85590001Y-45426381D01*
X85685239Y-45474000D01*
X85732858Y-45521619D01*
X85780477Y-45616857D01*
X85828096Y-45807333D01*
X85828096Y-46045429D01*
X85780477Y-46235905D01*
X85732858Y-46331143D01*
X85685239Y-46378762D01*
X85590001Y-46426381D01*
X85494762Y-46426381D01*
X85399524Y-46378762D01*
X85351905Y-46331143D01*
X85304286Y-46235905D01*
X85256667Y-46045429D01*
X85256667Y-45807333D01*
X85304286Y-45616857D01*
X85351905Y-45521619D01*
X85399524Y-45474000D01*
X85494762Y-45426381D01*
X86828096Y-46426381D02*
X86494762Y-45950190D01*
X86256667Y-46426381D02*
X86256667Y-45426381D01*
X86637620Y-45426381D01*
X86732858Y-45474000D01*
X86780477Y-45521619D01*
X86828096Y-45616857D01*
X86828096Y-45759714D01*
X86780477Y-45854952D01*
X86732858Y-45902571D01*
X86637620Y-45950190D01*
X86256667Y-45950190D01*
X54070286Y-37014381D02*
X53498857Y-37014381D01*
X53784571Y-37014381D02*
X53784571Y-36014381D01*
X53689333Y-36157238D01*
X53594095Y-36252476D01*
X53498857Y-36300095D01*
X54498857Y-37014381D02*
X54498857Y-36014381D01*
X54832191Y-36728667D01*
X55165524Y-36014381D01*
X55165524Y-37014381D01*
X61426381Y-36409238D02*
X61426381Y-36980667D01*
X61426381Y-36694953D02*
X60426381Y-36694953D01*
X60569238Y-36790191D01*
X60664476Y-36885429D01*
X60712095Y-36980667D01*
X60426381Y-35790191D02*
X60426381Y-35694952D01*
X60474000Y-35599714D01*
X60521619Y-35552095D01*
X60616857Y-35504476D01*
X60807333Y-35456857D01*
X61045429Y-35456857D01*
X61235905Y-35504476D01*
X61331143Y-35552095D01*
X61378762Y-35599714D01*
X61426381Y-35694952D01*
X61426381Y-35790191D01*
X61378762Y-35885429D01*
X61331143Y-35933048D01*
X61235905Y-35980667D01*
X61045429Y-36028286D01*
X60807333Y-36028286D01*
X60616857Y-35980667D01*
X60521619Y-35933048D01*
X60474000Y-35885429D01*
X60426381Y-35790191D01*
X61426381Y-35028286D02*
X60426381Y-35028286D01*
X61045429Y-34933048D02*
X61426381Y-34647333D01*
X60759714Y-34647333D02*
X61140667Y-35028286D01*
X59070381Y-49950476D02*
X59070381Y-50426667D01*
X58070381Y-50426667D01*
X59070381Y-49617143D02*
X58070381Y-49617143D01*
X58784667Y-49283809D01*
X58070381Y-48950476D01*
X59070381Y-48950476D01*
X58070381Y-48569524D02*
X58070381Y-47902857D01*
X59070381Y-48331429D01*
X58403714Y-47093333D02*
X59070381Y-47093333D01*
X58022762Y-47331429D02*
X58737048Y-47569524D01*
X58737048Y-46950476D01*
X59070381Y-46045714D02*
X59070381Y-46617143D01*
X59070381Y-46331429D02*
X58070381Y-46331429D01*
X58213238Y-46426667D01*
X58308476Y-46521905D01*
X58356095Y-46617143D01*
X116220381Y-46140476D02*
X116220381Y-46616667D01*
X115220381Y-46616667D01*
X116220381Y-45807143D02*
X115220381Y-45807143D01*
X115934667Y-45473809D01*
X115220381Y-45140476D01*
X116220381Y-45140476D01*
X115220381Y-44759524D02*
X115220381Y-44092857D01*
X116220381Y-44521429D01*
X115553714Y-43283333D02*
X116220381Y-43283333D01*
X115172762Y-43521429D02*
X115887048Y-43759524D01*
X115887048Y-43140476D01*
X116220381Y-42235714D02*
X116220381Y-42807143D01*
X116220381Y-42521429D02*
X115220381Y-42521429D01*
X115363238Y-42616667D01*
X115458476Y-42711905D01*
X115506095Y-42807143D01*
X39918191Y-33071143D02*
X39870572Y-33118762D01*
X39727715Y-33166381D01*
X39632477Y-33166381D01*
X39489619Y-33118762D01*
X39394381Y-33023524D01*
X39346762Y-32928286D01*
X39299143Y-32737810D01*
X39299143Y-32594952D01*
X39346762Y-32404476D01*
X39394381Y-32309238D01*
X39489619Y-32214000D01*
X39632477Y-32166381D01*
X39727715Y-32166381D01*
X39870572Y-32214000D01*
X39918191Y-32261619D01*
X40537238Y-32166381D02*
X40727715Y-32166381D01*
X40822953Y-32214000D01*
X40918191Y-32309238D01*
X40965810Y-32499714D01*
X40965810Y-32833048D01*
X40918191Y-33023524D01*
X40822953Y-33118762D01*
X40727715Y-33166381D01*
X40537238Y-33166381D01*
X40442000Y-33118762D01*
X40346762Y-33023524D01*
X40299143Y-32833048D01*
X40299143Y-32499714D01*
X40346762Y-32309238D01*
X40442000Y-32214000D01*
X40537238Y-32166381D01*
X41394381Y-33166381D02*
X41394381Y-32166381D01*
X41965810Y-33166381D01*
X41965810Y-32166381D01*
X42442000Y-33166381D02*
X42442000Y-32166381D01*
X43013429Y-33166381D01*
X43013429Y-32166381D01*
X43251524Y-33261619D02*
X44013429Y-33261619D01*
X44442000Y-32166381D02*
X44537239Y-32166381D01*
X44632477Y-32214000D01*
X44680096Y-32261619D01*
X44727715Y-32356857D01*
X44775334Y-32547333D01*
X44775334Y-32785429D01*
X44727715Y-32975905D01*
X44680096Y-33071143D01*
X44632477Y-33118762D01*
X44537239Y-33166381D01*
X44442000Y-33166381D01*
X44346762Y-33118762D01*
X44299143Y-33071143D01*
X44251524Y-32975905D01*
X44203905Y-32785429D01*
X44203905Y-32547333D01*
X44251524Y-32356857D01*
X44299143Y-32261619D01*
X44346762Y-32214000D01*
X44442000Y-32166381D01*
X45727715Y-33166381D02*
X45156286Y-33166381D01*
X45442000Y-33166381D02*
X45442000Y-32166381D01*
X45346762Y-32309238D01*
X45251524Y-32404476D01*
X45156286Y-32452095D01*
X46061048Y-32166381D02*
X46727715Y-33166381D01*
X46727715Y-32166381D02*
X46061048Y-33166381D01*
X47299143Y-32166381D02*
X47394382Y-32166381D01*
X47489620Y-32214000D01*
X47537239Y-32261619D01*
X47584858Y-32356857D01*
X47632477Y-32547333D01*
X47632477Y-32785429D01*
X47584858Y-32975905D01*
X47537239Y-33071143D01*
X47489620Y-33118762D01*
X47394382Y-33166381D01*
X47299143Y-33166381D01*
X47203905Y-33118762D01*
X47156286Y-33071143D01*
X47108667Y-32975905D01*
X47061048Y-32785429D01*
X47061048Y-32547333D01*
X47108667Y-32356857D01*
X47156286Y-32261619D01*
X47203905Y-32214000D01*
X47299143Y-32166381D01*
X47965810Y-32166381D02*
X48632477Y-32166381D01*
X48203905Y-33166381D01*
X114258381Y-40520476D02*
X113258381Y-40520476D01*
X113972667Y-40187142D01*
X113258381Y-39853809D01*
X114258381Y-39853809D01*
X114258381Y-39377619D02*
X113258381Y-39377619D01*
X113972667Y-39044285D01*
X113258381Y-38710952D01*
X114258381Y-38710952D01*
X113734571Y-37901428D02*
X113782190Y-37758571D01*
X113829810Y-37710952D01*
X113925048Y-37663333D01*
X114067905Y-37663333D01*
X114163143Y-37710952D01*
X114210762Y-37758571D01*
X114258381Y-37853809D01*
X114258381Y-38234762D01*
X113258381Y-38234762D01*
X113258381Y-37901428D01*
X113306000Y-37806190D01*
X113353619Y-37758571D01*
X113448857Y-37710952D01*
X113544095Y-37710952D01*
X113639333Y-37758571D01*
X113686952Y-37806190D01*
X113734571Y-37901428D01*
X113734571Y-38234762D01*
X113258381Y-37377619D02*
X113258381Y-36806190D01*
X114258381Y-37091905D02*
X113258381Y-37091905D01*
X113258381Y-36568095D02*
X113258381Y-35949047D01*
X113639333Y-36282381D01*
X113639333Y-36139523D01*
X113686952Y-36044285D01*
X113734571Y-35996666D01*
X113829810Y-35949047D01*
X114067905Y-35949047D01*
X114163143Y-35996666D01*
X114210762Y-36044285D01*
X114258381Y-36139523D01*
X114258381Y-36425238D01*
X114210762Y-36520476D01*
X114163143Y-36568095D01*
X114258381Y-35472857D02*
X114258381Y-35282381D01*
X114210762Y-35187142D01*
X114163143Y-35139523D01*
X114020286Y-35044285D01*
X113829810Y-34996666D01*
X113448857Y-34996666D01*
X113353619Y-35044285D01*
X113306000Y-35091904D01*
X113258381Y-35187142D01*
X113258381Y-35377619D01*
X113306000Y-35472857D01*
X113353619Y-35520476D01*
X113448857Y-35568095D01*
X113686952Y-35568095D01*
X113782190Y-35520476D01*
X113829810Y-35472857D01*
X113877429Y-35377619D01*
X113877429Y-35187142D01*
X113829810Y-35091904D01*
X113782190Y-35044285D01*
X113686952Y-34996666D01*
X113258381Y-34377619D02*
X113258381Y-34282380D01*
X113306000Y-34187142D01*
X113353619Y-34139523D01*
X113448857Y-34091904D01*
X113639333Y-34044285D01*
X113877429Y-34044285D01*
X114067905Y-34091904D01*
X114163143Y-34139523D01*
X114210762Y-34187142D01*
X114258381Y-34282380D01*
X114258381Y-34377619D01*
X114210762Y-34472857D01*
X114163143Y-34520476D01*
X114067905Y-34568095D01*
X113877429Y-34615714D01*
X113639333Y-34615714D01*
X113448857Y-34568095D01*
X113353619Y-34520476D01*
X113306000Y-34472857D01*
X113258381Y-34377619D01*
X113591714Y-33187142D02*
X114258381Y-33187142D01*
X113210762Y-33425238D02*
X113925048Y-33663333D01*
X113925048Y-33044285D01*
X61412381Y-42029047D02*
X61412381Y-42600476D01*
X61412381Y-42314762D02*
X60412381Y-42314762D01*
X60555238Y-42410000D01*
X60650476Y-42505238D01*
X60698095Y-42600476D01*
X61412381Y-41600476D02*
X60412381Y-41600476D01*
X61031429Y-41505238D02*
X61412381Y-41219523D01*
X60745714Y-41219523D02*
X61126667Y-41600476D01*
X66428953Y-35504381D02*
X65857524Y-35504381D01*
X66143238Y-35504381D02*
X66143238Y-34504381D01*
X66048000Y-34647238D01*
X65952762Y-34742476D01*
X65857524Y-34790095D01*
X66857524Y-35504381D02*
X66857524Y-34504381D01*
X66952762Y-35123429D02*
X67238477Y-35504381D01*
X67238477Y-34837714D02*
X66857524Y-35218667D01*
X65952762Y-47188381D02*
X65381333Y-47188381D01*
X65667047Y-47188381D02*
X65667047Y-46188381D01*
X65571809Y-46331238D01*
X65476571Y-46426476D01*
X65381333Y-46474095D01*
X66571809Y-46188381D02*
X66667048Y-46188381D01*
X66762286Y-46236000D01*
X66809905Y-46283619D01*
X66857524Y-46378857D01*
X66905143Y-46569333D01*
X66905143Y-46807429D01*
X66857524Y-46997905D01*
X66809905Y-47093143D01*
X66762286Y-47140762D01*
X66667048Y-47188381D01*
X66571809Y-47188381D01*
X66476571Y-47140762D01*
X66428952Y-47093143D01*
X66381333Y-46997905D01*
X66333714Y-46807429D01*
X66333714Y-46569333D01*
X66381333Y-46378857D01*
X66428952Y-46283619D01*
X66476571Y-46236000D01*
X66571809Y-46188381D01*
X67333714Y-47188381D02*
X67333714Y-46188381D01*
X67428952Y-46807429D02*
X67714667Y-47188381D01*
X67714667Y-46521714D02*
X67333714Y-46902667D01*
X100679334Y-33980381D02*
X100107905Y-33980381D01*
X100393619Y-33980381D02*
X100393619Y-32980381D01*
X100298381Y-33123238D01*
X100203143Y-33218476D01*
X100107905Y-33266095D01*
X101060286Y-33075619D02*
X101107905Y-33028000D01*
X101203143Y-32980381D01*
X101441239Y-32980381D01*
X101536477Y-33028000D01*
X101584096Y-33075619D01*
X101631715Y-33170857D01*
X101631715Y-33266095D01*
X101584096Y-33408952D01*
X101012667Y-33980381D01*
X101631715Y-33980381D01*
X102250762Y-32980381D02*
X102346001Y-32980381D01*
X102441239Y-33028000D01*
X102488858Y-33075619D01*
X102536477Y-33170857D01*
X102584096Y-33361333D01*
X102584096Y-33599429D01*
X102536477Y-33789905D01*
X102488858Y-33885143D01*
X102441239Y-33932762D01*
X102346001Y-33980381D01*
X102250762Y-33980381D01*
X102155524Y-33932762D01*
X102107905Y-33885143D01*
X102060286Y-33789905D01*
X102012667Y-33599429D01*
X102012667Y-33361333D01*
X102060286Y-33170857D01*
X102107905Y-33075619D01*
X102155524Y-33028000D01*
X102250762Y-32980381D01*
X100465048Y-37298381D02*
X99988857Y-37298381D01*
X99941238Y-37774571D01*
X99988857Y-37726952D01*
X100084095Y-37679333D01*
X100322191Y-37679333D01*
X100417429Y-37726952D01*
X100465048Y-37774571D01*
X100512667Y-37869810D01*
X100512667Y-38107905D01*
X100465048Y-38203143D01*
X100417429Y-38250762D01*
X100322191Y-38298381D01*
X100084095Y-38298381D01*
X99988857Y-38250762D01*
X99941238Y-38203143D01*
X100941238Y-38203143D02*
X100988857Y-38250762D01*
X100941238Y-38298381D01*
X100893619Y-38250762D01*
X100941238Y-38203143D01*
X100941238Y-38298381D01*
X101941238Y-38298381D02*
X101369809Y-38298381D01*
X101655523Y-38298381D02*
X101655523Y-37298381D01*
X101560285Y-37441238D01*
X101465047Y-37536476D01*
X101369809Y-37584095D01*
X102369809Y-38298381D02*
X102369809Y-37298381D01*
X102465047Y-37917429D02*
X102750762Y-38298381D01*
X102750762Y-37631714D02*
X102369809Y-38012667D01*
X100750762Y-45156381D02*
X100179333Y-45156381D01*
X100465047Y-45156381D02*
X100465047Y-44156381D01*
X100369809Y-44299238D01*
X100274571Y-44394476D01*
X100179333Y-44442095D01*
X101369809Y-44156381D02*
X101465048Y-44156381D01*
X101560286Y-44204000D01*
X101607905Y-44251619D01*
X101655524Y-44346857D01*
X101703143Y-44537333D01*
X101703143Y-44775429D01*
X101655524Y-44965905D01*
X101607905Y-45061143D01*
X101560286Y-45108762D01*
X101465048Y-45156381D01*
X101369809Y-45156381D01*
X101274571Y-45108762D01*
X101226952Y-45061143D01*
X101179333Y-44965905D01*
X101131714Y-44775429D01*
X101131714Y-44537333D01*
X101179333Y-44346857D01*
X101226952Y-44251619D01*
X101274571Y-44204000D01*
X101369809Y-44156381D01*
X102131714Y-45156381D02*
X102131714Y-44156381D01*
X102226952Y-44775429D02*
X102512667Y-45156381D01*
X102512667Y-44489714D02*
X102131714Y-44870667D01*
X101298381Y-49998381D02*
X101393620Y-49998381D01*
X101488858Y-50046000D01*
X101536477Y-50093619D01*
X101584096Y-50188857D01*
X101631715Y-50379333D01*
X101631715Y-50617429D01*
X101584096Y-50807905D01*
X101536477Y-50903143D01*
X101488858Y-50950762D01*
X101393620Y-50998381D01*
X101298381Y-50998381D01*
X101203143Y-50950762D01*
X101155524Y-50903143D01*
X101107905Y-50807905D01*
X101060286Y-50617429D01*
X101060286Y-50379333D01*
X101107905Y-50188857D01*
X101155524Y-50093619D01*
X101203143Y-50046000D01*
X101298381Y-49998381D01*
X52028381Y-41346476D02*
X51552190Y-41679810D01*
X52028381Y-41917905D02*
X51028381Y-41917905D01*
X51028381Y-41536952D01*
X51076000Y-41441714D01*
X51123619Y-41394095D01*
X51218857Y-41346476D01*
X51361714Y-41346476D01*
X51456952Y-41394095D01*
X51504571Y-41441714D01*
X51552190Y-41536952D01*
X51552190Y-41917905D01*
M02*
