G04 #@! TF.FileFunction,Copper,L3,Inr,Signal*
%FSLAX46Y46*%
G04 Gerber Fmt 4.6, Leading zero omitted, Abs format (unit mm)*
G04 Created by KiCad (PCBNEW 4.0.4+dfsg1-stable) date Fri Jan 20 23:08:29 2017*
%MOMM*%
%LPD*%
G01*
G04 APERTURE LIST*
%ADD10C,0.100000*%
%ADD11C,1.699260*%
%ADD12R,1.699260X1.699260*%
%ADD13C,1.998980*%
%ADD14R,2.032000X1.727200*%
%ADD15O,2.032000X1.727200*%
%ADD16C,1.524000*%
%ADD17O,1.501140X2.499360*%
%ADD18C,1.000000*%
%ADD19C,0.254000*%
G04 APERTURE END LIST*
D10*
D11*
X82293460Y-37083480D03*
D12*
X82293460Y-47243480D03*
D11*
X88389460Y-37083480D03*
D12*
X88389460Y-47243480D03*
D13*
X81280000Y-42164000D03*
X88900000Y-42164000D03*
D14*
X43942000Y-35814000D03*
D15*
X43942000Y-38354000D03*
X43942000Y-40894000D03*
X43942000Y-43434000D03*
X43942000Y-45974000D03*
X43942000Y-48514000D03*
X43942000Y-51054000D03*
D16*
X67056000Y-41148000D03*
X69596000Y-43688000D03*
X64516000Y-43688000D03*
D17*
X69088000Y-36068000D03*
X64008000Y-36068000D03*
X64008000Y-49022000D03*
X69088000Y-49022000D03*
X103886000Y-34036000D03*
X98806000Y-34036000D03*
X103886000Y-39624000D03*
X98806000Y-39624000D03*
X103886000Y-51308000D03*
X98806000Y-51308000D03*
X98806000Y-46736000D03*
X103886000Y-46736000D03*
D18*
X44196000Y-32004000D03*
X117348000Y-40132000D03*
X53848000Y-32004000D03*
X49022000Y-32004000D03*
X50038000Y-45466000D03*
X114300000Y-51054000D03*
X57150000Y-53594000D03*
X44196000Y-54610000D03*
X52070000Y-35306000D03*
X108204000Y-46990000D03*
X88392000Y-33782000D03*
X94488000Y-51308000D03*
X117348000Y-51054000D03*
X50292000Y-53594000D03*
X69088000Y-53594000D03*
D19*
G36*
X118491000Y-50061668D02*
X118204463Y-49774630D01*
X117649675Y-49544262D01*
X117048960Y-49543738D01*
X116493771Y-49773138D01*
X116068630Y-50197537D01*
X115838262Y-50752325D01*
X115837738Y-51353040D01*
X116067138Y-51908229D01*
X116491537Y-52333370D01*
X117046325Y-52563738D01*
X117647040Y-52564262D01*
X118202229Y-52334862D01*
X118491000Y-52046595D01*
X118491000Y-55753000D01*
X45188332Y-55753000D01*
X45475370Y-55466463D01*
X45705738Y-54911675D01*
X45706262Y-54310960D01*
X45533581Y-53893040D01*
X48781738Y-53893040D01*
X49011138Y-54448229D01*
X49435537Y-54873370D01*
X49990325Y-55103738D01*
X50591040Y-55104262D01*
X51146229Y-54874862D01*
X51571370Y-54450463D01*
X51801738Y-53895675D01*
X51801740Y-53893040D01*
X55639738Y-53893040D01*
X55869138Y-54448229D01*
X56293537Y-54873370D01*
X56848325Y-55103738D01*
X57449040Y-55104262D01*
X58004229Y-54874862D01*
X58429370Y-54450463D01*
X58659738Y-53895675D01*
X58659740Y-53893040D01*
X67577738Y-53893040D01*
X67807138Y-54448229D01*
X68231537Y-54873370D01*
X68786325Y-55103738D01*
X69387040Y-55104262D01*
X69942229Y-54874862D01*
X70367370Y-54450463D01*
X70597738Y-53895675D01*
X70598262Y-53294960D01*
X70368862Y-52739771D01*
X69944463Y-52314630D01*
X69389675Y-52084262D01*
X68788960Y-52083738D01*
X68233771Y-52313138D01*
X67808630Y-52737537D01*
X67578262Y-53292325D01*
X67577738Y-53893040D01*
X58659740Y-53893040D01*
X58660262Y-53294960D01*
X58430862Y-52739771D01*
X58006463Y-52314630D01*
X57451675Y-52084262D01*
X56850960Y-52083738D01*
X56295771Y-52313138D01*
X55870630Y-52737537D01*
X55640262Y-53292325D01*
X55639738Y-53893040D01*
X51801740Y-53893040D01*
X51802262Y-53294960D01*
X51572862Y-52739771D01*
X51148463Y-52314630D01*
X50593675Y-52084262D01*
X49992960Y-52083738D01*
X49437771Y-52313138D01*
X49012630Y-52737537D01*
X48782262Y-53292325D01*
X48781738Y-53893040D01*
X45533581Y-53893040D01*
X45476862Y-53755771D01*
X45052463Y-53330630D01*
X44497675Y-53100262D01*
X43896960Y-53099738D01*
X43341771Y-53329138D01*
X42916630Y-53753537D01*
X42686262Y-54308325D01*
X42685738Y-54909040D01*
X42915138Y-55464229D01*
X43203405Y-55753000D01*
X41529000Y-55753000D01*
X41529000Y-38354000D01*
X42258655Y-38354000D01*
X42372729Y-38927489D01*
X42697585Y-39413670D01*
X43012366Y-39624000D01*
X42697585Y-39834330D01*
X42372729Y-40320511D01*
X42258655Y-40894000D01*
X42372729Y-41467489D01*
X42697585Y-41953670D01*
X43012366Y-42164000D01*
X42697585Y-42374330D01*
X42372729Y-42860511D01*
X42258655Y-43434000D01*
X42372729Y-44007489D01*
X42697585Y-44493670D01*
X43012366Y-44704000D01*
X42697585Y-44914330D01*
X42372729Y-45400511D01*
X42258655Y-45974000D01*
X42372729Y-46547489D01*
X42697585Y-47033670D01*
X43012366Y-47244000D01*
X42697585Y-47454330D01*
X42372729Y-47940511D01*
X42258655Y-48514000D01*
X42372729Y-49087489D01*
X42697585Y-49573670D01*
X43012366Y-49784000D01*
X42697585Y-49994330D01*
X42372729Y-50480511D01*
X42258655Y-51054000D01*
X42372729Y-51627489D01*
X42697585Y-52113670D01*
X43183766Y-52438526D01*
X43757255Y-52552600D01*
X44126745Y-52552600D01*
X44700234Y-52438526D01*
X45186415Y-52113670D01*
X45511271Y-51627489D01*
X45515338Y-51607040D01*
X92977738Y-51607040D01*
X93207138Y-52162229D01*
X93631537Y-52587370D01*
X94186325Y-52817738D01*
X94787040Y-52818262D01*
X95342229Y-52588862D01*
X95767370Y-52164463D01*
X95997738Y-51609675D01*
X95998262Y-51008960D01*
X95900339Y-50771967D01*
X97420430Y-50771967D01*
X97420430Y-51844033D01*
X97525900Y-52374268D01*
X97826254Y-52823779D01*
X98275765Y-53124133D01*
X98806000Y-53229603D01*
X99336235Y-53124133D01*
X99785746Y-52823779D01*
X100086100Y-52374268D01*
X100191570Y-51844033D01*
X100191570Y-50771967D01*
X102500430Y-50771967D01*
X102500430Y-51844033D01*
X102605900Y-52374268D01*
X102906254Y-52823779D01*
X103355765Y-53124133D01*
X103886000Y-53229603D01*
X104416235Y-53124133D01*
X104865746Y-52823779D01*
X105166100Y-52374268D01*
X105271570Y-51844033D01*
X105271570Y-51353040D01*
X112789738Y-51353040D01*
X113019138Y-51908229D01*
X113443537Y-52333370D01*
X113998325Y-52563738D01*
X114599040Y-52564262D01*
X115154229Y-52334862D01*
X115579370Y-51910463D01*
X115809738Y-51355675D01*
X115810262Y-50754960D01*
X115580862Y-50199771D01*
X115156463Y-49774630D01*
X114601675Y-49544262D01*
X114000960Y-49543738D01*
X113445771Y-49773138D01*
X113020630Y-50197537D01*
X112790262Y-50752325D01*
X112789738Y-51353040D01*
X105271570Y-51353040D01*
X105271570Y-50771967D01*
X105166100Y-50241732D01*
X104865746Y-49792221D01*
X104416235Y-49491867D01*
X103886000Y-49386397D01*
X103355765Y-49491867D01*
X102906254Y-49792221D01*
X102605900Y-50241732D01*
X102500430Y-50771967D01*
X100191570Y-50771967D01*
X100086100Y-50241732D01*
X99785746Y-49792221D01*
X99336235Y-49491867D01*
X98806000Y-49386397D01*
X98275765Y-49491867D01*
X97826254Y-49792221D01*
X97525900Y-50241732D01*
X97420430Y-50771967D01*
X95900339Y-50771967D01*
X95768862Y-50453771D01*
X95344463Y-50028630D01*
X94789675Y-49798262D01*
X94188960Y-49797738D01*
X93633771Y-50027138D01*
X93208630Y-50451537D01*
X92978262Y-51006325D01*
X92977738Y-51607040D01*
X45515338Y-51607040D01*
X45625345Y-51054000D01*
X45511271Y-50480511D01*
X45186415Y-49994330D01*
X44871634Y-49784000D01*
X45186415Y-49573670D01*
X45511271Y-49087489D01*
X45625345Y-48514000D01*
X45619769Y-48485967D01*
X62622430Y-48485967D01*
X62622430Y-49558033D01*
X62727900Y-50088268D01*
X63028254Y-50537779D01*
X63477765Y-50838133D01*
X64008000Y-50943603D01*
X64538235Y-50838133D01*
X64987746Y-50537779D01*
X65288100Y-50088268D01*
X65393570Y-49558033D01*
X65393570Y-48485967D01*
X67702430Y-48485967D01*
X67702430Y-49558033D01*
X67807900Y-50088268D01*
X68108254Y-50537779D01*
X68557765Y-50838133D01*
X69088000Y-50943603D01*
X69618235Y-50838133D01*
X70067746Y-50537779D01*
X70368100Y-50088268D01*
X70473570Y-49558033D01*
X70473570Y-48485967D01*
X70368100Y-47955732D01*
X70067746Y-47506221D01*
X69618235Y-47205867D01*
X69088000Y-47100397D01*
X68557765Y-47205867D01*
X68108254Y-47506221D01*
X67807900Y-47955732D01*
X67702430Y-48485967D01*
X65393570Y-48485967D01*
X65288100Y-47955732D01*
X64987746Y-47506221D01*
X64538235Y-47205867D01*
X64008000Y-47100397D01*
X63477765Y-47205867D01*
X63028254Y-47506221D01*
X62727900Y-47955732D01*
X62622430Y-48485967D01*
X45619769Y-48485967D01*
X45511271Y-47940511D01*
X45186415Y-47454330D01*
X44871634Y-47244000D01*
X45186415Y-47033670D01*
X45511271Y-46547489D01*
X45541831Y-46393850D01*
X80796390Y-46393850D01*
X80796390Y-48093110D01*
X80840668Y-48328427D01*
X80979740Y-48544551D01*
X81191940Y-48689541D01*
X81443830Y-48740550D01*
X83143090Y-48740550D01*
X83378407Y-48696272D01*
X83594531Y-48557200D01*
X83739521Y-48345000D01*
X83790530Y-48093110D01*
X83790530Y-46393850D01*
X86892390Y-46393850D01*
X86892390Y-48093110D01*
X86936668Y-48328427D01*
X87075740Y-48544551D01*
X87287940Y-48689541D01*
X87539830Y-48740550D01*
X89239090Y-48740550D01*
X89474407Y-48696272D01*
X89690531Y-48557200D01*
X89835521Y-48345000D01*
X89886530Y-48093110D01*
X89886530Y-46393850D01*
X89850049Y-46199967D01*
X97420430Y-46199967D01*
X97420430Y-47272033D01*
X97525900Y-47802268D01*
X97826254Y-48251779D01*
X98275765Y-48552133D01*
X98806000Y-48657603D01*
X99336235Y-48552133D01*
X99785746Y-48251779D01*
X100086100Y-47802268D01*
X100191570Y-47272033D01*
X100191570Y-46199967D01*
X102500430Y-46199967D01*
X102500430Y-47272033D01*
X102605900Y-47802268D01*
X102906254Y-48251779D01*
X103355765Y-48552133D01*
X103886000Y-48657603D01*
X104416235Y-48552133D01*
X104865746Y-48251779D01*
X105166100Y-47802268D01*
X105268187Y-47289040D01*
X106693738Y-47289040D01*
X106923138Y-47844229D01*
X107347537Y-48269370D01*
X107902325Y-48499738D01*
X108503040Y-48500262D01*
X109058229Y-48270862D01*
X109483370Y-47846463D01*
X109713738Y-47291675D01*
X109714262Y-46690960D01*
X109484862Y-46135771D01*
X109060463Y-45710630D01*
X108505675Y-45480262D01*
X107904960Y-45479738D01*
X107349771Y-45709138D01*
X106924630Y-46133537D01*
X106694262Y-46688325D01*
X106693738Y-47289040D01*
X105268187Y-47289040D01*
X105271570Y-47272033D01*
X105271570Y-46199967D01*
X105166100Y-45669732D01*
X104865746Y-45220221D01*
X104416235Y-44919867D01*
X103886000Y-44814397D01*
X103355765Y-44919867D01*
X102906254Y-45220221D01*
X102605900Y-45669732D01*
X102500430Y-46199967D01*
X100191570Y-46199967D01*
X100086100Y-45669732D01*
X99785746Y-45220221D01*
X99336235Y-44919867D01*
X98806000Y-44814397D01*
X98275765Y-44919867D01*
X97826254Y-45220221D01*
X97525900Y-45669732D01*
X97420430Y-46199967D01*
X89850049Y-46199967D01*
X89842252Y-46158533D01*
X89703180Y-45942409D01*
X89490980Y-45797419D01*
X89239090Y-45746410D01*
X87539830Y-45746410D01*
X87304513Y-45790688D01*
X87088389Y-45929760D01*
X86943399Y-46141960D01*
X86892390Y-46393850D01*
X83790530Y-46393850D01*
X83746252Y-46158533D01*
X83607180Y-45942409D01*
X83394980Y-45797419D01*
X83143090Y-45746410D01*
X81443830Y-45746410D01*
X81208513Y-45790688D01*
X80992389Y-45929760D01*
X80847399Y-46141960D01*
X80796390Y-46393850D01*
X45541831Y-46393850D01*
X45625345Y-45974000D01*
X45511271Y-45400511D01*
X45186415Y-44914330D01*
X44871634Y-44704000D01*
X45186415Y-44493670D01*
X45511271Y-44007489D01*
X45519790Y-43964661D01*
X63118758Y-43964661D01*
X63330990Y-44478303D01*
X63723630Y-44871629D01*
X64236900Y-45084757D01*
X64792661Y-45085242D01*
X65306303Y-44873010D01*
X65699629Y-44480370D01*
X65912757Y-43967100D01*
X65912759Y-43964661D01*
X68198758Y-43964661D01*
X68410990Y-44478303D01*
X68803630Y-44871629D01*
X69316900Y-45084757D01*
X69872661Y-45085242D01*
X70386303Y-44873010D01*
X70779629Y-44480370D01*
X70992757Y-43967100D01*
X70993242Y-43411339D01*
X70781010Y-42897697D01*
X70388370Y-42504371D01*
X70348208Y-42487694D01*
X79645226Y-42487694D01*
X79893538Y-43088655D01*
X80352927Y-43548846D01*
X80953453Y-43798206D01*
X81603694Y-43798774D01*
X82204655Y-43550462D01*
X82664846Y-43091073D01*
X82914206Y-42490547D01*
X82914208Y-42487694D01*
X87265226Y-42487694D01*
X87513538Y-43088655D01*
X87972927Y-43548846D01*
X88573453Y-43798206D01*
X89223694Y-43798774D01*
X89824655Y-43550462D01*
X90284846Y-43091073D01*
X90534206Y-42490547D01*
X90534774Y-41840306D01*
X90286462Y-41239345D01*
X89827073Y-40779154D01*
X89226547Y-40529794D01*
X88576306Y-40529226D01*
X87975345Y-40777538D01*
X87515154Y-41236927D01*
X87265794Y-41837453D01*
X87265226Y-42487694D01*
X82914208Y-42487694D01*
X82914774Y-41840306D01*
X82666462Y-41239345D01*
X82207073Y-40779154D01*
X81606547Y-40529794D01*
X80956306Y-40529226D01*
X80355345Y-40777538D01*
X79895154Y-41236927D01*
X79645794Y-41837453D01*
X79645226Y-42487694D01*
X70348208Y-42487694D01*
X69875100Y-42291243D01*
X69319339Y-42290758D01*
X68805697Y-42502990D01*
X68412371Y-42895630D01*
X68199243Y-43408900D01*
X68198758Y-43964661D01*
X65912759Y-43964661D01*
X65913242Y-43411339D01*
X65701010Y-42897697D01*
X65308370Y-42504371D01*
X64795100Y-42291243D01*
X64239339Y-42290758D01*
X63725697Y-42502990D01*
X63332371Y-42895630D01*
X63119243Y-43408900D01*
X63118758Y-43964661D01*
X45519790Y-43964661D01*
X45625345Y-43434000D01*
X45511271Y-42860511D01*
X45186415Y-42374330D01*
X44871634Y-42164000D01*
X45186415Y-41953670D01*
X45511271Y-41467489D01*
X45519790Y-41424661D01*
X65658758Y-41424661D01*
X65870990Y-41938303D01*
X66263630Y-42331629D01*
X66776900Y-42544757D01*
X67332661Y-42545242D01*
X67846303Y-42333010D01*
X68239629Y-41940370D01*
X68452757Y-41427100D01*
X68453242Y-40871339D01*
X68241010Y-40357697D01*
X67848370Y-39964371D01*
X67335100Y-39751243D01*
X66779339Y-39750758D01*
X66265697Y-39962990D01*
X65872371Y-40355630D01*
X65659243Y-40868900D01*
X65658758Y-41424661D01*
X45519790Y-41424661D01*
X45625345Y-40894000D01*
X45511271Y-40320511D01*
X45186415Y-39834330D01*
X44871634Y-39624000D01*
X45186415Y-39413670D01*
X45404042Y-39087967D01*
X97420430Y-39087967D01*
X97420430Y-40160033D01*
X97525900Y-40690268D01*
X97826254Y-41139779D01*
X98275765Y-41440133D01*
X98806000Y-41545603D01*
X99336235Y-41440133D01*
X99785746Y-41139779D01*
X100086100Y-40690268D01*
X100191570Y-40160033D01*
X100191570Y-39087967D01*
X102500430Y-39087967D01*
X102500430Y-40160033D01*
X102605900Y-40690268D01*
X102906254Y-41139779D01*
X103355765Y-41440133D01*
X103886000Y-41545603D01*
X104416235Y-41440133D01*
X104865746Y-41139779D01*
X105166100Y-40690268D01*
X105271570Y-40160033D01*
X105271570Y-39087967D01*
X105166100Y-38557732D01*
X104865746Y-38108221D01*
X104416235Y-37807867D01*
X103886000Y-37702397D01*
X103355765Y-37807867D01*
X102906254Y-38108221D01*
X102605900Y-38557732D01*
X102500430Y-39087967D01*
X100191570Y-39087967D01*
X100086100Y-38557732D01*
X99785746Y-38108221D01*
X99336235Y-37807867D01*
X98806000Y-37702397D01*
X98275765Y-37807867D01*
X97826254Y-38108221D01*
X97525900Y-38557732D01*
X97420430Y-39087967D01*
X45404042Y-39087967D01*
X45511271Y-38927489D01*
X45625345Y-38354000D01*
X45511271Y-37780511D01*
X45186415Y-37294330D01*
X45164220Y-37279500D01*
X45317698Y-37215927D01*
X45496327Y-37037299D01*
X45593000Y-36803910D01*
X45593000Y-36099750D01*
X45434250Y-35941000D01*
X44069000Y-35941000D01*
X44069000Y-35961000D01*
X43815000Y-35961000D01*
X43815000Y-35941000D01*
X42449750Y-35941000D01*
X42291000Y-36099750D01*
X42291000Y-36803910D01*
X42387673Y-37037299D01*
X42566302Y-37215927D01*
X42719780Y-37279500D01*
X42697585Y-37294330D01*
X42372729Y-37780511D01*
X42258655Y-38354000D01*
X41529000Y-38354000D01*
X41529000Y-34824090D01*
X42291000Y-34824090D01*
X42291000Y-35528250D01*
X42449750Y-35687000D01*
X43815000Y-35687000D01*
X43815000Y-34474150D01*
X44069000Y-34474150D01*
X44069000Y-35687000D01*
X45434250Y-35687000D01*
X45516210Y-35605040D01*
X50559738Y-35605040D01*
X50789138Y-36160229D01*
X51213537Y-36585370D01*
X51768325Y-36815738D01*
X52369040Y-36816262D01*
X52924229Y-36586862D01*
X53349370Y-36162463D01*
X53579738Y-35607675D01*
X53579804Y-35531967D01*
X62622430Y-35531967D01*
X62622430Y-36604033D01*
X62727900Y-37134268D01*
X63028254Y-37583779D01*
X63477765Y-37884133D01*
X64008000Y-37989603D01*
X64538235Y-37884133D01*
X64987746Y-37583779D01*
X65288100Y-37134268D01*
X65393570Y-36604033D01*
X65393570Y-35531967D01*
X67702430Y-35531967D01*
X67702430Y-36604033D01*
X67807900Y-37134268D01*
X68108254Y-37583779D01*
X68557765Y-37884133D01*
X69088000Y-37989603D01*
X69618235Y-37884133D01*
X70067746Y-37583779D01*
X70205580Y-37377496D01*
X80808572Y-37377496D01*
X81034118Y-37923357D01*
X81451386Y-38341354D01*
X81996853Y-38567852D01*
X82587476Y-38568368D01*
X83133337Y-38342822D01*
X83551334Y-37925554D01*
X83777832Y-37380087D01*
X83777834Y-37377496D01*
X86904572Y-37377496D01*
X87130118Y-37923357D01*
X87547386Y-38341354D01*
X88092853Y-38567852D01*
X88683476Y-38568368D01*
X89229337Y-38342822D01*
X89647334Y-37925554D01*
X89873832Y-37380087D01*
X89874348Y-36789464D01*
X89648802Y-36243603D01*
X89231534Y-35825606D01*
X88686067Y-35599108D01*
X88095444Y-35598592D01*
X87549583Y-35824138D01*
X87131586Y-36241406D01*
X86905088Y-36786873D01*
X86904572Y-37377496D01*
X83777834Y-37377496D01*
X83778348Y-36789464D01*
X83552802Y-36243603D01*
X83135534Y-35825606D01*
X82590067Y-35599108D01*
X81999444Y-35598592D01*
X81453583Y-35824138D01*
X81035586Y-36241406D01*
X80809088Y-36786873D01*
X80808572Y-37377496D01*
X70205580Y-37377496D01*
X70368100Y-37134268D01*
X70473570Y-36604033D01*
X70473570Y-35531967D01*
X70368100Y-35001732D01*
X70067746Y-34552221D01*
X69618235Y-34251867D01*
X69088000Y-34146397D01*
X68557765Y-34251867D01*
X68108254Y-34552221D01*
X67807900Y-35001732D01*
X67702430Y-35531967D01*
X65393570Y-35531967D01*
X65288100Y-35001732D01*
X64987746Y-34552221D01*
X64538235Y-34251867D01*
X64008000Y-34146397D01*
X63477765Y-34251867D01*
X63028254Y-34552221D01*
X62727900Y-35001732D01*
X62622430Y-35531967D01*
X53579804Y-35531967D01*
X53580262Y-35006960D01*
X53350862Y-34451771D01*
X52980779Y-34081040D01*
X86881738Y-34081040D01*
X87111138Y-34636229D01*
X87535537Y-35061370D01*
X88090325Y-35291738D01*
X88691040Y-35292262D01*
X89246229Y-35062862D01*
X89671370Y-34638463D01*
X89901738Y-34083675D01*
X89902247Y-33499967D01*
X97420430Y-33499967D01*
X97420430Y-34572033D01*
X97525900Y-35102268D01*
X97826254Y-35551779D01*
X98275765Y-35852133D01*
X98806000Y-35957603D01*
X99336235Y-35852133D01*
X99785746Y-35551779D01*
X100086100Y-35102268D01*
X100191570Y-34572033D01*
X100191570Y-33499967D01*
X102500430Y-33499967D01*
X102500430Y-34572033D01*
X102605900Y-35102268D01*
X102906254Y-35551779D01*
X103355765Y-35852133D01*
X103886000Y-35957603D01*
X104416235Y-35852133D01*
X104865746Y-35551779D01*
X105166100Y-35102268D01*
X105271570Y-34572033D01*
X105271570Y-33499967D01*
X105166100Y-32969732D01*
X104865746Y-32520221D01*
X104416235Y-32219867D01*
X103886000Y-32114397D01*
X103355765Y-32219867D01*
X102906254Y-32520221D01*
X102605900Y-32969732D01*
X102500430Y-33499967D01*
X100191570Y-33499967D01*
X100086100Y-32969732D01*
X99785746Y-32520221D01*
X99336235Y-32219867D01*
X98806000Y-32114397D01*
X98275765Y-32219867D01*
X97826254Y-32520221D01*
X97525900Y-32969732D01*
X97420430Y-33499967D01*
X89902247Y-33499967D01*
X89902262Y-33482960D01*
X89672862Y-32927771D01*
X89248463Y-32502630D01*
X88693675Y-32272262D01*
X88092960Y-32271738D01*
X87537771Y-32501138D01*
X87112630Y-32925537D01*
X86882262Y-33480325D01*
X86881738Y-34081040D01*
X52980779Y-34081040D01*
X52926463Y-34026630D01*
X52371675Y-33796262D01*
X51770960Y-33795738D01*
X51215771Y-34025138D01*
X50790630Y-34449537D01*
X50560262Y-35004325D01*
X50559738Y-35605040D01*
X45516210Y-35605040D01*
X45593000Y-35528250D01*
X45593000Y-34824090D01*
X45496327Y-34590701D01*
X45317698Y-34412073D01*
X45084309Y-34315400D01*
X44227750Y-34315400D01*
X44069000Y-34474150D01*
X43815000Y-34474150D01*
X43656250Y-34315400D01*
X42799691Y-34315400D01*
X42566302Y-34412073D01*
X42387673Y-34590701D01*
X42291000Y-34824090D01*
X41529000Y-34824090D01*
X41529000Y-29845000D01*
X118491000Y-29845000D01*
X118491000Y-50061668D01*
X118491000Y-50061668D01*
G37*
X118491000Y-50061668D02*
X118204463Y-49774630D01*
X117649675Y-49544262D01*
X117048960Y-49543738D01*
X116493771Y-49773138D01*
X116068630Y-50197537D01*
X115838262Y-50752325D01*
X115837738Y-51353040D01*
X116067138Y-51908229D01*
X116491537Y-52333370D01*
X117046325Y-52563738D01*
X117647040Y-52564262D01*
X118202229Y-52334862D01*
X118491000Y-52046595D01*
X118491000Y-55753000D01*
X45188332Y-55753000D01*
X45475370Y-55466463D01*
X45705738Y-54911675D01*
X45706262Y-54310960D01*
X45533581Y-53893040D01*
X48781738Y-53893040D01*
X49011138Y-54448229D01*
X49435537Y-54873370D01*
X49990325Y-55103738D01*
X50591040Y-55104262D01*
X51146229Y-54874862D01*
X51571370Y-54450463D01*
X51801738Y-53895675D01*
X51801740Y-53893040D01*
X55639738Y-53893040D01*
X55869138Y-54448229D01*
X56293537Y-54873370D01*
X56848325Y-55103738D01*
X57449040Y-55104262D01*
X58004229Y-54874862D01*
X58429370Y-54450463D01*
X58659738Y-53895675D01*
X58659740Y-53893040D01*
X67577738Y-53893040D01*
X67807138Y-54448229D01*
X68231537Y-54873370D01*
X68786325Y-55103738D01*
X69387040Y-55104262D01*
X69942229Y-54874862D01*
X70367370Y-54450463D01*
X70597738Y-53895675D01*
X70598262Y-53294960D01*
X70368862Y-52739771D01*
X69944463Y-52314630D01*
X69389675Y-52084262D01*
X68788960Y-52083738D01*
X68233771Y-52313138D01*
X67808630Y-52737537D01*
X67578262Y-53292325D01*
X67577738Y-53893040D01*
X58659740Y-53893040D01*
X58660262Y-53294960D01*
X58430862Y-52739771D01*
X58006463Y-52314630D01*
X57451675Y-52084262D01*
X56850960Y-52083738D01*
X56295771Y-52313138D01*
X55870630Y-52737537D01*
X55640262Y-53292325D01*
X55639738Y-53893040D01*
X51801740Y-53893040D01*
X51802262Y-53294960D01*
X51572862Y-52739771D01*
X51148463Y-52314630D01*
X50593675Y-52084262D01*
X49992960Y-52083738D01*
X49437771Y-52313138D01*
X49012630Y-52737537D01*
X48782262Y-53292325D01*
X48781738Y-53893040D01*
X45533581Y-53893040D01*
X45476862Y-53755771D01*
X45052463Y-53330630D01*
X44497675Y-53100262D01*
X43896960Y-53099738D01*
X43341771Y-53329138D01*
X42916630Y-53753537D01*
X42686262Y-54308325D01*
X42685738Y-54909040D01*
X42915138Y-55464229D01*
X43203405Y-55753000D01*
X41529000Y-55753000D01*
X41529000Y-38354000D01*
X42258655Y-38354000D01*
X42372729Y-38927489D01*
X42697585Y-39413670D01*
X43012366Y-39624000D01*
X42697585Y-39834330D01*
X42372729Y-40320511D01*
X42258655Y-40894000D01*
X42372729Y-41467489D01*
X42697585Y-41953670D01*
X43012366Y-42164000D01*
X42697585Y-42374330D01*
X42372729Y-42860511D01*
X42258655Y-43434000D01*
X42372729Y-44007489D01*
X42697585Y-44493670D01*
X43012366Y-44704000D01*
X42697585Y-44914330D01*
X42372729Y-45400511D01*
X42258655Y-45974000D01*
X42372729Y-46547489D01*
X42697585Y-47033670D01*
X43012366Y-47244000D01*
X42697585Y-47454330D01*
X42372729Y-47940511D01*
X42258655Y-48514000D01*
X42372729Y-49087489D01*
X42697585Y-49573670D01*
X43012366Y-49784000D01*
X42697585Y-49994330D01*
X42372729Y-50480511D01*
X42258655Y-51054000D01*
X42372729Y-51627489D01*
X42697585Y-52113670D01*
X43183766Y-52438526D01*
X43757255Y-52552600D01*
X44126745Y-52552600D01*
X44700234Y-52438526D01*
X45186415Y-52113670D01*
X45511271Y-51627489D01*
X45515338Y-51607040D01*
X92977738Y-51607040D01*
X93207138Y-52162229D01*
X93631537Y-52587370D01*
X94186325Y-52817738D01*
X94787040Y-52818262D01*
X95342229Y-52588862D01*
X95767370Y-52164463D01*
X95997738Y-51609675D01*
X95998262Y-51008960D01*
X95900339Y-50771967D01*
X97420430Y-50771967D01*
X97420430Y-51844033D01*
X97525900Y-52374268D01*
X97826254Y-52823779D01*
X98275765Y-53124133D01*
X98806000Y-53229603D01*
X99336235Y-53124133D01*
X99785746Y-52823779D01*
X100086100Y-52374268D01*
X100191570Y-51844033D01*
X100191570Y-50771967D01*
X102500430Y-50771967D01*
X102500430Y-51844033D01*
X102605900Y-52374268D01*
X102906254Y-52823779D01*
X103355765Y-53124133D01*
X103886000Y-53229603D01*
X104416235Y-53124133D01*
X104865746Y-52823779D01*
X105166100Y-52374268D01*
X105271570Y-51844033D01*
X105271570Y-51353040D01*
X112789738Y-51353040D01*
X113019138Y-51908229D01*
X113443537Y-52333370D01*
X113998325Y-52563738D01*
X114599040Y-52564262D01*
X115154229Y-52334862D01*
X115579370Y-51910463D01*
X115809738Y-51355675D01*
X115810262Y-50754960D01*
X115580862Y-50199771D01*
X115156463Y-49774630D01*
X114601675Y-49544262D01*
X114000960Y-49543738D01*
X113445771Y-49773138D01*
X113020630Y-50197537D01*
X112790262Y-50752325D01*
X112789738Y-51353040D01*
X105271570Y-51353040D01*
X105271570Y-50771967D01*
X105166100Y-50241732D01*
X104865746Y-49792221D01*
X104416235Y-49491867D01*
X103886000Y-49386397D01*
X103355765Y-49491867D01*
X102906254Y-49792221D01*
X102605900Y-50241732D01*
X102500430Y-50771967D01*
X100191570Y-50771967D01*
X100086100Y-50241732D01*
X99785746Y-49792221D01*
X99336235Y-49491867D01*
X98806000Y-49386397D01*
X98275765Y-49491867D01*
X97826254Y-49792221D01*
X97525900Y-50241732D01*
X97420430Y-50771967D01*
X95900339Y-50771967D01*
X95768862Y-50453771D01*
X95344463Y-50028630D01*
X94789675Y-49798262D01*
X94188960Y-49797738D01*
X93633771Y-50027138D01*
X93208630Y-50451537D01*
X92978262Y-51006325D01*
X92977738Y-51607040D01*
X45515338Y-51607040D01*
X45625345Y-51054000D01*
X45511271Y-50480511D01*
X45186415Y-49994330D01*
X44871634Y-49784000D01*
X45186415Y-49573670D01*
X45511271Y-49087489D01*
X45625345Y-48514000D01*
X45619769Y-48485967D01*
X62622430Y-48485967D01*
X62622430Y-49558033D01*
X62727900Y-50088268D01*
X63028254Y-50537779D01*
X63477765Y-50838133D01*
X64008000Y-50943603D01*
X64538235Y-50838133D01*
X64987746Y-50537779D01*
X65288100Y-50088268D01*
X65393570Y-49558033D01*
X65393570Y-48485967D01*
X67702430Y-48485967D01*
X67702430Y-49558033D01*
X67807900Y-50088268D01*
X68108254Y-50537779D01*
X68557765Y-50838133D01*
X69088000Y-50943603D01*
X69618235Y-50838133D01*
X70067746Y-50537779D01*
X70368100Y-50088268D01*
X70473570Y-49558033D01*
X70473570Y-48485967D01*
X70368100Y-47955732D01*
X70067746Y-47506221D01*
X69618235Y-47205867D01*
X69088000Y-47100397D01*
X68557765Y-47205867D01*
X68108254Y-47506221D01*
X67807900Y-47955732D01*
X67702430Y-48485967D01*
X65393570Y-48485967D01*
X65288100Y-47955732D01*
X64987746Y-47506221D01*
X64538235Y-47205867D01*
X64008000Y-47100397D01*
X63477765Y-47205867D01*
X63028254Y-47506221D01*
X62727900Y-47955732D01*
X62622430Y-48485967D01*
X45619769Y-48485967D01*
X45511271Y-47940511D01*
X45186415Y-47454330D01*
X44871634Y-47244000D01*
X45186415Y-47033670D01*
X45511271Y-46547489D01*
X45541831Y-46393850D01*
X80796390Y-46393850D01*
X80796390Y-48093110D01*
X80840668Y-48328427D01*
X80979740Y-48544551D01*
X81191940Y-48689541D01*
X81443830Y-48740550D01*
X83143090Y-48740550D01*
X83378407Y-48696272D01*
X83594531Y-48557200D01*
X83739521Y-48345000D01*
X83790530Y-48093110D01*
X83790530Y-46393850D01*
X86892390Y-46393850D01*
X86892390Y-48093110D01*
X86936668Y-48328427D01*
X87075740Y-48544551D01*
X87287940Y-48689541D01*
X87539830Y-48740550D01*
X89239090Y-48740550D01*
X89474407Y-48696272D01*
X89690531Y-48557200D01*
X89835521Y-48345000D01*
X89886530Y-48093110D01*
X89886530Y-46393850D01*
X89850049Y-46199967D01*
X97420430Y-46199967D01*
X97420430Y-47272033D01*
X97525900Y-47802268D01*
X97826254Y-48251779D01*
X98275765Y-48552133D01*
X98806000Y-48657603D01*
X99336235Y-48552133D01*
X99785746Y-48251779D01*
X100086100Y-47802268D01*
X100191570Y-47272033D01*
X100191570Y-46199967D01*
X102500430Y-46199967D01*
X102500430Y-47272033D01*
X102605900Y-47802268D01*
X102906254Y-48251779D01*
X103355765Y-48552133D01*
X103886000Y-48657603D01*
X104416235Y-48552133D01*
X104865746Y-48251779D01*
X105166100Y-47802268D01*
X105268187Y-47289040D01*
X106693738Y-47289040D01*
X106923138Y-47844229D01*
X107347537Y-48269370D01*
X107902325Y-48499738D01*
X108503040Y-48500262D01*
X109058229Y-48270862D01*
X109483370Y-47846463D01*
X109713738Y-47291675D01*
X109714262Y-46690960D01*
X109484862Y-46135771D01*
X109060463Y-45710630D01*
X108505675Y-45480262D01*
X107904960Y-45479738D01*
X107349771Y-45709138D01*
X106924630Y-46133537D01*
X106694262Y-46688325D01*
X106693738Y-47289040D01*
X105268187Y-47289040D01*
X105271570Y-47272033D01*
X105271570Y-46199967D01*
X105166100Y-45669732D01*
X104865746Y-45220221D01*
X104416235Y-44919867D01*
X103886000Y-44814397D01*
X103355765Y-44919867D01*
X102906254Y-45220221D01*
X102605900Y-45669732D01*
X102500430Y-46199967D01*
X100191570Y-46199967D01*
X100086100Y-45669732D01*
X99785746Y-45220221D01*
X99336235Y-44919867D01*
X98806000Y-44814397D01*
X98275765Y-44919867D01*
X97826254Y-45220221D01*
X97525900Y-45669732D01*
X97420430Y-46199967D01*
X89850049Y-46199967D01*
X89842252Y-46158533D01*
X89703180Y-45942409D01*
X89490980Y-45797419D01*
X89239090Y-45746410D01*
X87539830Y-45746410D01*
X87304513Y-45790688D01*
X87088389Y-45929760D01*
X86943399Y-46141960D01*
X86892390Y-46393850D01*
X83790530Y-46393850D01*
X83746252Y-46158533D01*
X83607180Y-45942409D01*
X83394980Y-45797419D01*
X83143090Y-45746410D01*
X81443830Y-45746410D01*
X81208513Y-45790688D01*
X80992389Y-45929760D01*
X80847399Y-46141960D01*
X80796390Y-46393850D01*
X45541831Y-46393850D01*
X45625345Y-45974000D01*
X45511271Y-45400511D01*
X45186415Y-44914330D01*
X44871634Y-44704000D01*
X45186415Y-44493670D01*
X45511271Y-44007489D01*
X45519790Y-43964661D01*
X63118758Y-43964661D01*
X63330990Y-44478303D01*
X63723630Y-44871629D01*
X64236900Y-45084757D01*
X64792661Y-45085242D01*
X65306303Y-44873010D01*
X65699629Y-44480370D01*
X65912757Y-43967100D01*
X65912759Y-43964661D01*
X68198758Y-43964661D01*
X68410990Y-44478303D01*
X68803630Y-44871629D01*
X69316900Y-45084757D01*
X69872661Y-45085242D01*
X70386303Y-44873010D01*
X70779629Y-44480370D01*
X70992757Y-43967100D01*
X70993242Y-43411339D01*
X70781010Y-42897697D01*
X70388370Y-42504371D01*
X70348208Y-42487694D01*
X79645226Y-42487694D01*
X79893538Y-43088655D01*
X80352927Y-43548846D01*
X80953453Y-43798206D01*
X81603694Y-43798774D01*
X82204655Y-43550462D01*
X82664846Y-43091073D01*
X82914206Y-42490547D01*
X82914208Y-42487694D01*
X87265226Y-42487694D01*
X87513538Y-43088655D01*
X87972927Y-43548846D01*
X88573453Y-43798206D01*
X89223694Y-43798774D01*
X89824655Y-43550462D01*
X90284846Y-43091073D01*
X90534206Y-42490547D01*
X90534774Y-41840306D01*
X90286462Y-41239345D01*
X89827073Y-40779154D01*
X89226547Y-40529794D01*
X88576306Y-40529226D01*
X87975345Y-40777538D01*
X87515154Y-41236927D01*
X87265794Y-41837453D01*
X87265226Y-42487694D01*
X82914208Y-42487694D01*
X82914774Y-41840306D01*
X82666462Y-41239345D01*
X82207073Y-40779154D01*
X81606547Y-40529794D01*
X80956306Y-40529226D01*
X80355345Y-40777538D01*
X79895154Y-41236927D01*
X79645794Y-41837453D01*
X79645226Y-42487694D01*
X70348208Y-42487694D01*
X69875100Y-42291243D01*
X69319339Y-42290758D01*
X68805697Y-42502990D01*
X68412371Y-42895630D01*
X68199243Y-43408900D01*
X68198758Y-43964661D01*
X65912759Y-43964661D01*
X65913242Y-43411339D01*
X65701010Y-42897697D01*
X65308370Y-42504371D01*
X64795100Y-42291243D01*
X64239339Y-42290758D01*
X63725697Y-42502990D01*
X63332371Y-42895630D01*
X63119243Y-43408900D01*
X63118758Y-43964661D01*
X45519790Y-43964661D01*
X45625345Y-43434000D01*
X45511271Y-42860511D01*
X45186415Y-42374330D01*
X44871634Y-42164000D01*
X45186415Y-41953670D01*
X45511271Y-41467489D01*
X45519790Y-41424661D01*
X65658758Y-41424661D01*
X65870990Y-41938303D01*
X66263630Y-42331629D01*
X66776900Y-42544757D01*
X67332661Y-42545242D01*
X67846303Y-42333010D01*
X68239629Y-41940370D01*
X68452757Y-41427100D01*
X68453242Y-40871339D01*
X68241010Y-40357697D01*
X67848370Y-39964371D01*
X67335100Y-39751243D01*
X66779339Y-39750758D01*
X66265697Y-39962990D01*
X65872371Y-40355630D01*
X65659243Y-40868900D01*
X65658758Y-41424661D01*
X45519790Y-41424661D01*
X45625345Y-40894000D01*
X45511271Y-40320511D01*
X45186415Y-39834330D01*
X44871634Y-39624000D01*
X45186415Y-39413670D01*
X45404042Y-39087967D01*
X97420430Y-39087967D01*
X97420430Y-40160033D01*
X97525900Y-40690268D01*
X97826254Y-41139779D01*
X98275765Y-41440133D01*
X98806000Y-41545603D01*
X99336235Y-41440133D01*
X99785746Y-41139779D01*
X100086100Y-40690268D01*
X100191570Y-40160033D01*
X100191570Y-39087967D01*
X102500430Y-39087967D01*
X102500430Y-40160033D01*
X102605900Y-40690268D01*
X102906254Y-41139779D01*
X103355765Y-41440133D01*
X103886000Y-41545603D01*
X104416235Y-41440133D01*
X104865746Y-41139779D01*
X105166100Y-40690268D01*
X105271570Y-40160033D01*
X105271570Y-39087967D01*
X105166100Y-38557732D01*
X104865746Y-38108221D01*
X104416235Y-37807867D01*
X103886000Y-37702397D01*
X103355765Y-37807867D01*
X102906254Y-38108221D01*
X102605900Y-38557732D01*
X102500430Y-39087967D01*
X100191570Y-39087967D01*
X100086100Y-38557732D01*
X99785746Y-38108221D01*
X99336235Y-37807867D01*
X98806000Y-37702397D01*
X98275765Y-37807867D01*
X97826254Y-38108221D01*
X97525900Y-38557732D01*
X97420430Y-39087967D01*
X45404042Y-39087967D01*
X45511271Y-38927489D01*
X45625345Y-38354000D01*
X45511271Y-37780511D01*
X45186415Y-37294330D01*
X45164220Y-37279500D01*
X45317698Y-37215927D01*
X45496327Y-37037299D01*
X45593000Y-36803910D01*
X45593000Y-36099750D01*
X45434250Y-35941000D01*
X44069000Y-35941000D01*
X44069000Y-35961000D01*
X43815000Y-35961000D01*
X43815000Y-35941000D01*
X42449750Y-35941000D01*
X42291000Y-36099750D01*
X42291000Y-36803910D01*
X42387673Y-37037299D01*
X42566302Y-37215927D01*
X42719780Y-37279500D01*
X42697585Y-37294330D01*
X42372729Y-37780511D01*
X42258655Y-38354000D01*
X41529000Y-38354000D01*
X41529000Y-34824090D01*
X42291000Y-34824090D01*
X42291000Y-35528250D01*
X42449750Y-35687000D01*
X43815000Y-35687000D01*
X43815000Y-34474150D01*
X44069000Y-34474150D01*
X44069000Y-35687000D01*
X45434250Y-35687000D01*
X45516210Y-35605040D01*
X50559738Y-35605040D01*
X50789138Y-36160229D01*
X51213537Y-36585370D01*
X51768325Y-36815738D01*
X52369040Y-36816262D01*
X52924229Y-36586862D01*
X53349370Y-36162463D01*
X53579738Y-35607675D01*
X53579804Y-35531967D01*
X62622430Y-35531967D01*
X62622430Y-36604033D01*
X62727900Y-37134268D01*
X63028254Y-37583779D01*
X63477765Y-37884133D01*
X64008000Y-37989603D01*
X64538235Y-37884133D01*
X64987746Y-37583779D01*
X65288100Y-37134268D01*
X65393570Y-36604033D01*
X65393570Y-35531967D01*
X67702430Y-35531967D01*
X67702430Y-36604033D01*
X67807900Y-37134268D01*
X68108254Y-37583779D01*
X68557765Y-37884133D01*
X69088000Y-37989603D01*
X69618235Y-37884133D01*
X70067746Y-37583779D01*
X70205580Y-37377496D01*
X80808572Y-37377496D01*
X81034118Y-37923357D01*
X81451386Y-38341354D01*
X81996853Y-38567852D01*
X82587476Y-38568368D01*
X83133337Y-38342822D01*
X83551334Y-37925554D01*
X83777832Y-37380087D01*
X83777834Y-37377496D01*
X86904572Y-37377496D01*
X87130118Y-37923357D01*
X87547386Y-38341354D01*
X88092853Y-38567852D01*
X88683476Y-38568368D01*
X89229337Y-38342822D01*
X89647334Y-37925554D01*
X89873832Y-37380087D01*
X89874348Y-36789464D01*
X89648802Y-36243603D01*
X89231534Y-35825606D01*
X88686067Y-35599108D01*
X88095444Y-35598592D01*
X87549583Y-35824138D01*
X87131586Y-36241406D01*
X86905088Y-36786873D01*
X86904572Y-37377496D01*
X83777834Y-37377496D01*
X83778348Y-36789464D01*
X83552802Y-36243603D01*
X83135534Y-35825606D01*
X82590067Y-35599108D01*
X81999444Y-35598592D01*
X81453583Y-35824138D01*
X81035586Y-36241406D01*
X80809088Y-36786873D01*
X80808572Y-37377496D01*
X70205580Y-37377496D01*
X70368100Y-37134268D01*
X70473570Y-36604033D01*
X70473570Y-35531967D01*
X70368100Y-35001732D01*
X70067746Y-34552221D01*
X69618235Y-34251867D01*
X69088000Y-34146397D01*
X68557765Y-34251867D01*
X68108254Y-34552221D01*
X67807900Y-35001732D01*
X67702430Y-35531967D01*
X65393570Y-35531967D01*
X65288100Y-35001732D01*
X64987746Y-34552221D01*
X64538235Y-34251867D01*
X64008000Y-34146397D01*
X63477765Y-34251867D01*
X63028254Y-34552221D01*
X62727900Y-35001732D01*
X62622430Y-35531967D01*
X53579804Y-35531967D01*
X53580262Y-35006960D01*
X53350862Y-34451771D01*
X52980779Y-34081040D01*
X86881738Y-34081040D01*
X87111138Y-34636229D01*
X87535537Y-35061370D01*
X88090325Y-35291738D01*
X88691040Y-35292262D01*
X89246229Y-35062862D01*
X89671370Y-34638463D01*
X89901738Y-34083675D01*
X89902247Y-33499967D01*
X97420430Y-33499967D01*
X97420430Y-34572033D01*
X97525900Y-35102268D01*
X97826254Y-35551779D01*
X98275765Y-35852133D01*
X98806000Y-35957603D01*
X99336235Y-35852133D01*
X99785746Y-35551779D01*
X100086100Y-35102268D01*
X100191570Y-34572033D01*
X100191570Y-33499967D01*
X102500430Y-33499967D01*
X102500430Y-34572033D01*
X102605900Y-35102268D01*
X102906254Y-35551779D01*
X103355765Y-35852133D01*
X103886000Y-35957603D01*
X104416235Y-35852133D01*
X104865746Y-35551779D01*
X105166100Y-35102268D01*
X105271570Y-34572033D01*
X105271570Y-33499967D01*
X105166100Y-32969732D01*
X104865746Y-32520221D01*
X104416235Y-32219867D01*
X103886000Y-32114397D01*
X103355765Y-32219867D01*
X102906254Y-32520221D01*
X102605900Y-32969732D01*
X102500430Y-33499967D01*
X100191570Y-33499967D01*
X100086100Y-32969732D01*
X99785746Y-32520221D01*
X99336235Y-32219867D01*
X98806000Y-32114397D01*
X98275765Y-32219867D01*
X97826254Y-32520221D01*
X97525900Y-32969732D01*
X97420430Y-33499967D01*
X89902247Y-33499967D01*
X89902262Y-33482960D01*
X89672862Y-32927771D01*
X89248463Y-32502630D01*
X88693675Y-32272262D01*
X88092960Y-32271738D01*
X87537771Y-32501138D01*
X87112630Y-32925537D01*
X86882262Y-33480325D01*
X86881738Y-34081040D01*
X52980779Y-34081040D01*
X52926463Y-34026630D01*
X52371675Y-33796262D01*
X51770960Y-33795738D01*
X51215771Y-34025138D01*
X50790630Y-34449537D01*
X50560262Y-35004325D01*
X50559738Y-35605040D01*
X45516210Y-35605040D01*
X45593000Y-35528250D01*
X45593000Y-34824090D01*
X45496327Y-34590701D01*
X45317698Y-34412073D01*
X45084309Y-34315400D01*
X44227750Y-34315400D01*
X44069000Y-34474150D01*
X43815000Y-34474150D01*
X43656250Y-34315400D01*
X42799691Y-34315400D01*
X42566302Y-34412073D01*
X42387673Y-34590701D01*
X42291000Y-34824090D01*
X41529000Y-34824090D01*
X41529000Y-29845000D01*
X118491000Y-29845000D01*
X118491000Y-50061668D01*
M02*
