%TF.GenerationSoftware,KiCad,Pcbnew,4.0.4+dfsg1-stable*%
%TF.CreationDate,2017-01-22T14:38:32+11:00*%
%TF.ProjectId,main,6D61696E2E6B696361645F7063620000,rev?*%
%TF.FileFunction,Copper,L1,Top,Signal*%
%FSLAX46Y46*%
G04 Gerber Fmt 4.6, Leading zero omitted, Abs format (unit mm)*
G04 Created by KiCad (PCBNEW 4.0.4+dfsg1-stable) date Sun Jan 22 14:38:32 2017*
%MOMM*%
%LPD*%
G01*
G04 APERTURE LIST*
%ADD10C,0.100000*%
%ADD11C,0.300000*%
%ADD12R,0.600000X1.500000*%
%ADD13R,0.800100X0.800100*%
%ADD14R,1.000000X1.600000*%
%ADD15R,1.600000X1.000000*%
%ADD16R,0.900000X1.700000*%
%ADD17R,1.700000X0.900000*%
%ADD18R,0.600000X1.550000*%
%ADD19R,2.032000X1.727200*%
%ADD20O,2.032000X1.727200*%
%ADD21C,1.524000*%
%ADD22O,1.501140X2.499360*%
%ADD23R,1.727200X2.032000*%
%ADD24O,1.727200X2.032000*%
%ADD25R,2.235200X2.235200*%
%ADD26R,1.300000X1.300000*%
%ADD27C,1.300000*%
%ADD28R,1.300480X1.699260*%
%ADD29C,1.000000*%
%ADD30C,0.750000*%
G04 APERTURE END LIST*
D10*
D11*
X110323715Y-66996571D02*
X110823715Y-68496571D01*
X111323715Y-66996571D01*
X111823715Y-67925143D02*
X112966572Y-67925143D01*
X113966572Y-66996571D02*
X114109429Y-66996571D01*
X114252286Y-67068000D01*
X114323715Y-67139429D01*
X114395144Y-67282286D01*
X114466572Y-67568000D01*
X114466572Y-67925143D01*
X114395144Y-68210857D01*
X114323715Y-68353714D01*
X114252286Y-68425143D01*
X114109429Y-68496571D01*
X113966572Y-68496571D01*
X113823715Y-68425143D01*
X113752286Y-68353714D01*
X113680858Y-68210857D01*
X113609429Y-67925143D01*
X113609429Y-67568000D01*
X113680858Y-67282286D01*
X113752286Y-67139429D01*
X113823715Y-67068000D01*
X113966572Y-66996571D01*
X115109429Y-68353714D02*
X115180857Y-68425143D01*
X115109429Y-68496571D01*
X115038000Y-68425143D01*
X115109429Y-68353714D01*
X115109429Y-68496571D01*
X116609429Y-68496571D02*
X115752286Y-68496571D01*
X116180858Y-68496571D02*
X116180858Y-66996571D01*
X116038001Y-67210857D01*
X115895143Y-67353714D01*
X115752286Y-67425143D01*
D12*
X61087000Y-82390000D03*
X59817000Y-82390000D03*
X58547000Y-82390000D03*
X57277000Y-82390000D03*
X56007000Y-82390000D03*
X54737000Y-82390000D03*
X53467000Y-82390000D03*
X52197000Y-82390000D03*
X52197000Y-87790000D03*
X53467000Y-87790000D03*
X54737000Y-87790000D03*
X56007000Y-87790000D03*
X57277000Y-87790000D03*
X58547000Y-87790000D03*
X59817000Y-87790000D03*
X61087000Y-87790000D03*
D13*
X55864760Y-36256000D03*
X55864760Y-34356000D03*
X53865780Y-35306000D03*
D14*
X52856000Y-42164000D03*
X55856000Y-42164000D03*
X126516000Y-51054000D03*
X129516000Y-51054000D03*
D15*
X48260000Y-33806000D03*
X48260000Y-36806000D03*
X60706000Y-50014000D03*
X60706000Y-47014000D03*
X131826000Y-46458000D03*
X131826000Y-43458000D03*
D16*
X55806000Y-38862000D03*
X52906000Y-38862000D03*
D17*
X58674000Y-38788000D03*
X58674000Y-35888000D03*
D18*
X53213000Y-50960000D03*
X54483000Y-50960000D03*
X55753000Y-50960000D03*
X57023000Y-50960000D03*
X57023000Y-45560000D03*
X55753000Y-45560000D03*
X54483000Y-45560000D03*
X53213000Y-45560000D03*
X125095000Y-47150000D03*
X126365000Y-47150000D03*
X127635000Y-47150000D03*
X128905000Y-47150000D03*
X128905000Y-41750000D03*
X127635000Y-41750000D03*
X126365000Y-41750000D03*
X125095000Y-41750000D03*
D19*
X43942000Y-35814000D03*
D20*
X43942000Y-38354000D03*
X43942000Y-40894000D03*
X43942000Y-43434000D03*
X43942000Y-45974000D03*
X43942000Y-48514000D03*
X43942000Y-51054000D03*
D13*
X127746760Y-37272000D03*
X127746760Y-35372000D03*
X125747780Y-36322000D03*
D21*
X67056000Y-41148000D03*
X69596000Y-43688000D03*
X64516000Y-43688000D03*
D22*
X69088000Y-35052000D03*
X64008000Y-35052000D03*
X64008000Y-49022000D03*
X69088000Y-49022000D03*
X118618000Y-34036000D03*
X113538000Y-34036000D03*
X118618000Y-39624000D03*
X113538000Y-39624000D03*
X118618000Y-51308000D03*
X113538000Y-51308000D03*
D17*
X49022000Y-43106000D03*
X49022000Y-40206000D03*
D21*
X115570000Y-44704000D03*
X118110000Y-47244000D03*
X113030000Y-47244000D03*
X88011000Y-41910000D03*
X90678000Y-44704000D03*
X93218000Y-41910000D03*
X90678000Y-39243000D03*
X92456000Y-40005000D03*
D15*
X51054000Y-33806000D03*
X51054000Y-36806000D03*
X50292000Y-50014000D03*
X50292000Y-47014000D03*
X122428000Y-43458000D03*
X122428000Y-46458000D03*
X51562000Y-65048000D03*
X51562000Y-68048000D03*
X57150000Y-79478000D03*
X57150000Y-76478000D03*
X80518000Y-83590000D03*
X80518000Y-86590000D03*
X90424000Y-86590000D03*
X90424000Y-83590000D03*
X94234000Y-83590000D03*
X94234000Y-86590000D03*
X103632000Y-86590000D03*
X103632000Y-83590000D03*
X111252000Y-83336000D03*
X111252000Y-86336000D03*
X120396000Y-86336000D03*
X120396000Y-83336000D03*
X66040000Y-83336000D03*
X66040000Y-86336000D03*
X54864000Y-65048000D03*
X54864000Y-68048000D03*
D14*
X86336000Y-77216000D03*
X83336000Y-77216000D03*
D15*
X56642000Y-90702000D03*
X56642000Y-93702000D03*
X75946000Y-86590000D03*
X75946000Y-83590000D03*
D19*
X43942000Y-62992000D03*
D20*
X43942000Y-65532000D03*
X43942000Y-68072000D03*
X43942000Y-70612000D03*
X43942000Y-73152000D03*
X43942000Y-75692000D03*
X43942000Y-78232000D03*
X43942000Y-80772000D03*
X43942000Y-83312000D03*
X43942000Y-85852000D03*
X43942000Y-88392000D03*
X43942000Y-90932000D03*
X43942000Y-93472000D03*
X43942000Y-96012000D03*
X43942000Y-98552000D03*
D23*
X93980000Y-95250000D03*
D24*
X96520000Y-95250000D03*
X99060000Y-95250000D03*
D22*
X72898000Y-92710000D03*
X67818000Y-92710000D03*
X67818000Y-99822000D03*
X72898000Y-99822000D03*
X76708000Y-72644000D03*
X71628000Y-72644000D03*
D17*
X103124000Y-92128000D03*
X103124000Y-89228000D03*
X103124000Y-96954000D03*
X103124000Y-94054000D03*
X115316000Y-76020000D03*
X115316000Y-78920000D03*
D18*
X69215000Y-87790000D03*
X70485000Y-87790000D03*
X71755000Y-87790000D03*
X73025000Y-87790000D03*
X73025000Y-82390000D03*
X71755000Y-82390000D03*
X70485000Y-82390000D03*
X69215000Y-82390000D03*
X83693000Y-87790000D03*
X84963000Y-87790000D03*
X86233000Y-87790000D03*
X87503000Y-87790000D03*
X87503000Y-82390000D03*
X86233000Y-82390000D03*
X84963000Y-82390000D03*
X83693000Y-82390000D03*
X96901000Y-87790000D03*
X98171000Y-87790000D03*
X99441000Y-87790000D03*
X100711000Y-87790000D03*
X100711000Y-82390000D03*
X99441000Y-82390000D03*
X98171000Y-82390000D03*
X96901000Y-82390000D03*
X113919000Y-87536000D03*
X115189000Y-87536000D03*
X116459000Y-87536000D03*
X117729000Y-87536000D03*
X117729000Y-82136000D03*
X116459000Y-82136000D03*
X115189000Y-82136000D03*
X113919000Y-82136000D03*
D25*
X86360000Y-68326000D03*
D26*
X86614000Y-72898000D03*
D27*
X81614000Y-72898000D03*
D28*
X106707940Y-94488000D03*
X110208060Y-94488000D03*
X110208060Y-91694000D03*
X106707940Y-91694000D03*
D29*
X59690000Y-93726000D03*
X51562000Y-62484000D03*
X115316000Y-73660000D03*
X111252000Y-81280000D03*
X94234000Y-81280000D03*
X80518000Y-81280000D03*
X66040000Y-81280000D03*
X123444000Y-36322000D03*
X122428000Y-40894000D03*
X50292000Y-52578000D03*
X51054000Y-31750000D03*
X53848000Y-31750000D03*
X76200000Y-88900000D03*
X54864000Y-62484000D03*
X120396000Y-88900000D03*
X106172000Y-86614000D03*
X55118000Y-77470000D03*
X90424000Y-88900000D03*
X131826000Y-48768000D03*
X48260000Y-31750000D03*
X57150000Y-53594000D03*
X106172000Y-89154000D03*
X54864000Y-70612000D03*
X56642000Y-96774000D03*
X120396000Y-81280000D03*
X111252000Y-88646000D03*
X86360000Y-90170000D03*
X103632000Y-81280000D03*
X94234000Y-88900000D03*
X75946000Y-81280000D03*
X71882000Y-89916000D03*
X90424000Y-81280000D03*
X80518000Y-88900000D03*
X55118000Y-79756000D03*
X57150000Y-74676000D03*
X66040000Y-88900000D03*
X131826000Y-51054000D03*
X122428000Y-49276000D03*
X60706000Y-44450000D03*
X131826000Y-40894000D03*
X50292000Y-44958000D03*
X46736000Y-38608000D03*
X64516000Y-89408000D03*
X59944000Y-89408000D03*
X96266000Y-85852000D03*
X96520000Y-79502000D03*
X96266000Y-90170000D03*
X81280000Y-78232000D03*
X58928000Y-85598000D03*
X66040000Y-77978000D03*
X85090000Y-85852000D03*
X99568000Y-79502000D03*
X99060000Y-92202000D03*
X50800000Y-85598000D03*
X55626000Y-85598000D03*
X49530000Y-84074000D03*
X61214000Y-84074000D03*
X50546000Y-80518000D03*
X46990000Y-88646000D03*
X52832000Y-90932000D03*
X60452000Y-90932000D03*
X66040000Y-75692000D03*
X61722000Y-79502000D03*
D30*
X56007000Y-89916000D02*
X56007000Y-90043000D01*
X56007000Y-90043000D02*
X59690000Y-93726000D01*
X51562000Y-65048000D02*
X51562000Y-62484000D01*
X56007000Y-87790000D02*
X56007000Y-89916000D01*
X56007000Y-89916000D02*
X56007000Y-89813000D01*
X56007000Y-89813000D02*
X56642000Y-90702000D01*
X115316000Y-76020000D02*
X115316000Y-73660000D01*
X111252000Y-83336000D02*
X111252000Y-81280000D01*
X111252000Y-83336000D02*
X112719000Y-83336000D01*
X112719000Y-83336000D02*
X113919000Y-82136000D01*
X94234000Y-83590000D02*
X94258000Y-83590000D01*
X94258000Y-83590000D02*
X94996000Y-84328000D01*
X98171000Y-83947000D02*
X98171000Y-82390000D01*
X97790000Y-84328000D02*
X98171000Y-83947000D01*
X94996000Y-84328000D02*
X97790000Y-84328000D01*
X94234000Y-83590000D02*
X94234000Y-81280000D01*
X80518000Y-83844000D02*
X80518000Y-81280000D01*
X84963000Y-82390000D02*
X84963000Y-83947000D01*
X84582000Y-84328000D02*
X81002000Y-84328000D01*
X84963000Y-83947000D02*
X84582000Y-84328000D01*
X81002000Y-84328000D02*
X80518000Y-83844000D01*
X66040000Y-83336000D02*
X66040000Y-81280000D01*
X70485000Y-82390000D02*
X70485000Y-83185000D01*
X67310000Y-84328000D02*
X66040000Y-83566000D01*
X69342000Y-84328000D02*
X67310000Y-84328000D01*
X70485000Y-83185000D02*
X69342000Y-84328000D01*
X66040000Y-83566000D02*
X66040000Y-83336000D01*
X122428000Y-43458000D02*
X123976000Y-43458000D01*
X123976000Y-43458000D02*
X124206000Y-43688000D01*
X125747780Y-36322000D02*
X123444000Y-36322000D01*
X122428000Y-43458000D02*
X122428000Y-40894000D01*
X50292000Y-50014000D02*
X50292000Y-52578000D01*
X53340000Y-48006000D02*
X52300000Y-48006000D01*
X52300000Y-48006000D02*
X50292000Y-50014000D01*
X126365000Y-43053000D02*
X126365000Y-41750000D01*
X124206000Y-43688000D02*
X125730000Y-43688000D01*
X125730000Y-43688000D02*
X126365000Y-43053000D01*
X51054000Y-33806000D02*
X51054000Y-31750000D01*
X54483000Y-46863000D02*
X53340000Y-48006000D01*
X54483000Y-46863000D02*
X54483000Y-45560000D01*
X53865780Y-35306000D02*
X53865780Y-31767780D01*
X53865780Y-31767780D02*
X53848000Y-31750000D01*
X75946000Y-86590000D02*
X74225000Y-86590000D01*
X74225000Y-86590000D02*
X73025000Y-87790000D01*
X75946000Y-86590000D02*
X75946000Y-88646000D01*
X75946000Y-88646000D02*
X76200000Y-88900000D01*
X120396000Y-86336000D02*
X118929000Y-86336000D01*
X118929000Y-86336000D02*
X117729000Y-87536000D01*
X54864000Y-65048000D02*
X54864000Y-62484000D01*
X120396000Y-86336000D02*
X120396000Y-88900000D01*
X103632000Y-86590000D02*
X106172000Y-86614000D01*
X103632000Y-86590000D02*
X101911000Y-86590000D01*
X101911000Y-86590000D02*
X100711000Y-87790000D01*
X57150000Y-79478000D02*
X57150000Y-78486000D01*
X55626000Y-77978000D02*
X55118000Y-77470000D01*
X56642000Y-77978000D02*
X55626000Y-77978000D01*
X57150000Y-78486000D02*
X56642000Y-77978000D01*
X90424000Y-86590000D02*
X90424000Y-88900000D01*
X90424000Y-86590000D02*
X88703000Y-86590000D01*
X88703000Y-86590000D02*
X87503000Y-87790000D01*
X57150000Y-79478000D02*
X57150000Y-82263000D01*
X57150000Y-82263000D02*
X57277000Y-82390000D01*
X131826000Y-46458000D02*
X131826000Y-48768000D01*
X128905000Y-47150000D02*
X131642000Y-47150000D01*
X131642000Y-47150000D02*
X131826000Y-46458000D01*
X131642000Y-47150000D02*
X131826000Y-46458000D01*
X57023000Y-50960000D02*
X59252000Y-50960000D01*
X59252000Y-50960000D02*
X60706000Y-50014000D01*
X48260000Y-33806000D02*
X48260000Y-31750000D01*
X60706000Y-50014000D02*
X61190000Y-50014000D01*
X48260000Y-33552000D02*
X48792000Y-33806000D01*
X60706000Y-50014000D02*
X60428000Y-50014000D01*
X57023000Y-50960000D02*
X57023000Y-53467000D01*
X57023000Y-53467000D02*
X57150000Y-53594000D01*
X63246000Y-73152000D02*
X63246000Y-56896000D01*
X44958000Y-73152000D02*
X63246000Y-73152000D01*
X58547000Y-82390000D02*
X58547000Y-80645000D01*
X61214000Y-77978000D02*
X58547000Y-80645000D01*
X61214000Y-77978000D02*
X63246000Y-77978000D01*
X63246000Y-77978000D02*
X63246000Y-73152000D01*
X63246000Y-77978000D02*
X63246000Y-91948000D01*
X64008000Y-92710000D02*
X67818000Y-92710000D01*
X63246000Y-91948000D02*
X64008000Y-92710000D01*
X63246000Y-56896000D02*
X47752000Y-56896000D01*
X47752000Y-56896000D02*
X45974000Y-55118000D01*
X43942000Y-45974000D02*
X45466000Y-45974000D01*
X45974000Y-46482000D02*
X45466000Y-45974000D01*
X45974000Y-55118000D02*
X45974000Y-46482000D01*
X93218000Y-55372000D02*
X91694000Y-56896000D01*
X63246000Y-56896000D02*
X91694000Y-56896000D01*
X93218000Y-55372000D02*
X93218000Y-41910000D01*
X126492000Y-44958000D02*
X119634000Y-44958000D01*
X119634000Y-44958000D02*
X117348000Y-42672000D01*
X113538000Y-34036000D02*
X113284000Y-34036000D01*
X113284000Y-34036000D02*
X111252000Y-36068000D01*
X111252000Y-36068000D02*
X111252000Y-42672000D01*
X93218000Y-41910000D02*
X93980000Y-42672000D01*
X93980000Y-42672000D02*
X94742000Y-42672000D01*
X117348000Y-42672000D02*
X111252000Y-42672000D01*
X111252000Y-42672000D02*
X94742000Y-42672000D01*
X94742000Y-42672000D02*
X93980000Y-42672000D01*
X113538000Y-34036000D02*
X113538000Y-35052000D01*
X43688000Y-46228000D02*
X43942000Y-45974000D01*
X43942000Y-45974000D02*
X43434000Y-45974000D01*
X127635000Y-47150000D02*
X127635000Y-46101000D01*
X127635000Y-46101000D02*
X126492000Y-44958000D01*
X113538000Y-34036000D02*
X113538000Y-34290000D01*
X93218000Y-42418000D02*
X93218000Y-41910000D01*
X93472000Y-42164000D02*
X93218000Y-42418000D01*
X113538000Y-34036000D02*
X113792000Y-34036000D01*
X52906000Y-38862000D02*
X52906000Y-42114000D01*
X52906000Y-42114000D02*
X52856000Y-42164000D01*
X52906000Y-38862000D02*
X52832000Y-38862000D01*
X52856000Y-41426000D02*
X52856000Y-42164000D01*
X55856000Y-42164000D02*
X55856000Y-42140000D01*
X55856000Y-42140000D02*
X54356000Y-40640000D01*
X55753000Y-45560000D02*
X55753000Y-42267000D01*
X55753000Y-42267000D02*
X55856000Y-42164000D01*
X54356000Y-37846000D02*
X55864760Y-36337240D01*
X54356000Y-37846000D02*
X54356000Y-40640000D01*
X55864760Y-36256000D02*
X55864760Y-36337240D01*
X55753000Y-44831000D02*
X55753000Y-45560000D01*
X126516000Y-51054000D02*
X126516000Y-52300000D01*
X126516000Y-52300000D02*
X124968000Y-53848000D01*
X112522000Y-47244000D02*
X113030000Y-47244000D01*
X113538000Y-46736000D02*
X113030000Y-47244000D01*
X117348000Y-53848000D02*
X124968000Y-53848000D01*
X113538000Y-47752000D02*
X116078000Y-50546000D01*
X116078000Y-52578000D02*
X117348000Y-53848000D01*
X116078000Y-50546000D02*
X116078000Y-52578000D01*
X126365000Y-47150000D02*
X126365000Y-51205000D01*
X126365000Y-51205000D02*
X126516000Y-51054000D01*
X113538000Y-46736000D02*
X113538000Y-47752000D01*
X113919000Y-87536000D02*
X113919000Y-86233000D01*
X116459000Y-85979000D02*
X116459000Y-87536000D01*
X115824000Y-85344000D02*
X116459000Y-85979000D01*
X114808000Y-85344000D02*
X115824000Y-85344000D01*
X113919000Y-86233000D02*
X114808000Y-85344000D01*
X103124000Y-89228000D02*
X106098000Y-89228000D01*
X106098000Y-89228000D02*
X106172000Y-89154000D01*
X51562000Y-68048000D02*
X54864000Y-68048000D01*
X54864000Y-68048000D02*
X54888000Y-68072000D01*
X54888000Y-68072000D02*
X54864000Y-70612000D01*
X56642000Y-93702000D02*
X56618000Y-96750000D01*
X56618000Y-96750000D02*
X56642000Y-96774000D01*
X111252000Y-86336000D02*
X112719000Y-86336000D01*
X112719000Y-86336000D02*
X113919000Y-87536000D01*
X120396000Y-83336000D02*
X120396000Y-81280000D01*
X111252000Y-86336000D02*
X111252000Y-88646000D01*
X86233000Y-87790000D02*
X86233000Y-90043000D01*
X86233000Y-90043000D02*
X86360000Y-90170000D01*
X103632000Y-83590000D02*
X103632000Y-81280000D01*
X94234000Y-86590000D02*
X94234000Y-88900000D01*
X75946000Y-83590000D02*
X75946000Y-81280000D01*
X71755000Y-87790000D02*
X71755000Y-89789000D01*
X71755000Y-89789000D02*
X71882000Y-89916000D01*
X90424000Y-83590000D02*
X90424000Y-81280000D01*
X80518000Y-86844000D02*
X80518000Y-88900000D01*
X56007000Y-82390000D02*
X56007000Y-81153000D01*
X56007000Y-81153000D02*
X55118000Y-79756000D01*
X57150000Y-76478000D02*
X57126000Y-74700000D01*
X57126000Y-74700000D02*
X57150000Y-74676000D01*
X66040000Y-86336000D02*
X66040000Y-88900000D01*
X49022000Y-40206000D02*
X49022000Y-36806000D01*
X49022000Y-36806000D02*
X49022000Y-36830000D01*
X49022000Y-36830000D02*
X48260000Y-36806000D01*
X129516000Y-51054000D02*
X131826000Y-51054000D01*
X122428000Y-46458000D02*
X122428000Y-49276000D01*
X60706000Y-47014000D02*
X60706000Y-44450000D01*
X131826000Y-43458000D02*
X131826000Y-40894000D01*
X50292000Y-47014000D02*
X50292000Y-44958000D01*
X48260000Y-36806000D02*
X51054000Y-36806000D01*
X49022000Y-38608000D02*
X46736000Y-38608000D01*
X49022000Y-38608000D02*
X49022000Y-40206000D01*
X48768000Y-39952000D02*
X49022000Y-40206000D01*
X48260000Y-36806000D02*
X47982000Y-36806000D01*
X55806000Y-38862000D02*
X58674000Y-38862000D01*
X58674000Y-38788000D02*
X58674000Y-38862000D01*
X58674000Y-38862000D02*
X58674000Y-46736000D01*
X54610000Y-49530000D02*
X54356000Y-50833000D01*
X56642000Y-47498000D02*
X54610000Y-49530000D01*
X57912000Y-47498000D02*
X56642000Y-47498000D01*
X58674000Y-46736000D02*
X57912000Y-47498000D01*
X54356000Y-50833000D02*
X54483000Y-50960000D01*
X58674000Y-38788000D02*
X58346000Y-38788000D01*
X64008000Y-43180000D02*
X64516000Y-43688000D01*
X67056000Y-43434000D02*
X67056000Y-47752000D01*
X66040000Y-48768000D02*
X67056000Y-47752000D01*
X66040000Y-48768000D02*
X62738000Y-48768000D01*
X57150000Y-48768000D02*
X62738000Y-48768000D01*
X55753000Y-50165000D02*
X57150000Y-48768000D01*
X55753000Y-50960000D02*
X55753000Y-50165000D01*
X62738000Y-48768000D02*
X63754000Y-48768000D01*
X63754000Y-48768000D02*
X64008000Y-49022000D01*
X69596000Y-43688000D02*
X67310000Y-43688000D01*
X67310000Y-43688000D02*
X67056000Y-43434000D01*
X67056000Y-41148000D02*
X67056000Y-43434000D01*
X127746760Y-38623240D02*
X127746760Y-37272000D01*
X127746760Y-37272000D02*
X127635000Y-37383760D01*
X127635000Y-37383760D02*
X127635000Y-41750000D01*
X127746760Y-38623240D02*
X127635000Y-38735000D01*
X127635000Y-38735000D02*
X127635000Y-41750000D01*
X115570000Y-44704000D02*
X118110000Y-47244000D01*
X118618000Y-51308000D02*
X118618000Y-46736000D01*
X69088000Y-33020000D02*
X69088000Y-35052000D01*
X70358000Y-31750000D02*
X69088000Y-33020000D01*
X69342000Y-34798000D02*
X69088000Y-35052000D01*
X116078000Y-31750000D02*
X70358000Y-31750000D01*
X69088000Y-34798000D02*
X69088000Y-35052000D01*
X116078000Y-31750000D02*
X118618000Y-34036000D01*
X118618000Y-34036000D02*
X126492000Y-34036000D01*
X127238760Y-34782760D02*
X126492000Y-34036000D01*
X127746760Y-35372000D02*
X127238760Y-34782760D01*
X118618000Y-34036000D02*
X118618000Y-39624000D01*
X118618000Y-39624000D02*
X118618000Y-40640000D01*
X118618000Y-34036000D02*
X118618000Y-33528000D01*
X69088000Y-35052000D02*
X69342000Y-35052000D01*
X69088000Y-35052000D02*
X69088000Y-35306000D01*
X127746760Y-35372000D02*
X127746760Y-35290760D01*
X63492001Y-37853999D02*
X69080001Y-37853999D01*
X69080001Y-37853999D02*
X69088000Y-37861998D01*
X63119000Y-37465000D02*
X63119000Y-37480998D01*
X63119000Y-37480998D02*
X63492001Y-37853999D01*
X69088000Y-37861998D02*
X69834002Y-37861998D01*
X69834002Y-37861998D02*
X71374000Y-36322000D01*
X71374000Y-36322000D02*
X71374000Y-34290000D01*
X72136000Y-33528000D02*
X71374000Y-34290000D01*
X72136000Y-33528000D02*
X91694000Y-33528000D01*
X93218000Y-38862000D02*
X92456000Y-39624000D01*
X93218000Y-35052000D02*
X91694000Y-33528000D01*
X93218000Y-38862000D02*
X93218000Y-35052000D01*
X63119000Y-37465000D02*
X60010000Y-34356000D01*
X60010000Y-34356000D02*
X55864760Y-34356000D01*
X92456000Y-40005000D02*
X92456000Y-39624000D01*
X92456000Y-40005000D02*
X92456000Y-39878000D01*
X92456000Y-40005000D02*
X92075000Y-40005000D01*
X92456000Y-40005000D02*
X92329000Y-40005000D01*
X55864760Y-34356000D02*
X55864760Y-34305240D01*
X89154000Y-45720000D02*
X89154000Y-53594000D01*
X47498000Y-43434000D02*
X47498000Y-53848000D01*
X47498000Y-53848000D02*
X48768000Y-55118000D01*
X48768000Y-55118000D02*
X87630000Y-55118000D01*
X89154000Y-53594000D02*
X87630000Y-55118000D01*
X89154000Y-45720000D02*
X90170000Y-44704000D01*
X90678000Y-44704000D02*
X90170000Y-44704000D01*
X47498000Y-43434000D02*
X48694000Y-43434000D01*
X43942000Y-43434000D02*
X47498000Y-43434000D01*
X48694000Y-43434000D02*
X49022000Y-43106000D01*
X44196000Y-43688000D02*
X43688000Y-43688000D01*
X43688000Y-43688000D02*
X43942000Y-43434000D01*
X48694000Y-43434000D02*
X49022000Y-43106000D01*
X48768000Y-43434000D02*
X49022000Y-43180000D01*
X49022000Y-43180000D02*
X49022000Y-43106000D01*
X44270000Y-43106000D02*
X43942000Y-43434000D01*
X43688000Y-43688000D02*
X43942000Y-43434000D01*
X43180000Y-43434000D02*
X43942000Y-43434000D01*
X49022000Y-43106000D02*
X48588000Y-43106000D01*
X88011000Y-41910000D02*
X88011000Y-41783000D01*
X88011000Y-41783000D02*
X85598000Y-39370000D01*
X85598000Y-39370000D02*
X62156000Y-39370000D01*
X62156000Y-39370000D02*
X58674000Y-35888000D01*
X58674000Y-35560000D02*
X58674000Y-35888000D01*
X86336000Y-74168000D02*
X86336000Y-68350000D01*
X86336000Y-68350000D02*
X86360000Y-68326000D01*
X86336000Y-77216000D02*
X86336000Y-74168000D01*
X86336000Y-74168000D02*
X86336000Y-73176000D01*
X86336000Y-73176000D02*
X86614000Y-72898000D01*
X86336000Y-79502000D02*
X86336000Y-82287000D01*
X86336000Y-82287000D02*
X86233000Y-82390000D01*
X65532000Y-79502000D02*
X86336000Y-79502000D01*
X86336000Y-79502000D02*
X86614000Y-79502000D01*
X86614000Y-68580000D02*
X86360000Y-68326000D01*
X96266000Y-90170000D02*
X96266000Y-91186000D01*
X96266000Y-91186000D02*
X94234000Y-93218000D01*
X64516000Y-80518000D02*
X64516000Y-89408000D01*
X65532000Y-79502000D02*
X64516000Y-80518000D01*
X59817000Y-89281000D02*
X59817000Y-87790000D01*
X59817000Y-89281000D02*
X59944000Y-89408000D01*
X94234000Y-93218000D02*
X94234000Y-94996000D01*
X94234000Y-94996000D02*
X93980000Y-95250000D01*
X99441000Y-87790000D02*
X99441000Y-85979000D01*
X99314000Y-85852000D02*
X96266000Y-85852000D01*
X99441000Y-85979000D02*
X99314000Y-85852000D01*
X86336000Y-79502000D02*
X96520000Y-79502000D01*
X93853000Y-95377000D02*
X93980000Y-95250000D01*
X86336000Y-79502000D02*
X86614000Y-79502000D01*
X86614000Y-79502000D02*
X86336000Y-79502000D01*
X86336000Y-77216000D02*
X86336000Y-79502000D01*
X81614000Y-72898000D02*
X81614000Y-76882000D01*
X81614000Y-76882000D02*
X81280000Y-77216000D01*
X81280000Y-77216000D02*
X81280000Y-78232000D01*
X58547000Y-85979000D02*
X58928000Y-85598000D01*
X58547000Y-87790000D02*
X58547000Y-85979000D01*
X66802000Y-77216000D02*
X66040000Y-77978000D01*
X81280000Y-77216000D02*
X66802000Y-77216000D01*
X83336000Y-77216000D02*
X83336000Y-77494000D01*
X83336000Y-77216000D02*
X81280000Y-77216000D01*
X76708000Y-72644000D02*
X81360000Y-72644000D01*
X81360000Y-72644000D02*
X81614000Y-72898000D01*
X84963000Y-85979000D02*
X84963000Y-87790000D01*
X85090000Y-85852000D02*
X84963000Y-85979000D01*
X103124000Y-96954000D02*
X103124000Y-98552000D01*
X110236000Y-97282000D02*
X108966000Y-98552000D01*
X108966000Y-98552000D02*
X108712000Y-98552000D01*
X110236000Y-97282000D02*
X110236000Y-94515940D01*
X99060000Y-95250000D02*
X99060000Y-97536000D01*
X100076000Y-98552000D02*
X103124000Y-98552000D01*
X99060000Y-97536000D02*
X100076000Y-98552000D01*
X99060000Y-95250000D02*
X99060000Y-92202000D01*
X99441000Y-79629000D02*
X99441000Y-82390000D01*
X99568000Y-79502000D02*
X99441000Y-79629000D01*
X110208060Y-94488000D02*
X110208060Y-91694000D01*
X103124000Y-98552000D02*
X108712000Y-98552000D01*
X108712000Y-98552000D02*
X108966000Y-98552000D01*
X110236000Y-94515940D02*
X110208060Y-94488000D01*
X100838000Y-92002462D02*
X102998462Y-92002462D01*
X102998462Y-92002462D02*
X103124000Y-92128000D01*
X103124000Y-92128000D02*
X103124000Y-94054000D01*
X98171000Y-87790000D02*
X98171000Y-89609000D01*
X98171000Y-89609000D02*
X100838000Y-92002462D01*
X106707940Y-94488000D02*
X106707940Y-91694000D01*
X103886000Y-94054000D02*
X106273940Y-94054000D01*
X106273940Y-94054000D02*
X106707940Y-94488000D01*
X43942000Y-75692000D02*
X48768000Y-75692000D01*
X48768000Y-75692000D02*
X54737000Y-81661000D01*
X54737000Y-82390000D02*
X54737000Y-81661000D01*
X43942000Y-80772000D02*
X48514000Y-80772000D01*
X48514000Y-80772000D02*
X50800000Y-83058000D01*
X55626000Y-85598000D02*
X56896000Y-85598000D01*
X57404000Y-86106000D02*
X57404000Y-87663000D01*
X56896000Y-85598000D02*
X57404000Y-86106000D01*
X57404000Y-87663000D02*
X57277000Y-87790000D01*
X50800000Y-83058000D02*
X50800000Y-85598000D01*
X43942000Y-80772000D02*
X44196000Y-80772000D01*
X43942000Y-83312000D02*
X48260000Y-83312000D01*
X48260000Y-83312000D02*
X49530000Y-84074000D01*
X61214000Y-84074000D02*
X61087000Y-83693000D01*
X61087000Y-83693000D02*
X61087000Y-82390000D01*
X43942000Y-85852000D02*
X48260000Y-85852000D01*
X48260000Y-85852000D02*
X50198000Y-87790000D01*
X50198000Y-87790000D02*
X52197000Y-87790000D01*
X43942000Y-85852000D02*
X44196000Y-85852000D01*
X43942000Y-88392000D02*
X46736000Y-88392000D01*
X50546000Y-80518000D02*
X52197000Y-82169000D01*
X46736000Y-88392000D02*
X46990000Y-88646000D01*
X52197000Y-82390000D02*
X52197000Y-82169000D01*
X43942000Y-90932000D02*
X52832000Y-90932000D01*
X61214000Y-90170000D02*
X61214000Y-87917000D01*
X60452000Y-90932000D02*
X61214000Y-90170000D01*
X61214000Y-87917000D02*
X61087000Y-87790000D01*
X43942000Y-93472000D02*
X48260000Y-93472000D01*
X122174000Y-101346000D02*
X122174000Y-79502000D01*
X121158000Y-102362000D02*
X122174000Y-101346000D01*
X50546000Y-102362000D02*
X121158000Y-102362000D01*
X121592000Y-78920000D02*
X115316000Y-78920000D01*
X121592000Y-78920000D02*
X122174000Y-79502000D01*
X49276000Y-94488000D02*
X49276000Y-101092000D01*
X49276000Y-101092000D02*
X50546000Y-102362000D01*
X48260000Y-93472000D02*
X49276000Y-94488000D01*
X115316000Y-78920000D02*
X115316000Y-82009000D01*
X115316000Y-82009000D02*
X115189000Y-82136000D01*
X96520000Y-95250000D02*
X96520000Y-99060000D01*
X97790000Y-100330000D02*
X114300000Y-100330000D01*
X114300000Y-100330000D02*
X115316000Y-99314000D01*
X115316000Y-99314000D02*
X115316000Y-87663000D01*
X97790000Y-100330000D02*
X96520000Y-99060000D01*
X115316000Y-87663000D02*
X115189000Y-87536000D01*
X70485000Y-87790000D02*
X70485000Y-90297000D01*
X70485000Y-90297000D02*
X72898000Y-92710000D01*
X72898000Y-92710000D02*
X72898000Y-99822000D01*
X54737000Y-87790000D02*
X54737000Y-97917000D01*
X56134000Y-99314000D02*
X67310000Y-99314000D01*
X54737000Y-97917000D02*
X56134000Y-99314000D01*
X67310000Y-99314000D02*
X67818000Y-99822000D01*
X70104000Y-85598000D02*
X68580000Y-85598000D01*
X71755000Y-83947000D02*
X70104000Y-85598000D01*
X71755000Y-82390000D02*
X71755000Y-83947000D01*
X68072000Y-89154000D02*
X69342000Y-90424000D01*
X68072000Y-86106000D02*
X68072000Y-89154000D01*
X68580000Y-85598000D02*
X68072000Y-86106000D01*
X69342000Y-90424000D02*
X69342000Y-90932000D01*
X69342000Y-98806000D02*
X68326000Y-99822000D01*
X69342000Y-90424000D02*
X69342000Y-90932000D01*
X69342000Y-90932000D02*
X69342000Y-98806000D01*
X68326000Y-99822000D02*
X67818000Y-99822000D01*
X66294000Y-75438000D02*
X68834000Y-72644000D01*
X66040000Y-75692000D02*
X66294000Y-75438000D01*
X59817000Y-82390000D02*
X59817000Y-81407000D01*
X59817000Y-81407000D02*
X61722000Y-79502000D01*
X71628000Y-72644000D02*
X68834000Y-72644000D01*
X59817000Y-82390000D02*
X59817000Y-81661000D01*
X53467000Y-84328000D02*
X59436000Y-84328000D01*
X59436000Y-84328000D02*
X59817000Y-83947000D01*
X59817000Y-83947000D02*
X59817000Y-82390000D01*
X53467000Y-87790000D02*
X53467000Y-84328000D01*
X53467000Y-84328000D02*
X53467000Y-82390000D01*
M02*
